<svg xmlns="http://www.w3.org/2000/svg" preserveAspectRatio="xMinYMin meet" viewBox="0 0 500 500" shape-rendering="crispEdges" transform-origin="center"><rect width="100%" height="100%" fill="#340D07" /><g transform="scale (5 5)"><rect x="27" y="-1" width="45" height="9" stroke-width="0.3" stroke="black" fill="#FFA800" /><text x="50" y="5.5" width="36" font-family="monospace" font-size="5" text-anchor="middle">Burning Maze</text></g><rect x="90" y="90" width="319" height="29" fill="#5D0503" /><rect x="90" y="119" width="29" height="29" fill="#5D0503" /><rect x="177" y="119" width="232" height="29" fill="#5D0503" /><rect x="90" y="148" width="29" height="29" fill="#5D0503" /><rect x="322" y="148" width="87" height="29" fill="#5D0503" /><rect x="90" y="177" width="29" height="29" fill="#5D0503" /><rect x="177" y="177" width="29" height="29" fill="#5D0503" /><rect x="264" y="177" width="29" height="29" fill="#5D0503" /><rect x="351" y="177" width="58" height="29" fill="#5D0503" /><rect x="90" y="206" width="29" height="29" fill="#5D0503" /><rect x="177" y="206" width="29" height="29" fill="#5D0503" /><rect x="351" y="206" width="58" height="29" fill="#5D0503" /><rect x="90" y="235" width="58" height="29" fill="#5D0503" /><rect x="177" y="235" width="58" height="29" fill="#5D0503" /><rect x="264" y="235" width="29" height="29" fill="#5D0503" /><rect x="322" y="235" width="87" height="29" fill="#5D0503" /><rect x="90" y="264" width="58" height="29" fill="#5D0503" /><rect x="177" y="264" width="58" height="29" fill="#5D0503" /><rect x="322" y="264" width="87" height="29" fill="#5D0503" /><rect x="90" y="293" width="58" height="29" fill="#5D0503" /><rect x="322" y="293" width="87" height="29" fill="#5D0503" /><rect x="90" y="322" width="58" height="29" fill="#5D0503" /><rect x="235" y="322" width="174" height="29" fill="#5D0503" /><rect x="90" y="351" width="319" height="29" fill="#5D0503" /><rect x="90" y="380" width="319" height="29" fill="#5D0503" /><rect x="235" y="264" width="29" height="29" fill="#B75700" /><rect x="148" y="264" width="29" height="29" fill="#B75700" /><rect x="264" y="206" width="29" height="29" fill="#B75700" /></svg>