<svg xmlns="http://www.w3.org/2000/svg" preserveAspectRatio="xMinYMin meet" viewBox="0 0 500 500" shape-rendering="crispEdges" transform-origin="center"><rect width="100%" height="100%" fill="#967E67" /><g transform="scale (5 5)"><rect x="8" y="-1" width="84" height="9" stroke-width="0.3" stroke="black" fill="#FFA800" /><text x="50" y="5.5" width="117" font-family="monospace" font-size="4" text-anchor="middle">Empyrean Waterfall of the Vortex</text></g><rect x="75" y="75" width="275" height="25" fill="#F3D899" /><rect x="375" y="75" width="50" height="25" fill="#F3D899" /><rect x="75" y="100" width="275" height="25" fill="#F3D899" /><rect x="375" y="100" width="50" height="25" fill="#F3D899" /><rect x="75" y="125" width="200" height="25" fill="#F3D899" /><rect x="300" y="125" width="50" height="25" fill="#F3D899" /><rect x="375" y="125" width="50" height="25" fill="#F3D899" /><rect x="75" y="150" width="25" height="25" fill="#F3D899" /><rect x="125" y="150" width="150" height="25" fill="#F3D899" /><rect x="325" y="150" width="25" height="25" fill="#F3D899" /><rect x="400" y="150" width="25" height="25" fill="#F3D899" /><rect x="75" y="175" width="175" height="25" fill="#F3D899" /><rect x="300" y="175" width="50" height="25" fill="#F3D899" /><rect x="75" y="200" width="175" height="25" fill="#F3D899" /><rect x="300" y="200" width="50" height="25" fill="#F3D899" /><rect x="75" y="225" width="175" height="25" fill="#F3D899" /><rect x="300" y="225" width="75" height="25" fill="#F3D899" /><rect x="75" y="250" width="175" height="25" fill="#F3D899" /><rect x="325" y="250" width="25" height="25" fill="#F3D899" /><rect x="400" y="250" width="25" height="25" fill="#F3D899" /><rect x="75" y="275" width="175" height="25" fill="#F3D899" /><rect x="325" y="275" width="25" height="25" fill="#F3D899" /><rect x="75" y="300" width="175" height="25" fill="#F3D899" /><rect x="300" y="300" width="75" height="25" fill="#F3D899" /><rect x="400" y="300" width="25" height="25" fill="#F3D899" /><rect x="75" y="325" width="175" height="25" fill="#F3D899" /><rect x="300" y="325" width="75" height="25" fill="#F3D899" /><rect x="400" y="325" width="25" height="25" fill="#F3D899" /><rect x="75" y="350" width="100" height="25" fill="#F3D899" /><rect x="400" y="350" width="25" height="25" fill="#F3D899" /><rect x="75" y="375" width="100" height="25" fill="#F3D899" /><rect x="200" y="375" width="75" height="25" fill="#F3D899" /><rect x="375" y="375" width="50" height="25" fill="#F3D899" /><rect x="75" y="400" width="100" height="25" fill="#F3D899" /><rect x="225" y="400" width="25" height="25" fill="#F3D899" /><rect x="375" y="400" width="50" height="25" fill="#F3D899" /><rect x="350" y="275" width="25" height="25" fill="#3C2A1A" /><rect x="400" y="225" width="25" height="25" fill="#006669" /><rect x="375" y="225" width="25" height="25" fill="#3C2A1A" /></svg>