<svg xmlns="http://www.w3.org/2000/svg" preserveAspectRatio="xMinYMin meet" viewBox="0 0 500 500" shape-rendering="crispEdges" transform-origin="center"><rect width="100%" height="100%" fill="#340D07" /><g transform="scale (5 5)"><rect x="20" y="-1" width="60" height="9" stroke-width="0.3" stroke="black" fill="#FFA800" /><text x="50" y="5.5" width="51" font-family="monospace" font-size="5" text-anchor="middle">Waterfall of Pain</text></g><rect x="71" y="71" width="357" height="21" fill="#5D0503" /><rect x="71" y="92" width="357" height="21" fill="#5D0503" /><rect x="71" y="113" width="357" height="21" fill="#5D0503" /><rect x="71" y="134" width="168" height="21" fill="#5D0503" /><rect x="323" y="134" width="105" height="21" fill="#5D0503" /><rect x="71" y="155" width="168" height="21" fill="#5D0503" /><rect x="323" y="155" width="105" height="21" fill="#5D0503" /><rect x="71" y="176" width="210" height="21" fill="#5D0503" /><rect x="365" y="176" width="63" height="21" fill="#5D0503" /><rect x="71" y="197" width="210" height="21" fill="#5D0503" /><rect x="365" y="197" width="63" height="21" fill="#5D0503" /><rect x="71" y="218" width="21" height="21" fill="#5D0503" /><rect x="134" y="218" width="147" height="21" fill="#5D0503" /><rect x="302" y="218" width="21" height="21" fill="#5D0503" /><rect x="344" y="218" width="84" height="21" fill="#5D0503" /><rect x="71" y="239" width="21" height="21" fill="#5D0503" /><rect x="302" y="239" width="21" height="21" fill="#5D0503" /><rect x="344" y="239" width="84" height="21" fill="#5D0503" /><rect x="71" y="260" width="42" height="21" fill="#5D0503" /><rect x="134" y="260" width="21" height="21" fill="#5D0503" /><rect x="218" y="260" width="63" height="21" fill="#5D0503" /><rect x="302" y="260" width="21" height="21" fill="#5D0503" /><rect x="344" y="260" width="84" height="21" fill="#5D0503" /><rect x="71" y="281" width="42" height="21" fill="#5D0503" /><rect x="134" y="281" width="21" height="21" fill="#5D0503" /><rect x="218" y="281" width="42" height="21" fill="#5D0503" /><rect x="302" y="281" width="21" height="21" fill="#5D0503" /><rect x="344" y="281" width="84" height="21" fill="#5D0503" /><rect x="71" y="302" width="42" height="21" fill="#5D0503" /><rect x="218" y="302" width="42" height="21" fill="#5D0503" /><rect x="365" y="302" width="63" height="21" fill="#5D0503" /><rect x="71" y="323" width="84" height="21" fill="#5D0503" /><rect x="218" y="323" width="63" height="21" fill="#5D0503" /><rect x="302" y="323" width="21" height="21" fill="#5D0503" /><rect x="365" y="323" width="63" height="21" fill="#5D0503" /><rect x="71" y="344" width="189" height="21" fill="#5D0503" /><rect x="302" y="344" width="21" height="21" fill="#5D0503" /><rect x="365" y="344" width="63" height="21" fill="#5D0503" /><rect x="71" y="365" width="189" height="21" fill="#5D0503" /><rect x="302" y="365" width="126" height="21" fill="#5D0503" /><rect x="71" y="386" width="357" height="21" fill="#5D0503" /><rect x="71" y="407" width="357" height="21" fill="#5D0503" /><rect x="344" y="302" width="21" height="21" fill="#B75700" /><rect x="260" y="302" width="21" height="21" fill="#FF1800" /><rect x="260" y="134" width="21" height="21" fill="#FF1800" /></svg>