<svg xmlns="http://www.w3.org/2000/svg" preserveAspectRatio="xMinYMin meet" viewBox="0 0 500 500" shape-rendering="crispEdges" transform-origin="center"><rect width="100%" height="100%" fill="#36230F" /><g transform="scale (5 5)"><rect x="9" y="-1" width="81" height="9" stroke-width="0.3" stroke="black" fill="#FFA800" /><text x="50" y="5.5" width="72" font-family="monospace" font-size="5" text-anchor="middle">Decrepid Oasis of Horror</text></g><rect x="60" y="60" width="380" height="19" fill="#744936" /><rect x="60" y="79" width="19" height="19" fill="#744936" /><rect x="117" y="79" width="323" height="19" fill="#744936" /><rect x="60" y="98" width="19" height="19" fill="#744936" /><rect x="117" y="98" width="323" height="19" fill="#744936" /><rect x="60" y="117" width="38" height="19" fill="#744936" /><rect x="117" y="117" width="19" height="19" fill="#744936" /><rect x="212" y="117" width="228" height="19" fill="#744936" /><rect x="60" y="136" width="38" height="19" fill="#744936" /><rect x="117" y="136" width="19" height="19" fill="#744936" /><rect x="231" y="136" width="209" height="19" fill="#744936" /><rect x="60" y="155" width="38" height="19" fill="#744936" /><rect x="117" y="155" width="57" height="19" fill="#744936" /><rect x="193" y="155" width="19" height="19" fill="#744936" /><rect x="231" y="155" width="209" height="19" fill="#744936" /><rect x="60" y="174" width="38" height="19" fill="#744936" /><rect x="117" y="174" width="57" height="19" fill="#744936" /><rect x="193" y="174" width="19" height="19" fill="#744936" /><rect x="231" y="174" width="209" height="19" fill="#744936" /><rect x="60" y="193" width="38" height="19" fill="#744936" /><rect x="117" y="193" width="57" height="19" fill="#744936" /><rect x="193" y="193" width="19" height="19" fill="#744936" /><rect x="231" y="193" width="38" height="19" fill="#744936" /><rect x="345" y="193" width="95" height="19" fill="#744936" /><rect x="60" y="212" width="19" height="19" fill="#744936" /><rect x="155" y="212" width="19" height="19" fill="#744936" /><rect x="231" y="212" width="38" height="19" fill="#744936" /><rect x="345" y="212" width="95" height="19" fill="#744936" /><rect x="60" y="231" width="19" height="19" fill="#744936" /><rect x="231" y="231" width="38" height="19" fill="#744936" /><rect x="345" y="231" width="95" height="19" fill="#744936" /><rect x="60" y="250" width="19" height="19" fill="#744936" /><rect x="345" y="250" width="95" height="19" fill="#744936" /><rect x="60" y="269" width="19" height="19" fill="#744936" /><rect x="231" y="269" width="209" height="19" fill="#744936" /><rect x="60" y="288" width="19" height="19" fill="#744936" /><rect x="117" y="288" width="19" height="19" fill="#744936" /><rect x="193" y="288" width="133" height="19" fill="#744936" /><rect x="383" y="288" width="57" height="19" fill="#744936" /><rect x="60" y="307" width="19" height="19" fill="#744936" /><rect x="383" y="307" width="57" height="19" fill="#744936" /><rect x="60" y="326" width="19" height="19" fill="#744936" /><rect x="117" y="326" width="19" height="19" fill="#744936" /><rect x="364" y="326" width="76" height="19" fill="#744936" /><rect x="60" y="345" width="38" height="19" fill="#744936" /><rect x="174" y="345" width="171" height="19" fill="#744936" /><rect x="364" y="345" width="76" height="19" fill="#744936" /><rect x="60" y="364" width="76" height="19" fill="#744936" /><rect x="174" y="364" width="133" height="19" fill="#744936" /><rect x="383" y="364" width="57" height="19" fill="#744936" /><rect x="60" y="383" width="247" height="19" fill="#744936" /><rect x="383" y="383" width="57" height="19" fill="#744936" /><rect x="60" y="402" width="380" height="19" fill="#744936" /><rect x="60" y="421" width="380" height="19" fill="#744936" /><rect x="326" y="250" width="19" height="19" fill="#FFA800" /><rect x="288" y="250" width="19" height="19" fill="#FFA800" /><rect x="117" y="250" width="19" height="19" fill="#FFA800" /><rect x="79" y="231" width="19" height="19" fill="#FFA800" /><rect x="174" y="193" width="19" height="19" fill="#802F1A" /></svg>