<svg xmlns="http://www.w3.org/2000/svg" preserveAspectRatio="xMinYMin meet" viewBox="0 0 500 500" shape-rendering="crispEdges" transform-origin="center"><rect width="100%" height="100%" fill="#967E67" /><g transform="scale (5 5)"><rect x="21" y="-1" width="57" height="9" stroke-width="0.3" stroke="black" fill="#FFA800" /><text x="50" y="5.5" width="48" font-family="monospace" font-size="5" text-anchor="middle">Corrupted Temple</text></g><rect x="60" y="60" width="190" height="19" fill="#F3D899" /><rect x="269" y="60" width="171" height="19" fill="#F3D899" /><rect x="60" y="79" width="0" height="19" fill="#F3D899" /><rect x="79" y="79" width="361" height="19" fill="#F3D899" /><rect x="60" y="98" width="19" height="19" fill="#F3D899" /><rect x="98" y="98" width="57" height="19" fill="#F3D899" /><rect x="174" y="98" width="266" height="19" fill="#F3D899" /><rect x="60" y="117" width="19" height="19" fill="#F3D899" /><rect x="98" y="117" width="19" height="19" fill="#F3D899" /><rect x="174" y="117" width="266" height="19" fill="#F3D899" /><rect x="60" y="136" width="76" height="19" fill="#F3D899" /><rect x="155" y="136" width="285" height="19" fill="#F3D899" /><rect x="60" y="155" width="38" height="19" fill="#F3D899" /><rect x="155" y="155" width="285" height="19" fill="#F3D899" /><rect x="60" y="174" width="38" height="19" fill="#F3D899" /><rect x="117" y="174" width="57" height="19" fill="#F3D899" /><rect x="193" y="174" width="247" height="19" fill="#F3D899" /><rect x="60" y="193" width="38" height="19" fill="#F3D899" /><rect x="117" y="193" width="57" height="19" fill="#F3D899" /><rect x="193" y="193" width="247" height="19" fill="#F3D899" /><rect x="60" y="212" width="19" height="19" fill="#F3D899" /><rect x="117" y="212" width="57" height="19" fill="#F3D899" /><rect x="193" y="212" width="209" height="19" fill="#F3D899" /><rect x="60" y="231" width="38" height="19" fill="#F3D899" /><rect x="136" y="231" width="38" height="19" fill="#F3D899" /><rect x="193" y="231" width="228" height="19" fill="#F3D899" /><rect x="60" y="250" width="38" height="19" fill="#F3D899" /><rect x="136" y="250" width="38" height="19" fill="#F3D899" /><rect x="212" y="250" width="228" height="19" fill="#F3D899" /><rect x="60" y="269" width="38" height="19" fill="#F3D899" /><rect x="136" y="269" width="57" height="19" fill="#F3D899" /><rect x="250" y="269" width="190" height="19" fill="#F3D899" /><rect x="60" y="288" width="57" height="19" fill="#F3D899" /><rect x="136" y="288" width="95" height="19" fill="#F3D899" /><rect x="250" y="288" width="190" height="19" fill="#F3D899" /><rect x="60" y="307" width="57" height="19" fill="#F3D899" /><rect x="136" y="307" width="19" height="19" fill="#F3D899" /><rect x="250" y="307" width="190" height="19" fill="#F3D899" /><rect x="60" y="326" width="38" height="19" fill="#F3D899" /><rect x="136" y="326" width="19" height="19" fill="#F3D899" /><rect x="174" y="326" width="266" height="19" fill="#F3D899" /><rect x="60" y="345" width="38" height="19" fill="#F3D899" /><rect x="117" y="345" width="19" height="19" fill="#F3D899" /><rect x="174" y="345" width="266" height="19" fill="#F3D899" /><rect x="60" y="364" width="38" height="19" fill="#F3D899" /><rect x="174" y="364" width="19" height="19" fill="#F3D899" /><rect x="212" y="364" width="171" height="19" fill="#F3D899" /><rect x="421" y="364" width="19" height="19" fill="#F3D899" /><rect x="60" y="383" width="38" height="19" fill="#F3D899" /><rect x="212" y="383" width="19" height="19" fill="#F3D899" /><rect x="269" y="383" width="114" height="19" fill="#F3D899" /><rect x="60" y="402" width="38" height="19" fill="#F3D899" /><rect x="174" y="402" width="57" height="19" fill="#F3D899" /><rect x="269" y="402" width="133" height="19" fill="#F3D899" /><rect x="60" y="421" width="19" height="19" fill="#F3D899" /><rect x="117" y="421" width="19" height="19" fill="#F3D899" /><rect x="193" y="421" width="19" height="19" fill="#F3D899" /><rect x="269" y="421" width="57" height="19" fill="#F3D899" /><rect x="421" y="421" width="19" height="19" fill="#F3D899" /><rect x="174" y="421" width="19" height="19" fill="#3C2A1A" /><rect x="402" y="364" width="19" height="19" fill="#3C2A1A" /><rect x="174" y="212" width="19" height="19" fill="#006669" /></svg>