<svg xmlns="http://www.w3.org/2000/svg" preserveAspectRatio="xMinYMin meet" viewBox="0 0 500 500" shape-rendering="crispEdges" transform-origin="center"><rect width="100%" height="100%" fill="#2F590E" /><g transform="scale (5 5)"><rect x="18" y="-1" width="63" height="9" stroke-width="0.3" stroke="black" fill="#FFA800" /><text x="50" y="5.5" width="54" font-family="monospace" font-size="5" text-anchor="middle">Shimmering Chamber</text></g><rect x="63" y="63" width="68" height="17" fill="#A98C00" /><rect x="148" y="63" width="289" height="17" fill="#A98C00" /><rect x="63" y="80" width="374" height="17" fill="#A98C00" /><rect x="63" y="97" width="374" height="17" fill="#A98C00" /><rect x="63" y="114" width="68" height="17" fill="#A98C00" /><rect x="148" y="114" width="221" height="17" fill="#A98C00" /><rect x="403" y="114" width="34" height="17" fill="#A98C00" /><rect x="63" y="131" width="68" height="17" fill="#A98C00" /><rect x="148" y="131" width="221" height="17" fill="#A98C00" /><rect x="403" y="131" width="34" height="17" fill="#A98C00" /><rect x="63" y="148" width="68" height="17" fill="#A98C00" /><rect x="165" y="148" width="204" height="17" fill="#A98C00" /><rect x="386" y="148" width="51" height="17" fill="#A98C00" /><rect x="63" y="165" width="85" height="17" fill="#A98C00" /><rect x="165" y="165" width="204" height="17" fill="#A98C00" /><rect x="386" y="165" width="51" height="17" fill="#A98C00" /><rect x="63" y="182" width="68" height="17" fill="#A98C00" /><rect x="165" y="182" width="170" height="17" fill="#A98C00" /><rect x="386" y="182" width="51" height="17" fill="#A98C00" /><rect x="63" y="199" width="17" height="17" fill="#A98C00" /><rect x="97" y="199" width="34" height="17" fill="#A98C00" /><rect x="148" y="199" width="17" height="17" fill="#A98C00" /><rect x="250" y="199" width="119" height="17" fill="#A98C00" /><rect x="386" y="199" width="51" height="17" fill="#A98C00" /><rect x="63" y="216" width="17" height="17" fill="#A98C00" /><rect x="148" y="216" width="17" height="17" fill="#A98C00" /><rect x="199" y="216" width="170" height="17" fill="#A98C00" /><rect x="420" y="216" width="17" height="17" fill="#A98C00" /><rect x="63" y="233" width="17" height="17" fill="#A98C00" /><rect x="131" y="233" width="34" height="17" fill="#A98C00" /><rect x="182" y="233" width="187" height="17" fill="#A98C00" /><rect x="386" y="233" width="51" height="17" fill="#A98C00" /><rect x="63" y="250" width="34" height="17" fill="#A98C00" /><rect x="131" y="250" width="34" height="17" fill="#A98C00" /><rect x="182" y="250" width="170" height="17" fill="#A98C00" /><rect x="386" y="250" width="51" height="17" fill="#A98C00" /><rect x="63" y="267" width="17" height="17" fill="#A98C00" /><rect x="131" y="267" width="34" height="17" fill="#A98C00" /><rect x="182" y="267" width="153" height="17" fill="#A98C00" /><rect x="369" y="267" width="68" height="17" fill="#A98C00" /><rect x="63" y="284" width="17" height="17" fill="#A98C00" /><rect x="114" y="284" width="51" height="17" fill="#A98C00" /><rect x="182" y="284" width="170" height="17" fill="#A98C00" /><rect x="369" y="284" width="68" height="17" fill="#A98C00" /><rect x="63" y="301" width="17" height="17" fill="#A98C00" /><rect x="114" y="301" width="51" height="17" fill="#A98C00" /><rect x="182" y="301" width="170" height="17" fill="#A98C00" /><rect x="369" y="301" width="68" height="17" fill="#A98C00" /><rect x="63" y="318" width="34" height="17" fill="#A98C00" /><rect x="114" y="318" width="51" height="17" fill="#A98C00" /><rect x="199" y="318" width="153" height="17" fill="#A98C00" /><rect x="386" y="318" width="51" height="17" fill="#A98C00" /><rect x="63" y="335" width="34" height="17" fill="#A98C00" /><rect x="148" y="335" width="34" height="17" fill="#A98C00" /><rect x="250" y="335" width="119" height="17" fill="#A98C00" /><rect x="386" y="335" width="51" height="17" fill="#A98C00" /><rect x="63" y="352" width="51" height="17" fill="#A98C00" /><rect x="131" y="352" width="68" height="17" fill="#A98C00" /><rect x="284" y="352" width="85" height="17" fill="#A98C00" /><rect x="386" y="352" width="51" height="17" fill="#A98C00" /><rect x="63" y="369" width="51" height="17" fill="#A98C00" /><rect x="148" y="369" width="51" height="17" fill="#A98C00" /><rect x="284" y="369" width="51" height="17" fill="#A98C00" /><rect x="386" y="369" width="51" height="17" fill="#A98C00" /><rect x="63" y="386" width="51" height="17" fill="#A98C00" /><rect x="148" y="386" width="68" height="17" fill="#A98C00" /><rect x="301" y="386" width="17" height="17" fill="#A98C00" /><rect x="369" y="386" width="68" height="17" fill="#A98C00" /><rect x="63" y="403" width="51" height="17" fill="#A98C00" /><rect x="148" y="403" width="85" height="17" fill="#A98C00" /><rect x="267" y="403" width="17" height="17" fill="#A98C00" /><rect x="335" y="403" width="17" height="17" fill="#A98C00" /><rect x="369" y="403" width="68" height="17" fill="#A98C00" /><rect x="63" y="420" width="68" height="17" fill="#A98C00" /><rect x="148" y="420" width="68" height="17" fill="#A98C00" /><rect x="335" y="420" width="17" height="17" fill="#A98C00" /><rect x="369" y="420" width="68" height="17" fill="#A98C00" /><rect x="267" y="420" width="17" height="17" fill="#C55300" /><rect x="318" y="403" width="17" height="17" fill="#C55300" /><rect x="352" y="369" width="17" height="17" fill="#802F1A" /><rect x="165" y="233" width="17" height="17" fill="#C55300" /><rect x="182" y="216" width="17" height="17" fill="#802F1A" /><rect x="165" y="199" width="17" height="17" fill="#802F1A" /><rect x="131" y="148" width="17" height="17" fill="#802F1A" /></svg>