<svg xmlns="http://www.w3.org/2000/svg" preserveAspectRatio="xMinYMin meet" viewBox="0 0 500 500" shape-rendering="crispEdges" transform-origin="center"><rect width="100%" height="100%" fill="#36230F" /><g transform="scale (5 5)"><rect x="20" y="-1" width="60" height="9" stroke-width="0.3" stroke="black" fill="#FFA800" /><text x="50" y="5.5" width="51" font-family="monospace" font-size="5" text-anchor="middle">Glowing Waterfall</text></g><rect x="90" y="90" width="145" height="29" fill="#744936" /><rect x="264" y="90" width="145" height="29" fill="#744936" /><rect x="90" y="119" width="145" height="29" fill="#744936" /><rect x="322" y="119" width="29" height="29" fill="#744936" /><rect x="90" y="148" width="145" height="29" fill="#744936" /><rect x="264" y="148" width="87" height="29" fill="#744936" /><rect x="90" y="177" width="116" height="29" fill="#744936" /><rect x="264" y="177" width="58" height="29" fill="#744936" /><rect x="90" y="206" width="116" height="29" fill="#744936" /><rect x="235" y="206" width="58" height="29" fill="#744936" /><rect x="351" y="206" width="58" height="29" fill="#744936" /><rect x="90" y="235" width="87" height="29" fill="#744936" /><rect x="235" y="235" width="87" height="29" fill="#744936" /><rect x="351" y="235" width="58" height="29" fill="#744936" /><rect x="90" y="264" width="87" height="29" fill="#744936" /><rect x="235" y="264" width="174" height="29" fill="#744936" /><rect x="90" y="293" width="0" height="29" fill="#744936" /><rect x="119" y="293" width="58" height="29" fill="#744936" /><rect x="235" y="293" width="174" height="29" fill="#744936" /><rect x="90" y="322" width="116" height="29" fill="#744936" /><rect x="235" y="322" width="174" height="29" fill="#744936" /><rect x="90" y="351" width="87" height="29" fill="#744936" /><rect x="264" y="351" width="145" height="29" fill="#744936" /><rect x="90" y="380" width="319" height="29" fill="#744936" /><rect x="235" y="351" width="29" height="29" fill="#FFA800" /><rect x="90" y="293" width="29" height="29" fill="#FFA800" /><rect x="235" y="177" width="29" height="29" fill="#802F1A" /><rect x="206" y="177" width="29" height="29" fill="#802F1A" /><rect x="380" y="148" width="29" height="29" fill="#802F1A" /><rect x="293" y="119" width="29" height="29" fill="#FFA800" /><rect x="264" y="119" width="29" height="29" fill="#FFA800" /></svg>