<svg xmlns="http://www.w3.org/2000/svg" preserveAspectRatio="xMinYMin meet" viewBox="0 0 500 500" shape-rendering="crispEdges" transform-origin="center"><rect width="100%" height="100%" fill="#340D07" /><g transform="scale (5 5)"><rect x="11" y="-1" width="78" height="9" stroke-width="0.3" stroke="black" fill="#FFA800" /><text x="50" y="5.5" width="69" font-family="monospace" font-size="5" text-anchor="middle">Sewers of Enlightenment</text></g><rect x="58" y="58" width="384" height="16" fill="#5D0503" /><rect x="58" y="74" width="256" height="16" fill="#5D0503" /><rect x="330" y="74" width="112" height="16" fill="#5D0503" /><rect x="58" y="90" width="32" height="16" fill="#5D0503" /><rect x="106" y="90" width="192" height="16" fill="#5D0503" /><rect x="330" y="90" width="112" height="16" fill="#5D0503" /><rect x="58" y="106" width="16" height="16" fill="#5D0503" /><rect x="106" y="106" width="16" height="16" fill="#5D0503" /><rect x="138" y="106" width="144" height="16" fill="#5D0503" /><rect x="314" y="106" width="128" height="16" fill="#5D0503" /><rect x="58" y="122" width="16" height="16" fill="#5D0503" /><rect x="138" y="122" width="144" height="16" fill="#5D0503" /><rect x="298" y="122" width="144" height="16" fill="#5D0503" /><rect x="58" y="138" width="16" height="16" fill="#5D0503" /><rect x="90" y="138" width="16" height="16" fill="#5D0503" /><rect x="154" y="138" width="128" height="16" fill="#5D0503" /><rect x="298" y="138" width="16" height="16" fill="#5D0503" /><rect x="330" y="138" width="112" height="16" fill="#5D0503" /><rect x="58" y="154" width="16" height="16" fill="#5D0503" /><rect x="90" y="154" width="48" height="16" fill="#5D0503" /><rect x="154" y="154" width="128" height="16" fill="#5D0503" /><rect x="330" y="154" width="80" height="16" fill="#5D0503" /><rect x="426" y="154" width="16" height="16" fill="#5D0503" /><rect x="58" y="170" width="16" height="16" fill="#5D0503" /><rect x="90" y="170" width="32" height="16" fill="#5D0503" /><rect x="154" y="170" width="128" height="16" fill="#5D0503" /><rect x="362" y="170" width="48" height="16" fill="#5D0503" /><rect x="426" y="170" width="16" height="16" fill="#5D0503" /><rect x="58" y="186" width="16" height="16" fill="#5D0503" /><rect x="106" y="186" width="32" height="16" fill="#5D0503" /><rect x="154" y="186" width="144" height="16" fill="#5D0503" /><rect x="314" y="186" width="32" height="16" fill="#5D0503" /><rect x="362" y="186" width="32" height="16" fill="#5D0503" /><rect x="426" y="186" width="16" height="16" fill="#5D0503" /><rect x="58" y="202" width="32" height="16" fill="#5D0503" /><rect x="122" y="202" width="16" height="16" fill="#5D0503" /><rect x="154" y="202" width="144" height="16" fill="#5D0503" /><rect x="314" y="202" width="32" height="16" fill="#5D0503" /><rect x="362" y="202" width="48" height="16" fill="#5D0503" /><rect x="426" y="202" width="16" height="16" fill="#5D0503" /><rect x="58" y="218" width="48" height="16" fill="#5D0503" /><rect x="122" y="218" width="16" height="16" fill="#5D0503" /><rect x="154" y="218" width="144" height="16" fill="#5D0503" /><rect x="314" y="218" width="32" height="16" fill="#5D0503" /><rect x="362" y="218" width="48" height="16" fill="#5D0503" /><rect x="58" y="234" width="48" height="16" fill="#5D0503" /><rect x="122" y="234" width="16" height="16" fill="#5D0503" /><rect x="154" y="234" width="144" height="16" fill="#5D0503" /><rect x="362" y="234" width="64" height="16" fill="#5D0503" /><rect x="58" y="250" width="16" height="16" fill="#5D0503" /><rect x="186" y="250" width="144" height="16" fill="#5D0503" /><rect x="362" y="250" width="64" height="16" fill="#5D0503" /><rect x="58" y="266" width="64" height="16" fill="#5D0503" /><rect x="138" y="266" width="32" height="16" fill="#5D0503" /><rect x="186" y="266" width="144" height="16" fill="#5D0503" /><rect x="362" y="266" width="48" height="16" fill="#5D0503" /><rect x="58" y="282" width="64" height="16" fill="#5D0503" /><rect x="138" y="282" width="32" height="16" fill="#5D0503" /><rect x="186" y="282" width="160" height="16" fill="#5D0503" /><rect x="362" y="282" width="48" height="16" fill="#5D0503" /><rect x="58" y="298" width="64" height="16" fill="#5D0503" /><rect x="186" y="298" width="160" height="16" fill="#5D0503" /><rect x="378" y="298" width="48" height="16" fill="#5D0503" /><rect x="58" y="314" width="80" height="16" fill="#5D0503" /><rect x="154" y="314" width="16" height="16" fill="#5D0503" /><rect x="186" y="314" width="160" height="16" fill="#5D0503" /><rect x="362" y="314" width="80" height="16" fill="#5D0503" /><rect x="58" y="330" width="80" height="16" fill="#5D0503" /><rect x="186" y="330" width="160" height="16" fill="#5D0503" /><rect x="410" y="330" width="32" height="16" fill="#5D0503" /><rect x="58" y="346" width="96" height="16" fill="#5D0503" /><rect x="282" y="346" width="48" height="16" fill="#5D0503" /><rect x="426" y="346" width="16" height="16" fill="#5D0503" /><rect x="58" y="362" width="96" height="16" fill="#5D0503" /><rect x="170" y="362" width="96" height="16" fill="#5D0503" /><rect x="314" y="362" width="16" height="16" fill="#5D0503" /><rect x="394" y="362" width="16" height="16" fill="#5D0503" /><rect x="426" y="362" width="16" height="16" fill="#5D0503" /><rect x="58" y="378" width="80" height="16" fill="#5D0503" /><rect x="170" y="378" width="112" height="16" fill="#5D0503" /><rect x="314" y="378" width="16" height="16" fill="#5D0503" /><rect x="394" y="378" width="16" height="16" fill="#5D0503" /><rect x="426" y="378" width="16" height="16" fill="#5D0503" /><rect x="58" y="394" width="80" height="16" fill="#5D0503" /><rect x="154" y="394" width="128" height="16" fill="#5D0503" /><rect x="298" y="394" width="16" height="16" fill="#5D0503" /><rect x="426" y="394" width="16" height="16" fill="#5D0503" /><rect x="58" y="410" width="80" height="16" fill="#5D0503" /><rect x="170" y="410" width="80" height="16" fill="#5D0503" /><rect x="298" y="410" width="32" height="16" fill="#5D0503" /><rect x="426" y="410" width="16" height="16" fill="#5D0503" /><rect x="58" y="426" width="0" height="16" fill="#5D0503" /><rect x="74" y="426" width="80" height="16" fill="#5D0503" /><rect x="170" y="426" width="96" height="16" fill="#5D0503" /><rect x="282" y="426" width="80" height="16" fill="#5D0503" /><rect x="394" y="426" width="16" height="16" fill="#5D0503" /><rect x="378" y="410" width="16" height="16" fill="#B75700" /><rect x="154" y="410" width="16" height="16" fill="#B75700" /><rect x="138" y="394" width="16" height="16" fill="#FF1800" /><rect x="378" y="378" width="16" height="16" fill="#B75700" /><rect x="234" y="346" width="16" height="16" fill="#B75700" /><rect x="426" y="298" width="16" height="16" fill="#B75700" /><rect x="410" y="282" width="16" height="16" fill="#FF1800" /><rect x="122" y="170" width="16" height="16" fill="#B75700" /><rect x="314" y="90" width="16" height="16" fill="#B75700" /></svg>