<svg xmlns="http://www.w3.org/2000/svg" preserveAspectRatio="xMinYMin meet" viewBox="0 0 500 500" shape-rendering="crispEdges" transform-origin="center"><rect width="100%" height="100%" fill="#F3D899" /><g transform="scale (5 5)"><rect x="29" y="-1" width="42" height="9" stroke-width="0.3" stroke="black" fill="#FFA800" /><text x="50" y="5.5" width="33" font-family="monospace" font-size="5" text-anchor="middle">Bleak Sound</text></g><rect x="75" y="75" width="350" height="25" fill="#160F09" /><rect x="75" y="100" width="350" height="25" fill="#160F09" /><rect x="75" y="125" width="350" height="25" fill="#160F09" /><rect x="75" y="150" width="75" height="25" fill="#160F09" /><rect x="200" y="150" width="225" height="25" fill="#160F09" /><rect x="75" y="175" width="50" height="25" fill="#160F09" /><rect x="200" y="175" width="225" height="25" fill="#160F09" /><rect x="75" y="200" width="50" height="25" fill="#160F09" /><rect x="150" y="200" width="25" height="25" fill="#160F09" /><rect x="250" y="200" width="175" height="25" fill="#160F09" /><rect x="75" y="225" width="50" height="25" fill="#160F09" /><rect x="150" y="225" width="25" height="25" fill="#160F09" /><rect x="250" y="225" width="75" height="25" fill="#160F09" /><rect x="375" y="225" width="50" height="25" fill="#160F09" /><rect x="75" y="250" width="50" height="25" fill="#160F09" /><rect x="150" y="250" width="50" height="25" fill="#160F09" /><rect x="250" y="250" width="75" height="25" fill="#160F09" /><rect x="375" y="250" width="50" height="25" fill="#160F09" /><rect x="75" y="275" width="25" height="25" fill="#160F09" /><rect x="250" y="275" width="100" height="25" fill="#160F09" /><rect x="375" y="275" width="50" height="25" fill="#160F09" /><rect x="75" y="300" width="25" height="25" fill="#160F09" /><rect x="350" y="300" width="75" height="25" fill="#160F09" /><rect x="75" y="325" width="25" height="25" fill="#160F09" /><rect x="225" y="325" width="200" height="25" fill="#160F09" /><rect x="75" y="350" width="50" height="25" fill="#160F09" /><rect x="175" y="350" width="250" height="25" fill="#160F09" /><rect x="75" y="375" width="350" height="25" fill="#160F09" /><rect x="75" y="400" width="350" height="25" fill="#160F09" /><rect x="225" y="275" width="25" height="25" fill="#FAAA00" /><rect x="200" y="225" width="25" height="25" fill="#00A29D" /></svg>