<svg xmlns="http://www.w3.org/2000/svg" preserveAspectRatio="xMinYMin meet" viewBox="0 0 500 500" shape-rendering="crispEdges" transform-origin="center"><rect width="100%" height="100%" fill="#2F590E" /><g transform="scale (5 5)"><rect x="29" y="-1" width="42" height="9" stroke-width="0.3" stroke="black" fill="#FFA800" /><text x="50" y="5.5" width="33" font-family="monospace" font-size="5" text-anchor="middle">Woe's Dunes</text></g><rect x="71" y="71" width="357" height="21" fill="#A98C00" /><rect x="71" y="92" width="273" height="21" fill="#A98C00" /><rect x="386" y="92" width="42" height="21" fill="#A98C00" /><rect x="71" y="113" width="63" height="21" fill="#A98C00" /><rect x="386" y="113" width="42" height="21" fill="#A98C00" /><rect x="71" y="134" width="63" height="21" fill="#A98C00" /><rect x="197" y="134" width="42" height="21" fill="#A98C00" /><rect x="281" y="134" width="63" height="21" fill="#A98C00" /><rect x="386" y="134" width="42" height="21" fill="#A98C00" /><rect x="71" y="155" width="63" height="21" fill="#A98C00" /><rect x="323" y="155" width="42" height="21" fill="#A98C00" /><rect x="386" y="155" width="42" height="21" fill="#A98C00" /><rect x="71" y="176" width="21" height="21" fill="#A98C00" /><rect x="197" y="176" width="42" height="21" fill="#A98C00" /><rect x="281" y="176" width="21" height="21" fill="#A98C00" /><rect x="323" y="176" width="42" height="21" fill="#A98C00" /><rect x="386" y="176" width="42" height="21" fill="#A98C00" /><rect x="71" y="197" width="21" height="21" fill="#A98C00" /><rect x="197" y="197" width="42" height="21" fill="#A98C00" /><rect x="281" y="197" width="21" height="21" fill="#A98C00" /><rect x="323" y="197" width="42" height="21" fill="#A98C00" /><rect x="386" y="197" width="42" height="21" fill="#A98C00" /><rect x="71" y="218" width="21" height="21" fill="#A98C00" /><rect x="323" y="218" width="42" height="21" fill="#A98C00" /><rect x="386" y="218" width="42" height="21" fill="#A98C00" /><rect x="71" y="239" width="21" height="21" fill="#A98C00" /><rect x="323" y="239" width="42" height="21" fill="#A98C00" /><rect x="386" y="239" width="42" height="21" fill="#A98C00" /><rect x="71" y="260" width="21" height="21" fill="#A98C00" /><rect x="323" y="260" width="42" height="21" fill="#A98C00" /><rect x="386" y="260" width="42" height="21" fill="#A98C00" /><rect x="71" y="281" width="21" height="21" fill="#A98C00" /><rect x="197" y="281" width="63" height="21" fill="#A98C00" /><rect x="323" y="281" width="42" height="21" fill="#A98C00" /><rect x="386" y="281" width="42" height="21" fill="#A98C00" /><rect x="71" y="302" width="42" height="21" fill="#A98C00" /><rect x="197" y="302" width="63" height="21" fill="#A98C00" /><rect x="344" y="302" width="21" height="21" fill="#A98C00" /><rect x="386" y="302" width="42" height="21" fill="#A98C00" /><rect x="71" y="323" width="21" height="21" fill="#A98C00" /><rect x="344" y="323" width="21" height="21" fill="#A98C00" /><rect x="386" y="323" width="42" height="21" fill="#A98C00" /><rect x="71" y="344" width="21" height="21" fill="#A98C00" /><rect x="197" y="344" width="42" height="21" fill="#A98C00" /><rect x="344" y="344" width="21" height="21" fill="#A98C00" /><rect x="386" y="344" width="42" height="21" fill="#A98C00" /><rect x="71" y="365" width="21" height="21" fill="#A98C00" /><rect x="365" y="365" width="63" height="21" fill="#A98C00" /><rect x="71" y="386" width="357" height="21" fill="#A98C00" /><rect x="71" y="407" width="357" height="21" fill="#A98C00" /></svg>