<svg xmlns="http://www.w3.org/2000/svg" preserveAspectRatio="xMinYMin meet" viewBox="0 0 500 500" shape-rendering="crispEdges" transform-origin="center"><rect width="100%" height="100%" fill="#967E67" /><g transform="scale (5 5)"><rect x="26" y="-1" width="48" height="9" stroke-width="0.3" stroke="black" fill="#FFA800" /><text x="50" y="5.5" width="39" font-family="monospace" font-size="5" text-anchor="middle">Fallen Grotto</text></g><rect x="63" y="63" width="34" height="17" fill="#F3D899" /><rect x="114" y="63" width="323" height="17" fill="#F3D899" /><rect x="63" y="80" width="0" height="17" fill="#F3D899" /><rect x="80" y="80" width="306" height="17" fill="#F3D899" /><rect x="63" y="97" width="187" height="17" fill="#F3D899" /><rect x="267" y="97" width="136" height="17" fill="#F3D899" /><rect x="63" y="114" width="153" height="17" fill="#F3D899" /><rect x="420" y="114" width="17" height="17" fill="#F3D899" /><rect x="63" y="131" width="153" height="17" fill="#F3D899" /><rect x="369" y="131" width="68" height="17" fill="#F3D899" /><rect x="63" y="148" width="170" height="17" fill="#F3D899" /><rect x="250" y="148" width="17" height="17" fill="#F3D899" /><rect x="318" y="148" width="85" height="17" fill="#F3D899" /><rect x="420" y="148" width="17" height="17" fill="#F3D899" /><rect x="63" y="165" width="153" height="17" fill="#F3D899" /><rect x="250" y="165" width="17" height="17" fill="#F3D899" /><rect x="369" y="165" width="34" height="17" fill="#F3D899" /><rect x="63" y="182" width="153" height="17" fill="#F3D899" /><rect x="284" y="182" width="34" height="17" fill="#F3D899" /><rect x="63" y="199" width="187" height="17" fill="#F3D899" /><rect x="284" y="199" width="51" height="17" fill="#F3D899" /><rect x="352" y="199" width="17" height="17" fill="#F3D899" /><rect x="63" y="216" width="204" height="17" fill="#F3D899" /><rect x="284" y="216" width="51" height="17" fill="#F3D899" /><rect x="352" y="216" width="17" height="17" fill="#F3D899" /><rect x="420" y="216" width="17" height="17" fill="#F3D899" /><rect x="63" y="233" width="204" height="17" fill="#F3D899" /><rect x="284" y="233" width="51" height="17" fill="#F3D899" /><rect x="369" y="233" width="34" height="17" fill="#F3D899" /><rect x="63" y="250" width="187" height="17" fill="#F3D899" /><rect x="318" y="250" width="17" height="17" fill="#F3D899" /><rect x="63" y="267" width="187" height="17" fill="#F3D899" /><rect x="267" y="267" width="17" height="17" fill="#F3D899" /><rect x="352" y="267" width="34" height="17" fill="#F3D899" /><rect x="63" y="284" width="221" height="17" fill="#F3D899" /><rect x="318" y="284" width="17" height="17" fill="#F3D899" /><rect x="63" y="301" width="221" height="17" fill="#F3D899" /><rect x="335" y="301" width="17" height="17" fill="#F3D899" /><rect x="386" y="301" width="51" height="17" fill="#F3D899" /><rect x="63" y="318" width="255" height="17" fill="#F3D899" /><rect x="369" y="318" width="68" height="17" fill="#F3D899" /><rect x="63" y="335" width="374" height="17" fill="#F3D899" /><rect x="63" y="352" width="374" height="17" fill="#F3D899" /><rect x="63" y="369" width="374" height="17" fill="#F3D899" /><rect x="63" y="386" width="374" height="17" fill="#F3D899" /><rect x="63" y="403" width="374" height="17" fill="#F3D899" /><rect x="63" y="420" width="374" height="17" fill="#F3D899" /><rect x="403" y="233" width="17" height="17" fill="#3C2A1A" /><rect x="335" y="233" width="17" height="17" fill="#006669" /><rect x="403" y="148" width="17" height="17" fill="#006669" /><rect x="335" y="114" width="17" height="17" fill="#006669" /></svg>