<svg xmlns="http://www.w3.org/2000/svg" preserveAspectRatio="xMinYMin meet" viewBox="0 0 500 500" shape-rendering="crispEdges" transform-origin="center"><rect width="100%" height="100%" fill="#F3D899" /><g transform="scale (5 5)"><rect x="26" y="-1" width="48" height="9" stroke-width="0.3" stroke="black" fill="#FFA800" /><text x="50" y="5.5" width="39" font-family="monospace" font-size="5" text-anchor="middle">Divine Grotto</text></g><rect x="70" y="70" width="100" height="20" fill="#160F09" /><rect x="190" y="70" width="240" height="20" fill="#160F09" /><rect x="70" y="90" width="220" height="20" fill="#160F09" /><rect x="310" y="90" width="120" height="20" fill="#160F09" /><rect x="70" y="110" width="340" height="20" fill="#160F09" /><rect x="70" y="130" width="340" height="20" fill="#160F09" /><rect x="70" y="150" width="360" height="20" fill="#160F09" /><rect x="70" y="170" width="0" height="20" fill="#160F09" /><rect x="90" y="170" width="340" height="20" fill="#160F09" /><rect x="70" y="190" width="360" height="20" fill="#160F09" /><rect x="70" y="210" width="360" height="20" fill="#160F09" /><rect x="70" y="230" width="360" height="20" fill="#160F09" /><rect x="70" y="250" width="360" height="20" fill="#160F09" /><rect x="70" y="270" width="280" height="20" fill="#160F09" /><rect x="70" y="290" width="260" height="20" fill="#160F09" /><rect x="70" y="310" width="320" height="20" fill="#160F09" /><rect x="70" y="330" width="220" height="20" fill="#160F09" /><rect x="70" y="350" width="80" height="20" fill="#160F09" /><rect x="230" y="350" width="20" height="20" fill="#160F09" /><rect x="270" y="350" width="20" height="20" fill="#160F09" /><rect x="310" y="350" width="80" height="20" fill="#160F09" /><rect x="410" y="350" width="20" height="20" fill="#160F09" /><rect x="70" y="370" width="140" height="20" fill="#160F09" /><rect x="310" y="370" width="100" height="20" fill="#160F09" /><rect x="70" y="390" width="300" height="20" fill="#160F09" /><rect x="70" y="410" width="360" height="20" fill="#160F09" /><rect x="310" y="330" width="20" height="20" fill="#00A29D" /></svg>