<svg xmlns="http://www.w3.org/2000/svg" preserveAspectRatio="xMinYMin meet" viewBox="0 0 500 500" shape-rendering="crispEdges" transform-origin="center"><rect width="100%" height="100%" fill="#006669" /><g transform="scale (5 5)"><rect x="27" y="-1" width="45" height="9" stroke-width="0.3" stroke="black" fill="#FFA800" /><text x="50" y="5.5" width="36" font-family="monospace" font-size="5" text-anchor="middle">Fohd's Oasis</text></g><rect x="110" y="110" width="280" height="35" fill="#004238" /><rect x="110" y="145" width="280" height="35" fill="#004238" /><rect x="110" y="180" width="70" height="35" fill="#004238" /><rect x="250" y="180" width="140" height="35" fill="#004238" /><rect x="110" y="215" width="70" height="35" fill="#004238" /><rect x="250" y="215" width="140" height="35" fill="#004238" /><rect x="110" y="250" width="35" height="35" fill="#004238" /><rect x="320" y="250" width="70" height="35" fill="#004238" /><rect x="110" y="285" width="35" height="35" fill="#004238" /><rect x="320" y="285" width="70" height="35" fill="#004238" /><rect x="110" y="320" width="280" height="35" fill="#004238" /><rect x="110" y="355" width="280" height="35" fill="#004238" /><rect x="285" y="285" width="35" height="35" fill="#F9B569" /><rect x="215" y="180" width="35" height="35" fill="#F9B569" /></svg>