<svg xmlns="http://www.w3.org/2000/svg" preserveAspectRatio="xMinYMin meet" viewBox="0 0 500 500" shape-rendering="crispEdges" transform-origin="center"><rect width="100%" height="100%" fill="#340D07" /><g transform="scale (5 5)"><rect x="36" y="-1" width="27" height="9" stroke-width="0.3" stroke="black" fill="#FFA800" /><text x="50" y="5.5" width="18" font-family="monospace" font-size="5" text-anchor="middle">Temple</text></g><rect x="60" y="60" width="323" height="19" fill="#5D0503" /><rect x="402" y="60" width="38" height="19" fill="#5D0503" /><rect x="60" y="79" width="171" height="19" fill="#5D0503" /><rect x="307" y="79" width="133" height="19" fill="#5D0503" /><rect x="60" y="98" width="95" height="19" fill="#5D0503" /><rect x="212" y="98" width="19" height="19" fill="#5D0503" /><rect x="250" y="98" width="190" height="19" fill="#5D0503" /><rect x="60" y="117" width="95" height="19" fill="#5D0503" /><rect x="174" y="117" width="19" height="19" fill="#5D0503" /><rect x="250" y="117" width="190" height="19" fill="#5D0503" /><rect x="60" y="136" width="95" height="19" fill="#5D0503" /><rect x="174" y="136" width="19" height="19" fill="#5D0503" /><rect x="212" y="136" width="228" height="19" fill="#5D0503" /><rect x="60" y="155" width="95" height="19" fill="#5D0503" /><rect x="174" y="155" width="266" height="19" fill="#5D0503" /><rect x="60" y="174" width="76" height="19" fill="#5D0503" /><rect x="174" y="174" width="266" height="19" fill="#5D0503" /><rect x="60" y="193" width="19" height="19" fill="#5D0503" /><rect x="98" y="193" width="38" height="19" fill="#5D0503" /><rect x="174" y="193" width="19" height="19" fill="#5D0503" /><rect x="212" y="193" width="228" height="19" fill="#5D0503" /><rect x="60" y="212" width="19" height="19" fill="#5D0503" /><rect x="98" y="212" width="57" height="19" fill="#5D0503" /><rect x="174" y="212" width="19" height="19" fill="#5D0503" /><rect x="212" y="212" width="228" height="19" fill="#5D0503" /><rect x="60" y="231" width="19" height="19" fill="#5D0503" /><rect x="212" y="231" width="190" height="19" fill="#5D0503" /><rect x="60" y="250" width="95" height="19" fill="#5D0503" /><rect x="212" y="250" width="152" height="19" fill="#5D0503" /><rect x="421" y="250" width="19" height="19" fill="#5D0503" /><rect x="60" y="269" width="95" height="19" fill="#5D0503" /><rect x="174" y="269" width="19" height="19" fill="#5D0503" /><rect x="383" y="269" width="57" height="19" fill="#5D0503" /><rect x="60" y="288" width="95" height="19" fill="#5D0503" /><rect x="383" y="288" width="57" height="19" fill="#5D0503" /><rect x="60" y="307" width="95" height="19" fill="#5D0503" /><rect x="326" y="307" width="38" height="19" fill="#5D0503" /><rect x="402" y="307" width="19" height="19" fill="#5D0503" /><rect x="60" y="326" width="95" height="19" fill="#5D0503" /><rect x="231" y="326" width="19" height="19" fill="#5D0503" /><rect x="60" y="345" width="57" height="19" fill="#5D0503" /><rect x="136" y="345" width="19" height="19" fill="#5D0503" /><rect x="307" y="345" width="19" height="19" fill="#5D0503" /><rect x="345" y="345" width="38" height="19" fill="#5D0503" /><rect x="60" y="364" width="57" height="19" fill="#5D0503" /><rect x="136" y="383" width="19" height="19" fill="#5D0503" /><rect x="174" y="383" width="19" height="19" fill="#5D0503" /><rect x="250" y="383" width="38" height="19" fill="#5D0503" /><rect x="326" y="383" width="38" height="19" fill="#5D0503" /><rect x="60" y="402" width="95" height="19" fill="#5D0503" /><rect x="174" y="402" width="19" height="19" fill="#5D0503" /><rect x="212" y="402" width="95" height="19" fill="#5D0503" /><rect x="383" y="402" width="38" height="19" fill="#5D0503" /><rect x="60" y="421" width="95" height="19" fill="#5D0503" /><rect x="174" y="421" width="19" height="19" fill="#5D0503" /><rect x="212" y="421" width="95" height="19" fill="#5D0503" /><rect x="136" y="364" width="19" height="19" fill="#FF1800" /><rect x="307" y="288" width="19" height="19" fill="#FF1800" /><rect x="212" y="288" width="19" height="19" fill="#B75700" /><rect x="326" y="269" width="19" height="19" fill="#B75700" /><rect x="250" y="269" width="19" height="19" fill="#FF1800" /><rect x="231" y="269" width="19" height="19" fill="#B75700" /><rect x="193" y="193" width="19" height="19" fill="#B75700" /></svg>