<svg xmlns="http://www.w3.org/2000/svg" preserveAspectRatio="xMinYMin meet" viewBox="0 0 500 500" shape-rendering="crispEdges" transform-origin="center"><rect width="100%" height="100%" fill="#F3D899" /><g transform="scale (5 5)"><rect x="15" y="-1" width="69" height="9" stroke-width="0.3" stroke="black" fill="#FFA800" /><text x="50" y="5.5" width="60" font-family="monospace" font-size="5" text-anchor="middle">Tunnel of the Plague</text></g><rect x="60" y="60" width="380" height="20" fill="#160F09" /><rect x="60" y="80" width="380" height="20" fill="#160F09" /><rect x="60" y="100" width="200" height="20" fill="#160F09" /><rect x="300" y="100" width="140" height="20" fill="#160F09" /><rect x="60" y="120" width="220" height="20" fill="#160F09" /><rect x="300" y="120" width="140" height="20" fill="#160F09" /><rect x="60" y="140" width="180" height="20" fill="#160F09" /><rect x="260" y="140" width="20" height="20" fill="#160F09" /><rect x="300" y="140" width="140" height="20" fill="#160F09" /><rect x="60" y="160" width="180" height="20" fill="#160F09" /><rect x="260" y="160" width="20" height="20" fill="#160F09" /><rect x="300" y="160" width="140" height="20" fill="#160F09" /><rect x="60" y="180" width="180" height="20" fill="#160F09" /><rect x="340" y="180" width="100" height="20" fill="#160F09" /><rect x="60" y="200" width="120" height="20" fill="#160F09" /><rect x="200" y="200" width="60" height="20" fill="#160F09" /><rect x="340" y="200" width="60" height="20" fill="#160F09" /><rect x="60" y="220" width="120" height="20" fill="#160F09" /><rect x="340" y="220" width="40" height="20" fill="#160F09" /><rect x="60" y="240" width="180" height="20" fill="#160F09" /><rect x="280" y="240" width="40" height="20" fill="#160F09" /><rect x="340" y="240" width="20" height="20" fill="#160F09" /><rect x="420" y="240" width="20" height="20" fill="#160F09" /><rect x="60" y="260" width="180" height="20" fill="#160F09" /><rect x="280" y="260" width="40" height="20" fill="#160F09" /><rect x="340" y="260" width="40" height="20" fill="#160F09" /><rect x="420" y="260" width="20" height="20" fill="#160F09" /><rect x="60" y="280" width="180" height="20" fill="#160F09" /><rect x="280" y="280" width="40" height="20" fill="#160F09" /><rect x="340" y="280" width="40" height="20" fill="#160F09" /><rect x="420" y="280" width="20" height="20" fill="#160F09" /><rect x="60" y="300" width="200" height="20" fill="#160F09" /><rect x="340" y="300" width="40" height="20" fill="#160F09" /><rect x="420" y="300" width="20" height="20" fill="#160F09" /><rect x="60" y="320" width="40" height="20" fill="#160F09" /><rect x="120" y="320" width="140" height="20" fill="#160F09" /><rect x="340" y="320" width="40" height="20" fill="#160F09" /><rect x="400" y="320" width="40" height="20" fill="#160F09" /><rect x="60" y="340" width="40" height="20" fill="#160F09" /><rect x="120" y="340" width="140" height="20" fill="#160F09" /><rect x="320" y="340" width="60" height="20" fill="#160F09" /><rect x="400" y="340" width="40" height="20" fill="#160F09" /><rect x="60" y="360" width="40" height="20" fill="#160F09" /><rect x="120" y="360" width="160" height="20" fill="#160F09" /><rect x="340" y="360" width="40" height="20" fill="#160F09" /><rect x="420" y="360" width="20" height="20" fill="#160F09" /><rect x="60" y="380" width="40" height="20" fill="#160F09" /><rect x="160" y="380" width="140" height="20" fill="#160F09" /><rect x="360" y="380" width="40" height="20" fill="#160F09" /><rect x="420" y="380" width="20" height="20" fill="#160F09" /><rect x="60" y="400" width="40" height="20" fill="#160F09" /><rect x="160" y="400" width="100" height="20" fill="#160F09" /><rect x="320" y="400" width="20" height="20" fill="#160F09" /><rect x="360" y="400" width="40" height="20" fill="#160F09" /><rect x="420" y="400" width="20" height="20" fill="#160F09" /><rect x="60" y="420" width="40" height="20" fill="#160F09" /><rect x="140" y="420" width="20" height="20" fill="#160F09" /><rect x="180" y="420" width="80" height="20" fill="#160F09" /><rect x="360" y="420" width="20" height="20" fill="#160F09" /><rect x="320" y="300" width="20" height="20" fill="#00A29D" /><rect x="320" y="220" width="20" height="20" fill="#00A29D" /></svg>