<svg xmlns="http://www.w3.org/2000/svg" preserveAspectRatio="xMinYMin meet" viewBox="0 0 500 500" shape-rendering="crispEdges" transform-origin="center"><rect width="100%" height="100%" fill="#006669" /><g transform="scale (5 5)"><rect x="24" y="-1" width="51" height="9" stroke-width="0.3" stroke="black" fill="#FFA800" /><text x="50" y="5.5" width="42" font-family="monospace" font-size="5" text-anchor="middle">Siren's Cavern</text></g><rect x="74" y="74" width="352" height="22" fill="#004238" /><rect x="74" y="96" width="44" height="22" fill="#004238" /><rect x="140" y="96" width="22" height="22" fill="#004238" /><rect x="184" y="96" width="44" height="22" fill="#004238" /><rect x="74" y="118" width="44" height="22" fill="#004238" /><rect x="140" y="118" width="22" height="22" fill="#004238" /><rect x="206" y="118" width="22" height="22" fill="#004238" /><rect x="250" y="118" width="66" height="22" fill="#004238" /><rect x="74" y="140" width="44" height="22" fill="#004238" /><rect x="140" y="140" width="44" height="22" fill="#004238" /><rect x="250" y="140" width="44" height="22" fill="#004238" /><rect x="338" y="140" width="22" height="22" fill="#004238" /><rect x="404" y="140" width="22" height="22" fill="#004238" /><rect x="74" y="162" width="44" height="22" fill="#004238" /><rect x="140" y="162" width="44" height="22" fill="#004238" /><rect x="316" y="162" width="66" height="22" fill="#004238" /><rect x="404" y="162" width="22" height="22" fill="#004238" /><rect x="74" y="184" width="44" height="22" fill="#004238" /><rect x="140" y="184" width="44" height="22" fill="#004238" /><rect x="206" y="184" width="66" height="22" fill="#004238" /><rect x="316" y="184" width="66" height="22" fill="#004238" /><rect x="404" y="184" width="22" height="22" fill="#004238" /><rect x="74" y="206" width="0" height="22" fill="#004238" /><rect x="96" y="206" width="198" height="22" fill="#004238" /><rect x="316" y="206" width="44" height="22" fill="#004238" /><rect x="404" y="206" width="22" height="22" fill="#004238" /><rect x="74" y="228" width="220" height="22" fill="#004238" /><rect x="316" y="228" width="44" height="22" fill="#004238" /><rect x="382" y="228" width="44" height="22" fill="#004238" /><rect x="74" y="250" width="286" height="22" fill="#004238" /><rect x="382" y="250" width="44" height="22" fill="#004238" /><rect x="74" y="272" width="286" height="22" fill="#004238" /><rect x="382" y="272" width="44" height="22" fill="#004238" /><rect x="74" y="294" width="352" height="22" fill="#004238" /><rect x="74" y="316" width="352" height="22" fill="#004238" /><rect x="74" y="338" width="352" height="22" fill="#004238" /><rect x="74" y="360" width="352" height="22" fill="#004238" /><rect x="74" y="382" width="352" height="22" fill="#004238" /><rect x="74" y="404" width="352" height="22" fill="#004238" /><rect x="382" y="96" width="22" height="22" fill="#967E67" /></svg>