<svg xmlns="http://www.w3.org/2000/svg" preserveAspectRatio="xMinYMin meet" viewBox="0 0 500 500" shape-rendering="crispEdges" transform-origin="center"><rect width="100%" height="100%" fill="#967E67" /><g transform="scale (5 5)"><rect x="36" y="-1" width="27" height="9" stroke-width="0.3" stroke="black" fill="#FFA800" /><text x="50" y="5.5" width="18" font-family="monospace" font-size="5" text-anchor="middle">Cavern</text></g><rect x="61" y="61" width="378" height="18" fill="#F3D899" /><rect x="61" y="79" width="378" height="18" fill="#F3D899" /><rect x="61" y="97" width="342" height="18" fill="#F3D899" /><rect x="421" y="97" width="18" height="18" fill="#F3D899" /><rect x="61" y="115" width="342" height="18" fill="#F3D899" /><rect x="421" y="115" width="18" height="18" fill="#F3D899" /><rect x="61" y="133" width="306" height="18" fill="#F3D899" /><rect x="385" y="133" width="18" height="18" fill="#F3D899" /><rect x="421" y="133" width="18" height="18" fill="#F3D899" /><rect x="61" y="151" width="54" height="18" fill="#F3D899" /><rect x="151" y="151" width="180" height="18" fill="#F3D899" /><rect x="385" y="151" width="18" height="18" fill="#F3D899" /><rect x="421" y="151" width="18" height="18" fill="#F3D899" /><rect x="61" y="169" width="72" height="18" fill="#F3D899" /><rect x="223" y="169" width="36" height="18" fill="#F3D899" /><rect x="349" y="169" width="54" height="18" fill="#F3D899" /><rect x="421" y="169" width="18" height="18" fill="#F3D899" /><rect x="61" y="187" width="72" height="18" fill="#F3D899" /><rect x="151" y="187" width="36" height="18" fill="#F3D899" /><rect x="295" y="187" width="36" height="18" fill="#F3D899" /><rect x="367" y="187" width="36" height="18" fill="#F3D899" /><rect x="421" y="187" width="18" height="18" fill="#F3D899" /><rect x="61" y="205" width="72" height="18" fill="#F3D899" /><rect x="151" y="205" width="36" height="18" fill="#F3D899" /><rect x="205" y="205" width="18" height="18" fill="#F3D899" /><rect x="259" y="205" width="72" height="18" fill="#F3D899" /><rect x="61" y="223" width="18" height="18" fill="#F3D899" /><rect x="259" y="223" width="108" height="18" fill="#F3D899" /><rect x="385" y="223" width="54" height="18" fill="#F3D899" /><rect x="61" y="241" width="72" height="18" fill="#F3D899" /><rect x="187" y="241" width="18" height="18" fill="#F3D899" /><rect x="223" y="241" width="18" height="18" fill="#F3D899" /><rect x="259" y="241" width="108" height="18" fill="#F3D899" /><rect x="403" y="241" width="36" height="18" fill="#F3D899" /><rect x="61" y="259" width="108" height="18" fill="#F3D899" /><rect x="295" y="259" width="72" height="18" fill="#F3D899" /><rect x="403" y="259" width="36" height="18" fill="#F3D899" /><rect x="61" y="277" width="36" height="18" fill="#F3D899" /><rect x="187" y="277" width="18" height="18" fill="#F3D899" /><rect x="241" y="277" width="36" height="18" fill="#F3D899" /><rect x="313" y="277" width="54" height="18" fill="#F3D899" /><rect x="403" y="277" width="36" height="18" fill="#F3D899" /><rect x="61" y="295" width="36" height="18" fill="#F3D899" /><rect x="151" y="295" width="54" height="18" fill="#F3D899" /><rect x="223" y="295" width="72" height="18" fill="#F3D899" /><rect x="313" y="295" width="54" height="18" fill="#F3D899" /><rect x="403" y="295" width="36" height="18" fill="#F3D899" /><rect x="61" y="313" width="36" height="18" fill="#F3D899" /><rect x="133" y="313" width="36" height="18" fill="#F3D899" /><rect x="223" y="313" width="72" height="18" fill="#F3D899" /><rect x="331" y="313" width="18" height="18" fill="#F3D899" /><rect x="403" y="313" width="36" height="18" fill="#F3D899" /><rect x="61" y="331" width="54" height="18" fill="#F3D899" /><rect x="151" y="331" width="18" height="18" fill="#F3D899" /><rect x="331" y="331" width="54" height="18" fill="#F3D899" /><rect x="421" y="331" width="18" height="18" fill="#F3D899" /><rect x="61" y="349" width="72" height="18" fill="#F3D899" /><rect x="151" y="349" width="72" height="18" fill="#F3D899" /><rect x="277" y="349" width="18" height="18" fill="#F3D899" /><rect x="349" y="349" width="36" height="18" fill="#F3D899" /><rect x="421" y="349" width="18" height="18" fill="#F3D899" /><rect x="61" y="367" width="54" height="18" fill="#F3D899" /><rect x="169" y="367" width="36" height="18" fill="#F3D899" /><rect x="277" y="367" width="18" height="18" fill="#F3D899" /><rect x="313" y="367" width="72" height="18" fill="#F3D899" /><rect x="61" y="385" width="72" height="18" fill="#F3D899" /><rect x="151" y="385" width="54" height="18" fill="#F3D899" /><rect x="277" y="385" width="18" height="18" fill="#F3D899" /><rect x="349" y="385" width="36" height="18" fill="#F3D899" /><rect x="61" y="403" width="36" height="18" fill="#F3D899" /><rect x="151" y="403" width="18" height="18" fill="#F3D899" /><rect x="277" y="403" width="54" height="18" fill="#F3D899" /><rect x="349" y="403" width="36" height="18" fill="#F3D899" /><rect x="403" y="403" width="18" height="18" fill="#F3D899" /><rect x="61" y="421" width="36" height="18" fill="#F3D899" /><rect x="133" y="421" width="36" height="18" fill="#F3D899" /><rect x="277" y="421" width="54" height="18" fill="#F3D899" /><rect x="349" y="421" width="18" height="18" fill="#F3D899" /><rect x="403" y="421" width="18" height="18" fill="#F3D899" /><rect x="331" y="421" width="18" height="18" fill="#3C2A1A" /><rect x="331" y="385" width="18" height="18" fill="#006669" /><rect x="259" y="385" width="18" height="18" fill="#3C2A1A" /><rect x="133" y="349" width="18" height="18" fill="#3C2A1A" /><rect x="403" y="331" width="18" height="18" fill="#006669" /><rect x="205" y="295" width="18" height="18" fill="#006669" /><rect x="133" y="295" width="18" height="18" fill="#3C2A1A" /><rect x="241" y="241" width="18" height="18" fill="#006669" /><rect x="169" y="241" width="18" height="18" fill="#3C2A1A" /><rect x="79" y="223" width="18" height="18" fill="#3C2A1A" /><rect x="331" y="151" width="18" height="18" fill="#006669" /></svg>