<svg xmlns="http://www.w3.org/2000/svg" preserveAspectRatio="xMinYMin meet" viewBox="0 0 500 500" shape-rendering="crispEdges" transform-origin="center"><rect width="100%" height="100%" fill="#006669" /><g transform="scale (5 5)"><rect x="26" y="-1" width="48" height="9" stroke-width="0.3" stroke="black" fill="#FFA800" /><text x="50" y="5.5" width="39" font-family="monospace" font-size="5" text-anchor="middle">Morbid Tunnel</text></g><rect x="54" y="54" width="391" height="17" fill="#004238" /><rect x="54" y="71" width="391" height="17" fill="#004238" /><rect x="54" y="88" width="323" height="17" fill="#004238" /><rect x="411" y="88" width="34" height="17" fill="#004238" /><rect x="54" y="105" width="34" height="17" fill="#004238" /><rect x="411" y="105" width="34" height="17" fill="#004238" /><rect x="54" y="122" width="34" height="17" fill="#004238" /><rect x="156" y="122" width="119" height="17" fill="#004238" /><rect x="326" y="122" width="68" height="17" fill="#004238" /><rect x="411" y="122" width="34" height="17" fill="#004238" /><rect x="54" y="139" width="34" height="17" fill="#004238" /><rect x="156" y="139" width="119" height="17" fill="#004238" /><rect x="326" y="139" width="68" height="17" fill="#004238" /><rect x="411" y="139" width="34" height="17" fill="#004238" /><rect x="54" y="156" width="34" height="17" fill="#004238" /><rect x="156" y="156" width="51" height="17" fill="#004238" /><rect x="326" y="156" width="68" height="17" fill="#004238" /><rect x="411" y="156" width="34" height="17" fill="#004238" /><rect x="54" y="173" width="34" height="17" fill="#004238" /><rect x="156" y="173" width="51" height="17" fill="#004238" /><rect x="224" y="173" width="51" height="17" fill="#004238" /><rect x="326" y="173" width="68" height="17" fill="#004238" /><rect x="411" y="173" width="34" height="17" fill="#004238" /><rect x="54" y="190" width="34" height="17" fill="#004238" /><rect x="156" y="190" width="51" height="17" fill="#004238" /><rect x="224" y="190" width="51" height="17" fill="#004238" /><rect x="326" y="190" width="68" height="17" fill="#004238" /><rect x="411" y="190" width="34" height="17" fill="#004238" /><rect x="54" y="207" width="34" height="17" fill="#004238" /><rect x="258" y="207" width="34" height="17" fill="#004238" /><rect x="309" y="207" width="85" height="17" fill="#004238" /><rect x="411" y="207" width="34" height="17" fill="#004238" /><rect x="54" y="224" width="34" height="17" fill="#004238" /><rect x="258" y="224" width="34" height="17" fill="#004238" /><rect x="309" y="224" width="85" height="17" fill="#004238" /><rect x="411" y="224" width="34" height="17" fill="#004238" /><rect x="54" y="241" width="68" height="17" fill="#004238" /><rect x="156" y="241" width="136" height="17" fill="#004238" /><rect x="343" y="241" width="51" height="17" fill="#004238" /><rect x="411" y="241" width="34" height="17" fill="#004238" /><rect x="54" y="258" width="17" height="17" fill="#004238" /><rect x="173" y="258" width="119" height="17" fill="#004238" /><rect x="343" y="258" width="51" height="17" fill="#004238" /><rect x="411" y="258" width="34" height="17" fill="#004238" /><rect x="54" y="275" width="17" height="17" fill="#004238" /><rect x="394" y="275" width="51" height="17" fill="#004238" /><rect x="54" y="292" width="34" height="17" fill="#004238" /><rect x="275" y="292" width="17" height="17" fill="#004238" /><rect x="343" y="292" width="102" height="17" fill="#004238" /><rect x="54" y="309" width="34" height="17" fill="#004238" /><rect x="309" y="309" width="136" height="17" fill="#004238" /><rect x="54" y="326" width="17" height="17" fill="#004238" /><rect x="190" y="326" width="34" height="17" fill="#004238" /><rect x="241" y="326" width="51" height="17" fill="#004238" /><rect x="309" y="326" width="136" height="17" fill="#004238" /><rect x="54" y="343" width="17" height="17" fill="#004238" /><rect x="275" y="343" width="17" height="17" fill="#004238" /><rect x="309" y="343" width="136" height="17" fill="#004238" /><rect x="54" y="360" width="17" height="17" fill="#004238" /><rect x="292" y="360" width="153" height="17" fill="#004238" /><rect x="54" y="377" width="17" height="17" fill="#004238" /><rect x="275" y="377" width="170" height="17" fill="#004238" /><rect x="54" y="394" width="119" height="17" fill="#004238" /><rect x="275" y="394" width="170" height="17" fill="#004238" /><rect x="54" y="411" width="391" height="17" fill="#004238" /><rect x="54" y="428" width="391" height="17" fill="#004238" /><rect x="224" y="394" width="17" height="17" fill="#F9B569" /><rect x="122" y="377" width="17" height="17" fill="#F9B569" /><rect x="173" y="360" width="17" height="17" fill="#F9B569" /><rect x="224" y="343" width="17" height="17" fill="#F9B569" /><rect x="275" y="275" width="17" height="17" fill="#967E67" /><rect x="190" y="275" width="17" height="17" fill="#967E67" /><rect x="394" y="190" width="17" height="17" fill="#967E67" /><rect x="309" y="190" width="17" height="17" fill="#F9B569" /></svg>