<svg xmlns="http://www.w3.org/2000/svg" preserveAspectRatio="xMinYMin meet" viewBox="0 0 500 500" shape-rendering="crispEdges" transform-origin="center"><rect width="100%" height="100%" fill="#F3D899" /><g transform="scale (5 5)"><rect x="35" y="-1" width="30" height="9" stroke-width="0.3" stroke="black" fill="#FFA800" /><text x="50" y="5.5" width="21" font-family="monospace" font-size="5" text-anchor="middle">Chamber</text></g><rect x="77" y="77" width="345" height="23" fill="#160F09" /><rect x="77" y="100" width="345" height="23" fill="#160F09" /><rect x="77" y="123" width="23" height="23" fill="#160F09" /><rect x="192" y="123" width="230" height="23" fill="#160F09" /><rect x="77" y="146" width="23" height="23" fill="#160F09" /><rect x="192" y="146" width="230" height="23" fill="#160F09" /><rect x="77" y="169" width="69" height="23" fill="#160F09" /><rect x="169" y="169" width="23" height="23" fill="#160F09" /><rect x="238" y="169" width="184" height="23" fill="#160F09" /><rect x="77" y="192" width="69" height="23" fill="#160F09" /><rect x="238" y="192" width="46" height="23" fill="#160F09" /><rect x="376" y="192" width="46" height="23" fill="#160F09" /><rect x="77" y="215" width="115" height="23" fill="#160F09" /><rect x="376" y="215" width="46" height="23" fill="#160F09" /><rect x="77" y="238" width="115" height="23" fill="#160F09" /><rect x="238" y="238" width="46" height="23" fill="#160F09" /><rect x="376" y="238" width="46" height="23" fill="#160F09" /><rect x="77" y="261" width="69" height="23" fill="#160F09" /><rect x="238" y="261" width="92" height="23" fill="#160F09" /><rect x="353" y="261" width="69" height="23" fill="#160F09" /><rect x="77" y="284" width="69" height="23" fill="#160F09" /><rect x="261" y="284" width="46" height="23" fill="#160F09" /><rect x="353" y="284" width="69" height="23" fill="#160F09" /><rect x="77" y="307" width="69" height="23" fill="#160F09" /><rect x="353" y="307" width="69" height="23" fill="#160F09" /><rect x="77" y="330" width="69" height="23" fill="#160F09" /><rect x="353" y="330" width="69" height="23" fill="#160F09" /><rect x="77" y="353" width="115" height="23" fill="#160F09" /><rect x="353" y="353" width="69" height="23" fill="#160F09" /><rect x="77" y="376" width="345" height="23" fill="#160F09" /><rect x="77" y="399" width="345" height="23" fill="#160F09" /><rect x="169" y="330" width="23" height="23" fill="#00A29D" /><rect x="146" y="330" width="23" height="23" fill="#00A29D" /><rect x="307" y="192" width="23" height="23" fill="#00A29D" /></svg>