<svg xmlns="http://www.w3.org/2000/svg" preserveAspectRatio="xMinYMin meet" viewBox="0 0 500 500" shape-rendering="crispEdges" transform-origin="center"><rect width="100%" height="100%" fill="#2F590E" /><g transform="scale (5 5)"><rect x="21" y="-1" width="57" height="9" stroke-width="0.3" stroke="black" fill="#FFA800" /><text x="50" y="5.5" width="48" font-family="monospace" font-size="5" text-anchor="middle">Holy Den of Dusk</text></g><rect x="58" y="58" width="384" height="16" fill="#A98C00" /><rect x="58" y="74" width="384" height="16" fill="#A98C00" /><rect x="58" y="90" width="32" height="16" fill="#A98C00" /><rect x="202" y="90" width="240" height="16" fill="#A98C00" /><rect x="58" y="106" width="32" height="16" fill="#A98C00" /><rect x="202" y="106" width="240" height="16" fill="#A98C00" /><rect x="58" y="122" width="32" height="16" fill="#A98C00" /><rect x="202" y="122" width="48" height="16" fill="#A98C00" /><rect x="282" y="122" width="160" height="16" fill="#A98C00" /><rect x="58" y="138" width="32" height="16" fill="#A98C00" /><rect x="202" y="138" width="48" height="16" fill="#A98C00" /><rect x="282" y="138" width="16" height="16" fill="#A98C00" /><rect x="362" y="138" width="80" height="16" fill="#A98C00" /><rect x="58" y="154" width="32" height="16" fill="#A98C00" /><rect x="362" y="154" width="80" height="16" fill="#A98C00" /><rect x="58" y="170" width="32" height="16" fill="#A98C00" /><rect x="202" y="170" width="48" height="16" fill="#A98C00" /><rect x="282" y="170" width="16" height="16" fill="#A98C00" /><rect x="362" y="170" width="80" height="16" fill="#A98C00" /><rect x="58" y="186" width="64" height="16" fill="#A98C00" /><rect x="154" y="186" width="96" height="16" fill="#A98C00" /><rect x="282" y="186" width="48" height="16" fill="#A98C00" /><rect x="346" y="186" width="96" height="16" fill="#A98C00" /><rect x="58" y="202" width="32" height="16" fill="#A98C00" /><rect x="186" y="202" width="80" height="16" fill="#A98C00" /><rect x="282" y="202" width="48" height="16" fill="#A98C00" /><rect x="346" y="202" width="96" height="16" fill="#A98C00" /><rect x="58" y="218" width="32" height="16" fill="#A98C00" /><rect x="346" y="218" width="96" height="16" fill="#A98C00" /><rect x="58" y="234" width="16" height="16" fill="#A98C00" /><rect x="186" y="234" width="80" height="16" fill="#A98C00" /><rect x="282" y="234" width="48" height="16" fill="#A98C00" /><rect x="346" y="234" width="96" height="16" fill="#A98C00" /><rect x="58" y="250" width="16" height="16" fill="#A98C00" /><rect x="266" y="250" width="48" height="16" fill="#A98C00" /><rect x="394" y="250" width="48" height="16" fill="#A98C00" /><rect x="58" y="266" width="16" height="16" fill="#A98C00" /><rect x="266" y="266" width="48" height="16" fill="#A98C00" /><rect x="394" y="266" width="48" height="16" fill="#A98C00" /><rect x="58" y="282" width="16" height="16" fill="#A98C00" /><rect x="394" y="282" width="48" height="16" fill="#A98C00" /><rect x="58" y="298" width="16" height="16" fill="#A98C00" /><rect x="394" y="298" width="48" height="16" fill="#A98C00" /><rect x="58" y="314" width="16" height="16" fill="#A98C00" /><rect x="218" y="314" width="16" height="16" fill="#A98C00" /><rect x="250" y="314" width="16" height="16" fill="#A98C00" /><rect x="282" y="314" width="32" height="16" fill="#A98C00" /><rect x="394" y="314" width="48" height="16" fill="#A98C00" /><rect x="58" y="330" width="16" height="16" fill="#A98C00" /><rect x="218" y="330" width="16" height="16" fill="#A98C00" /><rect x="250" y="330" width="16" height="16" fill="#A98C00" /><rect x="282" y="330" width="32" height="16" fill="#A98C00" /><rect x="394" y="330" width="48" height="16" fill="#A98C00" /><rect x="58" y="346" width="32" height="16" fill="#A98C00" /><rect x="282" y="346" width="16" height="16" fill="#A98C00" /><rect x="362" y="346" width="80" height="16" fill="#A98C00" /><rect x="58" y="362" width="64" height="16" fill="#A98C00" /><rect x="362" y="362" width="80" height="16" fill="#A98C00" /><rect x="58" y="378" width="80" height="16" fill="#A98C00" /><rect x="154" y="378" width="32" height="16" fill="#A98C00" /><rect x="362" y="378" width="80" height="16" fill="#A98C00" /><rect x="58" y="394" width="80" height="16" fill="#A98C00" /><rect x="362" y="394" width="80" height="16" fill="#A98C00" /><rect x="58" y="410" width="384" height="16" fill="#A98C00" /><rect x="58" y="426" width="384" height="16" fill="#A98C00" /><rect x="250" y="378" width="16" height="16" fill="#C55300" /><rect x="218" y="282" width="16" height="16" fill="#C55300" /><rect x="218" y="266" width="16" height="16" fill="#C55300" /><rect x="154" y="266" width="16" height="16" fill="#C55300" /><rect x="330" y="138" width="16" height="16" fill="#C55300" /><rect x="186" y="122" width="16" height="16" fill="#C55300" /><rect x="122" y="90" width="16" height="16" fill="#C55300" /></svg>