<svg xmlns="http://www.w3.org/2000/svg" preserveAspectRatio="xMinYMin meet" viewBox="0 0 500 500" shape-rendering="crispEdges" transform-origin="center"><rect width="100%" height="100%" fill="#36230F" /><g transform="scale (5 5)"><rect x="27" y="-1" width="45" height="9" stroke-width="0.3" stroke="black" fill="#FFA800" /><text x="50" y="5.5" width="36" font-family="monospace" font-size="5" text-anchor="middle">Lair of Pine</text></g><rect x="70" y="70" width="360" height="20" fill="#744936" /><rect x="70" y="90" width="360" height="20" fill="#744936" /><rect x="70" y="110" width="360" height="20" fill="#744936" /><rect x="70" y="130" width="360" height="20" fill="#744936" /><rect x="70" y="150" width="360" height="20" fill="#744936" /><rect x="70" y="170" width="20" height="20" fill="#744936" /><rect x="150" y="170" width="160" height="20" fill="#744936" /><rect x="350" y="170" width="80" height="20" fill="#744936" /><rect x="70" y="190" width="20" height="20" fill="#744936" /><rect x="150" y="190" width="160" height="20" fill="#744936" /><rect x="350" y="190" width="80" height="20" fill="#744936" /><rect x="70" y="210" width="20" height="20" fill="#744936" /><rect x="350" y="210" width="80" height="20" fill="#744936" /><rect x="70" y="230" width="20" height="20" fill="#744936" /><rect x="150" y="230" width="20" height="20" fill="#744936" /><rect x="270" y="230" width="40" height="20" fill="#744936" /><rect x="350" y="230" width="80" height="20" fill="#744936" /><rect x="70" y="250" width="40" height="20" fill="#744936" /><rect x="350" y="250" width="80" height="20" fill="#744936" /><rect x="70" y="270" width="40" height="20" fill="#744936" /><rect x="350" y="270" width="80" height="20" fill="#744936" /><rect x="70" y="290" width="20" height="20" fill="#744936" /><rect x="210" y="290" width="80" height="20" fill="#744936" /><rect x="350" y="290" width="80" height="20" fill="#744936" /><rect x="70" y="310" width="20" height="20" fill="#744936" /><rect x="350" y="310" width="80" height="20" fill="#744936" /><rect x="70" y="330" width="20" height="20" fill="#744936" /><rect x="230" y="330" width="40" height="20" fill="#744936" /><rect x="350" y="330" width="80" height="20" fill="#744936" /><rect x="70" y="350" width="20" height="20" fill="#744936" /><rect x="350" y="350" width="80" height="20" fill="#744936" /><rect x="70" y="370" width="60" height="20" fill="#744936" /><rect x="230" y="370" width="40" height="20" fill="#744936" /><rect x="350" y="370" width="80" height="20" fill="#744936" /><rect x="70" y="390" width="360" height="20" fill="#744936" /><rect x="70" y="410" width="360" height="20" fill="#744936" /><rect x="330" y="370" width="20" height="20" fill="#FFA800" /><rect x="150" y="350" width="20" height="20" fill="#FFA800" /><rect x="330" y="330" width="20" height="20" fill="#FFA800" /><rect x="150" y="330" width="20" height="20" fill="#FFA800" /><rect x="210" y="250" width="20" height="20" fill="#FFA800" /><rect x="250" y="230" width="20" height="20" fill="#FFA800" /></svg>