<svg xmlns="http://www.w3.org/2000/svg" preserveAspectRatio="xMinYMin meet" viewBox="0 0 500 500" shape-rendering="crispEdges" transform-origin="center"><rect width="100%" height="100%" fill="#967E67" /><g transform="scale (5 5)"><rect x="21" y="-1" width="57" height="9" stroke-width="0.3" stroke="black" fill="#FFA800" /><text x="50" y="5.5" width="48" font-family="monospace" font-size="5" text-anchor="middle">Peak of Loathing</text></g><rect x="60" y="60" width="380" height="20" fill="#F3D899" /><rect x="60" y="80" width="380" height="20" fill="#F3D899" /><rect x="60" y="100" width="20" height="20" fill="#F3D899" /><rect x="140" y="100" width="20" height="20" fill="#F3D899" /><rect x="200" y="100" width="240" height="20" fill="#F3D899" /><rect x="60" y="120" width="20" height="20" fill="#F3D899" /><rect x="200" y="120" width="240" height="20" fill="#F3D899" /><rect x="60" y="140" width="40" height="20" fill="#F3D899" /><rect x="140" y="140" width="20" height="20" fill="#F3D899" /><rect x="200" y="140" width="240" height="20" fill="#F3D899" /><rect x="60" y="160" width="40" height="20" fill="#F3D899" /><rect x="140" y="160" width="300" height="20" fill="#F3D899" /><rect x="60" y="180" width="40" height="20" fill="#F3D899" /><rect x="140" y="180" width="300" height="20" fill="#F3D899" /><rect x="60" y="200" width="20" height="20" fill="#F3D899" /><rect x="180" y="200" width="260" height="20" fill="#F3D899" /><rect x="60" y="220" width="20" height="20" fill="#F3D899" /><rect x="180" y="220" width="260" height="20" fill="#F3D899" /><rect x="60" y="240" width="20" height="20" fill="#F3D899" /><rect x="360" y="240" width="80" height="20" fill="#F3D899" /><rect x="60" y="260" width="20" height="20" fill="#F3D899" /><rect x="180" y="260" width="160" height="20" fill="#F3D899" /><rect x="360" y="260" width="80" height="20" fill="#F3D899" /><rect x="60" y="280" width="40" height="20" fill="#F3D899" /><rect x="160" y="280" width="140" height="20" fill="#F3D899" /><rect x="400" y="280" width="40" height="20" fill="#F3D899" /><rect x="60" y="300" width="40" height="20" fill="#F3D899" /><rect x="280" y="300" width="20" height="20" fill="#F3D899" /><rect x="400" y="300" width="40" height="20" fill="#F3D899" /><rect x="60" y="320" width="40" height="20" fill="#F3D899" /><rect x="400" y="320" width="40" height="20" fill="#F3D899" /><rect x="60" y="340" width="40" height="20" fill="#F3D899" /><rect x="260" y="340" width="40" height="20" fill="#F3D899" /><rect x="400" y="340" width="40" height="20" fill="#F3D899" /><rect x="60" y="360" width="60" height="20" fill="#F3D899" /><rect x="260" y="360" width="40" height="20" fill="#F3D899" /><rect x="400" y="360" width="40" height="20" fill="#F3D899" /><rect x="60" y="380" width="120" height="20" fill="#F3D899" /><rect x="260" y="380" width="180" height="20" fill="#F3D899" /><rect x="60" y="400" width="380" height="20" fill="#F3D899" /><rect x="60" y="420" width="380" height="20" fill="#F3D899" /><rect x="220" y="380" width="20" height="20" fill="#006669" /><rect x="160" y="360" width="20" height="20" fill="#3C2A1A" /><rect x="380" y="300" width="20" height="20" fill="#006669" /><rect x="360" y="280" width="20" height="20" fill="#006669" /><rect x="80" y="240" width="20" height="20" fill="#006669" /><rect x="160" y="200" width="20" height="20" fill="#006669" /></svg>