<svg xmlns="http://www.w3.org/2000/svg" preserveAspectRatio="xMinYMin meet" viewBox="0 0 500 500" shape-rendering="crispEdges" transform-origin="center"><rect width="100%" height="100%" fill="#2F590E" /><g transform="scale (5 5)"><rect x="14" y="-1" width="72" height="9" stroke-width="0.3" stroke="black" fill="#FFA800" /><text x="50" y="5.5" width="63" font-family="monospace" font-size="5" text-anchor="middle">Catacombs of the Song</text></g><rect x="79" y="61" width="360" height="18" fill="#A98C00" /><rect x="61" y="79" width="270" height="18" fill="#A98C00" /><rect x="421" y="79" width="18" height="18" fill="#A98C00" /><rect x="61" y="97" width="252" height="18" fill="#A98C00" /><rect x="61" y="115" width="252" height="18" fill="#A98C00" /><rect x="421" y="115" width="18" height="18" fill="#A98C00" /><rect x="61" y="133" width="216" height="18" fill="#A98C00" /><rect x="421" y="133" width="18" height="18" fill="#A98C00" /><rect x="61" y="151" width="216" height="18" fill="#A98C00" /><rect x="313" y="151" width="36" height="18" fill="#A98C00" /><rect x="61" y="169" width="216" height="18" fill="#A98C00" /><rect x="295" y="169" width="36" height="18" fill="#A98C00" /><rect x="385" y="169" width="36" height="18" fill="#A98C00" /><rect x="61" y="187" width="198" height="18" fill="#A98C00" /><rect x="295" y="187" width="54" height="18" fill="#A98C00" /><rect x="385" y="187" width="36" height="18" fill="#A98C00" /><rect x="61" y="205" width="216" height="18" fill="#A98C00" /><rect x="295" y="205" width="54" height="18" fill="#A98C00" /><rect x="385" y="205" width="18" height="18" fill="#A98C00" /><rect x="61" y="223" width="18" height="18" fill="#A98C00" /><rect x="97" y="223" width="252" height="18" fill="#A98C00" /><rect x="385" y="223" width="54" height="18" fill="#A98C00" /><rect x="61" y="241" width="0" height="18" fill="#A98C00" /><rect x="79" y="241" width="288" height="18" fill="#A98C00" /><rect x="403" y="241" width="36" height="18" fill="#A98C00" /><rect x="61" y="259" width="288" height="18" fill="#A98C00" /><rect x="403" y="259" width="36" height="18" fill="#A98C00" /><rect x="61" y="277" width="306" height="18" fill="#A98C00" /><rect x="403" y="277" width="36" height="18" fill="#A98C00" /><rect x="61" y="295" width="288" height="18" fill="#A98C00" /><rect x="385" y="295" width="54" height="18" fill="#A98C00" /><rect x="61" y="313" width="288" height="18" fill="#A98C00" /><rect x="385" y="313" width="54" height="18" fill="#A98C00" /><rect x="61" y="331" width="306" height="18" fill="#A98C00" /><rect x="385" y="331" width="54" height="18" fill="#A98C00" /><rect x="61" y="349" width="288" height="18" fill="#A98C00" /><rect x="385" y="349" width="54" height="18" fill="#A98C00" /><rect x="61" y="367" width="270" height="18" fill="#A98C00" /><rect x="367" y="367" width="72" height="18" fill="#A98C00" /><rect x="61" y="385" width="270" height="18" fill="#A98C00" /><rect x="349" y="385" width="90" height="18" fill="#A98C00" /><rect x="61" y="403" width="252" height="18" fill="#A98C00" /><rect x="349" y="403" width="90" height="18" fill="#A98C00" /><rect x="61" y="421" width="252" height="18" fill="#A98C00" /><rect x="331" y="421" width="108" height="18" fill="#A98C00" /><rect x="349" y="295" width="18" height="18" fill="#C55300" /><rect x="367" y="187" width="18" height="18" fill="#C55300" /></svg>