<svg xmlns="http://www.w3.org/2000/svg" preserveAspectRatio="xMinYMin meet" viewBox="0 0 500 500" shape-rendering="crispEdges" transform-origin="center"><rect width="100%" height="100%" fill="#F3D899" /><g transform="scale (5 5)"><rect x="14" y="-1" width="72" height="9" stroke-width="0.3" stroke="black" fill="#FFA800" /><text x="50" y="5.5" width="99" font-family="monospace" font-size="4" text-anchor="middle">Dire Chamber of the Vortex</text></g><rect x="77" y="77" width="345" height="23" fill="#160F09" /><rect x="77" y="100" width="92" height="23" fill="#160F09" /><rect x="261" y="100" width="161" height="23" fill="#160F09" /><rect x="77" y="123" width="92" height="23" fill="#160F09" /><rect x="261" y="123" width="161" height="23" fill="#160F09" /><rect x="77" y="146" width="92" height="23" fill="#160F09" /><rect x="261" y="146" width="161" height="23" fill="#160F09" /><rect x="77" y="169" width="92" height="23" fill="#160F09" /><rect x="238" y="169" width="69" height="23" fill="#160F09" /><rect x="353" y="169" width="69" height="23" fill="#160F09" /><rect x="77" y="192" width="46" height="23" fill="#160F09" /><rect x="353" y="192" width="69" height="23" fill="#160F09" /><rect x="77" y="215" width="23" height="23" fill="#160F09" /><rect x="146" y="215" width="23" height="23" fill="#160F09" /><rect x="215" y="215" width="92" height="23" fill="#160F09" /><rect x="353" y="215" width="69" height="23" fill="#160F09" /><rect x="77" y="238" width="23" height="23" fill="#160F09" /><rect x="215" y="238" width="115" height="23" fill="#160F09" /><rect x="353" y="238" width="69" height="23" fill="#160F09" /><rect x="77" y="261" width="23" height="23" fill="#160F09" /><rect x="146" y="261" width="184" height="23" fill="#160F09" /><rect x="353" y="261" width="69" height="23" fill="#160F09" /><rect x="77" y="284" width="253" height="23" fill="#160F09" /><rect x="353" y="284" width="69" height="23" fill="#160F09" /><rect x="77" y="307" width="253" height="23" fill="#160F09" /><rect x="353" y="307" width="69" height="23" fill="#160F09" /><rect x="77" y="330" width="207" height="23" fill="#160F09" /><rect x="376" y="330" width="46" height="23" fill="#160F09" /><rect x="77" y="353" width="207" height="23" fill="#160F09" /><rect x="376" y="353" width="46" height="23" fill="#160F09" /><rect x="77" y="376" width="345" height="23" fill="#160F09" /><rect x="77" y="399" width="345" height="23" fill="#160F09" /><rect x="215" y="123" width="23" height="23" fill="#00A29D" /></svg>