<svg xmlns="http://www.w3.org/2000/svg" preserveAspectRatio="xMinYMin meet" viewBox="0 0 500 500" shape-rendering="crispEdges" transform-origin="center"><rect width="100%" height="100%" fill="#36230F" /><g transform="scale (5 5)"><rect x="35" y="-1" width="30" height="9" stroke-width="0.3" stroke="black" fill="#FFA800" /><text x="50" y="5.5" width="21" font-family="monospace" font-size="5" text-anchor="middle">Steppes</text></g><rect x="101" y="101" width="297" height="33" fill="#744936" /><rect x="101" y="134" width="33" height="33" fill="#744936" /><rect x="167" y="134" width="33" height="33" fill="#744936" /><rect x="299" y="134" width="99" height="33" fill="#744936" /><rect x="101" y="167" width="0" height="33" fill="#744936" /><rect x="167" y="167" width="66" height="33" fill="#744936" /><rect x="299" y="167" width="99" height="33" fill="#744936" /><rect x="101" y="200" width="33" height="33" fill="#744936" /><rect x="167" y="200" width="99" height="33" fill="#744936" /><rect x="299" y="200" width="99" height="33" fill="#744936" /><rect x="101" y="233" width="33" height="33" fill="#744936" /><rect x="167" y="233" width="66" height="33" fill="#744936" /><rect x="299" y="233" width="99" height="33" fill="#744936" /><rect x="101" y="266" width="33" height="33" fill="#744936" /><rect x="167" y="266" width="99" height="33" fill="#744936" /><rect x="299" y="266" width="99" height="33" fill="#744936" /><rect x="101" y="299" width="33" height="33" fill="#744936" /><rect x="167" y="299" width="66" height="33" fill="#744936" /><rect x="299" y="299" width="99" height="33" fill="#744936" /><rect x="101" y="332" width="297" height="33" fill="#744936" /><rect x="101" y="365" width="297" height="33" fill="#744936" /><rect x="266" y="266" width="33" height="33" fill="#802F1A" /><rect x="233" y="167" width="33" height="33" fill="#802F1A" /><rect x="266" y="134" width="33" height="33" fill="#FFA800" /></svg>