<svg xmlns="http://www.w3.org/2000/svg" preserveAspectRatio="xMinYMin meet" viewBox="0 0 500 500" shape-rendering="crispEdges" transform-origin="center"><rect width="100%" height="100%" fill="#006669" /><g transform="scale (5 5)"><rect x="18" y="-1" width="63" height="9" stroke-width="0.3" stroke="black" fill="#FFA800" /><text x="50" y="5.5" width="54" font-family="monospace" font-size="5" text-anchor="middle">Valley of the Song</text></g><rect x="58" y="58" width="384" height="16" fill="#004238" /><rect x="58" y="74" width="384" height="16" fill="#004238" /><rect x="58" y="90" width="384" height="16" fill="#004238" /><rect x="58" y="106" width="384" height="16" fill="#004238" /><rect x="58" y="122" width="384" height="16" fill="#004238" /><rect x="58" y="138" width="384" height="16" fill="#004238" /><rect x="58" y="154" width="80" height="16" fill="#004238" /><rect x="170" y="154" width="272" height="16" fill="#004238" /><rect x="58" y="170" width="80" height="16" fill="#004238" /><rect x="346" y="170" width="96" height="16" fill="#004238" /><rect x="58" y="186" width="48" height="16" fill="#004238" /><rect x="170" y="186" width="48" height="16" fill="#004238" /><rect x="250" y="186" width="80" height="16" fill="#004238" /><rect x="346" y="186" width="96" height="16" fill="#004238" /><rect x="58" y="202" width="48" height="16" fill="#004238" /><rect x="154" y="202" width="64" height="16" fill="#004238" /><rect x="250" y="202" width="80" height="16" fill="#004238" /><rect x="346" y="202" width="96" height="16" fill="#004238" /><rect x="58" y="218" width="64" height="16" fill="#004238" /><rect x="138" y="218" width="80" height="16" fill="#004238" /><rect x="250" y="218" width="80" height="16" fill="#004238" /><rect x="346" y="218" width="96" height="16" fill="#004238" /><rect x="58" y="234" width="64" height="16" fill="#004238" /><rect x="138" y="234" width="80" height="16" fill="#004238" /><rect x="250" y="234" width="80" height="16" fill="#004238" /><rect x="346" y="234" width="96" height="16" fill="#004238" /><rect x="58" y="250" width="16" height="16" fill="#004238" /><rect x="186" y="250" width="32" height="16" fill="#004238" /><rect x="250" y="250" width="80" height="16" fill="#004238" /><rect x="346" y="250" width="96" height="16" fill="#004238" /><rect x="58" y="266" width="16" height="16" fill="#004238" /><rect x="250" y="266" width="80" height="16" fill="#004238" /><rect x="346" y="266" width="96" height="16" fill="#004238" /><rect x="58" y="282" width="16" height="16" fill="#004238" /><rect x="186" y="282" width="32" height="16" fill="#004238" /><rect x="250" y="282" width="48" height="16" fill="#004238" /><rect x="378" y="282" width="64" height="16" fill="#004238" /><rect x="58" y="298" width="16" height="16" fill="#004238" /><rect x="378" y="298" width="64" height="16" fill="#004238" /><rect x="58" y="314" width="16" height="16" fill="#004238" /><rect x="378" y="314" width="64" height="16" fill="#004238" /><rect x="58" y="330" width="16" height="16" fill="#004238" /><rect x="282" y="330" width="32" height="16" fill="#004238" /><rect x="330" y="330" width="112" height="16" fill="#004238" /><rect x="58" y="346" width="16" height="16" fill="#004238" /><rect x="282" y="346" width="32" height="16" fill="#004238" /><rect x="330" y="346" width="112" height="16" fill="#004238" /><rect x="58" y="362" width="16" height="16" fill="#004238" /><rect x="282" y="362" width="32" height="16" fill="#004238" /><rect x="330" y="362" width="112" height="16" fill="#004238" /><rect x="58" y="378" width="64" height="16" fill="#004238" /><rect x="138" y="378" width="32" height="16" fill="#004238" /><rect x="346" y="378" width="96" height="16" fill="#004238" /><rect x="58" y="394" width="64" height="16" fill="#004238" /><rect x="346" y="394" width="96" height="16" fill="#004238" /><rect x="58" y="410" width="384" height="16" fill="#004238" /><rect x="58" y="426" width="384" height="16" fill="#004238" /><rect x="170" y="362" width="16" height="16" fill="#F9B569" /><rect x="122" y="346" width="16" height="16" fill="#F9B569" /><rect x="90" y="346" width="16" height="16" fill="#F9B569" /><rect x="330" y="298" width="16" height="16" fill="#F9B569" /><rect x="74" y="282" width="16" height="16" fill="#F9B569" /><rect x="90" y="250" width="16" height="16" fill="#F9B569" /><rect x="234" y="170" width="16" height="16" fill="#967E67" /></svg>