<svg xmlns="http://www.w3.org/2000/svg" preserveAspectRatio="xMinYMin meet" viewBox="0 0 500 500" shape-rendering="crispEdges" transform-origin="center"><rect width="100%" height="100%" fill="#006669" /><g transform="scale (5 5)"><rect x="32" y="-1" width="36" height="9" stroke-width="0.3" stroke="black" fill="#FFA800" /><text x="50" y="5.5" width="27" font-family="monospace" font-size="5" text-anchor="middle">Labyrinth</text></g><rect x="77" y="77" width="345" height="23" fill="#004238" /><rect x="77" y="100" width="23" height="23" fill="#004238" /><rect x="169" y="100" width="253" height="23" fill="#004238" /><rect x="77" y="123" width="23" height="23" fill="#004238" /><rect x="307" y="123" width="115" height="23" fill="#004238" /><rect x="77" y="146" width="23" height="23" fill="#004238" /><rect x="169" y="146" width="115" height="23" fill="#004238" /><rect x="307" y="146" width="115" height="23" fill="#004238" /><rect x="77" y="169" width="46" height="23" fill="#004238" /><rect x="146" y="169" width="138" height="23" fill="#004238" /><rect x="307" y="169" width="115" height="23" fill="#004238" /><rect x="77" y="192" width="23" height="23" fill="#004238" /><rect x="169" y="192" width="115" height="23" fill="#004238" /><rect x="307" y="192" width="115" height="23" fill="#004238" /><rect x="77" y="215" width="23" height="23" fill="#004238" /><rect x="192" y="215" width="92" height="23" fill="#004238" /><rect x="307" y="215" width="115" height="23" fill="#004238" /><rect x="77" y="238" width="23" height="23" fill="#004238" /><rect x="192" y="238" width="92" height="23" fill="#004238" /><rect x="307" y="238" width="115" height="23" fill="#004238" /><rect x="77" y="261" width="23" height="23" fill="#004238" /><rect x="215" y="261" width="69" height="23" fill="#004238" /><rect x="307" y="261" width="115" height="23" fill="#004238" /><rect x="77" y="284" width="23" height="23" fill="#004238" /><rect x="215" y="284" width="23" height="23" fill="#004238" /><rect x="330" y="284" width="92" height="23" fill="#004238" /><rect x="77" y="307" width="23" height="23" fill="#004238" /><rect x="215" y="307" width="23" height="23" fill="#004238" /><rect x="330" y="307" width="92" height="23" fill="#004238" /><rect x="77" y="330" width="23" height="23" fill="#004238" /><rect x="215" y="330" width="23" height="23" fill="#004238" /><rect x="330" y="330" width="92" height="23" fill="#004238" /><rect x="77" y="353" width="23" height="23" fill="#004238" /><rect x="215" y="353" width="207" height="23" fill="#004238" /><rect x="77" y="376" width="345" height="23" fill="#004238" /><rect x="77" y="399" width="345" height="23" fill="#004238" /><rect x="307" y="307" width="23" height="23" fill="#F9B569" /><rect x="169" y="238" width="23" height="23" fill="#967E67" /><rect x="123" y="169" width="23" height="23" fill="#967E67" /><rect x="192" y="123" width="23" height="23" fill="#967E67" /></svg>