<svg xmlns="http://www.w3.org/2000/svg" preserveAspectRatio="xMinYMin meet" viewBox="0 0 500 500" shape-rendering="crispEdges" transform-origin="center"><rect width="100%" height="100%" fill="#F3D899" /><g transform="scale (5 5)"><rect x="20" y="-1" width="60" height="9" stroke-width="0.3" stroke="black" fill="#FFA800" /><text x="50" y="5.5" width="51" font-family="monospace" font-size="5" text-anchor="middle">Waterfall of Bone</text></g><rect x="63" y="63" width="374" height="17" fill="#160F09" /><rect x="63" y="80" width="357" height="17" fill="#160F09" /><rect x="63" y="97" width="340" height="17" fill="#160F09" /><rect x="63" y="114" width="136" height="17" fill="#160F09" /><rect x="335" y="114" width="34" height="17" fill="#160F09" /><rect x="420" y="114" width="17" height="17" fill="#160F09" /><rect x="63" y="131" width="102" height="17" fill="#160F09" /><rect x="216" y="131" width="34" height="17" fill="#160F09" /><rect x="386" y="131" width="51" height="17" fill="#160F09" /><rect x="63" y="148" width="136" height="17" fill="#160F09" /><rect x="301" y="148" width="17" height="17" fill="#160F09" /><rect x="63" y="165" width="51" height="17" fill="#160F09" /><rect x="131" y="165" width="51" height="17" fill="#160F09" /><rect x="301" y="165" width="85" height="17" fill="#160F09" /><rect x="63" y="182" width="51" height="17" fill="#160F09" /><rect x="165" y="182" width="34" height="17" fill="#160F09" /><rect x="233" y="182" width="34" height="17" fill="#160F09" /><rect x="284" y="182" width="136" height="17" fill="#160F09" /><rect x="63" y="199" width="85" height="17" fill="#160F09" /><rect x="216" y="199" width="187" height="17" fill="#160F09" /><rect x="63" y="216" width="119" height="17" fill="#160F09" /><rect x="250" y="216" width="102" height="17" fill="#160F09" /><rect x="386" y="216" width="17" height="17" fill="#160F09" /><rect x="63" y="233" width="102" height="17" fill="#160F09" /><rect x="199" y="233" width="34" height="17" fill="#160F09" /><rect x="250" y="233" width="51" height="17" fill="#160F09" /><rect x="63" y="250" width="102" height="17" fill="#160F09" /><rect x="182" y="250" width="51" height="17" fill="#160F09" /><rect x="63" y="267" width="68" height="17" fill="#160F09" /><rect x="182" y="267" width="17" height="17" fill="#160F09" /><rect x="284" y="267" width="34" height="17" fill="#160F09" /><rect x="63" y="284" width="68" height="17" fill="#160F09" /><rect x="148" y="284" width="187" height="17" fill="#160F09" /><rect x="369" y="284" width="51" height="17" fill="#160F09" /><rect x="63" y="301" width="68" height="17" fill="#160F09" /><rect x="148" y="301" width="272" height="17" fill="#160F09" /><rect x="63" y="318" width="17" height="17" fill="#160F09" /><rect x="148" y="318" width="170" height="17" fill="#160F09" /><rect x="335" y="318" width="34" height="17" fill="#160F09" /><rect x="114" y="335" width="204" height="17" fill="#160F09" /><rect x="335" y="335" width="34" height="17" fill="#160F09" /><rect x="386" y="335" width="17" height="17" fill="#160F09" /><rect x="63" y="352" width="102" height="17" fill="#160F09" /><rect x="182" y="352" width="34" height="17" fill="#160F09" /><rect x="267" y="352" width="51" height="17" fill="#160F09" /><rect x="386" y="352" width="34" height="17" fill="#160F09" /><rect x="63" y="369" width="102" height="17" fill="#160F09" /><rect x="182" y="369" width="17" height="17" fill="#160F09" /><rect x="386" y="369" width="34" height="17" fill="#160F09" /><rect x="63" y="386" width="102" height="17" fill="#160F09" /><rect x="352" y="386" width="17" height="17" fill="#160F09" /><rect x="63" y="403" width="255" height="17" fill="#160F09" /><rect x="335" y="403" width="85" height="17" fill="#160F09" /><rect x="63" y="420" width="255" height="17" fill="#160F09" /><rect x="335" y="420" width="85" height="17" fill="#160F09" /><rect x="420" y="284" width="17" height="17" fill="#FAAA00" /><rect x="352" y="267" width="17" height="17" fill="#00A29D" /><rect x="182" y="233" width="17" height="17" fill="#00A29D" /><rect x="216" y="216" width="17" height="17" fill="#FAAA00" /><rect x="233" y="165" width="17" height="17" fill="#FAAA00" /><rect x="318" y="131" width="17" height="17" fill="#FAAA00" /><rect x="250" y="114" width="17" height="17" fill="#00A29D" /></svg>