<svg xmlns="http://www.w3.org/2000/svg" preserveAspectRatio="xMinYMin meet" viewBox="0 0 500 500" shape-rendering="crispEdges" transform-origin="center"><rect width="100%" height="100%" fill="#F3D899" /><g transform="scale (5 5)"><rect x="27" y="-1" width="45" height="9" stroke-width="0.3" stroke="black" fill="#FFA800" /><text x="50" y="5.5" width="36" font-family="monospace" font-size="5" text-anchor="middle">Hidden Halls</text></g><rect x="88" y="88" width="54" height="27" fill="#160F09" /><rect x="169" y="88" width="243" height="27" fill="#160F09" /><rect x="88" y="115" width="189" height="27" fill="#160F09" /><rect x="358" y="115" width="54" height="27" fill="#160F09" /><rect x="88" y="142" width="243" height="27" fill="#160F09" /><rect x="358" y="142" width="54" height="27" fill="#160F09" /><rect x="88" y="169" width="216" height="27" fill="#160F09" /><rect x="358" y="169" width="54" height="27" fill="#160F09" /><rect x="88" y="196" width="216" height="27" fill="#160F09" /><rect x="331" y="196" width="81" height="27" fill="#160F09" /><rect x="88" y="223" width="216" height="27" fill="#160F09" /><rect x="331" y="223" width="81" height="27" fill="#160F09" /><rect x="88" y="250" width="216" height="27" fill="#160F09" /><rect x="331" y="250" width="81" height="27" fill="#160F09" /><rect x="88" y="277" width="0" height="27" fill="#160F09" /><rect x="115" y="277" width="189" height="27" fill="#160F09" /><rect x="358" y="277" width="54" height="27" fill="#160F09" /><rect x="88" y="304" width="189" height="27" fill="#160F09" /><rect x="304" y="304" width="27" height="27" fill="#160F09" /><rect x="88" y="331" width="135" height="27" fill="#160F09" /><rect x="358" y="331" width="27" height="27" fill="#160F09" /><rect x="88" y="358" width="135" height="27" fill="#160F09" /><rect x="250" y="358" width="81" height="27" fill="#160F09" /><rect x="385" y="358" width="27" height="27" fill="#160F09" /><rect x="88" y="385" width="135" height="27" fill="#160F09" /><rect x="250" y="385" width="81" height="27" fill="#160F09" /><rect x="385" y="385" width="27" height="27" fill="#160F09" /><rect x="385" y="331" width="27" height="27" fill="#FAAA00" /><rect x="304" y="250" width="27" height="27" fill="#00A29D" /></svg>