<svg xmlns="http://www.w3.org/2000/svg" preserveAspectRatio="xMinYMin meet" viewBox="0 0 500 500" shape-rendering="crispEdges" transform-origin="center"><rect width="100%" height="100%" fill="#2F590E" /><g transform="scale (5 5)"><rect x="11" y="-1" width="78" height="9" stroke-width="0.3" stroke="black" fill="#FFA800" /><text x="50" y="5.5" width="108" font-family="monospace" font-size="4" text-anchor="middle">Bleak Necropolis of the Leech</text></g><rect x="58" y="58" width="208" height="16" fill="#A98C00" /><rect x="282" y="58" width="160" height="16" fill="#A98C00" /><rect x="58" y="74" width="48" height="16" fill="#A98C00" /><rect x="186" y="74" width="64" height="16" fill="#A98C00" /><rect x="330" y="74" width="112" height="16" fill="#A98C00" /><rect x="58" y="90" width="16" height="16" fill="#A98C00" /><rect x="90" y="90" width="32" height="16" fill="#A98C00" /><rect x="186" y="90" width="80" height="16" fill="#A98C00" /><rect x="282" y="90" width="16" height="16" fill="#A98C00" /><rect x="346" y="90" width="96" height="16" fill="#A98C00" /><rect x="58" y="106" width="16" height="16" fill="#A98C00" /><rect x="90" y="106" width="16" height="16" fill="#A98C00" /><rect x="58" y="122" width="16" height="16" fill="#A98C00" /><rect x="90" y="122" width="32" height="16" fill="#A98C00" /><rect x="138" y="122" width="16" height="16" fill="#A98C00" /><rect x="202" y="122" width="80" height="16" fill="#A98C00" /><rect x="394" y="122" width="48" height="16" fill="#A98C00" /><rect x="58" y="138" width="48" height="16" fill="#A98C00" /><rect x="154" y="138" width="16" height="16" fill="#A98C00" /><rect x="202" y="138" width="80" height="16" fill="#A98C00" /><rect x="314" y="138" width="16" height="16" fill="#A98C00" /><rect x="346" y="138" width="16" height="16" fill="#A98C00" /><rect x="394" y="138" width="48" height="16" fill="#A98C00" /><rect x="58" y="154" width="48" height="16" fill="#A98C00" /><rect x="122" y="154" width="48" height="16" fill="#A98C00" /><rect x="202" y="154" width="96" height="16" fill="#A98C00" /><rect x="346" y="154" width="32" height="16" fill="#A98C00" /><rect x="394" y="154" width="16" height="16" fill="#A98C00" /><rect x="58" y="170" width="48" height="16" fill="#A98C00" /><rect x="122" y="170" width="32" height="16" fill="#A98C00" /><rect x="218" y="170" width="80" height="16" fill="#A98C00" /><rect x="426" y="170" width="16" height="16" fill="#A98C00" /><rect x="58" y="186" width="48" height="16" fill="#A98C00" /><rect x="138" y="186" width="32" height="16" fill="#A98C00" /><rect x="314" y="186" width="48" height="16" fill="#A98C00" /><rect x="378" y="186" width="64" height="16" fill="#A98C00" /><rect x="58" y="202" width="64" height="16" fill="#A98C00" /><rect x="138" y="202" width="32" height="16" fill="#A98C00" /><rect x="186" y="202" width="32" height="16" fill="#A98C00" /><rect x="234" y="202" width="32" height="16" fill="#A98C00" /><rect x="330" y="202" width="16" height="16" fill="#A98C00" /><rect x="378" y="202" width="64" height="16" fill="#A98C00" /><rect x="58" y="218" width="64" height="16" fill="#A98C00" /><rect x="138" y="218" width="32" height="16" fill="#A98C00" /><rect x="186" y="218" width="16" height="16" fill="#A98C00" /><rect x="234" y="218" width="32" height="16" fill="#A98C00" /><rect x="282" y="218" width="16" height="16" fill="#A98C00" /><rect x="330" y="218" width="112" height="16" fill="#A98C00" /><rect x="58" y="234" width="48" height="16" fill="#A98C00" /><rect x="186" y="234" width="16" height="16" fill="#A98C00" /><rect x="218" y="234" width="48" height="16" fill="#A98C00" /><rect x="282" y="234" width="32" height="16" fill="#A98C00" /><rect x="346" y="234" width="96" height="16" fill="#A98C00" /><rect x="58" y="250" width="96" height="16" fill="#A98C00" /><rect x="186" y="250" width="16" height="16" fill="#A98C00" /><rect x="218" y="250" width="48" height="16" fill="#A98C00" /><rect x="282" y="250" width="160" height="16" fill="#A98C00" /><rect x="58" y="266" width="112" height="16" fill="#A98C00" /><rect x="186" y="266" width="16" height="16" fill="#A98C00" /><rect x="234" y="266" width="32" height="16" fill="#A98C00" /><rect x="298" y="266" width="144" height="16" fill="#A98C00" /><rect x="58" y="282" width="80" height="16" fill="#A98C00" /><rect x="186" y="282" width="32" height="16" fill="#A98C00" /><rect x="266" y="282" width="176" height="16" fill="#A98C00" /><rect x="58" y="298" width="96" height="16" fill="#A98C00" /><rect x="170" y="298" width="80" height="16" fill="#A98C00" /><rect x="266" y="298" width="176" height="16" fill="#A98C00" /><rect x="58" y="314" width="96" height="16" fill="#A98C00" /><rect x="186" y="314" width="48" height="16" fill="#A98C00" /><rect x="266" y="314" width="176" height="16" fill="#A98C00" /><rect x="58" y="330" width="112" height="16" fill="#A98C00" /><rect x="186" y="330" width="32" height="16" fill="#A98C00" /><rect x="250" y="330" width="192" height="16" fill="#A98C00" /><rect x="58" y="346" width="112" height="16" fill="#A98C00" /><rect x="202" y="346" width="16" height="16" fill="#A98C00" /><rect x="250" y="346" width="192" height="16" fill="#A98C00" /><rect x="58" y="362" width="96" height="16" fill="#A98C00" /><rect x="202" y="362" width="32" height="16" fill="#A98C00" /><rect x="266" y="362" width="176" height="16" fill="#A98C00" /><rect x="58" y="378" width="96" height="16" fill="#A98C00" /><rect x="202" y="378" width="32" height="16" fill="#A98C00" /><rect x="266" y="378" width="176" height="16" fill="#A98C00" /><rect x="58" y="394" width="112" height="16" fill="#A98C00" /><rect x="218" y="394" width="16" height="16" fill="#A98C00" /><rect x="266" y="394" width="176" height="16" fill="#A98C00" /><rect x="58" y="410" width="176" height="16" fill="#A98C00" /><rect x="282" y="410" width="160" height="16" fill="#A98C00" /><rect x="58" y="426" width="384" height="16" fill="#A98C00" /><rect x="234" y="394" width="16" height="16" fill="#802F1A" /><rect x="250" y="314" width="16" height="16" fill="#802F1A" /><rect x="202" y="234" width="16" height="16" fill="#C55300" /><rect x="330" y="170" width="16" height="16" fill="#802F1A" /><rect x="282" y="138" width="16" height="16" fill="#C55300" /><rect x="186" y="138" width="16" height="16" fill="#802F1A" /><rect x="346" y="106" width="16" height="16" fill="#C55300" /><rect x="266" y="90" width="16" height="16" fill="#C55300" /><rect x="74" y="90" width="16" height="16" fill="#C55300" /><rect x="266" y="58" width="16" height="16" fill="#C55300" /></svg>