<svg xmlns="http://www.w3.org/2000/svg" preserveAspectRatio="xMinYMin meet" viewBox="0 0 500 500" shape-rendering="crispEdges" transform-origin="center"><rect width="100%" height="100%" fill="#36230F" /><g transform="scale (5 5)"><rect x="39" y="-1" width="21" height="9" stroke-width="0.3" stroke="black" fill="#FFA800" /><text x="50" y="5.5" width="12" font-family="monospace" font-size="5" text-anchor="middle">Lair</text></g><rect x="54" y="54" width="391" height="17" fill="#744936" /><rect x="54" y="71" width="34" height="17" fill="#744936" /><rect x="156" y="71" width="289" height="17" fill="#744936" /><rect x="54" y="88" width="34" height="17" fill="#744936" /><rect x="207" y="88" width="238" height="17" fill="#744936" /><rect x="54" y="105" width="68" height="17" fill="#744936" /><rect x="139" y="105" width="51" height="17" fill="#744936" /><rect x="207" y="105" width="238" height="17" fill="#744936" /><rect x="54" y="122" width="68" height="17" fill="#744936" /><rect x="139" y="122" width="51" height="17" fill="#744936" /><rect x="207" y="122" width="238" height="17" fill="#744936" /><rect x="54" y="139" width="68" height="17" fill="#744936" /><rect x="139" y="139" width="51" height="17" fill="#744936" /><rect x="207" y="139" width="238" height="17" fill="#744936" /><rect x="54" y="156" width="68" height="17" fill="#744936" /><rect x="139" y="156" width="51" height="17" fill="#744936" /><rect x="207" y="156" width="238" height="17" fill="#744936" /><rect x="54" y="173" width="17" height="17" fill="#744936" /><rect x="156" y="173" width="17" height="17" fill="#744936" /><rect x="207" y="173" width="238" height="17" fill="#744936" /><rect x="54" y="190" width="17" height="17" fill="#744936" /><rect x="156" y="190" width="17" height="17" fill="#744936" /><rect x="207" y="190" width="238" height="17" fill="#744936" /><rect x="54" y="207" width="34" height="17" fill="#744936" /><rect x="156" y="207" width="17" height="17" fill="#744936" /><rect x="207" y="207" width="238" height="17" fill="#744936" /><rect x="54" y="224" width="34" height="17" fill="#744936" /><rect x="156" y="224" width="17" height="17" fill="#744936" /><rect x="207" y="224" width="238" height="17" fill="#744936" /><rect x="54" y="241" width="17" height="17" fill="#744936" /><rect x="139" y="241" width="34" height="17" fill="#744936" /><rect x="207" y="241" width="238" height="17" fill="#744936" /><rect x="54" y="258" width="17" height="17" fill="#744936" /><rect x="258" y="258" width="17" height="17" fill="#744936" /><rect x="360" y="258" width="85" height="17" fill="#744936" /><rect x="54" y="275" width="17" height="17" fill="#744936" /><rect x="224" y="275" width="17" height="17" fill="#744936" /><rect x="258" y="275" width="17" height="17" fill="#744936" /><rect x="360" y="275" width="85" height="17" fill="#744936" /><rect x="54" y="292" width="17" height="17" fill="#744936" /><rect x="224" y="292" width="17" height="17" fill="#744936" /><rect x="258" y="292" width="17" height="17" fill="#744936" /><rect x="360" y="292" width="85" height="17" fill="#744936" /><rect x="54" y="309" width="17" height="17" fill="#744936" /><rect x="360" y="309" width="85" height="17" fill="#744936" /><rect x="54" y="326" width="17" height="17" fill="#744936" /><rect x="258" y="326" width="17" height="17" fill="#744936" /><rect x="360" y="326" width="85" height="17" fill="#744936" /><rect x="54" y="343" width="17" height="17" fill="#744936" /><rect x="258" y="343" width="17" height="17" fill="#744936" /><rect x="360" y="343" width="85" height="17" fill="#744936" /><rect x="54" y="360" width="17" height="17" fill="#744936" /><rect x="275" y="360" width="170" height="17" fill="#744936" /><rect x="54" y="377" width="51" height="17" fill="#744936" /><rect x="122" y="377" width="68" height="17" fill="#744936" /><rect x="275" y="377" width="17" height="17" fill="#744936" /><rect x="377" y="377" width="68" height="17" fill="#744936" /><rect x="54" y="394" width="51" height="17" fill="#744936" /><rect x="377" y="394" width="68" height="17" fill="#744936" /><rect x="54" y="411" width="391" height="17" fill="#744936" /><rect x="54" y="428" width="391" height="17" fill="#744936" /><rect x="241" y="394" width="17" height="17" fill="#FFA800" /><rect x="173" y="360" width="17" height="17" fill="#FFA800" /><rect x="207" y="343" width="17" height="17" fill="#FFA800" /><rect x="207" y="326" width="17" height="17" fill="#FFA800" /><rect x="71" y="275" width="17" height="17" fill="#FFA800" /></svg>