<svg xmlns="http://www.w3.org/2000/svg" preserveAspectRatio="xMinYMin meet" viewBox="0 0 500 500" shape-rendering="crispEdges" transform-origin="center"><rect width="100%" height="100%" fill="#2F590E" /><g transform="scale (5 5)"><rect x="21" y="-1" width="57" height="9" stroke-width="0.3" stroke="black" fill="#FFA800" /><text x="50" y="5.5" width="48" font-family="monospace" font-size="5" text-anchor="middle">Corrupted Canyon</text></g><rect x="61" y="61" width="378" height="18" fill="#A98C00" /><rect x="61" y="79" width="378" height="18" fill="#A98C00" /><rect x="61" y="97" width="378" height="18" fill="#A98C00" /><rect x="61" y="115" width="378" height="18" fill="#A98C00" /><rect x="61" y="133" width="378" height="18" fill="#A98C00" /><rect x="61" y="151" width="72" height="18" fill="#A98C00" /><rect x="151" y="151" width="198" height="18" fill="#A98C00" /><rect x="385" y="151" width="54" height="18" fill="#A98C00" /><rect x="61" y="169" width="18" height="18" fill="#A98C00" /><rect x="115" y="169" width="18" height="18" fill="#A98C00" /><rect x="151" y="169" width="216" height="18" fill="#A98C00" /><rect x="403" y="169" width="36" height="18" fill="#A98C00" /><rect x="61" y="187" width="18" height="18" fill="#A98C00" /><rect x="151" y="187" width="216" height="18" fill="#A98C00" /><rect x="403" y="187" width="36" height="18" fill="#A98C00" /><rect x="61" y="205" width="54" height="18" fill="#A98C00" /><rect x="133" y="205" width="234" height="18" fill="#A98C00" /><rect x="61" y="223" width="54" height="18" fill="#A98C00" /><rect x="151" y="223" width="270" height="18" fill="#A98C00" /><rect x="61" y="241" width="18" height="18" fill="#A98C00" /><rect x="97" y="241" width="36" height="18" fill="#A98C00" /><rect x="151" y="241" width="252" height="18" fill="#A98C00" /><rect x="61" y="259" width="18" height="18" fill="#A98C00" /><rect x="97" y="259" width="36" height="18" fill="#A98C00" /><rect x="169" y="259" width="144" height="18" fill="#A98C00" /><rect x="331" y="259" width="54" height="18" fill="#A98C00" /><rect x="421" y="259" width="18" height="18" fill="#A98C00" /><rect x="61" y="277" width="18" height="18" fill="#A98C00" /><rect x="97" y="277" width="54" height="18" fill="#A98C00" /><rect x="169" y="277" width="144" height="18" fill="#A98C00" /><rect x="403" y="277" width="36" height="18" fill="#A98C00" /><rect x="61" y="295" width="90" height="18" fill="#A98C00" /><rect x="169" y="295" width="144" height="18" fill="#A98C00" /><rect x="349" y="295" width="90" height="18" fill="#A98C00" /><rect x="61" y="313" width="90" height="18" fill="#A98C00" /><rect x="169" y="313" width="144" height="18" fill="#A98C00" /><rect x="385" y="313" width="54" height="18" fill="#A98C00" /><rect x="61" y="331" width="54" height="18" fill="#A98C00" /><rect x="169" y="331" width="162" height="18" fill="#A98C00" /><rect x="367" y="331" width="72" height="18" fill="#A98C00" /><rect x="61" y="349" width="54" height="18" fill="#A98C00" /><rect x="133" y="349" width="162" height="18" fill="#A98C00" /><rect x="367" y="349" width="72" height="18" fill="#A98C00" /><rect x="61" y="367" width="54" height="18" fill="#A98C00" /><rect x="169" y="367" width="90" height="18" fill="#A98C00" /><rect x="367" y="367" width="72" height="18" fill="#A98C00" /><rect x="61" y="385" width="54" height="18" fill="#A98C00" /><rect x="151" y="385" width="126" height="18" fill="#A98C00" /><rect x="295" y="385" width="18" height="18" fill="#A98C00" /><rect x="403" y="385" width="36" height="18" fill="#A98C00" /><rect x="61" y="403" width="36" height="18" fill="#A98C00" /><rect x="151" y="403" width="126" height="18" fill="#A98C00" /><rect x="367" y="403" width="18" height="18" fill="#A98C00" /><rect x="421" y="403" width="18" height="18" fill="#A98C00" /><rect x="61" y="421" width="36" height="18" fill="#A98C00" /><rect x="169" y="421" width="126" height="18" fill="#A98C00" /><rect x="331" y="403" width="18" height="18" fill="#802F1A" /><rect x="115" y="403" width="18" height="18" fill="#802F1A" /></svg>