<svg xmlns="http://www.w3.org/2000/svg" preserveAspectRatio="xMinYMin meet" viewBox="0 0 500 500" shape-rendering="crispEdges" transform-origin="center"><rect width="100%" height="100%" fill="#F3D899" /><g transform="scale (5 5)"><rect x="36" y="-1" width="27" height="9" stroke-width="0.3" stroke="black" fill="#FFA800" /><text x="50" y="5.5" width="18" font-family="monospace" font-size="5" text-anchor="middle">Shrine</text></g><rect x="90" y="90" width="319" height="29" fill="#160F09" /><rect x="90" y="119" width="58" height="29" fill="#160F09" /><rect x="177" y="119" width="232" height="29" fill="#160F09" /><rect x="90" y="148" width="58" height="29" fill="#160F09" /><rect x="177" y="148" width="232" height="29" fill="#160F09" /><rect x="90" y="177" width="174" height="29" fill="#160F09" /><rect x="90" y="206" width="261" height="29" fill="#160F09" /><rect x="90" y="235" width="319" height="29" fill="#160F09" /><rect x="90" y="264" width="319" height="29" fill="#160F09" /><rect x="90" y="293" width="319" height="29" fill="#160F09" /><rect x="90" y="322" width="319" height="29" fill="#160F09" /><rect x="90" y="351" width="232" height="29" fill="#160F09" /><rect x="351" y="351" width="58" height="29" fill="#160F09" /><rect x="90" y="380" width="58" height="29" fill="#160F09" /><rect x="177" y="380" width="145" height="29" fill="#160F09" /><rect x="351" y="380" width="58" height="29" fill="#160F09" /><rect x="148" y="148" width="29" height="29" fill="#00A29D" /></svg>