<svg xmlns="http://www.w3.org/2000/svg" preserveAspectRatio="xMinYMin meet" viewBox="0 0 500 500" shape-rendering="crispEdges" transform-origin="center"><rect width="100%" height="100%" fill="#2F590E" /><g transform="scale (5 5)"><rect x="26" y="-1" width="48" height="9" stroke-width="0.3" stroke="black" fill="#FFA800" /><text x="50" y="5.5" width="39" font-family="monospace" font-size="5" text-anchor="middle">Decrepid Scar</text></g><rect x="60" y="60" width="380" height="19" fill="#A98C00" /><rect x="60" y="79" width="380" height="19" fill="#A98C00" /><rect x="60" y="98" width="285" height="19" fill="#A98C00" /><rect x="421" y="98" width="19" height="19" fill="#A98C00" /><rect x="60" y="117" width="266" height="19" fill="#A98C00" /><rect x="364" y="117" width="76" height="19" fill="#A98C00" /><rect x="60" y="136" width="266" height="19" fill="#A98C00" /><rect x="364" y="136" width="76" height="19" fill="#A98C00" /><rect x="60" y="155" width="171" height="19" fill="#A98C00" /><rect x="250" y="155" width="95" height="19" fill="#A98C00" /><rect x="364" y="155" width="76" height="19" fill="#A98C00" /><rect x="60" y="174" width="133" height="19" fill="#A98C00" /><rect x="250" y="174" width="95" height="19" fill="#A98C00" /><rect x="364" y="174" width="76" height="19" fill="#A98C00" /><rect x="60" y="193" width="114" height="19" fill="#A98C00" /><rect x="212" y="193" width="114" height="19" fill="#A98C00" /><rect x="364" y="193" width="76" height="19" fill="#A98C00" /><rect x="60" y="212" width="114" height="19" fill="#A98C00" /><rect x="193" y="212" width="133" height="19" fill="#A98C00" /><rect x="383" y="212" width="57" height="19" fill="#A98C00" /><rect x="60" y="231" width="95" height="19" fill="#A98C00" /><rect x="193" y="231" width="171" height="19" fill="#A98C00" /><rect x="383" y="231" width="57" height="19" fill="#A98C00" /><rect x="60" y="250" width="95" height="19" fill="#A98C00" /><rect x="193" y="250" width="171" height="19" fill="#A98C00" /><rect x="60" y="269" width="57" height="19" fill="#A98C00" /><rect x="193" y="269" width="171" height="19" fill="#A98C00" /><rect x="383" y="269" width="57" height="19" fill="#A98C00" /><rect x="60" y="288" width="57" height="19" fill="#A98C00" /><rect x="193" y="288" width="171" height="19" fill="#A98C00" /><rect x="402" y="288" width="38" height="19" fill="#A98C00" /><rect x="60" y="307" width="38" height="19" fill="#A98C00" /><rect x="155" y="307" width="228" height="19" fill="#A98C00" /><rect x="402" y="307" width="38" height="19" fill="#A98C00" /><rect x="60" y="326" width="38" height="19" fill="#A98C00" /><rect x="155" y="326" width="38" height="19" fill="#A98C00" /><rect x="269" y="326" width="95" height="19" fill="#A98C00" /><rect x="402" y="326" width="38" height="19" fill="#A98C00" /><rect x="60" y="345" width="19" height="19" fill="#A98C00" /><rect x="136" y="345" width="114" height="19" fill="#A98C00" /><rect x="307" y="345" width="38" height="19" fill="#A98C00" /><rect x="60" y="364" width="19" height="19" fill="#A98C00" /><rect x="98" y="364" width="19" height="19" fill="#A98C00" /><rect x="155" y="364" width="57" height="19" fill="#A98C00" /><rect x="307" y="364" width="38" height="19" fill="#A98C00" /><rect x="364" y="364" width="19" height="19" fill="#A98C00" /><rect x="60" y="383" width="19" height="19" fill="#A98C00" /><rect x="117" y="383" width="19" height="19" fill="#A98C00" /><rect x="155" y="383" width="57" height="19" fill="#A98C00" /><rect x="231" y="383" width="57" height="19" fill="#A98C00" /><rect x="307" y="383" width="38" height="19" fill="#A98C00" /><rect x="402" y="383" width="38" height="19" fill="#A98C00" /><rect x="60" y="402" width="76" height="19" fill="#A98C00" /><rect x="155" y="402" width="57" height="19" fill="#A98C00" /><rect x="250" y="402" width="19" height="19" fill="#A98C00" /><rect x="307" y="402" width="38" height="19" fill="#A98C00" /><rect x="421" y="402" width="19" height="19" fill="#A98C00" /><rect x="60" y="421" width="76" height="19" fill="#A98C00" /><rect x="155" y="421" width="19" height="19" fill="#A98C00" /><rect x="193" y="421" width="38" height="19" fill="#A98C00" /><rect x="364" y="421" width="19" height="19" fill="#A98C00" /><rect x="421" y="421" width="19" height="19" fill="#A98C00" /><rect x="383" y="421" width="19" height="19" fill="#C55300" /><rect x="117" y="364" width="19" height="19" fill="#C55300" /><rect x="117" y="269" width="19" height="19" fill="#802F1A" /><rect x="364" y="231" width="19" height="19" fill="#C55300" /></svg>