<svg xmlns="http://www.w3.org/2000/svg" preserveAspectRatio="xMinYMin meet" viewBox="0 0 500 500" shape-rendering="crispEdges" transform-origin="center"><rect width="100%" height="100%" fill="#F3D899" /><g transform="scale (5 5)"><rect x="14" y="-1" width="72" height="9" stroke-width="0.3" stroke="black" fill="#FFA800" /><text x="50" y="5.5" width="63" font-family="monospace" font-size="5" text-anchor="middle">Landing of Brilliance</text></g><rect x="77" y="77" width="230" height="23" fill="#160F09" /><rect x="330" y="77" width="92" height="23" fill="#160F09" /><rect x="77" y="100" width="276" height="23" fill="#160F09" /><rect x="77" y="123" width="184" height="23" fill="#160F09" /><rect x="399" y="123" width="23" height="23" fill="#160F09" /><rect x="77" y="146" width="115" height="23" fill="#160F09" /><rect x="215" y="146" width="115" height="23" fill="#160F09" /><rect x="77" y="169" width="115" height="23" fill="#160F09" /><rect x="261" y="169" width="69" height="23" fill="#160F09" /><rect x="376" y="169" width="23" height="23" fill="#160F09" /><rect x="215" y="192" width="23" height="23" fill="#160F09" /><rect x="261" y="192" width="23" height="23" fill="#160F09" /><rect x="77" y="215" width="161" height="23" fill="#160F09" /><rect x="261" y="215" width="23" height="23" fill="#160F09" /><rect x="307" y="215" width="115" height="23" fill="#160F09" /><rect x="77" y="238" width="46" height="23" fill="#160F09" /><rect x="307" y="238" width="115" height="23" fill="#160F09" /><rect x="77" y="261" width="138" height="23" fill="#160F09" /><rect x="376" y="261" width="46" height="23" fill="#160F09" /><rect x="77" y="284" width="0" height="23" fill="#160F09" /><rect x="123" y="284" width="138" height="23" fill="#160F09" /><rect x="284" y="284" width="69" height="23" fill="#160F09" /><rect x="376" y="284" width="46" height="23" fill="#160F09" /><rect x="77" y="307" width="23" height="23" fill="#160F09" /><rect x="123" y="307" width="230" height="23" fill="#160F09" /><rect x="376" y="307" width="46" height="23" fill="#160F09" /><rect x="77" y="330" width="23" height="23" fill="#160F09" /><rect x="192" y="330" width="138" height="23" fill="#160F09" /><rect x="376" y="330" width="46" height="23" fill="#160F09" /><rect x="77" y="353" width="92" height="23" fill="#160F09" /><rect x="399" y="353" width="23" height="23" fill="#160F09" /><rect x="77" y="376" width="207" height="23" fill="#160F09" /><rect x="307" y="376" width="23" height="23" fill="#160F09" /><rect x="77" y="399" width="207" height="23" fill="#160F09" /><rect x="307" y="399" width="69" height="23" fill="#160F09" /><rect x="238" y="238" width="23" height="23" fill="#FAAA00" /><rect x="238" y="215" width="23" height="23" fill="#00A29D" /><rect x="399" y="146" width="23" height="23" fill="#00A29D" /></svg>