<svg xmlns="http://www.w3.org/2000/svg" preserveAspectRatio="xMinYMin meet" viewBox="0 0 500 500" shape-rendering="crispEdges" transform-origin="center"><rect width="100%" height="100%" fill="#2F590E" /><g transform="scale (5 5)"><rect x="35" y="-1" width="30" height="9" stroke-width="0.3" stroke="black" fill="#FFA800" /><text x="50" y="5.5" width="21" font-family="monospace" font-size="5" text-anchor="middle">Steppes</text></g><rect x="58" y="58" width="208" height="16" fill="#A98C00" /><rect x="282" y="58" width="160" height="16" fill="#A98C00" /><rect x="58" y="74" width="48" height="16" fill="#A98C00" /><rect x="122" y="74" width="32" height="16" fill="#A98C00" /><rect x="170" y="74" width="64" height="16" fill="#A98C00" /><rect x="250" y="74" width="96" height="16" fill="#A98C00" /><rect x="58" y="90" width="48" height="16" fill="#A98C00" /><rect x="138" y="90" width="16" height="16" fill="#A98C00" /><rect x="186" y="90" width="48" height="16" fill="#A98C00" /><rect x="266" y="90" width="80" height="16" fill="#A98C00" /><rect x="58" y="106" width="48" height="16" fill="#A98C00" /><rect x="138" y="106" width="32" height="16" fill="#A98C00" /><rect x="202" y="106" width="48" height="16" fill="#A98C00" /><rect x="266" y="106" width="16" height="16" fill="#A98C00" /><rect x="58" y="122" width="32" height="16" fill="#A98C00" /><rect x="138" y="122" width="48" height="16" fill="#A98C00" /><rect x="202" y="122" width="48" height="16" fill="#A98C00" /><rect x="378" y="122" width="64" height="16" fill="#A98C00" /><rect x="58" y="138" width="48" height="16" fill="#A98C00" /><rect x="138" y="138" width="48" height="16" fill="#A98C00" /><rect x="202" y="138" width="80" height="16" fill="#A98C00" /><rect x="378" y="138" width="64" height="16" fill="#A98C00" /><rect x="58" y="154" width="48" height="16" fill="#A98C00" /><rect x="122" y="154" width="64" height="16" fill="#A98C00" /><rect x="250" y="154" width="48" height="16" fill="#A98C00" /><rect x="378" y="154" width="64" height="16" fill="#A98C00" /><rect x="58" y="170" width="48" height="16" fill="#A98C00" /><rect x="138" y="170" width="80" height="16" fill="#A98C00" /><rect x="250" y="170" width="48" height="16" fill="#A98C00" /><rect x="394" y="170" width="48" height="16" fill="#A98C00" /><rect x="58" y="186" width="64" height="16" fill="#A98C00" /><rect x="138" y="186" width="80" height="16" fill="#A98C00" /><rect x="234" y="186" width="80" height="16" fill="#A98C00" /><rect x="378" y="186" width="64" height="16" fill="#A98C00" /><rect x="58" y="202" width="64" height="16" fill="#A98C00" /><rect x="138" y="202" width="80" height="16" fill="#A98C00" /><rect x="234" y="202" width="80" height="16" fill="#A98C00" /><rect x="362" y="202" width="80" height="16" fill="#A98C00" /><rect x="58" y="218" width="32" height="16" fill="#A98C00" /><rect x="138" y="218" width="80" height="16" fill="#A98C00" /><rect x="250" y="218" width="32" height="16" fill="#A98C00" /><rect x="362" y="218" width="80" height="16" fill="#A98C00" /><rect x="58" y="234" width="32" height="16" fill="#A98C00" /><rect x="106" y="234" width="112" height="16" fill="#A98C00" /><rect x="250" y="234" width="32" height="16" fill="#A98C00" /><rect x="330" y="234" width="16" height="16" fill="#A98C00" /><rect x="362" y="234" width="80" height="16" fill="#A98C00" /><rect x="58" y="250" width="32" height="16" fill="#A98C00" /><rect x="122" y="250" width="96" height="16" fill="#A98C00" /><rect x="282" y="250" width="16" height="16" fill="#A98C00" /><rect x="330" y="250" width="16" height="16" fill="#A98C00" /><rect x="362" y="250" width="80" height="16" fill="#A98C00" /><rect x="58" y="266" width="192" height="16" fill="#A98C00" /><rect x="362" y="266" width="80" height="16" fill="#A98C00" /><rect x="58" y="282" width="208" height="16" fill="#A98C00" /><rect x="282" y="282" width="16" height="16" fill="#A98C00" /><rect x="378" y="282" width="32" height="16" fill="#A98C00" /><rect x="58" y="298" width="208" height="16" fill="#A98C00" /><rect x="378" y="298" width="16" height="16" fill="#A98C00" /><rect x="426" y="298" width="16" height="16" fill="#A98C00" /><rect x="58" y="314" width="224" height="16" fill="#A98C00" /><rect x="378" y="314" width="16" height="16" fill="#A98C00" /><rect x="410" y="314" width="32" height="16" fill="#A98C00" /><rect x="58" y="330" width="224" height="16" fill="#A98C00" /><rect x="298" y="330" width="48" height="16" fill="#A98C00" /><rect x="378" y="330" width="16" height="16" fill="#A98C00" /><rect x="426" y="330" width="16" height="16" fill="#A98C00" /><rect x="58" y="346" width="224" height="16" fill="#A98C00" /><rect x="314" y="346" width="48" height="16" fill="#A98C00" /><rect x="378" y="346" width="32" height="16" fill="#A98C00" /><rect x="426" y="346" width="16" height="16" fill="#A98C00" /><rect x="58" y="362" width="240" height="16" fill="#A98C00" /><rect x="314" y="362" width="48" height="16" fill="#A98C00" /><rect x="426" y="362" width="16" height="16" fill="#A98C00" /><rect x="58" y="378" width="240" height="16" fill="#A98C00" /><rect x="314" y="378" width="48" height="16" fill="#A98C00" /><rect x="58" y="394" width="224" height="16" fill="#A98C00" /><rect x="314" y="394" width="48" height="16" fill="#A98C00" /><rect x="378" y="394" width="16" height="16" fill="#A98C00" /><rect x="58" y="410" width="304" height="16" fill="#A98C00" /><rect x="410" y="410" width="32" height="16" fill="#A98C00" /><rect x="58" y="426" width="384" height="16" fill="#A98C00" /><rect x="330" y="282" width="16" height="16" fill="#C55300" /><rect x="266" y="266" width="16" height="16" fill="#C55300" /><rect x="362" y="154" width="16" height="16" fill="#C55300" /><rect x="186" y="154" width="16" height="16" fill="#C55300" /><rect x="122" y="106" width="16" height="16" fill="#802F1A" /><rect x="410" y="90" width="16" height="16" fill="#C55300" /></svg>