<svg xmlns="http://www.w3.org/2000/svg" preserveAspectRatio="xMinYMin meet" viewBox="0 0 500 500" shape-rendering="crispEdges" transform-origin="center"><rect width="100%" height="100%" fill="#2F590E" /><g transform="scale (5 5)"><rect x="18" y="-1" width="63" height="9" stroke-width="0.3" stroke="black" fill="#FFA800" /><text x="50" y="5.5" width="54" font-family="monospace" font-size="5" text-anchor="middle">Canyon of the Tear</text></g><rect x="63" y="63" width="221" height="17" fill="#A98C00" /><rect x="301" y="63" width="17" height="17" fill="#A98C00" /><rect x="335" y="63" width="102" height="17" fill="#A98C00" /><rect x="63" y="80" width="51" height="17" fill="#A98C00" /><rect x="233" y="80" width="34" height="17" fill="#A98C00" /><rect x="335" y="80" width="102" height="17" fill="#A98C00" /><rect x="63" y="97" width="51" height="17" fill="#A98C00" /><rect x="284" y="97" width="17" height="17" fill="#A98C00" /><rect x="335" y="97" width="85" height="17" fill="#A98C00" /><rect x="63" y="114" width="68" height="17" fill="#A98C00" /><rect x="148" y="114" width="34" height="17" fill="#A98C00" /><rect x="335" y="114" width="85" height="17" fill="#A98C00" /><rect x="63" y="131" width="68" height="17" fill="#A98C00" /><rect x="148" y="131" width="34" height="17" fill="#A98C00" /><rect x="250" y="131" width="17" height="17" fill="#A98C00" /><rect x="301" y="131" width="17" height="17" fill="#A98C00" /><rect x="352" y="131" width="51" height="17" fill="#A98C00" /><rect x="63" y="148" width="68" height="17" fill="#A98C00" /><rect x="216" y="148" width="17" height="17" fill="#A98C00" /><rect x="301" y="148" width="17" height="17" fill="#A98C00" /><rect x="352" y="148" width="51" height="17" fill="#A98C00" /><rect x="420" y="148" width="17" height="17" fill="#A98C00" /><rect x="63" y="165" width="68" height="17" fill="#A98C00" /><rect x="199" y="165" width="34" height="17" fill="#A98C00" /><rect x="267" y="165" width="17" height="17" fill="#A98C00" /><rect x="301" y="165" width="17" height="17" fill="#A98C00" /><rect x="352" y="165" width="51" height="17" fill="#A98C00" /><rect x="63" y="182" width="68" height="17" fill="#A98C00" /><rect x="199" y="182" width="51" height="17" fill="#A98C00" /><rect x="267" y="182" width="17" height="17" fill="#A98C00" /><rect x="301" y="182" width="17" height="17" fill="#A98C00" /><rect x="335" y="182" width="85" height="17" fill="#A98C00" /><rect x="63" y="199" width="68" height="17" fill="#A98C00" /><rect x="182" y="199" width="68" height="17" fill="#A98C00" /><rect x="267" y="199" width="17" height="17" fill="#A98C00" /><rect x="352" y="199" width="51" height="17" fill="#A98C00" /><rect x="63" y="216" width="102" height="17" fill="#A98C00" /><rect x="182" y="216" width="68" height="17" fill="#A98C00" /><rect x="284" y="216" width="17" height="17" fill="#A98C00" /><rect x="352" y="216" width="51" height="17" fill="#A98C00" /><rect x="420" y="216" width="17" height="17" fill="#A98C00" /><rect x="63" y="233" width="102" height="17" fill="#A98C00" /><rect x="182" y="233" width="68" height="17" fill="#A98C00" /><rect x="267" y="233" width="51" height="17" fill="#A98C00" /><rect x="352" y="233" width="85" height="17" fill="#A98C00" /><rect x="63" y="250" width="102" height="17" fill="#A98C00" /><rect x="199" y="250" width="51" height="17" fill="#A98C00" /><rect x="267" y="250" width="51" height="17" fill="#A98C00" /><rect x="352" y="250" width="85" height="17" fill="#A98C00" /><rect x="63" y="267" width="119" height="17" fill="#A98C00" /><rect x="216" y="267" width="17" height="17" fill="#A98C00" /><rect x="267" y="267" width="51" height="17" fill="#A98C00" /><rect x="369" y="267" width="68" height="17" fill="#A98C00" /><rect x="63" y="284" width="153" height="17" fill="#A98C00" /><rect x="250" y="284" width="34" height="17" fill="#A98C00" /><rect x="369" y="284" width="68" height="17" fill="#A98C00" /><rect x="63" y="301" width="102" height="17" fill="#A98C00" /><rect x="250" y="301" width="34" height="17" fill="#A98C00" /><rect x="301" y="301" width="34" height="17" fill="#A98C00" /><rect x="352" y="301" width="85" height="17" fill="#A98C00" /><rect x="63" y="318" width="119" height="17" fill="#A98C00" /><rect x="199" y="318" width="85" height="17" fill="#A98C00" /><rect x="301" y="318" width="34" height="17" fill="#A98C00" /><rect x="352" y="318" width="68" height="17" fill="#A98C00" /><rect x="63" y="335" width="119" height="17" fill="#A98C00" /><rect x="199" y="335" width="85" height="17" fill="#A98C00" /><rect x="301" y="335" width="34" height="17" fill="#A98C00" /><rect x="352" y="335" width="85" height="17" fill="#A98C00" /><rect x="63" y="352" width="119" height="17" fill="#A98C00" /><rect x="216" y="352" width="51" height="17" fill="#A98C00" /><rect x="301" y="352" width="34" height="17" fill="#A98C00" /><rect x="352" y="352" width="85" height="17" fill="#A98C00" /><rect x="63" y="369" width="136" height="17" fill="#A98C00" /><rect x="233" y="369" width="34" height="17" fill="#A98C00" /><rect x="284" y="369" width="153" height="17" fill="#A98C00" /><rect x="63" y="386" width="136" height="17" fill="#A98C00" /><rect x="233" y="386" width="204" height="17" fill="#A98C00" /><rect x="63" y="403" width="136" height="17" fill="#A98C00" /><rect x="216" y="403" width="221" height="17" fill="#A98C00" /><rect x="63" y="420" width="119" height="17" fill="#A98C00" /><rect x="233" y="420" width="204" height="17" fill="#A98C00" /><rect x="284" y="301" width="17" height="17" fill="#C55300" /><rect x="301" y="284" width="17" height="17" fill="#802F1A" /><rect x="250" y="216" width="17" height="17" fill="#802F1A" /><rect x="148" y="182" width="17" height="17" fill="#802F1A" /><rect x="267" y="97" width="17" height="17" fill="#C55300" /></svg>