<svg xmlns="http://www.w3.org/2000/svg" preserveAspectRatio="xMinYMin meet" viewBox="0 0 500 500" shape-rendering="crispEdges" transform-origin="center"><rect width="100%" height="100%" fill="#F3D899" /><g transform="scale (5 5)"><rect x="8" y="-1" width="84" height="9" stroke-width="0.3" stroke="black" fill="#FFA800" /><text x="50" y="5.5" width="75" font-family="monospace" font-size="5" text-anchor="middle">Morbid Necropolis of Mire</text></g><rect x="54" y="54" width="102" height="17" fill="#160F09" /><rect x="173" y="54" width="272" height="17" fill="#160F09" /><rect x="54" y="71" width="34" height="17" fill="#160F09" /><rect x="105" y="71" width="68" height="17" fill="#160F09" /><rect x="224" y="71" width="34" height="17" fill="#160F09" /><rect x="394" y="71" width="51" height="17" fill="#160F09" /><rect x="54" y="88" width="34" height="17" fill="#160F09" /><rect x="122" y="88" width="51" height="17" fill="#160F09" /><rect x="190" y="88" width="85" height="17" fill="#160F09" /><rect x="360" y="88" width="51" height="17" fill="#160F09" /><rect x="54" y="105" width="17" height="17" fill="#160F09" /><rect x="122" y="105" width="51" height="17" fill="#160F09" /><rect x="190" y="105" width="119" height="17" fill="#160F09" /><rect x="343" y="105" width="68" height="17" fill="#160F09" /><rect x="54" y="122" width="17" height="17" fill="#160F09" /><rect x="122" y="122" width="51" height="17" fill="#160F09" /><rect x="190" y="122" width="119" height="17" fill="#160F09" /><rect x="343" y="122" width="68" height="17" fill="#160F09" /><rect x="428" y="122" width="17" height="17" fill="#160F09" /><rect x="54" y="139" width="34" height="17" fill="#160F09" /><rect x="122" y="139" width="34" height="17" fill="#160F09" /><rect x="190" y="139" width="102" height="17" fill="#160F09" /><rect x="360" y="139" width="51" height="17" fill="#160F09" /><rect x="54" y="156" width="51" height="17" fill="#160F09" /><rect x="173" y="156" width="119" height="17" fill="#160F09" /><rect x="343" y="156" width="68" height="17" fill="#160F09" /><rect x="54" y="173" width="68" height="17" fill="#160F09" /><rect x="139" y="173" width="17" height="17" fill="#160F09" /><rect x="190" y="173" width="102" height="17" fill="#160F09" /><rect x="326" y="173" width="85" height="17" fill="#160F09" /><rect x="428" y="173" width="17" height="17" fill="#160F09" /><rect x="54" y="190" width="68" height="17" fill="#160F09" /><rect x="156" y="190" width="119" height="17" fill="#160F09" /><rect x="326" y="190" width="85" height="17" fill="#160F09" /><rect x="54" y="207" width="85" height="17" fill="#160F09" /><rect x="54" y="224" width="85" height="17" fill="#160F09" /><rect x="207" y="224" width="51" height="17" fill="#160F09" /><rect x="292" y="224" width="17" height="17" fill="#160F09" /><rect x="326" y="224" width="85" height="17" fill="#160F09" /><rect x="54" y="241" width="17" height="17" fill="#160F09" /><rect x="105" y="241" width="68" height="17" fill="#160F09" /><rect x="207" y="241" width="51" height="17" fill="#160F09" /><rect x="326" y="241" width="51" height="17" fill="#160F09" /><rect x="54" y="258" width="119" height="17" fill="#160F09" /><rect x="292" y="258" width="17" height="17" fill="#160F09" /><rect x="326" y="258" width="34" height="17" fill="#160F09" /><rect x="394" y="258" width="51" height="17" fill="#160F09" /><rect x="54" y="275" width="119" height="17" fill="#160F09" /><rect x="343" y="275" width="34" height="17" fill="#160F09" /><rect x="428" y="275" width="17" height="17" fill="#160F09" /><rect x="54" y="292" width="119" height="17" fill="#160F09" /><rect x="190" y="292" width="17" height="17" fill="#160F09" /><rect x="360" y="292" width="51" height="17" fill="#160F09" /><rect x="428" y="292" width="17" height="17" fill="#160F09" /><rect x="54" y="309" width="119" height="17" fill="#160F09" /><rect x="190" y="309" width="17" height="17" fill="#160F09" /><rect x="275" y="309" width="68" height="17" fill="#160F09" /><rect x="360" y="309" width="85" height="17" fill="#160F09" /><rect x="54" y="326" width="119" height="17" fill="#160F09" /><rect x="190" y="326" width="68" height="17" fill="#160F09" /><rect x="292" y="326" width="51" height="17" fill="#160F09" /><rect x="377" y="326" width="68" height="17" fill="#160F09" /><rect x="54" y="343" width="119" height="17" fill="#160F09" /><rect x="190" y="343" width="51" height="17" fill="#160F09" /><rect x="309" y="343" width="51" height="17" fill="#160F09" /><rect x="377" y="343" width="68" height="17" fill="#160F09" /><rect x="54" y="360" width="187" height="17" fill="#160F09" /><rect x="275" y="360" width="17" height="17" fill="#160F09" /><rect x="309" y="360" width="34" height="17" fill="#160F09" /><rect x="377" y="360" width="68" height="17" fill="#160F09" /><rect x="54" y="377" width="204" height="17" fill="#160F09" /><rect x="275" y="377" width="68" height="17" fill="#160F09" /><rect x="360" y="377" width="85" height="17" fill="#160F09" /><rect x="54" y="394" width="204" height="17" fill="#160F09" /><rect x="275" y="394" width="170" height="17" fill="#160F09" /><rect x="54" y="411" width="391" height="17" fill="#160F09" /><rect x="54" y="428" width="391" height="17" fill="#160F09" /><rect x="258" y="394" width="17" height="17" fill="#00A29D" /><rect x="360" y="360" width="17" height="17" fill="#FAAA00" /><rect x="309" y="275" width="17" height="17" fill="#00A29D" /><rect x="173" y="241" width="17" height="17" fill="#FAAA00" /><rect x="309" y="207" width="17" height="17" fill="#00A29D" /><rect x="292" y="190" width="17" height="17" fill="#00A29D" /><rect x="411" y="173" width="17" height="17" fill="#FAAA00" /><rect x="309" y="173" width="17" height="17" fill="#00A29D" /><rect x="411" y="156" width="17" height="17" fill="#00A29D" /><rect x="309" y="105" width="17" height="17" fill="#FAAA00" /><rect x="275" y="71" width="17" height="17" fill="#00A29D" /></svg>