<svg xmlns="http://www.w3.org/2000/svg" preserveAspectRatio="xMinYMin meet" viewBox="0 0 500 500" shape-rendering="crispEdges" transform-origin="center"><rect width="100%" height="100%" fill="#006669" /><g transform="scale (5 5)"><rect x="17" y="-1" width="66" height="9" stroke-width="0.3" stroke="black" fill="#FFA800" /><text x="50" y="5.5" width="57" font-family="monospace" font-size="5" text-anchor="middle">Corrupted Waterfall</text></g><rect x="60" y="60" width="380" height="19" fill="#004238" /><rect x="60" y="79" width="380" height="19" fill="#004238" /><rect x="60" y="98" width="380" height="19" fill="#004238" /><rect x="60" y="117" width="380" height="19" fill="#004238" /><rect x="60" y="136" width="380" height="19" fill="#004238" /><rect x="60" y="155" width="380" height="19" fill="#004238" /><rect x="60" y="174" width="380" height="19" fill="#004238" /><rect x="60" y="193" width="57" height="19" fill="#004238" /><rect x="193" y="193" width="95" height="19" fill="#004238" /><rect x="326" y="193" width="114" height="19" fill="#004238" /><rect x="60" y="212" width="57" height="19" fill="#004238" /><rect x="326" y="212" width="114" height="19" fill="#004238" /><rect x="60" y="231" width="57" height="19" fill="#004238" /><rect x="345" y="231" width="95" height="19" fill="#004238" /><rect x="60" y="250" width="95" height="19" fill="#004238" /><rect x="212" y="250" width="95" height="19" fill="#004238" /><rect x="383" y="250" width="57" height="19" fill="#004238" /><rect x="60" y="269" width="95" height="19" fill="#004238" /><rect x="383" y="269" width="57" height="19" fill="#004238" /><rect x="60" y="288" width="95" height="19" fill="#004238" /><rect x="383" y="288" width="57" height="19" fill="#004238" /><rect x="60" y="307" width="76" height="19" fill="#004238" /><rect x="250" y="307" width="19" height="19" fill="#004238" /><rect x="288" y="307" width="38" height="19" fill="#004238" /><rect x="383" y="307" width="57" height="19" fill="#004238" /><rect x="60" y="326" width="57" height="19" fill="#004238" /><rect x="250" y="326" width="19" height="19" fill="#004238" /><rect x="288" y="326" width="38" height="19" fill="#004238" /><rect x="345" y="326" width="95" height="19" fill="#004238" /><rect x="60" y="345" width="57" height="19" fill="#004238" /><rect x="174" y="345" width="95" height="19" fill="#004238" /><rect x="288" y="345" width="19" height="19" fill="#004238" /><rect x="345" y="345" width="95" height="19" fill="#004238" /><rect x="60" y="364" width="57" height="19" fill="#004238" /><rect x="174" y="364" width="95" height="19" fill="#004238" /><rect x="345" y="364" width="95" height="19" fill="#004238" /><rect x="60" y="383" width="57" height="19" fill="#004238" /><rect x="174" y="383" width="266" height="19" fill="#004238" /><rect x="60" y="402" width="380" height="19" fill="#004238" /><rect x="60" y="421" width="380" height="19" fill="#004238" /><rect x="117" y="326" width="19" height="19" fill="#F9B569" /></svg>