<svg xmlns="http://www.w3.org/2000/svg" preserveAspectRatio="xMinYMin meet" viewBox="0 0 500 500" shape-rendering="crispEdges" transform-origin="center"><rect width="100%" height="100%" fill="#006669" /><g transform="scale (5 5)"><rect x="36" y="-1" width="27" height="9" stroke-width="0.3" stroke="black" fill="#FFA800" /><text x="50" y="5.5" width="18" font-family="monospace" font-size="5" text-anchor="middle">Forest</text></g><rect x="60" y="60" width="380" height="20" fill="#004238" /><rect x="60" y="80" width="380" height="20" fill="#004238" /><rect x="60" y="100" width="380" height="20" fill="#004238" /><rect x="60" y="120" width="380" height="20" fill="#004238" /><rect x="60" y="140" width="280" height="20" fill="#004238" /><rect x="400" y="140" width="40" height="20" fill="#004238" /><rect x="60" y="160" width="40" height="20" fill="#004238" /><rect x="160" y="160" width="180" height="20" fill="#004238" /><rect x="400" y="160" width="40" height="20" fill="#004238" /><rect x="60" y="180" width="40" height="20" fill="#004238" /><rect x="160" y="180" width="20" height="20" fill="#004238" /><rect x="220" y="180" width="140" height="20" fill="#004238" /><rect x="380" y="180" width="60" height="20" fill="#004238" /><rect x="60" y="200" width="40" height="20" fill="#004238" /><rect x="220" y="200" width="140" height="20" fill="#004238" /><rect x="380" y="200" width="60" height="20" fill="#004238" /><rect x="60" y="220" width="40" height="20" fill="#004238" /><rect x="220" y="220" width="140" height="20" fill="#004238" /><rect x="380" y="220" width="60" height="20" fill="#004238" /><rect x="60" y="240" width="40" height="20" fill="#004238" /><rect x="220" y="240" width="140" height="20" fill="#004238" /><rect x="380" y="240" width="60" height="20" fill="#004238" /><rect x="60" y="260" width="20" height="20" fill="#004238" /><rect x="220" y="260" width="140" height="20" fill="#004238" /><rect x="380" y="260" width="60" height="20" fill="#004238" /><rect x="60" y="280" width="20" height="20" fill="#004238" /><rect x="220" y="280" width="140" height="20" fill="#004238" /><rect x="380" y="280" width="60" height="20" fill="#004238" /><rect x="60" y="300" width="20" height="20" fill="#004238" /><rect x="340" y="300" width="20" height="20" fill="#004238" /><rect x="380" y="300" width="60" height="20" fill="#004238" /><rect x="60" y="320" width="20" height="20" fill="#004238" /><rect x="220" y="320" width="80" height="20" fill="#004238" /><rect x="340" y="320" width="20" height="20" fill="#004238" /><rect x="380" y="320" width="60" height="20" fill="#004238" /><rect x="60" y="340" width="60" height="20" fill="#004238" /><rect x="360" y="340" width="80" height="20" fill="#004238" /><rect x="60" y="360" width="60" height="20" fill="#004238" /><rect x="220" y="360" width="80" height="20" fill="#004238" /><rect x="340" y="360" width="100" height="20" fill="#004238" /><rect x="60" y="380" width="380" height="20" fill="#004238" /><rect x="60" y="400" width="380" height="20" fill="#004238" /><rect x="60" y="420" width="380" height="20" fill="#004238" /><rect x="280" y="340" width="20" height="20" fill="#967E67" /><rect x="160" y="320" width="20" height="20" fill="#F9B569" /><rect x="160" y="280" width="20" height="20" fill="#F9B569" /></svg>