<svg xmlns="http://www.w3.org/2000/svg" preserveAspectRatio="xMinYMin meet" viewBox="0 0 500 500" shape-rendering="crispEdges" transform-origin="center"><rect width="100%" height="100%" fill="#F3D899" /><g transform="scale (5 5)"><rect x="26" y="-1" width="48" height="9" stroke-width="0.3" stroke="black" fill="#FFA800" /><text x="50" y="5.5" width="39" font-family="monospace" font-size="5" text-anchor="middle">Siren's Woods</text></g><rect x="61" y="61" width="378" height="18" fill="#160F09" /><rect x="61" y="79" width="378" height="18" fill="#160F09" /><rect x="61" y="97" width="378" height="18" fill="#160F09" /><rect x="61" y="115" width="378" height="18" fill="#160F09" /><rect x="61" y="133" width="270" height="18" fill="#160F09" /><rect x="367" y="133" width="72" height="18" fill="#160F09" /><rect x="61" y="151" width="270" height="18" fill="#160F09" /><rect x="367" y="151" width="72" height="18" fill="#160F09" /><rect x="61" y="169" width="18" height="18" fill="#160F09" /><rect x="151" y="169" width="180" height="18" fill="#160F09" /><rect x="367" y="169" width="72" height="18" fill="#160F09" /><rect x="61" y="187" width="18" height="18" fill="#160F09" /><rect x="205" y="187" width="126" height="18" fill="#160F09" /><rect x="367" y="187" width="72" height="18" fill="#160F09" /><rect x="61" y="205" width="18" height="18" fill="#160F09" /><rect x="277" y="205" width="54" height="18" fill="#160F09" /><rect x="367" y="205" width="72" height="18" fill="#160F09" /><rect x="61" y="223" width="18" height="18" fill="#160F09" /><rect x="223" y="223" width="36" height="18" fill="#160F09" /><rect x="277" y="223" width="54" height="18" fill="#160F09" /><rect x="367" y="223" width="72" height="18" fill="#160F09" /><rect x="61" y="241" width="36" height="18" fill="#160F09" /><rect x="151" y="241" width="54" height="18" fill="#160F09" /><rect x="313" y="241" width="18" height="18" fill="#160F09" /><rect x="367" y="241" width="72" height="18" fill="#160F09" /><rect x="61" y="259" width="54" height="18" fill="#160F09" /><rect x="133" y="259" width="18" height="18" fill="#160F09" /><rect x="367" y="259" width="72" height="18" fill="#160F09" /><rect x="61" y="277" width="54" height="18" fill="#160F09" /><rect x="187" y="277" width="18" height="18" fill="#160F09" /><rect x="313" y="277" width="18" height="18" fill="#160F09" /><rect x="367" y="277" width="72" height="18" fill="#160F09" /><rect x="61" y="295" width="18" height="18" fill="#160F09" /><rect x="367" y="295" width="72" height="18" fill="#160F09" /><rect x="61" y="313" width="18" height="18" fill="#160F09" /><rect x="349" y="313" width="18" height="18" fill="#160F09" /><rect x="403" y="313" width="36" height="18" fill="#160F09" /><rect x="61" y="331" width="18" height="18" fill="#160F09" /><rect x="187" y="331" width="36" height="18" fill="#160F09" /><rect x="313" y="331" width="54" height="18" fill="#160F09" /><rect x="403" y="331" width="36" height="18" fill="#160F09" /><rect x="61" y="349" width="18" height="18" fill="#160F09" /><rect x="403" y="349" width="36" height="18" fill="#160F09" /><rect x="61" y="367" width="18" height="18" fill="#160F09" /><rect x="403" y="367" width="36" height="18" fill="#160F09" /><rect x="61" y="385" width="18" height="18" fill="#160F09" /><rect x="151" y="385" width="288" height="18" fill="#160F09" /><rect x="61" y="403" width="378" height="18" fill="#160F09" /><rect x="61" y="421" width="378" height="18" fill="#160F09" /><rect x="223" y="331" width="18" height="18" fill="#00A29D" /><rect x="205" y="259" width="18" height="18" fill="#FAAA00" /><rect x="331" y="169" width="18" height="18" fill="#00A29D" /></svg>