<svg xmlns="http://www.w3.org/2000/svg" preserveAspectRatio="xMinYMin meet" viewBox="0 0 500 500" shape-rendering="crispEdges" transform-origin="center"><rect width="100%" height="100%" fill="#967E67" /><g transform="scale (5 5)"><rect x="36" y="-1" width="27" height="9" stroke-width="0.3" stroke="black" fill="#FFA800" /><text x="50" y="5.5" width="18" font-family="monospace" font-size="5" text-anchor="middle">Prison</text></g><rect x="61" y="61" width="378" height="18" fill="#F3D899" /><rect x="61" y="79" width="72" height="18" fill="#F3D899" /><rect x="241" y="79" width="198" height="18" fill="#F3D899" /><rect x="61" y="97" width="72" height="18" fill="#F3D899" /><rect x="241" y="97" width="198" height="18" fill="#F3D899" /><rect x="61" y="115" width="72" height="18" fill="#F3D899" /><rect x="241" y="115" width="198" height="18" fill="#F3D899" /><rect x="61" y="133" width="72" height="18" fill="#F3D899" /><rect x="223" y="133" width="216" height="18" fill="#F3D899" /><rect x="61" y="151" width="72" height="18" fill="#F3D899" /><rect x="223" y="151" width="216" height="18" fill="#F3D899" /><rect x="61" y="169" width="72" height="18" fill="#F3D899" /><rect x="223" y="169" width="216" height="18" fill="#F3D899" /><rect x="61" y="187" width="108" height="18" fill="#F3D899" /><rect x="205" y="187" width="234" height="18" fill="#F3D899" /><rect x="61" y="205" width="108" height="18" fill="#F3D899" /><rect x="205" y="205" width="234" height="18" fill="#F3D899" /><rect x="61" y="223" width="36" height="18" fill="#F3D899" /><rect x="205" y="223" width="234" height="18" fill="#F3D899" /><rect x="61" y="241" width="36" height="18" fill="#F3D899" /><rect x="241" y="241" width="198" height="18" fill="#F3D899" /><rect x="61" y="259" width="36" height="18" fill="#F3D899" /><rect x="295" y="259" width="144" height="18" fill="#F3D899" /><rect x="61" y="277" width="36" height="18" fill="#F3D899" /><rect x="259" y="277" width="18" height="18" fill="#F3D899" /><rect x="295" y="277" width="144" height="18" fill="#F3D899" /><rect x="61" y="295" width="18" height="18" fill="#F3D899" /><rect x="295" y="295" width="144" height="18" fill="#F3D899" /><rect x="61" y="313" width="18" height="18" fill="#F3D899" /><rect x="331" y="313" width="108" height="18" fill="#F3D899" /><rect x="61" y="331" width="18" height="18" fill="#F3D899" /><rect x="331" y="331" width="108" height="18" fill="#F3D899" /><rect x="61" y="349" width="18" height="18" fill="#F3D899" /><rect x="385" y="349" width="54" height="18" fill="#F3D899" /><rect x="61" y="367" width="18" height="18" fill="#F3D899" /><rect x="385" y="367" width="54" height="18" fill="#F3D899" /><rect x="61" y="385" width="18" height="18" fill="#F3D899" /><rect x="151" y="385" width="72" height="18" fill="#F3D899" /><rect x="385" y="385" width="54" height="18" fill="#F3D899" /><rect x="61" y="403" width="378" height="18" fill="#F3D899" /><rect x="61" y="421" width="378" height="18" fill="#F3D899" /><rect x="79" y="331" width="18" height="18" fill="#006669" /><rect x="313" y="313" width="18" height="18" fill="#006669" /><rect x="277" y="277" width="18" height="18" fill="#3C2A1A" /><rect x="223" y="277" width="18" height="18" fill="#006669" /><rect x="169" y="277" width="18" height="18" fill="#006669" /><rect x="259" y="259" width="18" height="18" fill="#3C2A1A" /><rect x="151" y="259" width="18" height="18" fill="#006669" /><rect x="133" y="223" width="18" height="18" fill="#006669" /><rect x="169" y="205" width="18" height="18" fill="#3C2A1A" /><rect x="151" y="133" width="18" height="18" fill="#006669" /></svg>