<svg xmlns="http://www.w3.org/2000/svg" preserveAspectRatio="xMinYMin meet" viewBox="0 0 500 500" shape-rendering="crispEdges" transform-origin="center"><rect width="100%" height="100%" fill="#967E67" /><g transform="scale (5 5)"><rect x="10" y="-1" width="80" height="9" stroke-width="0.3" stroke="black" fill="#FFA800" /><text x="50" y="5.5" width="111" font-family="monospace" font-size="4" text-anchor="middle">Collapsed Waterfall of Rapture</text></g><rect x="95" y="95" width="93" height="31" fill="#F3D899" /><rect x="219" y="95" width="62" height="31" fill="#F3D899" /><rect x="312" y="95" width="93" height="31" fill="#F3D899" /><rect x="95" y="126" width="62" height="31" fill="#F3D899" /><rect x="219" y="126" width="31" height="31" fill="#F3D899" /><rect x="312" y="126" width="93" height="31" fill="#F3D899" /><rect x="95" y="157" width="62" height="31" fill="#F3D899" /><rect x="281" y="157" width="124" height="31" fill="#F3D899" /><rect x="95" y="188" width="62" height="31" fill="#F3D899" /><rect x="312" y="188" width="93" height="31" fill="#F3D899" /><rect x="95" y="219" width="62" height="31" fill="#F3D899" /><rect x="188" y="219" width="31" height="31" fill="#F3D899" /><rect x="250" y="219" width="31" height="31" fill="#F3D899" /><rect x="343" y="219" width="62" height="31" fill="#F3D899" /><rect x="95" y="250" width="62" height="31" fill="#F3D899" /><rect x="343" y="250" width="62" height="31" fill="#F3D899" /><rect x="95" y="281" width="31" height="31" fill="#F3D899" /><rect x="219" y="281" width="31" height="31" fill="#F3D899" /><rect x="281" y="281" width="124" height="31" fill="#F3D899" /><rect x="95" y="312" width="31" height="31" fill="#F3D899" /><rect x="281" y="312" width="124" height="31" fill="#F3D899" /><rect x="95" y="343" width="31" height="31" fill="#F3D899" /><rect x="312" y="343" width="93" height="31" fill="#F3D899" /><rect x="95" y="374" width="31" height="31" fill="#F3D899" /><rect x="219" y="374" width="62" height="31" fill="#F3D899" /><rect x="312" y="374" width="93" height="31" fill="#F3D899" /><rect x="219" y="343" width="31" height="31" fill="#3C2A1A" /><rect x="250" y="281" width="31" height="31" fill="#3C2A1A" /><rect x="281" y="188" width="31" height="31" fill="#3C2A1A" /><rect x="281" y="126" width="31" height="31" fill="#3C2A1A" /></svg>