<svg xmlns="http://www.w3.org/2000/svg" preserveAspectRatio="xMinYMin meet" viewBox="0 0 500 500" shape-rendering="crispEdges" transform-origin="center"><rect width="100%" height="100%" fill="#967E67" /><g transform="scale (5 5)"><rect x="41" y="-1" width="18" height="9" stroke-width="0.3" stroke="black" fill="#FFA800" /><text x="50" y="5.5" width="9" font-family="monospace" font-size="5" text-anchor="middle">Den</text></g><rect x="58" y="58" width="384" height="16" fill="#F3D899" /><rect x="58" y="74" width="80" height="16" fill="#F3D899" /><rect x="234" y="74" width="80" height="16" fill="#F3D899" /><rect x="346" y="74" width="96" height="16" fill="#F3D899" /><rect x="58" y="90" width="80" height="16" fill="#F3D899" /><rect x="234" y="90" width="80" height="16" fill="#F3D899" /><rect x="362" y="90" width="80" height="16" fill="#F3D899" /><rect x="58" y="106" width="48" height="16" fill="#F3D899" /><rect x="58" y="122" width="48" height="16" fill="#F3D899" /><rect x="154" y="122" width="16" height="16" fill="#F3D899" /><rect x="234" y="122" width="96" height="16" fill="#F3D899" /><rect x="346" y="122" width="96" height="16" fill="#F3D899" /><rect x="58" y="138" width="48" height="16" fill="#F3D899" /><rect x="202" y="138" width="16" height="16" fill="#F3D899" /><rect x="234" y="138" width="96" height="16" fill="#F3D899" /><rect x="346" y="138" width="96" height="16" fill="#F3D899" /><rect x="58" y="154" width="48" height="16" fill="#F3D899" /><rect x="202" y="154" width="16" height="16" fill="#F3D899" /><rect x="250" y="154" width="64" height="16" fill="#F3D899" /><rect x="346" y="154" width="96" height="16" fill="#F3D899" /><rect x="58" y="170" width="112" height="16" fill="#F3D899" /><rect x="218" y="170" width="16" height="16" fill="#F3D899" /><rect x="250" y="170" width="32" height="16" fill="#F3D899" /><rect x="346" y="170" width="96" height="16" fill="#F3D899" /><rect x="58" y="186" width="16" height="16" fill="#F3D899" /><rect x="90" y="186" width="80" height="16" fill="#F3D899" /><rect x="202" y="186" width="32" height="16" fill="#F3D899" /><rect x="266" y="186" width="48" height="16" fill="#F3D899" /><rect x="330" y="186" width="96" height="16" fill="#F3D899" /><rect x="58" y="202" width="16" height="16" fill="#F3D899" /><rect x="90" y="202" width="48" height="16" fill="#F3D899" /><rect x="186" y="202" width="64" height="16" fill="#F3D899" /><rect x="282" y="202" width="32" height="16" fill="#F3D899" /><rect x="58" y="218" width="16" height="16" fill="#F3D899" /><rect x="106" y="218" width="32" height="16" fill="#F3D899" /><rect x="186" y="218" width="80" height="16" fill="#F3D899" /><rect x="282" y="218" width="48" height="16" fill="#F3D899" /><rect x="346" y="218" width="16" height="16" fill="#F3D899" /><rect x="378" y="218" width="64" height="16" fill="#F3D899" /><rect x="58" y="234" width="32" height="16" fill="#F3D899" /><rect x="154" y="234" width="112" height="16" fill="#F3D899" /><rect x="298" y="234" width="32" height="16" fill="#F3D899" /><rect x="346" y="234" width="16" height="16" fill="#F3D899" /><rect x="394" y="234" width="48" height="16" fill="#F3D899" /><rect x="58" y="250" width="48" height="16" fill="#F3D899" /><rect x="138" y="250" width="128" height="16" fill="#F3D899" /><rect x="282" y="250" width="48" height="16" fill="#F3D899" /><rect x="394" y="250" width="48" height="16" fill="#F3D899" /><rect x="58" y="266" width="48" height="16" fill="#F3D899" /><rect x="122" y="266" width="128" height="16" fill="#F3D899" /><rect x="282" y="266" width="48" height="16" fill="#F3D899" /><rect x="394" y="266" width="16" height="16" fill="#F3D899" /><rect x="58" y="282" width="16" height="16" fill="#F3D899" /><rect x="106" y="282" width="144" height="16" fill="#F3D899" /><rect x="266" y="282" width="64" height="16" fill="#F3D899" /><rect x="378" y="282" width="32" height="16" fill="#F3D899" /><rect x="426" y="282" width="16" height="16" fill="#F3D899" /><rect x="58" y="298" width="32" height="16" fill="#F3D899" /><rect x="106" y="298" width="144" height="16" fill="#F3D899" /><rect x="266" y="298" width="48" height="16" fill="#F3D899" /><rect x="346" y="298" width="16" height="16" fill="#F3D899" /><rect x="394" y="298" width="16" height="16" fill="#F3D899" /><rect x="426" y="298" width="16" height="16" fill="#F3D899" /><rect x="58" y="314" width="16" height="16" fill="#F3D899" /><rect x="106" y="314" width="112" height="16" fill="#F3D899" /><rect x="266" y="314" width="48" height="16" fill="#F3D899" /><rect x="330" y="314" width="48" height="16" fill="#F3D899" /><rect x="394" y="314" width="16" height="16" fill="#F3D899" /><rect x="426" y="314" width="16" height="16" fill="#F3D899" /><rect x="58" y="330" width="32" height="16" fill="#F3D899" /><rect x="106" y="330" width="80" height="16" fill="#F3D899" /><rect x="234" y="330" width="80" height="16" fill="#F3D899" /><rect x="330" y="330" width="48" height="16" fill="#F3D899" /><rect x="394" y="330" width="48" height="16" fill="#F3D899" /><rect x="58" y="346" width="32" height="16" fill="#F3D899" /><rect x="138" y="346" width="16" height="16" fill="#F3D899" /><rect x="202" y="346" width="96" height="16" fill="#F3D899" /><rect x="330" y="346" width="32" height="16" fill="#F3D899" /><rect x="394" y="346" width="48" height="16" fill="#F3D899" /><rect x="58" y="362" width="48" height="16" fill="#F3D899" /><rect x="122" y="362" width="64" height="16" fill="#F3D899" /><rect x="202" y="362" width="96" height="16" fill="#F3D899" /><rect x="314" y="362" width="48" height="16" fill="#F3D899" /><rect x="378" y="362" width="64" height="16" fill="#F3D899" /><rect x="58" y="378" width="48" height="16" fill="#F3D899" /><rect x="122" y="378" width="64" height="16" fill="#F3D899" /><rect x="218" y="378" width="80" height="16" fill="#F3D899" /><rect x="378" y="378" width="64" height="16" fill="#F3D899" /><rect x="58" y="394" width="96" height="16" fill="#F3D899" /><rect x="218" y="394" width="112" height="16" fill="#F3D899" /><rect x="378" y="394" width="64" height="16" fill="#F3D899" /><rect x="58" y="410" width="96" height="16" fill="#F3D899" /><rect x="170" y="410" width="160" height="16" fill="#F3D899" /><rect x="362" y="410" width="80" height="16" fill="#F3D899" /><rect x="58" y="426" width="96" height="16" fill="#F3D899" /><rect x="202" y="426" width="128" height="16" fill="#F3D899" /><rect x="362" y="426" width="80" height="16" fill="#F3D899" /><rect x="362" y="378" width="16" height="16" fill="#006669" /><rect x="362" y="362" width="16" height="16" fill="#3C2A1A" /><rect x="106" y="362" width="16" height="16" fill="#006669" /><rect x="362" y="346" width="16" height="16" fill="#3C2A1A" /><rect x="426" y="266" width="16" height="16" fill="#006669" /><rect x="266" y="266" width="16" height="16" fill="#006669" /><rect x="154" y="202" width="16" height="16" fill="#3C2A1A" /><rect x="138" y="202" width="16" height="16" fill="#006669" /><rect x="186" y="186" width="16" height="16" fill="#006669" /><rect x="170" y="186" width="16" height="16" fill="#006669" /><rect x="106" y="154" width="16" height="16" fill="#006669" /><rect x="186" y="122" width="16" height="16" fill="#3C2A1A" /><rect x="138" y="122" width="16" height="16" fill="#3C2A1A" /><rect x="394" y="106" width="16" height="16" fill="#3C2A1A" /><rect x="330" y="74" width="16" height="16" fill="#006669" /></svg>