<svg xmlns="http://www.w3.org/2000/svg" preserveAspectRatio="xMinYMin meet" viewBox="0 0 500 500" shape-rendering="crispEdges" transform-origin="center"><rect width="100%" height="100%" fill="#340D07" /><g transform="scale (5 5)"><rect x="8" y="-1" width="84" height="9" stroke-width="0.3" stroke="black" fill="#FFA800" /><text x="50" y="5.5" width="75" font-family="monospace" font-size="5" text-anchor="middle">Inner Catacombs of Giants</text></g><rect x="60" y="60" width="380" height="19" fill="#5D0503" /><rect x="60" y="79" width="190" height="19" fill="#5D0503" /><rect x="269" y="79" width="133" height="19" fill="#5D0503" /><rect x="421" y="79" width="19" height="19" fill="#5D0503" /><rect x="60" y="98" width="114" height="19" fill="#5D0503" /><rect x="269" y="98" width="133" height="19" fill="#5D0503" /><rect x="421" y="98" width="19" height="19" fill="#5D0503" /><rect x="60" y="117" width="114" height="19" fill="#5D0503" /><rect x="288" y="117" width="76" height="19" fill="#5D0503" /><rect x="421" y="117" width="19" height="19" fill="#5D0503" /><rect x="60" y="136" width="114" height="19" fill="#5D0503" /><rect x="250" y="136" width="19" height="19" fill="#5D0503" /><rect x="383" y="136" width="57" height="19" fill="#5D0503" /><rect x="60" y="155" width="114" height="19" fill="#5D0503" /><rect x="421" y="155" width="19" height="19" fill="#5D0503" /><rect x="60" y="174" width="57" height="19" fill="#5D0503" /><rect x="136" y="174" width="19" height="19" fill="#5D0503" /><rect x="193" y="174" width="95" height="19" fill="#5D0503" /><rect x="60" y="193" width="57" height="19" fill="#5D0503" /><rect x="193" y="193" width="114" height="19" fill="#5D0503" /><rect x="345" y="193" width="19" height="19" fill="#5D0503" /><rect x="60" y="212" width="171" height="19" fill="#5D0503" /><rect x="60" y="231" width="171" height="19" fill="#5D0503" /><rect x="269" y="231" width="38" height="19" fill="#5D0503" /><rect x="345" y="231" width="38" height="19" fill="#5D0503" /><rect x="60" y="250" width="171" height="19" fill="#5D0503" /><rect x="269" y="250" width="19" height="19" fill="#5D0503" /><rect x="326" y="250" width="57" height="19" fill="#5D0503" /><rect x="60" y="269" width="190" height="19" fill="#5D0503" /><rect x="307" y="269" width="95" height="19" fill="#5D0503" /><rect x="60" y="288" width="190" height="19" fill="#5D0503" /><rect x="269" y="288" width="133" height="19" fill="#5D0503" /><rect x="60" y="307" width="133" height="19" fill="#5D0503" /><rect x="250" y="307" width="57" height="19" fill="#5D0503" /><rect x="345" y="307" width="19" height="19" fill="#5D0503" /><rect x="421" y="307" width="19" height="19" fill="#5D0503" /><rect x="60" y="326" width="171" height="19" fill="#5D0503" /><rect x="421" y="326" width="19" height="19" fill="#5D0503" /><rect x="60" y="345" width="152" height="19" fill="#5D0503" /><rect x="250" y="345" width="38" height="19" fill="#5D0503" /><rect x="364" y="345" width="19" height="19" fill="#5D0503" /><rect x="402" y="345" width="38" height="19" fill="#5D0503" /><rect x="60" y="364" width="133" height="19" fill="#5D0503" /><rect x="307" y="364" width="19" height="19" fill="#5D0503" /><rect x="383" y="364" width="57" height="19" fill="#5D0503" /><rect x="60" y="383" width="76" height="19" fill="#5D0503" /><rect x="307" y="383" width="19" height="19" fill="#5D0503" /><rect x="60" y="402" width="38" height="19" fill="#5D0503" /><rect x="155" y="402" width="57" height="19" fill="#5D0503" /><rect x="231" y="402" width="38" height="19" fill="#5D0503" /><rect x="288" y="402" width="76" height="19" fill="#5D0503" /><rect x="60" y="421" width="19" height="19" fill="#5D0503" /><rect x="136" y="421" width="190" height="19" fill="#5D0503" /><rect x="364" y="421" width="57" height="19" fill="#5D0503" /><rect x="155" y="383" width="19" height="19" fill="#FF1800" /><rect x="269" y="136" width="19" height="19" fill="#B75700" /><rect x="402" y="117" width="19" height="19" fill="#B75700" /></svg>