<svg xmlns="http://www.w3.org/2000/svg" preserveAspectRatio="xMinYMin meet" viewBox="0 0 500 500" shape-rendering="crispEdges" transform-origin="center"><rect width="100%" height="100%" fill="#F3D899" /><g transform="scale (5 5)"><rect x="18" y="-1" width="63" height="9" stroke-width="0.3" stroke="black" fill="#FFA800" /><text x="50" y="5.5" width="54" font-family="monospace" font-size="5" text-anchor="middle">Landing of Rapture</text></g><rect x="77" y="77" width="299" height="23" fill="#160F09" /><rect x="399" y="77" width="23" height="23" fill="#160F09" /><rect x="77" y="100" width="0" height="23" fill="#160F09" /><rect x="100" y="100" width="230" height="23" fill="#160F09" /><rect x="353" y="100" width="69" height="23" fill="#160F09" /><rect x="77" y="123" width="253" height="23" fill="#160F09" /><rect x="353" y="123" width="69" height="23" fill="#160F09" /><rect x="77" y="146" width="253" height="23" fill="#160F09" /><rect x="353" y="146" width="69" height="23" fill="#160F09" /><rect x="77" y="169" width="253" height="23" fill="#160F09" /><rect x="376" y="169" width="46" height="23" fill="#160F09" /><rect x="77" y="192" width="253" height="23" fill="#160F09" /><rect x="376" y="192" width="46" height="23" fill="#160F09" /><rect x="77" y="215" width="207" height="23" fill="#160F09" /><rect x="77" y="238" width="207" height="23" fill="#160F09" /><rect x="330" y="238" width="92" height="23" fill="#160F09" /><rect x="77" y="261" width="207" height="23" fill="#160F09" /><rect x="330" y="261" width="92" height="23" fill="#160F09" /><rect x="77" y="284" width="184" height="23" fill="#160F09" /><rect x="330" y="284" width="92" height="23" fill="#160F09" /><rect x="77" y="307" width="184" height="23" fill="#160F09" /><rect x="284" y="307" width="23" height="23" fill="#160F09" /><rect x="330" y="307" width="92" height="23" fill="#160F09" /><rect x="77" y="330" width="184" height="23" fill="#160F09" /><rect x="284" y="330" width="23" height="23" fill="#160F09" /><rect x="376" y="330" width="46" height="23" fill="#160F09" /><rect x="77" y="353" width="138" height="23" fill="#160F09" /><rect x="284" y="353" width="46" height="23" fill="#160F09" /><rect x="399" y="353" width="23" height="23" fill="#160F09" /><rect x="77" y="376" width="115" height="23" fill="#160F09" /><rect x="261" y="376" width="69" height="23" fill="#160F09" /><rect x="353" y="376" width="69" height="23" fill="#160F09" /><rect x="77" y="399" width="92" height="23" fill="#160F09" /><rect x="261" y="399" width="46" height="23" fill="#160F09" /><rect x="353" y="399" width="69" height="23" fill="#160F09" /><rect x="330" y="330" width="23" height="23" fill="#00A29D" /></svg>