<svg xmlns="http://www.w3.org/2000/svg" preserveAspectRatio="xMinYMin meet" viewBox="0 0 500 500" shape-rendering="crispEdges" transform-origin="center"><rect width="100%" height="100%" fill="#2F590E" /><g transform="scale (5 5)"><rect x="9" y="-1" width="82" height="9" stroke-width="0.3" stroke="black" fill="#FFA800" /><text x="50" y="5.5" width="114" font-family="monospace" font-size="4" text-anchor="middle">Heaven's Graveyard of the Brood</text></g><rect x="63" y="63" width="306" height="17" fill="#A98C00" /><rect x="386" y="63" width="51" height="17" fill="#A98C00" /><rect x="63" y="80" width="102" height="17" fill="#A98C00" /><rect x="216" y="80" width="34" height="17" fill="#A98C00" /><rect x="386" y="80" width="51" height="17" fill="#A98C00" /><rect x="63" y="97" width="102" height="17" fill="#A98C00" /><rect x="216" y="97" width="34" height="17" fill="#A98C00" /><rect x="284" y="97" width="51" height="17" fill="#A98C00" /><rect x="369" y="97" width="17" height="17" fill="#A98C00" /><rect x="63" y="114" width="68" height="17" fill="#A98C00" /><rect x="182" y="114" width="17" height="17" fill="#A98C00" /><rect x="284" y="114" width="34" height="17" fill="#A98C00" /><rect x="403" y="114" width="34" height="17" fill="#A98C00" /><rect x="63" y="131" width="68" height="17" fill="#A98C00" /><rect x="182" y="131" width="68" height="17" fill="#A98C00" /><rect x="267" y="131" width="51" height="17" fill="#A98C00" /><rect x="386" y="131" width="51" height="17" fill="#A98C00" /><rect x="63" y="148" width="68" height="17" fill="#A98C00" /><rect x="182" y="148" width="68" height="17" fill="#A98C00" /><rect x="267" y="148" width="51" height="17" fill="#A98C00" /><rect x="335" y="148" width="34" height="17" fill="#A98C00" /><rect x="403" y="148" width="34" height="17" fill="#A98C00" /><rect x="63" y="165" width="85" height="17" fill="#A98C00" /><rect x="182" y="165" width="51" height="17" fill="#A98C00" /><rect x="267" y="165" width="51" height="17" fill="#A98C00" /><rect x="352" y="165" width="17" height="17" fill="#A98C00" /><rect x="403" y="165" width="34" height="17" fill="#A98C00" /><rect x="63" y="182" width="85" height="17" fill="#A98C00" /><rect x="182" y="182" width="153" height="17" fill="#A98C00" /><rect x="352" y="182" width="17" height="17" fill="#A98C00" /><rect x="63" y="199" width="85" height="17" fill="#A98C00" /><rect x="182" y="199" width="153" height="17" fill="#A98C00" /><rect x="352" y="199" width="34" height="17" fill="#A98C00" /><rect x="63" y="216" width="85" height="17" fill="#A98C00" /><rect x="182" y="216" width="153" height="17" fill="#A98C00" /><rect x="403" y="216" width="34" height="17" fill="#A98C00" /><rect x="63" y="233" width="85" height="17" fill="#A98C00" /><rect x="165" y="233" width="204" height="17" fill="#A98C00" /><rect x="63" y="250" width="85" height="17" fill="#A98C00" /><rect x="165" y="250" width="187" height="17" fill="#A98C00" /><rect x="386" y="250" width="34" height="17" fill="#A98C00" /><rect x="63" y="267" width="85" height="17" fill="#A98C00" /><rect x="199" y="267" width="153" height="17" fill="#A98C00" /><rect x="369" y="267" width="51" height="17" fill="#A98C00" /><rect x="63" y="284" width="102" height="17" fill="#A98C00" /><rect x="182" y="284" width="170" height="17" fill="#A98C00" /><rect x="63" y="301" width="85" height="17" fill="#A98C00" /><rect x="182" y="301" width="204" height="17" fill="#A98C00" /><rect x="63" y="318" width="68" height="17" fill="#A98C00" /><rect x="165" y="318" width="204" height="17" fill="#A98C00" /><rect x="63" y="335" width="68" height="17" fill="#A98C00" /><rect x="165" y="335" width="255" height="17" fill="#A98C00" /><rect x="63" y="352" width="323" height="17" fill="#A98C00" /><rect x="63" y="369" width="323" height="17" fill="#A98C00" /><rect x="403" y="369" width="34" height="17" fill="#A98C00" /><rect x="63" y="386" width="323" height="17" fill="#A98C00" /><rect x="420" y="386" width="17" height="17" fill="#A98C00" /><rect x="63" y="403" width="340" height="17" fill="#A98C00" /><rect x="420" y="403" width="17" height="17" fill="#A98C00" /><rect x="63" y="420" width="374" height="17" fill="#A98C00" /><rect x="386" y="233" width="17" height="17" fill="#C55300" /><rect x="165" y="148" width="17" height="17" fill="#802F1A" /><rect x="148" y="148" width="17" height="17" fill="#802F1A" /><rect x="335" y="131" width="17" height="17" fill="#C55300" /><rect x="267" y="114" width="17" height="17" fill="#802F1A" /></svg>