<svg xmlns="http://www.w3.org/2000/svg" preserveAspectRatio="xMinYMin meet" viewBox="0 0 500 500" shape-rendering="crispEdges" transform-origin="center"><rect width="100%" height="100%" fill="#340D07" /><g transform="scale (5 5)"><rect x="41" y="-1" width="18" height="9" stroke-width="0.3" stroke="black" fill="#FFA800" /><text x="50" y="5.5" width="9" font-family="monospace" font-size="5" text-anchor="middle">Den</text></g><rect x="61" y="61" width="378" height="18" fill="#5D0503" /><rect x="61" y="79" width="36" height="18" fill="#5D0503" /><rect x="133" y="79" width="54" height="18" fill="#5D0503" /><rect x="205" y="79" width="36" height="18" fill="#5D0503" /><rect x="403" y="79" width="36" height="18" fill="#5D0503" /><rect x="61" y="97" width="36" height="18" fill="#5D0503" /><rect x="133" y="97" width="36" height="18" fill="#5D0503" /><rect x="205" y="97" width="36" height="18" fill="#5D0503" /><rect x="259" y="97" width="90" height="18" fill="#5D0503" /><rect x="367" y="97" width="18" height="18" fill="#5D0503" /><rect x="403" y="97" width="36" height="18" fill="#5D0503" /><rect x="61" y="115" width="18" height="18" fill="#5D0503" /><rect x="205" y="115" width="36" height="18" fill="#5D0503" /><rect x="295" y="115" width="54" height="18" fill="#5D0503" /><rect x="421" y="115" width="18" height="18" fill="#5D0503" /><rect x="61" y="133" width="0" height="18" fill="#5D0503" /><rect x="79" y="133" width="36" height="18" fill="#5D0503" /><rect x="151" y="133" width="18" height="18" fill="#5D0503" /><rect x="187" y="133" width="72" height="18" fill="#5D0503" /><rect x="277" y="133" width="108" height="18" fill="#5D0503" /><rect x="403" y="133" width="36" height="18" fill="#5D0503" /><rect x="61" y="151" width="72" height="18" fill="#5D0503" /><rect x="151" y="151" width="18" height="18" fill="#5D0503" /><rect x="187" y="151" width="18" height="18" fill="#5D0503" /><rect x="277" y="151" width="162" height="18" fill="#5D0503" /><rect x="61" y="169" width="54" height="18" fill="#5D0503" /><rect x="151" y="169" width="18" height="18" fill="#5D0503" /><rect x="187" y="169" width="36" height="18" fill="#5D0503" /><rect x="277" y="169" width="162" height="18" fill="#5D0503" /><rect x="61" y="187" width="72" height="18" fill="#5D0503" /><rect x="151" y="187" width="18" height="18" fill="#5D0503" /><rect x="187" y="187" width="36" height="18" fill="#5D0503" /><rect x="259" y="187" width="180" height="18" fill="#5D0503" /><rect x="61" y="205" width="0" height="18" fill="#5D0503" /><rect x="79" y="205" width="54" height="18" fill="#5D0503" /><rect x="187" y="205" width="54" height="18" fill="#5D0503" /><rect x="259" y="205" width="180" height="18" fill="#5D0503" /><rect x="61" y="223" width="90" height="18" fill="#5D0503" /><rect x="169" y="223" width="54" height="18" fill="#5D0503" /><rect x="259" y="223" width="180" height="18" fill="#5D0503" /><rect x="61" y="241" width="90" height="18" fill="#5D0503" /><rect x="205" y="241" width="18" height="18" fill="#5D0503" /><rect x="241" y="241" width="198" height="18" fill="#5D0503" /><rect x="61" y="259" width="126" height="18" fill="#5D0503" /><rect x="205" y="259" width="18" height="18" fill="#5D0503" /><rect x="241" y="259" width="198" height="18" fill="#5D0503" /><rect x="61" y="277" width="126" height="18" fill="#5D0503" /><rect x="205" y="277" width="18" height="18" fill="#5D0503" /><rect x="241" y="277" width="198" height="18" fill="#5D0503" /><rect x="61" y="295" width="126" height="18" fill="#5D0503" /><rect x="205" y="295" width="18" height="18" fill="#5D0503" /><rect x="241" y="295" width="198" height="18" fill="#5D0503" /><rect x="61" y="313" width="126" height="18" fill="#5D0503" /><rect x="241" y="313" width="198" height="18" fill="#5D0503" /><rect x="61" y="331" width="126" height="18" fill="#5D0503" /><rect x="241" y="331" width="198" height="18" fill="#5D0503" /><rect x="61" y="349" width="126" height="18" fill="#5D0503" /><rect x="241" y="349" width="198" height="18" fill="#5D0503" /><rect x="61" y="367" width="144" height="18" fill="#5D0503" /><rect x="241" y="367" width="198" height="18" fill="#5D0503" /><rect x="61" y="385" width="144" height="18" fill="#5D0503" /><rect x="259" y="385" width="180" height="18" fill="#5D0503" /><rect x="61" y="403" width="162" height="18" fill="#5D0503" /><rect x="259" y="403" width="180" height="18" fill="#5D0503" /><rect x="61" y="421" width="162" height="18" fill="#5D0503" /><rect x="259" y="421" width="180" height="18" fill="#5D0503" /><rect x="241" y="421" width="18" height="18" fill="#B75700" /><rect x="187" y="349" width="18" height="18" fill="#B75700" /><rect x="187" y="277" width="18" height="18" fill="#FF1800" /><rect x="241" y="223" width="18" height="18" fill="#FF1800" /><rect x="367" y="115" width="18" height="18" fill="#B75700" /><rect x="79" y="115" width="18" height="18" fill="#B75700" /><rect x="277" y="79" width="18" height="18" fill="#B75700" /><rect x="97" y="79" width="18" height="18" fill="#B75700" /></svg>