<svg xmlns="http://www.w3.org/2000/svg" preserveAspectRatio="xMinYMin meet" viewBox="0 0 500 500" shape-rendering="crispEdges" transform-origin="center"><rect width="100%" height="100%" fill="#F3D899" /><g transform="scale (5 5)"><rect x="24" y="-1" width="51" height="9" stroke-width="0.3" stroke="black" fill="#FFA800" /><text x="50" y="5.5" width="42" font-family="monospace" font-size="5" text-anchor="middle">Abyssal Prison</text></g><rect x="61" y="61" width="378" height="18" fill="#160F09" /><rect x="61" y="79" width="36" height="18" fill="#160F09" /><rect x="133" y="79" width="36" height="18" fill="#160F09" /><rect x="223" y="79" width="198" height="18" fill="#160F09" /><rect x="61" y="97" width="54" height="18" fill="#160F09" /><rect x="133" y="97" width="36" height="18" fill="#160F09" /><rect x="187" y="97" width="216" height="18" fill="#160F09" /><rect x="61" y="115" width="54" height="18" fill="#160F09" /><rect x="187" y="115" width="216" height="18" fill="#160F09" /><rect x="421" y="115" width="18" height="18" fill="#160F09" /><rect x="61" y="133" width="144" height="18" fill="#160F09" /><rect x="277" y="133" width="90" height="18" fill="#160F09" /><rect x="421" y="133" width="18" height="18" fill="#160F09" /><rect x="61" y="151" width="144" height="18" fill="#160F09" /><rect x="223" y="151" width="36" height="18" fill="#160F09" /><rect x="331" y="151" width="18" height="18" fill="#160F09" /><rect x="385" y="151" width="54" height="18" fill="#160F09" /><rect x="61" y="169" width="108" height="18" fill="#160F09" /><rect x="223" y="169" width="90" height="18" fill="#160F09" /><rect x="367" y="169" width="72" height="18" fill="#160F09" /><rect x="61" y="187" width="378" height="18" fill="#160F09" /><rect x="61" y="205" width="378" height="18" fill="#160F09" /><rect x="61" y="223" width="378" height="18" fill="#160F09" /><rect x="61" y="241" width="306" height="18" fill="#160F09" /><rect x="61" y="259" width="198" height="18" fill="#160F09" /><rect x="295" y="259" width="144" height="18" fill="#160F09" /><rect x="61" y="277" width="216" height="18" fill="#160F09" /><rect x="313" y="277" width="36" height="18" fill="#160F09" /><rect x="61" y="295" width="234" height="18" fill="#160F09" /><rect x="385" y="295" width="36" height="18" fill="#160F09" /><rect x="61" y="313" width="306" height="18" fill="#160F09" /><rect x="61" y="331" width="72" height="18" fill="#160F09" /><rect x="151" y="331" width="90" height="18" fill="#160F09" /><rect x="259" y="331" width="90" height="18" fill="#160F09" /><rect x="61" y="349" width="72" height="18" fill="#160F09" /><rect x="169" y="349" width="18" height="18" fill="#160F09" /><rect x="277" y="349" width="18" height="18" fill="#160F09" /><rect x="331" y="349" width="18" height="18" fill="#160F09" /><rect x="367" y="349" width="36" height="18" fill="#160F09" /><rect x="61" y="367" width="90" height="18" fill="#160F09" /><rect x="205" y="367" width="18" height="18" fill="#160F09" /><rect x="61" y="385" width="252" height="18" fill="#160F09" /><rect x="385" y="385" width="36" height="18" fill="#160F09" /><rect x="61" y="403" width="288" height="18" fill="#160F09" /><rect x="61" y="421" width="252" height="18" fill="#160F09" /><rect x="367" y="421" width="72" height="18" fill="#160F09" /><rect x="403" y="403" width="18" height="18" fill="#FAAA00" /><rect x="349" y="151" width="18" height="18" fill="#FAAA00" /><rect x="259" y="151" width="18" height="18" fill="#00A29D" /></svg>