<svg xmlns="http://www.w3.org/2000/svg" preserveAspectRatio="xMinYMin meet" viewBox="0 0 500 500" shape-rendering="crispEdges" transform-origin="center"><rect width="100%" height="100%" fill="#967E67" /><g transform="scale (5 5)"><rect x="9" y="-1" width="82" height="9" stroke-width="0.3" stroke="black" fill="#FFA800" /><text x="50" y="5.5" width="114" font-family="monospace" font-size="4" text-anchor="middle">Empyrean Shrine of the Behemoth</text></g><rect x="61" y="61" width="378" height="18" fill="#F3D899" /><rect x="61" y="79" width="378" height="18" fill="#F3D899" /><rect x="61" y="97" width="216" height="18" fill="#F3D899" /><rect x="349" y="97" width="90" height="18" fill="#F3D899" /><rect x="61" y="115" width="54" height="18" fill="#F3D899" /><rect x="349" y="115" width="90" height="18" fill="#F3D899" /><rect x="61" y="133" width="54" height="18" fill="#F3D899" /><rect x="133" y="133" width="144" height="18" fill="#F3D899" /><rect x="349" y="133" width="90" height="18" fill="#F3D899" /><rect x="61" y="151" width="54" height="18" fill="#F3D899" /><rect x="133" y="151" width="72" height="18" fill="#F3D899" /><rect x="331" y="151" width="108" height="18" fill="#F3D899" /><rect x="61" y="169" width="54" height="18" fill="#F3D899" /><rect x="133" y="169" width="72" height="18" fill="#F3D899" /><rect x="331" y="169" width="108" height="18" fill="#F3D899" /><rect x="61" y="187" width="54" height="18" fill="#F3D899" /><rect x="133" y="187" width="72" height="18" fill="#F3D899" /><rect x="223" y="187" width="36" height="18" fill="#F3D899" /><rect x="277" y="187" width="36" height="18" fill="#F3D899" /><rect x="331" y="187" width="108" height="18" fill="#F3D899" /><rect x="61" y="205" width="18" height="18" fill="#F3D899" /><rect x="133" y="205" width="18" height="18" fill="#F3D899" /><rect x="187" y="205" width="18" height="18" fill="#F3D899" /><rect x="223" y="205" width="36" height="18" fill="#F3D899" /><rect x="277" y="205" width="36" height="18" fill="#F3D899" /><rect x="331" y="205" width="108" height="18" fill="#F3D899" /><rect x="61" y="223" width="18" height="18" fill="#F3D899" /><rect x="133" y="223" width="18" height="18" fill="#F3D899" /><rect x="187" y="223" width="18" height="18" fill="#F3D899" /><rect x="223" y="223" width="36" height="18" fill="#F3D899" /><rect x="277" y="223" width="36" height="18" fill="#F3D899" /><rect x="331" y="223" width="108" height="18" fill="#F3D899" /><rect x="61" y="241" width="18" height="18" fill="#F3D899" /><rect x="133" y="241" width="18" height="18" fill="#F3D899" /><rect x="187" y="241" width="18" height="18" fill="#F3D899" /><rect x="223" y="241" width="36" height="18" fill="#F3D899" /><rect x="277" y="241" width="36" height="18" fill="#F3D899" /><rect x="331" y="241" width="108" height="18" fill="#F3D899" /><rect x="61" y="259" width="18" height="18" fill="#F3D899" /><rect x="277" y="259" width="36" height="18" fill="#F3D899" /><rect x="331" y="259" width="108" height="18" fill="#F3D899" /><rect x="61" y="277" width="18" height="18" fill="#F3D899" /><rect x="133" y="277" width="18" height="18" fill="#F3D899" /><rect x="277" y="277" width="36" height="18" fill="#F3D899" /><rect x="331" y="277" width="108" height="18" fill="#F3D899" /><rect x="61" y="295" width="18" height="18" fill="#F3D899" /><rect x="133" y="295" width="18" height="18" fill="#F3D899" /><rect x="295" y="295" width="18" height="18" fill="#F3D899" /><rect x="331" y="295" width="108" height="18" fill="#F3D899" /><rect x="61" y="313" width="36" height="18" fill="#F3D899" /><rect x="115" y="313" width="36" height="18" fill="#F3D899" /><rect x="295" y="313" width="18" height="18" fill="#F3D899" /><rect x="331" y="313" width="108" height="18" fill="#F3D899" /><rect x="61" y="331" width="36" height="18" fill="#F3D899" /><rect x="385" y="331" width="54" height="18" fill="#F3D899" /><rect x="61" y="349" width="36" height="18" fill="#F3D899" /><rect x="385" y="349" width="54" height="18" fill="#F3D899" /><rect x="61" y="367" width="126" height="18" fill="#F3D899" /><rect x="385" y="367" width="54" height="18" fill="#F3D899" /><rect x="61" y="385" width="126" height="18" fill="#F3D899" /><rect x="259" y="385" width="18" height="18" fill="#F3D899" /><rect x="385" y="385" width="54" height="18" fill="#F3D899" /><rect x="61" y="403" width="378" height="18" fill="#F3D899" /><rect x="61" y="421" width="378" height="18" fill="#F3D899" /><rect x="205" y="295" width="18" height="18" fill="#006669" /><rect x="115" y="223" width="18" height="18" fill="#006669" /><rect x="169" y="115" width="18" height="18" fill="#3C2A1A" /></svg>