<svg xmlns="http://www.w3.org/2000/svg" preserveAspectRatio="xMinYMin meet" viewBox="0 0 500 500" shape-rendering="crispEdges" transform-origin="center"><rect width="100%" height="100%" fill="#36230F" /><g transform="scale (5 5)"><rect x="11" y="-1" width="78" height="9" stroke-width="0.3" stroke="black" fill="#FFA800" /><text x="50" y="5.5" width="69" font-family="monospace" font-size="5" text-anchor="middle">Inner Steppes of Wisdom</text></g><rect x="58" y="58" width="384" height="16" fill="#744936" /><rect x="58" y="74" width="384" height="16" fill="#744936" /><rect x="58" y="90" width="48" height="16" fill="#744936" /><rect x="170" y="90" width="272" height="16" fill="#744936" /><rect x="58" y="106" width="48" height="16" fill="#744936" /><rect x="170" y="106" width="64" height="16" fill="#744936" /><rect x="346" y="106" width="96" height="16" fill="#744936" /><rect x="58" y="122" width="48" height="16" fill="#744936" /><rect x="122" y="122" width="16" height="16" fill="#744936" /><rect x="154" y="122" width="80" height="16" fill="#744936" /><rect x="346" y="122" width="96" height="16" fill="#744936" /><rect x="58" y="138" width="48" height="16" fill="#744936" /><rect x="122" y="138" width="16" height="16" fill="#744936" /><rect x="154" y="138" width="80" height="16" fill="#744936" /><rect x="346" y="138" width="96" height="16" fill="#744936" /><rect x="58" y="154" width="48" height="16" fill="#744936" /><rect x="346" y="154" width="96" height="16" fill="#744936" /><rect x="58" y="170" width="48" height="16" fill="#744936" /><rect x="218" y="170" width="16" height="16" fill="#744936" /><rect x="346" y="170" width="96" height="16" fill="#744936" /><rect x="58" y="186" width="48" height="16" fill="#744936" /><rect x="218" y="186" width="16" height="16" fill="#744936" /><rect x="346" y="186" width="96" height="16" fill="#744936" /><rect x="58" y="202" width="48" height="16" fill="#744936" /><rect x="218" y="202" width="64" height="16" fill="#744936" /><rect x="298" y="202" width="144" height="16" fill="#744936" /><rect x="58" y="218" width="48" height="16" fill="#744936" /><rect x="218" y="218" width="64" height="16" fill="#744936" /><rect x="362" y="218" width="80" height="16" fill="#744936" /><rect x="58" y="234" width="48" height="16" fill="#744936" /><rect x="218" y="234" width="64" height="16" fill="#744936" /><rect x="362" y="234" width="80" height="16" fill="#744936" /><rect x="58" y="250" width="48" height="16" fill="#744936" /><rect x="234" y="250" width="64" height="16" fill="#744936" /><rect x="362" y="250" width="80" height="16" fill="#744936" /><rect x="58" y="266" width="16" height="16" fill="#744936" /><rect x="234" y="266" width="96" height="16" fill="#744936" /><rect x="346" y="266" width="96" height="16" fill="#744936" /><rect x="58" y="282" width="16" height="16" fill="#744936" /><rect x="346" y="282" width="96" height="16" fill="#744936" /><rect x="58" y="298" width="16" height="16" fill="#744936" /><rect x="234" y="298" width="48" height="16" fill="#744936" /><rect x="346" y="298" width="96" height="16" fill="#744936" /><rect x="58" y="314" width="32" height="16" fill="#744936" /><rect x="250" y="314" width="32" height="16" fill="#744936" /><rect x="346" y="314" width="96" height="16" fill="#744936" /><rect x="58" y="330" width="32" height="16" fill="#744936" /><rect x="250" y="330" width="32" height="16" fill="#744936" /><rect x="330" y="330" width="112" height="16" fill="#744936" /><rect x="58" y="346" width="32" height="16" fill="#744936" /><rect x="250" y="346" width="32" height="16" fill="#744936" /><rect x="330" y="346" width="112" height="16" fill="#744936" /><rect x="58" y="362" width="32" height="16" fill="#744936" /><rect x="250" y="362" width="32" height="16" fill="#744936" /><rect x="330" y="362" width="112" height="16" fill="#744936" /><rect x="58" y="378" width="32" height="16" fill="#744936" /><rect x="186" y="378" width="96" height="16" fill="#744936" /><rect x="330" y="378" width="112" height="16" fill="#744936" /><rect x="58" y="394" width="64" height="16" fill="#744936" /><rect x="186" y="394" width="256" height="16" fill="#744936" /><rect x="58" y="410" width="384" height="16" fill="#744936" /><rect x="58" y="426" width="384" height="16" fill="#744936" /><rect x="154" y="378" width="16" height="16" fill="#FFA800" /><rect x="218" y="362" width="16" height="16" fill="#FFA800" /><rect x="298" y="314" width="16" height="16" fill="#FFA800" /><rect x="330" y="282" width="16" height="16" fill="#802F1A" /><rect x="234" y="282" width="16" height="16" fill="#802F1A" /><rect x="186" y="186" width="16" height="16" fill="#FFA800" /><rect x="154" y="186" width="16" height="16" fill="#FFA800" /><rect x="186" y="154" width="16" height="16" fill="#FFA800" /><rect x="138" y="138" width="16" height="16" fill="#802F1A" /><rect x="234" y="122" width="16" height="16" fill="#FFA800" /><rect x="154" y="90" width="16" height="16" fill="#FFA800" /></svg>