<svg xmlns="http://www.w3.org/2000/svg" preserveAspectRatio="xMinYMin meet" viewBox="0 0 500 500" shape-rendering="crispEdges" transform-origin="center"><rect width="100%" height="100%" fill="#967E67" /><g transform="scale (5 5)"><rect x="24" y="-1" width="51" height="9" stroke-width="0.3" stroke="black" fill="#FFA800" /><text x="50" y="5.5" width="42" font-family="monospace" font-size="5" text-anchor="middle">Siren's Temple</text></g><rect x="63" y="63" width="85" height="17" fill="#F3D899" /><rect x="165" y="63" width="272" height="17" fill="#F3D899" /><rect x="63" y="80" width="34" height="17" fill="#F3D899" /><rect x="114" y="80" width="34" height="17" fill="#F3D899" /><rect x="182" y="80" width="68" height="17" fill="#F3D899" /><rect x="284" y="80" width="17" height="17" fill="#F3D899" /><rect x="318" y="80" width="17" height="17" fill="#F3D899" /><rect x="352" y="80" width="17" height="17" fill="#F3D899" /><rect x="386" y="80" width="51" height="17" fill="#F3D899" /><rect x="63" y="97" width="34" height="17" fill="#F3D899" /><rect x="114" y="97" width="51" height="17" fill="#F3D899" /><rect x="216" y="97" width="34" height="17" fill="#F3D899" /><rect x="318" y="97" width="17" height="17" fill="#F3D899" /><rect x="352" y="97" width="17" height="17" fill="#F3D899" /><rect x="386" y="97" width="51" height="17" fill="#F3D899" /><rect x="63" y="114" width="34" height="17" fill="#F3D899" /><rect x="131" y="114" width="119" height="17" fill="#F3D899" /><rect x="267" y="114" width="17" height="17" fill="#F3D899" /><rect x="386" y="114" width="51" height="17" fill="#F3D899" /><rect x="63" y="131" width="187" height="17" fill="#F3D899" /><rect x="301" y="131" width="17" height="17" fill="#F3D899" /><rect x="386" y="131" width="51" height="17" fill="#F3D899" /><rect x="63" y="148" width="187" height="17" fill="#F3D899" /><rect x="267" y="148" width="51" height="17" fill="#F3D899" /><rect x="386" y="148" width="51" height="17" fill="#F3D899" /><rect x="63" y="165" width="170" height="17" fill="#F3D899" /><rect x="284" y="165" width="51" height="17" fill="#F3D899" /><rect x="403" y="165" width="34" height="17" fill="#F3D899" /><rect x="63" y="182" width="204" height="17" fill="#F3D899" /><rect x="284" y="182" width="51" height="17" fill="#F3D899" /><rect x="386" y="182" width="51" height="17" fill="#F3D899" /><rect x="63" y="199" width="187" height="17" fill="#F3D899" /><rect x="284" y="199" width="34" height="17" fill="#F3D899" /><rect x="386" y="199" width="51" height="17" fill="#F3D899" /><rect x="63" y="216" width="187" height="17" fill="#F3D899" /><rect x="284" y="216" width="34" height="17" fill="#F3D899" /><rect x="352" y="216" width="85" height="17" fill="#F3D899" /><rect x="63" y="233" width="204" height="17" fill="#F3D899" /><rect x="284" y="233" width="51" height="17" fill="#F3D899" /><rect x="352" y="233" width="85" height="17" fill="#F3D899" /><rect x="63" y="250" width="204" height="17" fill="#F3D899" /><rect x="284" y="250" width="51" height="17" fill="#F3D899" /><rect x="352" y="250" width="85" height="17" fill="#F3D899" /><rect x="63" y="267" width="204" height="17" fill="#F3D899" /><rect x="301" y="267" width="136" height="17" fill="#F3D899" /><rect x="63" y="284" width="170" height="17" fill="#F3D899" /><rect x="301" y="284" width="136" height="17" fill="#F3D899" /><rect x="63" y="301" width="17" height="17" fill="#F3D899" /><rect x="97" y="301" width="340" height="17" fill="#F3D899" /><rect x="63" y="318" width="17" height="17" fill="#F3D899" /><rect x="97" y="318" width="340" height="17" fill="#F3D899" /><rect x="63" y="335" width="0" height="17" fill="#F3D899" /><rect x="97" y="335" width="340" height="17" fill="#F3D899" /><rect x="63" y="352" width="17" height="17" fill="#F3D899" /><rect x="97" y="352" width="340" height="17" fill="#F3D899" /><rect x="63" y="369" width="374" height="17" fill="#F3D899" /><rect x="63" y="386" width="374" height="17" fill="#F3D899" /><rect x="63" y="403" width="374" height="17" fill="#F3D899" /><rect x="63" y="420" width="374" height="17" fill="#F3D899" /><rect x="63" y="335" width="17" height="17" fill="#006669" /><rect x="369" y="182" width="17" height="17" fill="#3C2A1A" /><rect x="369" y="165" width="17" height="17" fill="#3C2A1A" /><rect x="352" y="165" width="17" height="17" fill="#3C2A1A" /><rect x="335" y="148" width="17" height="17" fill="#3C2A1A" /><rect x="369" y="114" width="17" height="17" fill="#3C2A1A" /><rect x="97" y="114" width="17" height="17" fill="#3C2A1A" /><rect x="165" y="80" width="17" height="17" fill="#006669" /></svg>