<svg xmlns="http://www.w3.org/2000/svg" preserveAspectRatio="xMinYMin meet" viewBox="0 0 500 500" shape-rendering="crispEdges" transform-origin="center"><rect width="100%" height="100%" fill="#006669" /><g transform="scale (5 5)"><rect x="12" y="-1" width="76" height="9" stroke-width="0.3" stroke="black" fill="#FFA800" /><text x="50" y="5.5" width="105" font-family="monospace" font-size="4" text-anchor="middle">Corrupted Prison of the Tear</text></g><rect x="60" y="60" width="380" height="20" fill="#004238" /><rect x="60" y="80" width="160" height="20" fill="#004238" /><rect x="260" y="80" width="180" height="20" fill="#004238" /><rect x="60" y="100" width="80" height="20" fill="#004238" /><rect x="260" y="100" width="180" height="20" fill="#004238" /><rect x="60" y="120" width="80" height="20" fill="#004238" /><rect x="160" y="120" width="60" height="20" fill="#004238" /><rect x="260" y="120" width="180" height="20" fill="#004238" /><rect x="60" y="140" width="60" height="20" fill="#004238" /><rect x="200" y="140" width="40" height="20" fill="#004238" /><rect x="260" y="140" width="180" height="20" fill="#004238" /><rect x="60" y="160" width="60" height="20" fill="#004238" /><rect x="200" y="160" width="40" height="20" fill="#004238" /><rect x="260" y="160" width="180" height="20" fill="#004238" /><rect x="60" y="180" width="60" height="20" fill="#004238" /><rect x="180" y="180" width="60" height="20" fill="#004238" /><rect x="320" y="180" width="120" height="20" fill="#004238" /><rect x="60" y="200" width="60" height="20" fill="#004238" /><rect x="180" y="200" width="60" height="20" fill="#004238" /><rect x="320" y="200" width="120" height="20" fill="#004238" /><rect x="60" y="220" width="60" height="20" fill="#004238" /><rect x="180" y="220" width="80" height="20" fill="#004238" /><rect x="320" y="220" width="120" height="20" fill="#004238" /><rect x="60" y="240" width="220" height="20" fill="#004238" /><rect x="300" y="240" width="140" height="20" fill="#004238" /><rect x="60" y="260" width="220" height="20" fill="#004238" /><rect x="300" y="260" width="140" height="20" fill="#004238" /><rect x="60" y="280" width="220" height="20" fill="#004238" /><rect x="300" y="280" width="140" height="20" fill="#004238" /><rect x="60" y="300" width="220" height="20" fill="#004238" /><rect x="300" y="300" width="140" height="20" fill="#004238" /><rect x="60" y="320" width="160" height="20" fill="#004238" /><rect x="320" y="320" width="120" height="20" fill="#004238" /><rect x="60" y="340" width="60" height="20" fill="#004238" /><rect x="160" y="340" width="60" height="20" fill="#004238" /><rect x="320" y="340" width="120" height="20" fill="#004238" /><rect x="60" y="360" width="60" height="20" fill="#004238" /><rect x="320" y="360" width="120" height="20" fill="#004238" /><rect x="60" y="380" width="60" height="20" fill="#004238" /><rect x="160" y="380" width="60" height="20" fill="#004238" /><rect x="320" y="380" width="120" height="20" fill="#004238" /><rect x="60" y="400" width="380" height="20" fill="#004238" /><rect x="60" y="420" width="380" height="20" fill="#004238" /><rect x="260" y="360" width="20" height="20" fill="#F9B569" /><rect x="280" y="220" width="20" height="20" fill="#F9B569" /><rect x="300" y="180" width="20" height="20" fill="#F9B569" /><rect x="240" y="120" width="20" height="20" fill="#F9B569" /></svg>