<svg xmlns="http://www.w3.org/2000/svg" preserveAspectRatio="xMinYMin meet" viewBox="0 0 500 500" shape-rendering="crispEdges" transform-origin="center"><rect width="100%" height="100%" fill="#967E67" /><g transform="scale (5 5)"><rect x="24" y="-1" width="51" height="9" stroke-width="0.3" stroke="black" fill="#FFA800" /><text x="50" y="5.5" width="42" font-family="monospace" font-size="5" text-anchor="middle">Outer Mountain</text></g><rect x="58" y="58" width="320" height="16" fill="#F3D899" /><rect x="394" y="58" width="48" height="16" fill="#F3D899" /><rect x="58" y="74" width="272" height="16" fill="#F3D899" /><rect x="394" y="74" width="48" height="16" fill="#F3D899" /><rect x="58" y="90" width="288" height="16" fill="#F3D899" /><rect x="410" y="90" width="32" height="16" fill="#F3D899" /><rect x="58" y="106" width="176" height="16" fill="#F3D899" /><rect x="250" y="106" width="80" height="16" fill="#F3D899" /><rect x="362" y="106" width="16" height="16" fill="#F3D899" /><rect x="394" y="106" width="48" height="16" fill="#F3D899" /><rect x="58" y="122" width="176" height="16" fill="#F3D899" /><rect x="250" y="122" width="80" height="16" fill="#F3D899" /><rect x="410" y="122" width="32" height="16" fill="#F3D899" /><rect x="58" y="138" width="160" height="16" fill="#F3D899" /><rect x="250" y="138" width="112" height="16" fill="#F3D899" /><rect x="378" y="138" width="16" height="16" fill="#F3D899" /><rect x="410" y="138" width="32" height="16" fill="#F3D899" /><rect x="58" y="154" width="160" height="16" fill="#F3D899" /><rect x="250" y="154" width="48" height="16" fill="#F3D899" /><rect x="410" y="154" width="32" height="16" fill="#F3D899" /><rect x="58" y="170" width="16" height="16" fill="#F3D899" /><rect x="426" y="170" width="16" height="16" fill="#F3D899" /><rect x="58" y="186" width="160" height="16" fill="#F3D899" /><rect x="250" y="186" width="96" height="16" fill="#F3D899" /><rect x="362" y="186" width="32" height="16" fill="#F3D899" /><rect x="410" y="186" width="32" height="16" fill="#F3D899" /><rect x="58" y="202" width="160" height="16" fill="#F3D899" /><rect x="250" y="202" width="96" height="16" fill="#F3D899" /><rect x="362" y="202" width="16" height="16" fill="#F3D899" /><rect x="410" y="202" width="32" height="16" fill="#F3D899" /><rect x="58" y="218" width="160" height="16" fill="#F3D899" /><rect x="250" y="218" width="80" height="16" fill="#F3D899" /><rect x="362" y="218" width="16" height="16" fill="#F3D899" /><rect x="394" y="218" width="48" height="16" fill="#F3D899" /><rect x="58" y="234" width="144" height="16" fill="#F3D899" /><rect x="250" y="234" width="80" height="16" fill="#F3D899" /><rect x="410" y="234" width="32" height="16" fill="#F3D899" /><rect x="58" y="250" width="0" height="16" fill="#F3D899" /><rect x="74" y="250" width="112" height="16" fill="#F3D899" /><rect x="282" y="250" width="48" height="16" fill="#F3D899" /><rect x="394" y="250" width="48" height="16" fill="#F3D899" /><rect x="58" y="266" width="112" height="16" fill="#F3D899" /><rect x="218" y="266" width="16" height="16" fill="#F3D899" /><rect x="282" y="266" width="48" height="16" fill="#F3D899" /><rect x="362" y="266" width="16" height="16" fill="#F3D899" /><rect x="426" y="266" width="16" height="16" fill="#F3D899" /><rect x="58" y="282" width="112" height="16" fill="#F3D899" /><rect x="282" y="282" width="64" height="16" fill="#F3D899" /><rect x="410" y="282" width="32" height="16" fill="#F3D899" /><rect x="58" y="298" width="96" height="16" fill="#F3D899" /><rect x="202" y="298" width="64" height="16" fill="#F3D899" /><rect x="298" y="298" width="48" height="16" fill="#F3D899" /><rect x="378" y="298" width="16" height="16" fill="#F3D899" /><rect x="410" y="298" width="32" height="16" fill="#F3D899" /><rect x="58" y="314" width="96" height="16" fill="#F3D899" /><rect x="234" y="314" width="48" height="16" fill="#F3D899" /><rect x="298" y="314" width="48" height="16" fill="#F3D899" /><rect x="410" y="314" width="32" height="16" fill="#F3D899" /><rect x="58" y="330" width="112" height="16" fill="#F3D899" /><rect x="186" y="330" width="32" height="16" fill="#F3D899" /><rect x="298" y="330" width="32" height="16" fill="#F3D899" /><rect x="426" y="330" width="16" height="16" fill="#F3D899" /><rect x="58" y="346" width="112" height="16" fill="#F3D899" /><rect x="202" y="346" width="64" height="16" fill="#F3D899" /><rect x="298" y="346" width="32" height="16" fill="#F3D899" /><rect x="394" y="346" width="16" height="16" fill="#F3D899" /><rect x="58" y="362" width="128" height="16" fill="#F3D899" /><rect x="218" y="362" width="32" height="16" fill="#F3D899" /><rect x="298" y="362" width="32" height="16" fill="#F3D899" /><rect x="346" y="362" width="16" height="16" fill="#F3D899" /><rect x="58" y="378" width="128" height="16" fill="#F3D899" /><rect x="218" y="378" width="32" height="16" fill="#F3D899" /><rect x="266" y="378" width="16" height="16" fill="#F3D899" /><rect x="298" y="378" width="16" height="16" fill="#F3D899" /><rect x="362" y="378" width="32" height="16" fill="#F3D899" /><rect x="58" y="394" width="112" height="16" fill="#F3D899" /><rect x="218" y="394" width="32" height="16" fill="#F3D899" /><rect x="266" y="394" width="16" height="16" fill="#F3D899" /><rect x="298" y="394" width="16" height="16" fill="#F3D899" /><rect x="362" y="394" width="32" height="16" fill="#F3D899" /><rect x="410" y="394" width="32" height="16" fill="#F3D899" /><rect x="58" y="410" width="112" height="16" fill="#F3D899" /><rect x="186" y="410" width="16" height="16" fill="#F3D899" /><rect x="266" y="410" width="16" height="16" fill="#F3D899" /><rect x="362" y="410" width="32" height="16" fill="#F3D899" /><rect x="410" y="410" width="32" height="16" fill="#F3D899" /><rect x="58" y="426" width="112" height="16" fill="#F3D899" /><rect x="234" y="426" width="48" height="16" fill="#F3D899" /><rect x="362" y="426" width="32" height="16" fill="#F3D899" /><rect x="410" y="426" width="32" height="16" fill="#F3D899" /><rect x="410" y="346" width="16" height="16" fill="#3C2A1A" /><rect x="218" y="314" width="16" height="16" fill="#3C2A1A" /><rect x="170" y="282" width="16" height="16" fill="#3C2A1A" /><rect x="330" y="266" width="16" height="16" fill="#006669" /><rect x="378" y="250" width="16" height="16" fill="#3C2A1A" /><rect x="330" y="218" width="16" height="16" fill="#006669" /><rect x="186" y="170" width="16" height="16" fill="#006669" /><rect x="362" y="74" width="16" height="16" fill="#006669" /></svg>