<svg xmlns="http://www.w3.org/2000/svg" preserveAspectRatio="xMinYMin meet" viewBox="0 0 500 500" shape-rendering="crispEdges" transform-origin="center"><rect width="100%" height="100%" fill="#36230F" /><g transform="scale (5 5)"><rect x="13" y="-1" width="74" height="9" stroke-width="0.3" stroke="black" fill="#FFA800" /><text x="50" y="5.5" width="102" font-family="monospace" font-size="4" text-anchor="middle">Holy Labyrinth of the Beast</text></g><rect x="74" y="74" width="352" height="22" fill="#744936" /><rect x="74" y="96" width="176" height="22" fill="#744936" /><rect x="382" y="96" width="44" height="22" fill="#744936" /><rect x="74" y="118" width="176" height="22" fill="#744936" /><rect x="338" y="118" width="22" height="22" fill="#744936" /><rect x="382" y="118" width="44" height="22" fill="#744936" /><rect x="74" y="140" width="176" height="22" fill="#744936" /><rect x="272" y="140" width="22" height="22" fill="#744936" /><rect x="382" y="140" width="44" height="22" fill="#744936" /><rect x="74" y="162" width="176" height="22" fill="#744936" /><rect x="316" y="162" width="110" height="22" fill="#744936" /><rect x="74" y="184" width="198" height="22" fill="#744936" /><rect x="338" y="184" width="88" height="22" fill="#744936" /><rect x="74" y="206" width="242" height="22" fill="#744936" /><rect x="338" y="206" width="88" height="22" fill="#744936" /><rect x="74" y="228" width="242" height="22" fill="#744936" /><rect x="338" y="228" width="88" height="22" fill="#744936" /><rect x="74" y="250" width="352" height="22" fill="#744936" /><rect x="74" y="272" width="0" height="22" fill="#744936" /><rect x="96" y="272" width="330" height="22" fill="#744936" /><rect x="74" y="294" width="352" height="22" fill="#744936" /><rect x="74" y="316" width="352" height="22" fill="#744936" /><rect x="74" y="338" width="22" height="22" fill="#744936" /><rect x="118" y="338" width="308" height="22" fill="#744936" /><rect x="74" y="360" width="22" height="22" fill="#744936" /><rect x="118" y="360" width="308" height="22" fill="#744936" /><rect x="74" y="382" width="22" height="22" fill="#744936" /><rect x="118" y="382" width="308" height="22" fill="#744936" /><rect x="74" y="404" width="0" height="22" fill="#744936" /><rect x="118" y="404" width="308" height="22" fill="#744936" /><rect x="316" y="228" width="22" height="22" fill="#FFA800" /><rect x="360" y="96" width="22" height="22" fill="#802F1A" /></svg>