<svg xmlns="http://www.w3.org/2000/svg" preserveAspectRatio="xMinYMin meet" viewBox="0 0 500 500" shape-rendering="crispEdges" transform-origin="center"><rect width="100%" height="100%" fill="#2F590E" /><g transform="scale (5 5)"><rect x="32" y="-1" width="36" height="9" stroke-width="0.3" stroke="black" fill="#FFA800" /><text x="50" y="5.5" width="27" font-family="monospace" font-size="5" text-anchor="middle">Labyrinth</text></g><rect x="60" y="60" width="380" height="19" fill="#A98C00" /><rect x="60" y="79" width="57" height="19" fill="#A98C00" /><rect x="212" y="79" width="38" height="19" fill="#A98C00" /><rect x="288" y="79" width="19" height="19" fill="#A98C00" /><rect x="345" y="79" width="19" height="19" fill="#A98C00" /><rect x="383" y="79" width="57" height="19" fill="#A98C00" /><rect x="60" y="98" width="19" height="19" fill="#A98C00" /><rect x="117" y="98" width="19" height="19" fill="#A98C00" /><rect x="174" y="98" width="57" height="19" fill="#A98C00" /><rect x="269" y="98" width="38" height="19" fill="#A98C00" /><rect x="345" y="98" width="19" height="19" fill="#A98C00" /><rect x="383" y="98" width="57" height="19" fill="#A98C00" /><rect x="60" y="117" width="19" height="19" fill="#A98C00" /><rect x="98" y="117" width="19" height="19" fill="#A98C00" /><rect x="174" y="117" width="57" height="19" fill="#A98C00" /><rect x="383" y="117" width="57" height="19" fill="#A98C00" /><rect x="60" y="136" width="19" height="19" fill="#A98C00" /><rect x="174" y="136" width="114" height="19" fill="#A98C00" /><rect x="345" y="136" width="19" height="19" fill="#A98C00" /><rect x="383" y="136" width="57" height="19" fill="#A98C00" /><rect x="60" y="155" width="19" height="19" fill="#A98C00" /><rect x="174" y="155" width="133" height="19" fill="#A98C00" /><rect x="383" y="155" width="57" height="19" fill="#A98C00" /><rect x="60" y="174" width="19" height="19" fill="#A98C00" /><rect x="98" y="174" width="19" height="19" fill="#A98C00" /><rect x="212" y="174" width="95" height="19" fill="#A98C00" /><rect x="364" y="174" width="76" height="19" fill="#A98C00" /><rect x="60" y="193" width="19" height="19" fill="#A98C00" /><rect x="98" y="193" width="19" height="19" fill="#A98C00" /><rect x="136" y="193" width="19" height="19" fill="#A98C00" /><rect x="193" y="193" width="133" height="19" fill="#A98C00" /><rect x="402" y="193" width="19" height="19" fill="#A98C00" /><rect x="60" y="212" width="57" height="19" fill="#A98C00" /><rect x="174" y="212" width="152" height="19" fill="#A98C00" /><rect x="345" y="212" width="38" height="19" fill="#A98C00" /><rect x="402" y="212" width="19" height="19" fill="#A98C00" /><rect x="60" y="231" width="19" height="19" fill="#A98C00" /><rect x="174" y="231" width="152" height="19" fill="#A98C00" /><rect x="345" y="231" width="38" height="19" fill="#A98C00" /><rect x="421" y="231" width="19" height="19" fill="#A98C00" /><rect x="60" y="250" width="76" height="19" fill="#A98C00" /><rect x="193" y="250" width="133" height="19" fill="#A98C00" /><rect x="421" y="250" width="19" height="19" fill="#A98C00" /><rect x="60" y="269" width="57" height="19" fill="#A98C00" /><rect x="174" y="269" width="266" height="19" fill="#A98C00" /><rect x="60" y="288" width="57" height="19" fill="#A98C00" /><rect x="136" y="288" width="19" height="19" fill="#A98C00" /><rect x="193" y="288" width="247" height="19" fill="#A98C00" /><rect x="60" y="307" width="57" height="19" fill="#A98C00" /><rect x="136" y="307" width="19" height="19" fill="#A98C00" /><rect x="212" y="307" width="228" height="19" fill="#A98C00" /><rect x="60" y="326" width="19" height="19" fill="#A98C00" /><rect x="193" y="326" width="247" height="19" fill="#A98C00" /><rect x="60" y="345" width="38" height="19" fill="#A98C00" /><rect x="117" y="345" width="19" height="19" fill="#A98C00" /><rect x="193" y="345" width="247" height="19" fill="#A98C00" /><rect x="60" y="364" width="0" height="19" fill="#A98C00" /><rect x="79" y="364" width="19" height="19" fill="#A98C00" /><rect x="117" y="364" width="38" height="19" fill="#A98C00" /><rect x="193" y="364" width="247" height="19" fill="#A98C00" /><rect x="60" y="383" width="38" height="19" fill="#A98C00" /><rect x="117" y="383" width="38" height="19" fill="#A98C00" /><rect x="231" y="383" width="209" height="19" fill="#A98C00" /><rect x="60" y="402" width="95" height="19" fill="#A98C00" /><rect x="174" y="402" width="38" height="19" fill="#A98C00" /><rect x="231" y="402" width="209" height="19" fill="#A98C00" /><rect x="60" y="421" width="95" height="19" fill="#A98C00" /><rect x="174" y="421" width="266" height="19" fill="#A98C00" /><rect x="60" y="364" width="19" height="19" fill="#802F1A" /><rect x="193" y="307" width="19" height="19" fill="#802F1A" /><rect x="155" y="269" width="19" height="19" fill="#C55300" /><rect x="307" y="79" width="19" height="19" fill="#C55300" /><rect x="136" y="79" width="19" height="19" fill="#802F1A" /></svg>