<svg xmlns="http://www.w3.org/2000/svg" preserveAspectRatio="xMinYMin meet" viewBox="0 0 500 500" shape-rendering="crispEdges" transform-origin="center"><rect width="100%" height="100%" fill="#36230F" /><g transform="scale (5 5)"><rect x="13" y="-1" width="74" height="9" stroke-width="0.3" stroke="black" fill="#FFA800" /><text x="50" y="5.5" width="102" font-family="monospace" font-size="4" text-anchor="middle">Empyrean Gorge of Vengeance</text></g><rect x="54" y="54" width="391" height="17" fill="#744936" /><rect x="54" y="71" width="68" height="17" fill="#744936" /><rect x="173" y="71" width="68" height="17" fill="#744936" /><rect x="275" y="71" width="85" height="17" fill="#744936" /><rect x="394" y="71" width="51" height="17" fill="#744936" /><rect x="54" y="88" width="68" height="17" fill="#744936" /><rect x="207" y="88" width="34" height="17" fill="#744936" /><rect x="258" y="88" width="102" height="17" fill="#744936" /><rect x="394" y="88" width="51" height="17" fill="#744936" /><rect x="54" y="105" width="34" height="17" fill="#744936" /><rect x="275" y="105" width="68" height="17" fill="#744936" /><rect x="394" y="105" width="51" height="17" fill="#744936" /><rect x="54" y="122" width="34" height="17" fill="#744936" /><rect x="105" y="122" width="34" height="17" fill="#744936" /><rect x="190" y="122" width="51" height="17" fill="#744936" /><rect x="275" y="122" width="68" height="17" fill="#744936" /><rect x="394" y="122" width="51" height="17" fill="#744936" /><rect x="54" y="139" width="34" height="17" fill="#744936" /><rect x="105" y="139" width="34" height="17" fill="#744936" /><rect x="207" y="139" width="34" height="17" fill="#744936" /><rect x="258" y="139" width="68" height="17" fill="#744936" /><rect x="377" y="139" width="68" height="17" fill="#744936" /><rect x="54" y="156" width="34" height="17" fill="#744936" /><rect x="105" y="156" width="34" height="17" fill="#744936" /><rect x="173" y="156" width="17" height="17" fill="#744936" /><rect x="207" y="156" width="34" height="17" fill="#744936" /><rect x="258" y="156" width="34" height="17" fill="#744936" /><rect x="343" y="156" width="17" height="17" fill="#744936" /><rect x="394" y="156" width="51" height="17" fill="#744936" /><rect x="54" y="173" width="34" height="17" fill="#744936" /><rect x="105" y="173" width="34" height="17" fill="#744936" /><rect x="173" y="173" width="51" height="17" fill="#744936" /><rect x="275" y="173" width="34" height="17" fill="#744936" /><rect x="377" y="173" width="68" height="17" fill="#744936" /><rect x="54" y="190" width="34" height="17" fill="#744936" /><rect x="122" y="190" width="34" height="17" fill="#744936" /><rect x="173" y="190" width="68" height="17" fill="#744936" /><rect x="258" y="190" width="68" height="17" fill="#744936" /><rect x="360" y="190" width="85" height="17" fill="#744936" /><rect x="54" y="207" width="34" height="17" fill="#744936" /><rect x="105" y="207" width="34" height="17" fill="#744936" /><rect x="190" y="207" width="51" height="17" fill="#744936" /><rect x="275" y="207" width="34" height="17" fill="#744936" /><rect x="343" y="207" width="102" height="17" fill="#744936" /><rect x="54" y="224" width="34" height="17" fill="#744936" /><rect x="105" y="224" width="34" height="17" fill="#744936" /><rect x="156" y="224" width="102" height="17" fill="#744936" /><rect x="275" y="224" width="51" height="17" fill="#744936" /><rect x="360" y="224" width="85" height="17" fill="#744936" /><rect x="54" y="241" width="17" height="17" fill="#744936" /><rect x="105" y="241" width="34" height="17" fill="#744936" /><rect x="156" y="241" width="102" height="17" fill="#744936" /><rect x="275" y="241" width="51" height="17" fill="#744936" /><rect x="343" y="241" width="102" height="17" fill="#744936" /><rect x="54" y="258" width="34" height="17" fill="#744936" /><rect x="105" y="258" width="34" height="17" fill="#744936" /><rect x="156" y="258" width="102" height="17" fill="#744936" /><rect x="275" y="258" width="136" height="17" fill="#744936" /><rect x="54" y="275" width="34" height="17" fill="#744936" /><rect x="156" y="275" width="255" height="17" fill="#744936" /><rect x="428" y="275" width="17" height="17" fill="#744936" /><rect x="54" y="292" width="34" height="17" fill="#744936" /><rect x="156" y="292" width="255" height="17" fill="#744936" /><rect x="428" y="292" width="17" height="17" fill="#744936" /><rect x="54" y="309" width="68" height="17" fill="#744936" /><rect x="156" y="309" width="255" height="17" fill="#744936" /><rect x="428" y="309" width="17" height="17" fill="#744936" /><rect x="54" y="326" width="68" height="17" fill="#744936" /><rect x="173" y="326" width="272" height="17" fill="#744936" /><rect x="54" y="343" width="85" height="17" fill="#744936" /><rect x="207" y="343" width="238" height="17" fill="#744936" /><rect x="54" y="360" width="85" height="17" fill="#744936" /><rect x="173" y="360" width="272" height="17" fill="#744936" /><rect x="54" y="377" width="51" height="17" fill="#744936" /><rect x="173" y="377" width="272" height="17" fill="#744936" /><rect x="54" y="394" width="85" height="17" fill="#744936" /><rect x="190" y="394" width="255" height="17" fill="#744936" /><rect x="54" y="411" width="391" height="17" fill="#744936" /><rect x="54" y="428" width="391" height="17" fill="#744936" /><rect x="122" y="326" width="17" height="17" fill="#FFA800" /><rect x="139" y="292" width="17" height="17" fill="#FFA800" /><rect x="258" y="173" width="17" height="17" fill="#802F1A" /><rect x="241" y="173" width="17" height="17" fill="#802F1A" /><rect x="377" y="122" width="17" height="17" fill="#802F1A" /><rect x="360" y="122" width="17" height="17" fill="#802F1A" /><rect x="122" y="71" width="17" height="17" fill="#FFA800" /></svg>