<svg xmlns="http://www.w3.org/2000/svg" preserveAspectRatio="xMinYMin meet" viewBox="0 0 500 500" shape-rendering="crispEdges" transform-origin="center"><rect width="100%" height="100%" fill="#967E67" /><g transform="scale (5 5)"><rect x="11" y="-1" width="78" height="9" stroke-width="0.3" stroke="black" fill="#FFA800" /><text x="50" y="5.5" width="69" font-family="monospace" font-size="5" text-anchor="middle">Grim Forest of the Tear</text></g><rect x="107" y="81" width="312" height="26" fill="#F3D899" /><rect x="81" y="107" width="182" height="26" fill="#F3D899" /><rect x="341" y="107" width="78" height="26" fill="#F3D899" /><rect x="81" y="133" width="26" height="26" fill="#F3D899" /><rect x="159" y="133" width="52" height="26" fill="#F3D899" /><rect x="315" y="133" width="52" height="26" fill="#F3D899" /><rect x="237" y="159" width="130" height="26" fill="#F3D899" /><rect x="393" y="159" width="26" height="26" fill="#F3D899" /><rect x="81" y="185" width="104" height="26" fill="#F3D899" /><rect x="237" y="185" width="52" height="26" fill="#F3D899" /><rect x="341" y="185" width="26" height="26" fill="#F3D899" /><rect x="81" y="211" width="104" height="26" fill="#F3D899" /><rect x="81" y="237" width="208" height="26" fill="#F3D899" /><rect x="367" y="237" width="26" height="26" fill="#F3D899" /><rect x="81" y="263" width="338" height="26" fill="#F3D899" /><rect x="81" y="289" width="338" height="26" fill="#F3D899" /><rect x="81" y="315" width="338" height="26" fill="#F3D899" /><rect x="81" y="341" width="312" height="26" fill="#F3D899" /><rect x="81" y="367" width="338" height="26" fill="#F3D899" /><rect x="81" y="393" width="338" height="26" fill="#F3D899" /><rect x="393" y="211" width="26" height="26" fill="#3C2A1A" /><rect x="315" y="185" width="26" height="26" fill="#3C2A1A" /></svg>