<svg xmlns="http://www.w3.org/2000/svg" preserveAspectRatio="xMinYMin meet" viewBox="0 0 500 500" shape-rendering="crispEdges" transform-origin="center"><rect width="100%" height="100%" fill="#36230F" /><g transform="scale (5 5)"><rect x="12" y="-1" width="76" height="9" stroke-width="0.3" stroke="black" fill="#FFA800" /><text x="50" y="5.5" width="105" font-family="monospace" font-size="4" text-anchor="middle">Hidden Graveyard of the Tear</text></g><rect x="60" y="60" width="209" height="19" fill="#744936" /><rect x="288" y="60" width="57" height="19" fill="#744936" /><rect x="364" y="60" width="76" height="19" fill="#744936" /><rect x="60" y="79" width="114" height="19" fill="#744936" /><rect x="193" y="79" width="57" height="19" fill="#744936" /><rect x="288" y="79" width="57" height="19" fill="#744936" /><rect x="60" y="98" width="114" height="19" fill="#744936" /><rect x="193" y="98" width="76" height="19" fill="#744936" /><rect x="364" y="98" width="76" height="19" fill="#744936" /><rect x="60" y="117" width="285" height="19" fill="#744936" /><rect x="60" y="136" width="228" height="19" fill="#744936" /><rect x="60" y="155" width="152" height="19" fill="#744936" /><rect x="269" y="155" width="19" height="19" fill="#744936" /><rect x="326" y="155" width="57" height="19" fill="#744936" /><rect x="421" y="155" width="19" height="19" fill="#744936" /><rect x="60" y="174" width="152" height="19" fill="#744936" /><rect x="231" y="174" width="19" height="19" fill="#744936" /><rect x="307" y="174" width="133" height="19" fill="#744936" /><rect x="60" y="193" width="152" height="19" fill="#744936" /><rect x="231" y="193" width="209" height="19" fill="#744936" /><rect x="60" y="212" width="133" height="19" fill="#744936" /><rect x="231" y="212" width="190" height="19" fill="#744936" /><rect x="60" y="231" width="114" height="19" fill="#744936" /><rect x="250" y="231" width="19" height="19" fill="#744936" /><rect x="288" y="231" width="95" height="19" fill="#744936" /><rect x="60" y="250" width="152" height="19" fill="#744936" /><rect x="402" y="250" width="38" height="19" fill="#744936" /><rect x="60" y="269" width="209" height="19" fill="#744936" /><rect x="288" y="269" width="95" height="19" fill="#744936" /><rect x="60" y="288" width="323" height="19" fill="#744936" /><rect x="402" y="288" width="19" height="19" fill="#744936" /><rect x="60" y="307" width="304" height="19" fill="#744936" /><rect x="60" y="326" width="285" height="19" fill="#744936" /><rect x="383" y="326" width="57" height="19" fill="#744936" /><rect x="60" y="345" width="114" height="19" fill="#744936" /><rect x="231" y="345" width="114" height="19" fill="#744936" /><rect x="364" y="345" width="76" height="19" fill="#744936" /><rect x="60" y="364" width="19" height="19" fill="#744936" /><rect x="117" y="364" width="38" height="19" fill="#744936" /><rect x="193" y="364" width="19" height="19" fill="#744936" /><rect x="250" y="364" width="190" height="19" fill="#744936" /><rect x="60" y="383" width="38" height="19" fill="#744936" /><rect x="193" y="383" width="38" height="19" fill="#744936" /><rect x="288" y="383" width="152" height="19" fill="#744936" /><rect x="60" y="402" width="209" height="19" fill="#744936" /><rect x="307" y="402" width="19" height="19" fill="#744936" /><rect x="402" y="402" width="38" height="19" fill="#744936" /><rect x="60" y="421" width="209" height="19" fill="#744936" /><rect x="402" y="421" width="38" height="19" fill="#744936" /><rect x="212" y="364" width="19" height="19" fill="#802F1A" /><rect x="212" y="345" width="19" height="19" fill="#FFA800" /><rect x="383" y="136" width="19" height="19" fill="#FFA800" /><rect x="402" y="79" width="19" height="19" fill="#FFA800" /></svg>