<svg xmlns="http://www.w3.org/2000/svg" preserveAspectRatio="xMinYMin meet" viewBox="0 0 500 500" shape-rendering="crispEdges" transform-origin="center"><rect width="100%" height="100%" fill="#36230F" /><g transform="scale (5 5)"><rect x="36" y="-1" width="27" height="9" stroke-width="0.3" stroke="black" fill="#FFA800" /><text x="50" y="5.5" width="18" font-family="monospace" font-size="5" text-anchor="middle">Sewers</text></g><rect x="63" y="63" width="374" height="17" fill="#744936" /><rect x="63" y="80" width="153" height="17" fill="#744936" /><rect x="301" y="80" width="136" height="17" fill="#744936" /><rect x="63" y="97" width="85" height="17" fill="#744936" /><rect x="301" y="97" width="136" height="17" fill="#744936" /><rect x="63" y="114" width="51" height="17" fill="#744936" /><rect x="216" y="114" width="34" height="17" fill="#744936" /><rect x="267" y="114" width="170" height="17" fill="#744936" /><rect x="63" y="131" width="51" height="17" fill="#744936" /><rect x="250" y="131" width="187" height="17" fill="#744936" /><rect x="63" y="148" width="85" height="17" fill="#744936" /><rect x="182" y="148" width="255" height="17" fill="#744936" /><rect x="63" y="165" width="17" height="17" fill="#744936" /><rect x="182" y="165" width="255" height="17" fill="#744936" /><rect x="63" y="182" width="17" height="17" fill="#744936" /><rect x="267" y="182" width="170" height="17" fill="#744936" /><rect x="63" y="199" width="51" height="17" fill="#744936" /><rect x="131" y="199" width="17" height="17" fill="#744936" /><rect x="182" y="199" width="17" height="17" fill="#744936" /><rect x="267" y="199" width="17" height="17" fill="#744936" /><rect x="386" y="199" width="51" height="17" fill="#744936" /><rect x="63" y="216" width="34" height="17" fill="#744936" /><rect x="267" y="216" width="17" height="17" fill="#744936" /><rect x="386" y="216" width="51" height="17" fill="#744936" /><rect x="63" y="233" width="34" height="17" fill="#744936" /><rect x="386" y="233" width="51" height="17" fill="#744936" /><rect x="63" y="250" width="34" height="17" fill="#744936" /><rect x="267" y="250" width="17" height="17" fill="#744936" /><rect x="386" y="250" width="51" height="17" fill="#744936" /><rect x="63" y="267" width="34" height="17" fill="#744936" /><rect x="267" y="267" width="17" height="17" fill="#744936" /><rect x="386" y="267" width="51" height="17" fill="#744936" /><rect x="63" y="284" width="34" height="17" fill="#744936" /><rect x="199" y="284" width="34" height="17" fill="#744936" /><rect x="267" y="284" width="68" height="17" fill="#744936" /><rect x="352" y="284" width="85" height="17" fill="#744936" /><rect x="63" y="301" width="17" height="17" fill="#744936" /><rect x="165" y="301" width="17" height="17" fill="#744936" /><rect x="301" y="301" width="34" height="17" fill="#744936" /><rect x="352" y="301" width="85" height="17" fill="#744936" /><rect x="63" y="318" width="17" height="17" fill="#744936" /><rect x="165" y="318" width="17" height="17" fill="#744936" /><rect x="352" y="318" width="85" height="17" fill="#744936" /><rect x="63" y="335" width="17" height="17" fill="#744936" /><rect x="386" y="335" width="51" height="17" fill="#744936" /><rect x="63" y="352" width="17" height="17" fill="#744936" /><rect x="386" y="352" width="51" height="17" fill="#744936" /><rect x="63" y="369" width="17" height="17" fill="#744936" /><rect x="233" y="369" width="85" height="17" fill="#744936" /><rect x="386" y="369" width="51" height="17" fill="#744936" /><rect x="63" y="386" width="17" height="17" fill="#744936" /><rect x="131" y="386" width="17" height="17" fill="#744936" /><rect x="233" y="386" width="85" height="17" fill="#744936" /><rect x="386" y="386" width="51" height="17" fill="#744936" /><rect x="63" y="403" width="374" height="17" fill="#744936" /><rect x="63" y="420" width="374" height="17" fill="#744936" /><rect x="199" y="386" width="17" height="17" fill="#FFA800" /><rect x="97" y="250" width="17" height="17" fill="#FFA800" /><rect x="148" y="216" width="17" height="17" fill="#FFA800" /><rect x="114" y="199" width="17" height="17" fill="#802F1A" /><rect x="250" y="80" width="17" height="17" fill="#FFA800" /></svg>