<svg xmlns="http://www.w3.org/2000/svg" preserveAspectRatio="xMinYMin meet" viewBox="0 0 500 500" shape-rendering="crispEdges" transform-origin="center"><rect width="100%" height="100%" fill="#340D07" /><g transform="scale (5 5)"><rect x="9" y="-1" width="81" height="9" stroke-width="0.3" stroke="black" fill="#FFA800" /><text x="50" y="5.5" width="72" font-family="monospace" font-size="5" text-anchor="middle">Hidden Oasis of Loathing</text></g><rect x="58" y="58" width="384" height="16" fill="#5D0503" /><rect x="58" y="74" width="224" height="16" fill="#5D0503" /><rect x="314" y="74" width="128" height="16" fill="#5D0503" /><rect x="58" y="90" width="144" height="16" fill="#5D0503" /><rect x="314" y="90" width="128" height="16" fill="#5D0503" /><rect x="58" y="106" width="144" height="16" fill="#5D0503" /><rect x="218" y="106" width="80" height="16" fill="#5D0503" /><rect x="314" y="106" width="128" height="16" fill="#5D0503" /><rect x="58" y="122" width="144" height="16" fill="#5D0503" /><rect x="218" y="122" width="80" height="16" fill="#5D0503" /><rect x="314" y="122" width="128" height="16" fill="#5D0503" /><rect x="58" y="138" width="144" height="16" fill="#5D0503" /><rect x="218" y="138" width="80" height="16" fill="#5D0503" /><rect x="314" y="138" width="128" height="16" fill="#5D0503" /><rect x="58" y="154" width="16" height="16" fill="#5D0503" /><rect x="106" y="154" width="96" height="16" fill="#5D0503" /><rect x="218" y="154" width="80" height="16" fill="#5D0503" /><rect x="314" y="154" width="128" height="16" fill="#5D0503" /><rect x="58" y="170" width="16" height="16" fill="#5D0503" /><rect x="138" y="170" width="64" height="16" fill="#5D0503" /><rect x="218" y="170" width="80" height="16" fill="#5D0503" /><rect x="314" y="170" width="128" height="16" fill="#5D0503" /><rect x="58" y="186" width="16" height="16" fill="#5D0503" /><rect x="106" y="186" width="16" height="16" fill="#5D0503" /><rect x="138" y="186" width="64" height="16" fill="#5D0503" /><rect x="218" y="186" width="80" height="16" fill="#5D0503" /><rect x="314" y="186" width="128" height="16" fill="#5D0503" /><rect x="58" y="202" width="16" height="16" fill="#5D0503" /><rect x="218" y="202" width="80" height="16" fill="#5D0503" /><rect x="314" y="202" width="128" height="16" fill="#5D0503" /><rect x="58" y="218" width="16" height="16" fill="#5D0503" /><rect x="250" y="218" width="48" height="16" fill="#5D0503" /><rect x="314" y="218" width="128" height="16" fill="#5D0503" /><rect x="58" y="234" width="16" height="16" fill="#5D0503" /><rect x="250" y="234" width="48" height="16" fill="#5D0503" /><rect x="314" y="234" width="128" height="16" fill="#5D0503" /><rect x="58" y="250" width="16" height="16" fill="#5D0503" /><rect x="250" y="250" width="48" height="16" fill="#5D0503" /><rect x="314" y="250" width="128" height="16" fill="#5D0503" /><rect x="58" y="266" width="16" height="16" fill="#5D0503" /><rect x="346" y="266" width="96" height="16" fill="#5D0503" /><rect x="58" y="282" width="16" height="16" fill="#5D0503" /><rect x="346" y="282" width="96" height="16" fill="#5D0503" /><rect x="58" y="298" width="16" height="16" fill="#5D0503" /><rect x="346" y="298" width="96" height="16" fill="#5D0503" /><rect x="58" y="314" width="16" height="16" fill="#5D0503" /><rect x="346" y="314" width="96" height="16" fill="#5D0503" /><rect x="58" y="330" width="16" height="16" fill="#5D0503" /><rect x="106" y="330" width="16" height="16" fill="#5D0503" /><rect x="282" y="330" width="16" height="16" fill="#5D0503" /><rect x="346" y="330" width="96" height="16" fill="#5D0503" /><rect x="58" y="346" width="16" height="16" fill="#5D0503" /><rect x="282" y="346" width="16" height="16" fill="#5D0503" /><rect x="346" y="346" width="96" height="16" fill="#5D0503" /><rect x="58" y="362" width="32" height="16" fill="#5D0503" /><rect x="282" y="362" width="16" height="16" fill="#5D0503" /><rect x="346" y="362" width="96" height="16" fill="#5D0503" /><rect x="58" y="378" width="64" height="16" fill="#5D0503" /><rect x="282" y="378" width="160" height="16" fill="#5D0503" /><rect x="58" y="394" width="80" height="16" fill="#5D0503" /><rect x="282" y="394" width="160" height="16" fill="#5D0503" /><rect x="58" y="410" width="384" height="16" fill="#5D0503" /><rect x="58" y="426" width="384" height="16" fill="#5D0503" /><rect x="266" y="394" width="16" height="16" fill="#FF1800" /><rect x="186" y="394" width="16" height="16" fill="#FF1800" /><rect x="186" y="202" width="16" height="16" fill="#FF1800" /><rect x="138" y="202" width="16" height="16" fill="#FF1800" /><rect x="90" y="202" width="16" height="16" fill="#FF1800" /><rect x="250" y="90" width="16" height="16" fill="#B75700" /></svg>