<svg xmlns="http://www.w3.org/2000/svg" preserveAspectRatio="xMinYMin meet" viewBox="0 0 500 500" shape-rendering="crispEdges" transform-origin="center"><rect width="100%" height="100%" fill="#2F590E" /><g transform="scale (5 5)"><rect x="30" y="-1" width="39" height="9" stroke-width="0.3" stroke="black" fill="#FFA800" /><text x="50" y="5.5" width="30" font-family="monospace" font-size="5" text-anchor="middle">Outer Peak</text></g><rect x="54" y="54" width="391" height="17" fill="#A98C00" /><rect x="54" y="71" width="391" height="17" fill="#A98C00" /><rect x="54" y="88" width="391" height="17" fill="#A98C00" /><rect x="54" y="105" width="391" height="17" fill="#A98C00" /><rect x="54" y="122" width="17" height="17" fill="#A98C00" /><rect x="122" y="122" width="323" height="17" fill="#A98C00" /><rect x="54" y="139" width="17" height="17" fill="#A98C00" /><rect x="377" y="139" width="68" height="17" fill="#A98C00" /><rect x="54" y="156" width="34" height="17" fill="#A98C00" /><rect x="105" y="156" width="187" height="17" fill="#A98C00" /><rect x="377" y="156" width="68" height="17" fill="#A98C00" /><rect x="54" y="173" width="34" height="17" fill="#A98C00" /><rect x="105" y="173" width="187" height="17" fill="#A98C00" /><rect x="377" y="173" width="68" height="17" fill="#A98C00" /><rect x="54" y="190" width="34" height="17" fill="#A98C00" /><rect x="105" y="190" width="187" height="17" fill="#A98C00" /><rect x="377" y="190" width="68" height="17" fill="#A98C00" /><rect x="54" y="207" width="34" height="17" fill="#A98C00" /><rect x="105" y="207" width="187" height="17" fill="#A98C00" /><rect x="377" y="207" width="68" height="17" fill="#A98C00" /><rect x="54" y="224" width="34" height="17" fill="#A98C00" /><rect x="105" y="224" width="187" height="17" fill="#A98C00" /><rect x="377" y="224" width="68" height="17" fill="#A98C00" /><rect x="54" y="241" width="34" height="17" fill="#A98C00" /><rect x="105" y="241" width="221" height="17" fill="#A98C00" /><rect x="343" y="241" width="17" height="17" fill="#A98C00" /><rect x="377" y="241" width="68" height="17" fill="#A98C00" /><rect x="54" y="258" width="34" height="17" fill="#A98C00" /><rect x="105" y="258" width="221" height="17" fill="#A98C00" /><rect x="343" y="258" width="17" height="17" fill="#A98C00" /><rect x="377" y="258" width="68" height="17" fill="#A98C00" /><rect x="54" y="275" width="34" height="17" fill="#A98C00" /><rect x="105" y="275" width="204" height="17" fill="#A98C00" /><rect x="411" y="275" width="34" height="17" fill="#A98C00" /><rect x="54" y="292" width="34" height="17" fill="#A98C00" /><rect x="105" y="292" width="68" height="17" fill="#A98C00" /><rect x="258" y="292" width="51" height="17" fill="#A98C00" /><rect x="411" y="292" width="34" height="17" fill="#A98C00" /><rect x="54" y="309" width="34" height="17" fill="#A98C00" /><rect x="105" y="309" width="68" height="17" fill="#A98C00" /><rect x="258" y="309" width="51" height="17" fill="#A98C00" /><rect x="411" y="309" width="34" height="17" fill="#A98C00" /><rect x="54" y="326" width="34" height="17" fill="#A98C00" /><rect x="105" y="326" width="51" height="17" fill="#A98C00" /><rect x="258" y="326" width="51" height="17" fill="#A98C00" /><rect x="411" y="326" width="34" height="17" fill="#A98C00" /><rect x="54" y="343" width="34" height="17" fill="#A98C00" /><rect x="105" y="343" width="51" height="17" fill="#A98C00" /><rect x="309" y="343" width="34" height="17" fill="#A98C00" /><rect x="394" y="343" width="51" height="17" fill="#A98C00" /><rect x="54" y="360" width="34" height="17" fill="#A98C00" /><rect x="105" y="360" width="51" height="17" fill="#A98C00" /><rect x="309" y="360" width="34" height="17" fill="#A98C00" /><rect x="394" y="360" width="51" height="17" fill="#A98C00" /><rect x="54" y="377" width="34" height="17" fill="#A98C00" /><rect x="309" y="377" width="136" height="17" fill="#A98C00" /><rect x="54" y="394" width="153" height="17" fill="#A98C00" /><rect x="309" y="394" width="136" height="17" fill="#A98C00" /><rect x="54" y="411" width="391" height="17" fill="#A98C00" /><rect x="54" y="428" width="391" height="17" fill="#A98C00" /><rect x="326" y="224" width="17" height="17" fill="#C55300" /><rect x="224" y="139" width="17" height="17" fill="#802F1A" /></svg>