<svg xmlns="http://www.w3.org/2000/svg" preserveAspectRatio="xMinYMin meet" viewBox="0 0 500 500" shape-rendering="crispEdges" transform-origin="center"><rect width="100%" height="100%" fill="#006669" /><g transform="scale (5 5)"><rect x="35" y="-1" width="30" height="9" stroke-width="0.3" stroke="black" fill="#FFA800" /><text x="50" y="5.5" width="21" font-family="monospace" font-size="5" text-anchor="middle">Landing</text></g><rect x="74" y="74" width="352" height="22" fill="#004238" /><rect x="74" y="96" width="352" height="22" fill="#004238" /><rect x="74" y="118" width="352" height="22" fill="#004238" /><rect x="74" y="140" width="22" height="22" fill="#004238" /><rect x="162" y="140" width="264" height="22" fill="#004238" /><rect x="74" y="162" width="22" height="22" fill="#004238" /><rect x="162" y="162" width="22" height="22" fill="#004238" /><rect x="272" y="162" width="154" height="22" fill="#004238" /><rect x="74" y="184" width="44" height="22" fill="#004238" /><rect x="140" y="184" width="44" height="22" fill="#004238" /><rect x="272" y="184" width="154" height="22" fill="#004238" /><rect x="74" y="206" width="22" height="22" fill="#004238" /><rect x="162" y="206" width="22" height="22" fill="#004238" /><rect x="272" y="206" width="154" height="22" fill="#004238" /><rect x="74" y="228" width="22" height="22" fill="#004238" /><rect x="162" y="228" width="66" height="22" fill="#004238" /><rect x="250" y="228" width="176" height="22" fill="#004238" /><rect x="74" y="250" width="22" height="22" fill="#004238" /><rect x="250" y="250" width="176" height="22" fill="#004238" /><rect x="74" y="272" width="22" height="22" fill="#004238" /><rect x="250" y="272" width="176" height="22" fill="#004238" /><rect x="74" y="294" width="44" height="22" fill="#004238" /><rect x="316" y="294" width="110" height="22" fill="#004238" /><rect x="74" y="316" width="88" height="22" fill="#004238" /><rect x="316" y="316" width="110" height="22" fill="#004238" /><rect x="74" y="338" width="88" height="22" fill="#004238" /><rect x="316" y="338" width="110" height="22" fill="#004238" /><rect x="74" y="360" width="176" height="22" fill="#004238" /><rect x="316" y="360" width="110" height="22" fill="#004238" /><rect x="74" y="382" width="352" height="22" fill="#004238" /><rect x="74" y="404" width="352" height="22" fill="#004238" /><rect x="118" y="272" width="22" height="22" fill="#F9B569" /><rect x="118" y="228" width="22" height="22" fill="#F9B569" /></svg>