<svg xmlns="http://www.w3.org/2000/svg" preserveAspectRatio="xMinYMin meet" viewBox="0 0 500 500" shape-rendering="crispEdges" transform-origin="center"><rect width="100%" height="100%" fill="#967E67" /><g transform="scale (5 5)"><rect x="9" y="-1" width="81" height="9" stroke-width="0.3" stroke="black" fill="#FFA800" /><text x="50" y="5.5" width="72" font-family="monospace" font-size="5" text-anchor="middle">Grotto of the Apocalypse</text></g><rect x="70" y="70" width="360" height="20" fill="#F3D899" /><rect x="70" y="90" width="180" height="20" fill="#F3D899" /><rect x="330" y="90" width="20" height="20" fill="#F3D899" /><rect x="410" y="90" width="20" height="20" fill="#F3D899" /><rect x="70" y="110" width="0" height="20" fill="#F3D899" /><rect x="90" y="110" width="160" height="20" fill="#F3D899" /><rect x="370" y="110" width="20" height="20" fill="#F3D899" /><rect x="70" y="130" width="160" height="20" fill="#F3D899" /><rect x="290" y="130" width="20" height="20" fill="#F3D899" /><rect x="330" y="130" width="20" height="20" fill="#F3D899" /><rect x="370" y="130" width="20" height="20" fill="#F3D899" /><rect x="410" y="130" width="20" height="20" fill="#F3D899" /><rect x="70" y="150" width="160" height="20" fill="#F3D899" /><rect x="290" y="150" width="20" height="20" fill="#F3D899" /><rect x="370" y="150" width="20" height="20" fill="#F3D899" /><rect x="70" y="170" width="160" height="20" fill="#F3D899" /><rect x="330" y="170" width="80" height="20" fill="#F3D899" /><rect x="70" y="190" width="180" height="20" fill="#F3D899" /><rect x="330" y="190" width="80" height="20" fill="#F3D899" /><rect x="70" y="210" width="200" height="20" fill="#F3D899" /><rect x="290" y="210" width="20" height="20" fill="#F3D899" /><rect x="410" y="210" width="20" height="20" fill="#F3D899" /><rect x="70" y="230" width="260" height="20" fill="#F3D899" /><rect x="350" y="230" width="40" height="20" fill="#F3D899" /><rect x="410" y="230" width="20" height="20" fill="#F3D899" /><rect x="70" y="250" width="240" height="20" fill="#F3D899" /><rect x="370" y="250" width="20" height="20" fill="#F3D899" /><rect x="70" y="270" width="240" height="20" fill="#F3D899" /><rect x="330" y="270" width="60" height="20" fill="#F3D899" /><rect x="70" y="290" width="260" height="20" fill="#F3D899" /><rect x="70" y="310" width="260" height="20" fill="#F3D899" /><rect x="350" y="310" width="80" height="20" fill="#F3D899" /><rect x="70" y="330" width="260" height="20" fill="#F3D899" /><rect x="350" y="330" width="80" height="20" fill="#F3D899" /><rect x="70" y="350" width="260" height="20" fill="#F3D899" /><rect x="350" y="350" width="80" height="20" fill="#F3D899" /><rect x="70" y="370" width="260" height="20" fill="#F3D899" /><rect x="350" y="370" width="80" height="20" fill="#F3D899" /><rect x="70" y="390" width="260" height="20" fill="#F3D899" /><rect x="370" y="390" width="60" height="20" fill="#F3D899" /><rect x="70" y="410" width="360" height="20" fill="#F3D899" /><rect x="330" y="350" width="20" height="20" fill="#006669" /><rect x="410" y="290" width="20" height="20" fill="#006669" /><rect x="70" y="110" width="20" height="20" fill="#3C2A1A" /></svg>