<svg xmlns="http://www.w3.org/2000/svg" preserveAspectRatio="xMinYMin meet" viewBox="0 0 500 500" shape-rendering="crispEdges" transform-origin="center"><rect width="100%" height="100%" fill="#2F590E" /><g transform="scale (5 5)"><rect x="23" y="-1" width="54" height="9" stroke-width="0.3" stroke="black" fill="#FFA800" /><text x="50" y="5.5" width="45" font-family="monospace" font-size="5" text-anchor="middle">Gorge of Blight</text></g><rect x="88" y="88" width="324" height="27" fill="#A98C00" /><rect x="88" y="115" width="81" height="27" fill="#A98C00" /><rect x="196" y="115" width="216" height="27" fill="#A98C00" /><rect x="88" y="142" width="0" height="27" fill="#A98C00" /><rect x="115" y="142" width="54" height="27" fill="#A98C00" /><rect x="196" y="142" width="216" height="27" fill="#A98C00" /><rect x="88" y="169" width="27" height="27" fill="#A98C00" /><rect x="196" y="169" width="216" height="27" fill="#A98C00" /><rect x="88" y="196" width="27" height="27" fill="#A98C00" /><rect x="169" y="196" width="243" height="27" fill="#A98C00" /><rect x="88" y="223" width="27" height="27" fill="#A98C00" /><rect x="169" y="223" width="243" height="27" fill="#A98C00" /><rect x="88" y="250" width="54" height="27" fill="#A98C00" /><rect x="196" y="250" width="216" height="27" fill="#A98C00" /><rect x="88" y="277" width="54" height="27" fill="#A98C00" /><rect x="169" y="277" width="243" height="27" fill="#A98C00" /><rect x="88" y="304" width="54" height="27" fill="#A98C00" /><rect x="169" y="304" width="243" height="27" fill="#A98C00" /><rect x="88" y="331" width="54" height="27" fill="#A98C00" /><rect x="196" y="331" width="216" height="27" fill="#A98C00" /><rect x="88" y="358" width="54" height="27" fill="#A98C00" /><rect x="196" y="358" width="162" height="27" fill="#A98C00" /><rect x="385" y="358" width="27" height="27" fill="#A98C00" /><rect x="88" y="385" width="27" height="27" fill="#A98C00" /><rect x="169" y="385" width="81" height="27" fill="#A98C00" /><rect x="277" y="385" width="27" height="27" fill="#A98C00" /><rect x="358" y="385" width="27" height="27" fill="#802F1A" /><rect x="250" y="385" width="27" height="27" fill="#802F1A" /><rect x="142" y="169" width="27" height="27" fill="#802F1A" /></svg>