<svg xmlns="http://www.w3.org/2000/svg" preserveAspectRatio="xMinYMin meet" viewBox="0 0 500 500" shape-rendering="crispEdges" transform-origin="center"><rect width="100%" height="100%" fill="#36230F" /><g transform="scale (5 5)"><rect x="21" y="-1" width="57" height="9" stroke-width="0.3" stroke="black" fill="#FFA800" /><text x="50" y="5.5" width="48" font-family="monospace" font-size="5" text-anchor="middle">Decrepid Landing</text></g><rect x="74" y="58" width="368" height="16" fill="#744936" /><rect x="58" y="74" width="16" height="16" fill="#744936" /><rect x="90" y="74" width="32" height="16" fill="#744936" /><rect x="154" y="74" width="48" height="16" fill="#744936" /><rect x="234" y="74" width="32" height="16" fill="#744936" /><rect x="346" y="74" width="96" height="16" fill="#744936" /><rect x="58" y="90" width="16" height="16" fill="#744936" /><rect x="90" y="90" width="16" height="16" fill="#744936" /><rect x="154" y="90" width="32" height="16" fill="#744936" /><rect x="314" y="90" width="16" height="16" fill="#744936" /><rect x="346" y="90" width="96" height="16" fill="#744936" /><rect x="58" y="106" width="16" height="16" fill="#744936" /><rect x="106" y="106" width="16" height="16" fill="#744936" /><rect x="218" y="106" width="16" height="16" fill="#744936" /><rect x="250" y="106" width="16" height="16" fill="#744936" /><rect x="298" y="106" width="16" height="16" fill="#744936" /><rect x="346" y="106" width="64" height="16" fill="#744936" /><rect x="58" y="122" width="32" height="16" fill="#744936" /><rect x="106" y="122" width="32" height="16" fill="#744936" /><rect x="170" y="122" width="32" height="16" fill="#744936" /><rect x="250" y="122" width="32" height="16" fill="#744936" /><rect x="298" y="122" width="16" height="16" fill="#744936" /><rect x="330" y="122" width="112" height="16" fill="#744936" /><rect x="58" y="138" width="32" height="16" fill="#744936" /><rect x="170" y="138" width="32" height="16" fill="#744936" /><rect x="218" y="138" width="16" height="16" fill="#744936" /><rect x="250" y="138" width="16" height="16" fill="#744936" /><rect x="298" y="138" width="16" height="16" fill="#744936" /><rect x="330" y="138" width="112" height="16" fill="#744936" /><rect x="58" y="154" width="80" height="16" fill="#744936" /><rect x="186" y="154" width="16" height="16" fill="#744936" /><rect x="282" y="154" width="32" height="16" fill="#744936" /><rect x="330" y="154" width="112" height="16" fill="#744936" /><rect x="58" y="170" width="96" height="16" fill="#744936" /><rect x="218" y="170" width="32" height="16" fill="#744936" /><rect x="282" y="170" width="32" height="16" fill="#744936" /><rect x="346" y="170" width="96" height="16" fill="#744936" /><rect x="58" y="186" width="80" height="16" fill="#744936" /><rect x="202" y="186" width="48" height="16" fill="#744936" /><rect x="282" y="186" width="32" height="16" fill="#744936" /><rect x="346" y="186" width="96" height="16" fill="#744936" /><rect x="58" y="202" width="80" height="16" fill="#744936" /><rect x="170" y="202" width="64" height="16" fill="#744936" /><rect x="266" y="202" width="32" height="16" fill="#744936" /><rect x="330" y="202" width="112" height="16" fill="#744936" /><rect x="58" y="218" width="48" height="16" fill="#744936" /><rect x="170" y="218" width="64" height="16" fill="#744936" /><rect x="282" y="218" width="16" height="16" fill="#744936" /><rect x="314" y="218" width="128" height="16" fill="#744936" /><rect x="58" y="234" width="80" height="16" fill="#744936" /><rect x="154" y="234" width="80" height="16" fill="#744936" /><rect x="266" y="234" width="176" height="16" fill="#744936" /><rect x="58" y="250" width="64" height="16" fill="#744936" /><rect x="154" y="250" width="96" height="16" fill="#744936" /><rect x="266" y="250" width="176" height="16" fill="#744936" /><rect x="58" y="266" width="80" height="16" fill="#744936" /><rect x="154" y="266" width="96" height="16" fill="#744936" /><rect x="266" y="266" width="176" height="16" fill="#744936" /><rect x="58" y="282" width="80" height="16" fill="#744936" /><rect x="170" y="282" width="80" height="16" fill="#744936" /><rect x="266" y="282" width="176" height="16" fill="#744936" /><rect x="58" y="298" width="96" height="16" fill="#744936" /><rect x="170" y="298" width="32" height="16" fill="#744936" /><rect x="266" y="298" width="176" height="16" fill="#744936" /><rect x="58" y="314" width="80" height="16" fill="#744936" /><rect x="170" y="314" width="32" height="16" fill="#744936" /><rect x="218" y="314" width="224" height="16" fill="#744936" /><rect x="58" y="330" width="128" height="16" fill="#744936" /><rect x="218" y="330" width="224" height="16" fill="#744936" /><rect x="58" y="346" width="144" height="16" fill="#744936" /><rect x="234" y="346" width="208" height="16" fill="#744936" /><rect x="58" y="362" width="160" height="16" fill="#744936" /><rect x="234" y="362" width="208" height="16" fill="#744936" /><rect x="58" y="378" width="160" height="16" fill="#744936" /><rect x="234" y="378" width="208" height="16" fill="#744936" /><rect x="58" y="394" width="160" height="16" fill="#744936" /><rect x="234" y="394" width="208" height="16" fill="#744936" /><rect x="58" y="410" width="384" height="16" fill="#744936" /><rect x="58" y="426" width="384" height="16" fill="#744936" /><rect x="202" y="330" width="16" height="16" fill="#FFA800" /><rect x="250" y="298" width="16" height="16" fill="#FFA800" /><rect x="314" y="202" width="16" height="16" fill="#802F1A" /><rect x="170" y="170" width="16" height="16" fill="#FFA800" /><rect x="138" y="122" width="16" height="16" fill="#FFA800" /><rect x="298" y="90" width="16" height="16" fill="#802F1A" /></svg>