<svg xmlns="http://www.w3.org/2000/svg" preserveAspectRatio="xMinYMin meet" viewBox="0 0 500 500" shape-rendering="crispEdges" transform-origin="center"><rect width="100%" height="100%" fill="#340D07" /><g transform="scale (5 5)"><rect x="20" y="-1" width="60" height="9" stroke-width="0.3" stroke="black" fill="#FFA800" /><text x="50" y="5.5" width="51" font-family="monospace" font-size="5" text-anchor="middle">Hidden Necropolis</text></g><rect x="92" y="71" width="336" height="21" fill="#5D0503" /><rect x="71" y="92" width="21" height="21" fill="#5D0503" /><rect x="155" y="92" width="42" height="21" fill="#5D0503" /><rect x="302" y="92" width="126" height="21" fill="#5D0503" /><rect x="71" y="113" width="42" height="21" fill="#5D0503" /><rect x="176" y="113" width="21" height="21" fill="#5D0503" /><rect x="281" y="113" width="147" height="21" fill="#5D0503" /><rect x="71" y="134" width="42" height="21" fill="#5D0503" /><rect x="134" y="134" width="21" height="21" fill="#5D0503" /><rect x="176" y="134" width="42" height="21" fill="#5D0503" /><rect x="281" y="134" width="147" height="21" fill="#5D0503" /><rect x="71" y="155" width="21" height="21" fill="#5D0503" /><rect x="134" y="155" width="21" height="21" fill="#5D0503" /><rect x="176" y="155" width="42" height="21" fill="#5D0503" /><rect x="281" y="155" width="147" height="21" fill="#5D0503" /><rect x="71" y="176" width="21" height="21" fill="#5D0503" /><rect x="113" y="176" width="21" height="21" fill="#5D0503" /><rect x="197" y="176" width="21" height="21" fill="#5D0503" /><rect x="260" y="176" width="168" height="21" fill="#5D0503" /><rect x="71" y="197" width="21" height="21" fill="#5D0503" /><rect x="155" y="197" width="84" height="21" fill="#5D0503" /><rect x="302" y="197" width="126" height="21" fill="#5D0503" /><rect x="71" y="218" width="21" height="21" fill="#5D0503" /><rect x="155" y="218" width="126" height="21" fill="#5D0503" /><rect x="323" y="218" width="105" height="21" fill="#5D0503" /><rect x="71" y="239" width="42" height="21" fill="#5D0503" /><rect x="155" y="239" width="126" height="21" fill="#5D0503" /><rect x="302" y="239" width="126" height="21" fill="#5D0503" /><rect x="71" y="260" width="42" height="21" fill="#5D0503" /><rect x="176" y="260" width="105" height="21" fill="#5D0503" /><rect x="323" y="260" width="105" height="21" fill="#5D0503" /><rect x="71" y="281" width="42" height="21" fill="#5D0503" /><rect x="176" y="281" width="126" height="21" fill="#5D0503" /><rect x="323" y="281" width="105" height="21" fill="#5D0503" /><rect x="71" y="302" width="63" height="21" fill="#5D0503" /><rect x="176" y="302" width="126" height="21" fill="#5D0503" /><rect x="323" y="302" width="105" height="21" fill="#5D0503" /><rect x="71" y="323" width="189" height="21" fill="#5D0503" /><rect x="323" y="323" width="105" height="21" fill="#5D0503" /><rect x="71" y="344" width="336" height="21" fill="#5D0503" /><rect x="71" y="365" width="336" height="21" fill="#5D0503" /><rect x="71" y="386" width="336" height="21" fill="#5D0503" /><rect x="71" y="407" width="357" height="21" fill="#5D0503" /><rect x="260" y="323" width="21" height="21" fill="#B75700" /><rect x="302" y="281" width="21" height="21" fill="#FF1800" /><rect x="155" y="134" width="21" height="21" fill="#FF1800" /></svg>