<svg xmlns="http://www.w3.org/2000/svg" preserveAspectRatio="xMinYMin meet" viewBox="0 0 500 500" shape-rendering="crispEdges" transform-origin="center"><rect width="100%" height="100%" fill="#967E67" /><g transform="scale (5 5)"><rect x="36" y="-1" width="27" height="9" stroke-width="0.3" stroke="black" fill="#FFA800" /><text x="50" y="5.5" width="18" font-family="monospace" font-size="5" text-anchor="middle">Shrine</text></g><rect x="58" y="58" width="128" height="16" fill="#F3D899" /><rect x="202" y="58" width="240" height="16" fill="#F3D899" /><rect x="58" y="74" width="128" height="16" fill="#F3D899" /><rect x="266" y="74" width="80" height="16" fill="#F3D899" /><rect x="362" y="74" width="80" height="16" fill="#F3D899" /><rect x="58" y="90" width="112" height="16" fill="#F3D899" /><rect x="362" y="90" width="80" height="16" fill="#F3D899" /><rect x="58" y="106" width="0" height="16" fill="#F3D899" /><rect x="90" y="106" width="16" height="16" fill="#F3D899" /><rect x="122" y="106" width="16" height="16" fill="#F3D899" /><rect x="234" y="106" width="32" height="16" fill="#F3D899" /><rect x="282" y="106" width="160" height="16" fill="#F3D899" /><rect x="58" y="122" width="16" height="16" fill="#F3D899" /><rect x="90" y="122" width="16" height="16" fill="#F3D899" /><rect x="122" y="122" width="16" height="16" fill="#F3D899" /><rect x="202" y="122" width="240" height="16" fill="#F3D899" /><rect x="58" y="138" width="16" height="16" fill="#F3D899" /><rect x="170" y="138" width="272" height="16" fill="#F3D899" /><rect x="58" y="154" width="48" height="16" fill="#F3D899" /><rect x="138" y="154" width="144" height="16" fill="#F3D899" /><rect x="298" y="154" width="144" height="16" fill="#F3D899" /><rect x="58" y="170" width="48" height="16" fill="#F3D899" /><rect x="122" y="170" width="80" height="16" fill="#F3D899" /><rect x="298" y="170" width="32" height="16" fill="#F3D899" /><rect x="58" y="186" width="48" height="16" fill="#F3D899" /><rect x="122" y="186" width="48" height="16" fill="#F3D899" /><rect x="250" y="186" width="32" height="16" fill="#F3D899" /><rect x="378" y="186" width="32" height="16" fill="#F3D899" /><rect x="426" y="186" width="16" height="16" fill="#F3D899" /><rect x="58" y="202" width="48" height="16" fill="#F3D899" /><rect x="122" y="202" width="48" height="16" fill="#F3D899" /><rect x="186" y="202" width="32" height="16" fill="#F3D899" /><rect x="394" y="202" width="16" height="16" fill="#F3D899" /><rect x="58" y="218" width="48" height="16" fill="#F3D899" /><rect x="122" y="218" width="32" height="16" fill="#F3D899" /><rect x="234" y="218" width="32" height="16" fill="#F3D899" /><rect x="314" y="218" width="32" height="16" fill="#F3D899" /><rect x="58" y="234" width="48" height="16" fill="#F3D899" /><rect x="122" y="234" width="32" height="16" fill="#F3D899" /><rect x="186" y="234" width="48" height="16" fill="#F3D899" /><rect x="314" y="234" width="32" height="16" fill="#F3D899" /><rect x="362" y="234" width="16" height="16" fill="#F3D899" /><rect x="186" y="250" width="48" height="16" fill="#F3D899" /><rect x="394" y="250" width="16" height="16" fill="#F3D899" /><rect x="426" y="250" width="16" height="16" fill="#F3D899" /><rect x="58" y="266" width="16" height="16" fill="#F3D899" /><rect x="90" y="266" width="16" height="16" fill="#F3D899" /><rect x="122" y="266" width="80" height="16" fill="#F3D899" /><rect x="250" y="266" width="48" height="16" fill="#F3D899" /><rect x="362" y="266" width="48" height="16" fill="#F3D899" /><rect x="426" y="266" width="16" height="16" fill="#F3D899" /><rect x="58" y="282" width="48" height="16" fill="#F3D899" /><rect x="122" y="282" width="80" height="16" fill="#F3D899" /><rect x="218" y="282" width="128" height="16" fill="#F3D899" /><rect x="362" y="282" width="48" height="16" fill="#F3D899" /><rect x="58" y="298" width="48" height="16" fill="#F3D899" /><rect x="122" y="298" width="16" height="16" fill="#F3D899" /><rect x="218" y="298" width="48" height="16" fill="#F3D899" /><rect x="298" y="298" width="112" height="16" fill="#F3D899" /><rect x="58" y="314" width="48" height="16" fill="#F3D899" /><rect x="154" y="314" width="32" height="16" fill="#F3D899" /><rect x="58" y="330" width="48" height="16" fill="#F3D899" /><rect x="138" y="330" width="48" height="16" fill="#F3D899" /><rect x="202" y="330" width="208" height="16" fill="#F3D899" /><rect x="426" y="330" width="16" height="16" fill="#F3D899" /><rect x="58" y="346" width="48" height="16" fill="#F3D899" /><rect x="122" y="346" width="288" height="16" fill="#F3D899" /><rect x="426" y="346" width="16" height="16" fill="#F3D899" /><rect x="58" y="362" width="48" height="16" fill="#F3D899" /><rect x="122" y="362" width="288" height="16" fill="#F3D899" /><rect x="426" y="362" width="16" height="16" fill="#F3D899" /><rect x="58" y="378" width="48" height="16" fill="#F3D899" /><rect x="122" y="378" width="288" height="16" fill="#F3D899" /><rect x="426" y="378" width="16" height="16" fill="#F3D899" /><rect x="58" y="394" width="48" height="16" fill="#F3D899" /><rect x="122" y="394" width="288" height="16" fill="#F3D899" /><rect x="426" y="394" width="16" height="16" fill="#F3D899" /><rect x="58" y="410" width="48" height="16" fill="#F3D899" /><rect x="122" y="410" width="288" height="16" fill="#F3D899" /><rect x="426" y="410" width="16" height="16" fill="#F3D899" /><rect x="58" y="426" width="48" height="16" fill="#F3D899" /><rect x="122" y="426" width="80" height="16" fill="#F3D899" /><rect x="250" y="426" width="160" height="16" fill="#F3D899" /><rect x="426" y="426" width="16" height="16" fill="#F3D899" /><rect x="202" y="266" width="16" height="16" fill="#006669" /><rect x="170" y="122" width="16" height="16" fill="#3C2A1A" /><rect x="186" y="106" width="16" height="16" fill="#006669" /><rect x="330" y="90" width="16" height="16" fill="#006669" /></svg>