<svg xmlns="http://www.w3.org/2000/svg" preserveAspectRatio="xMinYMin meet" viewBox="0 0 500 500" shape-rendering="crispEdges" transform-origin="center"><rect width="100%" height="100%" fill="#36230F" /><g transform="scale (5 5)"><rect x="23" y="-1" width="54" height="9" stroke-width="0.3" stroke="black" fill="#FFA800" /><text x="50" y="5.5" width="45" font-family="monospace" font-size="5" text-anchor="middle">Woods of Giants</text></g><rect x="54" y="54" width="391" height="17" fill="#744936" /><rect x="54" y="71" width="136" height="17" fill="#744936" /><rect x="224" y="71" width="221" height="17" fill="#744936" /><rect x="54" y="88" width="136" height="17" fill="#744936" /><rect x="224" y="88" width="221" height="17" fill="#744936" /><rect x="54" y="105" width="17" height="17" fill="#744936" /><rect x="122" y="105" width="85" height="17" fill="#744936" /><rect x="275" y="105" width="170" height="17" fill="#744936" /><rect x="54" y="122" width="102" height="17" fill="#744936" /><rect x="173" y="122" width="85" height="17" fill="#744936" /><rect x="309" y="122" width="68" height="17" fill="#744936" /><rect x="394" y="122" width="51" height="17" fill="#744936" /><rect x="54" y="139" width="102" height="17" fill="#744936" /><rect x="190" y="139" width="85" height="17" fill="#744936" /><rect x="292" y="139" width="85" height="17" fill="#744936" /><rect x="394" y="139" width="51" height="17" fill="#744936" /><rect x="54" y="156" width="34" height="17" fill="#744936" /><rect x="105" y="156" width="51" height="17" fill="#744936" /><rect x="173" y="156" width="102" height="17" fill="#744936" /><rect x="292" y="156" width="85" height="17" fill="#744936" /><rect x="394" y="156" width="51" height="17" fill="#744936" /><rect x="54" y="173" width="17" height="17" fill="#744936" /><rect x="105" y="173" width="34" height="17" fill="#744936" /><rect x="173" y="173" width="102" height="17" fill="#744936" /><rect x="292" y="173" width="34" height="17" fill="#744936" /><rect x="394" y="173" width="51" height="17" fill="#744936" /><rect x="54" y="190" width="17" height="17" fill="#744936" /><rect x="105" y="190" width="34" height="17" fill="#744936" /><rect x="173" y="190" width="85" height="17" fill="#744936" /><rect x="292" y="190" width="34" height="17" fill="#744936" /><rect x="394" y="190" width="51" height="17" fill="#744936" /><rect x="54" y="207" width="85" height="17" fill="#744936" /><rect x="173" y="207" width="85" height="17" fill="#744936" /><rect x="275" y="207" width="51" height="17" fill="#744936" /><rect x="343" y="207" width="34" height="17" fill="#744936" /><rect x="411" y="207" width="34" height="17" fill="#744936" /><rect x="54" y="224" width="68" height="17" fill="#744936" /><rect x="156" y="224" width="102" height="17" fill="#744936" /><rect x="275" y="224" width="51" height="17" fill="#744936" /><rect x="343" y="224" width="51" height="17" fill="#744936" /><rect x="428" y="224" width="17" height="17" fill="#744936" /><rect x="54" y="241" width="85" height="17" fill="#744936" /><rect x="156" y="241" width="68" height="17" fill="#744936" /><rect x="275" y="241" width="51" height="17" fill="#744936" /><rect x="343" y="241" width="34" height="17" fill="#744936" /><rect x="428" y="241" width="17" height="17" fill="#744936" /><rect x="54" y="258" width="85" height="17" fill="#744936" /><rect x="173" y="258" width="51" height="17" fill="#744936" /><rect x="275" y="258" width="34" height="17" fill="#744936" /><rect x="343" y="258" width="34" height="17" fill="#744936" /><rect x="411" y="258" width="34" height="17" fill="#744936" /><rect x="54" y="275" width="34" height="17" fill="#744936" /><rect x="105" y="275" width="51" height="17" fill="#744936" /><rect x="173" y="275" width="51" height="17" fill="#744936" /><rect x="326" y="275" width="51" height="17" fill="#744936" /><rect x="411" y="275" width="34" height="17" fill="#744936" /><rect x="54" y="292" width="34" height="17" fill="#744936" /><rect x="122" y="292" width="34" height="17" fill="#744936" /><rect x="173" y="292" width="51" height="17" fill="#744936" /><rect x="326" y="292" width="68" height="17" fill="#744936" /><rect x="428" y="292" width="17" height="17" fill="#744936" /><rect x="54" y="309" width="51" height="17" fill="#744936" /><rect x="122" y="309" width="34" height="17" fill="#744936" /><rect x="190" y="309" width="85" height="17" fill="#744936" /><rect x="326" y="309" width="51" height="17" fill="#744936" /><rect x="428" y="309" width="17" height="17" fill="#744936" /><rect x="54" y="326" width="34" height="17" fill="#744936" /><rect x="122" y="326" width="34" height="17" fill="#744936" /><rect x="190" y="326" width="17" height="17" fill="#744936" /><rect x="292" y="326" width="17" height="17" fill="#744936" /><rect x="377" y="326" width="17" height="17" fill="#744936" /><rect x="428" y="326" width="17" height="17" fill="#744936" /><rect x="54" y="343" width="51" height="17" fill="#744936" /><rect x="173" y="343" width="34" height="17" fill="#744936" /><rect x="241" y="343" width="17" height="17" fill="#744936" /><rect x="292" y="343" width="68" height="17" fill="#744936" /><rect x="377" y="343" width="17" height="17" fill="#744936" /><rect x="428" y="343" width="17" height="17" fill="#744936" /><rect x="54" y="360" width="34" height="17" fill="#744936" /><rect x="122" y="360" width="17" height="17" fill="#744936" /><rect x="173" y="360" width="51" height="17" fill="#744936" /><rect x="275" y="360" width="85" height="17" fill="#744936" /><rect x="428" y="360" width="17" height="17" fill="#744936" /><rect x="54" y="377" width="34" height="17" fill="#744936" /><rect x="139" y="377" width="17" height="17" fill="#744936" /><rect x="173" y="377" width="51" height="17" fill="#744936" /><rect x="258" y="377" width="102" height="17" fill="#744936" /><rect x="394" y="377" width="51" height="17" fill="#744936" /><rect x="54" y="394" width="17" height="17" fill="#744936" /><rect x="122" y="394" width="17" height="17" fill="#744936" /><rect x="173" y="394" width="34" height="17" fill="#744936" /><rect x="258" y="394" width="102" height="17" fill="#744936" /><rect x="394" y="394" width="51" height="17" fill="#744936" /><rect x="54" y="411" width="34" height="17" fill="#744936" /><rect x="173" y="411" width="34" height="17" fill="#744936" /><rect x="292" y="411" width="68" height="17" fill="#744936" /><rect x="394" y="411" width="51" height="17" fill="#744936" /><rect x="54" y="428" width="34" height="17" fill="#744936" /><rect x="105" y="428" width="34" height="17" fill="#744936" /><rect x="156" y="428" width="68" height="17" fill="#744936" /><rect x="292" y="428" width="68" height="17" fill="#744936" /><rect x="394" y="428" width="51" height="17" fill="#744936" /><rect x="241" y="428" width="17" height="17" fill="#802F1A" /><rect x="224" y="377" width="17" height="17" fill="#802F1A" /><rect x="139" y="343" width="17" height="17" fill="#FFA800" /><rect x="292" y="309" width="17" height="17" fill="#802F1A" /><rect x="292" y="292" width="17" height="17" fill="#802F1A" /><rect x="292" y="275" width="17" height="17" fill="#802F1A" /><rect x="258" y="122" width="17" height="17" fill="#802F1A" /></svg>