<svg xmlns="http://www.w3.org/2000/svg" preserveAspectRatio="xMinYMin meet" viewBox="0 0 500 500" shape-rendering="crispEdges" transform-origin="center"><rect width="100%" height="100%" fill="#967E67" /><g transform="scale (5 5)"><rect x="11" y="-1" width="78" height="9" stroke-width="0.3" stroke="black" fill="#FFA800" /><text x="50" y="5.5" width="108" font-family="monospace" font-size="4" text-anchor="middle">Emerald Sewers of the Phoenix</text></g><rect x="81" y="81" width="208" height="26" fill="#F3D899" /><rect x="315" y="81" width="104" height="26" fill="#F3D899" /><rect x="81" y="107" width="0" height="26" fill="#F3D899" /><rect x="107" y="107" width="312" height="26" fill="#F3D899" /><rect x="81" y="133" width="338" height="26" fill="#F3D899" /><rect x="81" y="159" width="338" height="26" fill="#F3D899" /><rect x="81" y="185" width="338" height="26" fill="#F3D899" /><rect x="81" y="211" width="286" height="26" fill="#F3D899" /><rect x="81" y="237" width="338" height="26" fill="#F3D899" /><rect x="81" y="263" width="338" height="26" fill="#F3D899" /><rect x="81" y="289" width="338" height="26" fill="#F3D899" /><rect x="81" y="315" width="104" height="26" fill="#F3D899" /><rect x="237" y="315" width="182" height="26" fill="#F3D899" /><rect x="81" y="341" width="104" height="26" fill="#F3D899" /><rect x="237" y="341" width="182" height="26" fill="#F3D899" /><rect x="81" y="367" width="78" height="26" fill="#F3D899" /><rect x="237" y="367" width="182" height="26" fill="#F3D899" /><rect x="81" y="393" width="0" height="26" fill="#F3D899" /><rect x="107" y="393" width="52" height="26" fill="#F3D899" /><rect x="185" y="393" width="26" height="26" fill="#F3D899" /><rect x="237" y="393" width="182" height="26" fill="#F3D899" /><rect x="159" y="393" width="26" height="26" fill="#006669" /></svg>