<svg xmlns="http://www.w3.org/2000/svg" preserveAspectRatio="xMinYMin meet" viewBox="0 0 500 500" shape-rendering="crispEdges" transform-origin="center"><rect width="100%" height="100%" fill="#967E67" /><g transform="scale (5 5)"><rect x="6" y="-1" width="88" height="9" stroke-width="0.3" stroke="black" fill="#FFA800" /><text x="50" y="5.5" width="123" font-family="monospace" font-size="4" text-anchor="middle">Whispering Crypt of the Apocalypse</text></g><rect x="63" y="63" width="374" height="17" fill="#F3D899" /><rect x="63" y="80" width="374" height="17" fill="#F3D899" /><rect x="63" y="97" width="374" height="17" fill="#F3D899" /><rect x="63" y="114" width="255" height="17" fill="#F3D899" /><rect x="369" y="114" width="68" height="17" fill="#F3D899" /><rect x="63" y="131" width="255" height="17" fill="#F3D899" /><rect x="369" y="131" width="68" height="17" fill="#F3D899" /><rect x="63" y="148" width="17" height="17" fill="#F3D899" /><rect x="148" y="148" width="170" height="17" fill="#F3D899" /><rect x="369" y="148" width="68" height="17" fill="#F3D899" /><rect x="63" y="165" width="17" height="17" fill="#F3D899" /><rect x="250" y="165" width="68" height="17" fill="#F3D899" /><rect x="369" y="165" width="68" height="17" fill="#F3D899" /><rect x="63" y="182" width="17" height="17" fill="#F3D899" /><rect x="250" y="182" width="85" height="17" fill="#F3D899" /><rect x="352" y="182" width="85" height="17" fill="#F3D899" /><rect x="63" y="199" width="34" height="17" fill="#F3D899" /><rect x="352" y="199" width="85" height="17" fill="#F3D899" /><rect x="63" y="216" width="34" height="17" fill="#F3D899" /><rect x="250" y="216" width="85" height="17" fill="#F3D899" /><rect x="352" y="216" width="85" height="17" fill="#F3D899" /><rect x="63" y="233" width="51" height="17" fill="#F3D899" /><rect x="250" y="233" width="85" height="17" fill="#F3D899" /><rect x="352" y="233" width="85" height="17" fill="#F3D899" /><rect x="63" y="250" width="51" height="17" fill="#F3D899" /><rect x="250" y="250" width="85" height="17" fill="#F3D899" /><rect x="352" y="250" width="85" height="17" fill="#F3D899" /><rect x="63" y="267" width="51" height="17" fill="#F3D899" /><rect x="250" y="267" width="68" height="17" fill="#F3D899" /><rect x="369" y="267" width="68" height="17" fill="#F3D899" /><rect x="63" y="284" width="34" height="17" fill="#F3D899" /><rect x="199" y="284" width="17" height="17" fill="#F3D899" /><rect x="233" y="284" width="85" height="17" fill="#F3D899" /><rect x="369" y="284" width="68" height="17" fill="#F3D899" /><rect x="63" y="301" width="17" height="17" fill="#F3D899" /><rect x="199" y="301" width="17" height="17" fill="#F3D899" /><rect x="233" y="301" width="17" height="17" fill="#F3D899" /><rect x="352" y="301" width="85" height="17" fill="#F3D899" /><rect x="63" y="318" width="17" height="17" fill="#F3D899" /><rect x="352" y="318" width="85" height="17" fill="#F3D899" /><rect x="63" y="335" width="34" height="17" fill="#F3D899" /><rect x="352" y="335" width="85" height="17" fill="#F3D899" /><rect x="63" y="352" width="34" height="17" fill="#F3D899" /><rect x="352" y="352" width="85" height="17" fill="#F3D899" /><rect x="63" y="369" width="34" height="17" fill="#F3D899" /><rect x="352" y="369" width="85" height="17" fill="#F3D899" /><rect x="63" y="386" width="51" height="17" fill="#F3D899" /><rect x="250" y="386" width="187" height="17" fill="#F3D899" /><rect x="63" y="403" width="374" height="17" fill="#F3D899" /><rect x="63" y="420" width="374" height="17" fill="#F3D899" /><rect x="80" y="301" width="17" height="17" fill="#006669" /><rect x="216" y="284" width="17" height="17" fill="#3C2A1A" /><rect x="216" y="267" width="17" height="17" fill="#006669" /><rect x="148" y="250" width="17" height="17" fill="#006669" /><rect x="335" y="199" width="17" height="17" fill="#3C2A1A" /><rect x="97" y="199" width="17" height="17" fill="#006669" /><rect x="165" y="182" width="17" height="17" fill="#006669" /></svg>