<svg xmlns="http://www.w3.org/2000/svg" preserveAspectRatio="xMinYMin meet" viewBox="0 0 500 500" shape-rendering="crispEdges" transform-origin="center"><rect width="100%" height="100%" fill="#F3D899" /><g transform="scale (5 5)"><rect x="21" y="-1" width="57" height="9" stroke-width="0.3" stroke="black" fill="#FFA800" /><text x="50" y="5.5" width="48" font-family="monospace" font-size="5" text-anchor="middle">Tundra of Sorrow</text></g><rect x="60" y="60" width="80" height="20" fill="#160F09" /><rect x="160" y="60" width="260" height="20" fill="#160F09" /><rect x="60" y="80" width="60" height="20" fill="#160F09" /><rect x="300" y="80" width="140" height="20" fill="#160F09" /><rect x="60" y="100" width="60" height="20" fill="#160F09" /><rect x="300" y="100" width="140" height="20" fill="#160F09" /><rect x="60" y="120" width="120" height="20" fill="#160F09" /><rect x="340" y="120" width="100" height="20" fill="#160F09" /><rect x="60" y="140" width="120" height="20" fill="#160F09" /><rect x="340" y="140" width="100" height="20" fill="#160F09" /><rect x="60" y="160" width="140" height="20" fill="#160F09" /><rect x="220" y="160" width="20" height="20" fill="#160F09" /><rect x="320" y="160" width="120" height="20" fill="#160F09" /><rect x="60" y="180" width="140" height="20" fill="#160F09" /><rect x="220" y="180" width="40" height="20" fill="#160F09" /><rect x="280" y="180" width="20" height="20" fill="#160F09" /><rect x="340" y="180" width="100" height="20" fill="#160F09" /><rect x="60" y="200" width="140" height="20" fill="#160F09" /><rect x="220" y="200" width="40" height="20" fill="#160F09" /><rect x="400" y="200" width="40" height="20" fill="#160F09" /><rect x="60" y="220" width="140" height="20" fill="#160F09" /><rect x="220" y="220" width="80" height="20" fill="#160F09" /><rect x="360" y="220" width="20" height="20" fill="#160F09" /><rect x="400" y="220" width="40" height="20" fill="#160F09" /><rect x="60" y="240" width="80" height="20" fill="#160F09" /><rect x="220" y="240" width="120" height="20" fill="#160F09" /><rect x="400" y="240" width="40" height="20" fill="#160F09" /><rect x="60" y="260" width="80" height="20" fill="#160F09" /><rect x="160" y="260" width="120" height="20" fill="#160F09" /><rect x="420" y="260" width="20" height="20" fill="#160F09" /><rect x="60" y="280" width="60" height="20" fill="#160F09" /><rect x="180" y="280" width="100" height="20" fill="#160F09" /><rect x="320" y="280" width="80" height="20" fill="#160F09" /><rect x="420" y="280" width="20" height="20" fill="#160F09" /><rect x="60" y="300" width="80" height="20" fill="#160F09" /><rect x="160" y="300" width="140" height="20" fill="#160F09" /><rect x="320" y="300" width="60" height="20" fill="#160F09" /><rect x="420" y="300" width="20" height="20" fill="#160F09" /><rect x="60" y="320" width="80" height="20" fill="#160F09" /><rect x="160" y="320" width="140" height="20" fill="#160F09" /><rect x="320" y="320" width="80" height="20" fill="#160F09" /><rect x="420" y="320" width="20" height="20" fill="#160F09" /><rect x="60" y="340" width="0" height="20" fill="#160F09" /><rect x="80" y="340" width="60" height="20" fill="#160F09" /><rect x="160" y="340" width="140" height="20" fill="#160F09" /><rect x="320" y="340" width="20" height="20" fill="#160F09" /><rect x="420" y="340" width="20" height="20" fill="#160F09" /><rect x="60" y="360" width="60" height="20" fill="#160F09" /><rect x="160" y="360" width="140" height="20" fill="#160F09" /><rect x="340" y="360" width="20" height="20" fill="#160F09" /><rect x="400" y="360" width="40" height="20" fill="#160F09" /><rect x="60" y="380" width="260" height="20" fill="#160F09" /><rect x="340" y="380" width="40" height="20" fill="#160F09" /><rect x="400" y="380" width="40" height="20" fill="#160F09" /><rect x="60" y="400" width="320" height="20" fill="#160F09" /><rect x="400" y="400" width="40" height="20" fill="#160F09" /><rect x="60" y="420" width="380" height="20" fill="#160F09" /><rect x="380" y="380" width="20" height="20" fill="#00A29D" /><rect x="280" y="280" width="20" height="20" fill="#FAAA00" /><rect x="280" y="120" width="20" height="20" fill="#FAAA00" /><rect x="240" y="100" width="20" height="20" fill="#FAAA00" /><rect x="140" y="60" width="20" height="20" fill="#00A29D" /></svg>