<svg xmlns="http://www.w3.org/2000/svg" preserveAspectRatio="xMinYMin meet" viewBox="0 0 500 500" shape-rendering="crispEdges" transform-origin="center"><rect width="100%" height="100%" fill="#2F590E" /><g transform="scale (5 5)"><rect x="10" y="-1" width="80" height="9" stroke-width="0.3" stroke="black" fill="#FFA800" /><text x="50" y="5.5" width="111" font-family="monospace" font-size="4" text-anchor="middle">Corrupted Shrine of the Plague</text></g><rect x="101" y="101" width="297" height="33" fill="#A98C00" /><rect x="101" y="134" width="198" height="33" fill="#A98C00" /><rect x="365" y="134" width="33" height="33" fill="#A98C00" /><rect x="101" y="167" width="198" height="33" fill="#A98C00" /><rect x="101" y="200" width="198" height="33" fill="#A98C00" /><rect x="365" y="200" width="33" height="33" fill="#A98C00" /><rect x="101" y="233" width="99" height="33" fill="#A98C00" /><rect x="233" y="233" width="66" height="33" fill="#A98C00" /><rect x="101" y="266" width="99" height="33" fill="#A98C00" /><rect x="332" y="266" width="33" height="33" fill="#A98C00" /><rect x="101" y="299" width="132" height="33" fill="#A98C00" /><rect x="101" y="332" width="165" height="33" fill="#A98C00" /><rect x="332" y="332" width="33" height="33" fill="#A98C00" /><rect x="101" y="365" width="297" height="33" fill="#A98C00" /></svg>