<svg xmlns="http://www.w3.org/2000/svg" preserveAspectRatio="xMinYMin meet" viewBox="0 0 500 500" shape-rendering="crispEdges" transform-origin="center"><rect width="100%" height="100%" fill="#967E67" /><g transform="scale (5 5)"><rect x="24" y="-1" width="51" height="9" stroke-width="0.3" stroke="black" fill="#FFA800" /><text x="50" y="5.5" width="42" font-family="monospace" font-size="5" text-anchor="middle">Emerald Prison</text></g><rect x="70" y="70" width="360" height="20" fill="#F3D899" /><rect x="70" y="90" width="20" height="20" fill="#F3D899" /><rect x="150" y="90" width="280" height="20" fill="#F3D899" /><rect x="70" y="110" width="20" height="20" fill="#F3D899" /><rect x="150" y="110" width="280" height="20" fill="#F3D899" /><rect x="70" y="130" width="20" height="20" fill="#F3D899" /><rect x="150" y="130" width="280" height="20" fill="#F3D899" /><rect x="70" y="150" width="20" height="20" fill="#F3D899" /><rect x="150" y="150" width="20" height="20" fill="#F3D899" /><rect x="270" y="150" width="160" height="20" fill="#F3D899" /><rect x="70" y="170" width="40" height="20" fill="#F3D899" /><rect x="130" y="170" width="40" height="20" fill="#F3D899" /><rect x="330" y="170" width="100" height="20" fill="#F3D899" /><rect x="70" y="190" width="40" height="20" fill="#F3D899" /><rect x="170" y="190" width="40" height="20" fill="#F3D899" /><rect x="230" y="190" width="80" height="20" fill="#F3D899" /><rect x="330" y="190" width="100" height="20" fill="#F3D899" /><rect x="70" y="210" width="40" height="20" fill="#F3D899" /><rect x="210" y="210" width="100" height="20" fill="#F3D899" /><rect x="330" y="210" width="100" height="20" fill="#F3D899" /><rect x="70" y="230" width="40" height="20" fill="#F3D899" /><rect x="130" y="230" width="20" height="20" fill="#F3D899" /><rect x="170" y="230" width="140" height="20" fill="#F3D899" /><rect x="330" y="230" width="100" height="20" fill="#F3D899" /><rect x="70" y="250" width="40" height="20" fill="#F3D899" /><rect x="130" y="250" width="20" height="20" fill="#F3D899" /><rect x="170" y="250" width="140" height="20" fill="#F3D899" /><rect x="330" y="250" width="100" height="20" fill="#F3D899" /><rect x="70" y="270" width="40" height="20" fill="#F3D899" /><rect x="130" y="270" width="20" height="20" fill="#F3D899" /><rect x="170" y="270" width="120" height="20" fill="#F3D899" /><rect x="330" y="270" width="100" height="20" fill="#F3D899" /><rect x="70" y="290" width="40" height="20" fill="#F3D899" /><rect x="130" y="290" width="20" height="20" fill="#F3D899" /><rect x="170" y="290" width="120" height="20" fill="#F3D899" /><rect x="330" y="290" width="100" height="20" fill="#F3D899" /><rect x="70" y="310" width="40" height="20" fill="#F3D899" /><rect x="330" y="310" width="100" height="20" fill="#F3D899" /><rect x="70" y="330" width="80" height="20" fill="#F3D899" /><rect x="170" y="330" width="120" height="20" fill="#F3D899" /><rect x="330" y="330" width="100" height="20" fill="#F3D899" /><rect x="70" y="350" width="40" height="20" fill="#F3D899" /><rect x="170" y="350" width="20" height="20" fill="#F3D899" /><rect x="250" y="350" width="180" height="20" fill="#F3D899" /><rect x="70" y="370" width="40" height="20" fill="#F3D899" /><rect x="250" y="370" width="180" height="20" fill="#F3D899" /><rect x="70" y="390" width="360" height="20" fill="#F3D899" /><rect x="70" y="410" width="360" height="20" fill="#F3D899" /><rect x="230" y="170" width="20" height="20" fill="#006669" /><rect x="210" y="150" width="20" height="20" fill="#006669" /></svg>