<svg xmlns="http://www.w3.org/2000/svg" preserveAspectRatio="xMinYMin meet" viewBox="0 0 500 500" shape-rendering="crispEdges" transform-origin="center"><rect width="100%" height="100%" fill="#2F590E" /><g transform="scale (5 5)"><rect x="24" y="-1" width="51" height="9" stroke-width="0.3" stroke="black" fill="#FFA800" /><text x="50" y="5.5" width="42" font-family="monospace" font-size="5" text-anchor="middle">Tunnel of Pain</text></g><rect x="54" y="54" width="391" height="17" fill="#A98C00" /><rect x="54" y="71" width="0" height="17" fill="#A98C00" /><rect x="139" y="71" width="34" height="17" fill="#A98C00" /><rect x="207" y="71" width="51" height="17" fill="#A98C00" /><rect x="275" y="71" width="85" height="17" fill="#A98C00" /><rect x="411" y="71" width="34" height="17" fill="#A98C00" /><rect x="54" y="88" width="17" height="17" fill="#A98C00" /><rect x="156" y="88" width="17" height="17" fill="#A98C00" /><rect x="207" y="88" width="187" height="17" fill="#A98C00" /><rect x="428" y="88" width="17" height="17" fill="#A98C00" /><rect x="54" y="105" width="34" height="17" fill="#A98C00" /><rect x="105" y="105" width="34" height="17" fill="#A98C00" /><rect x="190" y="105" width="221" height="17" fill="#A98C00" /><rect x="428" y="105" width="17" height="17" fill="#A98C00" /><rect x="54" y="122" width="34" height="17" fill="#A98C00" /><rect x="122" y="122" width="34" height="17" fill="#A98C00" /><rect x="190" y="122" width="221" height="17" fill="#A98C00" /><rect x="54" y="139" width="34" height="17" fill="#A98C00" /><rect x="122" y="139" width="34" height="17" fill="#A98C00" /><rect x="173" y="139" width="221" height="17" fill="#A98C00" /><rect x="54" y="156" width="34" height="17" fill="#A98C00" /><rect x="105" y="156" width="51" height="17" fill="#A98C00" /><rect x="173" y="156" width="238" height="17" fill="#A98C00" /><rect x="54" y="173" width="34" height="17" fill="#A98C00" /><rect x="105" y="173" width="51" height="17" fill="#A98C00" /><rect x="173" y="173" width="238" height="17" fill="#A98C00" /><rect x="54" y="190" width="102" height="17" fill="#A98C00" /><rect x="173" y="190" width="221" height="17" fill="#A98C00" /><rect x="428" y="190" width="17" height="17" fill="#A98C00" /><rect x="54" y="207" width="17" height="17" fill="#A98C00" /><rect x="173" y="207" width="204" height="17" fill="#A98C00" /><rect x="428" y="207" width="17" height="17" fill="#A98C00" /><rect x="54" y="224" width="68" height="17" fill="#A98C00" /><rect x="139" y="224" width="17" height="17" fill="#A98C00" /><rect x="190" y="224" width="187" height="17" fill="#A98C00" /><rect x="394" y="224" width="51" height="17" fill="#A98C00" /><rect x="54" y="241" width="17" height="17" fill="#A98C00" /><rect x="105" y="241" width="17" height="17" fill="#A98C00" /><rect x="207" y="241" width="153" height="17" fill="#A98C00" /><rect x="394" y="241" width="51" height="17" fill="#A98C00" /><rect x="54" y="258" width="34" height="17" fill="#A98C00" /><rect x="105" y="258" width="68" height="17" fill="#A98C00" /><rect x="207" y="258" width="153" height="17" fill="#A98C00" /><rect x="394" y="258" width="51" height="17" fill="#A98C00" /><rect x="54" y="275" width="17" height="17" fill="#A98C00" /><rect x="105" y="275" width="51" height="17" fill="#A98C00" /><rect x="224" y="275" width="136" height="17" fill="#A98C00" /><rect x="54" y="292" width="17" height="17" fill="#A98C00" /><rect x="88" y="292" width="68" height="17" fill="#A98C00" /><rect x="190" y="292" width="187" height="17" fill="#A98C00" /><rect x="394" y="292" width="17" height="17" fill="#A98C00" /><rect x="54" y="309" width="119" height="17" fill="#A98C00" /><rect x="190" y="309" width="187" height="17" fill="#A98C00" /><rect x="428" y="309" width="17" height="17" fill="#A98C00" /><rect x="54" y="326" width="119" height="17" fill="#A98C00" /><rect x="190" y="326" width="204" height="17" fill="#A98C00" /><rect x="428" y="326" width="17" height="17" fill="#A98C00" /><rect x="54" y="343" width="17" height="17" fill="#A98C00" /><rect x="88" y="343" width="85" height="17" fill="#A98C00" /><rect x="190" y="343" width="221" height="17" fill="#A98C00" /><rect x="428" y="343" width="17" height="17" fill="#A98C00" /><rect x="54" y="360" width="0" height="17" fill="#A98C00" /><rect x="88" y="360" width="85" height="17" fill="#A98C00" /><rect x="190" y="360" width="204" height="17" fill="#A98C00" /><rect x="428" y="360" width="17" height="17" fill="#A98C00" /><rect x="54" y="377" width="323" height="17" fill="#A98C00" /><rect x="411" y="377" width="34" height="17" fill="#A98C00" /><rect x="54" y="394" width="323" height="17" fill="#A98C00" /><rect x="394" y="394" width="51" height="17" fill="#A98C00" /><rect x="54" y="411" width="323" height="17" fill="#A98C00" /><rect x="394" y="411" width="51" height="17" fill="#A98C00" /><rect x="54" y="428" width="391" height="17" fill="#A98C00" /><rect x="394" y="377" width="17" height="17" fill="#C55300" /><rect x="377" y="377" width="17" height="17" fill="#802F1A" /><rect x="190" y="241" width="17" height="17" fill="#802F1A" /><rect x="105" y="139" width="17" height="17" fill="#802F1A" /><rect x="394" y="88" width="17" height="17" fill="#C55300" /><rect x="139" y="88" width="17" height="17" fill="#802F1A" /><rect x="394" y="71" width="17" height="17" fill="#802F1A" /></svg>