<svg xmlns="http://www.w3.org/2000/svg" preserveAspectRatio="xMinYMin meet" viewBox="0 0 500 500" shape-rendering="crispEdges" transform-origin="center"><rect width="100%" height="100%" fill="#36230F" /><g transform="scale (5 5)"><rect x="27" y="-1" width="45" height="9" stroke-width="0.3" stroke="black" fill="#FFA800" /><text x="50" y="5.5" width="36" font-family="monospace" font-size="5" text-anchor="middle">Hidden Dunes</text></g><rect x="54" y="54" width="204" height="17" fill="#744936" /><rect x="275" y="54" width="170" height="17" fill="#744936" /><rect x="54" y="71" width="391" height="17" fill="#744936" /><rect x="54" y="88" width="391" height="17" fill="#744936" /><rect x="54" y="105" width="391" height="17" fill="#744936" /><rect x="54" y="122" width="374" height="17" fill="#744936" /><rect x="54" y="139" width="374" height="17" fill="#744936" /><rect x="54" y="156" width="374" height="17" fill="#744936" /><rect x="54" y="173" width="391" height="17" fill="#744936" /><rect x="54" y="190" width="153" height="17" fill="#744936" /><rect x="258" y="190" width="187" height="17" fill="#744936" /><rect x="54" y="207" width="170" height="17" fill="#744936" /><rect x="275" y="207" width="170" height="17" fill="#744936" /><rect x="54" y="224" width="204" height="17" fill="#744936" /><rect x="275" y="224" width="17" height="17" fill="#744936" /><rect x="343" y="224" width="102" height="17" fill="#744936" /><rect x="54" y="241" width="204" height="17" fill="#744936" /><rect x="309" y="241" width="136" height="17" fill="#744936" /><rect x="54" y="258" width="204" height="17" fill="#744936" /><rect x="309" y="258" width="136" height="17" fill="#744936" /><rect x="54" y="275" width="204" height="17" fill="#744936" /><rect x="309" y="275" width="68" height="17" fill="#744936" /><rect x="394" y="275" width="51" height="17" fill="#744936" /><rect x="54" y="292" width="221" height="17" fill="#744936" /><rect x="343" y="292" width="17" height="17" fill="#744936" /><rect x="394" y="292" width="51" height="17" fill="#744936" /><rect x="54" y="309" width="204" height="17" fill="#744936" /><rect x="309" y="309" width="17" height="17" fill="#744936" /><rect x="343" y="309" width="17" height="17" fill="#744936" /><rect x="394" y="309" width="51" height="17" fill="#744936" /><rect x="54" y="326" width="102" height="17" fill="#744936" /><rect x="173" y="326" width="85" height="17" fill="#744936" /><rect x="394" y="326" width="51" height="17" fill="#744936" /><rect x="54" y="343" width="85" height="17" fill="#744936" /><rect x="173" y="343" width="17" height="17" fill="#744936" /><rect x="207" y="343" width="68" height="17" fill="#744936" /><rect x="309" y="343" width="34" height="17" fill="#744936" /><rect x="394" y="343" width="51" height="17" fill="#744936" /><rect x="54" y="360" width="85" height="17" fill="#744936" /><rect x="156" y="360" width="34" height="17" fill="#744936" /><rect x="207" y="360" width="68" height="17" fill="#744936" /><rect x="309" y="360" width="34" height="17" fill="#744936" /><rect x="54" y="377" width="68" height="17" fill="#744936" /><rect x="156" y="377" width="17" height="17" fill="#744936" /><rect x="224" y="377" width="17" height="17" fill="#744936" /><rect x="326" y="377" width="17" height="17" fill="#744936" /><rect x="394" y="377" width="17" height="17" fill="#744936" /><rect x="428" y="377" width="17" height="17" fill="#744936" /><rect x="54" y="394" width="68" height="17" fill="#744936" /><rect x="139" y="394" width="34" height="17" fill="#744936" /><rect x="190" y="394" width="34" height="17" fill="#744936" /><rect x="394" y="394" width="17" height="17" fill="#744936" /><rect x="428" y="394" width="17" height="17" fill="#744936" /><rect x="54" y="411" width="68" height="17" fill="#744936" /><rect x="139" y="411" width="34" height="17" fill="#744936" /><rect x="224" y="411" width="17" height="17" fill="#744936" /><rect x="275" y="411" width="34" height="17" fill="#744936" /><rect x="428" y="411" width="17" height="17" fill="#744936" /><rect x="54" y="428" width="68" height="17" fill="#744936" /><rect x="139" y="428" width="68" height="17" fill="#744936" /><rect x="224" y="428" width="17" height="17" fill="#744936" /><rect x="258" y="428" width="51" height="17" fill="#744936" /><rect x="394" y="428" width="17" height="17" fill="#744936" /><rect x="360" y="377" width="17" height="17" fill="#802F1A" /><rect x="122" y="377" width="17" height="17" fill="#FFA800" /><rect x="343" y="360" width="17" height="17" fill="#FFA800" /><rect x="292" y="309" width="17" height="17" fill="#FFA800" /></svg>