<svg xmlns="http://www.w3.org/2000/svg" preserveAspectRatio="xMinYMin meet" viewBox="0 0 500 500" shape-rendering="crispEdges" transform-origin="center"><rect width="100%" height="100%" fill="#967E67" /><g transform="scale (5 5)"><rect x="38" y="-1" width="24" height="9" stroke-width="0.3" stroke="black" fill="#FFA800" /><text x="50" y="5.5" width="15" font-family="monospace" font-size="5" text-anchor="middle">Woods</text></g><rect x="134" y="101" width="264" height="33" fill="#F3D899" /><rect x="101" y="134" width="33" height="33" fill="#F3D899" /><rect x="200" y="134" width="99" height="33" fill="#F3D899" /><rect x="365" y="134" width="33" height="33" fill="#F3D899" /><rect x="101" y="167" width="66" height="33" fill="#F3D899" /><rect x="200" y="167" width="66" height="33" fill="#F3D899" /><rect x="332" y="167" width="66" height="33" fill="#F3D899" /><rect x="101" y="200" width="66" height="33" fill="#F3D899" /><rect x="200" y="200" width="66" height="33" fill="#F3D899" /><rect x="299" y="200" width="99" height="33" fill="#F3D899" /><rect x="101" y="233" width="66" height="33" fill="#F3D899" /><rect x="299" y="233" width="99" height="33" fill="#F3D899" /><rect x="101" y="266" width="132" height="33" fill="#F3D899" /><rect x="332" y="266" width="66" height="33" fill="#F3D899" /><rect x="101" y="299" width="198" height="33" fill="#F3D899" /><rect x="332" y="299" width="66" height="33" fill="#F3D899" /><rect x="101" y="332" width="198" height="33" fill="#F3D899" /><rect x="365" y="332" width="33" height="33" fill="#F3D899" /><rect x="101" y="365" width="297" height="33" fill="#F3D899" /><rect x="299" y="332" width="33" height="33" fill="#006669" /><rect x="266" y="233" width="33" height="33" fill="#3C2A1A" /><rect x="266" y="200" width="33" height="33" fill="#006669" /><rect x="167" y="167" width="33" height="33" fill="#3C2A1A" /><rect x="299" y="134" width="33" height="33" fill="#006669" /></svg>