<svg xmlns="http://www.w3.org/2000/svg" preserveAspectRatio="xMinYMin meet" viewBox="0 0 500 500" shape-rendering="crispEdges" transform-origin="center"><rect width="100%" height="100%" fill="#2F590E" /><g transform="scale (5 5)"><rect x="14" y="-1" width="72" height="9" stroke-width="0.3" stroke="black" fill="#FFA800" /><text x="50" y="5.5" width="99" font-family="monospace" font-size="4" text-anchor="middle">Glowing Mountain of Sorrow</text></g><rect x="74" y="74" width="176" height="22" fill="#A98C00" /><rect x="272" y="74" width="154" height="22" fill="#A98C00" /><rect x="74" y="96" width="22" height="22" fill="#A98C00" /><rect x="118" y="96" width="22" height="22" fill="#A98C00" /><rect x="162" y="96" width="132" height="22" fill="#A98C00" /><rect x="360" y="96" width="66" height="22" fill="#A98C00" /><rect x="74" y="118" width="22" height="22" fill="#A98C00" /><rect x="162" y="118" width="132" height="22" fill="#A98C00" /><rect x="382" y="118" width="44" height="22" fill="#A98C00" /><rect x="74" y="140" width="22" height="22" fill="#A98C00" /><rect x="140" y="140" width="132" height="22" fill="#A98C00" /><rect x="382" y="140" width="44" height="22" fill="#A98C00" /><rect x="74" y="162" width="22" height="22" fill="#A98C00" /><rect x="162" y="162" width="110" height="22" fill="#A98C00" /><rect x="382" y="162" width="44" height="22" fill="#A98C00" /><rect x="74" y="184" width="44" height="22" fill="#A98C00" /><rect x="162" y="184" width="110" height="22" fill="#A98C00" /><rect x="338" y="184" width="88" height="22" fill="#A98C00" /><rect x="74" y="206" width="66" height="22" fill="#A98C00" /><rect x="162" y="206" width="132" height="22" fill="#A98C00" /><rect x="338" y="206" width="88" height="22" fill="#A98C00" /><rect x="74" y="228" width="66" height="22" fill="#A98C00" /><rect x="184" y="228" width="110" height="22" fill="#A98C00" /><rect x="404" y="228" width="22" height="22" fill="#A98C00" /><rect x="74" y="250" width="88" height="22" fill="#A98C00" /><rect x="184" y="250" width="132" height="22" fill="#A98C00" /><rect x="360" y="250" width="66" height="22" fill="#A98C00" /><rect x="74" y="272" width="220" height="22" fill="#A98C00" /><rect x="360" y="272" width="66" height="22" fill="#A98C00" /><rect x="74" y="294" width="242" height="22" fill="#A98C00" /><rect x="360" y="294" width="66" height="22" fill="#A98C00" /><rect x="74" y="316" width="220" height="22" fill="#A98C00" /><rect x="382" y="316" width="44" height="22" fill="#A98C00" /><rect x="74" y="338" width="286" height="22" fill="#A98C00" /><rect x="382" y="338" width="44" height="22" fill="#A98C00" /><rect x="74" y="360" width="286" height="22" fill="#A98C00" /><rect x="382" y="360" width="44" height="22" fill="#A98C00" /><rect x="74" y="382" width="352" height="22" fill="#A98C00" /><rect x="74" y="404" width="0" height="22" fill="#A98C00" /><rect x="96" y="404" width="330" height="22" fill="#A98C00" /><rect x="360" y="228" width="22" height="22" fill="#C55300" /><rect x="338" y="228" width="22" height="22" fill="#802F1A" /><rect x="294" y="162" width="22" height="22" fill="#802F1A" /></svg>