<svg xmlns="http://www.w3.org/2000/svg" preserveAspectRatio="xMinYMin meet" viewBox="0 0 500 500" shape-rendering="crispEdges" transform-origin="center"><rect width="100%" height="100%" fill="#F3D899" /><g transform="scale (5 5)"><rect x="14" y="-1" width="72" height="9" stroke-width="0.3" stroke="black" fill="#FFA800" /><text x="50" y="5.5" width="99" font-family="monospace" font-size="4" text-anchor="middle">Fallen Field of the Plague</text></g><rect x="58" y="58" width="384" height="16" fill="#160F09" /><rect x="58" y="74" width="384" height="16" fill="#160F09" /><rect x="58" y="90" width="384" height="16" fill="#160F09" /><rect x="58" y="106" width="384" height="16" fill="#160F09" /><rect x="58" y="122" width="384" height="16" fill="#160F09" /><rect x="58" y="138" width="16" height="16" fill="#160F09" /><rect x="186" y="138" width="256" height="16" fill="#160F09" /><rect x="58" y="154" width="16" height="16" fill="#160F09" /><rect x="186" y="154" width="80" height="16" fill="#160F09" /><rect x="378" y="154" width="64" height="16" fill="#160F09" /><rect x="58" y="170" width="16" height="16" fill="#160F09" /><rect x="186" y="170" width="80" height="16" fill="#160F09" /><rect x="378" y="170" width="64" height="16" fill="#160F09" /><rect x="58" y="186" width="16" height="16" fill="#160F09" /><rect x="378" y="186" width="64" height="16" fill="#160F09" /><rect x="58" y="202" width="16" height="16" fill="#160F09" /><rect x="186" y="202" width="80" height="16" fill="#160F09" /><rect x="298" y="202" width="144" height="16" fill="#160F09" /><rect x="58" y="218" width="16" height="16" fill="#160F09" /><rect x="186" y="218" width="80" height="16" fill="#160F09" /><rect x="298" y="218" width="144" height="16" fill="#160F09" /><rect x="58" y="234" width="16" height="16" fill="#160F09" /><rect x="298" y="234" width="32" height="16" fill="#160F09" /><rect x="410" y="234" width="32" height="16" fill="#160F09" /><rect x="58" y="250" width="32" height="16" fill="#160F09" /><rect x="106" y="250" width="64" height="16" fill="#160F09" /><rect x="218" y="250" width="48" height="16" fill="#160F09" /><rect x="298" y="250" width="32" height="16" fill="#160F09" /><rect x="410" y="250" width="32" height="16" fill="#160F09" /><rect x="58" y="266" width="32" height="16" fill="#160F09" /><rect x="106" y="266" width="16" height="16" fill="#160F09" /><rect x="410" y="266" width="32" height="16" fill="#160F09" /><rect x="58" y="282" width="32" height="16" fill="#160F09" /><rect x="202" y="282" width="80" height="16" fill="#160F09" /><rect x="298" y="282" width="32" height="16" fill="#160F09" /><rect x="410" y="282" width="32" height="16" fill="#160F09" /><rect x="58" y="298" width="64" height="16" fill="#160F09" /><rect x="202" y="298" width="80" height="16" fill="#160F09" /><rect x="298" y="298" width="144" height="16" fill="#160F09" /><rect x="58" y="314" width="32" height="16" fill="#160F09" /><rect x="202" y="314" width="80" height="16" fill="#160F09" /><rect x="298" y="314" width="144" height="16" fill="#160F09" /><rect x="58" y="330" width="32" height="16" fill="#160F09" /><rect x="202" y="330" width="80" height="16" fill="#160F09" /><rect x="298" y="330" width="144" height="16" fill="#160F09" /><rect x="58" y="346" width="32" height="16" fill="#160F09" /><rect x="282" y="346" width="160" height="16" fill="#160F09" /><rect x="58" y="362" width="32" height="16" fill="#160F09" /><rect x="202" y="362" width="240" height="16" fill="#160F09" /><rect x="58" y="378" width="32" height="16" fill="#160F09" /><rect x="202" y="378" width="240" height="16" fill="#160F09" /><rect x="58" y="394" width="384" height="16" fill="#160F09" /><rect x="58" y="410" width="384" height="16" fill="#160F09" /><rect x="58" y="426" width="384" height="16" fill="#160F09" /><rect x="362" y="266" width="16" height="16" fill="#00A29D" /><rect x="282" y="250" width="16" height="16" fill="#00A29D" /><rect x="346" y="234" width="16" height="16" fill="#00A29D" /></svg>