<svg xmlns="http://www.w3.org/2000/svg" preserveAspectRatio="xMinYMin meet" viewBox="0 0 500 500" shape-rendering="crispEdges" transform-origin="center"><rect width="100%" height="100%" fill="#F3D899" /><g transform="scale (5 5)"><rect x="9" y="-1" width="82" height="9" stroke-width="0.3" stroke="black" fill="#FFA800" /><text x="50" y="5.5" width="114" font-family="monospace" font-size="4" text-anchor="middle">Heaven's Field of Enlightenment</text></g><rect x="60" y="60" width="380" height="20" fill="#160F09" /><rect x="60" y="80" width="380" height="20" fill="#160F09" /><rect x="60" y="100" width="380" height="20" fill="#160F09" /><rect x="60" y="120" width="380" height="20" fill="#160F09" /><rect x="60" y="140" width="80" height="20" fill="#160F09" /><rect x="240" y="140" width="200" height="20" fill="#160F09" /><rect x="60" y="160" width="80" height="20" fill="#160F09" /><rect x="240" y="160" width="200" height="20" fill="#160F09" /><rect x="60" y="180" width="80" height="20" fill="#160F09" /><rect x="240" y="180" width="200" height="20" fill="#160F09" /><rect x="60" y="200" width="80" height="20" fill="#160F09" /><rect x="240" y="200" width="200" height="20" fill="#160F09" /><rect x="60" y="220" width="80" height="20" fill="#160F09" /><rect x="240" y="220" width="200" height="20" fill="#160F09" /><rect x="60" y="240" width="100" height="20" fill="#160F09" /><rect x="200" y="240" width="240" height="20" fill="#160F09" /><rect x="60" y="260" width="100" height="20" fill="#160F09" /><rect x="260" y="260" width="180" height="20" fill="#160F09" /><rect x="60" y="280" width="60" height="20" fill="#160F09" /><rect x="340" y="280" width="100" height="20" fill="#160F09" /><rect x="60" y="300" width="40" height="20" fill="#160F09" /><rect x="260" y="300" width="40" height="20" fill="#160F09" /><rect x="340" y="300" width="100" height="20" fill="#160F09" /><rect x="60" y="320" width="40" height="20" fill="#160F09" /><rect x="340" y="320" width="100" height="20" fill="#160F09" /><rect x="60" y="340" width="20" height="20" fill="#160F09" /><rect x="220" y="340" width="220" height="20" fill="#160F09" /><rect x="60" y="360" width="20" height="20" fill="#160F09" /><rect x="220" y="360" width="220" height="20" fill="#160F09" /><rect x="60" y="380" width="40" height="20" fill="#160F09" /><rect x="160" y="380" width="280" height="20" fill="#160F09" /><rect x="60" y="400" width="380" height="20" fill="#160F09" /><rect x="60" y="420" width="380" height="20" fill="#160F09" /><rect x="240" y="320" width="20" height="20" fill="#FAAA00" /><rect x="160" y="280" width="20" height="20" fill="#00A29D" /></svg>