<svg xmlns="http://www.w3.org/2000/svg" preserveAspectRatio="xMinYMin meet" viewBox="0 0 500 500" shape-rendering="crispEdges" transform-origin="center"><rect width="100%" height="100%" fill="#F3D899" /><g transform="scale (5 5)"><rect x="20" y="-1" width="60" height="9" stroke-width="0.3" stroke="black" fill="#FFA800" /><text x="50" y="5.5" width="51" font-family="monospace" font-size="5" text-anchor="middle">Abyssal Labyrinth</text></g><rect x="60" y="60" width="380" height="19" fill="#160F09" /><rect x="60" y="79" width="380" height="19" fill="#160F09" /><rect x="60" y="98" width="380" height="19" fill="#160F09" /><rect x="60" y="117" width="133" height="19" fill="#160F09" /><rect x="250" y="117" width="190" height="19" fill="#160F09" /><rect x="60" y="136" width="133" height="19" fill="#160F09" /><rect x="250" y="136" width="190" height="19" fill="#160F09" /><rect x="60" y="155" width="19" height="19" fill="#160F09" /><rect x="174" y="155" width="19" height="19" fill="#160F09" /><rect x="250" y="155" width="190" height="19" fill="#160F09" /><rect x="60" y="174" width="19" height="19" fill="#160F09" /><rect x="174" y="174" width="19" height="19" fill="#160F09" /><rect x="250" y="174" width="190" height="19" fill="#160F09" /><rect x="60" y="193" width="19" height="19" fill="#160F09" /><rect x="250" y="193" width="190" height="19" fill="#160F09" /><rect x="60" y="212" width="19" height="19" fill="#160F09" /><rect x="174" y="212" width="38" height="19" fill="#160F09" /><rect x="250" y="212" width="190" height="19" fill="#160F09" /><rect x="60" y="231" width="152" height="19" fill="#160F09" /><rect x="250" y="231" width="190" height="19" fill="#160F09" /><rect x="60" y="250" width="133" height="19" fill="#160F09" /><rect x="345" y="250" width="95" height="19" fill="#160F09" /><rect x="60" y="269" width="76" height="19" fill="#160F09" /><rect x="345" y="269" width="95" height="19" fill="#160F09" /><rect x="60" y="288" width="19" height="19" fill="#160F09" /><rect x="117" y="288" width="19" height="19" fill="#160F09" /><rect x="155" y="288" width="114" height="19" fill="#160F09" /><rect x="345" y="288" width="95" height="19" fill="#160F09" /><rect x="60" y="307" width="19" height="19" fill="#160F09" /><rect x="307" y="307" width="133" height="19" fill="#160F09" /><rect x="60" y="326" width="19" height="19" fill="#160F09" /><rect x="174" y="326" width="76" height="19" fill="#160F09" /><rect x="288" y="326" width="152" height="19" fill="#160F09" /><rect x="60" y="345" width="38" height="19" fill="#160F09" /><rect x="174" y="345" width="76" height="19" fill="#160F09" /><rect x="288" y="345" width="152" height="19" fill="#160F09" /><rect x="60" y="364" width="38" height="19" fill="#160F09" /><rect x="288" y="364" width="152" height="19" fill="#160F09" /><rect x="60" y="383" width="57" height="19" fill="#160F09" /><rect x="174" y="383" width="76" height="19" fill="#160F09" /><rect x="288" y="383" width="152" height="19" fill="#160F09" /><rect x="60" y="402" width="380" height="19" fill="#160F09" /><rect x="60" y="421" width="380" height="19" fill="#160F09" /><rect x="155" y="345" width="19" height="19" fill="#00A29D" /><rect x="174" y="307" width="19" height="19" fill="#FAAA00" /><rect x="326" y="288" width="19" height="19" fill="#00A29D" /><rect x="98" y="212" width="19" height="19" fill="#00A29D" /><rect x="98" y="174" width="19" height="19" fill="#00A29D" /></svg>