<svg xmlns="http://www.w3.org/2000/svg" preserveAspectRatio="xMinYMin meet" viewBox="0 0 500 500" shape-rendering="crispEdges" transform-origin="center"><rect width="100%" height="100%" fill="#967E67" /><g transform="scale (5 5)"><rect x="17" y="-1" width="66" height="9" stroke-width="0.3" stroke="black" fill="#FFA800" /><text x="50" y="5.5" width="57" font-family="monospace" font-size="5" text-anchor="middle">Temple of the Twins</text></g><rect x="61" y="61" width="36" height="18" fill="#F3D899" /><rect x="115" y="61" width="324" height="18" fill="#F3D899" /><rect x="61" y="79" width="36" height="18" fill="#F3D899" /><rect x="115" y="79" width="324" height="18" fill="#F3D899" /><rect x="61" y="97" width="36" height="18" fill="#F3D899" /><rect x="151" y="97" width="288" height="18" fill="#F3D899" /><rect x="61" y="115" width="54" height="18" fill="#F3D899" /><rect x="151" y="115" width="288" height="18" fill="#F3D899" /><rect x="61" y="133" width="72" height="18" fill="#F3D899" /><rect x="151" y="133" width="288" height="18" fill="#F3D899" /><rect x="61" y="151" width="72" height="18" fill="#F3D899" /><rect x="151" y="151" width="162" height="18" fill="#F3D899" /><rect x="349" y="151" width="90" height="18" fill="#F3D899" /><rect x="61" y="169" width="54" height="18" fill="#F3D899" /><rect x="151" y="169" width="180" height="18" fill="#F3D899" /><rect x="367" y="169" width="72" height="18" fill="#F3D899" /><rect x="61" y="187" width="72" height="18" fill="#F3D899" /><rect x="187" y="187" width="162" height="18" fill="#F3D899" /><rect x="403" y="187" width="36" height="18" fill="#F3D899" /><rect x="61" y="205" width="36" height="18" fill="#F3D899" /><rect x="205" y="205" width="180" height="18" fill="#F3D899" /><rect x="61" y="223" width="18" height="18" fill="#F3D899" /><rect x="151" y="223" width="36" height="18" fill="#F3D899" /><rect x="205" y="223" width="216" height="18" fill="#F3D899" /><rect x="61" y="241" width="18" height="18" fill="#F3D899" /><rect x="97" y="241" width="36" height="18" fill="#F3D899" /><rect x="151" y="241" width="36" height="18" fill="#F3D899" /><rect x="205" y="241" width="234" height="18" fill="#F3D899" /><rect x="61" y="259" width="36" height="18" fill="#F3D899" /><rect x="151" y="259" width="18" height="18" fill="#F3D899" /><rect x="205" y="259" width="234" height="18" fill="#F3D899" /><rect x="61" y="277" width="36" height="18" fill="#F3D899" /><rect x="115" y="277" width="18" height="18" fill="#F3D899" /><rect x="187" y="277" width="252" height="18" fill="#F3D899" /><rect x="61" y="295" width="36" height="18" fill="#F3D899" /><rect x="115" y="295" width="18" height="18" fill="#F3D899" /><rect x="205" y="295" width="234" height="18" fill="#F3D899" /><rect x="61" y="313" width="18" height="18" fill="#F3D899" /><rect x="115" y="313" width="18" height="18" fill="#F3D899" /><rect x="169" y="313" width="18" height="18" fill="#F3D899" /><rect x="223" y="313" width="216" height="18" fill="#F3D899" /><rect x="61" y="331" width="36" height="18" fill="#F3D899" /><rect x="133" y="331" width="18" height="18" fill="#F3D899" /><rect x="223" y="331" width="216" height="18" fill="#F3D899" /><rect x="61" y="349" width="36" height="18" fill="#F3D899" /><rect x="151" y="349" width="18" height="18" fill="#F3D899" /><rect x="205" y="349" width="90" height="18" fill="#F3D899" /><rect x="313" y="349" width="72" height="18" fill="#F3D899" /><rect x="403" y="349" width="36" height="18" fill="#F3D899" /><rect x="61" y="367" width="36" height="18" fill="#F3D899" /><rect x="133" y="367" width="54" height="18" fill="#F3D899" /><rect x="223" y="367" width="54" height="18" fill="#F3D899" /><rect x="313" y="367" width="54" height="18" fill="#F3D899" /><rect x="421" y="367" width="18" height="18" fill="#F3D899" /><rect x="61" y="385" width="36" height="18" fill="#F3D899" /><rect x="241" y="385" width="54" height="18" fill="#F3D899" /><rect x="313" y="385" width="36" height="18" fill="#F3D899" /><rect x="385" y="385" width="54" height="18" fill="#F3D899" /><rect x="61" y="403" width="18" height="18" fill="#F3D899" /><rect x="187" y="403" width="36" height="18" fill="#F3D899" /><rect x="259" y="403" width="18" height="18" fill="#F3D899" /><rect x="313" y="403" width="36" height="18" fill="#F3D899" /><rect x="385" y="403" width="54" height="18" fill="#F3D899" /><rect x="61" y="421" width="36" height="18" fill="#F3D899" /><rect x="187" y="421" width="54" height="18" fill="#F3D899" /><rect x="313" y="421" width="18" height="18" fill="#F3D899" /><rect x="385" y="421" width="54" height="18" fill="#F3D899" /><rect x="223" y="403" width="18" height="18" fill="#3C2A1A" /><rect x="205" y="367" width="18" height="18" fill="#006669" /><rect x="385" y="349" width="18" height="18" fill="#3C2A1A" /><rect x="169" y="331" width="18" height="18" fill="#3C2A1A" /><rect x="205" y="313" width="18" height="18" fill="#006669" /><rect x="133" y="223" width="18" height="18" fill="#3C2A1A" /><rect x="403" y="205" width="18" height="18" fill="#006669" /><rect x="169" y="205" width="18" height="18" fill="#3C2A1A" /><rect x="367" y="187" width="18" height="18" fill="#3C2A1A" /></svg>