<svg xmlns="http://www.w3.org/2000/svg" preserveAspectRatio="xMinYMin meet" viewBox="0 0 500 500" shape-rendering="crispEdges" transform-origin="center"><rect width="100%" height="100%" fill="#967E67" /><g transform="scale (5 5)"><rect x="8" y="-1" width="84" height="9" stroke-width="0.3" stroke="black" fill="#FFA800" /><text x="50" y="5.5" width="75" font-family="monospace" font-size="5" text-anchor="middle">Siren's Gorge of the Root</text></g><rect x="58" y="58" width="384" height="16" fill="#F3D899" /><rect x="58" y="74" width="384" height="16" fill="#F3D899" /><rect x="58" y="90" width="240" height="16" fill="#F3D899" /><rect x="410" y="90" width="32" height="16" fill="#F3D899" /><rect x="58" y="106" width="80" height="16" fill="#F3D899" /><rect x="410" y="106" width="32" height="16" fill="#F3D899" /><rect x="58" y="122" width="64" height="16" fill="#F3D899" /><rect x="186" y="122" width="48" height="16" fill="#F3D899" /><rect x="410" y="122" width="32" height="16" fill="#F3D899" /><rect x="58" y="138" width="64" height="16" fill="#F3D899" /><rect x="186" y="138" width="48" height="16" fill="#F3D899" /><rect x="266" y="138" width="176" height="16" fill="#F3D899" /><rect x="58" y="154" width="64" height="16" fill="#F3D899" /><rect x="186" y="154" width="64" height="16" fill="#F3D899" /><rect x="266" y="154" width="176" height="16" fill="#F3D899" /><rect x="58" y="170" width="64" height="16" fill="#F3D899" /><rect x="186" y="170" width="64" height="16" fill="#F3D899" /><rect x="298" y="170" width="144" height="16" fill="#F3D899" /><rect x="58" y="186" width="64" height="16" fill="#F3D899" /><rect x="186" y="186" width="64" height="16" fill="#F3D899" /><rect x="298" y="186" width="144" height="16" fill="#F3D899" /><rect x="58" y="202" width="64" height="16" fill="#F3D899" /><rect x="186" y="202" width="64" height="16" fill="#F3D899" /><rect x="298" y="202" width="144" height="16" fill="#F3D899" /><rect x="58" y="218" width="64" height="16" fill="#F3D899" /><rect x="186" y="218" width="64" height="16" fill="#F3D899" /><rect x="298" y="218" width="144" height="16" fill="#F3D899" /><rect x="58" y="234" width="64" height="16" fill="#F3D899" /><rect x="170" y="234" width="80" height="16" fill="#F3D899" /><rect x="298" y="234" width="144" height="16" fill="#F3D899" /><rect x="58" y="250" width="32" height="16" fill="#F3D899" /><rect x="202" y="250" width="64" height="16" fill="#F3D899" /><rect x="282" y="250" width="160" height="16" fill="#F3D899" /><rect x="58" y="266" width="32" height="16" fill="#F3D899" /><rect x="202" y="266" width="64" height="16" fill="#F3D899" /><rect x="282" y="266" width="160" height="16" fill="#F3D899" /><rect x="58" y="282" width="32" height="16" fill="#F3D899" /><rect x="202" y="282" width="64" height="16" fill="#F3D899" /><rect x="282" y="282" width="160" height="16" fill="#F3D899" /><rect x="58" y="298" width="64" height="16" fill="#F3D899" /><rect x="282" y="298" width="160" height="16" fill="#F3D899" /><rect x="58" y="314" width="64" height="16" fill="#F3D899" /><rect x="202" y="314" width="64" height="16" fill="#F3D899" /><rect x="282" y="314" width="160" height="16" fill="#F3D899" /><rect x="58" y="330" width="48" height="16" fill="#F3D899" /><rect x="250" y="330" width="16" height="16" fill="#F3D899" /><rect x="282" y="330" width="160" height="16" fill="#F3D899" /><rect x="58" y="346" width="48" height="16" fill="#F3D899" /><rect x="250" y="346" width="16" height="16" fill="#F3D899" /><rect x="378" y="346" width="64" height="16" fill="#F3D899" /><rect x="58" y="362" width="48" height="16" fill="#F3D899" /><rect x="378" y="362" width="64" height="16" fill="#F3D899" /><rect x="58" y="378" width="48" height="16" fill="#F3D899" /><rect x="378" y="378" width="64" height="16" fill="#F3D899" /><rect x="58" y="394" width="96" height="16" fill="#F3D899" /><rect x="330" y="394" width="112" height="16" fill="#F3D899" /><rect x="58" y="410" width="384" height="16" fill="#F3D899" /><rect x="58" y="426" width="384" height="16" fill="#F3D899" /><rect x="170" y="394" width="16" height="16" fill="#006669" /><rect x="362" y="362" width="16" height="16" fill="#006669" /><rect x="250" y="362" width="16" height="16" fill="#3C2A1A" /><rect x="122" y="154" width="16" height="16" fill="#006669" /><rect x="330" y="106" width="16" height="16" fill="#006669" /><rect x="362" y="90" width="16" height="16" fill="#006669" /></svg>