<svg xmlns="http://www.w3.org/2000/svg" preserveAspectRatio="xMinYMin meet" viewBox="0 0 500 500" shape-rendering="crispEdges" transform-origin="center"><rect width="100%" height="100%" fill="#F3D899" /><g transform="scale (5 5)"><rect x="26" y="-1" width="48" height="9" stroke-width="0.3" stroke="black" fill="#FFA800" /><text x="50" y="5.5" width="39" font-family="monospace" font-size="5" text-anchor="middle">Hidden Prison</text></g><rect x="61" y="61" width="18" height="18" fill="#160F09" /><rect x="97" y="61" width="342" height="18" fill="#160F09" /><rect x="61" y="79" width="54" height="18" fill="#160F09" /><rect x="133" y="79" width="72" height="18" fill="#160F09" /><rect x="313" y="79" width="126" height="18" fill="#160F09" /><rect x="61" y="97" width="54" height="18" fill="#160F09" /><rect x="151" y="97" width="54" height="18" fill="#160F09" /><rect x="313" y="97" width="126" height="18" fill="#160F09" /><rect x="61" y="115" width="54" height="18" fill="#160F09" /><rect x="151" y="115" width="54" height="18" fill="#160F09" /><rect x="313" y="115" width="126" height="18" fill="#160F09" /><rect x="61" y="133" width="54" height="18" fill="#160F09" /><rect x="133" y="133" width="72" height="18" fill="#160F09" /><rect x="223" y="133" width="36" height="18" fill="#160F09" /><rect x="295" y="133" width="144" height="18" fill="#160F09" /><rect x="61" y="151" width="0" height="18" fill="#160F09" /><rect x="79" y="151" width="36" height="18" fill="#160F09" /><rect x="169" y="151" width="36" height="18" fill="#160F09" /><rect x="223" y="151" width="36" height="18" fill="#160F09" /><rect x="295" y="151" width="144" height="18" fill="#160F09" /><rect x="61" y="169" width="90" height="18" fill="#160F09" /><rect x="169" y="169" width="36" height="18" fill="#160F09" /><rect x="223" y="169" width="36" height="18" fill="#160F09" /><rect x="277" y="169" width="162" height="18" fill="#160F09" /><rect x="61" y="187" width="90" height="18" fill="#160F09" /><rect x="187" y="187" width="18" height="18" fill="#160F09" /><rect x="223" y="187" width="36" height="18" fill="#160F09" /><rect x="277" y="187" width="162" height="18" fill="#160F09" /><rect x="61" y="205" width="126" height="18" fill="#160F09" /><rect x="277" y="205" width="162" height="18" fill="#160F09" /><rect x="61" y="223" width="126" height="18" fill="#160F09" /><rect x="223" y="223" width="216" height="18" fill="#160F09" /><rect x="61" y="241" width="18" height="18" fill="#160F09" /><rect x="97" y="241" width="90" height="18" fill="#160F09" /><rect x="205" y="241" width="234" height="18" fill="#160F09" /><rect x="61" y="259" width="18" height="18" fill="#160F09" /><rect x="97" y="259" width="72" height="18" fill="#160F09" /><rect x="205" y="259" width="234" height="18" fill="#160F09" /><rect x="61" y="277" width="0" height="18" fill="#160F09" /><rect x="115" y="277" width="54" height="18" fill="#160F09" /><rect x="187" y="277" width="252" height="18" fill="#160F09" /><rect x="61" y="295" width="72" height="18" fill="#160F09" /><rect x="223" y="295" width="216" height="18" fill="#160F09" /><rect x="61" y="313" width="54" height="18" fill="#160F09" /><rect x="169" y="313" width="270" height="18" fill="#160F09" /><rect x="61" y="331" width="36" height="18" fill="#160F09" /><rect x="133" y="331" width="306" height="18" fill="#160F09" /><rect x="61" y="349" width="18" height="18" fill="#160F09" /><rect x="115" y="349" width="324" height="18" fill="#160F09" /><rect x="61" y="367" width="378" height="18" fill="#160F09" /><rect x="61" y="385" width="360" height="18" fill="#160F09" /><rect x="61" y="403" width="360" height="18" fill="#160F09" /><rect x="61" y="421" width="378" height="18" fill="#160F09" /></svg>