<svg xmlns="http://www.w3.org/2000/svg" preserveAspectRatio="xMinYMin meet" viewBox="0 0 500 500" shape-rendering="crispEdges" transform-origin="center"><rect width="100%" height="100%" fill="#F3D899" /><g transform="scale (5 5)"><rect x="15" y="-1" width="69" height="9" stroke-width="0.3" stroke="black" fill="#FFA800" /><text x="50" y="5.5" width="60" font-family="monospace" font-size="5" text-anchor="middle">Tunnel of the Titans</text></g><rect x="71" y="71" width="105" height="21" fill="#160F09" /><rect x="197" y="71" width="231" height="21" fill="#160F09" /><rect x="71" y="92" width="315" height="21" fill="#160F09" /><rect x="407" y="92" width="21" height="21" fill="#160F09" /><rect x="71" y="113" width="315" height="21" fill="#160F09" /><rect x="71" y="134" width="357" height="21" fill="#160F09" /><rect x="71" y="155" width="357" height="21" fill="#160F09" /><rect x="71" y="176" width="357" height="21" fill="#160F09" /><rect x="71" y="197" width="273" height="21" fill="#160F09" /><rect x="71" y="218" width="357" height="21" fill="#160F09" /><rect x="71" y="239" width="168" height="21" fill="#160F09" /><rect x="260" y="239" width="168" height="21" fill="#160F09" /><rect x="71" y="260" width="168" height="21" fill="#160F09" /><rect x="260" y="260" width="126" height="21" fill="#160F09" /><rect x="71" y="281" width="168" height="21" fill="#160F09" /><rect x="302" y="281" width="63" height="21" fill="#160F09" /><rect x="407" y="281" width="21" height="21" fill="#160F09" /><rect x="71" y="302" width="210" height="21" fill="#160F09" /><rect x="302" y="302" width="63" height="21" fill="#160F09" /><rect x="71" y="323" width="210" height="21" fill="#160F09" /><rect x="302" y="323" width="126" height="21" fill="#160F09" /><rect x="71" y="344" width="210" height="21" fill="#160F09" /><rect x="302" y="344" width="126" height="21" fill="#160F09" /><rect x="71" y="365" width="210" height="21" fill="#160F09" /><rect x="302" y="365" width="126" height="21" fill="#160F09" /><rect x="71" y="386" width="168" height="21" fill="#160F09" /><rect x="323" y="386" width="105" height="21" fill="#160F09" /><rect x="71" y="407" width="168" height="21" fill="#160F09" /><rect x="260" y="407" width="21" height="21" fill="#160F09" /><rect x="323" y="407" width="63" height="21" fill="#160F09" /><rect x="386" y="281" width="21" height="21" fill="#FAAA00" /><rect x="386" y="92" width="21" height="21" fill="#FAAA00" /></svg>