<svg xmlns="http://www.w3.org/2000/svg" preserveAspectRatio="xMinYMin meet" viewBox="0 0 500 500" shape-rendering="crispEdges" transform-origin="center"><rect width="100%" height="100%" fill="#36230F" /><g transform="scale (5 5)"><rect x="13" y="-1" width="74" height="9" stroke-width="0.3" stroke="black" fill="#FFA800" /><text x="50" y="5.5" width="102" font-family="monospace" font-size="4" text-anchor="middle">Howling Lair of the Willows</text></g><rect x="101" y="101" width="297" height="33" fill="#744936" /><rect x="101" y="134" width="33" height="33" fill="#744936" /><rect x="200" y="134" width="198" height="33" fill="#744936" /><rect x="101" y="167" width="33" height="33" fill="#744936" /><rect x="266" y="167" width="132" height="33" fill="#744936" /><rect x="101" y="200" width="33" height="33" fill="#744936" /><rect x="200" y="200" width="33" height="33" fill="#744936" /><rect x="266" y="200" width="132" height="33" fill="#744936" /><rect x="101" y="233" width="33" height="33" fill="#744936" /><rect x="266" y="233" width="132" height="33" fill="#744936" /><rect x="101" y="266" width="33" height="33" fill="#744936" /><rect x="266" y="266" width="132" height="33" fill="#744936" /><rect x="101" y="299" width="33" height="33" fill="#744936" /><rect x="200" y="299" width="198" height="33" fill="#744936" /><rect x="101" y="332" width="297" height="33" fill="#744936" /><rect x="101" y="365" width="297" height="33" fill="#744936" /></svg>