<svg xmlns="http://www.w3.org/2000/svg" preserveAspectRatio="xMinYMin meet" viewBox="0 0 500 500" shape-rendering="crispEdges" transform-origin="center"><rect width="100%" height="100%" fill="#006669" /><g transform="scale (5 5)"><rect x="23" y="-1" width="54" height="9" stroke-width="0.3" stroke="black" fill="#FFA800" /><text x="50" y="5.5" width="45" font-family="monospace" font-size="5" text-anchor="middle">Peak of Needles</text></g><rect x="58" y="58" width="384" height="16" fill="#004238" /><rect x="58" y="74" width="96" height="16" fill="#004238" /><rect x="58" y="90" width="96" height="16" fill="#004238" /><rect x="170" y="90" width="64" height="16" fill="#004238" /><rect x="250" y="90" width="32" height="16" fill="#004238" /><rect x="330" y="90" width="16" height="16" fill="#004238" /><rect x="410" y="90" width="32" height="16" fill="#004238" /><rect x="58" y="106" width="48" height="16" fill="#004238" /><rect x="58" y="122" width="112" height="16" fill="#004238" /><rect x="218" y="122" width="48" height="16" fill="#004238" /><rect x="330" y="122" width="16" height="16" fill="#004238" /><rect x="394" y="122" width="48" height="16" fill="#004238" /><rect x="58" y="138" width="144" height="16" fill="#004238" /><rect x="218" y="138" width="48" height="16" fill="#004238" /><rect x="330" y="138" width="48" height="16" fill="#004238" /><rect x="394" y="138" width="48" height="16" fill="#004238" /><rect x="58" y="154" width="144" height="16" fill="#004238" /><rect x="218" y="154" width="16" height="16" fill="#004238" /><rect x="298" y="154" width="16" height="16" fill="#004238" /><rect x="330" y="154" width="16" height="16" fill="#004238" /><rect x="394" y="154" width="48" height="16" fill="#004238" /><rect x="58" y="170" width="144" height="16" fill="#004238" /><rect x="298" y="170" width="16" height="16" fill="#004238" /><rect x="346" y="170" width="16" height="16" fill="#004238" /><rect x="410" y="170" width="32" height="16" fill="#004238" /><rect x="58" y="186" width="16" height="16" fill="#004238" /><rect x="90" y="186" width="128" height="16" fill="#004238" /><rect x="298" y="186" width="32" height="16" fill="#004238" /><rect x="378" y="186" width="64" height="16" fill="#004238" /><rect x="58" y="202" width="16" height="16" fill="#004238" /><rect x="90" y="202" width="128" height="16" fill="#004238" /><rect x="266" y="202" width="16" height="16" fill="#004238" /><rect x="298" y="202" width="32" height="16" fill="#004238" /><rect x="394" y="202" width="48" height="16" fill="#004238" /><rect x="58" y="218" width="16" height="16" fill="#004238" /><rect x="106" y="218" width="144" height="16" fill="#004238" /><rect x="298" y="218" width="32" height="16" fill="#004238" /><rect x="346" y="218" width="16" height="16" fill="#004238" /><rect x="394" y="218" width="48" height="16" fill="#004238" /><rect x="58" y="234" width="16" height="16" fill="#004238" /><rect x="122" y="234" width="128" height="16" fill="#004238" /><rect x="266" y="234" width="16" height="16" fill="#004238" /><rect x="346" y="234" width="32" height="16" fill="#004238" /><rect x="394" y="234" width="48" height="16" fill="#004238" /><rect x="58" y="250" width="32" height="16" fill="#004238" /><rect x="122" y="250" width="128" height="16" fill="#004238" /><rect x="330" y="250" width="48" height="16" fill="#004238" /><rect x="394" y="250" width="48" height="16" fill="#004238" /><rect x="58" y="266" width="32" height="16" fill="#004238" /><rect x="154" y="266" width="96" height="16" fill="#004238" /><rect x="266" y="266" width="32" height="16" fill="#004238" /><rect x="330" y="266" width="48" height="16" fill="#004238" /><rect x="410" y="266" width="32" height="16" fill="#004238" /><rect x="58" y="282" width="80" height="16" fill="#004238" /><rect x="154" y="282" width="96" height="16" fill="#004238" /><rect x="266" y="282" width="32" height="16" fill="#004238" /><rect x="330" y="282" width="64" height="16" fill="#004238" /><rect x="410" y="282" width="32" height="16" fill="#004238" /><rect x="58" y="298" width="80" height="16" fill="#004238" /><rect x="170" y="298" width="80" height="16" fill="#004238" /><rect x="266" y="298" width="32" height="16" fill="#004238" /><rect x="362" y="298" width="80" height="16" fill="#004238" /><rect x="58" y="314" width="96" height="16" fill="#004238" /><rect x="282" y="314" width="16" height="16" fill="#004238" /><rect x="394" y="314" width="48" height="16" fill="#004238" /><rect x="58" y="330" width="144" height="16" fill="#004238" /><rect x="282" y="330" width="64" height="16" fill="#004238" /><rect x="394" y="330" width="48" height="16" fill="#004238" /><rect x="58" y="346" width="160" height="16" fill="#004238" /><rect x="234" y="346" width="128" height="16" fill="#004238" /><rect x="394" y="346" width="48" height="16" fill="#004238" /><rect x="58" y="362" width="160" height="16" fill="#004238" /><rect x="234" y="362" width="144" height="16" fill="#004238" /><rect x="58" y="378" width="128" height="16" fill="#004238" /><rect x="234" y="378" width="208" height="16" fill="#004238" /><rect x="58" y="394" width="128" height="16" fill="#004238" /><rect x="218" y="394" width="224" height="16" fill="#004238" /><rect x="58" y="410" width="384" height="16" fill="#004238" /><rect x="58" y="426" width="384" height="16" fill="#004238" /><rect x="394" y="282" width="16" height="16" fill="#967E67" /><rect x="106" y="266" width="16" height="16" fill="#967E67" /><rect x="330" y="186" width="16" height="16" fill="#967E67" /><rect x="282" y="186" width="16" height="16" fill="#967E67" /><rect x="74" y="186" width="16" height="16" fill="#F9B569" /><rect x="330" y="170" width="16" height="16" fill="#967E67" /><rect x="362" y="154" width="16" height="16" fill="#F9B569" /><rect x="314" y="122" width="16" height="16" fill="#F9B569" /><rect x="154" y="106" width="16" height="16" fill="#F9B569" /></svg>