<svg xmlns="http://www.w3.org/2000/svg" preserveAspectRatio="xMinYMin meet" viewBox="0 0 500 500" shape-rendering="crispEdges" transform-origin="center"><rect width="100%" height="100%" fill="#967E67" /><g transform="scale (5 5)"><rect x="17" y="-1" width="66" height="9" stroke-width="0.3" stroke="black" fill="#FFA800" /><text x="50" y="5.5" width="57" font-family="monospace" font-size="5" text-anchor="middle">Grove of Corruption</text></g><rect x="60" y="60" width="380" height="19" fill="#F3D899" /><rect x="60" y="79" width="380" height="19" fill="#F3D899" /><rect x="60" y="98" width="380" height="19" fill="#F3D899" /><rect x="60" y="117" width="380" height="19" fill="#F3D899" /><rect x="60" y="136" width="380" height="19" fill="#F3D899" /><rect x="60" y="155" width="95" height="19" fill="#F3D899" /><rect x="212" y="155" width="228" height="19" fill="#F3D899" /><rect x="60" y="174" width="95" height="19" fill="#F3D899" /><rect x="383" y="174" width="57" height="19" fill="#F3D899" /><rect x="60" y="193" width="95" height="19" fill="#F3D899" /><rect x="212" y="193" width="152" height="19" fill="#F3D899" /><rect x="383" y="193" width="57" height="19" fill="#F3D899" /><rect x="60" y="212" width="114" height="19" fill="#F3D899" /><rect x="193" y="212" width="171" height="19" fill="#F3D899" /><rect x="383" y="212" width="57" height="19" fill="#F3D899" /><rect x="60" y="231" width="114" height="19" fill="#F3D899" /><rect x="193" y="231" width="38" height="19" fill="#F3D899" /><rect x="288" y="231" width="76" height="19" fill="#F3D899" /><rect x="383" y="231" width="57" height="19" fill="#F3D899" /><rect x="60" y="250" width="19" height="19" fill="#F3D899" /><rect x="193" y="250" width="38" height="19" fill="#F3D899" /><rect x="288" y="250" width="76" height="19" fill="#F3D899" /><rect x="383" y="250" width="57" height="19" fill="#F3D899" /><rect x="60" y="269" width="19" height="19" fill="#F3D899" /><rect x="288" y="269" width="57" height="19" fill="#F3D899" /><rect x="383" y="269" width="57" height="19" fill="#F3D899" /><rect x="60" y="288" width="19" height="19" fill="#F3D899" /><rect x="383" y="288" width="57" height="19" fill="#F3D899" /><rect x="60" y="307" width="19" height="19" fill="#F3D899" /><rect x="193" y="307" width="38" height="19" fill="#F3D899" /><rect x="288" y="307" width="76" height="19" fill="#F3D899" /><rect x="383" y="307" width="57" height="19" fill="#F3D899" /><rect x="60" y="326" width="38" height="19" fill="#F3D899" /><rect x="231" y="326" width="19" height="19" fill="#F3D899" /><rect x="288" y="326" width="38" height="19" fill="#F3D899" /><rect x="402" y="326" width="38" height="19" fill="#F3D899" /><rect x="60" y="345" width="38" height="19" fill="#F3D899" /><rect x="402" y="345" width="38" height="19" fill="#F3D899" /><rect x="60" y="364" width="57" height="19" fill="#F3D899" /><rect x="155" y="364" width="95" height="19" fill="#F3D899" /><rect x="288" y="364" width="38" height="19" fill="#F3D899" /><rect x="402" y="364" width="38" height="19" fill="#F3D899" /><rect x="60" y="383" width="57" height="19" fill="#F3D899" /><rect x="155" y="383" width="285" height="19" fill="#F3D899" /><rect x="60" y="402" width="380" height="19" fill="#F3D899" /><rect x="60" y="421" width="380" height="19" fill="#F3D899" /><rect x="364" y="326" width="19" height="19" fill="#006669" /><rect x="269" y="326" width="19" height="19" fill="#006669" /><rect x="250" y="307" width="19" height="19" fill="#006669" /><rect x="136" y="307" width="19" height="19" fill="#006669" /></svg>