<svg xmlns="http://www.w3.org/2000/svg" preserveAspectRatio="xMinYMin meet" viewBox="0 0 500 500" shape-rendering="crispEdges" transform-origin="center"><rect width="100%" height="100%" fill="#2F590E" /><g transform="scale (5 5)"><rect x="27" y="-1" width="45" height="9" stroke-width="0.3" stroke="black" fill="#FFA800" /><text x="50" y="5.5" width="36" font-family="monospace" font-size="5" text-anchor="middle">Sunken Crypt</text></g><rect x="54" y="54" width="391" height="17" fill="#A98C00" /><rect x="54" y="71" width="85" height="17" fill="#A98C00" /><rect x="173" y="71" width="51" height="17" fill="#A98C00" /><rect x="241" y="71" width="17" height="17" fill="#A98C00" /><rect x="343" y="71" width="102" height="17" fill="#A98C00" /><rect x="54" y="88" width="102" height="17" fill="#A98C00" /><rect x="173" y="88" width="34" height="17" fill="#A98C00" /><rect x="326" y="88" width="119" height="17" fill="#A98C00" /><rect x="54" y="105" width="102" height="17" fill="#A98C00" /><rect x="190" y="105" width="17" height="17" fill="#A98C00" /><rect x="224" y="105" width="34" height="17" fill="#A98C00" /><rect x="275" y="105" width="17" height="17" fill="#A98C00" /><rect x="343" y="105" width="85" height="17" fill="#A98C00" /><rect x="54" y="122" width="102" height="17" fill="#A98C00" /><rect x="190" y="122" width="17" height="17" fill="#A98C00" /><rect x="224" y="122" width="34" height="17" fill="#A98C00" /><rect x="326" y="122" width="102" height="17" fill="#A98C00" /><rect x="54" y="139" width="102" height="17" fill="#A98C00" /><rect x="173" y="139" width="34" height="17" fill="#A98C00" /><rect x="224" y="139" width="68" height="17" fill="#A98C00" /><rect x="326" y="139" width="119" height="17" fill="#A98C00" /><rect x="54" y="156" width="51" height="17" fill="#A98C00" /><rect x="173" y="156" width="34" height="17" fill="#A98C00" /><rect x="224" y="156" width="17" height="17" fill="#A98C00" /><rect x="343" y="156" width="102" height="17" fill="#A98C00" /><rect x="54" y="173" width="17" height="17" fill="#A98C00" /><rect x="88" y="173" width="51" height="17" fill="#A98C00" /><rect x="156" y="173" width="17" height="17" fill="#A98C00" /><rect x="224" y="173" width="34" height="17" fill="#A98C00" /><rect x="292" y="173" width="34" height="17" fill="#A98C00" /><rect x="343" y="173" width="102" height="17" fill="#A98C00" /><rect x="54" y="190" width="17" height="17" fill="#A98C00" /><rect x="105" y="190" width="68" height="17" fill="#A98C00" /><rect x="190" y="190" width="85" height="17" fill="#A98C00" /><rect x="360" y="190" width="85" height="17" fill="#A98C00" /><rect x="54" y="207" width="34" height="17" fill="#A98C00" /><rect x="105" y="207" width="68" height="17" fill="#A98C00" /><rect x="190" y="207" width="68" height="17" fill="#A98C00" /><rect x="326" y="207" width="119" height="17" fill="#A98C00" /><rect x="54" y="224" width="85" height="17" fill="#A98C00" /><rect x="190" y="224" width="68" height="17" fill="#A98C00" /><rect x="275" y="224" width="170" height="17" fill="#A98C00" /><rect x="54" y="241" width="0" height="17" fill="#A98C00" /><rect x="88" y="241" width="68" height="17" fill="#A98C00" /><rect x="190" y="241" width="68" height="17" fill="#A98C00" /><rect x="275" y="241" width="170" height="17" fill="#A98C00" /><rect x="54" y="258" width="102" height="17" fill="#A98C00" /><rect x="190" y="258" width="68" height="17" fill="#A98C00" /><rect x="292" y="258" width="153" height="17" fill="#A98C00" /><rect x="54" y="275" width="85" height="17" fill="#A98C00" /><rect x="173" y="275" width="272" height="17" fill="#A98C00" /><rect x="54" y="292" width="102" height="17" fill="#A98C00" /><rect x="173" y="292" width="255" height="17" fill="#A98C00" /><rect x="54" y="309" width="17" height="17" fill="#A98C00" /><rect x="88" y="309" width="68" height="17" fill="#A98C00" /><rect x="173" y="309" width="238" height="17" fill="#A98C00" /><rect x="54" y="326" width="17" height="17" fill="#A98C00" /><rect x="122" y="326" width="34" height="17" fill="#A98C00" /><rect x="173" y="326" width="272" height="17" fill="#A98C00" /><rect x="54" y="343" width="102" height="17" fill="#A98C00" /><rect x="173" y="343" width="272" height="17" fill="#A98C00" /><rect x="54" y="360" width="102" height="17" fill="#A98C00" /><rect x="173" y="360" width="272" height="17" fill="#A98C00" /><rect x="54" y="377" width="391" height="17" fill="#A98C00" /><rect x="54" y="394" width="391" height="17" fill="#A98C00" /><rect x="54" y="411" width="391" height="17" fill="#A98C00" /><rect x="54" y="428" width="391" height="17" fill="#A98C00" /><rect x="173" y="173" width="17" height="17" fill="#802F1A" /></svg>