<svg xmlns="http://www.w3.org/2000/svg" preserveAspectRatio="xMinYMin meet" viewBox="0 0 500 500" shape-rendering="crispEdges" transform-origin="center"><rect width="100%" height="100%" fill="#967E67" /><g transform="scale (5 5)"><rect x="36" y="-1" width="27" height="9" stroke-width="0.3" stroke="black" fill="#FFA800" /><text x="50" y="5.5" width="18" font-family="monospace" font-size="5" text-anchor="middle">Valley</text></g><rect x="77" y="77" width="345" height="23" fill="#F3D899" /><rect x="77" y="100" width="69" height="23" fill="#F3D899" /><rect x="192" y="100" width="230" height="23" fill="#F3D899" /><rect x="77" y="123" width="69" height="23" fill="#F3D899" /><rect x="192" y="123" width="230" height="23" fill="#F3D899" /><rect x="77" y="146" width="92" height="23" fill="#F3D899" /><rect x="192" y="146" width="230" height="23" fill="#F3D899" /><rect x="77" y="169" width="23" height="23" fill="#F3D899" /><rect x="192" y="169" width="92" height="23" fill="#F3D899" /><rect x="330" y="169" width="92" height="23" fill="#F3D899" /><rect x="77" y="192" width="23" height="23" fill="#F3D899" /><rect x="330" y="192" width="92" height="23" fill="#F3D899" /><rect x="77" y="215" width="46" height="23" fill="#F3D899" /><rect x="330" y="215" width="92" height="23" fill="#F3D899" /><rect x="77" y="238" width="46" height="23" fill="#F3D899" /><rect x="215" y="238" width="69" height="23" fill="#F3D899" /><rect x="330" y="238" width="92" height="23" fill="#F3D899" /><rect x="77" y="261" width="23" height="23" fill="#F3D899" /><rect x="215" y="261" width="207" height="23" fill="#F3D899" /><rect x="77" y="284" width="23" height="23" fill="#F3D899" /><rect x="169" y="284" width="253" height="23" fill="#F3D899" /><rect x="77" y="307" width="23" height="23" fill="#F3D899" /><rect x="169" y="307" width="253" height="23" fill="#F3D899" /><rect x="77" y="330" width="23" height="23" fill="#F3D899" /><rect x="169" y="330" width="253" height="23" fill="#F3D899" /><rect x="77" y="353" width="345" height="23" fill="#F3D899" /><rect x="77" y="376" width="345" height="23" fill="#F3D899" /><rect x="77" y="399" width="345" height="23" fill="#F3D899" /><rect x="100" y="261" width="23" height="23" fill="#006669" /><rect x="284" y="238" width="23" height="23" fill="#006669" /><rect x="146" y="215" width="23" height="23" fill="#006669" /><rect x="261" y="192" width="23" height="23" fill="#3C2A1A" /></svg>