<svg xmlns="http://www.w3.org/2000/svg" preserveAspectRatio="xMinYMin meet" viewBox="0 0 500 500" shape-rendering="crispEdges" transform-origin="center"><rect width="100%" height="100%" fill="#36230F" /><g transform="scale (5 5)"><rect x="17" y="-1" width="66" height="9" stroke-width="0.3" stroke="black" fill="#FFA800" /><text x="50" y="5.5" width="57" font-family="monospace" font-size="5" text-anchor="middle">Sewers of the Brood</text></g><rect x="58" y="58" width="384" height="16" fill="#744936" /><rect x="58" y="74" width="144" height="16" fill="#744936" /><rect x="218" y="74" width="112" height="16" fill="#744936" /><rect x="362" y="74" width="80" height="16" fill="#744936" /><rect x="58" y="90" width="144" height="16" fill="#744936" /><rect x="218" y="90" width="112" height="16" fill="#744936" /><rect x="394" y="90" width="48" height="16" fill="#744936" /><rect x="58" y="106" width="144" height="16" fill="#744936" /><rect x="234" y="106" width="112" height="16" fill="#744936" /><rect x="394" y="106" width="48" height="16" fill="#744936" /><rect x="58" y="122" width="160" height="16" fill="#744936" /><rect x="250" y="122" width="112" height="16" fill="#744936" /><rect x="410" y="122" width="32" height="16" fill="#744936" /><rect x="58" y="138" width="176" height="16" fill="#744936" /><rect x="250" y="138" width="112" height="16" fill="#744936" /><rect x="410" y="138" width="32" height="16" fill="#744936" /><rect x="58" y="154" width="176" height="16" fill="#744936" /><rect x="282" y="154" width="112" height="16" fill="#744936" /><rect x="410" y="154" width="32" height="16" fill="#744936" /><rect x="58" y="170" width="208" height="16" fill="#744936" /><rect x="282" y="170" width="112" height="16" fill="#744936" /><rect x="410" y="170" width="32" height="16" fill="#744936" /><rect x="58" y="186" width="208" height="16" fill="#744936" /><rect x="282" y="186" width="112" height="16" fill="#744936" /><rect x="426" y="186" width="16" height="16" fill="#744936" /><rect x="58" y="202" width="208" height="16" fill="#744936" /><rect x="282" y="202" width="32" height="16" fill="#744936" /><rect x="346" y="202" width="64" height="16" fill="#744936" /><rect x="58" y="218" width="208" height="16" fill="#744936" /><rect x="282" y="218" width="48" height="16" fill="#744936" /><rect x="346" y="218" width="32" height="16" fill="#744936" /><rect x="394" y="218" width="32" height="16" fill="#744936" /><rect x="58" y="234" width="208" height="16" fill="#744936" /><rect x="282" y="234" width="48" height="16" fill="#744936" /><rect x="362" y="234" width="16" height="16" fill="#744936" /><rect x="410" y="234" width="32" height="16" fill="#744936" /><rect x="58" y="250" width="208" height="16" fill="#744936" /><rect x="282" y="250" width="48" height="16" fill="#744936" /><rect x="362" y="250" width="16" height="16" fill="#744936" /><rect x="410" y="250" width="32" height="16" fill="#744936" /><rect x="58" y="266" width="176" height="16" fill="#744936" /><rect x="282" y="266" width="48" height="16" fill="#744936" /><rect x="346" y="266" width="32" height="16" fill="#744936" /><rect x="410" y="266" width="32" height="16" fill="#744936" /><rect x="58" y="282" width="176" height="16" fill="#744936" /><rect x="250" y="282" width="16" height="16" fill="#744936" /><rect x="282" y="282" width="48" height="16" fill="#744936" /><rect x="346" y="282" width="32" height="16" fill="#744936" /><rect x="410" y="282" width="32" height="16" fill="#744936" /><rect x="58" y="298" width="128" height="16" fill="#744936" /><rect x="282" y="298" width="48" height="16" fill="#744936" /><rect x="426" y="298" width="16" height="16" fill="#744936" /><rect x="58" y="314" width="144" height="16" fill="#744936" /><rect x="218" y="314" width="16" height="16" fill="#744936" /><rect x="250" y="314" width="32" height="16" fill="#744936" /><rect x="298" y="314" width="32" height="16" fill="#744936" /><rect x="378" y="314" width="32" height="16" fill="#744936" /><rect x="426" y="314" width="16" height="16" fill="#744936" /><rect x="58" y="330" width="112" height="16" fill="#744936" /><rect x="266" y="330" width="16" height="16" fill="#744936" /><rect x="378" y="330" width="32" height="16" fill="#744936" /><rect x="58" y="346" width="128" height="16" fill="#744936" /><rect x="202" y="346" width="32" height="16" fill="#744936" /><rect x="266" y="346" width="16" height="16" fill="#744936" /><rect x="378" y="346" width="32" height="16" fill="#744936" /><rect x="58" y="362" width="128" height="16" fill="#744936" /><rect x="218" y="362" width="16" height="16" fill="#744936" /><rect x="298" y="362" width="16" height="16" fill="#744936" /><rect x="378" y="362" width="64" height="16" fill="#744936" /><rect x="58" y="378" width="144" height="16" fill="#744936" /><rect x="218" y="378" width="16" height="16" fill="#744936" /><rect x="266" y="378" width="16" height="16" fill="#744936" /><rect x="362" y="378" width="80" height="16" fill="#744936" /><rect x="58" y="394" width="128" height="16" fill="#744936" /><rect x="218" y="394" width="32" height="16" fill="#744936" /><rect x="266" y="394" width="16" height="16" fill="#744936" /><rect x="362" y="394" width="80" height="16" fill="#744936" /><rect x="58" y="410" width="144" height="16" fill="#744936" /><rect x="218" y="410" width="32" height="16" fill="#744936" /><rect x="362" y="410" width="80" height="16" fill="#744936" /><rect x="58" y="426" width="80" height="16" fill="#744936" /><rect x="218" y="426" width="32" height="16" fill="#744936" /><rect x="282" y="426" width="16" height="16" fill="#744936" /><rect x="314" y="426" width="16" height="16" fill="#744936" /><rect x="378" y="426" width="64" height="16" fill="#744936" /><rect x="266" y="426" width="16" height="16" fill="#802F1A" /><rect x="186" y="426" width="16" height="16" fill="#802F1A" /><rect x="314" y="410" width="16" height="16" fill="#802F1A" /><rect x="314" y="394" width="16" height="16" fill="#802F1A" /><rect x="346" y="346" width="16" height="16" fill="#FFA800" /><rect x="234" y="346" width="16" height="16" fill="#FFA800" /><rect x="330" y="298" width="16" height="16" fill="#802F1A" /><rect x="394" y="266" width="16" height="16" fill="#802F1A" /><rect x="394" y="250" width="16" height="16" fill="#802F1A" /><rect x="362" y="122" width="16" height="16" fill="#802F1A" /></svg>