<svg xmlns="http://www.w3.org/2000/svg" preserveAspectRatio="xMinYMin meet" viewBox="0 0 500 500" shape-rendering="crispEdges" transform-origin="center"><rect width="100%" height="100%" fill="#967E67" /><g transform="scale (5 5)"><rect x="30" y="-1" width="39" height="9" stroke-width="0.3" stroke="black" fill="#FFA800" /><text x="50" y="5.5" width="30" font-family="monospace" font-size="5" text-anchor="middle">Necropolis</text></g><rect x="54" y="54" width="34" height="17" fill="#F3D899" /><rect x="105" y="54" width="340" height="17" fill="#F3D899" /><rect x="54" y="71" width="17" height="17" fill="#F3D899" /><rect x="156" y="71" width="119" height="17" fill="#F3D899" /><rect x="292" y="71" width="153" height="17" fill="#F3D899" /><rect x="54" y="88" width="51" height="17" fill="#F3D899" /><rect x="156" y="88" width="85" height="17" fill="#F3D899" /><rect x="292" y="88" width="153" height="17" fill="#F3D899" /><rect x="54" y="105" width="17" height="17" fill="#F3D899" /><rect x="173" y="105" width="17" height="17" fill="#F3D899" /><rect x="258" y="105" width="187" height="17" fill="#F3D899" /><rect x="54" y="122" width="51" height="17" fill="#F3D899" /><rect x="139" y="122" width="51" height="17" fill="#F3D899" /><rect x="207" y="122" width="238" height="17" fill="#F3D899" /><rect x="54" y="139" width="51" height="17" fill="#F3D899" /><rect x="139" y="139" width="51" height="17" fill="#F3D899" /><rect x="207" y="139" width="238" height="17" fill="#F3D899" /><rect x="54" y="156" width="51" height="17" fill="#F3D899" /><rect x="139" y="156" width="51" height="17" fill="#F3D899" /><rect x="224" y="156" width="221" height="17" fill="#F3D899" /><rect x="54" y="173" width="51" height="17" fill="#F3D899" /><rect x="139" y="173" width="68" height="17" fill="#F3D899" /><rect x="241" y="173" width="204" height="17" fill="#F3D899" /><rect x="54" y="190" width="51" height="17" fill="#F3D899" /><rect x="224" y="190" width="221" height="17" fill="#F3D899" /><rect x="54" y="207" width="51" height="17" fill="#F3D899" /><rect x="122" y="207" width="17" height="17" fill="#F3D899" /><rect x="156" y="207" width="34" height="17" fill="#F3D899" /><rect x="207" y="207" width="238" height="17" fill="#F3D899" /><rect x="54" y="224" width="51" height="17" fill="#F3D899" /><rect x="156" y="224" width="34" height="17" fill="#F3D899" /><rect x="241" y="224" width="204" height="17" fill="#F3D899" /><rect x="54" y="241" width="51" height="17" fill="#F3D899" /><rect x="156" y="241" width="17" height="17" fill="#F3D899" /><rect x="207" y="241" width="17" height="17" fill="#F3D899" /><rect x="258" y="241" width="136" height="17" fill="#F3D899" /><rect x="411" y="241" width="34" height="17" fill="#F3D899" /><rect x="54" y="258" width="51" height="17" fill="#F3D899" /><rect x="156" y="258" width="17" height="17" fill="#F3D899" /><rect x="207" y="258" width="17" height="17" fill="#F3D899" /><rect x="258" y="258" width="136" height="17" fill="#F3D899" /><rect x="54" y="275" width="68" height="17" fill="#F3D899" /><rect x="156" y="275" width="34" height="17" fill="#F3D899" /><rect x="241" y="275" width="170" height="17" fill="#F3D899" /><rect x="54" y="292" width="68" height="17" fill="#F3D899" /><rect x="173" y="292" width="17" height="17" fill="#F3D899" /><rect x="275" y="292" width="136" height="17" fill="#F3D899" /><rect x="428" y="292" width="17" height="17" fill="#F3D899" /><rect x="54" y="309" width="17" height="17" fill="#F3D899" /><rect x="224" y="309" width="34" height="17" fill="#F3D899" /><rect x="292" y="309" width="102" height="17" fill="#F3D899" /><rect x="428" y="309" width="17" height="17" fill="#F3D899" /><rect x="54" y="326" width="34" height="17" fill="#F3D899" /><rect x="190" y="326" width="17" height="17" fill="#F3D899" /><rect x="224" y="326" width="51" height="17" fill="#F3D899" /><rect x="292" y="326" width="102" height="17" fill="#F3D899" /><rect x="411" y="326" width="34" height="17" fill="#F3D899" /><rect x="54" y="343" width="17" height="17" fill="#F3D899" /><rect x="190" y="343" width="17" height="17" fill="#F3D899" /><rect x="224" y="343" width="51" height="17" fill="#F3D899" /><rect x="292" y="343" width="102" height="17" fill="#F3D899" /><rect x="428" y="343" width="17" height="17" fill="#F3D899" /><rect x="54" y="360" width="17" height="17" fill="#F3D899" /><rect x="105" y="360" width="17" height="17" fill="#F3D899" /><rect x="241" y="360" width="34" height="17" fill="#F3D899" /><rect x="292" y="360" width="119" height="17" fill="#F3D899" /><rect x="54" y="377" width="68" height="17" fill="#F3D899" /><rect x="190" y="377" width="85" height="17" fill="#F3D899" /><rect x="292" y="377" width="153" height="17" fill="#F3D899" /><rect x="54" y="394" width="51" height="17" fill="#F3D899" /><rect x="207" y="394" width="51" height="17" fill="#F3D899" /><rect x="309" y="394" width="136" height="17" fill="#F3D899" /><rect x="54" y="411" width="51" height="17" fill="#F3D899" /><rect x="122" y="411" width="17" height="17" fill="#F3D899" /><rect x="224" y="411" width="34" height="17" fill="#F3D899" /><rect x="275" y="411" width="170" height="17" fill="#F3D899" /><rect x="54" y="428" width="51" height="17" fill="#F3D899" /><rect x="122" y="428" width="17" height="17" fill="#F3D899" /><rect x="224" y="428" width="34" height="17" fill="#F3D899" /><rect x="275" y="428" width="170" height="17" fill="#F3D899" /><rect x="105" y="411" width="17" height="17" fill="#3C2A1A" /><rect x="139" y="343" width="17" height="17" fill="#3C2A1A" /><rect x="258" y="309" width="17" height="17" fill="#006669" /><rect x="258" y="292" width="17" height="17" fill="#006669" /><rect x="224" y="173" width="17" height="17" fill="#3C2A1A" /><rect x="105" y="173" width="17" height="17" fill="#3C2A1A" /></svg>