<svg xmlns="http://www.w3.org/2000/svg" preserveAspectRatio="xMinYMin meet" viewBox="0 0 500 500" shape-rendering="crispEdges" transform-origin="center"><rect width="100%" height="100%" fill="#2F590E" /><g transform="scale (5 5)"><rect x="26" y="-1" width="48" height="9" stroke-width="0.3" stroke="black" fill="#FFA800" /><text x="50" y="5.5" width="39" font-family="monospace" font-size="5" text-anchor="middle">Bleak Landing</text></g><rect x="54" y="54" width="306" height="17" fill="#A98C00" /><rect x="377" y="54" width="68" height="17" fill="#A98C00" /><rect x="54" y="71" width="391" height="17" fill="#A98C00" /><rect x="54" y="88" width="391" height="17" fill="#A98C00" /><rect x="54" y="105" width="391" height="17" fill="#A98C00" /><rect x="54" y="122" width="85" height="17" fill="#A98C00" /><rect x="190" y="122" width="170" height="17" fill="#A98C00" /><rect x="377" y="122" width="68" height="17" fill="#A98C00" /><rect x="54" y="139" width="85" height="17" fill="#A98C00" /><rect x="156" y="139" width="204" height="17" fill="#A98C00" /><rect x="377" y="139" width="68" height="17" fill="#A98C00" /><rect x="54" y="156" width="85" height="17" fill="#A98C00" /><rect x="156" y="156" width="204" height="17" fill="#A98C00" /><rect x="377" y="156" width="68" height="17" fill="#A98C00" /><rect x="54" y="173" width="85" height="17" fill="#A98C00" /><rect x="156" y="173" width="204" height="17" fill="#A98C00" /><rect x="377" y="173" width="68" height="17" fill="#A98C00" /><rect x="54" y="190" width="0" height="17" fill="#A98C00" /><rect x="71" y="190" width="68" height="17" fill="#A98C00" /><rect x="156" y="190" width="153" height="17" fill="#A98C00" /><rect x="377" y="190" width="68" height="17" fill="#A98C00" /><rect x="54" y="207" width="68" height="17" fill="#A98C00" /><rect x="156" y="207" width="187" height="17" fill="#A98C00" /><rect x="360" y="207" width="85" height="17" fill="#A98C00" /><rect x="54" y="224" width="68" height="17" fill="#A98C00" /><rect x="139" y="224" width="153" height="17" fill="#A98C00" /><rect x="360" y="224" width="85" height="17" fill="#A98C00" /><rect x="54" y="241" width="51" height="17" fill="#A98C00" /><rect x="156" y="241" width="119" height="17" fill="#A98C00" /><rect x="309" y="241" width="136" height="17" fill="#A98C00" /><rect x="54" y="258" width="51" height="17" fill="#A98C00" /><rect x="122" y="258" width="170" height="17" fill="#A98C00" /><rect x="309" y="258" width="136" height="17" fill="#A98C00" /><rect x="54" y="275" width="51" height="17" fill="#A98C00" /><rect x="139" y="275" width="136" height="17" fill="#A98C00" /><rect x="326" y="275" width="119" height="17" fill="#A98C00" /><rect x="54" y="292" width="0" height="17" fill="#A98C00" /><rect x="71" y="292" width="34" height="17" fill="#A98C00" /><rect x="139" y="292" width="136" height="17" fill="#A98C00" /><rect x="326" y="292" width="51" height="17" fill="#A98C00" /><rect x="394" y="292" width="51" height="17" fill="#A98C00" /><rect x="54" y="309" width="68" height="17" fill="#A98C00" /><rect x="139" y="309" width="136" height="17" fill="#A98C00" /><rect x="326" y="309" width="34" height="17" fill="#A98C00" /><rect x="428" y="309" width="17" height="17" fill="#A98C00" /><rect x="54" y="326" width="0" height="17" fill="#A98C00" /><rect x="139" y="326" width="136" height="17" fill="#A98C00" /><rect x="326" y="326" width="34" height="17" fill="#A98C00" /><rect x="411" y="326" width="34" height="17" fill="#A98C00" /><rect x="54" y="343" width="17" height="17" fill="#A98C00" /><rect x="88" y="343" width="136" height="17" fill="#A98C00" /><rect x="326" y="343" width="17" height="17" fill="#A98C00" /><rect x="394" y="343" width="51" height="17" fill="#A98C00" /><rect x="54" y="360" width="51" height="17" fill="#A98C00" /><rect x="122" y="360" width="17" height="17" fill="#A98C00" /><rect x="156" y="360" width="68" height="17" fill="#A98C00" /><rect x="241" y="360" width="34" height="17" fill="#A98C00" /><rect x="309" y="360" width="34" height="17" fill="#A98C00" /><rect x="360" y="360" width="17" height="17" fill="#A98C00" /><rect x="394" y="360" width="51" height="17" fill="#A98C00" /><rect x="54" y="377" width="51" height="17" fill="#A98C00" /><rect x="122" y="377" width="17" height="17" fill="#A98C00" /><rect x="173" y="377" width="51" height="17" fill="#A98C00" /><rect x="258" y="377" width="34" height="17" fill="#A98C00" /><rect x="309" y="377" width="34" height="17" fill="#A98C00" /><rect x="360" y="377" width="17" height="17" fill="#A98C00" /><rect x="394" y="377" width="51" height="17" fill="#A98C00" /><rect x="54" y="394" width="51" height="17" fill="#A98C00" /><rect x="122" y="394" width="34" height="17" fill="#A98C00" /><rect x="173" y="394" width="51" height="17" fill="#A98C00" /><rect x="258" y="394" width="34" height="17" fill="#A98C00" /><rect x="326" y="394" width="17" height="17" fill="#A98C00" /><rect x="394" y="394" width="51" height="17" fill="#A98C00" /><rect x="54" y="411" width="51" height="17" fill="#A98C00" /><rect x="122" y="411" width="17" height="17" fill="#A98C00" /><rect x="173" y="411" width="51" height="17" fill="#A98C00" /><rect x="258" y="411" width="51" height="17" fill="#A98C00" /><rect x="343" y="411" width="17" height="17" fill="#A98C00" /><rect x="411" y="411" width="34" height="17" fill="#A98C00" /><rect x="54" y="428" width="51" height="17" fill="#A98C00" /><rect x="156" y="428" width="68" height="17" fill="#A98C00" /><rect x="258" y="428" width="68" height="17" fill="#A98C00" /><rect x="343" y="428" width="34" height="17" fill="#A98C00" /><rect x="428" y="428" width="17" height="17" fill="#A98C00" /><rect x="105" y="411" width="17" height="17" fill="#802F1A" /><rect x="292" y="360" width="17" height="17" fill="#802F1A" /><rect x="360" y="326" width="17" height="17" fill="#C55300" /><rect x="122" y="326" width="17" height="17" fill="#C55300" /><rect x="292" y="241" width="17" height="17" fill="#C55300" /><rect x="360" y="190" width="17" height="17" fill="#802F1A" /></svg>