<svg xmlns="http://www.w3.org/2000/svg" preserveAspectRatio="xMinYMin meet" viewBox="0 0 500 500" shape-rendering="crispEdges" transform-origin="center"><rect width="100%" height="100%" fill="#967E67" /><g transform="scale (5 5)"><rect x="38" y="-1" width="24" height="9" stroke-width="0.3" stroke="black" fill="#FFA800" /><text x="50" y="5.5" width="15" font-family="monospace" font-size="5" text-anchor="middle">Woods</text></g><rect x="88" y="88" width="297" height="27" fill="#F3D899" /><rect x="88" y="115" width="324" height="27" fill="#F3D899" /><rect x="88" y="142" width="324" height="27" fill="#F3D899" /><rect x="88" y="169" width="162" height="27" fill="#F3D899" /><rect x="304" y="169" width="108" height="27" fill="#F3D899" /><rect x="88" y="196" width="135" height="27" fill="#F3D899" /><rect x="277" y="196" width="135" height="27" fill="#F3D899" /><rect x="88" y="223" width="135" height="27" fill="#F3D899" /><rect x="277" y="223" width="27" height="27" fill="#F3D899" /><rect x="331" y="223" width="81" height="27" fill="#F3D899" /><rect x="88" y="250" width="54" height="27" fill="#F3D899" /><rect x="196" y="250" width="27" height="27" fill="#F3D899" /><rect x="331" y="250" width="81" height="27" fill="#F3D899" /><rect x="88" y="277" width="54" height="27" fill="#F3D899" /><rect x="196" y="277" width="27" height="27" fill="#F3D899" /><rect x="304" y="277" width="27" height="27" fill="#F3D899" /><rect x="358" y="277" width="54" height="27" fill="#F3D899" /><rect x="88" y="304" width="81" height="27" fill="#F3D899" /><rect x="196" y="304" width="27" height="27" fill="#F3D899" /><rect x="304" y="304" width="27" height="27" fill="#F3D899" /><rect x="358" y="304" width="54" height="27" fill="#F3D899" /><rect x="88" y="331" width="81" height="27" fill="#F3D899" /><rect x="196" y="331" width="27" height="27" fill="#F3D899" /><rect x="358" y="331" width="54" height="27" fill="#F3D899" /><rect x="88" y="358" width="54" height="27" fill="#F3D899" /><rect x="196" y="358" width="27" height="27" fill="#F3D899" /><rect x="385" y="358" width="27" height="27" fill="#F3D899" /><rect x="88" y="385" width="54" height="27" fill="#F3D899" /><rect x="169" y="385" width="54" height="27" fill="#F3D899" /><rect x="358" y="385" width="54" height="27" fill="#F3D899" /><rect x="331" y="385" width="27" height="27" fill="#006669" /></svg>