<svg xmlns="http://www.w3.org/2000/svg" preserveAspectRatio="xMinYMin meet" viewBox="0 0 500 500" shape-rendering="crispEdges" transform-origin="center"><rect width="100%" height="100%" fill="#F3D899" /><g transform="scale (5 5)"><rect x="12" y="-1" width="75" height="9" stroke-width="0.3" stroke="black" fill="#FFA800" /><text x="50" y="5.5" width="66" font-family="monospace" font-size="5" text-anchor="middle">Morbid Landing of Mist</text></g><rect x="58" y="58" width="288" height="16" fill="#160F09" /><rect x="362" y="58" width="80" height="16" fill="#160F09" /><rect x="58" y="74" width="288" height="16" fill="#160F09" /><rect x="378" y="74" width="64" height="16" fill="#160F09" /><rect x="58" y="90" width="288" height="16" fill="#160F09" /><rect x="410" y="90" width="32" height="16" fill="#160F09" /><rect x="58" y="106" width="336" height="16" fill="#160F09" /><rect x="426" y="106" width="16" height="16" fill="#160F09" /><rect x="58" y="122" width="352" height="16" fill="#160F09" /><rect x="426" y="122" width="16" height="16" fill="#160F09" /><rect x="58" y="138" width="352" height="16" fill="#160F09" /><rect x="58" y="154" width="368" height="16" fill="#160F09" /><rect x="58" y="170" width="48" height="16" fill="#160F09" /><rect x="122" y="170" width="288" height="16" fill="#160F09" /><rect x="58" y="186" width="48" height="16" fill="#160F09" /><rect x="122" y="186" width="288" height="16" fill="#160F09" /><rect x="58" y="202" width="32" height="16" fill="#160F09" /><rect x="122" y="202" width="272" height="16" fill="#160F09" /><rect x="58" y="218" width="32" height="16" fill="#160F09" /><rect x="154" y="218" width="224" height="16" fill="#160F09" /><rect x="426" y="218" width="16" height="16" fill="#160F09" /><rect x="58" y="234" width="64" height="16" fill="#160F09" /><rect x="154" y="234" width="224" height="16" fill="#160F09" /><rect x="394" y="234" width="16" height="16" fill="#160F09" /><rect x="58" y="250" width="16" height="16" fill="#160F09" /><rect x="138" y="250" width="240" height="16" fill="#160F09" /><rect x="58" y="266" width="304" height="16" fill="#160F09" /><rect x="410" y="266" width="32" height="16" fill="#160F09" /><rect x="58" y="282" width="80" height="16" fill="#160F09" /><rect x="154" y="282" width="208" height="16" fill="#160F09" /><rect x="410" y="282" width="32" height="16" fill="#160F09" /><rect x="58" y="298" width="80" height="16" fill="#160F09" /><rect x="154" y="298" width="208" height="16" fill="#160F09" /><rect x="394" y="298" width="48" height="16" fill="#160F09" /><rect x="58" y="314" width="64" height="16" fill="#160F09" /><rect x="170" y="314" width="160" height="16" fill="#160F09" /><rect x="378" y="314" width="64" height="16" fill="#160F09" /><rect x="58" y="330" width="96" height="16" fill="#160F09" /><rect x="202" y="330" width="112" height="16" fill="#160F09" /><rect x="346" y="330" width="16" height="16" fill="#160F09" /><rect x="378" y="330" width="64" height="16" fill="#160F09" /><rect x="58" y="346" width="128" height="16" fill="#160F09" /><rect x="234" y="346" width="64" height="16" fill="#160F09" /><rect x="410" y="346" width="32" height="16" fill="#160F09" /><rect x="58" y="362" width="128" height="16" fill="#160F09" /><rect x="218" y="362" width="80" height="16" fill="#160F09" /><rect x="394" y="362" width="48" height="16" fill="#160F09" /><rect x="58" y="378" width="96" height="16" fill="#160F09" /><rect x="250" y="378" width="48" height="16" fill="#160F09" /><rect x="314" y="378" width="16" height="16" fill="#160F09" /><rect x="346" y="378" width="16" height="16" fill="#160F09" /><rect x="394" y="378" width="48" height="16" fill="#160F09" /><rect x="58" y="394" width="96" height="16" fill="#160F09" /><rect x="170" y="394" width="48" height="16" fill="#160F09" /><rect x="250" y="394" width="48" height="16" fill="#160F09" /><rect x="314" y="394" width="16" height="16" fill="#160F09" /><rect x="394" y="394" width="48" height="16" fill="#160F09" /><rect x="58" y="410" width="80" height="16" fill="#160F09" /><rect x="170" y="410" width="48" height="16" fill="#160F09" /><rect x="250" y="410" width="48" height="16" fill="#160F09" /><rect x="314" y="410" width="32" height="16" fill="#160F09" /><rect x="394" y="410" width="48" height="16" fill="#160F09" /><rect x="58" y="426" width="64" height="16" fill="#160F09" /><rect x="170" y="426" width="48" height="16" fill="#160F09" /><rect x="250" y="426" width="48" height="16" fill="#160F09" /><rect x="378" y="426" width="64" height="16" fill="#160F09" /><rect x="234" y="394" width="16" height="16" fill="#FAAA00" /><rect x="330" y="362" width="16" height="16" fill="#FAAA00" /><rect x="218" y="346" width="16" height="16" fill="#FAAA00" /><rect x="154" y="330" width="16" height="16" fill="#FAAA00" /></svg>