<svg xmlns="http://www.w3.org/2000/svg" preserveAspectRatio="xMinYMin meet" viewBox="0 0 500 500" shape-rendering="crispEdges" transform-origin="center"><rect width="100%" height="100%" fill="#967E67" /><g transform="scale (5 5)"><rect x="23" y="-1" width="54" height="9" stroke-width="0.3" stroke="black" fill="#FFA800" /><text x="50" y="5.5" width="45" font-family="monospace" font-size="5" text-anchor="middle">Dunes of Honour</text></g><rect x="54" y="54" width="323" height="17" fill="#F3D899" /><rect x="394" y="54" width="51" height="17" fill="#F3D899" /><rect x="54" y="71" width="102" height="17" fill="#F3D899" /><rect x="173" y="71" width="34" height="17" fill="#F3D899" /><rect x="224" y="71" width="34" height="17" fill="#F3D899" /><rect x="275" y="71" width="17" height="17" fill="#F3D899" /><rect x="309" y="71" width="68" height="17" fill="#F3D899" /><rect x="411" y="71" width="34" height="17" fill="#F3D899" /><rect x="54" y="88" width="85" height="17" fill="#F3D899" /><rect x="190" y="88" width="17" height="17" fill="#F3D899" /><rect x="224" y="88" width="34" height="17" fill="#F3D899" /><rect x="275" y="88" width="17" height="17" fill="#F3D899" /><rect x="309" y="88" width="85" height="17" fill="#F3D899" /><rect x="411" y="88" width="34" height="17" fill="#F3D899" /><rect x="54" y="105" width="85" height="17" fill="#F3D899" /><rect x="190" y="105" width="17" height="17" fill="#F3D899" /><rect x="224" y="105" width="34" height="17" fill="#F3D899" /><rect x="309" y="105" width="34" height="17" fill="#F3D899" /><rect x="411" y="105" width="34" height="17" fill="#F3D899" /><rect x="54" y="122" width="85" height="17" fill="#F3D899" /><rect x="224" y="122" width="51" height="17" fill="#F3D899" /><rect x="309" y="122" width="34" height="17" fill="#F3D899" /><rect x="360" y="122" width="85" height="17" fill="#F3D899" /><rect x="54" y="139" width="102" height="17" fill="#F3D899" /><rect x="258" y="139" width="17" height="17" fill="#F3D899" /><rect x="309" y="139" width="17" height="17" fill="#F3D899" /><rect x="360" y="139" width="85" height="17" fill="#F3D899" /><rect x="54" y="156" width="85" height="17" fill="#F3D899" /><rect x="190" y="156" width="34" height="17" fill="#F3D899" /><rect x="258" y="156" width="17" height="17" fill="#F3D899" /><rect x="309" y="156" width="17" height="17" fill="#F3D899" /><rect x="343" y="156" width="102" height="17" fill="#F3D899" /><rect x="54" y="173" width="0" height="17" fill="#F3D899" /><rect x="71" y="173" width="68" height="17" fill="#F3D899" /><rect x="156" y="173" width="17" height="17" fill="#F3D899" /><rect x="207" y="173" width="34" height="17" fill="#F3D899" /><rect x="258" y="173" width="17" height="17" fill="#F3D899" /><rect x="343" y="173" width="102" height="17" fill="#F3D899" /><rect x="54" y="190" width="68" height="17" fill="#F3D899" /><rect x="156" y="190" width="34" height="17" fill="#F3D899" /><rect x="224" y="190" width="51" height="17" fill="#F3D899" /><rect x="292" y="190" width="34" height="17" fill="#F3D899" /><rect x="360" y="190" width="85" height="17" fill="#F3D899" /><rect x="54" y="207" width="51" height="17" fill="#F3D899" /><rect x="139" y="207" width="68" height="17" fill="#F3D899" /><rect x="224" y="207" width="51" height="17" fill="#F3D899" /><rect x="292" y="207" width="51" height="17" fill="#F3D899" /><rect x="360" y="207" width="85" height="17" fill="#F3D899" /><rect x="54" y="224" width="34" height="17" fill="#F3D899" /><rect x="139" y="224" width="51" height="17" fill="#F3D899" /><rect x="224" y="224" width="51" height="17" fill="#F3D899" /><rect x="292" y="224" width="51" height="17" fill="#F3D899" /><rect x="360" y="224" width="85" height="17" fill="#F3D899" /><rect x="54" y="241" width="136" height="17" fill="#F3D899" /><rect x="207" y="241" width="68" height="17" fill="#F3D899" /><rect x="309" y="241" width="34" height="17" fill="#F3D899" /><rect x="377" y="241" width="51" height="17" fill="#F3D899" /><rect x="54" y="258" width="136" height="17" fill="#F3D899" /><rect x="241" y="258" width="34" height="17" fill="#F3D899" /><rect x="309" y="258" width="34" height="17" fill="#F3D899" /><rect x="377" y="258" width="68" height="17" fill="#F3D899" /><rect x="54" y="275" width="170" height="17" fill="#F3D899" /><rect x="258" y="275" width="17" height="17" fill="#F3D899" /><rect x="292" y="275" width="51" height="17" fill="#F3D899" /><rect x="360" y="275" width="85" height="17" fill="#F3D899" /><rect x="54" y="292" width="153" height="17" fill="#F3D899" /><rect x="258" y="292" width="17" height="17" fill="#F3D899" /><rect x="292" y="292" width="51" height="17" fill="#F3D899" /><rect x="360" y="292" width="85" height="17" fill="#F3D899" /><rect x="54" y="309" width="119" height="17" fill="#F3D899" /><rect x="224" y="309" width="51" height="17" fill="#F3D899" /><rect x="360" y="309" width="85" height="17" fill="#F3D899" /><rect x="54" y="326" width="119" height="17" fill="#F3D899" /><rect x="190" y="326" width="119" height="17" fill="#F3D899" /><rect x="360" y="326" width="85" height="17" fill="#F3D899" /><rect x="54" y="343" width="102" height="17" fill="#F3D899" /><rect x="190" y="343" width="102" height="17" fill="#F3D899" /><rect x="326" y="343" width="17" height="17" fill="#F3D899" /><rect x="360" y="343" width="85" height="17" fill="#F3D899" /><rect x="54" y="360" width="119" height="17" fill="#F3D899" /><rect x="190" y="360" width="119" height="17" fill="#F3D899" /><rect x="326" y="360" width="17" height="17" fill="#F3D899" /><rect x="360" y="360" width="85" height="17" fill="#F3D899" /><rect x="54" y="377" width="119" height="17" fill="#F3D899" /><rect x="190" y="377" width="119" height="17" fill="#F3D899" /><rect x="360" y="377" width="85" height="17" fill="#F3D899" /><rect x="54" y="394" width="85" height="17" fill="#F3D899" /><rect x="190" y="394" width="136" height="17" fill="#F3D899" /><rect x="377" y="394" width="68" height="17" fill="#F3D899" /><rect x="54" y="411" width="272" height="17" fill="#F3D899" /><rect x="343" y="411" width="17" height="17" fill="#F3D899" /><rect x="394" y="411" width="51" height="17" fill="#F3D899" /><rect x="54" y="428" width="272" height="17" fill="#F3D899" /><rect x="343" y="428" width="17" height="17" fill="#F3D899" /><rect x="377" y="428" width="68" height="17" fill="#F3D899" /><rect x="343" y="241" width="17" height="17" fill="#006669" /><rect x="275" y="207" width="17" height="17" fill="#006669" /><rect x="190" y="173" width="17" height="17" fill="#006669" /><rect x="377" y="71" width="17" height="17" fill="#3C2A1A" /></svg>