<svg xmlns="http://www.w3.org/2000/svg" preserveAspectRatio="xMinYMin meet" viewBox="0 0 500 500" shape-rendering="crispEdges" transform-origin="center"><rect width="100%" height="100%" fill="#967E67" /><g transform="scale (5 5)"><rect x="33" y="-1" width="33" height="9" stroke-width="0.3" stroke="black" fill="#FFA800" /><text x="50" y="5.5" width="24" font-family="monospace" font-size="5" text-anchor="middle">Cloister</text></g><rect x="63" y="63" width="374" height="17" fill="#F3D899" /><rect x="63" y="80" width="374" height="17" fill="#F3D899" /><rect x="63" y="97" width="374" height="17" fill="#F3D899" /><rect x="63" y="114" width="374" height="17" fill="#F3D899" /><rect x="63" y="131" width="68" height="17" fill="#F3D899" /><rect x="199" y="131" width="238" height="17" fill="#F3D899" /><rect x="63" y="148" width="68" height="17" fill="#F3D899" /><rect x="369" y="148" width="68" height="17" fill="#F3D899" /><rect x="63" y="165" width="68" height="17" fill="#F3D899" /><rect x="199" y="165" width="153" height="17" fill="#F3D899" /><rect x="369" y="165" width="68" height="17" fill="#F3D899" /><rect x="63" y="182" width="34" height="17" fill="#F3D899" /><rect x="199" y="182" width="153" height="17" fill="#F3D899" /><rect x="369" y="182" width="68" height="17" fill="#F3D899" /><rect x="63" y="199" width="34" height="17" fill="#F3D899" /><rect x="267" y="199" width="85" height="17" fill="#F3D899" /><rect x="369" y="199" width="68" height="17" fill="#F3D899" /><rect x="63" y="216" width="85" height="17" fill="#F3D899" /><rect x="267" y="216" width="85" height="17" fill="#F3D899" /><rect x="369" y="216" width="68" height="17" fill="#F3D899" /><rect x="63" y="233" width="85" height="17" fill="#F3D899" /><rect x="165" y="233" width="51" height="17" fill="#F3D899" /><rect x="267" y="233" width="85" height="17" fill="#F3D899" /><rect x="369" y="233" width="68" height="17" fill="#F3D899" /><rect x="63" y="250" width="85" height="17" fill="#F3D899" /><rect x="165" y="250" width="68" height="17" fill="#F3D899" /><rect x="267" y="250" width="85" height="17" fill="#F3D899" /><rect x="369" y="250" width="68" height="17" fill="#F3D899" /><rect x="63" y="267" width="68" height="17" fill="#F3D899" /><rect x="165" y="267" width="51" height="17" fill="#F3D899" /><rect x="267" y="267" width="34" height="17" fill="#F3D899" /><rect x="403" y="267" width="34" height="17" fill="#F3D899" /><rect x="63" y="284" width="68" height="17" fill="#F3D899" /><rect x="267" y="284" width="34" height="17" fill="#F3D899" /><rect x="403" y="284" width="34" height="17" fill="#F3D899" /><rect x="63" y="301" width="68" height="17" fill="#F3D899" /><rect x="284" y="301" width="17" height="17" fill="#F3D899" /><rect x="403" y="301" width="34" height="17" fill="#F3D899" /><rect x="63" y="318" width="68" height="17" fill="#F3D899" /><rect x="284" y="318" width="17" height="17" fill="#F3D899" /><rect x="403" y="318" width="34" height="17" fill="#F3D899" /><rect x="63" y="335" width="68" height="17" fill="#F3D899" /><rect x="403" y="335" width="34" height="17" fill="#F3D899" /><rect x="63" y="352" width="85" height="17" fill="#F3D899" /><rect x="403" y="352" width="34" height="17" fill="#F3D899" /><rect x="63" y="369" width="68" height="17" fill="#F3D899" /><rect x="284" y="369" width="153" height="17" fill="#F3D899" /><rect x="63" y="386" width="68" height="17" fill="#F3D899" /><rect x="284" y="386" width="153" height="17" fill="#F3D899" /><rect x="63" y="403" width="374" height="17" fill="#F3D899" /><rect x="63" y="420" width="374" height="17" fill="#F3D899" /><rect x="216" y="335" width="17" height="17" fill="#006669" /><rect x="352" y="233" width="17" height="17" fill="#3C2A1A" /><rect x="216" y="216" width="17" height="17" fill="#006669" /><rect x="182" y="216" width="17" height="17" fill="#3C2A1A" /></svg>