<svg xmlns="http://www.w3.org/2000/svg" preserveAspectRatio="xMinYMin meet" viewBox="0 0 500 500" shape-rendering="crispEdges" transform-origin="center"><rect width="100%" height="100%" fill="#F3D899" /><g transform="scale (5 5)"><rect x="39" y="-1" width="21" height="9" stroke-width="0.3" stroke="black" fill="#FFA800" /><text x="50" y="5.5" width="12" font-family="monospace" font-size="5" text-anchor="middle">Keep</text></g><rect x="60" y="60" width="380" height="19" fill="#160F09" /><rect x="60" y="79" width="38" height="19" fill="#160F09" /><rect x="136" y="79" width="304" height="19" fill="#160F09" /><rect x="60" y="98" width="38" height="19" fill="#160F09" /><rect x="136" y="98" width="304" height="19" fill="#160F09" /><rect x="60" y="117" width="57" height="19" fill="#160F09" /><rect x="136" y="117" width="304" height="19" fill="#160F09" /><rect x="60" y="136" width="57" height="19" fill="#160F09" /><rect x="136" y="136" width="38" height="19" fill="#160F09" /><rect x="212" y="136" width="228" height="19" fill="#160F09" /><rect x="60" y="155" width="57" height="19" fill="#160F09" /><rect x="136" y="155" width="38" height="19" fill="#160F09" /><rect x="212" y="155" width="228" height="19" fill="#160F09" /><rect x="60" y="174" width="57" height="19" fill="#160F09" /><rect x="136" y="174" width="57" height="19" fill="#160F09" /><rect x="212" y="174" width="228" height="19" fill="#160F09" /><rect x="60" y="193" width="57" height="19" fill="#160F09" /><rect x="136" y="193" width="57" height="19" fill="#160F09" /><rect x="212" y="193" width="228" height="19" fill="#160F09" /><rect x="60" y="212" width="57" height="19" fill="#160F09" /><rect x="136" y="212" width="57" height="19" fill="#160F09" /><rect x="212" y="212" width="228" height="19" fill="#160F09" /><rect x="60" y="231" width="57" height="19" fill="#160F09" /><rect x="136" y="231" width="57" height="19" fill="#160F09" /><rect x="250" y="231" width="19" height="19" fill="#160F09" /><rect x="345" y="231" width="19" height="19" fill="#160F09" /><rect x="402" y="231" width="38" height="19" fill="#160F09" /><rect x="60" y="250" width="57" height="19" fill="#160F09" /><rect x="136" y="250" width="57" height="19" fill="#160F09" /><rect x="250" y="250" width="19" height="19" fill="#160F09" /><rect x="402" y="250" width="38" height="19" fill="#160F09" /><rect x="60" y="269" width="57" height="19" fill="#160F09" /><rect x="136" y="269" width="57" height="19" fill="#160F09" /><rect x="345" y="269" width="38" height="19" fill="#160F09" /><rect x="402" y="269" width="38" height="19" fill="#160F09" /><rect x="60" y="288" width="38" height="19" fill="#160F09" /><rect x="136" y="288" width="57" height="19" fill="#160F09" /><rect x="250" y="288" width="19" height="19" fill="#160F09" /><rect x="345" y="288" width="38" height="19" fill="#160F09" /><rect x="402" y="288" width="38" height="19" fill="#160F09" /><rect x="60" y="307" width="38" height="19" fill="#160F09" /><rect x="402" y="307" width="38" height="19" fill="#160F09" /><rect x="60" y="326" width="38" height="19" fill="#160F09" /><rect x="231" y="326" width="133" height="19" fill="#160F09" /><rect x="402" y="326" width="38" height="19" fill="#160F09" /><rect x="60" y="345" width="19" height="19" fill="#160F09" /><rect x="231" y="345" width="133" height="19" fill="#160F09" /><rect x="402" y="345" width="38" height="19" fill="#160F09" /><rect x="60" y="364" width="19" height="19" fill="#160F09" /><rect x="383" y="364" width="57" height="19" fill="#160F09" /><rect x="60" y="383" width="19" height="19" fill="#160F09" /><rect x="383" y="383" width="57" height="19" fill="#160F09" /><rect x="60" y="402" width="380" height="19" fill="#160F09" /><rect x="60" y="421" width="380" height="19" fill="#160F09" /><rect x="250" y="364" width="19" height="19" fill="#FAAA00" /><rect x="231" y="364" width="19" height="19" fill="#FAAA00" /></svg>