<svg xmlns="http://www.w3.org/2000/svg" preserveAspectRatio="xMinYMin meet" viewBox="0 0 500 500" shape-rendering="crispEdges" transform-origin="center"><rect width="100%" height="100%" fill="#F3D899" /><g transform="scale (5 5)"><rect x="11" y="-1" width="78" height="9" stroke-width="0.3" stroke="black" fill="#FFA800" /><text x="50" y="5.5" width="69" font-family="monospace" font-size="5" text-anchor="middle">Landing of the Behemoth</text></g><rect x="58" y="58" width="384" height="16" fill="#160F09" /><rect x="58" y="74" width="384" height="16" fill="#160F09" /><rect x="58" y="90" width="384" height="16" fill="#160F09" /><rect x="58" y="106" width="384" height="16" fill="#160F09" /><rect x="58" y="122" width="384" height="16" fill="#160F09" /><rect x="58" y="138" width="160" height="16" fill="#160F09" /><rect x="282" y="138" width="160" height="16" fill="#160F09" /><rect x="58" y="154" width="160" height="16" fill="#160F09" /><rect x="282" y="154" width="160" height="16" fill="#160F09" /><rect x="58" y="170" width="160" height="16" fill="#160F09" /><rect x="282" y="170" width="160" height="16" fill="#160F09" /><rect x="58" y="186" width="192" height="16" fill="#160F09" /><rect x="266" y="186" width="176" height="16" fill="#160F09" /><rect x="58" y="202" width="32" height="16" fill="#160F09" /><rect x="202" y="202" width="48" height="16" fill="#160F09" /><rect x="266" y="202" width="176" height="16" fill="#160F09" /><rect x="58" y="218" width="32" height="16" fill="#160F09" /><rect x="202" y="218" width="48" height="16" fill="#160F09" /><rect x="266" y="218" width="176" height="16" fill="#160F09" /><rect x="58" y="234" width="32" height="16" fill="#160F09" /><rect x="202" y="234" width="48" height="16" fill="#160F09" /><rect x="330" y="234" width="112" height="16" fill="#160F09" /><rect x="58" y="250" width="32" height="16" fill="#160F09" /><rect x="202" y="250" width="48" height="16" fill="#160F09" /><rect x="330" y="250" width="112" height="16" fill="#160F09" /><rect x="58" y="266" width="32" height="16" fill="#160F09" /><rect x="330" y="266" width="112" height="16" fill="#160F09" /><rect x="58" y="282" width="16" height="16" fill="#160F09" /><rect x="218" y="282" width="32" height="16" fill="#160F09" /><rect x="330" y="282" width="112" height="16" fill="#160F09" /><rect x="58" y="298" width="16" height="16" fill="#160F09" /><rect x="202" y="298" width="64" height="16" fill="#160F09" /><rect x="330" y="298" width="112" height="16" fill="#160F09" /><rect x="58" y="314" width="16" height="16" fill="#160F09" /><rect x="186" y="314" width="80" height="16" fill="#160F09" /><rect x="330" y="314" width="112" height="16" fill="#160F09" /><rect x="58" y="330" width="16" height="16" fill="#160F09" /><rect x="186" y="330" width="256" height="16" fill="#160F09" /><rect x="58" y="346" width="16" height="16" fill="#160F09" /><rect x="170" y="346" width="272" height="16" fill="#160F09" /><rect x="58" y="362" width="16" height="16" fill="#160F09" /><rect x="170" y="362" width="272" height="16" fill="#160F09" /><rect x="58" y="378" width="16" height="16" fill="#160F09" /><rect x="170" y="378" width="272" height="16" fill="#160F09" /><rect x="58" y="394" width="384" height="16" fill="#160F09" /><rect x="58" y="410" width="384" height="16" fill="#160F09" /><rect x="58" y="426" width="384" height="16" fill="#160F09" /><rect x="122" y="378" width="16" height="16" fill="#00A29D" /><rect x="122" y="330" width="16" height="16" fill="#00A29D" /><rect x="282" y="282" width="16" height="16" fill="#00A29D" /><rect x="138" y="282" width="16" height="16" fill="#00A29D" /><rect x="250" y="250" width="16" height="16" fill="#FAAA00" /><rect x="250" y="234" width="16" height="16" fill="#FAAA00" /><rect x="266" y="170" width="16" height="16" fill="#00A29D" /><rect x="250" y="154" width="16" height="16" fill="#00A29D" /></svg>