<svg xmlns="http://www.w3.org/2000/svg" preserveAspectRatio="xMinYMin meet" viewBox="0 0 500 500" shape-rendering="crispEdges" transform-origin="center"><rect width="100%" height="100%" fill="#F3D899" /><g transform="scale (5 5)"><rect x="20" y="-1" width="60" height="9" stroke-width="0.3" stroke="black" fill="#FFA800" /><text x="50" y="5.5" width="51" font-family="monospace" font-size="5" text-anchor="middle">Tundra of Torment</text></g><rect x="63" y="63" width="153" height="17" fill="#160F09" /><rect x="233" y="63" width="204" height="17" fill="#160F09" /><rect x="63" y="80" width="289" height="17" fill="#160F09" /><rect x="386" y="80" width="51" height="17" fill="#160F09" /><rect x="63" y="97" width="0" height="17" fill="#160F09" /><rect x="80" y="97" width="289" height="17" fill="#160F09" /><rect x="420" y="97" width="17" height="17" fill="#160F09" /><rect x="63" y="114" width="323" height="17" fill="#160F09" /><rect x="403" y="114" width="34" height="17" fill="#160F09" /><rect x="63" y="131" width="323" height="17" fill="#160F09" /><rect x="403" y="131" width="34" height="17" fill="#160F09" /><rect x="63" y="148" width="323" height="17" fill="#160F09" /><rect x="420" y="148" width="17" height="17" fill="#160F09" /><rect x="63" y="165" width="340" height="17" fill="#160F09" /><rect x="420" y="165" width="17" height="17" fill="#160F09" /><rect x="63" y="182" width="340" height="17" fill="#160F09" /><rect x="420" y="182" width="17" height="17" fill="#160F09" /><rect x="63" y="199" width="289" height="17" fill="#160F09" /><rect x="420" y="199" width="17" height="17" fill="#160F09" /><rect x="63" y="216" width="0" height="17" fill="#160F09" /><rect x="80" y="216" width="204" height="17" fill="#160F09" /><rect x="301" y="216" width="34" height="17" fill="#160F09" /><rect x="369" y="216" width="68" height="17" fill="#160F09" /><rect x="63" y="233" width="0" height="17" fill="#160F09" /><rect x="80" y="233" width="204" height="17" fill="#160F09" /><rect x="318" y="233" width="17" height="17" fill="#160F09" /><rect x="352" y="233" width="85" height="17" fill="#160F09" /><rect x="63" y="250" width="238" height="17" fill="#160F09" /><rect x="369" y="250" width="68" height="17" fill="#160F09" /><rect x="63" y="267" width="272" height="17" fill="#160F09" /><rect x="369" y="267" width="68" height="17" fill="#160F09" /><rect x="63" y="284" width="272" height="17" fill="#160F09" /><rect x="369" y="284" width="68" height="17" fill="#160F09" /><rect x="63" y="301" width="136" height="17" fill="#160F09" /><rect x="216" y="301" width="119" height="17" fill="#160F09" /><rect x="369" y="301" width="68" height="17" fill="#160F09" /><rect x="63" y="318" width="51" height="17" fill="#160F09" /><rect x="148" y="318" width="51" height="17" fill="#160F09" /><rect x="216" y="318" width="102" height="17" fill="#160F09" /><rect x="369" y="318" width="68" height="17" fill="#160F09" /><rect x="63" y="335" width="68" height="17" fill="#160F09" /><rect x="148" y="335" width="51" height="17" fill="#160F09" /><rect x="216" y="335" width="102" height="17" fill="#160F09" /><rect x="369" y="335" width="68" height="17" fill="#160F09" /><rect x="63" y="352" width="68" height="17" fill="#160F09" /><rect x="165" y="352" width="34" height="17" fill="#160F09" /><rect x="250" y="352" width="68" height="17" fill="#160F09" /><rect x="352" y="352" width="85" height="17" fill="#160F09" /><rect x="63" y="369" width="51" height="17" fill="#160F09" /><rect x="165" y="369" width="51" height="17" fill="#160F09" /><rect x="267" y="369" width="34" height="17" fill="#160F09" /><rect x="369" y="369" width="68" height="17" fill="#160F09" /><rect x="63" y="386" width="68" height="17" fill="#160F09" /><rect x="165" y="386" width="34" height="17" fill="#160F09" /><rect x="233" y="386" width="102" height="17" fill="#160F09" /><rect x="369" y="386" width="68" height="17" fill="#160F09" /><rect x="63" y="403" width="51" height="17" fill="#160F09" /><rect x="165" y="403" width="17" height="17" fill="#160F09" /><rect x="233" y="403" width="102" height="17" fill="#160F09" /><rect x="369" y="403" width="68" height="17" fill="#160F09" /><rect x="63" y="420" width="68" height="17" fill="#160F09" /><rect x="233" y="420" width="102" height="17" fill="#160F09" /><rect x="403" y="420" width="34" height="17" fill="#160F09" /><rect x="284" y="216" width="17" height="17" fill="#00A29D" /><rect x="403" y="148" width="17" height="17" fill="#FAAA00" /></svg>