<svg xmlns="http://www.w3.org/2000/svg" preserveAspectRatio="xMinYMin meet" viewBox="0 0 500 500" shape-rendering="crispEdges" transform-origin="center"><rect width="100%" height="100%" fill="#340D07" /><g transform="scale (5 5)"><rect x="15" y="-1" width="69" height="9" stroke-width="0.3" stroke="black" fill="#FFA800" /><text x="50" y="5.5" width="60" font-family="monospace" font-size="5" text-anchor="middle">Forest of the Titans</text></g><rect x="54" y="54" width="391" height="17" fill="#5D0503" /><rect x="54" y="71" width="17" height="17" fill="#5D0503" /><rect x="105" y="71" width="340" height="17" fill="#5D0503" /><rect x="54" y="88" width="17" height="17" fill="#5D0503" /><rect x="105" y="88" width="340" height="17" fill="#5D0503" /><rect x="54" y="105" width="17" height="17" fill="#5D0503" /><rect x="377" y="105" width="68" height="17" fill="#5D0503" /><rect x="54" y="122" width="17" height="17" fill="#5D0503" /><rect x="105" y="122" width="255" height="17" fill="#5D0503" /><rect x="377" y="122" width="68" height="17" fill="#5D0503" /><rect x="54" y="139" width="17" height="17" fill="#5D0503" /><rect x="105" y="139" width="34" height="17" fill="#5D0503" /><rect x="173" y="139" width="136" height="17" fill="#5D0503" /><rect x="411" y="139" width="34" height="17" fill="#5D0503" /><rect x="54" y="156" width="34" height="17" fill="#5D0503" /><rect x="105" y="156" width="34" height="17" fill="#5D0503" /><rect x="173" y="156" width="136" height="17" fill="#5D0503" /><rect x="411" y="156" width="34" height="17" fill="#5D0503" /><rect x="54" y="173" width="34" height="17" fill="#5D0503" /><rect x="105" y="173" width="34" height="17" fill="#5D0503" /><rect x="411" y="173" width="34" height="17" fill="#5D0503" /><rect x="54" y="190" width="34" height="17" fill="#5D0503" /><rect x="105" y="190" width="34" height="17" fill="#5D0503" /><rect x="173" y="190" width="34" height="17" fill="#5D0503" /><rect x="224" y="190" width="85" height="17" fill="#5D0503" /><rect x="411" y="190" width="34" height="17" fill="#5D0503" /><rect x="54" y="207" width="34" height="17" fill="#5D0503" /><rect x="105" y="207" width="34" height="17" fill="#5D0503" /><rect x="173" y="207" width="34" height="17" fill="#5D0503" /><rect x="224" y="207" width="221" height="17" fill="#5D0503" /><rect x="54" y="224" width="34" height="17" fill="#5D0503" /><rect x="190" y="224" width="17" height="17" fill="#5D0503" /><rect x="224" y="224" width="221" height="17" fill="#5D0503" /><rect x="54" y="241" width="34" height="17" fill="#5D0503" /><rect x="258" y="241" width="187" height="17" fill="#5D0503" /><rect x="54" y="258" width="34" height="17" fill="#5D0503" /><rect x="343" y="258" width="102" height="17" fill="#5D0503" /><rect x="54" y="275" width="34" height="17" fill="#5D0503" /><rect x="258" y="275" width="68" height="17" fill="#5D0503" /><rect x="343" y="275" width="102" height="17" fill="#5D0503" /><rect x="54" y="292" width="34" height="17" fill="#5D0503" /><rect x="258" y="292" width="68" height="17" fill="#5D0503" /><rect x="343" y="292" width="102" height="17" fill="#5D0503" /><rect x="54" y="309" width="34" height="17" fill="#5D0503" /><rect x="258" y="309" width="51" height="17" fill="#5D0503" /><rect x="360" y="309" width="85" height="17" fill="#5D0503" /><rect x="54" y="326" width="34" height="17" fill="#5D0503" /><rect x="360" y="326" width="85" height="17" fill="#5D0503" /><rect x="54" y="343" width="34" height="17" fill="#5D0503" /><rect x="309" y="343" width="136" height="17" fill="#5D0503" /><rect x="54" y="360" width="34" height="17" fill="#5D0503" /><rect x="258" y="360" width="34" height="17" fill="#5D0503" /><rect x="309" y="360" width="136" height="17" fill="#5D0503" /><rect x="54" y="377" width="170" height="17" fill="#5D0503" /><rect x="241" y="377" width="17" height="17" fill="#5D0503" /><rect x="343" y="377" width="102" height="17" fill="#5D0503" /><rect x="54" y="394" width="170" height="17" fill="#5D0503" /><rect x="343" y="394" width="102" height="17" fill="#5D0503" /><rect x="54" y="411" width="391" height="17" fill="#5D0503" /><rect x="54" y="428" width="391" height="17" fill="#5D0503" /><rect x="309" y="258" width="17" height="17" fill="#B75700" /><rect x="224" y="241" width="17" height="17" fill="#FF1800" /><rect x="207" y="207" width="17" height="17" fill="#B75700" /><rect x="173" y="105" width="17" height="17" fill="#B75700" /><rect x="156" y="105" width="17" height="17" fill="#B75700" /></svg>