<svg xmlns="http://www.w3.org/2000/svg" preserveAspectRatio="xMinYMin meet" viewBox="0 0 500 500" shape-rendering="crispEdges" transform-origin="center"><rect width="100%" height="100%" fill="#36230F" /><g transform="scale (5 5)"><rect x="24" y="-1" width="51" height="9" stroke-width="0.3" stroke="black" fill="#FFA800" /><text x="50" y="5.5" width="42" font-family="monospace" font-size="5" text-anchor="middle">Emerald Forest</text></g><rect x="71" y="71" width="357" height="21" fill="#744936" /><rect x="71" y="92" width="42" height="21" fill="#744936" /><rect x="155" y="92" width="21" height="21" fill="#744936" /><rect x="218" y="92" width="42" height="21" fill="#744936" /><rect x="344" y="92" width="84" height="21" fill="#744936" /><rect x="71" y="113" width="42" height="21" fill="#744936" /><rect x="197" y="113" width="42" height="21" fill="#744936" /><rect x="386" y="113" width="42" height="21" fill="#744936" /><rect x="71" y="134" width="21" height="21" fill="#744936" /><rect x="197" y="134" width="42" height="21" fill="#744936" /><rect x="260" y="134" width="42" height="21" fill="#744936" /><rect x="386" y="134" width="42" height="21" fill="#744936" /><rect x="71" y="155" width="63" height="21" fill="#744936" /><rect x="197" y="155" width="105" height="21" fill="#744936" /><rect x="365" y="155" width="63" height="21" fill="#744936" /><rect x="71" y="176" width="42" height="21" fill="#744936" /><rect x="197" y="176" width="105" height="21" fill="#744936" /><rect x="344" y="176" width="84" height="21" fill="#744936" /><rect x="71" y="197" width="42" height="21" fill="#744936" /><rect x="197" y="197" width="84" height="21" fill="#744936" /><rect x="344" y="197" width="84" height="21" fill="#744936" /><rect x="71" y="218" width="42" height="21" fill="#744936" /><rect x="218" y="218" width="63" height="21" fill="#744936" /><rect x="302" y="218" width="21" height="21" fill="#744936" /><rect x="344" y="218" width="84" height="21" fill="#744936" /><rect x="71" y="239" width="21" height="21" fill="#744936" /><rect x="218" y="239" width="63" height="21" fill="#744936" /><rect x="302" y="239" width="21" height="21" fill="#744936" /><rect x="365" y="239" width="63" height="21" fill="#744936" /><rect x="71" y="260" width="42" height="21" fill="#744936" /><rect x="155" y="260" width="105" height="21" fill="#744936" /><rect x="386" y="260" width="42" height="21" fill="#744936" /><rect x="71" y="281" width="21" height="21" fill="#744936" /><rect x="155" y="281" width="105" height="21" fill="#744936" /><rect x="281" y="281" width="84" height="21" fill="#744936" /><rect x="386" y="281" width="42" height="21" fill="#744936" /><rect x="71" y="302" width="21" height="21" fill="#744936" /><rect x="134" y="302" width="231" height="21" fill="#744936" /><rect x="386" y="302" width="42" height="21" fill="#744936" /><rect x="71" y="323" width="21" height="21" fill="#744936" /><rect x="113" y="323" width="252" height="21" fill="#744936" /><rect x="386" y="323" width="42" height="21" fill="#744936" /><rect x="71" y="344" width="294" height="21" fill="#744936" /><rect x="71" y="365" width="336" height="21" fill="#744936" /><rect x="71" y="386" width="357" height="21" fill="#744936" /><rect x="71" y="407" width="357" height="21" fill="#744936" /><rect x="92" y="302" width="21" height="21" fill="#802F1A" /><rect x="113" y="281" width="21" height="21" fill="#FFA800" /><rect x="281" y="260" width="21" height="21" fill="#802F1A" /><rect x="260" y="260" width="21" height="21" fill="#802F1A" /><rect x="113" y="134" width="21" height="21" fill="#802F1A" /><rect x="92" y="134" width="21" height="21" fill="#FFA800" /><rect x="176" y="92" width="21" height="21" fill="#802F1A" /></svg>