<svg xmlns="http://www.w3.org/2000/svg" preserveAspectRatio="xMinYMin meet" viewBox="0 0 500 500" shape-rendering="crispEdges" transform-origin="center"><rect width="100%" height="100%" fill="#340D07" /><g transform="scale (5 5)"><rect x="38" y="-1" width="24" height="9" stroke-width="0.3" stroke="black" fill="#FFA800" /><text x="50" y="5.5" width="15" font-family="monospace" font-size="5" text-anchor="middle">Woods</text></g><rect x="95" y="95" width="310" height="31" fill="#5D0503" /><rect x="95" y="126" width="310" height="31" fill="#5D0503" /><rect x="95" y="157" width="124" height="31" fill="#5D0503" /><rect x="250" y="157" width="155" height="31" fill="#5D0503" /><rect x="95" y="188" width="124" height="31" fill="#5D0503" /><rect x="281" y="188" width="124" height="31" fill="#5D0503" /><rect x="95" y="219" width="155" height="31" fill="#5D0503" /><rect x="312" y="219" width="93" height="31" fill="#5D0503" /><rect x="95" y="250" width="0" height="31" fill="#5D0503" /><rect x="126" y="250" width="155" height="31" fill="#5D0503" /><rect x="95" y="281" width="31" height="31" fill="#5D0503" /><rect x="312" y="281" width="62" height="31" fill="#5D0503" /><rect x="95" y="312" width="62" height="31" fill="#5D0503" /><rect x="250" y="312" width="93" height="31" fill="#5D0503" /><rect x="95" y="343" width="93" height="31" fill="#5D0503" /><rect x="250" y="343" width="93" height="31" fill="#5D0503" /><rect x="374" y="343" width="31" height="31" fill="#5D0503" /><rect x="95" y="374" width="93" height="31" fill="#5D0503" /><rect x="281" y="374" width="31" height="31" fill="#5D0503" /><rect x="374" y="374" width="31" height="31" fill="#B75700" /><rect x="250" y="374" width="31" height="31" fill="#FF1800" /><rect x="281" y="250" width="31" height="31" fill="#FF1800" /></svg>