<svg xmlns="http://www.w3.org/2000/svg" preserveAspectRatio="xMinYMin meet" viewBox="0 0 500 500" shape-rendering="crispEdges" transform-origin="center"><rect width="100%" height="100%" fill="#36230F" /><g transform="scale (5 5)"><rect x="18" y="-1" width="63" height="9" stroke-width="0.3" stroke="black" fill="#FFA800" /><text x="50" y="5.5" width="54" font-family="monospace" font-size="5" text-anchor="middle">Catacombs of Havoc</text></g><rect x="58" y="58" width="384" height="16" fill="#744936" /><rect x="58" y="74" width="16" height="16" fill="#744936" /><rect x="122" y="74" width="320" height="16" fill="#744936" /><rect x="58" y="90" width="16" height="16" fill="#744936" /><rect x="122" y="90" width="320" height="16" fill="#744936" /><rect x="58" y="106" width="16" height="16" fill="#744936" /><rect x="186" y="106" width="256" height="16" fill="#744936" /><rect x="58" y="122" width="16" height="16" fill="#744936" /><rect x="122" y="122" width="48" height="16" fill="#744936" /><rect x="186" y="122" width="256" height="16" fill="#744936" /><rect x="58" y="138" width="112" height="16" fill="#744936" /><rect x="186" y="138" width="80" height="16" fill="#744936" /><rect x="378" y="138" width="64" height="16" fill="#744936" /><rect x="58" y="154" width="16" height="16" fill="#744936" /><rect x="186" y="154" width="16" height="16" fill="#744936" /><rect x="378" y="154" width="64" height="16" fill="#744936" /><rect x="58" y="170" width="16" height="16" fill="#744936" /><rect x="186" y="170" width="16" height="16" fill="#744936" /><rect x="218" y="170" width="96" height="16" fill="#744936" /><rect x="330" y="170" width="112" height="16" fill="#744936" /><rect x="58" y="186" width="16" height="16" fill="#744936" /><rect x="218" y="186" width="96" height="16" fill="#744936" /><rect x="330" y="186" width="112" height="16" fill="#744936" /><rect x="58" y="202" width="16" height="16" fill="#744936" /><rect x="234" y="202" width="80" height="16" fill="#744936" /><rect x="330" y="202" width="112" height="16" fill="#744936" /><rect x="58" y="218" width="16" height="16" fill="#744936" /><rect x="234" y="218" width="80" height="16" fill="#744936" /><rect x="330" y="218" width="112" height="16" fill="#744936" /><rect x="58" y="234" width="32" height="16" fill="#744936" /><rect x="234" y="234" width="64" height="16" fill="#744936" /><rect x="330" y="234" width="112" height="16" fill="#744936" /><rect x="58" y="250" width="32" height="16" fill="#744936" /><rect x="234" y="250" width="64" height="16" fill="#744936" /><rect x="330" y="250" width="112" height="16" fill="#744936" /><rect x="58" y="266" width="32" height="16" fill="#744936" /><rect x="154" y="266" width="16" height="16" fill="#744936" /><rect x="234" y="266" width="64" height="16" fill="#744936" /><rect x="330" y="266" width="112" height="16" fill="#744936" /><rect x="58" y="282" width="64" height="16" fill="#744936" /><rect x="330" y="282" width="112" height="16" fill="#744936" /><rect x="58" y="298" width="16" height="16" fill="#744936" /><rect x="106" y="298" width="16" height="16" fill="#744936" /><rect x="138" y="298" width="32" height="16" fill="#744936" /><rect x="234" y="298" width="64" height="16" fill="#744936" /><rect x="330" y="298" width="112" height="16" fill="#744936" /><rect x="58" y="314" width="16" height="16" fill="#744936" /><rect x="234" y="314" width="64" height="16" fill="#744936" /><rect x="330" y="314" width="112" height="16" fill="#744936" /><rect x="58" y="330" width="16" height="16" fill="#744936" /><rect x="106" y="330" width="16" height="16" fill="#744936" /><rect x="330" y="330" width="112" height="16" fill="#744936" /><rect x="58" y="346" width="32" height="16" fill="#744936" /><rect x="106" y="346" width="16" height="16" fill="#744936" /><rect x="314" y="346" width="128" height="16" fill="#744936" /><rect x="58" y="362" width="32" height="16" fill="#744936" /><rect x="234" y="362" width="208" height="16" fill="#744936" /><rect x="58" y="378" width="64" height="16" fill="#744936" /><rect x="234" y="378" width="208" height="16" fill="#744936" /><rect x="58" y="394" width="64" height="16" fill="#744936" /><rect x="234" y="394" width="208" height="16" fill="#744936" /><rect x="58" y="410" width="384" height="16" fill="#744936" /><rect x="58" y="426" width="384" height="16" fill="#744936" /><rect x="122" y="330" width="16" height="16" fill="#FFA800" /><rect x="282" y="282" width="16" height="16" fill="#802F1A" /><rect x="170" y="282" width="16" height="16" fill="#FFA800" /></svg>