<svg xmlns="http://www.w3.org/2000/svg" preserveAspectRatio="xMinYMin meet" viewBox="0 0 500 500" shape-rendering="crispEdges" transform-origin="center"><rect width="100%" height="100%" fill="#006669" /><g transform="scale (5 5)"><rect x="38" y="-1" width="24" height="9" stroke-width="0.3" stroke="black" fill="#FFA800" /><text x="50" y="5.5" width="15" font-family="monospace" font-size="5" text-anchor="middle">Glade</text></g><rect x="75" y="75" width="350" height="25" fill="#004238" /><rect x="75" y="100" width="25" height="25" fill="#004238" /><rect x="175" y="100" width="250" height="25" fill="#004238" /><rect x="75" y="125" width="25" height="25" fill="#004238" /><rect x="350" y="125" width="75" height="25" fill="#004238" /><rect x="75" y="150" width="25" height="25" fill="#004238" /><rect x="175" y="150" width="150" height="25" fill="#004238" /><rect x="350" y="150" width="75" height="25" fill="#004238" /><rect x="75" y="175" width="50" height="25" fill="#004238" /><rect x="200" y="175" width="125" height="25" fill="#004238" /><rect x="350" y="175" width="75" height="25" fill="#004238" /><rect x="75" y="200" width="50" height="25" fill="#004238" /><rect x="200" y="200" width="125" height="25" fill="#004238" /><rect x="350" y="200" width="75" height="25" fill="#004238" /><rect x="75" y="225" width="50" height="25" fill="#004238" /><rect x="200" y="225" width="100" height="25" fill="#004238" /><rect x="375" y="225" width="50" height="25" fill="#004238" /><rect x="75" y="250" width="50" height="25" fill="#004238" /><rect x="200" y="250" width="25" height="25" fill="#004238" /><rect x="275" y="250" width="25" height="25" fill="#004238" /><rect x="375" y="250" width="50" height="25" fill="#004238" /><rect x="75" y="275" width="50" height="25" fill="#004238" /><rect x="275" y="275" width="25" height="25" fill="#004238" /><rect x="375" y="275" width="50" height="25" fill="#004238" /><rect x="75" y="300" width="50" height="25" fill="#004238" /><rect x="250" y="300" width="175" height="25" fill="#004238" /><rect x="75" y="325" width="100" height="25" fill="#004238" /><rect x="250" y="325" width="175" height="25" fill="#004238" /><rect x="75" y="350" width="100" height="25" fill="#004238" /><rect x="250" y="350" width="175" height="25" fill="#004238" /><rect x="75" y="375" width="350" height="25" fill="#004238" /><rect x="75" y="400" width="350" height="25" fill="#004238" /><rect x="325" y="150" width="25" height="25" fill="#967E67" /><rect x="125" y="125" width="25" height="25" fill="#F9B569" /></svg>