<svg xmlns="http://www.w3.org/2000/svg" preserveAspectRatio="xMinYMin meet" viewBox="0 0 500 500" shape-rendering="crispEdges" transform-origin="center"><rect width="100%" height="100%" fill="#F3D899" /><g transform="scale (5 5)"><rect x="21" y="-1" width="57" height="9" stroke-width="0.3" stroke="black" fill="#FFA800" /><text x="50" y="5.5" width="48" font-family="monospace" font-size="5" text-anchor="middle">Cloister of Pain</text></g><rect x="70" y="70" width="360" height="20" fill="#160F09" /><rect x="70" y="90" width="200" height="20" fill="#160F09" /><rect x="310" y="90" width="120" height="20" fill="#160F09" /><rect x="70" y="110" width="100" height="20" fill="#160F09" /><rect x="310" y="110" width="120" height="20" fill="#160F09" /><rect x="70" y="130" width="40" height="20" fill="#160F09" /><rect x="190" y="130" width="100" height="20" fill="#160F09" /><rect x="310" y="130" width="120" height="20" fill="#160F09" /><rect x="70" y="150" width="40" height="20" fill="#160F09" /><rect x="190" y="150" width="100" height="20" fill="#160F09" /><rect x="310" y="150" width="120" height="20" fill="#160F09" /><rect x="70" y="170" width="40" height="20" fill="#160F09" /><rect x="270" y="170" width="20" height="20" fill="#160F09" /><rect x="310" y="170" width="120" height="20" fill="#160F09" /><rect x="70" y="190" width="40" height="20" fill="#160F09" /><rect x="190" y="190" width="60" height="20" fill="#160F09" /><rect x="270" y="190" width="20" height="20" fill="#160F09" /><rect x="310" y="190" width="120" height="20" fill="#160F09" /><rect x="70" y="210" width="80" height="20" fill="#160F09" /><rect x="190" y="210" width="60" height="20" fill="#160F09" /><rect x="270" y="210" width="20" height="20" fill="#160F09" /><rect x="310" y="210" width="120" height="20" fill="#160F09" /><rect x="70" y="230" width="40" height="20" fill="#160F09" /><rect x="310" y="230" width="120" height="20" fill="#160F09" /><rect x="70" y="250" width="40" height="20" fill="#160F09" /><rect x="290" y="250" width="140" height="20" fill="#160F09" /><rect x="70" y="270" width="20" height="20" fill="#160F09" /><rect x="310" y="270" width="120" height="20" fill="#160F09" /><rect x="70" y="290" width="20" height="20" fill="#160F09" /><rect x="210" y="290" width="20" height="20" fill="#160F09" /><rect x="250" y="290" width="20" height="20" fill="#160F09" /><rect x="310" y="290" width="120" height="20" fill="#160F09" /><rect x="70" y="310" width="60" height="20" fill="#160F09" /><rect x="310" y="310" width="120" height="20" fill="#160F09" /><rect x="70" y="330" width="60" height="20" fill="#160F09" /><rect x="390" y="330" width="40" height="20" fill="#160F09" /><rect x="70" y="350" width="60" height="20" fill="#160F09" /><rect x="390" y="350" width="40" height="20" fill="#160F09" /><rect x="70" y="370" width="60" height="20" fill="#160F09" /><rect x="350" y="370" width="80" height="20" fill="#160F09" /><rect x="70" y="390" width="360" height="20" fill="#160F09" /><rect x="70" y="410" width="360" height="20" fill="#160F09" /><rect x="210" y="350" width="20" height="20" fill="#00A29D" /><rect x="170" y="310" width="20" height="20" fill="#00A29D" /><rect x="270" y="250" width="20" height="20" fill="#00A29D" /><rect x="290" y="110" width="20" height="20" fill="#00A29D" /><rect x="170" y="110" width="20" height="20" fill="#FAAA00" /></svg>