<svg xmlns="http://www.w3.org/2000/svg" preserveAspectRatio="xMinYMin meet" viewBox="0 0 500 500" shape-rendering="crispEdges" transform-origin="center"><rect width="100%" height="100%" fill="#2F590E" /><g transform="scale (5 5)"><rect x="12" y="-1" width="76" height="9" stroke-width="0.3" stroke="black" fill="#FFA800" /><text x="50" y="5.5" width="105" font-family="monospace" font-size="4" text-anchor="middle">Decrepid Mountain of Rapture</text></g><rect x="61" y="61" width="378" height="18" fill="#A98C00" /><rect x="61" y="79" width="36" height="18" fill="#A98C00" /><rect x="169" y="79" width="270" height="18" fill="#A98C00" /><rect x="61" y="97" width="36" height="18" fill="#A98C00" /><rect x="223" y="97" width="216" height="18" fill="#A98C00" /><rect x="61" y="115" width="72" height="18" fill="#A98C00" /><rect x="151" y="115" width="54" height="18" fill="#A98C00" /><rect x="223" y="115" width="216" height="18" fill="#A98C00" /><rect x="61" y="133" width="72" height="18" fill="#A98C00" /><rect x="151" y="133" width="54" height="18" fill="#A98C00" /><rect x="223" y="133" width="216" height="18" fill="#A98C00" /><rect x="61" y="151" width="72" height="18" fill="#A98C00" /><rect x="151" y="151" width="54" height="18" fill="#A98C00" /><rect x="223" y="151" width="216" height="18" fill="#A98C00" /><rect x="61" y="169" width="18" height="18" fill="#A98C00" /><rect x="169" y="169" width="36" height="18" fill="#A98C00" /><rect x="223" y="169" width="216" height="18" fill="#A98C00" /><rect x="61" y="187" width="18" height="18" fill="#A98C00" /><rect x="169" y="187" width="36" height="18" fill="#A98C00" /><rect x="295" y="187" width="144" height="18" fill="#A98C00" /><rect x="61" y="205" width="18" height="18" fill="#A98C00" /><rect x="169" y="205" width="36" height="18" fill="#A98C00" /><rect x="295" y="205" width="144" height="18" fill="#A98C00" /><rect x="61" y="223" width="18" height="18" fill="#A98C00" /><rect x="295" y="223" width="144" height="18" fill="#A98C00" /><rect x="61" y="241" width="54" height="18" fill="#A98C00" /><rect x="187" y="241" width="18" height="18" fill="#A98C00" /><rect x="295" y="241" width="144" height="18" fill="#A98C00" /><rect x="61" y="259" width="18" height="18" fill="#A98C00" /><rect x="295" y="259" width="144" height="18" fill="#A98C00" /><rect x="61" y="277" width="18" height="18" fill="#A98C00" /><rect x="349" y="277" width="90" height="18" fill="#A98C00" /><rect x="61" y="295" width="18" height="18" fill="#A98C00" /><rect x="349" y="295" width="90" height="18" fill="#A98C00" /><rect x="61" y="313" width="18" height="18" fill="#A98C00" /><rect x="187" y="313" width="18" height="18" fill="#A98C00" /><rect x="349" y="313" width="90" height="18" fill="#A98C00" /><rect x="61" y="331" width="18" height="18" fill="#A98C00" /><rect x="349" y="331" width="18" height="18" fill="#A98C00" /><rect x="403" y="331" width="36" height="18" fill="#A98C00" /><rect x="61" y="349" width="36" height="18" fill="#A98C00" /><rect x="403" y="349" width="36" height="18" fill="#A98C00" /><rect x="61" y="367" width="54" height="18" fill="#A98C00" /><rect x="403" y="367" width="36" height="18" fill="#A98C00" /><rect x="61" y="385" width="72" height="18" fill="#A98C00" /><rect x="259" y="385" width="108" height="18" fill="#A98C00" /><rect x="403" y="385" width="36" height="18" fill="#A98C00" /><rect x="61" y="403" width="378" height="18" fill="#A98C00" /><rect x="61" y="421" width="378" height="18" fill="#A98C00" /><rect x="133" y="349" width="18" height="18" fill="#C55300" /><rect x="115" y="331" width="18" height="18" fill="#C55300" /><rect x="259" y="313" width="18" height="18" fill="#C55300" /><rect x="79" y="295" width="18" height="18" fill="#C55300" /><rect x="115" y="259" width="18" height="18" fill="#C55300" /></svg>