<svg xmlns="http://www.w3.org/2000/svg" preserveAspectRatio="xMinYMin meet" viewBox="0 0 500 500" shape-rendering="crispEdges" transform-origin="center"><rect width="100%" height="100%" fill="#967E67" /><g transform="scale (5 5)"><rect x="13" y="-1" width="74" height="9" stroke-width="0.3" stroke="black" fill="#FFA800" /><text x="50" y="5.5" width="102" font-family="monospace" font-size="4" text-anchor="middle">Desolate Mountain of Horror</text></g><rect x="58" y="58" width="384" height="16" fill="#F3D899" /><rect x="58" y="74" width="224" height="16" fill="#F3D899" /><rect x="362" y="74" width="80" height="16" fill="#F3D899" /><rect x="58" y="90" width="224" height="16" fill="#F3D899" /><rect x="362" y="90" width="80" height="16" fill="#F3D899" /><rect x="58" y="106" width="96" height="16" fill="#F3D899" /><rect x="362" y="106" width="80" height="16" fill="#F3D899" /><rect x="58" y="122" width="96" height="16" fill="#F3D899" /><rect x="170" y="122" width="32" height="16" fill="#F3D899" /><rect x="234" y="122" width="48" height="16" fill="#F3D899" /><rect x="362" y="122" width="80" height="16" fill="#F3D899" /><rect x="58" y="138" width="96" height="16" fill="#F3D899" /><rect x="170" y="138" width="32" height="16" fill="#F3D899" /><rect x="234" y="138" width="64" height="16" fill="#F3D899" /><rect x="346" y="138" width="96" height="16" fill="#F3D899" /><rect x="58" y="154" width="64" height="16" fill="#F3D899" /><rect x="170" y="154" width="32" height="16" fill="#F3D899" /><rect x="234" y="154" width="64" height="16" fill="#F3D899" /><rect x="346" y="154" width="96" height="16" fill="#F3D899" /><rect x="58" y="170" width="64" height="16" fill="#F3D899" /><rect x="186" y="170" width="16" height="16" fill="#F3D899" /><rect x="234" y="170" width="64" height="16" fill="#F3D899" /><rect x="346" y="170" width="96" height="16" fill="#F3D899" /><rect x="58" y="186" width="16" height="16" fill="#F3D899" /><rect x="106" y="186" width="16" height="16" fill="#F3D899" /><rect x="346" y="186" width="96" height="16" fill="#F3D899" /><rect x="58" y="202" width="16" height="16" fill="#F3D899" /><rect x="106" y="202" width="32" height="16" fill="#F3D899" /><rect x="186" y="202" width="32" height="16" fill="#F3D899" /><rect x="234" y="202" width="64" height="16" fill="#F3D899" /><rect x="346" y="202" width="96" height="16" fill="#F3D899" /><rect x="58" y="218" width="16" height="16" fill="#F3D899" /><rect x="346" y="218" width="96" height="16" fill="#F3D899" /><rect x="58" y="234" width="16" height="16" fill="#F3D899" /><rect x="106" y="234" width="16" height="16" fill="#F3D899" /><rect x="234" y="234" width="64" height="16" fill="#F3D899" /><rect x="346" y="234" width="96" height="16" fill="#F3D899" /><rect x="58" y="250" width="16" height="16" fill="#F3D899" /><rect x="106" y="250" width="16" height="16" fill="#F3D899" /><rect x="314" y="250" width="128" height="16" fill="#F3D899" /><rect x="58" y="266" width="32" height="16" fill="#F3D899" /><rect x="106" y="266" width="16" height="16" fill="#F3D899" /><rect x="234" y="266" width="208" height="16" fill="#F3D899" /><rect x="58" y="282" width="32" height="16" fill="#F3D899" /><rect x="234" y="282" width="208" height="16" fill="#F3D899" /><rect x="58" y="298" width="64" height="16" fill="#F3D899" /><rect x="330" y="298" width="112" height="16" fill="#F3D899" /><rect x="58" y="314" width="64" height="16" fill="#F3D899" /><rect x="234" y="314" width="32" height="16" fill="#F3D899" /><rect x="330" y="314" width="112" height="16" fill="#F3D899" /><rect x="58" y="330" width="80" height="16" fill="#F3D899" /><rect x="154" y="330" width="64" height="16" fill="#F3D899" /><rect x="234" y="330" width="32" height="16" fill="#F3D899" /><rect x="330" y="330" width="112" height="16" fill="#F3D899" /><rect x="58" y="346" width="80" height="16" fill="#F3D899" /><rect x="330" y="346" width="112" height="16" fill="#F3D899" /><rect x="58" y="362" width="128" height="16" fill="#F3D899" /><rect x="250" y="362" width="16" height="16" fill="#F3D899" /><rect x="330" y="362" width="112" height="16" fill="#F3D899" /><rect x="58" y="378" width="128" height="16" fill="#F3D899" /><rect x="250" y="378" width="16" height="16" fill="#F3D899" /><rect x="330" y="378" width="112" height="16" fill="#F3D899" /><rect x="58" y="394" width="208" height="16" fill="#F3D899" /><rect x="330" y="394" width="112" height="16" fill="#F3D899" /><rect x="58" y="410" width="384" height="16" fill="#F3D899" /><rect x="58" y="426" width="384" height="16" fill="#F3D899" /><rect x="90" y="282" width="16" height="16" fill="#3C2A1A" /><rect x="154" y="170" width="16" height="16" fill="#3C2A1A" /><rect x="314" y="154" width="16" height="16" fill="#006669" /><rect x="154" y="154" width="16" height="16" fill="#3C2A1A" /><rect x="346" y="122" width="16" height="16" fill="#006669" /></svg>