<svg xmlns="http://www.w3.org/2000/svg" preserveAspectRatio="xMinYMin meet" viewBox="0 0 500 500" shape-rendering="crispEdges" transform-origin="center"><rect width="100%" height="100%" fill="#2F590E" /><g transform="scale (5 5)"><rect x="24" y="-1" width="51" height="9" stroke-width="0.3" stroke="black" fill="#FFA800" /><text x="50" y="5.5" width="42" font-family="monospace" font-size="5" text-anchor="middle">Prison of Pine</text></g><rect x="63" y="63" width="374" height="17" fill="#A98C00" /><rect x="63" y="80" width="17" height="17" fill="#A98C00" /><rect x="182" y="80" width="255" height="17" fill="#A98C00" /><rect x="63" y="97" width="17" height="17" fill="#A98C00" /><rect x="182" y="97" width="255" height="17" fill="#A98C00" /><rect x="63" y="114" width="17" height="17" fill="#A98C00" /><rect x="182" y="114" width="255" height="17" fill="#A98C00" /><rect x="63" y="131" width="17" height="17" fill="#A98C00" /><rect x="182" y="131" width="255" height="17" fill="#A98C00" /><rect x="63" y="148" width="17" height="17" fill="#A98C00" /><rect x="182" y="148" width="255" height="17" fill="#A98C00" /><rect x="63" y="165" width="68" height="17" fill="#A98C00" /><rect x="148" y="165" width="17" height="17" fill="#A98C00" /><rect x="182" y="165" width="119" height="17" fill="#A98C00" /><rect x="352" y="165" width="85" height="17" fill="#A98C00" /><rect x="63" y="182" width="68" height="17" fill="#A98C00" /><rect x="352" y="182" width="85" height="17" fill="#A98C00" /><rect x="63" y="199" width="34" height="17" fill="#A98C00" /><rect x="182" y="199" width="17" height="17" fill="#A98C00" /><rect x="386" y="199" width="51" height="17" fill="#A98C00" /><rect x="63" y="216" width="34" height="17" fill="#A98C00" /><rect x="182" y="216" width="136" height="17" fill="#A98C00" /><rect x="335" y="216" width="17" height="17" fill="#A98C00" /><rect x="403" y="216" width="34" height="17" fill="#A98C00" /><rect x="63" y="233" width="34" height="17" fill="#A98C00" /><rect x="403" y="233" width="34" height="17" fill="#A98C00" /><rect x="63" y="250" width="34" height="17" fill="#A98C00" /><rect x="182" y="250" width="34" height="17" fill="#A98C00" /><rect x="301" y="250" width="17" height="17" fill="#A98C00" /><rect x="335" y="250" width="17" height="17" fill="#A98C00" /><rect x="403" y="250" width="34" height="17" fill="#A98C00" /><rect x="63" y="267" width="34" height="17" fill="#A98C00" /><rect x="318" y="267" width="17" height="17" fill="#A98C00" /><rect x="403" y="267" width="34" height="17" fill="#A98C00" /><rect x="63" y="284" width="34" height="17" fill="#A98C00" /><rect x="301" y="284" width="34" height="17" fill="#A98C00" /><rect x="403" y="284" width="34" height="17" fill="#A98C00" /><rect x="63" y="301" width="34" height="17" fill="#A98C00" /><rect x="403" y="301" width="34" height="17" fill="#A98C00" /><rect x="63" y="318" width="34" height="17" fill="#A98C00" /><rect x="403" y="318" width="34" height="17" fill="#A98C00" /><rect x="63" y="335" width="34" height="17" fill="#A98C00" /><rect x="216" y="335" width="51" height="17" fill="#A98C00" /><rect x="301" y="335" width="34" height="17" fill="#A98C00" /><rect x="403" y="335" width="34" height="17" fill="#A98C00" /><rect x="63" y="352" width="34" height="17" fill="#A98C00" /><rect x="318" y="352" width="17" height="17" fill="#A98C00" /><rect x="403" y="352" width="34" height="17" fill="#A98C00" /><rect x="63" y="369" width="34" height="17" fill="#A98C00" /><rect x="318" y="369" width="119" height="17" fill="#A98C00" /><rect x="63" y="386" width="68" height="17" fill="#A98C00" /><rect x="199" y="386" width="238" height="17" fill="#A98C00" /><rect x="63" y="403" width="374" height="17" fill="#A98C00" /><rect x="63" y="420" width="374" height="17" fill="#A98C00" /><rect x="148" y="386" width="17" height="17" fill="#C55300" /><rect x="216" y="369" width="17" height="17" fill="#C55300" /><rect x="131" y="301" width="17" height="17" fill="#C55300" /><rect x="352" y="284" width="17" height="17" fill="#C55300" /><rect x="97" y="284" width="17" height="17" fill="#C55300" /><rect x="131" y="114" width="17" height="17" fill="#C55300" /><rect x="114" y="80" width="17" height="17" fill="#C55300" /></svg>