<svg xmlns="http://www.w3.org/2000/svg" preserveAspectRatio="xMinYMin meet" viewBox="0 0 500 500" shape-rendering="crispEdges" transform-origin="center"><rect width="100%" height="100%" fill="#36230F" /><g transform="scale (5 5)"><rect x="24" y="-1" width="51" height="9" stroke-width="0.3" stroke="black" fill="#FFA800" /><text x="50" y="5.5" width="42" font-family="monospace" font-size="5" text-anchor="middle">Prison of Fire</text></g><rect x="101" y="101" width="165" height="33" fill="#744936" /><rect x="299" y="101" width="99" height="33" fill="#744936" /><rect x="101" y="134" width="264" height="33" fill="#744936" /><rect x="101" y="167" width="66" height="33" fill="#744936" /><rect x="233" y="167" width="132" height="33" fill="#744936" /><rect x="101" y="200" width="99" height="33" fill="#744936" /><rect x="233" y="200" width="132" height="33" fill="#744936" /><rect x="101" y="233" width="99" height="33" fill="#744936" /><rect x="233" y="233" width="165" height="33" fill="#744936" /><rect x="101" y="266" width="99" height="33" fill="#744936" /><rect x="233" y="266" width="165" height="33" fill="#744936" /><rect x="101" y="299" width="99" height="33" fill="#744936" /><rect x="299" y="299" width="99" height="33" fill="#744936" /><rect x="101" y="332" width="99" height="33" fill="#744936" /><rect x="299" y="332" width="99" height="33" fill="#744936" /><rect x="101" y="365" width="165" height="33" fill="#744936" /><rect x="332" y="365" width="66" height="33" fill="#744936" /><rect x="200" y="266" width="33" height="33" fill="#FFA800" /><rect x="200" y="200" width="33" height="33" fill="#802F1A" /></svg>