<svg xmlns="http://www.w3.org/2000/svg" preserveAspectRatio="xMinYMin meet" viewBox="0 0 500 500" shape-rendering="crispEdges" transform-origin="center"><rect width="100%" height="100%" fill="#F3D899" /><g transform="scale (5 5)"><rect x="32" y="-1" width="36" height="9" stroke-width="0.3" stroke="black" fill="#FFA800" /><text x="50" y="5.5" width="27" font-family="monospace" font-size="5" text-anchor="middle">Graveyard</text></g><rect x="58" y="58" width="384" height="16" fill="#160F09" /><rect x="58" y="74" width="384" height="16" fill="#160F09" /><rect x="58" y="90" width="384" height="16" fill="#160F09" /><rect x="58" y="106" width="384" height="16" fill="#160F09" /><rect x="58" y="122" width="384" height="16" fill="#160F09" /><rect x="58" y="138" width="80" height="16" fill="#160F09" /><rect x="154" y="138" width="144" height="16" fill="#160F09" /><rect x="330" y="138" width="112" height="16" fill="#160F09" /><rect x="58" y="154" width="80" height="16" fill="#160F09" /><rect x="154" y="154" width="144" height="16" fill="#160F09" /><rect x="330" y="154" width="64" height="16" fill="#160F09" /><rect x="410" y="154" width="32" height="16" fill="#160F09" /><rect x="58" y="170" width="80" height="16" fill="#160F09" /><rect x="154" y="170" width="144" height="16" fill="#160F09" /><rect x="314" y="170" width="80" height="16" fill="#160F09" /><rect x="410" y="170" width="32" height="16" fill="#160F09" /><rect x="58" y="186" width="80" height="16" fill="#160F09" /><rect x="170" y="186" width="128" height="16" fill="#160F09" /><rect x="314" y="186" width="80" height="16" fill="#160F09" /><rect x="58" y="202" width="96" height="16" fill="#160F09" /><rect x="170" y="202" width="128" height="16" fill="#160F09" /><rect x="314" y="202" width="112" height="16" fill="#160F09" /><rect x="58" y="218" width="96" height="16" fill="#160F09" /><rect x="186" y="218" width="112" height="16" fill="#160F09" /><rect x="330" y="218" width="96" height="16" fill="#160F09" /><rect x="58" y="234" width="64" height="16" fill="#160F09" /><rect x="186" y="234" width="128" height="16" fill="#160F09" /><rect x="330" y="234" width="64" height="16" fill="#160F09" /><rect x="410" y="234" width="32" height="16" fill="#160F09" /><rect x="58" y="250" width="64" height="16" fill="#160F09" /><rect x="138" y="250" width="32" height="16" fill="#160F09" /><rect x="186" y="250" width="112" height="16" fill="#160F09" /><rect x="410" y="250" width="32" height="16" fill="#160F09" /><rect x="58" y="266" width="64" height="16" fill="#160F09" /><rect x="138" y="266" width="16" height="16" fill="#160F09" /><rect x="186" y="266" width="112" height="16" fill="#160F09" /><rect x="314" y="266" width="32" height="16" fill="#160F09" /><rect x="378" y="266" width="64" height="16" fill="#160F09" /><rect x="58" y="282" width="64" height="16" fill="#160F09" /><rect x="138" y="282" width="32" height="16" fill="#160F09" /><rect x="218" y="282" width="64" height="16" fill="#160F09" /><rect x="314" y="282" width="16" height="16" fill="#160F09" /><rect x="378" y="282" width="64" height="16" fill="#160F09" /><rect x="58" y="298" width="64" height="16" fill="#160F09" /><rect x="154" y="298" width="48" height="16" fill="#160F09" /><rect x="218" y="298" width="64" height="16" fill="#160F09" /><rect x="298" y="298" width="16" height="16" fill="#160F09" /><rect x="346" y="298" width="16" height="16" fill="#160F09" /><rect x="378" y="298" width="32" height="16" fill="#160F09" /><rect x="58" y="314" width="80" height="16" fill="#160F09" /><rect x="154" y="314" width="48" height="16" fill="#160F09" /><rect x="234" y="314" width="48" height="16" fill="#160F09" /><rect x="378" y="314" width="32" height="16" fill="#160F09" /><rect x="58" y="330" width="64" height="16" fill="#160F09" /><rect x="154" y="330" width="48" height="16" fill="#160F09" /><rect x="218" y="330" width="80" height="16" fill="#160F09" /><rect x="362" y="330" width="16" height="16" fill="#160F09" /><rect x="394" y="330" width="16" height="16" fill="#160F09" /><rect x="58" y="346" width="64" height="16" fill="#160F09" /><rect x="170" y="346" width="32" height="16" fill="#160F09" /><rect x="234" y="346" width="64" height="16" fill="#160F09" /><rect x="314" y="346" width="16" height="16" fill="#160F09" /><rect x="362" y="346" width="16" height="16" fill="#160F09" /><rect x="394" y="346" width="16" height="16" fill="#160F09" /><rect x="426" y="346" width="16" height="16" fill="#160F09" /><rect x="58" y="362" width="96" height="16" fill="#160F09" /><rect x="170" y="362" width="48" height="16" fill="#160F09" /><rect x="234" y="362" width="32" height="16" fill="#160F09" /><rect x="282" y="362" width="16" height="16" fill="#160F09" /><rect x="314" y="362" width="16" height="16" fill="#160F09" /><rect x="346" y="362" width="32" height="16" fill="#160F09" /><rect x="58" y="378" width="96" height="16" fill="#160F09" /><rect x="186" y="378" width="16" height="16" fill="#160F09" /><rect x="234" y="378" width="32" height="16" fill="#160F09" /><rect x="282" y="378" width="16" height="16" fill="#160F09" /><rect x="314" y="378" width="16" height="16" fill="#160F09" /><rect x="410" y="378" width="32" height="16" fill="#160F09" /><rect x="58" y="394" width="96" height="16" fill="#160F09" /><rect x="186" y="394" width="16" height="16" fill="#160F09" /><rect x="218" y="394" width="48" height="16" fill="#160F09" /><rect x="362" y="394" width="16" height="16" fill="#160F09" /><rect x="410" y="394" width="32" height="16" fill="#160F09" /><rect x="58" y="410" width="96" height="16" fill="#160F09" /><rect x="234" y="410" width="32" height="16" fill="#160F09" /><rect x="298" y="410" width="16" height="16" fill="#160F09" /><rect x="426" y="410" width="16" height="16" fill="#160F09" /><rect x="58" y="426" width="0" height="16" fill="#160F09" /><rect x="106" y="426" width="48" height="16" fill="#160F09" /><rect x="170" y="426" width="48" height="16" fill="#160F09" /><rect x="234" y="426" width="32" height="16" fill="#160F09" /><rect x="298" y="426" width="32" height="16" fill="#160F09" /><rect x="394" y="426" width="16" height="16" fill="#160F09" /><rect x="426" y="426" width="16" height="16" fill="#160F09" /><rect x="378" y="426" width="16" height="16" fill="#FAAA00" /><rect x="362" y="378" width="16" height="16" fill="#FAAA00" /><rect x="330" y="346" width="16" height="16" fill="#FAAA00" /><rect x="314" y="314" width="16" height="16" fill="#00A29D" /><rect x="122" y="266" width="16" height="16" fill="#FAAA00" /><rect x="394" y="234" width="16" height="16" fill="#00A29D" /><rect x="298" y="202" width="16" height="16" fill="#FAAA00" /></svg>