<svg xmlns="http://www.w3.org/2000/svg" preserveAspectRatio="xMinYMin meet" viewBox="0 0 500 500" shape-rendering="crispEdges" transform-origin="center"><rect width="100%" height="100%" fill="#36230F" /><g transform="scale (5 5)"><rect x="20" y="-1" width="60" height="9" stroke-width="0.3" stroke="black" fill="#FFA800" /><text x="50" y="5.5" width="51" font-family="monospace" font-size="5" text-anchor="middle">Abyssal Waterfall</text></g><rect x="54" y="54" width="391" height="17" fill="#744936" /><rect x="54" y="71" width="391" height="17" fill="#744936" /><rect x="54" y="88" width="391" height="17" fill="#744936" /><rect x="54" y="105" width="34" height="17" fill="#744936" /><rect x="139" y="105" width="306" height="17" fill="#744936" /><rect x="54" y="122" width="34" height="17" fill="#744936" /><rect x="190" y="122" width="255" height="17" fill="#744936" /><rect x="54" y="139" width="34" height="17" fill="#744936" /><rect x="156" y="139" width="17" height="17" fill="#744936" /><rect x="190" y="139" width="255" height="17" fill="#744936" /><rect x="54" y="156" width="34" height="17" fill="#744936" /><rect x="156" y="156" width="17" height="17" fill="#744936" /><rect x="241" y="156" width="204" height="17" fill="#744936" /><rect x="54" y="173" width="34" height="17" fill="#744936" /><rect x="241" y="173" width="136" height="17" fill="#744936" /><rect x="411" y="173" width="34" height="17" fill="#744936" /><rect x="54" y="190" width="34" height="17" fill="#744936" /><rect x="156" y="190" width="17" height="17" fill="#744936" /><rect x="241" y="190" width="136" height="17" fill="#744936" /><rect x="411" y="190" width="34" height="17" fill="#744936" /><rect x="54" y="207" width="34" height="17" fill="#744936" /><rect x="139" y="207" width="34" height="17" fill="#744936" /><rect x="411" y="207" width="34" height="17" fill="#744936" /><rect x="54" y="224" width="17" height="17" fill="#744936" /><rect x="207" y="224" width="170" height="17" fill="#744936" /><rect x="411" y="224" width="34" height="17" fill="#744936" /><rect x="54" y="241" width="17" height="17" fill="#744936" /><rect x="224" y="241" width="170" height="17" fill="#744936" /><rect x="411" y="241" width="34" height="17" fill="#744936" /><rect x="54" y="258" width="17" height="17" fill="#744936" /><rect x="224" y="258" width="170" height="17" fill="#744936" /><rect x="411" y="258" width="34" height="17" fill="#744936" /><rect x="54" y="275" width="34" height="17" fill="#744936" /><rect x="224" y="275" width="170" height="17" fill="#744936" /><rect x="411" y="275" width="34" height="17" fill="#744936" /><rect x="54" y="292" width="34" height="17" fill="#744936" /><rect x="156" y="292" width="17" height="17" fill="#744936" /><rect x="224" y="292" width="17" height="17" fill="#744936" /><rect x="343" y="292" width="51" height="17" fill="#744936" /><rect x="411" y="292" width="34" height="17" fill="#744936" /><rect x="54" y="309" width="17" height="17" fill="#744936" /><rect x="224" y="309" width="17" height="17" fill="#744936" /><rect x="343" y="309" width="34" height="17" fill="#744936" /><rect x="411" y="309" width="34" height="17" fill="#744936" /><rect x="54" y="326" width="17" height="17" fill="#744936" /><rect x="411" y="326" width="34" height="17" fill="#744936" /><rect x="54" y="343" width="17" height="17" fill="#744936" /><rect x="292" y="343" width="34" height="17" fill="#744936" /><rect x="411" y="343" width="34" height="17" fill="#744936" /><rect x="54" y="360" width="17" height="17" fill="#744936" /><rect x="394" y="360" width="51" height="17" fill="#744936" /><rect x="54" y="377" width="17" height="17" fill="#744936" /><rect x="258" y="377" width="68" height="17" fill="#744936" /><rect x="394" y="377" width="51" height="17" fill="#744936" /><rect x="54" y="394" width="17" height="17" fill="#744936" /><rect x="156" y="394" width="34" height="17" fill="#744936" /><rect x="224" y="394" width="221" height="17" fill="#744936" /><rect x="54" y="411" width="391" height="17" fill="#744936" /><rect x="54" y="428" width="391" height="17" fill="#744936" /><rect x="326" y="377" width="17" height="17" fill="#FFA800" /><rect x="88" y="343" width="17" height="17" fill="#FFA800" /><rect x="190" y="326" width="17" height="17" fill="#FFA800" /><rect x="190" y="258" width="17" height="17" fill="#FFA800" /><rect x="326" y="207" width="17" height="17" fill="#802F1A" /><rect x="190" y="156" width="17" height="17" fill="#FFA800" /></svg>