<svg xmlns="http://www.w3.org/2000/svg" preserveAspectRatio="xMinYMin meet" viewBox="0 0 500 500" shape-rendering="crispEdges" transform-origin="center"><rect width="100%" height="100%" fill="#2F590E" /><g transform="scale (5 5)"><rect x="23" y="-1" width="54" height="9" stroke-width="0.3" stroke="black" fill="#FFA800" /><text x="50" y="5.5" width="45" font-family="monospace" font-size="5" text-anchor="middle">Desolate Prison</text></g><rect x="58" y="58" width="384" height="16" fill="#A98C00" /><rect x="58" y="74" width="128" height="16" fill="#A98C00" /><rect x="218" y="74" width="224" height="16" fill="#A98C00" /><rect x="58" y="90" width="128" height="16" fill="#A98C00" /><rect x="218" y="90" width="224" height="16" fill="#A98C00" /><rect x="58" y="106" width="64" height="16" fill="#A98C00" /><rect x="170" y="106" width="16" height="16" fill="#A98C00" /><rect x="266" y="106" width="176" height="16" fill="#A98C00" /><rect x="58" y="122" width="64" height="16" fill="#A98C00" /><rect x="170" y="122" width="16" height="16" fill="#A98C00" /><rect x="218" y="122" width="32" height="16" fill="#A98C00" /><rect x="266" y="122" width="176" height="16" fill="#A98C00" /><rect x="58" y="138" width="64" height="16" fill="#A98C00" /><rect x="170" y="138" width="32" height="16" fill="#A98C00" /><rect x="218" y="138" width="32" height="16" fill="#A98C00" /><rect x="266" y="138" width="176" height="16" fill="#A98C00" /><rect x="58" y="154" width="64" height="16" fill="#A98C00" /><rect x="378" y="154" width="64" height="16" fill="#A98C00" /><rect x="58" y="170" width="64" height="16" fill="#A98C00" /><rect x="170" y="170" width="32" height="16" fill="#A98C00" /><rect x="218" y="170" width="32" height="16" fill="#A98C00" /><rect x="266" y="170" width="96" height="16" fill="#A98C00" /><rect x="378" y="170" width="64" height="16" fill="#A98C00" /><rect x="58" y="186" width="64" height="16" fill="#A98C00" /><rect x="170" y="186" width="32" height="16" fill="#A98C00" /><rect x="218" y="186" width="32" height="16" fill="#A98C00" /><rect x="266" y="186" width="96" height="16" fill="#A98C00" /><rect x="378" y="186" width="64" height="16" fill="#A98C00" /><rect x="58" y="202" width="64" height="16" fill="#A98C00" /><rect x="170" y="202" width="32" height="16" fill="#A98C00" /><rect x="218" y="202" width="32" height="16" fill="#A98C00" /><rect x="266" y="202" width="32" height="16" fill="#A98C00" /><rect x="410" y="202" width="32" height="16" fill="#A98C00" /><rect x="58" y="218" width="80" height="16" fill="#A98C00" /><rect x="218" y="218" width="32" height="16" fill="#A98C00" /><rect x="266" y="218" width="32" height="16" fill="#A98C00" /><rect x="410" y="218" width="32" height="16" fill="#A98C00" /><rect x="58" y="234" width="80" height="16" fill="#A98C00" /><rect x="218" y="234" width="32" height="16" fill="#A98C00" /><rect x="266" y="234" width="32" height="16" fill="#A98C00" /><rect x="410" y="234" width="32" height="16" fill="#A98C00" /><rect x="58" y="250" width="80" height="16" fill="#A98C00" /><rect x="218" y="250" width="32" height="16" fill="#A98C00" /><rect x="266" y="250" width="80" height="16" fill="#A98C00" /><rect x="378" y="250" width="64" height="16" fill="#A98C00" /><rect x="58" y="266" width="16" height="16" fill="#A98C00" /><rect x="218" y="266" width="32" height="16" fill="#A98C00" /><rect x="266" y="266" width="80" height="16" fill="#A98C00" /><rect x="378" y="266" width="64" height="16" fill="#A98C00" /><rect x="58" y="282" width="16" height="16" fill="#A98C00" /><rect x="266" y="282" width="80" height="16" fill="#A98C00" /><rect x="378" y="282" width="64" height="16" fill="#A98C00" /><rect x="58" y="298" width="16" height="16" fill="#A98C00" /><rect x="266" y="298" width="64" height="16" fill="#A98C00" /><rect x="410" y="298" width="32" height="16" fill="#A98C00" /><rect x="58" y="314" width="16" height="16" fill="#A98C00" /><rect x="266" y="314" width="64" height="16" fill="#A98C00" /><rect x="410" y="314" width="32" height="16" fill="#A98C00" /><rect x="58" y="330" width="16" height="16" fill="#A98C00" /><rect x="266" y="330" width="64" height="16" fill="#A98C00" /><rect x="410" y="330" width="32" height="16" fill="#A98C00" /><rect x="58" y="346" width="16" height="16" fill="#A98C00" /><rect x="106" y="346" width="48" height="16" fill="#A98C00" /><rect x="282" y="346" width="48" height="16" fill="#A98C00" /><rect x="410" y="346" width="32" height="16" fill="#A98C00" /><rect x="58" y="362" width="96" height="16" fill="#A98C00" /><rect x="282" y="362" width="48" height="16" fill="#A98C00" /><rect x="410" y="362" width="32" height="16" fill="#A98C00" /><rect x="58" y="378" width="144" height="16" fill="#A98C00" /><rect x="266" y="378" width="64" height="16" fill="#A98C00" /><rect x="410" y="378" width="32" height="16" fill="#A98C00" /><rect x="58" y="394" width="384" height="16" fill="#A98C00" /><rect x="58" y="410" width="384" height="16" fill="#A98C00" /><rect x="58" y="426" width="384" height="16" fill="#A98C00" /><rect x="266" y="346" width="16" height="16" fill="#C55300" /><rect x="362" y="282" width="16" height="16" fill="#802F1A" /><rect x="170" y="266" width="16" height="16" fill="#C55300" /><rect x="202" y="250" width="16" height="16" fill="#802F1A" /></svg>