<svg xmlns="http://www.w3.org/2000/svg" preserveAspectRatio="xMinYMin meet" viewBox="0 0 500 500" shape-rendering="crispEdges" transform-origin="center"><rect width="100%" height="100%" fill="#36230F" /><g transform="scale (5 5)"><rect x="38" y="-1" width="24" height="9" stroke-width="0.3" stroke="black" fill="#FFA800" /><text x="50" y="5.5" width="15" font-family="monospace" font-size="5" text-anchor="middle">Glade</text></g><rect x="90" y="90" width="87" height="29" fill="#744936" /><rect x="206" y="90" width="203" height="29" fill="#744936" /><rect x="90" y="119" width="0" height="29" fill="#744936" /><rect x="264" y="119" width="29" height="29" fill="#744936" /><rect x="322" y="119" width="29" height="29" fill="#744936" /><rect x="380" y="119" width="29" height="29" fill="#744936" /><rect x="90" y="148" width="58" height="29" fill="#744936" /><rect x="206" y="148" width="29" height="29" fill="#744936" /><rect x="264" y="148" width="29" height="29" fill="#744936" /><rect x="322" y="148" width="29" height="29" fill="#744936" /><rect x="380" y="148" width="29" height="29" fill="#744936" /><rect x="90" y="177" width="87" height="29" fill="#744936" /><rect x="380" y="177" width="29" height="29" fill="#744936" /><rect x="90" y="206" width="116" height="29" fill="#744936" /><rect x="322" y="206" width="87" height="29" fill="#744936" /><rect x="90" y="235" width="319" height="29" fill="#744936" /><rect x="90" y="264" width="319" height="29" fill="#744936" /><rect x="90" y="293" width="319" height="29" fill="#744936" /><rect x="90" y="322" width="319" height="29" fill="#744936" /><rect x="90" y="351" width="174" height="29" fill="#744936" /><rect x="322" y="351" width="87" height="29" fill="#744936" /><rect x="90" y="380" width="116" height="29" fill="#744936" /><rect x="293" y="119" width="29" height="29" fill="#802F1A" /></svg>