<svg xmlns="http://www.w3.org/2000/svg" preserveAspectRatio="xMinYMin meet" viewBox="0 0 500 500" shape-rendering="crispEdges" transform-origin="center"><rect width="100%" height="100%" fill="#F3D899" /><g transform="scale (5 5)"><rect x="38" y="-1" width="24" height="9" stroke-width="0.3" stroke="black" fill="#FFA800" /><text x="50" y="5.5" width="15" font-family="monospace" font-size="5" text-anchor="middle">Woods</text></g><rect x="63" y="63" width="374" height="17" fill="#160F09" /><rect x="63" y="80" width="374" height="17" fill="#160F09" /><rect x="63" y="97" width="374" height="17" fill="#160F09" /><rect x="63" y="114" width="17" height="17" fill="#160F09" /><rect x="114" y="114" width="323" height="17" fill="#160F09" /><rect x="63" y="131" width="17" height="17" fill="#160F09" /><rect x="114" y="131" width="323" height="17" fill="#160F09" /><rect x="63" y="148" width="17" height="17" fill="#160F09" /><rect x="182" y="148" width="255" height="17" fill="#160F09" /><rect x="63" y="165" width="17" height="17" fill="#160F09" /><rect x="114" y="165" width="17" height="17" fill="#160F09" /><rect x="233" y="165" width="204" height="17" fill="#160F09" /><rect x="63" y="182" width="17" height="17" fill="#160F09" /><rect x="114" y="182" width="17" height="17" fill="#160F09" /><rect x="233" y="182" width="204" height="17" fill="#160F09" /><rect x="63" y="199" width="34" height="17" fill="#160F09" /><rect x="114" y="199" width="17" height="17" fill="#160F09" /><rect x="233" y="199" width="204" height="17" fill="#160F09" /><rect x="63" y="216" width="34" height="17" fill="#160F09" /><rect x="114" y="216" width="17" height="17" fill="#160F09" /><rect x="233" y="216" width="204" height="17" fill="#160F09" /><rect x="63" y="233" width="34" height="17" fill="#160F09" /><rect x="250" y="233" width="187" height="17" fill="#160F09" /><rect x="63" y="250" width="34" height="17" fill="#160F09" /><rect x="352" y="250" width="85" height="17" fill="#160F09" /><rect x="63" y="267" width="34" height="17" fill="#160F09" /><rect x="352" y="267" width="85" height="17" fill="#160F09" /><rect x="63" y="284" width="17" height="17" fill="#160F09" /><rect x="301" y="284" width="136" height="17" fill="#160F09" /><rect x="63" y="301" width="17" height="17" fill="#160F09" /><rect x="318" y="301" width="119" height="17" fill="#160F09" /><rect x="63" y="318" width="17" height="17" fill="#160F09" /><rect x="386" y="318" width="51" height="17" fill="#160F09" /><rect x="63" y="335" width="34" height="17" fill="#160F09" /><rect x="233" y="335" width="17" height="17" fill="#160F09" /><rect x="318" y="335" width="34" height="17" fill="#160F09" /><rect x="386" y="335" width="51" height="17" fill="#160F09" /><rect x="63" y="352" width="34" height="17" fill="#160F09" /><rect x="386" y="352" width="51" height="17" fill="#160F09" /><rect x="63" y="369" width="34" height="17" fill="#160F09" /><rect x="182" y="369" width="68" height="17" fill="#160F09" /><rect x="318" y="369" width="119" height="17" fill="#160F09" /><rect x="63" y="386" width="51" height="17" fill="#160F09" /><rect x="165" y="386" width="85" height="17" fill="#160F09" /><rect x="318" y="386" width="119" height="17" fill="#160F09" /><rect x="63" y="403" width="374" height="17" fill="#160F09" /><rect x="63" y="420" width="374" height="17" fill="#160F09" /><rect x="250" y="335" width="17" height="17" fill="#00A29D" /><rect x="216" y="318" width="17" height="17" fill="#00A29D" /><rect x="216" y="199" width="17" height="17" fill="#00A29D" /><rect x="131" y="165" width="17" height="17" fill="#00A29D" /><rect x="80" y="165" width="17" height="17" fill="#00A29D" /><rect x="97" y="131" width="17" height="17" fill="#00A29D" /></svg>