<svg xmlns="http://www.w3.org/2000/svg" preserveAspectRatio="xMinYMin meet" viewBox="0 0 500 500" shape-rendering="crispEdges" transform-origin="center"><rect width="100%" height="100%" fill="#006669" /><g transform="scale (5 5)"><rect x="24" y="-1" width="51" height="9" stroke-width="0.3" stroke="black" fill="#FFA800" /><text x="50" y="5.5" width="42" font-family="monospace" font-size="5" text-anchor="middle">Viper's Forest</text></g><rect x="60" y="60" width="380" height="20" fill="#004238" /><rect x="60" y="80" width="380" height="20" fill="#004238" /><rect x="60" y="100" width="380" height="20" fill="#004238" /><rect x="60" y="120" width="100" height="20" fill="#004238" /><rect x="200" y="120" width="200" height="20" fill="#004238" /><rect x="60" y="140" width="120" height="20" fill="#004238" /><rect x="200" y="140" width="200" height="20" fill="#004238" /><rect x="60" y="160" width="120" height="20" fill="#004238" /><rect x="240" y="160" width="160" height="20" fill="#004238" /><rect x="60" y="180" width="160" height="20" fill="#004238" /><rect x="240" y="180" width="60" height="20" fill="#004238" /><rect x="60" y="200" width="140" height="20" fill="#004238" /><rect x="240" y="200" width="20" height="20" fill="#004238" /><rect x="420" y="200" width="20" height="20" fill="#004238" /><rect x="60" y="220" width="140" height="20" fill="#004238" /><rect x="320" y="220" width="60" height="20" fill="#004238" /><rect x="60" y="240" width="240" height="20" fill="#004238" /><rect x="60" y="260" width="240" height="20" fill="#004238" /><rect x="320" y="260" width="20" height="20" fill="#004238" /><rect x="400" y="260" width="20" height="20" fill="#004238" /><rect x="60" y="280" width="280" height="20" fill="#004238" /><rect x="60" y="300" width="140" height="20" fill="#004238" /><rect x="280" y="300" width="60" height="20" fill="#004238" /><rect x="360" y="300" width="40" height="20" fill="#004238" /><rect x="60" y="320" width="140" height="20" fill="#004238" /><rect x="220" y="320" width="40" height="20" fill="#004238" /><rect x="280" y="320" width="40" height="20" fill="#004238" /><rect x="360" y="320" width="40" height="20" fill="#004238" /><rect x="420" y="320" width="20" height="20" fill="#004238" /><rect x="60" y="340" width="200" height="20" fill="#004238" /><rect x="280" y="340" width="40" height="20" fill="#004238" /><rect x="340" y="340" width="40" height="20" fill="#004238" /><rect x="400" y="340" width="40" height="20" fill="#004238" /><rect x="60" y="360" width="60" height="20" fill="#004238" /><rect x="200" y="360" width="60" height="20" fill="#004238" /><rect x="400" y="360" width="40" height="20" fill="#004238" /><rect x="60" y="380" width="120" height="20" fill="#004238" /><rect x="200" y="380" width="40" height="20" fill="#004238" /><rect x="60" y="400" width="120" height="20" fill="#004238" /><rect x="260" y="400" width="20" height="20" fill="#004238" /><rect x="300" y="400" width="80" height="20" fill="#004238" /><rect x="420" y="400" width="20" height="20" fill="#004238" /><rect x="60" y="420" width="140" height="20" fill="#004238" /><rect x="240" y="420" width="120" height="20" fill="#004238" /><rect x="400" y="420" width="40" height="20" fill="#004238" /><rect x="200" y="420" width="20" height="20" fill="#967E67" /><rect x="200" y="400" width="20" height="20" fill="#967E67" /><rect x="260" y="220" width="20" height="20" fill="#F9B569" /><rect x="400" y="180" width="20" height="20" fill="#967E67" /><rect x="340" y="180" width="20" height="20" fill="#967E67" /></svg>