<svg xmlns="http://www.w3.org/2000/svg" preserveAspectRatio="xMinYMin meet" viewBox="0 0 500 500" shape-rendering="crispEdges" transform-origin="center"><rect width="100%" height="100%" fill="#2F590E" /><g transform="scale (5 5)"><rect x="23" y="-1" width="54" height="9" stroke-width="0.3" stroke="black" fill="#FFA800" /><text x="50" y="5.5" width="45" font-family="monospace" font-size="5" text-anchor="middle">Shimmering Maze</text></g><rect x="61" y="61" width="378" height="18" fill="#A98C00" /><rect x="61" y="79" width="36" height="18" fill="#A98C00" /><rect x="133" y="79" width="54" height="18" fill="#A98C00" /><rect x="295" y="79" width="144" height="18" fill="#A98C00" /><rect x="61" y="97" width="36" height="18" fill="#A98C00" /><rect x="295" y="97" width="144" height="18" fill="#A98C00" /><rect x="61" y="115" width="36" height="18" fill="#A98C00" /><rect x="133" y="115" width="36" height="18" fill="#A98C00" /><rect x="295" y="115" width="36" height="18" fill="#A98C00" /><rect x="403" y="115" width="36" height="18" fill="#A98C00" /><rect x="61" y="133" width="54" height="18" fill="#A98C00" /><rect x="133" y="133" width="36" height="18" fill="#A98C00" /><rect x="403" y="133" width="36" height="18" fill="#A98C00" /><rect x="61" y="151" width="54" height="18" fill="#A98C00" /><rect x="133" y="151" width="36" height="18" fill="#A98C00" /><rect x="295" y="151" width="36" height="18" fill="#A98C00" /><rect x="403" y="151" width="36" height="18" fill="#A98C00" /><rect x="61" y="169" width="36" height="18" fill="#A98C00" /><rect x="133" y="169" width="36" height="18" fill="#A98C00" /><rect x="295" y="169" width="36" height="18" fill="#A98C00" /><rect x="403" y="169" width="36" height="18" fill="#A98C00" /><rect x="61" y="187" width="36" height="18" fill="#A98C00" /><rect x="151" y="187" width="18" height="18" fill="#A98C00" /><rect x="259" y="187" width="72" height="18" fill="#A98C00" /><rect x="403" y="187" width="36" height="18" fill="#A98C00" /><rect x="61" y="205" width="54" height="18" fill="#A98C00" /><rect x="151" y="205" width="18" height="18" fill="#A98C00" /><rect x="259" y="205" width="72" height="18" fill="#A98C00" /><rect x="349" y="205" width="18" height="18" fill="#A98C00" /><rect x="385" y="205" width="54" height="18" fill="#A98C00" /><rect x="61" y="223" width="18" height="18" fill="#A98C00" /><rect x="151" y="223" width="18" height="18" fill="#A98C00" /><rect x="259" y="223" width="72" height="18" fill="#A98C00" /><rect x="349" y="223" width="18" height="18" fill="#A98C00" /><rect x="385" y="223" width="54" height="18" fill="#A98C00" /><rect x="61" y="241" width="18" height="18" fill="#A98C00" /><rect x="259" y="241" width="72" height="18" fill="#A98C00" /><rect x="349" y="241" width="18" height="18" fill="#A98C00" /><rect x="385" y="241" width="54" height="18" fill="#A98C00" /><rect x="61" y="259" width="18" height="18" fill="#A98C00" /><rect x="259" y="259" width="72" height="18" fill="#A98C00" /><rect x="349" y="259" width="18" height="18" fill="#A98C00" /><rect x="385" y="259" width="54" height="18" fill="#A98C00" /><rect x="61" y="277" width="18" height="18" fill="#A98C00" /><rect x="259" y="277" width="72" height="18" fill="#A98C00" /><rect x="349" y="277" width="18" height="18" fill="#A98C00" /><rect x="385" y="277" width="54" height="18" fill="#A98C00" /><rect x="61" y="295" width="18" height="18" fill="#A98C00" /><rect x="277" y="295" width="54" height="18" fill="#A98C00" /><rect x="349" y="295" width="18" height="18" fill="#A98C00" /><rect x="385" y="295" width="54" height="18" fill="#A98C00" /><rect x="61" y="313" width="54" height="18" fill="#A98C00" /><rect x="277" y="313" width="54" height="18" fill="#A98C00" /><rect x="349" y="313" width="18" height="18" fill="#A98C00" /><rect x="385" y="313" width="54" height="18" fill="#A98C00" /><rect x="61" y="331" width="54" height="18" fill="#A98C00" /><rect x="277" y="331" width="54" height="18" fill="#A98C00" /><rect x="349" y="331" width="18" height="18" fill="#A98C00" /><rect x="385" y="331" width="54" height="18" fill="#A98C00" /><rect x="61" y="349" width="54" height="18" fill="#A98C00" /><rect x="259" y="349" width="18" height="18" fill="#A98C00" /><rect x="385" y="349" width="54" height="18" fill="#A98C00" /><rect x="61" y="367" width="54" height="18" fill="#A98C00" /><rect x="259" y="367" width="18" height="18" fill="#A98C00" /><rect x="385" y="367" width="54" height="18" fill="#A98C00" /><rect x="61" y="385" width="378" height="18" fill="#A98C00" /><rect x="61" y="403" width="378" height="18" fill="#A98C00" /><rect x="61" y="421" width="378" height="18" fill="#A98C00" /><rect x="295" y="349" width="18" height="18" fill="#C55300" /><rect x="97" y="115" width="18" height="18" fill="#C55300" /></svg>