<svg xmlns="http://www.w3.org/2000/svg" preserveAspectRatio="xMinYMin meet" viewBox="0 0 500 500" shape-rendering="crispEdges" transform-origin="center"><rect width="100%" height="100%" fill="#F3D899" /><g transform="scale (5 5)"><rect x="17" y="-1" width="66" height="9" stroke-width="0.3" stroke="black" fill="#FFA800" /><text x="50" y="5.5" width="57" font-family="monospace" font-size="5" text-anchor="middle">Cavern of the Golem</text></g><rect x="80" y="63" width="17" height="17" fill="#160F09" /><rect x="114" y="63" width="323" height="17" fill="#160F09" /><rect x="63" y="80" width="374" height="17" fill="#160F09" /><rect x="63" y="97" width="374" height="17" fill="#160F09" /><rect x="63" y="114" width="374" height="17" fill="#160F09" /><rect x="63" y="131" width="51" height="17" fill="#160F09" /><rect x="131" y="131" width="306" height="17" fill="#160F09" /><rect x="63" y="148" width="34" height="17" fill="#160F09" /><rect x="131" y="148" width="306" height="17" fill="#160F09" /><rect x="63" y="165" width="17" height="17" fill="#160F09" /><rect x="148" y="165" width="102" height="17" fill="#160F09" /><rect x="301" y="165" width="17" height="17" fill="#160F09" /><rect x="352" y="165" width="85" height="17" fill="#160F09" /><rect x="63" y="182" width="17" height="17" fill="#160F09" /><rect x="131" y="182" width="119" height="17" fill="#160F09" /><rect x="267" y="182" width="68" height="17" fill="#160F09" /><rect x="352" y="182" width="85" height="17" fill="#160F09" /><rect x="63" y="199" width="34" height="17" fill="#160F09" /><rect x="114" y="199" width="136" height="17" fill="#160F09" /><rect x="301" y="199" width="34" height="17" fill="#160F09" /><rect x="352" y="199" width="85" height="17" fill="#160F09" /><rect x="63" y="216" width="34" height="17" fill="#160F09" /><rect x="131" y="216" width="51" height="17" fill="#160F09" /><rect x="233" y="216" width="51" height="17" fill="#160F09" /><rect x="301" y="216" width="17" height="17" fill="#160F09" /><rect x="352" y="216" width="85" height="17" fill="#160F09" /><rect x="63" y="233" width="34" height="17" fill="#160F09" /><rect x="131" y="233" width="51" height="17" fill="#160F09" /><rect x="199" y="233" width="85" height="17" fill="#160F09" /><rect x="301" y="233" width="17" height="17" fill="#160F09" /><rect x="352" y="233" width="85" height="17" fill="#160F09" /><rect x="63" y="250" width="34" height="17" fill="#160F09" /><rect x="131" y="250" width="51" height="17" fill="#160F09" /><rect x="216" y="250" width="68" height="17" fill="#160F09" /><rect x="301" y="250" width="34" height="17" fill="#160F09" /><rect x="369" y="250" width="68" height="17" fill="#160F09" /><rect x="63" y="267" width="51" height="17" fill="#160F09" /><rect x="131" y="267" width="17" height="17" fill="#160F09" /><rect x="216" y="267" width="51" height="17" fill="#160F09" /><rect x="301" y="267" width="51" height="17" fill="#160F09" /><rect x="369" y="267" width="68" height="17" fill="#160F09" /><rect x="63" y="284" width="51" height="17" fill="#160F09" /><rect x="165" y="284" width="85" height="17" fill="#160F09" /><rect x="284" y="284" width="68" height="17" fill="#160F09" /><rect x="386" y="284" width="51" height="17" fill="#160F09" /><rect x="63" y="301" width="34" height="17" fill="#160F09" /><rect x="148" y="301" width="85" height="17" fill="#160F09" /><rect x="267" y="301" width="102" height="17" fill="#160F09" /><rect x="63" y="318" width="34" height="17" fill="#160F09" /><rect x="148" y="318" width="102" height="17" fill="#160F09" /><rect x="301" y="318" width="85" height="17" fill="#160F09" /><rect x="148" y="335" width="85" height="17" fill="#160F09" /><rect x="284" y="335" width="102" height="17" fill="#160F09" /><rect x="403" y="335" width="17" height="17" fill="#160F09" /><rect x="148" y="352" width="85" height="17" fill="#160F09" /><rect x="250" y="352" width="136" height="17" fill="#160F09" /><rect x="63" y="369" width="17" height="17" fill="#160F09" /><rect x="148" y="369" width="85" height="17" fill="#160F09" /><rect x="284" y="369" width="85" height="17" fill="#160F09" /><rect x="403" y="369" width="17" height="17" fill="#160F09" /><rect x="63" y="386" width="17" height="17" fill="#160F09" /><rect x="114" y="386" width="153" height="17" fill="#160F09" /><rect x="284" y="386" width="85" height="17" fill="#160F09" /><rect x="386" y="386" width="51" height="17" fill="#160F09" /><rect x="63" y="403" width="17" height="17" fill="#160F09" /><rect x="148" y="403" width="119" height="17" fill="#160F09" /><rect x="284" y="403" width="85" height="17" fill="#160F09" /><rect x="403" y="403" width="34" height="17" fill="#160F09" /><rect x="63" y="420" width="17" height="17" fill="#160F09" /><rect x="114" y="420" width="17" height="17" fill="#160F09" /><rect x="182" y="420" width="85" height="17" fill="#160F09" /><rect x="352" y="420" width="34" height="17" fill="#160F09" /><rect x="403" y="420" width="34" height="17" fill="#160F09" /><rect x="318" y="420" width="17" height="17" fill="#FAAA00" /><rect x="80" y="352" width="17" height="17" fill="#FAAA00" /><rect x="131" y="335" width="17" height="17" fill="#00A29D" /><rect x="386" y="301" width="17" height="17" fill="#00A29D" /><rect x="267" y="284" width="17" height="17" fill="#00A29D" /><rect x="182" y="267" width="17" height="17" fill="#00A29D" /><rect x="250" y="182" width="17" height="17" fill="#00A29D" /><rect x="267" y="165" width="17" height="17" fill="#FAAA00" /><rect x="114" y="148" width="17" height="17" fill="#00A29D" /></svg>