<svg xmlns="http://www.w3.org/2000/svg" preserveAspectRatio="xMinYMin meet" viewBox="0 0 500 500" shape-rendering="crispEdges" transform-origin="center"><rect width="100%" height="100%" fill="#F3D899" /><g transform="scale (5 5)"><rect x="23" y="-1" width="54" height="9" stroke-width="0.3" stroke="black" fill="#FFA800" /><text x="50" y="5.5" width="45" font-family="monospace" font-size="5" text-anchor="middle">Siren's Chamber</text></g><rect x="101" y="101" width="297" height="33" fill="#160F09" /><rect x="101" y="134" width="0" height="33" fill="#160F09" /><rect x="200" y="134" width="99" height="33" fill="#160F09" /><rect x="332" y="134" width="66" height="33" fill="#160F09" /><rect x="101" y="167" width="33" height="33" fill="#160F09" /><rect x="200" y="167" width="99" height="33" fill="#160F09" /><rect x="332" y="167" width="66" height="33" fill="#160F09" /><rect x="101" y="200" width="66" height="33" fill="#160F09" /><rect x="200" y="200" width="99" height="33" fill="#160F09" /><rect x="332" y="200" width="66" height="33" fill="#160F09" /><rect x="101" y="233" width="66" height="33" fill="#160F09" /><rect x="200" y="233" width="99" height="33" fill="#160F09" /><rect x="365" y="233" width="33" height="33" fill="#160F09" /><rect x="101" y="266" width="33" height="33" fill="#160F09" /><rect x="200" y="266" width="132" height="33" fill="#160F09" /><rect x="365" y="266" width="33" height="33" fill="#160F09" /><rect x="101" y="299" width="33" height="33" fill="#160F09" /><rect x="167" y="299" width="132" height="33" fill="#160F09" /><rect x="365" y="299" width="33" height="33" fill="#160F09" /><rect x="101" y="332" width="33" height="33" fill="#160F09" /><rect x="167" y="332" width="132" height="33" fill="#160F09" /><rect x="332" y="332" width="66" height="33" fill="#160F09" /><rect x="101" y="365" width="33" height="33" fill="#160F09" /><rect x="167" y="365" width="231" height="33" fill="#160F09" /><rect x="299" y="332" width="33" height="33" fill="#FAAA00" /><rect x="167" y="233" width="33" height="33" fill="#00A29D" /><rect x="134" y="134" width="33" height="33" fill="#FAAA00" /></svg>