<svg xmlns="http://www.w3.org/2000/svg" preserveAspectRatio="xMinYMin meet" viewBox="0 0 500 500" shape-rendering="crispEdges" transform-origin="center"><rect width="100%" height="100%" fill="#006669" /><g transform="scale (5 5)"><rect x="27" y="-1" width="45" height="9" stroke-width="0.3" stroke="black" fill="#FFA800" /><text x="50" y="5.5" width="36" font-family="monospace" font-size="5" text-anchor="middle">Hidden Field</text></g><rect x="75" y="75" width="350" height="25" fill="#004238" /><rect x="75" y="100" width="100" height="25" fill="#004238" /><rect x="225" y="100" width="200" height="25" fill="#004238" /><rect x="75" y="125" width="100" height="25" fill="#004238" /><rect x="225" y="125" width="75" height="25" fill="#004238" /><rect x="325" y="125" width="100" height="25" fill="#004238" /><rect x="75" y="150" width="100" height="25" fill="#004238" /><rect x="325" y="150" width="100" height="25" fill="#004238" /><rect x="75" y="175" width="75" height="25" fill="#004238" /><rect x="325" y="175" width="100" height="25" fill="#004238" /><rect x="75" y="200" width="50" height="25" fill="#004238" /><rect x="225" y="200" width="25" height="25" fill="#004238" /><rect x="325" y="200" width="100" height="25" fill="#004238" /><rect x="75" y="225" width="25" height="25" fill="#004238" /><rect x="275" y="225" width="150" height="25" fill="#004238" /><rect x="75" y="250" width="25" height="25" fill="#004238" /><rect x="175" y="250" width="25" height="25" fill="#004238" /><rect x="300" y="250" width="125" height="25" fill="#004238" /><rect x="75" y="275" width="25" height="25" fill="#004238" /><rect x="275" y="275" width="150" height="25" fill="#004238" /><rect x="75" y="300" width="0" height="25" fill="#004238" /><rect x="200" y="300" width="25" height="25" fill="#004238" /><rect x="350" y="300" width="75" height="25" fill="#004238" /><rect x="75" y="325" width="50" height="25" fill="#004238" /><rect x="150" y="325" width="75" height="25" fill="#004238" /><rect x="250" y="325" width="25" height="25" fill="#004238" /><rect x="300" y="325" width="25" height="25" fill="#004238" /><rect x="350" y="325" width="75" height="25" fill="#004238" /><rect x="75" y="350" width="50" height="25" fill="#004238" /><rect x="150" y="350" width="75" height="25" fill="#004238" /><rect x="250" y="350" width="25" height="25" fill="#004238" /><rect x="300" y="350" width="25" height="25" fill="#004238" /><rect x="350" y="350" width="75" height="25" fill="#004238" /><rect x="75" y="375" width="25" height="25" fill="#004238" /><rect x="175" y="375" width="50" height="25" fill="#004238" /><rect x="350" y="375" width="75" height="25" fill="#004238" /><rect x="75" y="400" width="25" height="25" fill="#004238" /><rect x="175" y="400" width="50" height="25" fill="#004238" /><rect x="250" y="400" width="25" height="25" fill="#004238" /><rect x="350" y="400" width="75" height="25" fill="#004238" /><rect x="175" y="275" width="25" height="25" fill="#967E67" /><rect x="175" y="225" width="25" height="25" fill="#F9B569" /><rect x="150" y="225" width="25" height="25" fill="#F9B569" /><rect x="200" y="200" width="25" height="25" fill="#F9B569" /></svg>