<svg xmlns="http://www.w3.org/2000/svg" preserveAspectRatio="xMinYMin meet" viewBox="0 0 500 500" shape-rendering="crispEdges" transform-origin="center"><rect width="100%" height="100%" fill="#36230F" /><g transform="scale (5 5)"><rect x="41" y="-1" width="18" height="9" stroke-width="0.3" stroke="black" fill="#FFA800" /><text x="50" y="5.5" width="9" font-family="monospace" font-size="5" text-anchor="middle">Den</text></g><rect x="63" y="63" width="374" height="17" fill="#744936" /><rect x="63" y="80" width="34" height="17" fill="#744936" /><rect x="182" y="80" width="255" height="17" fill="#744936" /><rect x="63" y="97" width="34" height="17" fill="#744936" /><rect x="318" y="97" width="119" height="17" fill="#744936" /><rect x="63" y="114" width="68" height="17" fill="#744936" /><rect x="148" y="114" width="153" height="17" fill="#744936" /><rect x="318" y="114" width="119" height="17" fill="#744936" /><rect x="63" y="131" width="68" height="17" fill="#744936" /><rect x="148" y="131" width="153" height="17" fill="#744936" /><rect x="318" y="131" width="119" height="17" fill="#744936" /><rect x="63" y="148" width="34" height="17" fill="#744936" /><rect x="165" y="148" width="136" height="17" fill="#744936" /><rect x="318" y="148" width="119" height="17" fill="#744936" /><rect x="63" y="165" width="34" height="17" fill="#744936" /><rect x="182" y="165" width="119" height="17" fill="#744936" /><rect x="318" y="165" width="119" height="17" fill="#744936" /><rect x="63" y="182" width="68" height="17" fill="#744936" /><rect x="148" y="182" width="17" height="17" fill="#744936" /><rect x="182" y="182" width="119" height="17" fill="#744936" /><rect x="318" y="182" width="119" height="17" fill="#744936" /><rect x="63" y="199" width="51" height="17" fill="#744936" /><rect x="216" y="199" width="85" height="17" fill="#744936" /><rect x="318" y="199" width="119" height="17" fill="#744936" /><rect x="63" y="216" width="51" height="17" fill="#744936" /><rect x="352" y="216" width="85" height="17" fill="#744936" /><rect x="63" y="233" width="51" height="17" fill="#744936" /><rect x="216" y="233" width="85" height="17" fill="#744936" /><rect x="318" y="233" width="17" height="17" fill="#744936" /><rect x="352" y="233" width="85" height="17" fill="#744936" /><rect x="63" y="250" width="51" height="17" fill="#744936" /><rect x="216" y="250" width="51" height="17" fill="#744936" /><rect x="352" y="250" width="85" height="17" fill="#744936" /><rect x="63" y="267" width="68" height="17" fill="#744936" /><rect x="352" y="267" width="85" height="17" fill="#744936" /><rect x="63" y="284" width="68" height="17" fill="#744936" /><rect x="199" y="284" width="34" height="17" fill="#744936" /><rect x="301" y="284" width="34" height="17" fill="#744936" /><rect x="352" y="284" width="85" height="17" fill="#744936" /><rect x="63" y="301" width="17" height="17" fill="#744936" /><rect x="301" y="301" width="34" height="17" fill="#744936" /><rect x="352" y="301" width="85" height="17" fill="#744936" /><rect x="63" y="318" width="17" height="17" fill="#744936" /><rect x="301" y="318" width="34" height="17" fill="#744936" /><rect x="352" y="318" width="85" height="17" fill="#744936" /><rect x="63" y="335" width="17" height="17" fill="#744936" /><rect x="301" y="335" width="17" height="17" fill="#744936" /><rect x="369" y="335" width="68" height="17" fill="#744936" /><rect x="63" y="352" width="51" height="17" fill="#744936" /><rect x="199" y="352" width="119" height="17" fill="#744936" /><rect x="369" y="352" width="68" height="17" fill="#744936" /><rect x="63" y="369" width="68" height="17" fill="#744936" /><rect x="369" y="369" width="68" height="17" fill="#744936" /><rect x="63" y="386" width="255" height="17" fill="#744936" /><rect x="369" y="386" width="68" height="17" fill="#744936" /><rect x="63" y="403" width="374" height="17" fill="#744936" /><rect x="63" y="420" width="374" height="17" fill="#744936" /><rect x="233" y="369" width="17" height="17" fill="#802F1A" /><rect x="335" y="352" width="17" height="17" fill="#FFA800" /><rect x="267" y="318" width="17" height="17" fill="#FFA800" /><rect x="335" y="233" width="17" height="17" fill="#802F1A" /></svg>