<svg xmlns="http://www.w3.org/2000/svg" preserveAspectRatio="xMinYMin meet" viewBox="0 0 500 500" shape-rendering="crispEdges" transform-origin="center"><rect width="100%" height="100%" fill="#967E67" /><g transform="scale (5 5)"><rect x="27" y="-1" width="45" height="9" stroke-width="0.3" stroke="black" fill="#FFA800" /><text x="50" y="5.5" width="36" font-family="monospace" font-size="5" text-anchor="middle">Emerald Scar</text></g><rect x="63" y="63" width="340" height="17" fill="#F3D899" /><rect x="420" y="63" width="17" height="17" fill="#F3D899" /><rect x="63" y="80" width="289" height="17" fill="#F3D899" /><rect x="369" y="80" width="17" height="17" fill="#F3D899" /><rect x="420" y="80" width="17" height="17" fill="#F3D899" /><rect x="63" y="97" width="289" height="17" fill="#F3D899" /><rect x="403" y="97" width="34" height="17" fill="#F3D899" /><rect x="63" y="114" width="323" height="17" fill="#F3D899" /><rect x="403" y="114" width="34" height="17" fill="#F3D899" /><rect x="63" y="131" width="306" height="17" fill="#F3D899" /><rect x="403" y="131" width="34" height="17" fill="#F3D899" /><rect x="63" y="148" width="306" height="17" fill="#F3D899" /><rect x="403" y="148" width="34" height="17" fill="#F3D899" /><rect x="63" y="165" width="306" height="17" fill="#F3D899" /><rect x="63" y="182" width="170" height="17" fill="#F3D899" /><rect x="250" y="182" width="119" height="17" fill="#F3D899" /><rect x="403" y="182" width="34" height="17" fill="#F3D899" /><rect x="63" y="199" width="170" height="17" fill="#F3D899" /><rect x="250" y="199" width="102" height="17" fill="#F3D899" /><rect x="386" y="199" width="51" height="17" fill="#F3D899" /><rect x="63" y="216" width="153" height="17" fill="#F3D899" /><rect x="250" y="216" width="68" height="17" fill="#F3D899" /><rect x="386" y="216" width="51" height="17" fill="#F3D899" /><rect x="63" y="233" width="136" height="17" fill="#F3D899" /><rect x="233" y="233" width="85" height="17" fill="#F3D899" /><rect x="335" y="233" width="102" height="17" fill="#F3D899" /><rect x="63" y="250" width="102" height="17" fill="#F3D899" /><rect x="216" y="250" width="85" height="17" fill="#F3D899" /><rect x="335" y="250" width="102" height="17" fill="#F3D899" /><rect x="63" y="267" width="119" height="17" fill="#F3D899" /><rect x="250" y="267" width="51" height="17" fill="#F3D899" /><rect x="318" y="267" width="102" height="17" fill="#F3D899" /><rect x="63" y="284" width="102" height="17" fill="#F3D899" /><rect x="199" y="284" width="17" height="17" fill="#F3D899" /><rect x="250" y="284" width="51" height="17" fill="#F3D899" /><rect x="352" y="284" width="85" height="17" fill="#F3D899" /><rect x="63" y="301" width="119" height="17" fill="#F3D899" /><rect x="267" y="301" width="34" height="17" fill="#F3D899" /><rect x="335" y="301" width="102" height="17" fill="#F3D899" /><rect x="63" y="318" width="119" height="17" fill="#F3D899" /><rect x="216" y="318" width="17" height="17" fill="#F3D899" /><rect x="335" y="318" width="102" height="17" fill="#F3D899" /><rect x="63" y="335" width="119" height="17" fill="#F3D899" /><rect x="216" y="335" width="51" height="17" fill="#F3D899" /><rect x="335" y="335" width="17" height="17" fill="#F3D899" /><rect x="369" y="335" width="68" height="17" fill="#F3D899" /><rect x="63" y="352" width="119" height="17" fill="#F3D899" /><rect x="369" y="352" width="34" height="17" fill="#F3D899" /><rect x="63" y="369" width="119" height="17" fill="#F3D899" /><rect x="250" y="369" width="17" height="17" fill="#F3D899" /><rect x="63" y="386" width="136" height="17" fill="#F3D899" /><rect x="233" y="386" width="51" height="17" fill="#F3D899" /><rect x="369" y="386" width="34" height="17" fill="#F3D899" /><rect x="63" y="403" width="136" height="17" fill="#F3D899" /><rect x="233" y="403" width="51" height="17" fill="#F3D899" /><rect x="301" y="403" width="17" height="17" fill="#F3D899" /><rect x="335" y="403" width="17" height="17" fill="#F3D899" /><rect x="63" y="420" width="119" height="17" fill="#F3D899" /><rect x="233" y="420" width="34" height="17" fill="#F3D899" /><rect x="301" y="420" width="17" height="17" fill="#F3D899" /><rect x="403" y="403" width="17" height="17" fill="#006669" /><rect x="403" y="386" width="17" height="17" fill="#3C2A1A" /><rect x="182" y="250" width="17" height="17" fill="#006669" /><rect x="369" y="131" width="17" height="17" fill="#3C2A1A" /><rect x="352" y="80" width="17" height="17" fill="#3C2A1A" /></svg>