<svg xmlns="http://www.w3.org/2000/svg" preserveAspectRatio="xMinYMin meet" viewBox="0 0 500 500" shape-rendering="crispEdges" transform-origin="center"><rect width="100%" height="100%" fill="#2F590E" /><g transform="scale (5 5)"><rect x="30" y="-1" width="39" height="9" stroke-width="0.3" stroke="black" fill="#FFA800" /><text x="50" y="5.5" width="30" font-family="monospace" font-size="5" text-anchor="middle">Dire Dunes</text></g><rect x="60" y="60" width="380" height="20" fill="#A98C00" /><rect x="60" y="80" width="140" height="20" fill="#A98C00" /><rect x="220" y="80" width="60" height="20" fill="#A98C00" /><rect x="300" y="80" width="40" height="20" fill="#A98C00" /><rect x="360" y="80" width="20" height="20" fill="#A98C00" /><rect x="60" y="100" width="40" height="20" fill="#A98C00" /><rect x="160" y="100" width="40" height="20" fill="#A98C00" /><rect x="220" y="100" width="120" height="20" fill="#A98C00" /><rect x="400" y="100" width="40" height="20" fill="#A98C00" /><rect x="60" y="120" width="60" height="20" fill="#A98C00" /><rect x="220" y="120" width="220" height="20" fill="#A98C00" /><rect x="60" y="140" width="60" height="20" fill="#A98C00" /><rect x="140" y="140" width="300" height="20" fill="#A98C00" /><rect x="60" y="160" width="380" height="20" fill="#A98C00" /><rect x="60" y="180" width="380" height="20" fill="#A98C00" /><rect x="60" y="200" width="320" height="20" fill="#A98C00" /><rect x="400" y="200" width="20" height="20" fill="#A98C00" /><rect x="60" y="220" width="260" height="20" fill="#A98C00" /><rect x="60" y="240" width="220" height="20" fill="#A98C00" /><rect x="340" y="240" width="20" height="20" fill="#A98C00" /><rect x="60" y="260" width="240" height="20" fill="#A98C00" /><rect x="400" y="260" width="40" height="20" fill="#A98C00" /><rect x="60" y="280" width="260" height="20" fill="#A98C00" /><rect x="360" y="280" width="80" height="20" fill="#A98C00" /><rect x="60" y="300" width="320" height="20" fill="#A98C00" /><rect x="400" y="300" width="40" height="20" fill="#A98C00" /><rect x="60" y="320" width="320" height="20" fill="#A98C00" /><rect x="60" y="340" width="320" height="20" fill="#A98C00" /><rect x="60" y="360" width="220" height="20" fill="#A98C00" /><rect x="300" y="360" width="80" height="20" fill="#A98C00" /><rect x="60" y="380" width="220" height="20" fill="#A98C00" /><rect x="320" y="380" width="120" height="20" fill="#A98C00" /><rect x="60" y="400" width="220" height="20" fill="#A98C00" /><rect x="340" y="400" width="100" height="20" fill="#A98C00" /><rect x="60" y="420" width="260" height="20" fill="#A98C00" /><rect x="360" y="420" width="80" height="20" fill="#A98C00" /><rect x="380" y="360" width="20" height="20" fill="#C55300" /><rect x="140" y="120" width="20" height="20" fill="#C55300" /></svg>