<svg xmlns="http://www.w3.org/2000/svg" preserveAspectRatio="xMinYMin meet" viewBox="0 0 500 500" shape-rendering="crispEdges" transform-origin="center"><rect width="100%" height="100%" fill="#F3D899" /><g transform="scale (5 5)"><rect x="20" y="-1" width="60" height="9" stroke-width="0.3" stroke="black" fill="#FFA800" /><text x="50" y="5.5" width="51" font-family="monospace" font-size="5" text-anchor="middle">Shrine of the Sun</text></g><rect x="54" y="54" width="102" height="17" fill="#160F09" /><rect x="173" y="54" width="272" height="17" fill="#160F09" /><rect x="54" y="71" width="102" height="17" fill="#160F09" /><rect x="258" y="71" width="119" height="17" fill="#160F09" /><rect x="54" y="88" width="136" height="17" fill="#160F09" /><rect x="258" y="88" width="34" height="17" fill="#160F09" /><rect x="54" y="105" width="102" height="17" fill="#160F09" /><rect x="207" y="105" width="34" height="17" fill="#160F09" /><rect x="258" y="105" width="17" height="17" fill="#160F09" /><rect x="343" y="105" width="102" height="17" fill="#160F09" /><rect x="54" y="122" width="102" height="17" fill="#160F09" /><rect x="173" y="122" width="68" height="17" fill="#160F09" /><rect x="343" y="122" width="51" height="17" fill="#160F09" /><rect x="411" y="122" width="34" height="17" fill="#160F09" /><rect x="54" y="139" width="136" height="17" fill="#160F09" /><rect x="309" y="139" width="17" height="17" fill="#160F09" /><rect x="343" y="139" width="51" height="17" fill="#160F09" /><rect x="54" y="156" width="136" height="17" fill="#160F09" /><rect x="207" y="156" width="85" height="17" fill="#160F09" /><rect x="309" y="156" width="17" height="17" fill="#160F09" /><rect x="411" y="156" width="17" height="17" fill="#160F09" /><rect x="54" y="173" width="102" height="17" fill="#160F09" /><rect x="241" y="173" width="204" height="17" fill="#160F09" /><rect x="54" y="190" width="102" height="17" fill="#160F09" /><rect x="207" y="190" width="17" height="17" fill="#160F09" /><rect x="241" y="190" width="204" height="17" fill="#160F09" /><rect x="54" y="207" width="119" height="17" fill="#160F09" /><rect x="190" y="207" width="34" height="17" fill="#160F09" /><rect x="241" y="207" width="204" height="17" fill="#160F09" /><rect x="54" y="224" width="170" height="17" fill="#160F09" /><rect x="292" y="224" width="153" height="17" fill="#160F09" /><rect x="54" y="241" width="221" height="17" fill="#160F09" /><rect x="411" y="241" width="17" height="17" fill="#160F09" /><rect x="54" y="258" width="340" height="17" fill="#160F09" /><rect x="54" y="275" width="170" height="17" fill="#160F09" /><rect x="241" y="275" width="153" height="17" fill="#160F09" /><rect x="54" y="292" width="170" height="17" fill="#160F09" /><rect x="275" y="292" width="85" height="17" fill="#160F09" /><rect x="394" y="292" width="17" height="17" fill="#160F09" /><rect x="428" y="292" width="17" height="17" fill="#160F09" /><rect x="54" y="309" width="204" height="17" fill="#160F09" /><rect x="343" y="309" width="17" height="17" fill="#160F09" /><rect x="54" y="326" width="272" height="17" fill="#160F09" /><rect x="343" y="326" width="85" height="17" fill="#160F09" /><rect x="54" y="343" width="272" height="17" fill="#160F09" /><rect x="377" y="343" width="51" height="17" fill="#160F09" /><rect x="54" y="360" width="289" height="17" fill="#160F09" /><rect x="411" y="360" width="34" height="17" fill="#160F09" /><rect x="54" y="377" width="238" height="17" fill="#160F09" /><rect x="54" y="394" width="204" height="17" fill="#160F09" /><rect x="275" y="394" width="17" height="17" fill="#160F09" /><rect x="309" y="394" width="17" height="17" fill="#160F09" /><rect x="394" y="394" width="17" height="17" fill="#160F09" /><rect x="54" y="411" width="153" height="17" fill="#160F09" /><rect x="309" y="411" width="51" height="17" fill="#160F09" /><rect x="428" y="411" width="17" height="17" fill="#160F09" /><rect x="54" y="428" width="357" height="17" fill="#160F09" /><rect x="326" y="343" width="17" height="17" fill="#00A29D" /><rect x="326" y="122" width="17" height="17" fill="#00A29D" /><rect x="292" y="105" width="17" height="17" fill="#FAAA00" /><rect x="394" y="88" width="17" height="17" fill="#00A29D" /><rect x="309" y="88" width="17" height="17" fill="#FAAA00" /></svg>