<svg xmlns="http://www.w3.org/2000/svg" preserveAspectRatio="xMinYMin meet" viewBox="0 0 500 500" shape-rendering="crispEdges" transform-origin="center"><rect width="100%" height="100%" fill="#967E67" /><g transform="scale (5 5)"><rect x="15" y="-1" width="69" height="9" stroke-width="0.3" stroke="black" fill="#FFA800" /><text x="50" y="5.5" width="60" font-family="monospace" font-size="5" text-anchor="middle">Cavern of Brilliance</text></g><rect x="58" y="58" width="112" height="16" fill="#F3D899" /><rect x="202" y="58" width="240" height="16" fill="#F3D899" /><rect x="58" y="74" width="352" height="16" fill="#F3D899" /><rect x="58" y="90" width="336" height="16" fill="#F3D899" /><rect x="426" y="90" width="16" height="16" fill="#F3D899" /><rect x="58" y="106" width="288" height="16" fill="#F3D899" /><rect x="362" y="106" width="32" height="16" fill="#F3D899" /><rect x="410" y="106" width="32" height="16" fill="#F3D899" /><rect x="58" y="122" width="176" height="16" fill="#F3D899" /><rect x="410" y="122" width="16" height="16" fill="#F3D899" /><rect x="58" y="138" width="112" height="16" fill="#F3D899" /><rect x="186" y="138" width="32" height="16" fill="#F3D899" /><rect x="250" y="138" width="16" height="16" fill="#F3D899" /><rect x="58" y="154" width="112" height="16" fill="#F3D899" /><rect x="186" y="154" width="32" height="16" fill="#F3D899" /><rect x="234" y="154" width="32" height="16" fill="#F3D899" /><rect x="282" y="154" width="96" height="16" fill="#F3D899" /><rect x="58" y="170" width="112" height="16" fill="#F3D899" /><rect x="186" y="170" width="32" height="16" fill="#F3D899" /><rect x="234" y="170" width="32" height="16" fill="#F3D899" /><rect x="298" y="170" width="16" height="16" fill="#F3D899" /><rect x="58" y="186" width="112" height="16" fill="#F3D899" /><rect x="298" y="186" width="16" height="16" fill="#F3D899" /><rect x="346" y="186" width="16" height="16" fill="#F3D899" /><rect x="378" y="186" width="16" height="16" fill="#F3D899" /><rect x="410" y="186" width="32" height="16" fill="#F3D899" /><rect x="58" y="202" width="128" height="16" fill="#F3D899" /><rect x="250" y="202" width="32" height="16" fill="#F3D899" /><rect x="378" y="202" width="64" height="16" fill="#F3D899" /><rect x="58" y="218" width="144" height="16" fill="#F3D899" /><rect x="234" y="218" width="64" height="16" fill="#F3D899" /><rect x="330" y="218" width="112" height="16" fill="#F3D899" /><rect x="58" y="234" width="80" height="16" fill="#F3D899" /><rect x="218" y="234" width="192" height="16" fill="#F3D899" /><rect x="58" y="250" width="80" height="16" fill="#F3D899" /><rect x="154" y="250" width="240" height="16" fill="#F3D899" /><rect x="426" y="250" width="16" height="16" fill="#F3D899" /><rect x="58" y="266" width="320" height="16" fill="#F3D899" /><rect x="426" y="266" width="16" height="16" fill="#F3D899" /><rect x="58" y="282" width="336" height="16" fill="#F3D899" /><rect x="426" y="282" width="16" height="16" fill="#F3D899" /><rect x="58" y="298" width="352" height="16" fill="#F3D899" /><rect x="58" y="314" width="384" height="16" fill="#F3D899" /><rect x="58" y="330" width="112" height="16" fill="#F3D899" /><rect x="186" y="330" width="240" height="16" fill="#F3D899" /><rect x="58" y="346" width="112" height="16" fill="#F3D899" /><rect x="202" y="346" width="112" height="16" fill="#F3D899" /><rect x="330" y="346" width="64" height="16" fill="#F3D899" /><rect x="58" y="362" width="112" height="16" fill="#F3D899" /><rect x="282" y="362" width="16" height="16" fill="#F3D899" /><rect x="410" y="362" width="32" height="16" fill="#F3D899" /><rect x="58" y="378" width="208" height="16" fill="#F3D899" /><rect x="346" y="378" width="96" height="16" fill="#F3D899" /><rect x="58" y="394" width="384" height="16" fill="#F3D899" /><rect x="58" y="410" width="304" height="16" fill="#F3D899" /><rect x="378" y="410" width="64" height="16" fill="#F3D899" /><rect x="58" y="426" width="304" height="16" fill="#F3D899" /><rect x="378" y="426" width="64" height="16" fill="#F3D899" /></svg>