<svg xmlns="http://www.w3.org/2000/svg" preserveAspectRatio="xMinYMin meet" viewBox="0 0 500 500" shape-rendering="crispEdges" transform-origin="center"><rect width="100%" height="100%" fill="#967E67" /><g transform="scale (5 5)"><rect x="26" y="-1" width="48" height="9" stroke-width="0.3" stroke="black" fill="#FFA800" /><text x="50" y="5.5" width="39" font-family="monospace" font-size="5" text-anchor="middle">Ancient Grove</text></g><rect x="61" y="61" width="378" height="18" fill="#F3D899" /><rect x="61" y="79" width="36" height="18" fill="#F3D899" /><rect x="187" y="79" width="252" height="18" fill="#F3D899" /><rect x="61" y="97" width="36" height="18" fill="#F3D899" /><rect x="187" y="97" width="252" height="18" fill="#F3D899" /><rect x="61" y="115" width="36" height="18" fill="#F3D899" /><rect x="205" y="115" width="234" height="18" fill="#F3D899" /><rect x="61" y="133" width="36" height="18" fill="#F3D899" /><rect x="205" y="133" width="234" height="18" fill="#F3D899" /><rect x="61" y="151" width="36" height="18" fill="#F3D899" /><rect x="205" y="151" width="234" height="18" fill="#F3D899" /><rect x="61" y="169" width="36" height="18" fill="#F3D899" /><rect x="115" y="169" width="36" height="18" fill="#F3D899" /><rect x="169" y="169" width="270" height="18" fill="#F3D899" /><rect x="61" y="187" width="36" height="18" fill="#F3D899" /><rect x="223" y="187" width="216" height="18" fill="#F3D899" /><rect x="61" y="205" width="18" height="18" fill="#F3D899" /><rect x="223" y="205" width="216" height="18" fill="#F3D899" /><rect x="61" y="223" width="18" height="18" fill="#F3D899" /><rect x="223" y="223" width="216" height="18" fill="#F3D899" /><rect x="61" y="241" width="18" height="18" fill="#F3D899" /><rect x="115" y="241" width="54" height="18" fill="#F3D899" /><rect x="187" y="241" width="18" height="18" fill="#F3D899" /><rect x="277" y="241" width="162" height="18" fill="#F3D899" /><rect x="61" y="259" width="18" height="18" fill="#F3D899" /><rect x="277" y="259" width="162" height="18" fill="#F3D899" /><rect x="61" y="277" width="18" height="18" fill="#F3D899" /><rect x="115" y="277" width="54" height="18" fill="#F3D899" /><rect x="187" y="277" width="18" height="18" fill="#F3D899" /><rect x="277" y="277" width="162" height="18" fill="#F3D899" /><rect x="61" y="295" width="18" height="18" fill="#F3D899" /><rect x="115" y="295" width="54" height="18" fill="#F3D899" /><rect x="187" y="295" width="18" height="18" fill="#F3D899" /><rect x="349" y="295" width="90" height="18" fill="#F3D899" /><rect x="61" y="313" width="72" height="18" fill="#F3D899" /><rect x="187" y="313" width="18" height="18" fill="#F3D899" /><rect x="277" y="313" width="36" height="18" fill="#F3D899" /><rect x="349" y="313" width="90" height="18" fill="#F3D899" /><rect x="61" y="331" width="72" height="18" fill="#F3D899" /><rect x="277" y="331" width="36" height="18" fill="#F3D899" /><rect x="349" y="331" width="90" height="18" fill="#F3D899" /><rect x="61" y="349" width="90" height="18" fill="#F3D899" /><rect x="223" y="349" width="90" height="18" fill="#F3D899" /><rect x="349" y="349" width="90" height="18" fill="#F3D899" /><rect x="61" y="367" width="378" height="18" fill="#F3D899" /><rect x="61" y="385" width="378" height="18" fill="#F3D899" /><rect x="61" y="403" width="378" height="18" fill="#F3D899" /><rect x="61" y="421" width="378" height="18" fill="#F3D899" /><rect x="151" y="331" width="18" height="18" fill="#006669" /><rect x="97" y="223" width="18" height="18" fill="#006669" /></svg>