<svg xmlns="http://www.w3.org/2000/svg" preserveAspectRatio="xMinYMin meet" viewBox="0 0 500 500" shape-rendering="crispEdges" transform-origin="center"><rect width="100%" height="100%" fill="#F3D899" /><g transform="scale (5 5)"><rect x="30" y="-1" width="39" height="9" stroke-width="0.3" stroke="black" fill="#FFA800" /><text x="50" y="5.5" width="30" font-family="monospace" font-size="5" text-anchor="middle">Necropolis</text></g><rect x="61" y="61" width="378" height="18" fill="#160F09" /><rect x="61" y="79" width="216" height="18" fill="#160F09" /><rect x="313" y="79" width="126" height="18" fill="#160F09" /><rect x="61" y="97" width="216" height="18" fill="#160F09" /><rect x="313" y="97" width="126" height="18" fill="#160F09" /><rect x="61" y="115" width="54" height="18" fill="#160F09" /><rect x="313" y="115" width="126" height="18" fill="#160F09" /><rect x="61" y="133" width="54" height="18" fill="#160F09" /><rect x="133" y="133" width="72" height="18" fill="#160F09" /><rect x="241" y="133" width="36" height="18" fill="#160F09" /><rect x="313" y="133" width="126" height="18" fill="#160F09" /><rect x="61" y="151" width="54" height="18" fill="#160F09" /><rect x="241" y="151" width="36" height="18" fill="#160F09" /><rect x="313" y="151" width="126" height="18" fill="#160F09" /><rect x="61" y="169" width="54" height="18" fill="#160F09" /><rect x="169" y="169" width="54" height="18" fill="#160F09" /><rect x="241" y="169" width="54" height="18" fill="#160F09" /><rect x="313" y="169" width="126" height="18" fill="#160F09" /><rect x="61" y="187" width="54" height="18" fill="#160F09" /><rect x="385" y="187" width="54" height="18" fill="#160F09" /><rect x="61" y="205" width="54" height="18" fill="#160F09" /><rect x="169" y="205" width="18" height="18" fill="#160F09" /><rect x="241" y="205" width="54" height="18" fill="#160F09" /><rect x="313" y="205" width="54" height="18" fill="#160F09" /><rect x="385" y="205" width="54" height="18" fill="#160F09" /><rect x="61" y="223" width="18" height="18" fill="#160F09" /><rect x="169" y="223" width="18" height="18" fill="#160F09" /><rect x="241" y="223" width="54" height="18" fill="#160F09" /><rect x="313" y="223" width="54" height="18" fill="#160F09" /><rect x="385" y="223" width="54" height="18" fill="#160F09" /><rect x="61" y="241" width="18" height="18" fill="#160F09" /><rect x="403" y="241" width="36" height="18" fill="#160F09" /><rect x="61" y="259" width="18" height="18" fill="#160F09" /><rect x="259" y="259" width="36" height="18" fill="#160F09" /><rect x="313" y="259" width="54" height="18" fill="#160F09" /><rect x="403" y="259" width="36" height="18" fill="#160F09" /><rect x="61" y="277" width="18" height="18" fill="#160F09" /><rect x="259" y="277" width="36" height="18" fill="#160F09" /><rect x="313" y="277" width="36" height="18" fill="#160F09" /><rect x="403" y="277" width="36" height="18" fill="#160F09" /><rect x="61" y="295" width="18" height="18" fill="#160F09" /><rect x="259" y="295" width="36" height="18" fill="#160F09" /><rect x="313" y="295" width="36" height="18" fill="#160F09" /><rect x="403" y="295" width="36" height="18" fill="#160F09" /><rect x="61" y="313" width="36" height="18" fill="#160F09" /><rect x="259" y="313" width="36" height="18" fill="#160F09" /><rect x="313" y="313" width="36" height="18" fill="#160F09" /><rect x="403" y="313" width="36" height="18" fill="#160F09" /><rect x="61" y="331" width="36" height="18" fill="#160F09" /><rect x="259" y="331" width="36" height="18" fill="#160F09" /><rect x="313" y="331" width="72" height="18" fill="#160F09" /><rect x="403" y="331" width="36" height="18" fill="#160F09" /><rect x="61" y="349" width="18" height="18" fill="#160F09" /><rect x="187" y="349" width="36" height="18" fill="#160F09" /><rect x="259" y="349" width="36" height="18" fill="#160F09" /><rect x="313" y="349" width="72" height="18" fill="#160F09" /><rect x="403" y="349" width="36" height="18" fill="#160F09" /><rect x="61" y="367" width="18" height="18" fill="#160F09" /><rect x="187" y="367" width="108" height="18" fill="#160F09" /><rect x="313" y="367" width="54" height="18" fill="#160F09" /><rect x="403" y="367" width="36" height="18" fill="#160F09" /><rect x="61" y="385" width="18" height="18" fill="#160F09" /><rect x="187" y="385" width="108" height="18" fill="#160F09" /><rect x="403" y="385" width="36" height="18" fill="#160F09" /><rect x="61" y="403" width="378" height="18" fill="#160F09" /><rect x="61" y="421" width="378" height="18" fill="#160F09" /><rect x="97" y="367" width="18" height="18" fill="#00A29D" /></svg>