<svg xmlns="http://www.w3.org/2000/svg" preserveAspectRatio="xMinYMin meet" viewBox="0 0 500 500" shape-rendering="crispEdges" transform-origin="center"><rect width="100%" height="100%" fill="#006669" /><g transform="scale (5 5)"><rect x="24" y="-1" width="51" height="9" stroke-width="0.3" stroke="black" fill="#FFA800" /><text x="50" y="5.5" width="42" font-family="monospace" font-size="5" text-anchor="middle">Sound of Gloom</text></g><rect x="71" y="71" width="273" height="21" fill="#004238" /><rect x="365" y="71" width="63" height="21" fill="#004238" /><rect x="71" y="92" width="273" height="21" fill="#004238" /><rect x="365" y="92" width="63" height="21" fill="#004238" /><rect x="71" y="113" width="252" height="21" fill="#004238" /><rect x="365" y="113" width="63" height="21" fill="#004238" /><rect x="71" y="134" width="273" height="21" fill="#004238" /><rect x="386" y="134" width="42" height="21" fill="#004238" /><rect x="71" y="155" width="294" height="21" fill="#004238" /><rect x="386" y="155" width="42" height="21" fill="#004238" /><rect x="71" y="176" width="294" height="21" fill="#004238" /><rect x="386" y="176" width="42" height="21" fill="#004238" /><rect x="71" y="197" width="294" height="21" fill="#004238" /><rect x="386" y="197" width="42" height="21" fill="#004238" /><rect x="71" y="218" width="294" height="21" fill="#004238" /><rect x="386" y="218" width="42" height="21" fill="#004238" /><rect x="71" y="239" width="294" height="21" fill="#004238" /><rect x="386" y="239" width="42" height="21" fill="#004238" /><rect x="71" y="260" width="147" height="21" fill="#004238" /><rect x="239" y="260" width="63" height="21" fill="#004238" /><rect x="386" y="260" width="42" height="21" fill="#004238" /><rect x="71" y="281" width="147" height="21" fill="#004238" /><rect x="239" y="281" width="84" height="21" fill="#004238" /><rect x="344" y="281" width="84" height="21" fill="#004238" /><rect x="71" y="302" width="0" height="21" fill="#004238" /><rect x="92" y="302" width="63" height="21" fill="#004238" /><rect x="176" y="302" width="42" height="21" fill="#004238" /><rect x="344" y="302" width="84" height="21" fill="#004238" /><rect x="71" y="323" width="84" height="21" fill="#004238" /><rect x="197" y="323" width="21" height="21" fill="#004238" /><rect x="260" y="323" width="42" height="21" fill="#004238" /><rect x="323" y="323" width="105" height="21" fill="#004238" /><rect x="71" y="344" width="63" height="21" fill="#004238" /><rect x="197" y="344" width="21" height="21" fill="#004238" /><rect x="260" y="344" width="42" height="21" fill="#004238" /><rect x="323" y="344" width="105" height="21" fill="#004238" /><rect x="71" y="365" width="63" height="21" fill="#004238" /><rect x="155" y="365" width="63" height="21" fill="#004238" /><rect x="260" y="365" width="42" height="21" fill="#004238" /><rect x="344" y="365" width="84" height="21" fill="#004238" /><rect x="71" y="386" width="42" height="21" fill="#004238" /><rect x="155" y="386" width="63" height="21" fill="#004238" /><rect x="260" y="386" width="42" height="21" fill="#004238" /><rect x="344" y="386" width="84" height="21" fill="#004238" /><rect x="71" y="407" width="21" height="21" fill="#004238" /><rect x="176" y="407" width="21" height="21" fill="#004238" /><rect x="260" y="407" width="42" height="21" fill="#004238" /><rect x="407" y="407" width="21" height="21" fill="#004238" /><rect x="344" y="260" width="21" height="21" fill="#967E67" /></svg>