<svg xmlns="http://www.w3.org/2000/svg" preserveAspectRatio="xMinYMin meet" viewBox="0 0 500 500" shape-rendering="crispEdges" transform-origin="center"><rect width="100%" height="100%" fill="#36230F" /><g transform="scale (5 5)"><rect x="13" y="-1" width="74" height="9" stroke-width="0.3" stroke="black" fill="#FFA800" /><text x="50" y="5.5" width="102" font-family="monospace" font-size="4" text-anchor="middle">Howling Graveyard of Sorrow</text></g><rect x="63" y="63" width="374" height="17" fill="#744936" /><rect x="63" y="80" width="374" height="17" fill="#744936" /><rect x="63" y="97" width="374" height="17" fill="#744936" /><rect x="63" y="114" width="68" height="17" fill="#744936" /><rect x="165" y="114" width="272" height="17" fill="#744936" /><rect x="63" y="131" width="68" height="17" fill="#744936" /><rect x="165" y="131" width="272" height="17" fill="#744936" /><rect x="63" y="148" width="68" height="17" fill="#744936" /><rect x="165" y="148" width="272" height="17" fill="#744936" /><rect x="63" y="165" width="68" height="17" fill="#744936" /><rect x="165" y="165" width="17" height="17" fill="#744936" /><rect x="267" y="165" width="170" height="17" fill="#744936" /><rect x="63" y="182" width="68" height="17" fill="#744936" /><rect x="165" y="182" width="17" height="17" fill="#744936" /><rect x="335" y="182" width="102" height="17" fill="#744936" /><rect x="63" y="199" width="68" height="17" fill="#744936" /><rect x="233" y="199" width="85" height="17" fill="#744936" /><rect x="335" y="199" width="102" height="17" fill="#744936" /><rect x="63" y="216" width="51" height="17" fill="#744936" /><rect x="335" y="216" width="102" height="17" fill="#744936" /><rect x="63" y="233" width="51" height="17" fill="#744936" /><rect x="267" y="233" width="17" height="17" fill="#744936" /><rect x="369" y="233" width="68" height="17" fill="#744936" /><rect x="63" y="250" width="51" height="17" fill="#744936" /><rect x="165" y="250" width="51" height="17" fill="#744936" /><rect x="267" y="250" width="17" height="17" fill="#744936" /><rect x="369" y="250" width="68" height="17" fill="#744936" /><rect x="63" y="267" width="85" height="17" fill="#744936" /><rect x="165" y="267" width="68" height="17" fill="#744936" /><rect x="267" y="267" width="17" height="17" fill="#744936" /><rect x="369" y="267" width="68" height="17" fill="#744936" /><rect x="63" y="284" width="85" height="17" fill="#744936" /><rect x="165" y="284" width="85" height="17" fill="#744936" /><rect x="267" y="284" width="51" height="17" fill="#744936" /><rect x="335" y="284" width="102" height="17" fill="#744936" /><rect x="63" y="301" width="85" height="17" fill="#744936" /><rect x="233" y="301" width="17" height="17" fill="#744936" /><rect x="267" y="301" width="51" height="17" fill="#744936" /><rect x="335" y="301" width="102" height="17" fill="#744936" /><rect x="63" y="318" width="85" height="17" fill="#744936" /><rect x="233" y="318" width="17" height="17" fill="#744936" /><rect x="267" y="318" width="51" height="17" fill="#744936" /><rect x="335" y="318" width="102" height="17" fill="#744936" /><rect x="63" y="335" width="85" height="17" fill="#744936" /><rect x="233" y="335" width="17" height="17" fill="#744936" /><rect x="369" y="335" width="68" height="17" fill="#744936" /><rect x="63" y="352" width="85" height="17" fill="#744936" /><rect x="369" y="352" width="68" height="17" fill="#744936" /><rect x="63" y="369" width="85" height="17" fill="#744936" /><rect x="369" y="369" width="68" height="17" fill="#744936" /><rect x="63" y="386" width="85" height="17" fill="#744936" /><rect x="233" y="386" width="34" height="17" fill="#744936" /><rect x="369" y="386" width="68" height="17" fill="#744936" /><rect x="63" y="403" width="374" height="17" fill="#744936" /><rect x="63" y="420" width="374" height="17" fill="#744936" /><rect x="250" y="335" width="17" height="17" fill="#802F1A" /><rect x="165" y="301" width="17" height="17" fill="#FFA800" /><rect x="199" y="233" width="17" height="17" fill="#802F1A" /><rect x="267" y="216" width="17" height="17" fill="#802F1A" /><rect x="131" y="216" width="17" height="17" fill="#FFA800" /><rect x="301" y="182" width="17" height="17" fill="#802F1A" /></svg>