<svg xmlns="http://www.w3.org/2000/svg" preserveAspectRatio="xMinYMin meet" viewBox="0 0 500 500" shape-rendering="crispEdges" transform-origin="center"><rect width="100%" height="100%" fill="#2F590E" /><g transform="scale (5 5)"><rect x="27" y="-1" width="45" height="9" stroke-width="0.3" stroke="black" fill="#FFA800" /><text x="50" y="5.5" width="36" font-family="monospace" font-size="5" text-anchor="middle">Hidden Sound</text></g><rect x="79" y="61" width="360" height="18" fill="#A98C00" /><rect x="61" y="79" width="378" height="18" fill="#A98C00" /><rect x="61" y="97" width="378" height="18" fill="#A98C00" /><rect x="61" y="115" width="378" height="18" fill="#A98C00" /><rect x="61" y="133" width="378" height="18" fill="#A98C00" /><rect x="61" y="151" width="378" height="18" fill="#A98C00" /><rect x="61" y="169" width="270" height="18" fill="#A98C00" /><rect x="349" y="169" width="18" height="18" fill="#A98C00" /><rect x="403" y="169" width="36" height="18" fill="#A98C00" /><rect x="61" y="187" width="234" height="18" fill="#A98C00" /><rect x="61" y="205" width="234" height="18" fill="#A98C00" /><rect x="349" y="205" width="72" height="18" fill="#A98C00" /><rect x="61" y="223" width="378" height="18" fill="#A98C00" /><rect x="61" y="241" width="270" height="18" fill="#A98C00" /><rect x="367" y="241" width="72" height="18" fill="#A98C00" /><rect x="61" y="259" width="252" height="18" fill="#A98C00" /><rect x="61" y="277" width="306" height="18" fill="#A98C00" /><rect x="61" y="295" width="288" height="18" fill="#A98C00" /><rect x="403" y="295" width="18" height="18" fill="#A98C00" /><rect x="61" y="313" width="144" height="18" fill="#A98C00" /><rect x="277" y="313" width="72" height="18" fill="#A98C00" /><rect x="403" y="313" width="18" height="18" fill="#A98C00" /><rect x="61" y="331" width="198" height="18" fill="#A98C00" /><rect x="313" y="331" width="36" height="18" fill="#A98C00" /><rect x="61" y="349" width="198" height="18" fill="#A98C00" /><rect x="367" y="349" width="18" height="18" fill="#A98C00" /><rect x="61" y="367" width="252" height="18" fill="#A98C00" /><rect x="349" y="367" width="54" height="18" fill="#A98C00" /><rect x="421" y="367" width="18" height="18" fill="#A98C00" /><rect x="61" y="385" width="378" height="18" fill="#A98C00" /><rect x="61" y="403" width="324" height="18" fill="#A98C00" /><rect x="403" y="403" width="36" height="18" fill="#A98C00" /><rect x="61" y="421" width="288" height="18" fill="#A98C00" /><rect x="421" y="421" width="18" height="18" fill="#C55300" /><rect x="259" y="331" width="18" height="18" fill="#C55300" /><rect x="367" y="313" width="18" height="18" fill="#802F1A" /></svg>