<svg xmlns="http://www.w3.org/2000/svg" preserveAspectRatio="xMinYMin meet" viewBox="0 0 500 500" shape-rendering="crispEdges" transform-origin="center"><rect width="100%" height="100%" fill="#F3D899" /><g transform="scale (5 5)"><rect x="35" y="-1" width="30" height="9" stroke-width="0.3" stroke="black" fill="#FFA800" /><text x="50" y="5.5" width="21" font-family="monospace" font-size="5" text-anchor="middle">Chamber</text></g><rect x="58" y="58" width="384" height="16" fill="#160F09" /><rect x="58" y="74" width="384" height="16" fill="#160F09" /><rect x="58" y="90" width="384" height="16" fill="#160F09" /><rect x="58" y="106" width="384" height="16" fill="#160F09" /><rect x="58" y="122" width="384" height="16" fill="#160F09" /><rect x="58" y="138" width="384" height="16" fill="#160F09" /><rect x="58" y="154" width="64" height="16" fill="#160F09" /><rect x="170" y="154" width="272" height="16" fill="#160F09" /><rect x="58" y="170" width="64" height="16" fill="#160F09" /><rect x="170" y="170" width="80" height="16" fill="#160F09" /><rect x="282" y="170" width="128" height="16" fill="#160F09" /><rect x="58" y="186" width="96" height="16" fill="#160F09" /><rect x="170" y="186" width="32" height="16" fill="#160F09" /><rect x="298" y="186" width="16" height="16" fill="#160F09" /><rect x="426" y="186" width="16" height="16" fill="#160F09" /><rect x="58" y="202" width="96" height="16" fill="#160F09" /><rect x="186" y="202" width="16" height="16" fill="#160F09" /><rect x="58" y="218" width="112" height="16" fill="#160F09" /><rect x="234" y="218" width="32" height="16" fill="#160F09" /><rect x="58" y="234" width="144" height="16" fill="#160F09" /><rect x="218" y="234" width="48" height="16" fill="#160F09" /><rect x="282" y="234" width="48" height="16" fill="#160F09" /><rect x="58" y="250" width="208" height="16" fill="#160F09" /><rect x="330" y="250" width="16" height="16" fill="#160F09" /><rect x="410" y="250" width="16" height="16" fill="#160F09" /><rect x="74" y="266" width="224" height="16" fill="#160F09" /><rect x="410" y="266" width="16" height="16" fill="#160F09" /><rect x="58" y="282" width="160" height="16" fill="#160F09" /><rect x="250" y="282" width="48" height="16" fill="#160F09" /><rect x="314" y="282" width="48" height="16" fill="#160F09" /><rect x="394" y="282" width="32" height="16" fill="#160F09" /><rect x="58" y="298" width="176" height="16" fill="#160F09" /><rect x="250" y="298" width="48" height="16" fill="#160F09" /><rect x="314" y="298" width="64" height="16" fill="#160F09" /><rect x="58" y="314" width="176" height="16" fill="#160F09" /><rect x="314" y="314" width="80" height="16" fill="#160F09" /><rect x="426" y="314" width="16" height="16" fill="#160F09" /><rect x="58" y="330" width="160" height="16" fill="#160F09" /><rect x="314" y="330" width="128" height="16" fill="#160F09" /><rect x="58" y="346" width="160" height="16" fill="#160F09" /><rect x="234" y="346" width="32" height="16" fill="#160F09" /><rect x="330" y="346" width="80" height="16" fill="#160F09" /><rect x="58" y="362" width="128" height="16" fill="#160F09" /><rect x="234" y="362" width="48" height="16" fill="#160F09" /><rect x="58" y="378" width="256" height="16" fill="#160F09" /><rect x="410" y="378" width="32" height="16" fill="#160F09" /><rect x="58" y="394" width="256" height="16" fill="#160F09" /><rect x="330" y="394" width="32" height="16" fill="#160F09" /><rect x="378" y="394" width="16" height="16" fill="#160F09" /><rect x="58" y="410" width="256" height="16" fill="#160F09" /><rect x="378" y="410" width="32" height="16" fill="#160F09" /><rect x="426" y="410" width="16" height="16" fill="#160F09" /><rect x="58" y="426" width="352" height="16" fill="#160F09" /><rect x="426" y="426" width="16" height="16" fill="#160F09" /><rect x="298" y="346" width="16" height="16" fill="#00A29D" /><rect x="410" y="298" width="16" height="16" fill="#FAAA00" /><rect x="298" y="250" width="16" height="16" fill="#00A29D" /><rect x="394" y="234" width="16" height="16" fill="#00A29D" /><rect x="394" y="202" width="16" height="16" fill="#00A29D" /><rect x="378" y="202" width="16" height="16" fill="#FAAA00" /><rect x="410" y="170" width="16" height="16" fill="#FAAA00" /></svg>