<svg xmlns="http://www.w3.org/2000/svg" preserveAspectRatio="xMinYMin meet" viewBox="0 0 500 500" shape-rendering="crispEdges" transform-origin="center"><rect width="100%" height="100%" fill="#340D07" /><g transform="scale (5 5)"><rect x="30" y="-1" width="39" height="9" stroke-width="0.3" stroke="black" fill="#FFA800" /><text x="50" y="5.5" width="30" font-family="monospace" font-size="5" text-anchor="middle">Necropolis</text></g><rect x="88" y="88" width="324" height="27" fill="#5D0503" /><rect x="88" y="115" width="0" height="27" fill="#5D0503" /><rect x="115" y="115" width="27" height="27" fill="#5D0503" /><rect x="250" y="115" width="162" height="27" fill="#5D0503" /><rect x="88" y="142" width="81" height="27" fill="#5D0503" /><rect x="223" y="142" width="189" height="27" fill="#5D0503" /><rect x="88" y="169" width="189" height="27" fill="#5D0503" /><rect x="304" y="169" width="27" height="27" fill="#5D0503" /><rect x="88" y="196" width="189" height="27" fill="#5D0503" /><rect x="358" y="196" width="54" height="27" fill="#5D0503" /><rect x="88" y="223" width="189" height="27" fill="#5D0503" /><rect x="88" y="250" width="81" height="27" fill="#5D0503" /><rect x="223" y="250" width="108" height="27" fill="#5D0503" /><rect x="358" y="250" width="27" height="27" fill="#5D0503" /><rect x="88" y="277" width="81" height="27" fill="#5D0503" /><rect x="250" y="277" width="135" height="27" fill="#5D0503" /><rect x="88" y="304" width="135" height="27" fill="#5D0503" /><rect x="250" y="304" width="162" height="27" fill="#5D0503" /><rect x="88" y="331" width="135" height="27" fill="#5D0503" /><rect x="88" y="358" width="324" height="27" fill="#5D0503" /><rect x="88" y="385" width="324" height="27" fill="#5D0503" /><rect x="196" y="277" width="27" height="27" fill="#B75700" /><rect x="169" y="277" width="27" height="27" fill="#B75700" /><rect x="304" y="196" width="27" height="27" fill="#B75700" /></svg>