<svg xmlns="http://www.w3.org/2000/svg" preserveAspectRatio="xMinYMin meet" viewBox="0 0 500 500" shape-rendering="crispEdges" transform-origin="center"><rect width="100%" height="100%" fill="#F3D899" /><g transform="scale (5 5)"><rect x="13" y="-1" width="74" height="9" stroke-width="0.3" stroke="black" fill="#FFA800" /><text x="50" y="5.5" width="102" font-family="monospace" font-size="4" text-anchor="middle">Emerald Dunes of the Vortex</text></g><rect x="60" y="60" width="380" height="20" fill="#160F09" /><rect x="60" y="80" width="380" height="20" fill="#160F09" /><rect x="60" y="100" width="380" height="20" fill="#160F09" /><rect x="60" y="120" width="380" height="20" fill="#160F09" /><rect x="60" y="140" width="380" height="20" fill="#160F09" /><rect x="60" y="160" width="380" height="20" fill="#160F09" /><rect x="60" y="180" width="260" height="20" fill="#160F09" /><rect x="380" y="180" width="60" height="20" fill="#160F09" /><rect x="60" y="200" width="260" height="20" fill="#160F09" /><rect x="380" y="200" width="60" height="20" fill="#160F09" /><rect x="60" y="220" width="260" height="20" fill="#160F09" /><rect x="380" y="220" width="60" height="20" fill="#160F09" /><rect x="60" y="240" width="40" height="20" fill="#160F09" /><rect x="200" y="240" width="40" height="20" fill="#160F09" /><rect x="300" y="240" width="20" height="20" fill="#160F09" /><rect x="380" y="240" width="60" height="20" fill="#160F09" /><rect x="60" y="260" width="20" height="20" fill="#160F09" /><rect x="300" y="260" width="20" height="20" fill="#160F09" /><rect x="380" y="260" width="60" height="20" fill="#160F09" /><rect x="60" y="280" width="20" height="20" fill="#160F09" /><rect x="300" y="280" width="40" height="20" fill="#160F09" /><rect x="400" y="280" width="40" height="20" fill="#160F09" /><rect x="60" y="300" width="20" height="20" fill="#160F09" /><rect x="400" y="300" width="40" height="20" fill="#160F09" /><rect x="60" y="320" width="20" height="20" fill="#160F09" /><rect x="160" y="320" width="20" height="20" fill="#160F09" /><rect x="200" y="320" width="40" height="20" fill="#160F09" /><rect x="300" y="320" width="60" height="20" fill="#160F09" /><rect x="400" y="320" width="40" height="20" fill="#160F09" /><rect x="60" y="340" width="20" height="20" fill="#160F09" /><rect x="160" y="340" width="20" height="20" fill="#160F09" /><rect x="200" y="340" width="20" height="20" fill="#160F09" /><rect x="300" y="340" width="140" height="20" fill="#160F09" /><rect x="60" y="360" width="60" height="20" fill="#160F09" /><rect x="160" y="360" width="20" height="20" fill="#160F09" /><rect x="300" y="360" width="140" height="20" fill="#160F09" /><rect x="60" y="380" width="60" height="20" fill="#160F09" /><rect x="160" y="380" width="280" height="20" fill="#160F09" /><rect x="60" y="400" width="380" height="20" fill="#160F09" /><rect x="60" y="420" width="380" height="20" fill="#160F09" /><rect x="260" y="360" width="20" height="20" fill="#00A29D" /><rect x="280" y="320" width="20" height="20" fill="#00A29D" /><rect x="320" y="260" width="20" height="20" fill="#00A29D" /><rect x="120" y="240" width="20" height="20" fill="#00A29D" /></svg>