<svg xmlns="http://www.w3.org/2000/svg" preserveAspectRatio="xMinYMin meet" viewBox="0 0 500 500" shape-rendering="crispEdges" transform-origin="center"><rect width="100%" height="100%" fill="#F3D899" /><g transform="scale (5 5)"><rect x="38" y="-1" width="24" height="9" stroke-width="0.3" stroke="black" fill="#FFA800" /><text x="50" y="5.5" width="15" font-family="monospace" font-size="5" text-anchor="middle">Halls</text></g><rect x="77" y="77" width="345" height="23" fill="#160F09" /><rect x="77" y="100" width="230" height="23" fill="#160F09" /><rect x="353" y="100" width="69" height="23" fill="#160F09" /><rect x="77" y="123" width="92" height="23" fill="#160F09" /><rect x="353" y="123" width="69" height="23" fill="#160F09" /><rect x="77" y="146" width="92" height="23" fill="#160F09" /><rect x="192" y="146" width="115" height="23" fill="#160F09" /><rect x="353" y="146" width="69" height="23" fill="#160F09" /><rect x="77" y="169" width="92" height="23" fill="#160F09" /><rect x="192" y="169" width="138" height="23" fill="#160F09" /><rect x="353" y="169" width="69" height="23" fill="#160F09" /><rect x="77" y="192" width="92" height="23" fill="#160F09" /><rect x="192" y="192" width="138" height="23" fill="#160F09" /><rect x="353" y="192" width="69" height="23" fill="#160F09" /><rect x="77" y="215" width="92" height="23" fill="#160F09" /><rect x="192" y="215" width="138" height="23" fill="#160F09" /><rect x="353" y="215" width="69" height="23" fill="#160F09" /><rect x="77" y="238" width="92" height="23" fill="#160F09" /><rect x="192" y="238" width="138" height="23" fill="#160F09" /><rect x="353" y="238" width="69" height="23" fill="#160F09" /><rect x="77" y="261" width="69" height="23" fill="#160F09" /><rect x="215" y="261" width="115" height="23" fill="#160F09" /><rect x="353" y="261" width="69" height="23" fill="#160F09" /><rect x="77" y="284" width="69" height="23" fill="#160F09" /><rect x="238" y="284" width="92" height="23" fill="#160F09" /><rect x="353" y="284" width="69" height="23" fill="#160F09" /><rect x="77" y="307" width="69" height="23" fill="#160F09" /><rect x="261" y="307" width="69" height="23" fill="#160F09" /><rect x="353" y="307" width="69" height="23" fill="#160F09" /><rect x="77" y="330" width="69" height="23" fill="#160F09" /><rect x="330" y="330" width="92" height="23" fill="#160F09" /><rect x="77" y="353" width="345" height="23" fill="#160F09" /><rect x="77" y="376" width="345" height="23" fill="#160F09" /><rect x="77" y="399" width="345" height="23" fill="#160F09" /><rect x="169" y="169" width="23" height="23" fill="#FAAA00" /></svg>