<svg xmlns="http://www.w3.org/2000/svg" preserveAspectRatio="xMinYMin meet" viewBox="0 0 500 500" shape-rendering="crispEdges" transform-origin="center"><rect width="100%" height="100%" fill="#F3D899" /><g transform="scale (5 5)"><rect x="38" y="-1" width="24" height="9" stroke-width="0.3" stroke="black" fill="#FFA800" /><text x="50" y="5.5" width="15" font-family="monospace" font-size="5" text-anchor="middle">Crypt</text></g><rect x="77" y="77" width="345" height="23" fill="#160F09" /><rect x="77" y="100" width="322" height="23" fill="#160F09" /><rect x="77" y="123" width="299" height="23" fill="#160F09" /><rect x="77" y="146" width="276" height="23" fill="#160F09" /><rect x="77" y="169" width="345" height="23" fill="#160F09" /><rect x="77" y="192" width="276" height="23" fill="#160F09" /><rect x="77" y="215" width="276" height="23" fill="#160F09" /><rect x="376" y="215" width="46" height="23" fill="#160F09" /><rect x="77" y="238" width="207" height="23" fill="#160F09" /><rect x="376" y="238" width="46" height="23" fill="#160F09" /><rect x="77" y="261" width="230" height="23" fill="#160F09" /><rect x="330" y="261" width="69" height="23" fill="#160F09" /><rect x="100" y="284" width="115" height="23" fill="#160F09" /><rect x="238" y="284" width="23" height="23" fill="#160F09" /><rect x="284" y="284" width="92" height="23" fill="#160F09" /><rect x="77" y="307" width="138" height="23" fill="#160F09" /><rect x="77" y="330" width="138" height="23" fill="#160F09" /><rect x="261" y="330" width="69" height="23" fill="#160F09" /><rect x="77" y="353" width="161" height="23" fill="#160F09" /><rect x="261" y="353" width="69" height="23" fill="#160F09" /><rect x="399" y="353" width="23" height="23" fill="#160F09" /><rect x="77" y="376" width="276" height="23" fill="#160F09" /><rect x="376" y="376" width="46" height="23" fill="#160F09" /><rect x="77" y="399" width="345" height="23" fill="#160F09" /><rect x="399" y="261" width="23" height="23" fill="#00A29D" /><rect x="376" y="146" width="23" height="23" fill="#FAAA00" /></svg>