<svg xmlns="http://www.w3.org/2000/svg" preserveAspectRatio="xMinYMin meet" viewBox="0 0 500 500" shape-rendering="crispEdges" transform-origin="center"><rect width="100%" height="100%" fill="#2F590E" /><g transform="scale (5 5)"><rect x="23" y="-1" width="54" height="9" stroke-width="0.3" stroke="black" fill="#FFA800" /><text x="50" y="5.5" width="45" font-family="monospace" font-size="5" text-anchor="middle">Heaven's Valley</text></g><rect x="77" y="77" width="345" height="23" fill="#A98C00" /><rect x="77" y="100" width="345" height="23" fill="#A98C00" /><rect x="77" y="123" width="253" height="23" fill="#A98C00" /><rect x="353" y="123" width="69" height="23" fill="#A98C00" /><rect x="77" y="146" width="253" height="23" fill="#A98C00" /><rect x="376" y="146" width="46" height="23" fill="#A98C00" /><rect x="77" y="169" width="230" height="23" fill="#A98C00" /><rect x="376" y="169" width="46" height="23" fill="#A98C00" /><rect x="77" y="192" width="253" height="23" fill="#A98C00" /><rect x="353" y="192" width="69" height="23" fill="#A98C00" /><rect x="77" y="215" width="23" height="23" fill="#A98C00" /><rect x="123" y="215" width="207" height="23" fill="#A98C00" /><rect x="353" y="215" width="69" height="23" fill="#A98C00" /><rect x="77" y="238" width="23" height="23" fill="#A98C00" /><rect x="123" y="238" width="207" height="23" fill="#A98C00" /><rect x="399" y="238" width="23" height="23" fill="#A98C00" /><rect x="77" y="261" width="23" height="23" fill="#A98C00" /><rect x="215" y="261" width="161" height="23" fill="#A98C00" /><rect x="399" y="261" width="23" height="23" fill="#A98C00" /><rect x="77" y="284" width="69" height="23" fill="#A98C00" /><rect x="215" y="284" width="161" height="23" fill="#A98C00" /><rect x="77" y="307" width="92" height="23" fill="#A98C00" /><rect x="238" y="307" width="138" height="23" fill="#A98C00" /><rect x="77" y="330" width="69" height="23" fill="#A98C00" /><rect x="192" y="330" width="23" height="23" fill="#A98C00" /><rect x="261" y="330" width="138" height="23" fill="#A98C00" /><rect x="77" y="353" width="23" height="23" fill="#A98C00" /><rect x="169" y="353" width="69" height="23" fill="#A98C00" /><rect x="261" y="353" width="138" height="23" fill="#A98C00" /><rect x="77" y="376" width="46" height="23" fill="#A98C00" /><rect x="169" y="376" width="69" height="23" fill="#A98C00" /><rect x="284" y="376" width="138" height="23" fill="#A98C00" /><rect x="77" y="399" width="23" height="23" fill="#A98C00" /><rect x="146" y="399" width="92" height="23" fill="#A98C00" /><rect x="284" y="399" width="92" height="23" fill="#A98C00" /><rect x="238" y="353" width="23" height="23" fill="#802F1A" /><rect x="146" y="261" width="23" height="23" fill="#802F1A" /></svg>