<svg xmlns="http://www.w3.org/2000/svg" preserveAspectRatio="xMinYMin meet" viewBox="0 0 500 500" shape-rendering="crispEdges" transform-origin="center"><rect width="100%" height="100%" fill="#340D07" /><g transform="scale (5 5)"><rect x="39" y="-1" width="21" height="9" stroke-width="0.3" stroke="black" fill="#FFA800" /><text x="50" y="5.5" width="12" font-family="monospace" font-size="5" text-anchor="middle">Keep</text></g><rect x="77" y="77" width="345" height="23" fill="#5D0503" /><rect x="77" y="100" width="345" height="23" fill="#5D0503" /><rect x="77" y="123" width="345" height="23" fill="#5D0503" /><rect x="77" y="146" width="345" height="23" fill="#5D0503" /><rect x="77" y="169" width="345" height="23" fill="#5D0503" /><rect x="77" y="192" width="0" height="23" fill="#5D0503" /><rect x="100" y="192" width="322" height="23" fill="#5D0503" /><rect x="77" y="215" width="0" height="23" fill="#5D0503" /><rect x="123" y="215" width="299" height="23" fill="#5D0503" /><rect x="77" y="238" width="92" height="23" fill="#5D0503" /><rect x="192" y="238" width="115" height="23" fill="#5D0503" /><rect x="330" y="238" width="92" height="23" fill="#5D0503" /><rect x="77" y="261" width="92" height="23" fill="#5D0503" /><rect x="215" y="261" width="23" height="23" fill="#5D0503" /><rect x="261" y="261" width="46" height="23" fill="#5D0503" /><rect x="330" y="261" width="92" height="23" fill="#5D0503" /><rect x="77" y="284" width="115" height="23" fill="#5D0503" /><rect x="215" y="284" width="23" height="23" fill="#5D0503" /><rect x="353" y="284" width="69" height="23" fill="#5D0503" /><rect x="77" y="307" width="115" height="23" fill="#5D0503" /><rect x="215" y="307" width="23" height="23" fill="#5D0503" /><rect x="307" y="307" width="23" height="23" fill="#5D0503" /><rect x="77" y="330" width="115" height="23" fill="#5D0503" /><rect x="307" y="330" width="92" height="23" fill="#5D0503" /><rect x="77" y="353" width="69" height="23" fill="#5D0503" /><rect x="261" y="353" width="138" height="23" fill="#5D0503" /><rect x="77" y="376" width="46" height="23" fill="#5D0503" /><rect x="169" y="376" width="46" height="23" fill="#5D0503" /><rect x="284" y="376" width="115" height="23" fill="#5D0503" /><rect x="77" y="399" width="46" height="23" fill="#5D0503" /><rect x="169" y="399" width="69" height="23" fill="#5D0503" /><rect x="284" y="399" width="115" height="23" fill="#5D0503" /><rect x="238" y="353" width="23" height="23" fill="#B75700" /><rect x="146" y="353" width="23" height="23" fill="#B75700" /><rect x="330" y="284" width="23" height="23" fill="#FF1800" /><rect x="169" y="261" width="23" height="23" fill="#FF1800" /></svg>