<svg xmlns="http://www.w3.org/2000/svg" preserveAspectRatio="xMinYMin meet" viewBox="0 0 500 500" shape-rendering="crispEdges" transform-origin="center"><rect width="100%" height="100%" fill="#36230F" /><g transform="scale (5 5)"><rect x="38" y="-1" width="24" height="9" stroke-width="0.3" stroke="black" fill="#FFA800" /><text x="50" y="5.5" width="15" font-family="monospace" font-size="5" text-anchor="middle">Glade</text></g><rect x="81" y="81" width="338" height="26" fill="#744936" /><rect x="81" y="107" width="286" height="26" fill="#744936" /><rect x="81" y="133" width="104" height="26" fill="#744936" /><rect x="237" y="133" width="130" height="26" fill="#744936" /><rect x="81" y="159" width="130" height="26" fill="#744936" /><rect x="263" y="159" width="104" height="26" fill="#744936" /><rect x="81" y="185" width="156" height="26" fill="#744936" /><rect x="263" y="185" width="104" height="26" fill="#744936" /><rect x="81" y="211" width="156" height="26" fill="#744936" /><rect x="263" y="211" width="104" height="26" fill="#744936" /><rect x="81" y="237" width="156" height="26" fill="#744936" /><rect x="263" y="237" width="104" height="26" fill="#744936" /><rect x="81" y="263" width="156" height="26" fill="#744936" /><rect x="263" y="263" width="104" height="26" fill="#744936" /><rect x="393" y="263" width="26" height="26" fill="#744936" /><rect x="81" y="289" width="156" height="26" fill="#744936" /><rect x="315" y="289" width="52" height="26" fill="#744936" /><rect x="393" y="289" width="26" height="26" fill="#744936" /><rect x="81" y="315" width="78" height="26" fill="#744936" /><rect x="185" y="315" width="104" height="26" fill="#744936" /><rect x="393" y="315" width="26" height="26" fill="#744936" /><rect x="81" y="341" width="78" height="26" fill="#744936" /><rect x="211" y="341" width="130" height="26" fill="#744936" /><rect x="393" y="341" width="26" height="26" fill="#744936" /><rect x="81" y="367" width="52" height="26" fill="#744936" /><rect x="185" y="367" width="182" height="26" fill="#744936" /><rect x="81" y="393" width="52" height="26" fill="#744936" /><rect x="185" y="393" width="156" height="26" fill="#744936" /><rect x="367" y="367" width="26" height="26" fill="#802F1A" /><rect x="237" y="185" width="26" height="26" fill="#802F1A" /><rect x="367" y="107" width="26" height="26" fill="#802F1A" /></svg>