<svg xmlns="http://www.w3.org/2000/svg" preserveAspectRatio="xMinYMin meet" viewBox="0 0 500 500" shape-rendering="crispEdges" transform-origin="center"><rect width="100%" height="100%" fill="#2F590E" /><g transform="scale (5 5)"><rect x="27" y="-1" width="45" height="9" stroke-width="0.3" stroke="black" fill="#FFA800" /><text x="50" y="5.5" width="36" font-family="monospace" font-size="5" text-anchor="middle">Bleak Cavern</text></g><rect x="74" y="74" width="44" height="22" fill="#A98C00" /><rect x="140" y="74" width="286" height="22" fill="#A98C00" /><rect x="74" y="96" width="44" height="22" fill="#A98C00" /><rect x="140" y="96" width="286" height="22" fill="#A98C00" /><rect x="74" y="118" width="22" height="22" fill="#A98C00" /><rect x="140" y="118" width="286" height="22" fill="#A98C00" /><rect x="74" y="140" width="176" height="22" fill="#A98C00" /><rect x="272" y="140" width="154" height="22" fill="#A98C00" /><rect x="74" y="162" width="176" height="22" fill="#A98C00" /><rect x="272" y="162" width="22" height="22" fill="#A98C00" /><rect x="338" y="162" width="88" height="22" fill="#A98C00" /><rect x="74" y="184" width="22" height="22" fill="#A98C00" /><rect x="118" y="184" width="132" height="22" fill="#A98C00" /><rect x="294" y="184" width="22" height="22" fill="#A98C00" /><rect x="338" y="184" width="88" height="22" fill="#A98C00" /><rect x="74" y="206" width="22" height="22" fill="#A98C00" /><rect x="118" y="206" width="154" height="22" fill="#A98C00" /><rect x="294" y="206" width="22" height="22" fill="#A98C00" /><rect x="360" y="206" width="66" height="22" fill="#A98C00" /><rect x="74" y="228" width="22" height="22" fill="#A98C00" /><rect x="118" y="228" width="132" height="22" fill="#A98C00" /><rect x="294" y="228" width="22" height="22" fill="#A98C00" /><rect x="360" y="228" width="66" height="22" fill="#A98C00" /><rect x="74" y="250" width="22" height="22" fill="#A98C00" /><rect x="118" y="250" width="110" height="22" fill="#A98C00" /><rect x="360" y="250" width="66" height="22" fill="#A98C00" /><rect x="74" y="272" width="22" height="22" fill="#A98C00" /><rect x="118" y="272" width="110" height="22" fill="#A98C00" /><rect x="272" y="272" width="22" height="22" fill="#A98C00" /><rect x="360" y="272" width="66" height="22" fill="#A98C00" /><rect x="74" y="294" width="154" height="22" fill="#A98C00" /><rect x="338" y="294" width="88" height="22" fill="#A98C00" /><rect x="74" y="316" width="154" height="22" fill="#A98C00" /><rect x="316" y="316" width="110" height="22" fill="#A98C00" /><rect x="74" y="338" width="154" height="22" fill="#A98C00" /><rect x="360" y="338" width="66" height="22" fill="#A98C00" /><rect x="74" y="360" width="154" height="22" fill="#A98C00" /><rect x="316" y="360" width="22" height="22" fill="#A98C00" /><rect x="360" y="360" width="66" height="22" fill="#A98C00" /><rect x="74" y="382" width="110" height="22" fill="#A98C00" /><rect x="316" y="382" width="22" height="22" fill="#A98C00" /><rect x="360" y="382" width="66" height="22" fill="#A98C00" /><rect x="74" y="404" width="110" height="22" fill="#A98C00" /><rect x="206" y="404" width="22" height="22" fill="#A98C00" /><rect x="360" y="404" width="66" height="22" fill="#A98C00" /><rect x="250" y="382" width="22" height="22" fill="#802F1A" /><rect x="206" y="382" width="22" height="22" fill="#802F1A" /><rect x="228" y="250" width="22" height="22" fill="#802F1A" /><rect x="96" y="250" width="22" height="22" fill="#802F1A" /><rect x="272" y="228" width="22" height="22" fill="#802F1A" /><rect x="250" y="228" width="22" height="22" fill="#802F1A" /><rect x="250" y="140" width="22" height="22" fill="#802F1A" /></svg>