<svg xmlns="http://www.w3.org/2000/svg" preserveAspectRatio="xMinYMin meet" viewBox="0 0 500 500" shape-rendering="crispEdges" transform-origin="center"><rect width="100%" height="100%" fill="#2F590E" /><g transform="scale (5 5)"><rect x="8" y="-1" width="84" height="9" stroke-width="0.3" stroke="black" fill="#FFA800" /><text x="50" y="5.5" width="75" font-family="monospace" font-size="5" text-anchor="middle">Howling Keep of the Viper</text></g><rect x="63" y="63" width="374" height="17" fill="#A98C00" /><rect x="63" y="80" width="68" height="17" fill="#A98C00" /><rect x="148" y="80" width="51" height="17" fill="#A98C00" /><rect x="233" y="80" width="204" height="17" fill="#A98C00" /><rect x="63" y="97" width="68" height="17" fill="#A98C00" /><rect x="148" y="97" width="51" height="17" fill="#A98C00" /><rect x="233" y="97" width="170" height="17" fill="#A98C00" /><rect x="63" y="114" width="68" height="17" fill="#A98C00" /><rect x="148" y="114" width="51" height="17" fill="#A98C00" /><rect x="216" y="114" width="204" height="17" fill="#A98C00" /><rect x="63" y="131" width="68" height="17" fill="#A98C00" /><rect x="148" y="131" width="34" height="17" fill="#A98C00" /><rect x="216" y="131" width="204" height="17" fill="#A98C00" /><rect x="63" y="148" width="68" height="17" fill="#A98C00" /><rect x="148" y="148" width="51" height="17" fill="#A98C00" /><rect x="216" y="148" width="204" height="17" fill="#A98C00" /><rect x="63" y="165" width="34" height="17" fill="#A98C00" /><rect x="148" y="165" width="17" height="17" fill="#A98C00" /><rect x="216" y="165" width="204" height="17" fill="#A98C00" /><rect x="63" y="182" width="17" height="17" fill="#A98C00" /><rect x="114" y="182" width="17" height="17" fill="#A98C00" /><rect x="165" y="182" width="17" height="17" fill="#A98C00" /><rect x="199" y="182" width="238" height="17" fill="#A98C00" /><rect x="63" y="199" width="34" height="17" fill="#A98C00" /><rect x="114" y="199" width="34" height="17" fill="#A98C00" /><rect x="165" y="199" width="17" height="17" fill="#A98C00" /><rect x="216" y="199" width="221" height="17" fill="#A98C00" /><rect x="63" y="216" width="17" height="17" fill="#A98C00" /><rect x="114" y="216" width="34" height="17" fill="#A98C00" /><rect x="216" y="216" width="221" height="17" fill="#A98C00" /><rect x="63" y="233" width="17" height="17" fill="#A98C00" /><rect x="97" y="233" width="34" height="17" fill="#A98C00" /><rect x="199" y="233" width="238" height="17" fill="#A98C00" /><rect x="63" y="250" width="51" height="17" fill="#A98C00" /><rect x="199" y="250" width="238" height="17" fill="#A98C00" /><rect x="63" y="267" width="51" height="17" fill="#A98C00" /><rect x="199" y="267" width="238" height="17" fill="#A98C00" /><rect x="63" y="284" width="34" height="17" fill="#A98C00" /><rect x="148" y="284" width="17" height="17" fill="#A98C00" /><rect x="199" y="284" width="238" height="17" fill="#A98C00" /><rect x="63" y="301" width="34" height="17" fill="#A98C00" /><rect x="148" y="301" width="34" height="17" fill="#A98C00" /><rect x="233" y="301" width="204" height="17" fill="#A98C00" /><rect x="63" y="318" width="34" height="17" fill="#A98C00" /><rect x="199" y="318" width="17" height="17" fill="#A98C00" /><rect x="233" y="318" width="204" height="17" fill="#A98C00" /><rect x="63" y="335" width="34" height="17" fill="#A98C00" /><rect x="114" y="335" width="17" height="17" fill="#A98C00" /><rect x="233" y="335" width="204" height="17" fill="#A98C00" /><rect x="63" y="352" width="34" height="17" fill="#A98C00" /><rect x="114" y="352" width="17" height="17" fill="#A98C00" /><rect x="148" y="352" width="17" height="17" fill="#A98C00" /><rect x="233" y="352" width="204" height="17" fill="#A98C00" /><rect x="63" y="369" width="34" height="17" fill="#A98C00" /><rect x="114" y="369" width="17" height="17" fill="#A98C00" /><rect x="233" y="369" width="119" height="17" fill="#A98C00" /><rect x="386" y="369" width="51" height="17" fill="#A98C00" /><rect x="63" y="386" width="34" height="17" fill="#A98C00" /><rect x="233" y="386" width="136" height="17" fill="#A98C00" /><rect x="403" y="386" width="34" height="17" fill="#A98C00" /><rect x="63" y="403" width="34" height="17" fill="#A98C00" /><rect x="165" y="403" width="17" height="17" fill="#A98C00" /><rect x="216" y="403" width="170" height="17" fill="#A98C00" /><rect x="403" y="403" width="34" height="17" fill="#A98C00" /><rect x="63" y="420" width="0" height="17" fill="#A98C00" /><rect x="165" y="420" width="17" height="17" fill="#A98C00" /><rect x="216" y="420" width="136" height="17" fill="#A98C00" /><rect x="403" y="420" width="34" height="17" fill="#A98C00" /><rect x="97" y="420" width="17" height="17" fill="#802F1A" /><rect x="182" y="403" width="17" height="17" fill="#C55300" /><rect x="131" y="369" width="17" height="17" fill="#C55300" /><rect x="165" y="318" width="17" height="17" fill="#802F1A" /><rect x="182" y="301" width="17" height="17" fill="#C55300" /><rect x="114" y="284" width="17" height="17" fill="#802F1A" /><rect x="131" y="250" width="17" height="17" fill="#802F1A" /></svg>