<svg xmlns="http://www.w3.org/2000/svg" preserveAspectRatio="xMinYMin meet" viewBox="0 0 500 500" shape-rendering="crispEdges" transform-origin="center"><rect width="100%" height="100%" fill="#36230F" /><g transform="scale (5 5)"><rect x="29" y="-1" width="42" height="9" stroke-width="0.3" stroke="black" fill="#FFA800" /><text x="50" y="5.5" width="33" font-family="monospace" font-size="5" text-anchor="middle">Holy Sewers</text></g><rect x="61" y="61" width="378" height="18" fill="#744936" /><rect x="61" y="79" width="378" height="18" fill="#744936" /><rect x="61" y="97" width="378" height="18" fill="#744936" /><rect x="61" y="115" width="18" height="18" fill="#744936" /><rect x="169" y="115" width="270" height="18" fill="#744936" /><rect x="61" y="133" width="18" height="18" fill="#744936" /><rect x="169" y="133" width="90" height="18" fill="#744936" /><rect x="367" y="133" width="72" height="18" fill="#744936" /><rect x="61" y="151" width="18" height="18" fill="#744936" /><rect x="169" y="151" width="90" height="18" fill="#744936" /><rect x="367" y="151" width="72" height="18" fill="#744936" /><rect x="61" y="169" width="54" height="18" fill="#744936" /><rect x="133" y="169" width="18" height="18" fill="#744936" /><rect x="187" y="169" width="72" height="18" fill="#744936" /><rect x="367" y="169" width="72" height="18" fill="#744936" /><rect x="61" y="187" width="54" height="18" fill="#744936" /><rect x="133" y="187" width="18" height="18" fill="#744936" /><rect x="187" y="187" width="72" height="18" fill="#744936" /><rect x="367" y="187" width="72" height="18" fill="#744936" /><rect x="61" y="205" width="54" height="18" fill="#744936" /><rect x="133" y="205" width="18" height="18" fill="#744936" /><rect x="187" y="205" width="72" height="18" fill="#744936" /><rect x="367" y="205" width="72" height="18" fill="#744936" /><rect x="61" y="223" width="54" height="18" fill="#744936" /><rect x="133" y="223" width="18" height="18" fill="#744936" /><rect x="367" y="223" width="72" height="18" fill="#744936" /><rect x="61" y="241" width="54" height="18" fill="#744936" /><rect x="133" y="241" width="18" height="18" fill="#744936" /><rect x="187" y="241" width="126" height="18" fill="#744936" /><rect x="331" y="241" width="108" height="18" fill="#744936" /><rect x="61" y="259" width="54" height="18" fill="#744936" /><rect x="133" y="259" width="18" height="18" fill="#744936" /><rect x="187" y="259" width="126" height="18" fill="#744936" /><rect x="331" y="259" width="108" height="18" fill="#744936" /><rect x="61" y="277" width="54" height="18" fill="#744936" /><rect x="187" y="277" width="72" height="18" fill="#744936" /><rect x="367" y="277" width="72" height="18" fill="#744936" /><rect x="61" y="295" width="54" height="18" fill="#744936" /><rect x="367" y="295" width="72" height="18" fill="#744936" /><rect x="61" y="313" width="54" height="18" fill="#744936" /><rect x="133" y="313" width="36" height="18" fill="#744936" /><rect x="367" y="313" width="72" height="18" fill="#744936" /><rect x="61" y="331" width="54" height="18" fill="#744936" /><rect x="223" y="331" width="36" height="18" fill="#744936" /><rect x="367" y="331" width="72" height="18" fill="#744936" /><rect x="61" y="349" width="108" height="18" fill="#744936" /><rect x="223" y="349" width="216" height="18" fill="#744936" /><rect x="61" y="367" width="108" height="18" fill="#744936" /><rect x="223" y="367" width="216" height="18" fill="#744936" /><rect x="61" y="385" width="126" height="18" fill="#744936" /><rect x="223" y="385" width="216" height="18" fill="#744936" /><rect x="61" y="403" width="378" height="18" fill="#744936" /><rect x="61" y="421" width="378" height="18" fill="#744936" /><rect x="277" y="295" width="18" height="18" fill="#FFA800" /><rect x="259" y="277" width="18" height="18" fill="#FFA800" /><rect x="169" y="241" width="18" height="18" fill="#FFA800" /><rect x="349" y="187" width="18" height="18" fill="#FFA800" /></svg>