<svg xmlns="http://www.w3.org/2000/svg" preserveAspectRatio="xMinYMin meet" viewBox="0 0 500 500" shape-rendering="crispEdges" transform-origin="center"><rect width="100%" height="100%" fill="#006669" /><g transform="scale (5 5)"><rect x="10" y="-1" width="80" height="9" stroke-width="0.3" stroke="black" fill="#FFA800" /><text x="50" y="5.5" width="111" font-family="monospace" font-size="4" text-anchor="middle">Divine Woods of the Apocalypse</text></g><rect x="90" y="90" width="319" height="29" fill="#004238" /><rect x="90" y="119" width="58" height="29" fill="#004238" /><rect x="206" y="119" width="203" height="29" fill="#004238" /><rect x="90" y="148" width="58" height="29" fill="#004238" /><rect x="206" y="148" width="203" height="29" fill="#004238" /><rect x="90" y="177" width="87" height="29" fill="#004238" /><rect x="206" y="177" width="203" height="29" fill="#004238" /><rect x="90" y="206" width="87" height="29" fill="#004238" /><rect x="206" y="206" width="203" height="29" fill="#004238" /><rect x="90" y="235" width="58" height="29" fill="#004238" /><rect x="206" y="235" width="87" height="29" fill="#004238" /><rect x="351" y="235" width="58" height="29" fill="#004238" /><rect x="90" y="264" width="58" height="29" fill="#004238" /><rect x="351" y="264" width="58" height="29" fill="#004238" /><rect x="90" y="293" width="319" height="29" fill="#004238" /><rect x="90" y="322" width="319" height="29" fill="#004238" /><rect x="90" y="351" width="319" height="29" fill="#004238" /><rect x="90" y="380" width="319" height="29" fill="#004238" /></svg>