<svg xmlns="http://www.w3.org/2000/svg" preserveAspectRatio="xMinYMin meet" viewBox="0 0 500 500" shape-rendering="crispEdges" transform-origin="center"><rect width="100%" height="100%" fill="#F3D899" /><g transform="scale (5 5)"><rect x="14" y="-1" width="72" height="9" stroke-width="0.3" stroke="black" fill="#FFA800" /><text x="50" y="5.5" width="99" font-family="monospace" font-size="4" text-anchor="middle">Fallen Passage of the Song</text></g><rect x="58" y="58" width="224" height="16" fill="#160F09" /><rect x="298" y="58" width="144" height="16" fill="#160F09" /><rect x="58" y="74" width="208" height="16" fill="#160F09" /><rect x="298" y="74" width="144" height="16" fill="#160F09" /><rect x="58" y="90" width="208" height="16" fill="#160F09" /><rect x="298" y="90" width="144" height="16" fill="#160F09" /><rect x="58" y="106" width="16" height="16" fill="#160F09" /><rect x="122" y="106" width="96" height="16" fill="#160F09" /><rect x="234" y="106" width="48" height="16" fill="#160F09" /><rect x="298" y="106" width="144" height="16" fill="#160F09" /><rect x="58" y="122" width="16" height="16" fill="#160F09" /><rect x="90" y="122" width="112" height="16" fill="#160F09" /><rect x="234" y="122" width="48" height="16" fill="#160F09" /><rect x="298" y="122" width="144" height="16" fill="#160F09" /><rect x="58" y="138" width="16" height="16" fill="#160F09" /><rect x="106" y="138" width="112" height="16" fill="#160F09" /><rect x="298" y="138" width="32" height="16" fill="#160F09" /><rect x="346" y="138" width="96" height="16" fill="#160F09" /><rect x="58" y="154" width="160" height="16" fill="#160F09" /><rect x="250" y="154" width="48" height="16" fill="#160F09" /><rect x="346" y="154" width="96" height="16" fill="#160F09" /><rect x="58" y="170" width="160" height="16" fill="#160F09" /><rect x="250" y="170" width="64" height="16" fill="#160F09" /><rect x="330" y="170" width="112" height="16" fill="#160F09" /><rect x="58" y="186" width="144" height="16" fill="#160F09" /><rect x="282" y="186" width="32" height="16" fill="#160F09" /><rect x="330" y="186" width="32" height="16" fill="#160F09" /><rect x="410" y="186" width="32" height="16" fill="#160F09" /><rect x="58" y="202" width="144" height="16" fill="#160F09" /><rect x="218" y="202" width="48" height="16" fill="#160F09" /><rect x="330" y="202" width="48" height="16" fill="#160F09" /><rect x="394" y="202" width="48" height="16" fill="#160F09" /><rect x="58" y="218" width="32" height="16" fill="#160F09" /><rect x="106" y="218" width="96" height="16" fill="#160F09" /><rect x="234" y="218" width="32" height="16" fill="#160F09" /><rect x="282" y="218" width="16" height="16" fill="#160F09" /><rect x="330" y="218" width="48" height="16" fill="#160F09" /><rect x="394" y="218" width="48" height="16" fill="#160F09" /><rect x="58" y="234" width="32" height="16" fill="#160F09" /><rect x="106" y="234" width="80" height="16" fill="#160F09" /><rect x="202" y="234" width="16" height="16" fill="#160F09" /><rect x="282" y="234" width="32" height="16" fill="#160F09" /><rect x="330" y="234" width="48" height="16" fill="#160F09" /><rect x="410" y="234" width="32" height="16" fill="#160F09" /><rect x="58" y="250" width="16" height="16" fill="#160F09" /><rect x="346" y="250" width="48" height="16" fill="#160F09" /><rect x="426" y="250" width="16" height="16" fill="#160F09" /><rect x="58" y="266" width="64" height="16" fill="#160F09" /><rect x="202" y="266" width="32" height="16" fill="#160F09" /><rect x="266" y="266" width="64" height="16" fill="#160F09" /><rect x="346" y="266" width="64" height="16" fill="#160F09" /><rect x="426" y="266" width="16" height="16" fill="#160F09" /><rect x="58" y="282" width="32" height="16" fill="#160F09" /><rect x="202" y="282" width="32" height="16" fill="#160F09" /><rect x="250" y="282" width="80" height="16" fill="#160F09" /><rect x="346" y="282" width="48" height="16" fill="#160F09" /><rect x="58" y="298" width="32" height="16" fill="#160F09" /><rect x="186" y="298" width="16" height="16" fill="#160F09" /><rect x="266" y="298" width="16" height="16" fill="#160F09" /><rect x="314" y="298" width="16" height="16" fill="#160F09" /><rect x="346" y="298" width="96" height="16" fill="#160F09" /><rect x="58" y="314" width="32" height="16" fill="#160F09" /><rect x="106" y="314" width="16" height="16" fill="#160F09" /><rect x="186" y="314" width="16" height="16" fill="#160F09" /><rect x="218" y="314" width="80" height="16" fill="#160F09" /><rect x="314" y="314" width="16" height="16" fill="#160F09" /><rect x="346" y="314" width="96" height="16" fill="#160F09" /><rect x="58" y="330" width="32" height="16" fill="#160F09" /><rect x="106" y="330" width="32" height="16" fill="#160F09" /><rect x="186" y="330" width="16" height="16" fill="#160F09" /><rect x="218" y="330" width="80" height="16" fill="#160F09" /><rect x="346" y="330" width="96" height="16" fill="#160F09" /><rect x="58" y="346" width="32" height="16" fill="#160F09" /><rect x="122" y="346" width="16" height="16" fill="#160F09" /><rect x="218" y="346" width="112" height="16" fill="#160F09" /><rect x="362" y="346" width="80" height="16" fill="#160F09" /><rect x="58" y="362" width="16" height="16" fill="#160F09" /><rect x="170" y="362" width="16" height="16" fill="#160F09" /><rect x="218" y="362" width="64" height="16" fill="#160F09" /><rect x="346" y="362" width="96" height="16" fill="#160F09" /><rect x="58" y="378" width="64" height="16" fill="#160F09" /><rect x="202" y="378" width="80" height="16" fill="#160F09" /><rect x="298" y="378" width="16" height="16" fill="#160F09" /><rect x="346" y="378" width="96" height="16" fill="#160F09" /><rect x="58" y="394" width="64" height="16" fill="#160F09" /><rect x="218" y="394" width="64" height="16" fill="#160F09" /><rect x="298" y="394" width="32" height="16" fill="#160F09" /><rect x="346" y="394" width="96" height="16" fill="#160F09" /><rect x="58" y="410" width="64" height="16" fill="#160F09" /><rect x="218" y="410" width="48" height="16" fill="#160F09" /><rect x="314" y="410" width="16" height="16" fill="#160F09" /><rect x="362" y="410" width="80" height="16" fill="#160F09" /><rect x="58" y="426" width="64" height="16" fill="#160F09" /><rect x="138" y="426" width="32" height="16" fill="#160F09" /><rect x="202" y="426" width="64" height="16" fill="#160F09" /><rect x="282" y="426" width="64" height="16" fill="#160F09" /><rect x="362" y="426" width="80" height="16" fill="#160F09" /><rect x="170" y="426" width="16" height="16" fill="#00A29D" /><rect x="298" y="362" width="16" height="16" fill="#00A29D" /><rect x="138" y="314" width="16" height="16" fill="#00A29D" /><rect x="122" y="298" width="16" height="16" fill="#00A29D" /><rect x="362" y="186" width="16" height="16" fill="#FAAA00" /><rect x="218" y="122" width="16" height="16" fill="#FAAA00" /></svg>