<svg xmlns="http://www.w3.org/2000/svg" preserveAspectRatio="xMinYMin meet" viewBox="0 0 500 500" shape-rendering="crispEdges" transform-origin="center"><rect width="100%" height="100%" fill="#967E67" /><g transform="scale (5 5)"><rect x="32" y="-1" width="36" height="9" stroke-width="0.3" stroke="black" fill="#FFA800" /><text x="50" y="5.5" width="27" font-family="monospace" font-size="5" text-anchor="middle">Graveyard</text></g><rect x="54" y="54" width="391" height="17" fill="#F3D899" /><rect x="54" y="71" width="391" height="17" fill="#F3D899" /><rect x="54" y="88" width="391" height="17" fill="#F3D899" /><rect x="54" y="105" width="391" height="17" fill="#F3D899" /><rect x="54" y="122" width="68" height="17" fill="#F3D899" /><rect x="190" y="122" width="255" height="17" fill="#F3D899" /><rect x="54" y="139" width="68" height="17" fill="#F3D899" /><rect x="190" y="139" width="255" height="17" fill="#F3D899" /><rect x="54" y="156" width="68" height="17" fill="#F3D899" /><rect x="190" y="156" width="255" height="17" fill="#F3D899" /><rect x="54" y="173" width="68" height="17" fill="#F3D899" /><rect x="190" y="173" width="255" height="17" fill="#F3D899" /><rect x="54" y="190" width="68" height="17" fill="#F3D899" /><rect x="190" y="190" width="255" height="17" fill="#F3D899" /><rect x="54" y="207" width="102" height="17" fill="#F3D899" /><rect x="173" y="207" width="272" height="17" fill="#F3D899" /><rect x="54" y="224" width="102" height="17" fill="#F3D899" /><rect x="173" y="224" width="272" height="17" fill="#F3D899" /><rect x="54" y="241" width="68" height="17" fill="#F3D899" /><rect x="207" y="241" width="238" height="17" fill="#F3D899" /><rect x="54" y="258" width="68" height="17" fill="#F3D899" /><rect x="241" y="258" width="204" height="17" fill="#F3D899" /><rect x="54" y="275" width="68" height="17" fill="#F3D899" /><rect x="258" y="275" width="187" height="17" fill="#F3D899" /><rect x="54" y="292" width="34" height="17" fill="#F3D899" /><rect x="258" y="292" width="187" height="17" fill="#F3D899" /><rect x="54" y="309" width="34" height="17" fill="#F3D899" /><rect x="258" y="309" width="187" height="17" fill="#F3D899" /><rect x="54" y="326" width="34" height="17" fill="#F3D899" /><rect x="241" y="326" width="102" height="17" fill="#F3D899" /><rect x="394" y="326" width="51" height="17" fill="#F3D899" /><rect x="54" y="343" width="34" height="17" fill="#F3D899" /><rect x="258" y="343" width="85" height="17" fill="#F3D899" /><rect x="394" y="343" width="51" height="17" fill="#F3D899" /><rect x="54" y="360" width="34" height="17" fill="#F3D899" /><rect x="394" y="360" width="51" height="17" fill="#F3D899" /><rect x="54" y="377" width="34" height="17" fill="#F3D899" /><rect x="258" y="377" width="85" height="17" fill="#F3D899" /><rect x="394" y="377" width="51" height="17" fill="#F3D899" /><rect x="54" y="394" width="51" height="17" fill="#F3D899" /><rect x="258" y="394" width="85" height="17" fill="#F3D899" /><rect x="394" y="394" width="51" height="17" fill="#F3D899" /><rect x="54" y="411" width="391" height="17" fill="#F3D899" /><rect x="54" y="428" width="391" height="17" fill="#F3D899" /><rect x="224" y="394" width="17" height="17" fill="#006669" /><rect x="360" y="360" width="17" height="17" fill="#006669" /><rect x="275" y="360" width="17" height="17" fill="#3C2A1A" /><rect x="258" y="360" width="17" height="17" fill="#3C2A1A" /><rect x="88" y="309" width="17" height="17" fill="#006669" /></svg>