<svg xmlns="http://www.w3.org/2000/svg" preserveAspectRatio="xMinYMin meet" viewBox="0 0 500 500" shape-rendering="crispEdges" transform-origin="center"><rect width="100%" height="100%" fill="#F3D899" /><g transform="scale (5 5)"><rect x="24" y="-1" width="51" height="9" stroke-width="0.3" stroke="black" fill="#FFA800" /><text x="50" y="5.5" width="42" font-family="monospace" font-size="5" text-anchor="middle">Empyrean Oasis</text></g><rect x="61" y="61" width="216" height="18" fill="#160F09" /><rect x="295" y="61" width="144" height="18" fill="#160F09" /><rect x="61" y="79" width="36" height="18" fill="#160F09" /><rect x="133" y="79" width="72" height="18" fill="#160F09" /><rect x="241" y="79" width="18" height="18" fill="#160F09" /><rect x="295" y="79" width="72" height="18" fill="#160F09" /><rect x="385" y="79" width="54" height="18" fill="#160F09" /><rect x="61" y="97" width="18" height="18" fill="#160F09" /><rect x="115" y="97" width="108" height="18" fill="#160F09" /><rect x="241" y="97" width="18" height="18" fill="#160F09" /><rect x="295" y="97" width="72" height="18" fill="#160F09" /><rect x="385" y="97" width="54" height="18" fill="#160F09" /><rect x="61" y="115" width="18" height="18" fill="#160F09" /><rect x="97" y="115" width="126" height="18" fill="#160F09" /><rect x="241" y="115" width="18" height="18" fill="#160F09" /><rect x="277" y="115" width="90" height="18" fill="#160F09" /><rect x="403" y="115" width="36" height="18" fill="#160F09" /><rect x="61" y="133" width="126" height="18" fill="#160F09" /><rect x="241" y="133" width="18" height="18" fill="#160F09" /><rect x="313" y="133" width="72" height="18" fill="#160F09" /><rect x="403" y="133" width="36" height="18" fill="#160F09" /><rect x="61" y="151" width="90" height="18" fill="#160F09" /><rect x="223" y="151" width="72" height="18" fill="#160F09" /><rect x="331" y="151" width="36" height="18" fill="#160F09" /><rect x="421" y="151" width="18" height="18" fill="#160F09" /><rect x="61" y="169" width="90" height="18" fill="#160F09" /><rect x="169" y="169" width="126" height="18" fill="#160F09" /><rect x="313" y="169" width="54" height="18" fill="#160F09" /><rect x="403" y="169" width="36" height="18" fill="#160F09" /><rect x="61" y="187" width="72" height="18" fill="#160F09" /><rect x="169" y="187" width="126" height="18" fill="#160F09" /><rect x="313" y="187" width="72" height="18" fill="#160F09" /><rect x="403" y="187" width="36" height="18" fill="#160F09" /><rect x="61" y="205" width="54" height="18" fill="#160F09" /><rect x="169" y="205" width="126" height="18" fill="#160F09" /><rect x="313" y="205" width="72" height="18" fill="#160F09" /><rect x="403" y="205" width="36" height="18" fill="#160F09" /><rect x="61" y="223" width="54" height="18" fill="#160F09" /><rect x="133" y="223" width="162" height="18" fill="#160F09" /><rect x="313" y="223" width="72" height="18" fill="#160F09" /><rect x="403" y="223" width="36" height="18" fill="#160F09" /><rect x="61" y="241" width="18" height="18" fill="#160F09" /><rect x="97" y="241" width="18" height="18" fill="#160F09" /><rect x="133" y="241" width="162" height="18" fill="#160F09" /><rect x="349" y="241" width="18" height="18" fill="#160F09" /><rect x="403" y="241" width="36" height="18" fill="#160F09" /><rect x="61" y="259" width="0" height="18" fill="#160F09" /><rect x="97" y="259" width="18" height="18" fill="#160F09" /><rect x="169" y="259" width="162" height="18" fill="#160F09" /><rect x="385" y="259" width="54" height="18" fill="#160F09" /><rect x="61" y="277" width="90" height="18" fill="#160F09" /><rect x="169" y="277" width="162" height="18" fill="#160F09" /><rect x="367" y="277" width="72" height="18" fill="#160F09" /><rect x="61" y="295" width="18" height="18" fill="#160F09" /><rect x="97" y="295" width="216" height="18" fill="#160F09" /><rect x="349" y="295" width="90" height="18" fill="#160F09" /><rect x="61" y="313" width="18" height="18" fill="#160F09" /><rect x="97" y="313" width="198" height="18" fill="#160F09" /><rect x="331" y="313" width="108" height="18" fill="#160F09" /><rect x="61" y="331" width="18" height="18" fill="#160F09" /><rect x="115" y="331" width="324" height="18" fill="#160F09" /><rect x="61" y="349" width="36" height="18" fill="#160F09" /><rect x="169" y="349" width="270" height="18" fill="#160F09" /><rect x="61" y="367" width="36" height="18" fill="#160F09" /><rect x="169" y="367" width="270" height="18" fill="#160F09" /><rect x="61" y="385" width="0" height="18" fill="#160F09" /><rect x="115" y="385" width="324" height="18" fill="#160F09" /><rect x="61" y="403" width="18" height="18" fill="#160F09" /><rect x="115" y="403" width="270" height="18" fill="#160F09" /><rect x="61" y="421" width="378" height="18" fill="#160F09" /><rect x="385" y="403" width="18" height="18" fill="#FAAA00" /><rect x="331" y="295" width="18" height="18" fill="#00A29D" /><rect x="277" y="133" width="18" height="18" fill="#FAAA00" /><rect x="367" y="115" width="18" height="18" fill="#FAAA00" /></svg>