<svg xmlns="http://www.w3.org/2000/svg" preserveAspectRatio="xMinYMin meet" viewBox="0 0 500 500" shape-rendering="crispEdges" transform-origin="center"><rect width="100%" height="100%" fill="#F3D899" /><g transform="scale (5 5)"><rect x="30" y="-1" width="39" height="9" stroke-width="0.3" stroke="black" fill="#FFA800" /><text x="50" y="5.5" width="30" font-family="monospace" font-size="5" text-anchor="middle">Hidden Den</text></g><rect x="81" y="81" width="338" height="26" fill="#160F09" /><rect x="81" y="107" width="338" height="26" fill="#160F09" /><rect x="81" y="133" width="26" height="26" fill="#160F09" /><rect x="185" y="133" width="234" height="26" fill="#160F09" /><rect x="81" y="159" width="26" height="26" fill="#160F09" /><rect x="315" y="159" width="104" height="26" fill="#160F09" /><rect x="81" y="185" width="52" height="26" fill="#160F09" /><rect x="159" y="185" width="130" height="26" fill="#160F09" /><rect x="315" y="185" width="104" height="26" fill="#160F09" /><rect x="81" y="211" width="52" height="26" fill="#160F09" /><rect x="159" y="211" width="104" height="26" fill="#160F09" /><rect x="341" y="211" width="78" height="26" fill="#160F09" /><rect x="81" y="237" width="52" height="26" fill="#160F09" /><rect x="159" y="237" width="104" height="26" fill="#160F09" /><rect x="341" y="237" width="78" height="26" fill="#160F09" /><rect x="81" y="263" width="52" height="26" fill="#160F09" /><rect x="159" y="263" width="104" height="26" fill="#160F09" /><rect x="341" y="263" width="78" height="26" fill="#160F09" /><rect x="81" y="289" width="52" height="26" fill="#160F09" /><rect x="211" y="289" width="78" height="26" fill="#160F09" /><rect x="367" y="289" width="52" height="26" fill="#160F09" /><rect x="81" y="315" width="52" height="26" fill="#160F09" /><rect x="367" y="315" width="52" height="26" fill="#160F09" /><rect x="81" y="341" width="52" height="26" fill="#160F09" /><rect x="185" y="341" width="234" height="26" fill="#160F09" /><rect x="81" y="367" width="338" height="26" fill="#160F09" /><rect x="81" y="393" width="338" height="26" fill="#160F09" /><rect x="315" y="289" width="26" height="26" fill="#00A29D" /><rect x="133" y="211" width="26" height="26" fill="#FAAA00" /></svg>