<svg xmlns="http://www.w3.org/2000/svg" preserveAspectRatio="xMinYMin meet" viewBox="0 0 500 500" shape-rendering="crispEdges" transform-origin="center"><rect width="100%" height="100%" fill="#967E67" /><g transform="scale (5 5)"><rect x="21" y="-1" width="57" height="9" stroke-width="0.3" stroke="black" fill="#FFA800" /><text x="50" y="5.5" width="48" font-family="monospace" font-size="5" text-anchor="middle">Corrupted Grotto</text></g><rect x="71" y="71" width="357" height="21" fill="#F3D899" /><rect x="71" y="92" width="357" height="21" fill="#F3D899" /><rect x="71" y="113" width="357" height="21" fill="#F3D899" /><rect x="71" y="134" width="357" height="21" fill="#F3D899" /><rect x="71" y="155" width="84" height="21" fill="#F3D899" /><rect x="239" y="155" width="189" height="21" fill="#F3D899" /><rect x="71" y="176" width="84" height="21" fill="#F3D899" /><rect x="386" y="176" width="42" height="21" fill="#F3D899" /><rect x="71" y="197" width="105" height="21" fill="#F3D899" /><rect x="218" y="197" width="105" height="21" fill="#F3D899" /><rect x="386" y="197" width="42" height="21" fill="#F3D899" /><rect x="71" y="218" width="105" height="21" fill="#F3D899" /><rect x="218" y="218" width="105" height="21" fill="#F3D899" /><rect x="386" y="218" width="42" height="21" fill="#F3D899" /><rect x="71" y="239" width="63" height="21" fill="#F3D899" /><rect x="218" y="239" width="105" height="21" fill="#F3D899" /><rect x="386" y="239" width="42" height="21" fill="#F3D899" /><rect x="71" y="260" width="63" height="21" fill="#F3D899" /><rect x="365" y="260" width="63" height="21" fill="#F3D899" /><rect x="71" y="281" width="105" height="21" fill="#F3D899" /><rect x="281" y="281" width="63" height="21" fill="#F3D899" /><rect x="365" y="281" width="63" height="21" fill="#F3D899" /><rect x="71" y="302" width="21" height="21" fill="#F3D899" /><rect x="134" y="302" width="42" height="21" fill="#F3D899" /><rect x="281" y="302" width="42" height="21" fill="#F3D899" /><rect x="365" y="302" width="63" height="21" fill="#F3D899" /><rect x="71" y="323" width="21" height="21" fill="#F3D899" /><rect x="365" y="323" width="63" height="21" fill="#F3D899" /><rect x="71" y="344" width="21" height="21" fill="#F3D899" /><rect x="365" y="344" width="63" height="21" fill="#F3D899" /><rect x="71" y="365" width="21" height="21" fill="#F3D899" /><rect x="134" y="365" width="63" height="21" fill="#F3D899" /><rect x="281" y="365" width="42" height="21" fill="#F3D899" /><rect x="365" y="365" width="63" height="21" fill="#F3D899" /><rect x="71" y="386" width="357" height="21" fill="#F3D899" /><rect x="71" y="407" width="357" height="21" fill="#F3D899" /></svg>