<svg xmlns="http://www.w3.org/2000/svg" preserveAspectRatio="xMinYMin meet" viewBox="0 0 500 500" shape-rendering="crispEdges" transform-origin="center"><rect width="100%" height="100%" fill="#2F590E" /><g transform="scale (5 5)"><rect x="36" y="-1" width="27" height="9" stroke-width="0.3" stroke="black" fill="#FFA800" /><text x="50" y="5.5" width="18" font-family="monospace" font-size="5" text-anchor="middle">Grotto</text></g><rect x="58" y="58" width="384" height="16" fill="#A98C00" /><rect x="58" y="74" width="384" height="16" fill="#A98C00" /><rect x="58" y="90" width="16" height="16" fill="#A98C00" /><rect x="170" y="90" width="272" height="16" fill="#A98C00" /><rect x="58" y="106" width="16" height="16" fill="#A98C00" /><rect x="170" y="106" width="272" height="16" fill="#A98C00" /><rect x="58" y="122" width="16" height="16" fill="#A98C00" /><rect x="170" y="122" width="272" height="16" fill="#A98C00" /><rect x="58" y="138" width="16" height="16" fill="#A98C00" /><rect x="186" y="138" width="256" height="16" fill="#A98C00" /><rect x="58" y="154" width="16" height="16" fill="#A98C00" /><rect x="186" y="154" width="256" height="16" fill="#A98C00" /><rect x="58" y="170" width="16" height="16" fill="#A98C00" /><rect x="186" y="170" width="256" height="16" fill="#A98C00" /><rect x="58" y="186" width="64" height="16" fill="#A98C00" /><rect x="138" y="186" width="32" height="16" fill="#A98C00" /><rect x="186" y="186" width="256" height="16" fill="#A98C00" /><rect x="58" y="202" width="48" height="16" fill="#A98C00" /><rect x="138" y="202" width="32" height="16" fill="#A98C00" /><rect x="186" y="202" width="256" height="16" fill="#A98C00" /><rect x="58" y="218" width="48" height="16" fill="#A98C00" /><rect x="138" y="218" width="16" height="16" fill="#A98C00" /><rect x="266" y="218" width="176" height="16" fill="#A98C00" /><rect x="58" y="234" width="48" height="16" fill="#A98C00" /><rect x="298" y="234" width="80" height="16" fill="#A98C00" /><rect x="410" y="234" width="32" height="16" fill="#A98C00" /><rect x="58" y="250" width="48" height="16" fill="#A98C00" /><rect x="138" y="250" width="16" height="16" fill="#A98C00" /><rect x="410" y="250" width="32" height="16" fill="#A98C00" /><rect x="58" y="266" width="32" height="16" fill="#A98C00" /><rect x="138" y="266" width="16" height="16" fill="#A98C00" /><rect x="186" y="266" width="16" height="16" fill="#A98C00" /><rect x="218" y="266" width="16" height="16" fill="#A98C00" /><rect x="250" y="266" width="32" height="16" fill="#A98C00" /><rect x="298" y="266" width="96" height="16" fill="#A98C00" /><rect x="410" y="266" width="32" height="16" fill="#A98C00" /><rect x="58" y="282" width="32" height="16" fill="#A98C00" /><rect x="298" y="282" width="96" height="16" fill="#A98C00" /><rect x="410" y="282" width="32" height="16" fill="#A98C00" /><rect x="58" y="298" width="32" height="16" fill="#A98C00" /><rect x="298" y="298" width="96" height="16" fill="#A98C00" /><rect x="410" y="298" width="32" height="16" fill="#A98C00" /><rect x="58" y="314" width="32" height="16" fill="#A98C00" /><rect x="298" y="314" width="96" height="16" fill="#A98C00" /><rect x="410" y="314" width="32" height="16" fill="#A98C00" /><rect x="58" y="330" width="32" height="16" fill="#A98C00" /><rect x="394" y="330" width="48" height="16" fill="#A98C00" /><rect x="58" y="346" width="32" height="16" fill="#A98C00" /><rect x="346" y="346" width="96" height="16" fill="#A98C00" /><rect x="58" y="362" width="32" height="16" fill="#A98C00" /><rect x="266" y="362" width="176" height="16" fill="#A98C00" /><rect x="58" y="378" width="384" height="16" fill="#A98C00" /><rect x="58" y="394" width="384" height="16" fill="#A98C00" /><rect x="58" y="410" width="384" height="16" fill="#A98C00" /><rect x="58" y="426" width="384" height="16" fill="#A98C00" /><rect x="234" y="314" width="16" height="16" fill="#C55300" /><rect x="346" y="250" width="16" height="16" fill="#802F1A" /></svg>