<svg xmlns="http://www.w3.org/2000/svg" preserveAspectRatio="xMinYMin meet" viewBox="0 0 500 500" shape-rendering="crispEdges" transform-origin="center"><rect width="100%" height="100%" fill="#F3D899" /><g transform="scale (5 5)"><rect x="36" y="-1" width="27" height="9" stroke-width="0.3" stroke="black" fill="#FFA800" /><text x="50" y="5.5" width="18" font-family="monospace" font-size="5" text-anchor="middle">Temple</text></g><rect x="60" y="60" width="380" height="20" fill="#160F09" /><rect x="60" y="80" width="380" height="20" fill="#160F09" /><rect x="60" y="100" width="380" height="20" fill="#160F09" /><rect x="60" y="120" width="120" height="20" fill="#160F09" /><rect x="240" y="120" width="200" height="20" fill="#160F09" /><rect x="60" y="140" width="120" height="20" fill="#160F09" /><rect x="240" y="140" width="200" height="20" fill="#160F09" /><rect x="60" y="160" width="120" height="20" fill="#160F09" /><rect x="240" y="160" width="200" height="20" fill="#160F09" /><rect x="60" y="180" width="120" height="20" fill="#160F09" /><rect x="240" y="180" width="200" height="20" fill="#160F09" /><rect x="60" y="200" width="120" height="20" fill="#160F09" /><rect x="240" y="200" width="200" height="20" fill="#160F09" /><rect x="60" y="220" width="80" height="20" fill="#160F09" /><rect x="220" y="220" width="220" height="20" fill="#160F09" /><rect x="60" y="240" width="60" height="20" fill="#160F09" /><rect x="220" y="240" width="220" height="20" fill="#160F09" /><rect x="60" y="260" width="60" height="20" fill="#160F09" /><rect x="260" y="260" width="40" height="20" fill="#160F09" /><rect x="380" y="260" width="60" height="20" fill="#160F09" /><rect x="60" y="280" width="60" height="20" fill="#160F09" /><rect x="380" y="280" width="60" height="20" fill="#160F09" /><rect x="60" y="300" width="40" height="20" fill="#160F09" /><rect x="380" y="300" width="60" height="20" fill="#160F09" /><rect x="60" y="320" width="40" height="20" fill="#160F09" /><rect x="280" y="320" width="160" height="20" fill="#160F09" /><rect x="60" y="340" width="60" height="20" fill="#160F09" /><rect x="280" y="340" width="160" height="20" fill="#160F09" /><rect x="60" y="360" width="60" height="20" fill="#160F09" /><rect x="280" y="360" width="160" height="20" fill="#160F09" /><rect x="60" y="380" width="60" height="20" fill="#160F09" /><rect x="280" y="380" width="160" height="20" fill="#160F09" /><rect x="60" y="400" width="380" height="20" fill="#160F09" /><rect x="60" y="420" width="380" height="20" fill="#160F09" /><rect x="340" y="300" width="20" height="20" fill="#00A29D" /><rect x="240" y="260" width="20" height="20" fill="#00A29D" /><rect x="140" y="260" width="20" height="20" fill="#00A29D" /></svg>