<svg xmlns="http://www.w3.org/2000/svg" preserveAspectRatio="xMinYMin meet" viewBox="0 0 500 500" shape-rendering="crispEdges" transform-origin="center"><rect width="100%" height="100%" fill="#2F590E" /><g transform="scale (5 5)"><rect x="26" y="-1" width="48" height="9" stroke-width="0.3" stroke="black" fill="#FFA800" /><text x="50" y="5.5" width="39" font-family="monospace" font-size="5" text-anchor="middle">Heaven's Maze</text></g><rect x="58" y="58" width="384" height="16" fill="#A98C00" /><rect x="58" y="74" width="384" height="16" fill="#A98C00" /><rect x="58" y="90" width="384" height="16" fill="#A98C00" /><rect x="58" y="106" width="384" height="16" fill="#A98C00" /><rect x="58" y="122" width="16" height="16" fill="#A98C00" /><rect x="154" y="122" width="288" height="16" fill="#A98C00" /><rect x="58" y="138" width="16" height="16" fill="#A98C00" /><rect x="186" y="138" width="256" height="16" fill="#A98C00" /><rect x="58" y="154" width="16" height="16" fill="#A98C00" /><rect x="122" y="154" width="48" height="16" fill="#A98C00" /><rect x="186" y="154" width="256" height="16" fill="#A98C00" /><rect x="58" y="170" width="16" height="16" fill="#A98C00" /><rect x="122" y="170" width="32" height="16" fill="#A98C00" /><rect x="186" y="170" width="256" height="16" fill="#A98C00" /><rect x="58" y="186" width="16" height="16" fill="#A98C00" /><rect x="330" y="186" width="112" height="16" fill="#A98C00" /><rect x="58" y="202" width="16" height="16" fill="#A98C00" /><rect x="378" y="202" width="64" height="16" fill="#A98C00" /><rect x="58" y="218" width="16" height="16" fill="#A98C00" /><rect x="186" y="218" width="16" height="16" fill="#A98C00" /><rect x="298" y="218" width="16" height="16" fill="#A98C00" /><rect x="330" y="218" width="32" height="16" fill="#A98C00" /><rect x="378" y="218" width="64" height="16" fill="#A98C00" /><rect x="58" y="234" width="16" height="16" fill="#A98C00" /><rect x="106" y="234" width="32" height="16" fill="#A98C00" /><rect x="154" y="234" width="16" height="16" fill="#A98C00" /><rect x="186" y="234" width="16" height="16" fill="#A98C00" /><rect x="218" y="234" width="16" height="16" fill="#A98C00" /><rect x="298" y="234" width="16" height="16" fill="#A98C00" /><rect x="330" y="234" width="32" height="16" fill="#A98C00" /><rect x="378" y="234" width="64" height="16" fill="#A98C00" /><rect x="58" y="250" width="16" height="16" fill="#A98C00" /><rect x="106" y="250" width="32" height="16" fill="#A98C00" /><rect x="154" y="250" width="16" height="16" fill="#A98C00" /><rect x="186" y="250" width="16" height="16" fill="#A98C00" /><rect x="218" y="250" width="48" height="16" fill="#A98C00" /><rect x="378" y="250" width="64" height="16" fill="#A98C00" /><rect x="58" y="266" width="32" height="16" fill="#A98C00" /><rect x="106" y="266" width="16" height="16" fill="#A98C00" /><rect x="378" y="266" width="64" height="16" fill="#A98C00" /><rect x="58" y="282" width="32" height="16" fill="#A98C00" /><rect x="218" y="282" width="48" height="16" fill="#A98C00" /><rect x="378" y="282" width="64" height="16" fill="#A98C00" /><rect x="58" y="298" width="16" height="16" fill="#A98C00" /><rect x="282" y="298" width="32" height="16" fill="#A98C00" /><rect x="346" y="298" width="16" height="16" fill="#A98C00" /><rect x="378" y="298" width="64" height="16" fill="#A98C00" /><rect x="58" y="314" width="16" height="16" fill="#A98C00" /><rect x="378" y="314" width="64" height="16" fill="#A98C00" /><rect x="58" y="330" width="16" height="16" fill="#A98C00" /><rect x="394" y="330" width="48" height="16" fill="#A98C00" /><rect x="58" y="346" width="16" height="16" fill="#A98C00" /><rect x="394" y="346" width="48" height="16" fill="#A98C00" /><rect x="58" y="362" width="16" height="16" fill="#A98C00" /><rect x="394" y="362" width="48" height="16" fill="#A98C00" /><rect x="58" y="378" width="16" height="16" fill="#A98C00" /><rect x="410" y="378" width="32" height="16" fill="#A98C00" /><rect x="58" y="394" width="16" height="16" fill="#A98C00" /><rect x="410" y="394" width="32" height="16" fill="#A98C00" /><rect x="58" y="410" width="384" height="16" fill="#A98C00" /><rect x="58" y="426" width="384" height="16" fill="#A98C00" /><rect x="170" y="378" width="16" height="16" fill="#C55300" /><rect x="186" y="362" width="16" height="16" fill="#C55300" /><rect x="218" y="330" width="16" height="16" fill="#C55300" /><rect x="266" y="314" width="16" height="16" fill="#C55300" /><rect x="362" y="298" width="16" height="16" fill="#802F1A" /><rect x="122" y="122" width="16" height="16" fill="#C55300" /></svg>