<svg xmlns="http://www.w3.org/2000/svg" preserveAspectRatio="xMinYMin meet" viewBox="0 0 500 500" shape-rendering="crispEdges" transform-origin="center"><rect width="100%" height="100%" fill="#F3D899" /><g transform="scale (5 5)"><rect x="9" y="-1" width="81" height="9" stroke-width="0.3" stroke="black" fill="#FFA800" /><text x="50" y="5.5" width="72" font-family="monospace" font-size="5" text-anchor="middle">Desolate Landing of Pain</text></g><rect x="58" y="58" width="384" height="16" fill="#160F09" /><rect x="58" y="74" width="16" height="16" fill="#160F09" /><rect x="138" y="74" width="304" height="16" fill="#160F09" /><rect x="58" y="90" width="16" height="16" fill="#160F09" /><rect x="138" y="90" width="304" height="16" fill="#160F09" /><rect x="58" y="106" width="16" height="16" fill="#160F09" /><rect x="138" y="106" width="128" height="16" fill="#160F09" /><rect x="330" y="106" width="112" height="16" fill="#160F09" /><rect x="58" y="122" width="16" height="16" fill="#160F09" /><rect x="330" y="122" width="112" height="16" fill="#160F09" /><rect x="58" y="138" width="16" height="16" fill="#160F09" /><rect x="138" y="138" width="32" height="16" fill="#160F09" /><rect x="218" y="138" width="16" height="16" fill="#160F09" /><rect x="250" y="138" width="48" height="16" fill="#160F09" /><rect x="314" y="138" width="128" height="16" fill="#160F09" /><rect x="58" y="154" width="16" height="16" fill="#160F09" /><rect x="138" y="154" width="32" height="16" fill="#160F09" /><rect x="218" y="154" width="16" height="16" fill="#160F09" /><rect x="250" y="154" width="48" height="16" fill="#160F09" /><rect x="314" y="154" width="128" height="16" fill="#160F09" /><rect x="58" y="170" width="112" height="16" fill="#160F09" /><rect x="394" y="170" width="48" height="16" fill="#160F09" /><rect x="58" y="186" width="112" height="16" fill="#160F09" /><rect x="218" y="186" width="16" height="16" fill="#160F09" /><rect x="250" y="186" width="48" height="16" fill="#160F09" /><rect x="330" y="186" width="48" height="16" fill="#160F09" /><rect x="394" y="186" width="48" height="16" fill="#160F09" /><rect x="58" y="202" width="64" height="16" fill="#160F09" /><rect x="170" y="202" width="16" height="16" fill="#160F09" /><rect x="202" y="202" width="32" height="16" fill="#160F09" /><rect x="250" y="202" width="48" height="16" fill="#160F09" /><rect x="330" y="202" width="48" height="16" fill="#160F09" /><rect x="394" y="202" width="48" height="16" fill="#160F09" /><rect x="58" y="218" width="16" height="16" fill="#160F09" /><rect x="170" y="218" width="16" height="16" fill="#160F09" /><rect x="202" y="218" width="16" height="16" fill="#160F09" /><rect x="250" y="218" width="48" height="16" fill="#160F09" /><rect x="330" y="218" width="16" height="16" fill="#160F09" /><rect x="410" y="218" width="32" height="16" fill="#160F09" /><rect x="58" y="234" width="16" height="16" fill="#160F09" /><rect x="330" y="234" width="16" height="16" fill="#160F09" /><rect x="410" y="234" width="32" height="16" fill="#160F09" /><rect x="58" y="250" width="16" height="16" fill="#160F09" /><rect x="250" y="250" width="16" height="16" fill="#160F09" /><rect x="282" y="250" width="16" height="16" fill="#160F09" /><rect x="330" y="250" width="16" height="16" fill="#160F09" /><rect x="410" y="250" width="32" height="16" fill="#160F09" /><rect x="58" y="266" width="32" height="16" fill="#160F09" /><rect x="106" y="266" width="16" height="16" fill="#160F09" /><rect x="410" y="266" width="32" height="16" fill="#160F09" /><rect x="58" y="282" width="16" height="16" fill="#160F09" /><rect x="218" y="282" width="16" height="16" fill="#160F09" /><rect x="250" y="282" width="16" height="16" fill="#160F09" /><rect x="282" y="282" width="16" height="16" fill="#160F09" /><rect x="330" y="282" width="16" height="16" fill="#160F09" /><rect x="410" y="282" width="32" height="16" fill="#160F09" /><rect x="58" y="298" width="16" height="16" fill="#160F09" /><rect x="218" y="298" width="16" height="16" fill="#160F09" /><rect x="330" y="298" width="16" height="16" fill="#160F09" /><rect x="410" y="298" width="32" height="16" fill="#160F09" /><rect x="58" y="314" width="16" height="16" fill="#160F09" /><rect x="330" y="314" width="16" height="16" fill="#160F09" /><rect x="410" y="314" width="32" height="16" fill="#160F09" /><rect x="58" y="330" width="16" height="16" fill="#160F09" /><rect x="282" y="330" width="16" height="16" fill="#160F09" /><rect x="330" y="330" width="112" height="16" fill="#160F09" /><rect x="58" y="346" width="64" height="16" fill="#160F09" /><rect x="298" y="346" width="16" height="16" fill="#160F09" /><rect x="330" y="346" width="112" height="16" fill="#160F09" /><rect x="58" y="362" width="96" height="16" fill="#160F09" /><rect x="330" y="362" width="112" height="16" fill="#160F09" /><rect x="58" y="378" width="96" height="16" fill="#160F09" /><rect x="330" y="378" width="112" height="16" fill="#160F09" /><rect x="58" y="394" width="96" height="16" fill="#160F09" /><rect x="330" y="394" width="112" height="16" fill="#160F09" /><rect x="58" y="410" width="384" height="16" fill="#160F09" /><rect x="58" y="426" width="384" height="16" fill="#160F09" /><rect x="106" y="298" width="16" height="16" fill="#00A29D" /><rect x="394" y="282" width="16" height="16" fill="#00A29D" /><rect x="74" y="250" width="16" height="16" fill="#00A29D" /><rect x="154" y="202" width="16" height="16" fill="#00A29D" /><rect x="74" y="122" width="16" height="16" fill="#00A29D" /></svg>