<svg xmlns="http://www.w3.org/2000/svg" preserveAspectRatio="xMinYMin meet" viewBox="0 0 500 500" shape-rendering="crispEdges" transform-origin="center"><rect width="100%" height="100%" fill="#F3D899" /><g transform="scale (5 5)"><rect x="21" y="-1" width="57" height="9" stroke-width="0.3" stroke="black" fill="#FFA800" /><text x="50" y="5.5" width="48" font-family="monospace" font-size="5" text-anchor="middle">Grotto of Giants</text></g><rect x="74" y="74" width="352" height="22" fill="#160F09" /><rect x="74" y="96" width="22" height="22" fill="#160F09" /><rect x="140" y="96" width="132" height="22" fill="#160F09" /><rect x="338" y="96" width="44" height="22" fill="#160F09" /><rect x="74" y="118" width="44" height="22" fill="#160F09" /><rect x="140" y="118" width="110" height="22" fill="#160F09" /><rect x="294" y="118" width="22" height="22" fill="#160F09" /><rect x="404" y="118" width="22" height="22" fill="#160F09" /><rect x="74" y="140" width="44" height="22" fill="#160F09" /><rect x="162" y="140" width="132" height="22" fill="#160F09" /><rect x="360" y="140" width="22" height="22" fill="#160F09" /><rect x="404" y="140" width="22" height="22" fill="#160F09" /><rect x="74" y="162" width="66" height="22" fill="#160F09" /><rect x="250" y="162" width="44" height="22" fill="#160F09" /><rect x="316" y="162" width="22" height="22" fill="#160F09" /><rect x="360" y="162" width="44" height="22" fill="#160F09" /><rect x="74" y="184" width="110" height="22" fill="#160F09" /><rect x="272" y="184" width="22" height="22" fill="#160F09" /><rect x="316" y="184" width="22" height="22" fill="#160F09" /><rect x="74" y="206" width="176" height="22" fill="#160F09" /><rect x="316" y="206" width="22" height="22" fill="#160F09" /><rect x="74" y="228" width="198" height="22" fill="#160F09" /><rect x="294" y="228" width="66" height="22" fill="#160F09" /><rect x="74" y="250" width="352" height="22" fill="#160F09" /><rect x="74" y="272" width="352" height="22" fill="#160F09" /><rect x="74" y="294" width="198" height="22" fill="#160F09" /><rect x="338" y="294" width="66" height="22" fill="#160F09" /><rect x="74" y="316" width="176" height="22" fill="#160F09" /><rect x="360" y="316" width="22" height="22" fill="#160F09" /><rect x="74" y="338" width="22" height="22" fill="#160F09" /><rect x="118" y="338" width="110" height="22" fill="#160F09" /><rect x="74" y="360" width="22" height="22" fill="#160F09" /><rect x="206" y="360" width="22" height="22" fill="#160F09" /><rect x="404" y="360" width="22" height="22" fill="#160F09" /><rect x="74" y="382" width="66" height="22" fill="#160F09" /><rect x="250" y="382" width="22" height="22" fill="#160F09" /><rect x="316" y="382" width="44" height="22" fill="#160F09" /><rect x="404" y="382" width="22" height="22" fill="#160F09" /><rect x="74" y="404" width="66" height="22" fill="#160F09" /><rect x="162" y="404" width="66" height="22" fill="#160F09" /><rect x="250" y="404" width="44" height="22" fill="#160F09" /><rect x="404" y="404" width="22" height="22" fill="#160F09" /><rect x="206" y="382" width="22" height="22" fill="#00A29D" /><rect x="250" y="360" width="22" height="22" fill="#FAAA00" /><rect x="96" y="338" width="22" height="22" fill="#00A29D" /><rect x="294" y="140" width="22" height="22" fill="#00A29D" /><rect x="316" y="96" width="22" height="22" fill="#FAAA00" /><rect x="272" y="96" width="22" height="22" fill="#FAAA00" /></svg>