<svg xmlns="http://www.w3.org/2000/svg" preserveAspectRatio="xMinYMin meet" viewBox="0 0 500 500" shape-rendering="crispEdges" transform-origin="center"><rect width="100%" height="100%" fill="#340D07" /><g transform="scale (5 5)"><rect x="39" y="-1" width="21" height="9" stroke-width="0.3" stroke="black" fill="#FFA800" /><text x="50" y="5.5" width="12" font-family="monospace" font-size="5" text-anchor="middle">Peak</text></g><rect x="63" y="63" width="85" height="17" fill="#5D0503" /><rect x="165" y="63" width="136" height="17" fill="#5D0503" /><rect x="318" y="63" width="119" height="17" fill="#5D0503" /><rect x="63" y="80" width="289" height="17" fill="#5D0503" /><rect x="369" y="80" width="68" height="17" fill="#5D0503" /><rect x="63" y="97" width="85" height="17" fill="#5D0503" /><rect x="182" y="97" width="68" height="17" fill="#5D0503" /><rect x="267" y="97" width="51" height="17" fill="#5D0503" /><rect x="369" y="97" width="68" height="17" fill="#5D0503" /><rect x="63" y="114" width="68" height="17" fill="#5D0503" /><rect x="284" y="114" width="17" height="17" fill="#5D0503" /><rect x="335" y="114" width="102" height="17" fill="#5D0503" /><rect x="63" y="131" width="204" height="17" fill="#5D0503" /><rect x="318" y="131" width="119" height="17" fill="#5D0503" /><rect x="63" y="148" width="374" height="17" fill="#5D0503" /><rect x="63" y="165" width="374" height="17" fill="#5D0503" /><rect x="63" y="182" width="374" height="17" fill="#5D0503" /><rect x="63" y="199" width="306" height="17" fill="#5D0503" /><rect x="420" y="199" width="17" height="17" fill="#5D0503" /><rect x="63" y="216" width="187" height="17" fill="#5D0503" /><rect x="284" y="216" width="51" height="17" fill="#5D0503" /><rect x="63" y="233" width="136" height="17" fill="#5D0503" /><rect x="216" y="233" width="34" height="17" fill="#5D0503" /><rect x="352" y="233" width="34" height="17" fill="#5D0503" /><rect x="403" y="233" width="17" height="17" fill="#5D0503" /><rect x="63" y="250" width="85" height="17" fill="#5D0503" /><rect x="284" y="250" width="17" height="17" fill="#5D0503" /><rect x="403" y="250" width="34" height="17" fill="#5D0503" /><rect x="63" y="267" width="85" height="17" fill="#5D0503" /><rect x="199" y="267" width="68" height="17" fill="#5D0503" /><rect x="284" y="267" width="17" height="17" fill="#5D0503" /><rect x="352" y="267" width="85" height="17" fill="#5D0503" /><rect x="63" y="284" width="204" height="17" fill="#5D0503" /><rect x="318" y="284" width="119" height="17" fill="#5D0503" /><rect x="63" y="301" width="204" height="17" fill="#5D0503" /><rect x="301" y="301" width="102" height="17" fill="#5D0503" /><rect x="63" y="318" width="102" height="17" fill="#5D0503" /><rect x="318" y="318" width="34" height="17" fill="#5D0503" /><rect x="369" y="318" width="34" height="17" fill="#5D0503" /><rect x="63" y="335" width="102" height="17" fill="#5D0503" /><rect x="199" y="335" width="34" height="17" fill="#5D0503" /><rect x="63" y="352" width="102" height="17" fill="#5D0503" /><rect x="199" y="352" width="51" height="17" fill="#5D0503" /><rect x="284" y="352" width="17" height="17" fill="#5D0503" /><rect x="63" y="369" width="187" height="17" fill="#5D0503" /><rect x="63" y="386" width="17" height="17" fill="#5D0503" /><rect x="114" y="386" width="119" height="17" fill="#5D0503" /><rect x="301" y="386" width="102" height="17" fill="#5D0503" /><rect x="420" y="386" width="17" height="17" fill="#5D0503" /><rect x="63" y="403" width="17" height="17" fill="#5D0503" /><rect x="165" y="403" width="34" height="17" fill="#5D0503" /><rect x="267" y="403" width="170" height="17" fill="#5D0503" /><rect x="63" y="420" width="17" height="17" fill="#5D0503" /><rect x="97" y="420" width="51" height="17" fill="#5D0503" /><rect x="216" y="420" width="17" height="17" fill="#5D0503" /><rect x="267" y="420" width="136" height="17" fill="#5D0503" /><rect x="420" y="420" width="17" height="17" fill="#5D0503" /><rect x="250" y="420" width="17" height="17" fill="#B75700" /><rect x="148" y="420" width="17" height="17" fill="#FF1800" /><rect x="403" y="386" width="17" height="17" fill="#FF1800" /><rect x="267" y="352" width="17" height="17" fill="#B75700" /><rect x="250" y="352" width="17" height="17" fill="#FF1800" /><rect x="352" y="318" width="17" height="17" fill="#FF1800" /><rect x="301" y="318" width="17" height="17" fill="#B75700" /><rect x="165" y="318" width="17" height="17" fill="#FF1800" /><rect x="165" y="267" width="17" height="17" fill="#B75700" /><rect x="420" y="216" width="17" height="17" fill="#B75700" /><rect x="301" y="131" width="17" height="17" fill="#FF1800" /><rect x="131" y="114" width="17" height="17" fill="#B75700" /></svg>