<svg xmlns="http://www.w3.org/2000/svg" preserveAspectRatio="xMinYMin meet" viewBox="0 0 500 500" shape-rendering="crispEdges" transform-origin="center"><rect width="100%" height="100%" fill="#2F590E" /><g transform="scale (5 5)"><rect x="10" y="-1" width="80" height="9" stroke-width="0.3" stroke="black" fill="#FFA800" /><text x="50" y="5.5" width="111" font-family="monospace" font-size="4" text-anchor="middle">Desolate Necropolis of Despair</text></g><rect x="63" y="63" width="374" height="17" fill="#A98C00" /><rect x="63" y="80" width="374" height="17" fill="#A98C00" /><rect x="63" y="97" width="34" height="17" fill="#A98C00" /><rect x="165" y="97" width="272" height="17" fill="#A98C00" /><rect x="63" y="114" width="34" height="17" fill="#A98C00" /><rect x="250" y="114" width="187" height="17" fill="#A98C00" /><rect x="63" y="131" width="34" height="17" fill="#A98C00" /><rect x="165" y="131" width="68" height="17" fill="#A98C00" /><rect x="250" y="131" width="187" height="17" fill="#A98C00" /><rect x="63" y="148" width="51" height="17" fill="#A98C00" /><rect x="165" y="148" width="68" height="17" fill="#A98C00" /><rect x="250" y="148" width="34" height="17" fill="#A98C00" /><rect x="318" y="148" width="17" height="17" fill="#A98C00" /><rect x="403" y="148" width="34" height="17" fill="#A98C00" /><rect x="63" y="165" width="51" height="17" fill="#A98C00" /><rect x="199" y="165" width="34" height="17" fill="#A98C00" /><rect x="250" y="165" width="34" height="17" fill="#A98C00" /><rect x="318" y="165" width="17" height="17" fill="#A98C00" /><rect x="403" y="165" width="34" height="17" fill="#A98C00" /><rect x="63" y="182" width="68" height="17" fill="#A98C00" /><rect x="148" y="182" width="34" height="17" fill="#A98C00" /><rect x="403" y="182" width="34" height="17" fill="#A98C00" /><rect x="63" y="199" width="68" height="17" fill="#A98C00" /><rect x="148" y="199" width="34" height="17" fill="#A98C00" /><rect x="216" y="199" width="17" height="17" fill="#A98C00" /><rect x="250" y="199" width="51" height="17" fill="#A98C00" /><rect x="318" y="199" width="17" height="17" fill="#A98C00" /><rect x="403" y="199" width="34" height="17" fill="#A98C00" /><rect x="63" y="216" width="68" height="17" fill="#A98C00" /><rect x="216" y="216" width="17" height="17" fill="#A98C00" /><rect x="250" y="216" width="51" height="17" fill="#A98C00" /><rect x="318" y="216" width="51" height="17" fill="#A98C00" /><rect x="386" y="216" width="51" height="17" fill="#A98C00" /><rect x="63" y="233" width="68" height="17" fill="#A98C00" /><rect x="352" y="233" width="17" height="17" fill="#A98C00" /><rect x="386" y="233" width="51" height="17" fill="#A98C00" /><rect x="63" y="250" width="17" height="17" fill="#A98C00" /><rect x="403" y="250" width="34" height="17" fill="#A98C00" /><rect x="63" y="267" width="17" height="17" fill="#A98C00" /><rect x="403" y="267" width="34" height="17" fill="#A98C00" /><rect x="63" y="284" width="17" height="17" fill="#A98C00" /><rect x="233" y="284" width="68" height="17" fill="#A98C00" /><rect x="386" y="284" width="51" height="17" fill="#A98C00" /><rect x="63" y="301" width="17" height="17" fill="#A98C00" /><rect x="386" y="301" width="51" height="17" fill="#A98C00" /><rect x="63" y="318" width="17" height="17" fill="#A98C00" /><rect x="250" y="318" width="187" height="17" fill="#A98C00" /><rect x="63" y="335" width="17" height="17" fill="#A98C00" /><rect x="267" y="335" width="170" height="17" fill="#A98C00" /><rect x="63" y="352" width="68" height="17" fill="#A98C00" /><rect x="267" y="352" width="170" height="17" fill="#A98C00" /><rect x="63" y="369" width="68" height="17" fill="#A98C00" /><rect x="267" y="369" width="170" height="17" fill="#A98C00" /><rect x="63" y="386" width="85" height="17" fill="#A98C00" /><rect x="267" y="386" width="170" height="17" fill="#A98C00" /><rect x="63" y="403" width="374" height="17" fill="#A98C00" /><rect x="63" y="420" width="374" height="17" fill="#A98C00" /><rect x="148" y="352" width="17" height="17" fill="#C55300" /><rect x="97" y="318" width="17" height="17" fill="#C55300" /><rect x="352" y="267" width="17" height="17" fill="#C55300" /><rect x="233" y="250" width="17" height="17" fill="#C55300" /><rect x="131" y="250" width="17" height="17" fill="#C55300" /><rect x="114" y="165" width="17" height="17" fill="#C55300" /><rect x="335" y="148" width="17" height="17" fill="#C55300" /></svg>