<svg xmlns="http://www.w3.org/2000/svg" preserveAspectRatio="xMinYMin meet" viewBox="0 0 500 500" shape-rendering="crispEdges" transform-origin="center"><rect width="100%" height="100%" fill="#36230F" /><g transform="scale (5 5)"><rect x="15" y="-1" width="69" height="9" stroke-width="0.3" stroke="black" fill="#FFA800" /><text x="50" y="5.5" width="60" font-family="monospace" font-size="5" text-anchor="middle">Tundra of Corruption</text></g><rect x="95" y="95" width="310" height="31" fill="#744936" /><rect x="95" y="126" width="31" height="31" fill="#744936" /><rect x="188" y="126" width="217" height="31" fill="#744936" /><rect x="95" y="157" width="31" height="31" fill="#744936" /><rect x="188" y="157" width="217" height="31" fill="#744936" /><rect x="95" y="188" width="62" height="31" fill="#744936" /><rect x="188" y="188" width="217" height="31" fill="#744936" /><rect x="95" y="219" width="62" height="31" fill="#744936" /><rect x="188" y="219" width="217" height="31" fill="#744936" /><rect x="95" y="250" width="31" height="31" fill="#744936" /><rect x="188" y="250" width="217" height="31" fill="#744936" /><rect x="95" y="281" width="31" height="31" fill="#744936" /><rect x="188" y="281" width="217" height="31" fill="#744936" /><rect x="95" y="312" width="31" height="31" fill="#744936" /><rect x="188" y="312" width="217" height="31" fill="#744936" /><rect x="95" y="343" width="310" height="31" fill="#744936" /><rect x="95" y="374" width="310" height="31" fill="#744936" /><rect x="157" y="281" width="31" height="31" fill="#FFA800" /><rect x="157" y="188" width="31" height="31" fill="#802F1A" /></svg>