<svg xmlns="http://www.w3.org/2000/svg" preserveAspectRatio="xMinYMin meet" viewBox="0 0 500 500" shape-rendering="crispEdges" transform-origin="center"><rect width="100%" height="100%" fill="#340D07" /><g transform="scale (5 5)"><rect x="29" y="-1" width="42" height="9" stroke-width="0.3" stroke="black" fill="#FFA800" /><text x="50" y="5.5" width="33" font-family="monospace" font-size="5" text-anchor="middle">Divine Peak</text></g><rect x="54" y="54" width="136" height="17" fill="#5D0503" /><rect x="207" y="54" width="238" height="17" fill="#5D0503" /><rect x="54" y="71" width="34" height="17" fill="#5D0503" /><rect x="139" y="71" width="17" height="17" fill="#5D0503" /><rect x="275" y="71" width="34" height="17" fill="#5D0503" /><rect x="343" y="71" width="102" height="17" fill="#5D0503" /><rect x="54" y="88" width="51" height="17" fill="#5D0503" /><rect x="139" y="88" width="51" height="17" fill="#5D0503" /><rect x="207" y="88" width="34" height="17" fill="#5D0503" /><rect x="258" y="88" width="51" height="17" fill="#5D0503" /><rect x="343" y="88" width="102" height="17" fill="#5D0503" /><rect x="54" y="105" width="34" height="17" fill="#5D0503" /><rect x="139" y="105" width="51" height="17" fill="#5D0503" /><rect x="207" y="105" width="34" height="17" fill="#5D0503" /><rect x="258" y="105" width="51" height="17" fill="#5D0503" /><rect x="343" y="105" width="102" height="17" fill="#5D0503" /><rect x="54" y="122" width="17" height="17" fill="#5D0503" /><rect x="139" y="122" width="102" height="17" fill="#5D0503" /><rect x="258" y="122" width="68" height="17" fill="#5D0503" /><rect x="343" y="122" width="102" height="17" fill="#5D0503" /><rect x="54" y="139" width="34" height="17" fill="#5D0503" /><rect x="139" y="139" width="102" height="17" fill="#5D0503" /><rect x="258" y="139" width="68" height="17" fill="#5D0503" /><rect x="343" y="139" width="102" height="17" fill="#5D0503" /><rect x="54" y="156" width="68" height="17" fill="#5D0503" /><rect x="139" y="156" width="102" height="17" fill="#5D0503" /><rect x="258" y="156" width="68" height="17" fill="#5D0503" /><rect x="343" y="156" width="102" height="17" fill="#5D0503" /><rect x="54" y="173" width="68" height="17" fill="#5D0503" /><rect x="190" y="173" width="51" height="17" fill="#5D0503" /><rect x="258" y="173" width="68" height="17" fill="#5D0503" /><rect x="343" y="173" width="102" height="17" fill="#5D0503" /><rect x="54" y="190" width="68" height="17" fill="#5D0503" /><rect x="139" y="190" width="34" height="17" fill="#5D0503" /><rect x="190" y="190" width="51" height="17" fill="#5D0503" /><rect x="258" y="190" width="51" height="17" fill="#5D0503" /><rect x="343" y="190" width="102" height="17" fill="#5D0503" /><rect x="54" y="207" width="68" height="17" fill="#5D0503" /><rect x="139" y="207" width="102" height="17" fill="#5D0503" /><rect x="326" y="207" width="119" height="17" fill="#5D0503" /><rect x="54" y="224" width="68" height="17" fill="#5D0503" /><rect x="139" y="224" width="136" height="17" fill="#5D0503" /><rect x="292" y="224" width="17" height="17" fill="#5D0503" /><rect x="326" y="224" width="119" height="17" fill="#5D0503" /><rect x="54" y="241" width="17" height="17" fill="#5D0503" /><rect x="139" y="241" width="119" height="17" fill="#5D0503" /><rect x="326" y="241" width="119" height="17" fill="#5D0503" /><rect x="54" y="258" width="68" height="17" fill="#5D0503" /><rect x="156" y="258" width="102" height="17" fill="#5D0503" /><rect x="309" y="258" width="136" height="17" fill="#5D0503" /><rect x="54" y="275" width="68" height="17" fill="#5D0503" /><rect x="156" y="275" width="119" height="17" fill="#5D0503" /><rect x="292" y="275" width="153" height="17" fill="#5D0503" /><rect x="54" y="292" width="51" height="17" fill="#5D0503" /><rect x="139" y="292" width="119" height="17" fill="#5D0503" /><rect x="292" y="292" width="153" height="17" fill="#5D0503" /><rect x="54" y="309" width="34" height="17" fill="#5D0503" /><rect x="173" y="309" width="85" height="17" fill="#5D0503" /><rect x="326" y="309" width="119" height="17" fill="#5D0503" /><rect x="54" y="326" width="34" height="17" fill="#5D0503" /><rect x="105" y="326" width="34" height="17" fill="#5D0503" /><rect x="156" y="326" width="102" height="17" fill="#5D0503" /><rect x="275" y="326" width="34" height="17" fill="#5D0503" /><rect x="343" y="326" width="102" height="17" fill="#5D0503" /><rect x="54" y="343" width="34" height="17" fill="#5D0503" /><rect x="173" y="343" width="17" height="17" fill="#5D0503" /><rect x="275" y="343" width="51" height="17" fill="#5D0503" /><rect x="360" y="343" width="85" height="17" fill="#5D0503" /><rect x="54" y="360" width="17" height="17" fill="#5D0503" /><rect x="88" y="360" width="17" height="17" fill="#5D0503" /><rect x="122" y="360" width="68" height="17" fill="#5D0503" /><rect x="207" y="360" width="119" height="17" fill="#5D0503" /><rect x="377" y="360" width="68" height="17" fill="#5D0503" /><rect x="54" y="377" width="0" height="17" fill="#5D0503" /><rect x="88" y="377" width="17" height="17" fill="#5D0503" /><rect x="122" y="377" width="68" height="17" fill="#5D0503" /><rect x="207" y="377" width="119" height="17" fill="#5D0503" /><rect x="377" y="377" width="68" height="17" fill="#5D0503" /><rect x="54" y="394" width="51" height="17" fill="#5D0503" /><rect x="139" y="394" width="51" height="17" fill="#5D0503" /><rect x="224" y="394" width="102" height="17" fill="#5D0503" /><rect x="411" y="394" width="34" height="17" fill="#5D0503" /><rect x="54" y="411" width="68" height="17" fill="#5D0503" /><rect x="139" y="411" width="238" height="17" fill="#5D0503" /><rect x="394" y="411" width="51" height="17" fill="#5D0503" /><rect x="54" y="428" width="17" height="17" fill="#5D0503" /><rect x="88" y="428" width="357" height="17" fill="#5D0503" /><rect x="71" y="428" width="17" height="17" fill="#B75700" /><rect x="343" y="343" width="17" height="17" fill="#FF1800" /><rect x="241" y="343" width="17" height="17" fill="#FF1800" /><rect x="258" y="258" width="17" height="17" fill="#B75700" /><rect x="292" y="241" width="17" height="17" fill="#FF1800" /><rect x="88" y="139" width="17" height="17" fill="#B75700" /><rect x="71" y="122" width="17" height="17" fill="#B75700" /><rect x="105" y="88" width="17" height="17" fill="#B75700" /></svg>