<svg xmlns="http://www.w3.org/2000/svg" preserveAspectRatio="xMinYMin meet" viewBox="0 0 500 500" shape-rendering="crispEdges" transform-origin="center"><rect width="100%" height="100%" fill="#006669" /><g transform="scale (5 5)"><rect x="13" y="-1" width="74" height="9" stroke-width="0.3" stroke="black" fill="#FFA800" /><text x="50" y="5.5" width="102" font-family="monospace" font-size="4" text-anchor="middle">Howling Temple of the Viper</text></g><rect x="61" y="61" width="378" height="18" fill="#004238" /><rect x="61" y="79" width="18" height="18" fill="#004238" /><rect x="97" y="79" width="342" height="18" fill="#004238" /><rect x="61" y="97" width="378" height="18" fill="#004238" /><rect x="61" y="115" width="342" height="18" fill="#004238" /><rect x="421" y="115" width="18" height="18" fill="#004238" /><rect x="61" y="133" width="270" height="18" fill="#004238" /><rect x="349" y="133" width="54" height="18" fill="#004238" /><rect x="421" y="133" width="18" height="18" fill="#004238" /><rect x="61" y="151" width="270" height="18" fill="#004238" /><rect x="367" y="151" width="36" height="18" fill="#004238" /><rect x="421" y="151" width="18" height="18" fill="#004238" /><rect x="61" y="169" width="288" height="18" fill="#004238" /><rect x="421" y="169" width="18" height="18" fill="#004238" /><rect x="61" y="187" width="342" height="18" fill="#004238" /><rect x="61" y="205" width="306" height="18" fill="#004238" /><rect x="385" y="205" width="36" height="18" fill="#004238" /><rect x="61" y="223" width="288" height="18" fill="#004238" /><rect x="403" y="223" width="36" height="18" fill="#004238" /><rect x="61" y="241" width="198" height="18" fill="#004238" /><rect x="295" y="241" width="72" height="18" fill="#004238" /><rect x="61" y="259" width="216" height="18" fill="#004238" /><rect x="313" y="259" width="126" height="18" fill="#004238" /><rect x="61" y="277" width="234" height="18" fill="#004238" /><rect x="61" y="295" width="342" height="18" fill="#004238" /><rect x="421" y="295" width="18" height="18" fill="#004238" /><rect x="61" y="313" width="234" height="18" fill="#004238" /><rect x="313" y="313" width="90" height="18" fill="#004238" /><rect x="421" y="313" width="18" height="18" fill="#004238" /><rect x="61" y="331" width="198" height="18" fill="#004238" /><rect x="331" y="331" width="18" height="18" fill="#004238" /><rect x="367" y="331" width="36" height="18" fill="#004238" /><rect x="61" y="349" width="162" height="18" fill="#004238" /><rect x="421" y="349" width="18" height="18" fill="#004238" /><rect x="61" y="367" width="126" height="18" fill="#004238" /><rect x="241" y="367" width="36" height="18" fill="#004238" /><rect x="61" y="385" width="126" height="18" fill="#004238" /><rect x="205" y="385" width="108" height="18" fill="#004238" /><rect x="61" y="403" width="216" height="18" fill="#004238" /><rect x="349" y="403" width="18" height="18" fill="#004238" /><rect x="61" y="421" width="162" height="18" fill="#004238" /><rect x="295" y="421" width="18" height="18" fill="#004238" /><rect x="259" y="421" width="18" height="18" fill="#967E67" /><rect x="349" y="385" width="18" height="18" fill="#967E67" /><rect x="403" y="367" width="18" height="18" fill="#967E67" /><rect x="349" y="367" width="18" height="18" fill="#F9B569" /><rect x="295" y="367" width="18" height="18" fill="#967E67" /><rect x="313" y="331" width="18" height="18" fill="#967E67" /></svg>