<svg xmlns="http://www.w3.org/2000/svg" preserveAspectRatio="xMinYMin meet" viewBox="0 0 500 500" shape-rendering="crispEdges" transform-origin="center"><rect width="100%" height="100%" fill="#340D07" /><g transform="scale (5 5)"><rect x="13" y="-1" width="74" height="9" stroke-width="0.3" stroke="black" fill="#FFA800" /><text x="50" y="5.5" width="102" font-family="monospace" font-size="4" text-anchor="middle">Collapsed Halls of the Root</text></g><rect x="54" y="54" width="391" height="17" fill="#5D0503" /><rect x="54" y="71" width="17" height="17" fill="#5D0503" /><rect x="156" y="71" width="289" height="17" fill="#5D0503" /><rect x="54" y="88" width="17" height="17" fill="#5D0503" /><rect x="156" y="88" width="289" height="17" fill="#5D0503" /><rect x="54" y="105" width="17" height="17" fill="#5D0503" /><rect x="275" y="105" width="170" height="17" fill="#5D0503" /><rect x="54" y="122" width="17" height="17" fill="#5D0503" /><rect x="156" y="122" width="102" height="17" fill="#5D0503" /><rect x="275" y="122" width="170" height="17" fill="#5D0503" /><rect x="54" y="139" width="17" height="17" fill="#5D0503" /><rect x="156" y="139" width="102" height="17" fill="#5D0503" /><rect x="275" y="139" width="170" height="17" fill="#5D0503" /><rect x="54" y="156" width="34" height="17" fill="#5D0503" /><rect x="173" y="156" width="85" height="17" fill="#5D0503" /><rect x="275" y="156" width="170" height="17" fill="#5D0503" /><rect x="54" y="173" width="34" height="17" fill="#5D0503" /><rect x="173" y="173" width="85" height="17" fill="#5D0503" /><rect x="275" y="173" width="170" height="17" fill="#5D0503" /><rect x="54" y="190" width="34" height="17" fill="#5D0503" /><rect x="173" y="190" width="85" height="17" fill="#5D0503" /><rect x="275" y="190" width="170" height="17" fill="#5D0503" /><rect x="54" y="207" width="51" height="17" fill="#5D0503" /><rect x="156" y="207" width="102" height="17" fill="#5D0503" /><rect x="275" y="207" width="170" height="17" fill="#5D0503" /><rect x="54" y="224" width="17" height="17" fill="#5D0503" /><rect x="207" y="224" width="51" height="17" fill="#5D0503" /><rect x="275" y="224" width="170" height="17" fill="#5D0503" /><rect x="54" y="241" width="17" height="17" fill="#5D0503" /><rect x="292" y="241" width="153" height="17" fill="#5D0503" /><rect x="54" y="258" width="17" height="17" fill="#5D0503" /><rect x="292" y="258" width="153" height="17" fill="#5D0503" /><rect x="54" y="275" width="17" height="17" fill="#5D0503" /><rect x="224" y="275" width="34" height="17" fill="#5D0503" /><rect x="275" y="275" width="170" height="17" fill="#5D0503" /><rect x="54" y="292" width="34" height="17" fill="#5D0503" /><rect x="292" y="292" width="153" height="17" fill="#5D0503" /><rect x="54" y="309" width="17" height="17" fill="#5D0503" /><rect x="292" y="309" width="153" height="17" fill="#5D0503" /><rect x="54" y="326" width="17" height="17" fill="#5D0503" /><rect x="377" y="326" width="68" height="17" fill="#5D0503" /><rect x="54" y="343" width="17" height="17" fill="#5D0503" /><rect x="275" y="343" width="85" height="17" fill="#5D0503" /><rect x="377" y="343" width="68" height="17" fill="#5D0503" /><rect x="54" y="360" width="17" height="17" fill="#5D0503" /><rect x="275" y="360" width="68" height="17" fill="#5D0503" /><rect x="394" y="360" width="51" height="17" fill="#5D0503" /><rect x="54" y="377" width="17" height="17" fill="#5D0503" /><rect x="275" y="377" width="68" height="17" fill="#5D0503" /><rect x="394" y="377" width="51" height="17" fill="#5D0503" /><rect x="54" y="394" width="17" height="17" fill="#5D0503" /><rect x="139" y="394" width="34" height="17" fill="#5D0503" /><rect x="207" y="394" width="136" height="17" fill="#5D0503" /><rect x="394" y="394" width="51" height="17" fill="#5D0503" /><rect x="54" y="411" width="391" height="17" fill="#5D0503" /><rect x="54" y="428" width="391" height="17" fill="#5D0503" /><rect x="224" y="377" width="17" height="17" fill="#B75700" /><rect x="71" y="105" width="17" height="17" fill="#FF1800" /></svg>