<svg xmlns="http://www.w3.org/2000/svg" preserveAspectRatio="xMinYMin meet" viewBox="0 0 500 500" shape-rendering="crispEdges" transform-origin="center"><rect width="100%" height="100%" fill="#36230F" /><g transform="scale (5 5)"><rect x="12" y="-1" width="76" height="9" stroke-width="0.3" stroke="black" fill="#FFA800" /><text x="50" y="5.5" width="105" font-family="monospace" font-size="4" text-anchor="middle">Glowing Passage of the Storm</text></g><rect x="60" y="60" width="380" height="20" fill="#744936" /><rect x="60" y="80" width="380" height="20" fill="#744936" /><rect x="60" y="100" width="380" height="20" fill="#744936" /><rect x="60" y="120" width="160" height="20" fill="#744936" /><rect x="280" y="120" width="160" height="20" fill="#744936" /><rect x="60" y="140" width="160" height="20" fill="#744936" /><rect x="380" y="140" width="60" height="20" fill="#744936" /><rect x="60" y="160" width="180" height="20" fill="#744936" /><rect x="260" y="160" width="100" height="20" fill="#744936" /><rect x="380" y="160" width="60" height="20" fill="#744936" /><rect x="60" y="180" width="80" height="20" fill="#744936" /><rect x="220" y="180" width="20" height="20" fill="#744936" /><rect x="260" y="180" width="100" height="20" fill="#744936" /><rect x="380" y="180" width="60" height="20" fill="#744936" /><rect x="60" y="200" width="80" height="20" fill="#744936" /><rect x="220" y="200" width="20" height="20" fill="#744936" /><rect x="260" y="200" width="100" height="20" fill="#744936" /><rect x="380" y="200" width="60" height="20" fill="#744936" /><rect x="60" y="220" width="80" height="20" fill="#744936" /><rect x="240" y="220" width="120" height="20" fill="#744936" /><rect x="380" y="220" width="60" height="20" fill="#744936" /><rect x="60" y="240" width="80" height="20" fill="#744936" /><rect x="220" y="240" width="140" height="20" fill="#744936" /><rect x="380" y="240" width="60" height="20" fill="#744936" /><rect x="60" y="260" width="80" height="20" fill="#744936" /><rect x="220" y="260" width="140" height="20" fill="#744936" /><rect x="380" y="260" width="60" height="20" fill="#744936" /><rect x="60" y="280" width="20" height="20" fill="#744936" /><rect x="140" y="280" width="40" height="20" fill="#744936" /><rect x="200" y="280" width="140" height="20" fill="#744936" /><rect x="400" y="280" width="40" height="20" fill="#744936" /><rect x="60" y="300" width="20" height="20" fill="#744936" /><rect x="400" y="300" width="40" height="20" fill="#744936" /><rect x="60" y="320" width="20" height="20" fill="#744936" /><rect x="320" y="320" width="120" height="20" fill="#744936" /><rect x="60" y="340" width="20" height="20" fill="#744936" /><rect x="140" y="340" width="100" height="20" fill="#744936" /><rect x="320" y="340" width="120" height="20" fill="#744936" /><rect x="60" y="360" width="20" height="20" fill="#744936" /><rect x="140" y="360" width="100" height="20" fill="#744936" /><rect x="320" y="360" width="120" height="20" fill="#744936" /><rect x="60" y="380" width="380" height="20" fill="#744936" /><rect x="60" y="400" width="380" height="20" fill="#744936" /><rect x="60" y="420" width="380" height="20" fill="#744936" /><rect x="140" y="320" width="20" height="20" fill="#802F1A" /><rect x="240" y="160" width="20" height="20" fill="#802F1A" /><rect x="260" y="140" width="20" height="20" fill="#FFA800" /></svg>