<svg xmlns="http://www.w3.org/2000/svg" preserveAspectRatio="xMinYMin meet" viewBox="0 0 500 500" shape-rendering="crispEdges" transform-origin="center"><rect width="100%" height="100%" fill="#2F590E" /><g transform="scale (5 5)"><rect x="24" y="-1" width="51" height="9" stroke-width="0.3" stroke="black" fill="#FFA800" /><text x="50" y="5.5" width="42" font-family="monospace" font-size="5" text-anchor="middle">Desolate Field</text></g><rect x="54" y="54" width="391" height="17" fill="#A98C00" /><rect x="54" y="71" width="221" height="17" fill="#A98C00" /><rect x="326" y="71" width="119" height="17" fill="#A98C00" /><rect x="54" y="88" width="17" height="17" fill="#A98C00" /><rect x="173" y="88" width="102" height="17" fill="#A98C00" /><rect x="326" y="88" width="119" height="17" fill="#A98C00" /><rect x="54" y="105" width="17" height="17" fill="#A98C00" /><rect x="173" y="105" width="102" height="17" fill="#A98C00" /><rect x="326" y="105" width="119" height="17" fill="#A98C00" /><rect x="54" y="122" width="68" height="17" fill="#A98C00" /><rect x="139" y="122" width="17" height="17" fill="#A98C00" /><rect x="173" y="122" width="102" height="17" fill="#A98C00" /><rect x="326" y="122" width="119" height="17" fill="#A98C00" /><rect x="54" y="139" width="68" height="17" fill="#A98C00" /><rect x="139" y="139" width="17" height="17" fill="#A98C00" /><rect x="173" y="139" width="119" height="17" fill="#A98C00" /><rect x="309" y="139" width="136" height="17" fill="#A98C00" /><rect x="54" y="156" width="68" height="17" fill="#A98C00" /><rect x="139" y="156" width="17" height="17" fill="#A98C00" /><rect x="173" y="156" width="119" height="17" fill="#A98C00" /><rect x="326" y="156" width="119" height="17" fill="#A98C00" /><rect x="54" y="173" width="51" height="17" fill="#A98C00" /><rect x="326" y="173" width="119" height="17" fill="#A98C00" /><rect x="54" y="190" width="51" height="17" fill="#A98C00" /><rect x="139" y="190" width="17" height="17" fill="#A98C00" /><rect x="173" y="190" width="119" height="17" fill="#A98C00" /><rect x="326" y="190" width="17" height="17" fill="#A98C00" /><rect x="377" y="190" width="68" height="17" fill="#A98C00" /><rect x="54" y="207" width="51" height="17" fill="#A98C00" /><rect x="207" y="207" width="85" height="17" fill="#A98C00" /><rect x="326" y="207" width="17" height="17" fill="#A98C00" /><rect x="377" y="207" width="68" height="17" fill="#A98C00" /><rect x="54" y="224" width="51" height="17" fill="#A98C00" /><rect x="377" y="224" width="68" height="17" fill="#A98C00" /><rect x="54" y="241" width="34" height="17" fill="#A98C00" /><rect x="377" y="241" width="68" height="17" fill="#A98C00" /><rect x="54" y="258" width="34" height="17" fill="#A98C00" /><rect x="190" y="258" width="17" height="17" fill="#A98C00" /><rect x="224" y="258" width="68" height="17" fill="#A98C00" /><rect x="326" y="258" width="17" height="17" fill="#A98C00" /><rect x="377" y="258" width="68" height="17" fill="#A98C00" /><rect x="54" y="275" width="34" height="17" fill="#A98C00" /><rect x="241" y="275" width="51" height="17" fill="#A98C00" /><rect x="326" y="275" width="34" height="17" fill="#A98C00" /><rect x="377" y="275" width="68" height="17" fill="#A98C00" /><rect x="54" y="292" width="34" height="17" fill="#A98C00" /><rect x="326" y="292" width="34" height="17" fill="#A98C00" /><rect x="377" y="292" width="68" height="17" fill="#A98C00" /><rect x="54" y="309" width="34" height="17" fill="#A98C00" /><rect x="326" y="309" width="34" height="17" fill="#A98C00" /><rect x="377" y="309" width="68" height="17" fill="#A98C00" /><rect x="54" y="326" width="34" height="17" fill="#A98C00" /><rect x="309" y="326" width="51" height="17" fill="#A98C00" /><rect x="377" y="326" width="68" height="17" fill="#A98C00" /><rect x="54" y="343" width="34" height="17" fill="#A98C00" /><rect x="309" y="343" width="51" height="17" fill="#A98C00" /><rect x="377" y="343" width="68" height="17" fill="#A98C00" /><rect x="54" y="360" width="34" height="17" fill="#A98C00" /><rect x="411" y="360" width="34" height="17" fill="#A98C00" /><rect x="54" y="377" width="34" height="17" fill="#A98C00" /><rect x="411" y="377" width="34" height="17" fill="#A98C00" /><rect x="54" y="394" width="34" height="17" fill="#A98C00" /><rect x="258" y="394" width="51" height="17" fill="#A98C00" /><rect x="411" y="394" width="34" height="17" fill="#A98C00" /><rect x="54" y="411" width="391" height="17" fill="#A98C00" /><rect x="54" y="428" width="391" height="17" fill="#A98C00" /><rect x="224" y="377" width="17" height="17" fill="#C55300" /><rect x="190" y="377" width="17" height="17" fill="#C55300" /><rect x="292" y="360" width="17" height="17" fill="#802F1A" /><rect x="122" y="360" width="17" height="17" fill="#C55300" /><rect x="343" y="241" width="17" height="17" fill="#C55300" /><rect x="122" y="139" width="17" height="17" fill="#802F1A" /></svg>