<svg xmlns="http://www.w3.org/2000/svg" preserveAspectRatio="xMinYMin meet" viewBox="0 0 500 500" shape-rendering="crispEdges" transform-origin="center"><rect width="100%" height="100%" fill="#006669" /><g transform="scale (5 5)"><rect x="36" y="-1" width="27" height="9" stroke-width="0.3" stroke="black" fill="#FFA800" /><text x="50" y="5.5" width="18" font-family="monospace" font-size="5" text-anchor="middle">Sewers</text></g><rect x="81" y="81" width="26" height="26" fill="#004238" /><rect x="133" y="81" width="286" height="26" fill="#004238" /><rect x="81" y="107" width="52" height="26" fill="#004238" /><rect x="289" y="107" width="130" height="26" fill="#004238" /><rect x="81" y="133" width="52" height="26" fill="#004238" /><rect x="237" y="133" width="26" height="26" fill="#004238" /><rect x="289" y="133" width="130" height="26" fill="#004238" /><rect x="81" y="159" width="26" height="26" fill="#004238" /><rect x="133" y="159" width="26" height="26" fill="#004238" /><rect x="185" y="159" width="26" height="26" fill="#004238" /><rect x="237" y="159" width="26" height="26" fill="#004238" /><rect x="289" y="159" width="130" height="26" fill="#004238" /><rect x="81" y="185" width="26" height="26" fill="#004238" /><rect x="133" y="185" width="26" height="26" fill="#004238" /><rect x="289" y="185" width="130" height="26" fill="#004238" /><rect x="81" y="211" width="26" height="26" fill="#004238" /><rect x="133" y="211" width="52" height="26" fill="#004238" /><rect x="263" y="211" width="156" height="26" fill="#004238" /><rect x="81" y="237" width="26" height="26" fill="#004238" /><rect x="263" y="237" width="156" height="26" fill="#004238" /><rect x="81" y="263" width="78" height="26" fill="#004238" /><rect x="185" y="263" width="26" height="26" fill="#004238" /><rect x="263" y="263" width="156" height="26" fill="#004238" /><rect x="81" y="289" width="78" height="26" fill="#004238" /><rect x="237" y="289" width="182" height="26" fill="#004238" /><rect x="81" y="315" width="104" height="26" fill="#004238" /><rect x="263" y="315" width="156" height="26" fill="#004238" /><rect x="81" y="341" width="130" height="26" fill="#004238" /><rect x="289" y="341" width="130" height="26" fill="#004238" /><rect x="81" y="367" width="182" height="26" fill="#004238" /><rect x="315" y="367" width="104" height="26" fill="#004238" /><rect x="81" y="393" width="338" height="26" fill="#004238" /><rect x="159" y="107" width="26" height="26" fill="#F9B569" /></svg>