<svg xmlns="http://www.w3.org/2000/svg" preserveAspectRatio="xMinYMin meet" viewBox="0 0 500 500" shape-rendering="crispEdges" transform-origin="center"><rect width="100%" height="100%" fill="#340D07" /><g transform="scale (5 5)"><rect x="36" y="-1" width="27" height="9" stroke-width="0.3" stroke="black" fill="#FFA800" /><text x="50" y="5.5" width="18" font-family="monospace" font-size="5" text-anchor="middle">Valley</text></g><rect x="74" y="74" width="352" height="22" fill="#5D0503" /><rect x="74" y="96" width="352" height="22" fill="#5D0503" /><rect x="74" y="118" width="44" height="22" fill="#5D0503" /><rect x="184" y="118" width="176" height="22" fill="#5D0503" /><rect x="74" y="140" width="88" height="22" fill="#5D0503" /><rect x="184" y="140" width="154" height="22" fill="#5D0503" /><rect x="74" y="162" width="66" height="22" fill="#5D0503" /><rect x="206" y="162" width="132" height="22" fill="#5D0503" /><rect x="74" y="184" width="110" height="22" fill="#5D0503" /><rect x="206" y="184" width="154" height="22" fill="#5D0503" /><rect x="382" y="184" width="22" height="22" fill="#5D0503" /><rect x="74" y="206" width="66" height="22" fill="#5D0503" /><rect x="206" y="206" width="154" height="22" fill="#5D0503" /><rect x="74" y="228" width="66" height="22" fill="#5D0503" /><rect x="250" y="228" width="132" height="22" fill="#5D0503" /><rect x="74" y="250" width="88" height="22" fill="#5D0503" /><rect x="206" y="250" width="22" height="22" fill="#5D0503" /><rect x="250" y="250" width="132" height="22" fill="#5D0503" /><rect x="96" y="272" width="44" height="22" fill="#5D0503" /><rect x="206" y="272" width="22" height="22" fill="#5D0503" /><rect x="250" y="272" width="154" height="22" fill="#5D0503" /><rect x="74" y="294" width="88" height="22" fill="#5D0503" /><rect x="206" y="294" width="22" height="22" fill="#5D0503" /><rect x="250" y="294" width="154" height="22" fill="#5D0503" /><rect x="74" y="316" width="66" height="22" fill="#5D0503" /><rect x="250" y="316" width="176" height="22" fill="#5D0503" /><rect x="74" y="338" width="110" height="22" fill="#5D0503" /><rect x="272" y="338" width="154" height="22" fill="#5D0503" /><rect x="74" y="360" width="110" height="22" fill="#5D0503" /><rect x="272" y="360" width="154" height="22" fill="#5D0503" /><rect x="74" y="382" width="110" height="22" fill="#5D0503" /><rect x="228" y="382" width="22" height="22" fill="#5D0503" /><rect x="272" y="382" width="154" height="22" fill="#5D0503" /><rect x="74" y="404" width="22" height="22" fill="#5D0503" /><rect x="140" y="404" width="22" height="22" fill="#5D0503" /><rect x="228" y="404" width="22" height="22" fill="#5D0503" /><rect x="272" y="404" width="154" height="22" fill="#5D0503" /><rect x="382" y="162" width="22" height="22" fill="#FF1800" /><rect x="140" y="118" width="22" height="22" fill="#B75700" /></svg>