<svg xmlns="http://www.w3.org/2000/svg" preserveAspectRatio="xMinYMin meet" viewBox="0 0 500 500" shape-rendering="crispEdges" transform-origin="center"><rect width="100%" height="100%" fill="#340D07" /><g transform="scale (5 5)"><rect x="21" y="-1" width="57" height="9" stroke-width="0.3" stroke="black" fill="#FFA800" /><text x="50" y="5.5" width="48" font-family="monospace" font-size="5" text-anchor="middle">Tunnel of Honour</text></g><rect x="58" y="58" width="160" height="16" fill="#5D0503" /><rect x="234" y="58" width="160" height="16" fill="#5D0503" /><rect x="410" y="58" width="32" height="16" fill="#5D0503" /><rect x="58" y="74" width="160" height="16" fill="#5D0503" /><rect x="234" y="74" width="48" height="16" fill="#5D0503" /><rect x="298" y="74" width="144" height="16" fill="#5D0503" /><rect x="58" y="90" width="160" height="16" fill="#5D0503" /><rect x="298" y="90" width="144" height="16" fill="#5D0503" /><rect x="58" y="106" width="16" height="16" fill="#5D0503" /><rect x="122" y="106" width="80" height="16" fill="#5D0503" /><rect x="234" y="106" width="48" height="16" fill="#5D0503" /><rect x="314" y="106" width="128" height="16" fill="#5D0503" /><rect x="58" y="122" width="16" height="16" fill="#5D0503" /><rect x="106" y="122" width="112" height="16" fill="#5D0503" /><rect x="234" y="122" width="64" height="16" fill="#5D0503" /><rect x="330" y="122" width="112" height="16" fill="#5D0503" /><rect x="58" y="138" width="32" height="16" fill="#5D0503" /><rect x="106" y="138" width="112" height="16" fill="#5D0503" /><rect x="234" y="138" width="80" height="16" fill="#5D0503" /><rect x="330" y="138" width="112" height="16" fill="#5D0503" /><rect x="58" y="154" width="32" height="16" fill="#5D0503" /><rect x="106" y="154" width="112" height="16" fill="#5D0503" /><rect x="266" y="154" width="48" height="16" fill="#5D0503" /><rect x="330" y="154" width="112" height="16" fill="#5D0503" /><rect x="58" y="170" width="32" height="16" fill="#5D0503" /><rect x="122" y="170" width="112" height="16" fill="#5D0503" /><rect x="266" y="170" width="48" height="16" fill="#5D0503" /><rect x="330" y="170" width="112" height="16" fill="#5D0503" /><rect x="58" y="186" width="32" height="16" fill="#5D0503" /><rect x="122" y="186" width="112" height="16" fill="#5D0503" /><rect x="282" y="186" width="16" height="16" fill="#5D0503" /><rect x="330" y="186" width="112" height="16" fill="#5D0503" /><rect x="58" y="202" width="32" height="16" fill="#5D0503" /><rect x="106" y="202" width="32" height="16" fill="#5D0503" /><rect x="154" y="202" width="64" height="16" fill="#5D0503" /><rect x="282" y="202" width="16" height="16" fill="#5D0503" /><rect x="314" y="202" width="128" height="16" fill="#5D0503" /><rect x="58" y="218" width="16" height="16" fill="#5D0503" /><rect x="106" y="218" width="32" height="16" fill="#5D0503" /><rect x="154" y="218" width="64" height="16" fill="#5D0503" /><rect x="314" y="218" width="128" height="16" fill="#5D0503" /><rect x="58" y="234" width="16" height="16" fill="#5D0503" /><rect x="90" y="234" width="48" height="16" fill="#5D0503" /><rect x="154" y="234" width="64" height="16" fill="#5D0503" /><rect x="250" y="234" width="16" height="16" fill="#5D0503" /><rect x="298" y="234" width="144" height="16" fill="#5D0503" /><rect x="58" y="250" width="16" height="16" fill="#5D0503" /><rect x="90" y="250" width="16" height="16" fill="#5D0503" /><rect x="154" y="250" width="80" height="16" fill="#5D0503" /><rect x="250" y="250" width="16" height="16" fill="#5D0503" /><rect x="298" y="250" width="144" height="16" fill="#5D0503" /><rect x="58" y="266" width="16" height="16" fill="#5D0503" /><rect x="90" y="266" width="16" height="16" fill="#5D0503" /><rect x="122" y="266" width="80" height="16" fill="#5D0503" /><rect x="314" y="266" width="128" height="16" fill="#5D0503" /><rect x="58" y="282" width="16" height="16" fill="#5D0503" /><rect x="138" y="282" width="64" height="16" fill="#5D0503" /><rect x="314" y="282" width="128" height="16" fill="#5D0503" /><rect x="58" y="298" width="16" height="16" fill="#5D0503" /><rect x="106" y="298" width="112" height="16" fill="#5D0503" /><rect x="234" y="298" width="48" height="16" fill="#5D0503" /><rect x="314" y="298" width="112" height="16" fill="#5D0503" /><rect x="58" y="314" width="32" height="16" fill="#5D0503" /><rect x="154" y="314" width="64" height="16" fill="#5D0503" /><rect x="314" y="314" width="112" height="16" fill="#5D0503" /><rect x="58" y="330" width="32" height="16" fill="#5D0503" /><rect x="106" y="330" width="16" height="16" fill="#5D0503" /><rect x="138" y="330" width="112" height="16" fill="#5D0503" /><rect x="330" y="330" width="96" height="16" fill="#5D0503" /><rect x="58" y="346" width="32" height="16" fill="#5D0503" /><rect x="106" y="346" width="16" height="16" fill="#5D0503" /><rect x="170" y="346" width="80" height="16" fill="#5D0503" /><rect x="298" y="346" width="16" height="16" fill="#5D0503" /><rect x="378" y="346" width="48" height="16" fill="#5D0503" /><rect x="58" y="362" width="32" height="16" fill="#5D0503" /><rect x="106" y="362" width="48" height="16" fill="#5D0503" /><rect x="186" y="362" width="80" height="16" fill="#5D0503" /><rect x="298" y="362" width="64" height="16" fill="#5D0503" /><rect x="378" y="362" width="48" height="16" fill="#5D0503" /><rect x="58" y="378" width="16" height="16" fill="#5D0503" /><rect x="218" y="378" width="32" height="16" fill="#5D0503" /><rect x="298" y="378" width="64" height="16" fill="#5D0503" /><rect x="394" y="378" width="32" height="16" fill="#5D0503" /><rect x="58" y="394" width="32" height="16" fill="#5D0503" /><rect x="106" y="394" width="128" height="16" fill="#5D0503" /><rect x="298" y="394" width="80" height="16" fill="#5D0503" /><rect x="58" y="410" width="16" height="16" fill="#5D0503" /><rect x="106" y="410" width="112" height="16" fill="#5D0503" /><rect x="298" y="410" width="80" height="16" fill="#5D0503" /><rect x="410" y="410" width="32" height="16" fill="#5D0503" /><rect x="58" y="426" width="32" height="16" fill="#5D0503" /><rect x="106" y="426" width="96" height="16" fill="#5D0503" /><rect x="234" y="426" width="32" height="16" fill="#5D0503" /><rect x="298" y="426" width="64" height="16" fill="#5D0503" /><rect x="410" y="426" width="32" height="16" fill="#5D0503" /><rect x="218" y="426" width="16" height="16" fill="#FF1800" /><rect x="378" y="378" width="16" height="16" fill="#B75700" /><rect x="122" y="378" width="16" height="16" fill="#FF1800" /><rect x="282" y="314" width="16" height="16" fill="#FF1800" /><rect x="234" y="282" width="16" height="16" fill="#B75700" /><rect x="218" y="282" width="16" height="16" fill="#FF1800" /><rect x="74" y="282" width="16" height="16" fill="#FF1800" /><rect x="314" y="122" width="16" height="16" fill="#B75700" /><rect x="250" y="90" width="16" height="16" fill="#B75700" /><rect x="282" y="74" width="16" height="16" fill="#FF1800" /></svg>