<svg xmlns="http://www.w3.org/2000/svg" preserveAspectRatio="xMinYMin meet" viewBox="0 0 500 500" shape-rendering="crispEdges" transform-origin="center"><rect width="100%" height="100%" fill="#F3D899" /><g transform="scale (5 5)"><rect x="15" y="-1" width="69" height="9" stroke-width="0.3" stroke="black" fill="#FFA800" /><text x="50" y="5.5" width="60" font-family="monospace" font-size="5" text-anchor="middle">Shrine of the Kraken</text></g><rect x="58" y="58" width="16" height="16" fill="#160F09" /><rect x="90" y="58" width="352" height="16" fill="#160F09" /><rect x="58" y="74" width="176" height="16" fill="#160F09" /><rect x="266" y="74" width="176" height="16" fill="#160F09" /><rect x="58" y="90" width="64" height="16" fill="#160F09" /><rect x="138" y="90" width="96" height="16" fill="#160F09" /><rect x="250" y="90" width="192" height="16" fill="#160F09" /><rect x="58" y="106" width="16" height="16" fill="#160F09" /><rect x="138" y="106" width="96" height="16" fill="#160F09" /><rect x="250" y="106" width="32" height="16" fill="#160F09" /><rect x="298" y="106" width="144" height="16" fill="#160F09" /><rect x="58" y="122" width="48" height="16" fill="#160F09" /><rect x="122" y="122" width="112" height="16" fill="#160F09" /><rect x="250" y="122" width="32" height="16" fill="#160F09" /><rect x="298" y="122" width="144" height="16" fill="#160F09" /><rect x="58" y="138" width="48" height="16" fill="#160F09" /><rect x="138" y="138" width="96" height="16" fill="#160F09" /><rect x="250" y="138" width="32" height="16" fill="#160F09" /><rect x="298" y="138" width="144" height="16" fill="#160F09" /><rect x="58" y="154" width="64" height="16" fill="#160F09" /><rect x="138" y="154" width="32" height="16" fill="#160F09" /><rect x="186" y="154" width="48" height="16" fill="#160F09" /><rect x="250" y="154" width="32" height="16" fill="#160F09" /><rect x="298" y="154" width="144" height="16" fill="#160F09" /><rect x="58" y="170" width="48" height="16" fill="#160F09" /><rect x="138" y="170" width="16" height="16" fill="#160F09" /><rect x="186" y="170" width="48" height="16" fill="#160F09" /><rect x="250" y="170" width="32" height="16" fill="#160F09" /><rect x="298" y="170" width="144" height="16" fill="#160F09" /><rect x="58" y="186" width="64" height="16" fill="#160F09" /><rect x="170" y="186" width="64" height="16" fill="#160F09" /><rect x="298" y="186" width="144" height="16" fill="#160F09" /><rect x="58" y="202" width="80" height="16" fill="#160F09" /><rect x="186" y="202" width="48" height="16" fill="#160F09" /><rect x="282" y="202" width="160" height="16" fill="#160F09" /><rect x="58" y="218" width="80" height="16" fill="#160F09" /><rect x="186" y="218" width="48" height="16" fill="#160F09" /><rect x="266" y="218" width="176" height="16" fill="#160F09" /><rect x="58" y="234" width="96" height="16" fill="#160F09" /><rect x="202" y="234" width="32" height="16" fill="#160F09" /><rect x="282" y="234" width="160" height="16" fill="#160F09" /><rect x="58" y="250" width="80" height="16" fill="#160F09" /><rect x="202" y="250" width="48" height="16" fill="#160F09" /><rect x="298" y="250" width="144" height="16" fill="#160F09" /><rect x="58" y="266" width="80" height="16" fill="#160F09" /><rect x="154" y="266" width="16" height="16" fill="#160F09" /><rect x="202" y="266" width="48" height="16" fill="#160F09" /><rect x="314" y="266" width="32" height="16" fill="#160F09" /><rect x="362" y="266" width="80" height="16" fill="#160F09" /><rect x="58" y="282" width="80" height="16" fill="#160F09" /><rect x="202" y="282" width="48" height="16" fill="#160F09" /><rect x="298" y="282" width="48" height="16" fill="#160F09" /><rect x="362" y="282" width="80" height="16" fill="#160F09" /><rect x="58" y="298" width="80" height="16" fill="#160F09" /><rect x="154" y="298" width="16" height="16" fill="#160F09" /><rect x="298" y="298" width="48" height="16" fill="#160F09" /><rect x="378" y="298" width="64" height="16" fill="#160F09" /><rect x="58" y="314" width="80" height="16" fill="#160F09" /><rect x="154" y="314" width="16" height="16" fill="#160F09" /><rect x="234" y="314" width="16" height="16" fill="#160F09" /><rect x="282" y="314" width="48" height="16" fill="#160F09" /><rect x="362" y="314" width="80" height="16" fill="#160F09" /><rect x="58" y="330" width="48" height="16" fill="#160F09" /><rect x="154" y="330" width="16" height="16" fill="#160F09" /><rect x="202" y="330" width="16" height="16" fill="#160F09" /><rect x="282" y="330" width="48" height="16" fill="#160F09" /><rect x="346" y="330" width="96" height="16" fill="#160F09" /><rect x="58" y="346" width="48" height="16" fill="#160F09" /><rect x="138" y="346" width="32" height="16" fill="#160F09" /><rect x="282" y="346" width="32" height="16" fill="#160F09" /><rect x="346" y="346" width="96" height="16" fill="#160F09" /><rect x="58" y="362" width="16" height="16" fill="#160F09" /><rect x="346" y="362" width="96" height="16" fill="#160F09" /><rect x="58" y="378" width="48" height="16" fill="#160F09" /><rect x="170" y="378" width="48" height="16" fill="#160F09" /><rect x="266" y="378" width="176" height="16" fill="#160F09" /><rect x="58" y="394" width="48" height="16" fill="#160F09" /><rect x="170" y="394" width="32" height="16" fill="#160F09" /><rect x="282" y="394" width="160" height="16" fill="#160F09" /><rect x="58" y="410" width="32" height="16" fill="#160F09" /><rect x="138" y="410" width="16" height="16" fill="#160F09" /><rect x="170" y="410" width="16" height="16" fill="#160F09" /><rect x="282" y="410" width="160" height="16" fill="#160F09" /><rect x="58" y="426" width="32" height="16" fill="#160F09" /><rect x="122" y="426" width="16" height="16" fill="#160F09" /><rect x="170" y="426" width="16" height="16" fill="#160F09" /><rect x="266" y="426" width="176" height="16" fill="#160F09" /><rect x="202" y="394" width="16" height="16" fill="#FAAA00" /><rect x="218" y="362" width="16" height="16" fill="#FAAA00" /><rect x="250" y="346" width="16" height="16" fill="#FAAA00" /><rect x="250" y="330" width="16" height="16" fill="#FAAA00" /><rect x="138" y="266" width="16" height="16" fill="#FAAA00" /><rect x="138" y="250" width="16" height="16" fill="#FAAA00" /><rect x="234" y="202" width="16" height="16" fill="#FAAA00" /><rect x="122" y="90" width="16" height="16" fill="#FAAA00" /></svg>