<svg xmlns="http://www.w3.org/2000/svg" preserveAspectRatio="xMinYMin meet" viewBox="0 0 500 500" shape-rendering="crispEdges" transform-origin="center"><rect width="100%" height="100%" fill="#F3D899" /><g transform="scale (5 5)"><rect x="36" y="-1" width="27" height="9" stroke-width="0.3" stroke="black" fill="#FFA800" /><text x="50" y="5.5" width="18" font-family="monospace" font-size="5" text-anchor="middle">Tunnel</text></g><rect x="61" y="61" width="378" height="18" fill="#160F09" /><rect x="61" y="79" width="54" height="18" fill="#160F09" /><rect x="151" y="79" width="288" height="18" fill="#160F09" /><rect x="61" y="97" width="54" height="18" fill="#160F09" /><rect x="241" y="97" width="198" height="18" fill="#160F09" /><rect x="61" y="115" width="54" height="18" fill="#160F09" /><rect x="151" y="115" width="72" height="18" fill="#160F09" /><rect x="241" y="115" width="198" height="18" fill="#160F09" /><rect x="61" y="133" width="18" height="18" fill="#160F09" /><rect x="151" y="133" width="72" height="18" fill="#160F09" /><rect x="241" y="133" width="198" height="18" fill="#160F09" /><rect x="61" y="151" width="18" height="18" fill="#160F09" /><rect x="151" y="151" width="72" height="18" fill="#160F09" /><rect x="241" y="151" width="198" height="18" fill="#160F09" /><rect x="61" y="169" width="18" height="18" fill="#160F09" /><rect x="151" y="169" width="36" height="18" fill="#160F09" /><rect x="295" y="169" width="144" height="18" fill="#160F09" /><rect x="61" y="187" width="18" height="18" fill="#160F09" /><rect x="295" y="187" width="144" height="18" fill="#160F09" /><rect x="61" y="205" width="18" height="18" fill="#160F09" /><rect x="151" y="205" width="72" height="18" fill="#160F09" /><rect x="313" y="205" width="126" height="18" fill="#160F09" /><rect x="61" y="223" width="18" height="18" fill="#160F09" /><rect x="151" y="223" width="72" height="18" fill="#160F09" /><rect x="313" y="223" width="126" height="18" fill="#160F09" /><rect x="61" y="241" width="54" height="18" fill="#160F09" /><rect x="313" y="241" width="126" height="18" fill="#160F09" /><rect x="61" y="259" width="54" height="18" fill="#160F09" /><rect x="151" y="259" width="72" height="18" fill="#160F09" /><rect x="313" y="259" width="126" height="18" fill="#160F09" /><rect x="61" y="277" width="18" height="18" fill="#160F09" /><rect x="151" y="277" width="72" height="18" fill="#160F09" /><rect x="259" y="277" width="180" height="18" fill="#160F09" /><rect x="61" y="295" width="18" height="18" fill="#160F09" /><rect x="259" y="295" width="180" height="18" fill="#160F09" /><rect x="61" y="313" width="18" height="18" fill="#160F09" /><rect x="151" y="313" width="18" height="18" fill="#160F09" /><rect x="277" y="313" width="162" height="18" fill="#160F09" /><rect x="61" y="331" width="72" height="18" fill="#160F09" /><rect x="151" y="331" width="18" height="18" fill="#160F09" /><rect x="277" y="331" width="162" height="18" fill="#160F09" /><rect x="61" y="349" width="72" height="18" fill="#160F09" /><rect x="277" y="349" width="162" height="18" fill="#160F09" /><rect x="61" y="367" width="162" height="18" fill="#160F09" /><rect x="277" y="367" width="162" height="18" fill="#160F09" /><rect x="61" y="385" width="378" height="18" fill="#160F09" /><rect x="61" y="403" width="378" height="18" fill="#160F09" /><rect x="61" y="421" width="378" height="18" fill="#160F09" /><rect x="97" y="313" width="18" height="18" fill="#00A29D" /><rect x="115" y="187" width="18" height="18" fill="#00A29D" /></svg>