<svg xmlns="http://www.w3.org/2000/svg" preserveAspectRatio="xMinYMin meet" viewBox="0 0 500 500" shape-rendering="crispEdges" transform-origin="center"><rect width="100%" height="100%" fill="#006669" /><g transform="scale (5 5)"><rect x="33" y="-1" width="33" height="9" stroke-width="0.3" stroke="black" fill="#FFA800" /><text x="50" y="5.5" width="24" font-family="monospace" font-size="5" text-anchor="middle">Cloister</text></g><rect x="61" y="61" width="378" height="18" fill="#004238" /><rect x="61" y="79" width="18" height="18" fill="#004238" /><rect x="223" y="79" width="18" height="18" fill="#004238" /><rect x="259" y="79" width="18" height="18" fill="#004238" /><rect x="331" y="79" width="54" height="18" fill="#004238" /><rect x="421" y="79" width="18" height="18" fill="#004238" /><rect x="61" y="97" width="18" height="18" fill="#004238" /><rect x="133" y="97" width="18" height="18" fill="#004238" /><rect x="223" y="97" width="18" height="18" fill="#004238" /><rect x="259" y="97" width="18" height="18" fill="#004238" /><rect x="313" y="97" width="54" height="18" fill="#004238" /><rect x="61" y="115" width="36" height="18" fill="#004238" /><rect x="169" y="115" width="36" height="18" fill="#004238" /><rect x="223" y="115" width="18" height="18" fill="#004238" /><rect x="313" y="115" width="36" height="18" fill="#004238" /><rect x="61" y="133" width="36" height="18" fill="#004238" /><rect x="169" y="133" width="36" height="18" fill="#004238" /><rect x="313" y="133" width="36" height="18" fill="#004238" /><rect x="367" y="133" width="36" height="18" fill="#004238" /><rect x="61" y="151" width="54" height="18" fill="#004238" /><rect x="169" y="151" width="54" height="18" fill="#004238" /><rect x="313" y="151" width="36" height="18" fill="#004238" /><rect x="385" y="151" width="18" height="18" fill="#004238" /><rect x="61" y="169" width="72" height="18" fill="#004238" /><rect x="205" y="169" width="18" height="18" fill="#004238" /><rect x="241" y="169" width="18" height="18" fill="#004238" /><rect x="295" y="169" width="72" height="18" fill="#004238" /><rect x="385" y="169" width="36" height="18" fill="#004238" /><rect x="61" y="187" width="72" height="18" fill="#004238" /><rect x="187" y="187" width="36" height="18" fill="#004238" /><rect x="295" y="187" width="54" height="18" fill="#004238" /><rect x="61" y="205" width="72" height="18" fill="#004238" /><rect x="187" y="205" width="36" height="18" fill="#004238" /><rect x="295" y="205" width="90" height="18" fill="#004238" /><rect x="61" y="223" width="90" height="18" fill="#004238" /><rect x="205" y="223" width="18" height="18" fill="#004238" /><rect x="277" y="223" width="90" height="18" fill="#004238" /><rect x="403" y="223" width="18" height="18" fill="#004238" /><rect x="61" y="241" width="180" height="18" fill="#004238" /><rect x="295" y="241" width="72" height="18" fill="#004238" /><rect x="61" y="259" width="180" height="18" fill="#004238" /><rect x="259" y="259" width="18" height="18" fill="#004238" /><rect x="295" y="259" width="90" height="18" fill="#004238" /><rect x="421" y="259" width="18" height="18" fill="#004238" /><rect x="61" y="277" width="144" height="18" fill="#004238" /><rect x="259" y="277" width="18" height="18" fill="#004238" /><rect x="295" y="277" width="90" height="18" fill="#004238" /><rect x="403" y="277" width="36" height="18" fill="#004238" /><rect x="61" y="295" width="144" height="18" fill="#004238" /><rect x="223" y="295" width="18" height="18" fill="#004238" /><rect x="295" y="295" width="90" height="18" fill="#004238" /><rect x="421" y="295" width="18" height="18" fill="#004238" /><rect x="61" y="313" width="144" height="18" fill="#004238" /><rect x="277" y="313" width="108" height="18" fill="#004238" /><rect x="403" y="313" width="36" height="18" fill="#004238" /><rect x="61" y="331" width="198" height="18" fill="#004238" /><rect x="277" y="331" width="108" height="18" fill="#004238" /><rect x="421" y="331" width="18" height="18" fill="#004238" /><rect x="61" y="349" width="198" height="18" fill="#004238" /><rect x="277" y="349" width="108" height="18" fill="#004238" /><rect x="403" y="349" width="36" height="18" fill="#004238" /><rect x="61" y="367" width="180" height="18" fill="#004238" /><rect x="277" y="367" width="108" height="18" fill="#004238" /><rect x="61" y="385" width="180" height="18" fill="#004238" /><rect x="277" y="385" width="144" height="18" fill="#004238" /><rect x="61" y="403" width="360" height="18" fill="#004238" /><rect x="61" y="421" width="360" height="18" fill="#004238" /><rect x="385" y="331" width="18" height="18" fill="#967E67" /><rect x="205" y="313" width="18" height="18" fill="#F9B569" /><rect x="241" y="133" width="18" height="18" fill="#967E67" /><rect x="385" y="115" width="18" height="18" fill="#F9B569" /><rect x="241" y="97" width="18" height="18" fill="#967E67" /></svg>