<svg xmlns="http://www.w3.org/2000/svg" preserveAspectRatio="xMinYMin meet" viewBox="0 0 500 500" shape-rendering="crispEdges" transform-origin="center"><rect width="100%" height="100%" fill="#2F590E" /><g transform="scale (5 5)"><rect x="13" y="-1" width="74" height="9" stroke-width="0.3" stroke="black" fill="#FFA800" /><text x="50" y="5.5" width="102" font-family="monospace" font-size="4" text-anchor="middle">Divine Labyrinth of Needles</text></g><rect x="81" y="81" width="338" height="26" fill="#A98C00" /><rect x="81" y="107" width="130" height="26" fill="#A98C00" /><rect x="263" y="107" width="156" height="26" fill="#A98C00" /><rect x="81" y="133" width="130" height="26" fill="#A98C00" /><rect x="341" y="133" width="78" height="26" fill="#A98C00" /><rect x="81" y="159" width="156" height="26" fill="#A98C00" /><rect x="263" y="159" width="52" height="26" fill="#A98C00" /><rect x="341" y="159" width="78" height="26" fill="#A98C00" /><rect x="81" y="185" width="26" height="26" fill="#A98C00" /><rect x="185" y="185" width="52" height="26" fill="#A98C00" /><rect x="263" y="185" width="52" height="26" fill="#A98C00" /><rect x="341" y="185" width="78" height="26" fill="#A98C00" /><rect x="81" y="211" width="26" height="26" fill="#A98C00" /><rect x="263" y="211" width="52" height="26" fill="#A98C00" /><rect x="341" y="211" width="78" height="26" fill="#A98C00" /><rect x="81" y="237" width="26" height="26" fill="#A98C00" /><rect x="237" y="237" width="78" height="26" fill="#A98C00" /><rect x="341" y="237" width="78" height="26" fill="#A98C00" /><rect x="81" y="263" width="78" height="26" fill="#A98C00" /><rect x="237" y="263" width="52" height="26" fill="#A98C00" /><rect x="367" y="263" width="52" height="26" fill="#A98C00" /><rect x="81" y="289" width="208" height="26" fill="#A98C00" /><rect x="367" y="289" width="52" height="26" fill="#A98C00" /><rect x="81" y="315" width="208" height="26" fill="#A98C00" /><rect x="367" y="315" width="52" height="26" fill="#A98C00" /><rect x="81" y="341" width="338" height="26" fill="#A98C00" /><rect x="81" y="367" width="338" height="26" fill="#A98C00" /><rect x="81" y="393" width="338" height="26" fill="#A98C00" /></svg>