<svg xmlns="http://www.w3.org/2000/svg" preserveAspectRatio="xMinYMin meet" viewBox="0 0 500 500" shape-rendering="crispEdges" transform-origin="center"><rect width="100%" height="100%" fill="#F3D899" /><g transform="scale (5 5)"><rect x="18" y="-1" width="63" height="9" stroke-width="0.3" stroke="black" fill="#FFA800" /><text x="50" y="5.5" width="54" font-family="monospace" font-size="5" text-anchor="middle">Woods of the Brood</text></g><rect x="110" y="110" width="280" height="35" fill="#160F09" /><rect x="110" y="145" width="175" height="35" fill="#160F09" /><rect x="355" y="145" width="35" height="35" fill="#160F09" /><rect x="110" y="180" width="140" height="35" fill="#160F09" /><rect x="110" y="215" width="140" height="35" fill="#160F09" /><rect x="285" y="215" width="105" height="35" fill="#160F09" /><rect x="110" y="250" width="35" height="35" fill="#160F09" /><rect x="285" y="250" width="70" height="35" fill="#160F09" /><rect x="110" y="320" width="70" height="35" fill="#160F09" /><rect x="355" y="320" width="35" height="35" fill="#160F09" /><rect x="110" y="355" width="105" height="35" fill="#160F09" /><rect x="355" y="355" width="35" height="35" fill="#160F09" /><rect x="320" y="355" width="35" height="35" fill="#FAAA00" /><rect x="145" y="250" width="35" height="35" fill="#FAAA00" /></svg>