<svg xmlns="http://www.w3.org/2000/svg" preserveAspectRatio="xMinYMin meet" viewBox="0 0 500 500" shape-rendering="crispEdges" transform-origin="center"><rect width="100%" height="100%" fill="#F3D899" /><g transform="scale (5 5)"><rect x="35" y="-1" width="30" height="9" stroke-width="0.3" stroke="black" fill="#FFA800" /><text x="50" y="5.5" width="21" font-family="monospace" font-size="5" text-anchor="middle">Landing</text></g><rect x="54" y="54" width="391" height="17" fill="#160F09" /><rect x="54" y="71" width="119" height="17" fill="#160F09" /><rect x="224" y="71" width="221" height="17" fill="#160F09" /><rect x="54" y="88" width="119" height="17" fill="#160F09" /><rect x="224" y="88" width="221" height="17" fill="#160F09" /><rect x="54" y="105" width="119" height="17" fill="#160F09" /><rect x="275" y="105" width="170" height="17" fill="#160F09" /><rect x="54" y="122" width="119" height="17" fill="#160F09" /><rect x="224" y="122" width="34" height="17" fill="#160F09" /><rect x="275" y="122" width="170" height="17" fill="#160F09" /><rect x="54" y="139" width="119" height="17" fill="#160F09" /><rect x="224" y="139" width="34" height="17" fill="#160F09" /><rect x="275" y="139" width="170" height="17" fill="#160F09" /><rect x="54" y="156" width="136" height="17" fill="#160F09" /><rect x="207" y="156" width="51" height="17" fill="#160F09" /><rect x="275" y="156" width="170" height="17" fill="#160F09" /><rect x="54" y="173" width="136" height="17" fill="#160F09" /><rect x="207" y="173" width="51" height="17" fill="#160F09" /><rect x="275" y="173" width="170" height="17" fill="#160F09" /><rect x="54" y="190" width="136" height="17" fill="#160F09" /><rect x="207" y="190" width="51" height="17" fill="#160F09" /><rect x="275" y="190" width="170" height="17" fill="#160F09" /><rect x="54" y="207" width="136" height="17" fill="#160F09" /><rect x="207" y="207" width="51" height="17" fill="#160F09" /><rect x="275" y="207" width="170" height="17" fill="#160F09" /><rect x="54" y="224" width="34" height="17" fill="#160F09" /><rect x="207" y="224" width="51" height="17" fill="#160F09" /><rect x="275" y="224" width="170" height="17" fill="#160F09" /><rect x="54" y="241" width="17" height="17" fill="#160F09" /><rect x="207" y="241" width="17" height="17" fill="#160F09" /><rect x="275" y="241" width="170" height="17" fill="#160F09" /><rect x="54" y="258" width="17" height="17" fill="#160F09" /><rect x="207" y="258" width="17" height="17" fill="#160F09" /><rect x="275" y="258" width="170" height="17" fill="#160F09" /><rect x="54" y="275" width="17" height="17" fill="#160F09" /><rect x="275" y="275" width="170" height="17" fill="#160F09" /><rect x="54" y="292" width="17" height="17" fill="#160F09" /><rect x="190" y="292" width="34" height="17" fill="#160F09" /><rect x="343" y="292" width="102" height="17" fill="#160F09" /><rect x="54" y="309" width="34" height="17" fill="#160F09" /><rect x="343" y="309" width="102" height="17" fill="#160F09" /><rect x="54" y="326" width="34" height="17" fill="#160F09" /><rect x="343" y="326" width="102" height="17" fill="#160F09" /><rect x="54" y="343" width="34" height="17" fill="#160F09" /><rect x="105" y="343" width="17" height="17" fill="#160F09" /><rect x="275" y="343" width="17" height="17" fill="#160F09" /><rect x="360" y="343" width="85" height="17" fill="#160F09" /><rect x="54" y="360" width="34" height="17" fill="#160F09" /><rect x="105" y="360" width="17" height="17" fill="#160F09" /><rect x="360" y="360" width="85" height="17" fill="#160F09" /><rect x="54" y="377" width="34" height="17" fill="#160F09" /><rect x="326" y="377" width="119" height="17" fill="#160F09" /><rect x="54" y="394" width="119" height="17" fill="#160F09" /><rect x="292" y="394" width="153" height="17" fill="#160F09" /><rect x="54" y="411" width="391" height="17" fill="#160F09" /><rect x="54" y="428" width="391" height="17" fill="#160F09" /><rect x="190" y="156" width="17" height="17" fill="#FAAA00" /></svg>