<svg xmlns="http://www.w3.org/2000/svg" preserveAspectRatio="xMinYMin meet" viewBox="0 0 500 500" shape-rendering="crispEdges" transform-origin="center"><rect width="100%" height="100%" fill="#2F590E" /><g transform="scale (5 5)"><rect x="36" y="-1" width="27" height="9" stroke-width="0.3" stroke="black" fill="#FFA800" /><text x="50" y="5.5" width="18" font-family="monospace" font-size="5" text-anchor="middle">Tunnel</text></g><rect x="58" y="58" width="384" height="16" fill="#A98C00" /><rect x="58" y="74" width="160" height="16" fill="#A98C00" /><rect x="250" y="74" width="192" height="16" fill="#A98C00" /><rect x="58" y="90" width="160" height="16" fill="#A98C00" /><rect x="250" y="90" width="192" height="16" fill="#A98C00" /><rect x="58" y="106" width="64" height="16" fill="#A98C00" /><rect x="250" y="106" width="192" height="16" fill="#A98C00" /><rect x="58" y="122" width="64" height="16" fill="#A98C00" /><rect x="138" y="122" width="80" height="16" fill="#A98C00" /><rect x="250" y="122" width="192" height="16" fill="#A98C00" /><rect x="58" y="138" width="16" height="16" fill="#A98C00" /><rect x="138" y="138" width="96" height="16" fill="#A98C00" /><rect x="250" y="138" width="192" height="16" fill="#A98C00" /><rect x="58" y="154" width="16" height="16" fill="#A98C00" /><rect x="250" y="154" width="192" height="16" fill="#A98C00" /><rect x="58" y="170" width="16" height="16" fill="#A98C00" /><rect x="138" y="170" width="80" height="16" fill="#A98C00" /><rect x="250" y="170" width="192" height="16" fill="#A98C00" /><rect x="58" y="186" width="32" height="16" fill="#A98C00" /><rect x="106" y="186" width="16" height="16" fill="#A98C00" /><rect x="138" y="186" width="64" height="16" fill="#A98C00" /><rect x="250" y="186" width="192" height="16" fill="#A98C00" /><rect x="58" y="202" width="16" height="16" fill="#A98C00" /><rect x="250" y="202" width="192" height="16" fill="#A98C00" /><rect x="58" y="218" width="16" height="16" fill="#A98C00" /><rect x="186" y="218" width="48" height="16" fill="#A98C00" /><rect x="250" y="218" width="16" height="16" fill="#A98C00" /><rect x="330" y="218" width="112" height="16" fill="#A98C00" /><rect x="58" y="234" width="16" height="16" fill="#A98C00" /><rect x="186" y="234" width="48" height="16" fill="#A98C00" /><rect x="250" y="234" width="16" height="16" fill="#A98C00" /><rect x="330" y="234" width="112" height="16" fill="#A98C00" /><rect x="58" y="250" width="16" height="16" fill="#A98C00" /><rect x="362" y="250" width="80" height="16" fill="#A98C00" /><rect x="58" y="266" width="16" height="16" fill="#A98C00" /><rect x="186" y="266" width="80" height="16" fill="#A98C00" /><rect x="330" y="266" width="16" height="16" fill="#A98C00" /><rect x="362" y="266" width="80" height="16" fill="#A98C00" /><rect x="58" y="282" width="16" height="16" fill="#A98C00" /><rect x="122" y="282" width="32" height="16" fill="#A98C00" /><rect x="250" y="282" width="16" height="16" fill="#A98C00" /><rect x="330" y="282" width="16" height="16" fill="#A98C00" /><rect x="362" y="282" width="80" height="16" fill="#A98C00" /><rect x="58" y="298" width="16" height="16" fill="#A98C00" /><rect x="122" y="298" width="32" height="16" fill="#A98C00" /><rect x="250" y="298" width="48" height="16" fill="#A98C00" /><rect x="314" y="298" width="32" height="16" fill="#A98C00" /><rect x="362" y="298" width="80" height="16" fill="#A98C00" /><rect x="58" y="314" width="16" height="16" fill="#A98C00" /><rect x="250" y="314" width="48" height="16" fill="#A98C00" /><rect x="314" y="314" width="16" height="16" fill="#A98C00" /><rect x="362" y="314" width="80" height="16" fill="#A98C00" /><rect x="58" y="330" width="32" height="16" fill="#A98C00" /><rect x="122" y="330" width="32" height="16" fill="#A98C00" /><rect x="250" y="330" width="48" height="16" fill="#A98C00" /><rect x="362" y="330" width="80" height="16" fill="#A98C00" /><rect x="58" y="346" width="32" height="16" fill="#A98C00" /><rect x="250" y="346" width="80" height="16" fill="#A98C00" /><rect x="362" y="346" width="80" height="16" fill="#A98C00" /><rect x="58" y="362" width="32" height="16" fill="#A98C00" /><rect x="122" y="362" width="16" height="16" fill="#A98C00" /><rect x="250" y="362" width="192" height="16" fill="#A98C00" /><rect x="58" y="378" width="80" height="16" fill="#A98C00" /><rect x="250" y="378" width="192" height="16" fill="#A98C00" /><rect x="58" y="394" width="80" height="16" fill="#A98C00" /><rect x="250" y="394" width="192" height="16" fill="#A98C00" /><rect x="58" y="410" width="384" height="16" fill="#A98C00" /><rect x="58" y="426" width="384" height="16" fill="#A98C00" /><rect x="218" y="330" width="16" height="16" fill="#C55300" /><rect x="138" y="202" width="16" height="16" fill="#802F1A" /><rect x="122" y="202" width="16" height="16" fill="#802F1A" /></svg>