<svg xmlns="http://www.w3.org/2000/svg" preserveAspectRatio="xMinYMin meet" viewBox="0 0 500 500" shape-rendering="crispEdges" transform-origin="center"><rect width="100%" height="100%" fill="#36230F" /><g transform="scale (5 5)"><rect x="12" y="-1" width="75" height="9" stroke-width="0.3" stroke="black" fill="#FFA800" /><text x="50" y="5.5" width="66" font-family="monospace" font-size="5" text-anchor="middle">Inner Scar of the Moon</text></g><rect x="63" y="63" width="374" height="17" fill="#744936" /><rect x="63" y="80" width="68" height="17" fill="#744936" /><rect x="148" y="80" width="68" height="17" fill="#744936" /><rect x="233" y="80" width="17" height="17" fill="#744936" /><rect x="335" y="80" width="51" height="17" fill="#744936" /><rect x="63" y="97" width="68" height="17" fill="#744936" /><rect x="148" y="97" width="119" height="17" fill="#744936" /><rect x="369" y="97" width="17" height="17" fill="#744936" /><rect x="63" y="114" width="68" height="17" fill="#744936" /><rect x="182" y="114" width="85" height="17" fill="#744936" /><rect x="318" y="114" width="34" height="17" fill="#744936" /><rect x="63" y="131" width="85" height="17" fill="#744936" /><rect x="182" y="131" width="102" height="17" fill="#744936" /><rect x="318" y="131" width="34" height="17" fill="#744936" /><rect x="63" y="148" width="85" height="17" fill="#744936" /><rect x="216" y="148" width="68" height="17" fill="#744936" /><rect x="318" y="148" width="17" height="17" fill="#744936" /><rect x="420" y="148" width="17" height="17" fill="#744936" /><rect x="63" y="165" width="136" height="17" fill="#744936" /><rect x="216" y="165" width="68" height="17" fill="#744936" /><rect x="318" y="165" width="17" height="17" fill="#744936" /><rect x="420" y="165" width="17" height="17" fill="#744936" /><rect x="63" y="182" width="136" height="17" fill="#744936" /><rect x="216" y="182" width="68" height="17" fill="#744936" /><rect x="420" y="182" width="17" height="17" fill="#744936" /><rect x="63" y="199" width="136" height="17" fill="#744936" /><rect x="216" y="199" width="68" height="17" fill="#744936" /><rect x="301" y="199" width="17" height="17" fill="#744936" /><rect x="63" y="216" width="136" height="17" fill="#744936" /><rect x="216" y="216" width="68" height="17" fill="#744936" /><rect x="301" y="216" width="34" height="17" fill="#744936" /><rect x="386" y="216" width="34" height="17" fill="#744936" /><rect x="63" y="233" width="119" height="17" fill="#744936" /><rect x="216" y="233" width="102" height="17" fill="#744936" /><rect x="352" y="233" width="17" height="17" fill="#744936" /><rect x="63" y="250" width="17" height="17" fill="#744936" /><rect x="97" y="250" width="85" height="17" fill="#744936" /><rect x="216" y="250" width="102" height="17" fill="#744936" /><rect x="403" y="250" width="34" height="17" fill="#744936" /><rect x="63" y="267" width="17" height="17" fill="#744936" /><rect x="97" y="267" width="85" height="17" fill="#744936" /><rect x="216" y="267" width="102" height="17" fill="#744936" /><rect x="352" y="267" width="17" height="17" fill="#744936" /><rect x="420" y="267" width="17" height="17" fill="#744936" /><rect x="63" y="284" width="17" height="17" fill="#744936" /><rect x="97" y="284" width="85" height="17" fill="#744936" /><rect x="216" y="284" width="102" height="17" fill="#744936" /><rect x="335" y="284" width="34" height="17" fill="#744936" /><rect x="403" y="284" width="34" height="17" fill="#744936" /><rect x="63" y="301" width="0" height="17" fill="#744936" /><rect x="97" y="301" width="85" height="17" fill="#744936" /><rect x="216" y="301" width="102" height="17" fill="#744936" /><rect x="335" y="301" width="17" height="17" fill="#744936" /><rect x="420" y="301" width="17" height="17" fill="#744936" /><rect x="63" y="318" width="119" height="17" fill="#744936" /><rect x="216" y="318" width="170" height="17" fill="#744936" /><rect x="403" y="318" width="34" height="17" fill="#744936" /><rect x="63" y="335" width="68" height="17" fill="#744936" /><rect x="216" y="335" width="153" height="17" fill="#744936" /><rect x="403" y="335" width="34" height="17" fill="#744936" /><rect x="63" y="352" width="51" height="17" fill="#744936" /><rect x="148" y="352" width="221" height="17" fill="#744936" /><rect x="386" y="352" width="51" height="17" fill="#744936" /><rect x="63" y="369" width="51" height="17" fill="#744936" /><rect x="148" y="369" width="221" height="17" fill="#744936" /><rect x="403" y="369" width="34" height="17" fill="#744936" /><rect x="63" y="386" width="51" height="17" fill="#744936" /><rect x="131" y="386" width="306" height="17" fill="#744936" /><rect x="63" y="403" width="374" height="17" fill="#744936" /><rect x="63" y="420" width="374" height="17" fill="#744936" /><rect x="386" y="369" width="17" height="17" fill="#FFA800" /><rect x="131" y="335" width="17" height="17" fill="#FFA800" /><rect x="386" y="318" width="17" height="17" fill="#802F1A" /><rect x="80" y="284" width="17" height="17" fill="#802F1A" /><rect x="420" y="216" width="17" height="17" fill="#802F1A" /><rect x="335" y="216" width="17" height="17" fill="#802F1A" /><rect x="369" y="131" width="17" height="17" fill="#802F1A" /><rect x="216" y="80" width="17" height="17" fill="#802F1A" /></svg>