<svg xmlns="http://www.w3.org/2000/svg" preserveAspectRatio="xMinYMin meet" viewBox="0 0 500 500" shape-rendering="crispEdges" transform-origin="center"><rect width="100%" height="100%" fill="#36230F" /><g transform="scale (5 5)"><rect x="18" y="-1" width="63" height="9" stroke-width="0.3" stroke="black" fill="#FFA800" /><text x="50" y="5.5" width="54" font-family="monospace" font-size="5" text-anchor="middle">Tundra of the Moon</text></g><rect x="74" y="74" width="352" height="22" fill="#744936" /><rect x="74" y="96" width="22" height="22" fill="#744936" /><rect x="140" y="96" width="22" height="22" fill="#744936" /><rect x="228" y="96" width="22" height="22" fill="#744936" /><rect x="294" y="96" width="88" height="22" fill="#744936" /><rect x="74" y="118" width="22" height="22" fill="#744936" /><rect x="228" y="118" width="44" height="22" fill="#744936" /><rect x="294" y="118" width="110" height="22" fill="#744936" /><rect x="74" y="140" width="44" height="22" fill="#744936" /><rect x="294" y="140" width="88" height="22" fill="#744936" /><rect x="74" y="162" width="66" height="22" fill="#744936" /><rect x="272" y="162" width="110" height="22" fill="#744936" /><rect x="404" y="162" width="22" height="22" fill="#744936" /><rect x="74" y="184" width="66" height="22" fill="#744936" /><rect x="206" y="184" width="22" height="22" fill="#744936" /><rect x="272" y="184" width="110" height="22" fill="#744936" /><rect x="404" y="184" width="22" height="22" fill="#744936" /><rect x="74" y="206" width="88" height="22" fill="#744936" /><rect x="316" y="206" width="66" height="22" fill="#744936" /><rect x="404" y="206" width="22" height="22" fill="#744936" /><rect x="74" y="228" width="88" height="22" fill="#744936" /><rect x="272" y="228" width="154" height="22" fill="#744936" /><rect x="74" y="250" width="88" height="22" fill="#744936" /><rect x="338" y="250" width="88" height="22" fill="#744936" /><rect x="74" y="272" width="66" height="22" fill="#744936" /><rect x="228" y="272" width="198" height="22" fill="#744936" /><rect x="74" y="294" width="88" height="22" fill="#744936" /><rect x="250" y="294" width="176" height="22" fill="#744936" /><rect x="74" y="316" width="88" height="22" fill="#744936" /><rect x="250" y="316" width="176" height="22" fill="#744936" /><rect x="74" y="338" width="88" height="22" fill="#744936" /><rect x="206" y="338" width="220" height="22" fill="#744936" /><rect x="74" y="360" width="88" height="22" fill="#744936" /><rect x="228" y="360" width="198" height="22" fill="#744936" /><rect x="74" y="382" width="88" height="22" fill="#744936" /><rect x="184" y="382" width="242" height="22" fill="#744936" /><rect x="74" y="404" width="352" height="22" fill="#744936" /><rect x="162" y="382" width="22" height="22" fill="#FFA800" /><rect x="294" y="250" width="22" height="22" fill="#FFA800" /><rect x="250" y="140" width="22" height="22" fill="#802F1A" /><rect x="206" y="140" width="22" height="22" fill="#802F1A" /><rect x="184" y="118" width="22" height="22" fill="#802F1A" /><rect x="162" y="118" width="22" height="22" fill="#802F1A" /></svg>