<svg xmlns="http://www.w3.org/2000/svg" preserveAspectRatio="xMinYMin meet" viewBox="0 0 500 500" shape-rendering="crispEdges" transform-origin="center"><rect width="100%" height="100%" fill="#967E67" /><g transform="scale (5 5)"><rect x="26" y="-1" width="48" height="9" stroke-width="0.3" stroke="black" fill="#FFA800" /><text x="50" y="5.5" width="39" font-family="monospace" font-size="5" text-anchor="middle">Abyssal Field</text></g><rect x="54" y="54" width="170" height="17" fill="#F3D899" /><rect x="241" y="54" width="187" height="17" fill="#F3D899" /><rect x="54" y="71" width="136" height="17" fill="#F3D899" /><rect x="224" y="71" width="221" height="17" fill="#F3D899" /><rect x="54" y="88" width="306" height="17" fill="#F3D899" /><rect x="428" y="88" width="17" height="17" fill="#F3D899" /><rect x="54" y="105" width="238" height="17" fill="#F3D899" /><rect x="309" y="105" width="17" height="17" fill="#F3D899" /><rect x="377" y="105" width="34" height="17" fill="#F3D899" /><rect x="54" y="122" width="238" height="17" fill="#F3D899" /><rect x="343" y="122" width="51" height="17" fill="#F3D899" /><rect x="54" y="139" width="374" height="17" fill="#F3D899" /><rect x="54" y="156" width="289" height="17" fill="#F3D899" /><rect x="394" y="156" width="51" height="17" fill="#F3D899" /><rect x="54" y="173" width="323" height="17" fill="#F3D899" /><rect x="428" y="173" width="17" height="17" fill="#F3D899" /><rect x="54" y="190" width="289" height="17" fill="#F3D899" /><rect x="54" y="207" width="238" height="17" fill="#F3D899" /><rect x="411" y="207" width="34" height="17" fill="#F3D899" /><rect x="54" y="224" width="187" height="17" fill="#F3D899" /><rect x="309" y="224" width="136" height="17" fill="#F3D899" /><rect x="54" y="241" width="153" height="17" fill="#F3D899" /><rect x="258" y="241" width="17" height="17" fill="#F3D899" /><rect x="309" y="241" width="136" height="17" fill="#F3D899" /><rect x="54" y="258" width="136" height="17" fill="#F3D899" /><rect x="224" y="258" width="221" height="17" fill="#F3D899" /><rect x="54" y="275" width="153" height="17" fill="#F3D899" /><rect x="224" y="275" width="221" height="17" fill="#F3D899" /><rect x="54" y="292" width="391" height="17" fill="#F3D899" /><rect x="54" y="309" width="391" height="17" fill="#F3D899" /><rect x="54" y="326" width="204" height="17" fill="#F3D899" /><rect x="275" y="326" width="170" height="17" fill="#F3D899" /><rect x="54" y="343" width="204" height="17" fill="#F3D899" /><rect x="309" y="343" width="136" height="17" fill="#F3D899" /><rect x="54" y="360" width="238" height="17" fill="#F3D899" /><rect x="309" y="360" width="136" height="17" fill="#F3D899" /><rect x="54" y="377" width="238" height="17" fill="#F3D899" /><rect x="309" y="377" width="34" height="17" fill="#F3D899" /><rect x="394" y="377" width="51" height="17" fill="#F3D899" /><rect x="54" y="394" width="238" height="17" fill="#F3D899" /><rect x="394" y="394" width="51" height="17" fill="#F3D899" /><rect x="54" y="411" width="238" height="17" fill="#F3D899" /><rect x="326" y="411" width="17" height="17" fill="#F3D899" /><rect x="54" y="428" width="340" height="17" fill="#F3D899" /><rect x="343" y="411" width="17" height="17" fill="#3C2A1A" /><rect x="190" y="258" width="17" height="17" fill="#3C2A1A" /><rect x="241" y="241" width="17" height="17" fill="#006669" /><rect x="292" y="224" width="17" height="17" fill="#3C2A1A" /><rect x="258" y="224" width="17" height="17" fill="#3C2A1A" /><rect x="428" y="105" width="17" height="17" fill="#006669" /><rect x="326" y="105" width="17" height="17" fill="#3C2A1A" /></svg>