<svg xmlns="http://www.w3.org/2000/svg" preserveAspectRatio="xMinYMin meet" viewBox="0 0 500 500" shape-rendering="crispEdges" transform-origin="center"><rect width="100%" height="100%" fill="#36230F" /><g transform="scale (5 5)"><rect x="17" y="-1" width="66" height="9" stroke-width="0.3" stroke="black" fill="#FFA800" /><text x="50" y="5.5" width="57" font-family="monospace" font-size="5" text-anchor="middle">Murky Dunes of Mist</text></g><rect x="77" y="77" width="345" height="23" fill="#744936" /><rect x="77" y="100" width="23" height="23" fill="#744936" /><rect x="146" y="100" width="207" height="23" fill="#744936" /><rect x="399" y="100" width="23" height="23" fill="#744936" /><rect x="77" y="123" width="23" height="23" fill="#744936" /><rect x="146" y="123" width="184" height="23" fill="#744936" /><rect x="376" y="123" width="46" height="23" fill="#744936" /><rect x="77" y="146" width="23" height="23" fill="#744936" /><rect x="123" y="146" width="207" height="23" fill="#744936" /><rect x="353" y="146" width="69" height="23" fill="#744936" /><rect x="77" y="169" width="253" height="23" fill="#744936" /><rect x="353" y="169" width="69" height="23" fill="#744936" /><rect x="77" y="192" width="253" height="23" fill="#744936" /><rect x="353" y="192" width="69" height="23" fill="#744936" /><rect x="77" y="215" width="345" height="23" fill="#744936" /><rect x="77" y="238" width="345" height="23" fill="#744936" /><rect x="77" y="261" width="345" height="23" fill="#744936" /><rect x="77" y="284" width="345" height="23" fill="#744936" /><rect x="77" y="307" width="23" height="23" fill="#744936" /><rect x="123" y="307" width="299" height="23" fill="#744936" /><rect x="77" y="330" width="0" height="23" fill="#744936" /><rect x="146" y="330" width="253" height="23" fill="#744936" /><rect x="77" y="353" width="23" height="23" fill="#744936" /><rect x="146" y="353" width="230" height="23" fill="#744936" /><rect x="77" y="376" width="23" height="23" fill="#744936" /><rect x="123" y="376" width="253" height="23" fill="#744936" /><rect x="399" y="376" width="23" height="23" fill="#744936" /><rect x="77" y="399" width="299" height="23" fill="#744936" /><rect x="123" y="330" width="23" height="23" fill="#802F1A" /></svg>