<svg xmlns="http://www.w3.org/2000/svg" preserveAspectRatio="xMinYMin meet" viewBox="0 0 500 500" shape-rendering="crispEdges" transform-origin="center"><rect width="100%" height="100%" fill="#2F590E" /><g transform="scale (5 5)"><rect x="17" y="-1" width="66" height="9" stroke-width="0.3" stroke="black" fill="#FFA800" /><text x="50" y="5.5" width="57" font-family="monospace" font-size="5" text-anchor="middle">Canyon of the Brood</text></g><rect x="81" y="81" width="338" height="26" fill="#A98C00" /><rect x="81" y="107" width="338" height="26" fill="#A98C00" /><rect x="81" y="133" width="338" height="26" fill="#A98C00" /><rect x="81" y="159" width="26" height="26" fill="#A98C00" /><rect x="185" y="159" width="52" height="26" fill="#A98C00" /><rect x="289" y="159" width="130" height="26" fill="#A98C00" /><rect x="81" y="185" width="26" height="26" fill="#A98C00" /><rect x="289" y="185" width="130" height="26" fill="#A98C00" /><rect x="81" y="211" width="26" height="26" fill="#A98C00" /><rect x="185" y="211" width="26" height="26" fill="#A98C00" /><rect x="237" y="211" width="26" height="26" fill="#A98C00" /><rect x="289" y="211" width="130" height="26" fill="#A98C00" /><rect x="81" y="237" width="26" height="26" fill="#A98C00" /><rect x="289" y="237" width="130" height="26" fill="#A98C00" /><rect x="81" y="263" width="26" height="26" fill="#A98C00" /><rect x="289" y="263" width="130" height="26" fill="#A98C00" /><rect x="81" y="289" width="26" height="26" fill="#A98C00" /><rect x="315" y="289" width="104" height="26" fill="#A98C00" /><rect x="81" y="315" width="52" height="26" fill="#A98C00" /><rect x="315" y="315" width="104" height="26" fill="#A98C00" /><rect x="81" y="341" width="52" height="26" fill="#A98C00" /><rect x="315" y="341" width="104" height="26" fill="#A98C00" /><rect x="81" y="367" width="338" height="26" fill="#A98C00" /><rect x="81" y="393" width="338" height="26" fill="#A98C00" /><rect x="133" y="341" width="26" height="26" fill="#802F1A" /><rect x="211" y="185" width="26" height="26" fill="#802F1A" /><rect x="159" y="185" width="26" height="26" fill="#C55300" /></svg>