<svg xmlns="http://www.w3.org/2000/svg" preserveAspectRatio="xMinYMin meet" viewBox="0 0 500 500" shape-rendering="crispEdges" transform-origin="center"><rect width="100%" height="100%" fill="#36230F" /><g transform="scale (5 5)"><rect x="17" y="-1" width="66" height="9" stroke-width="0.3" stroke="black" fill="#FFA800" /><text x="50" y="5.5" width="57" font-family="monospace" font-size="5" text-anchor="middle">Oasis of the Titans</text></g><rect x="58" y="58" width="384" height="16" fill="#744936" /><rect x="58" y="74" width="16" height="16" fill="#744936" /><rect x="106" y="74" width="48" height="16" fill="#744936" /><rect x="170" y="74" width="32" height="16" fill="#744936" /><rect x="234" y="74" width="16" height="16" fill="#744936" /><rect x="282" y="74" width="48" height="16" fill="#744936" /><rect x="362" y="74" width="80" height="16" fill="#744936" /><rect x="58" y="90" width="16" height="16" fill="#744936" /><rect x="106" y="90" width="48" height="16" fill="#744936" /><rect x="170" y="90" width="16" height="16" fill="#744936" /><rect x="298" y="90" width="48" height="16" fill="#744936" /><rect x="378" y="90" width="64" height="16" fill="#744936" /><rect x="58" y="106" width="32" height="16" fill="#744936" /><rect x="106" y="106" width="48" height="16" fill="#744936" /><rect x="266" y="106" width="16" height="16" fill="#744936" /><rect x="298" y="106" width="64" height="16" fill="#744936" /><rect x="378" y="106" width="64" height="16" fill="#744936" /><rect x="58" y="122" width="16" height="16" fill="#744936" /><rect x="106" y="122" width="64" height="16" fill="#744936" /><rect x="202" y="122" width="16" height="16" fill="#744936" /><rect x="266" y="122" width="16" height="16" fill="#744936" /><rect x="314" y="122" width="48" height="16" fill="#744936" /><rect x="378" y="122" width="64" height="16" fill="#744936" /><rect x="58" y="138" width="112" height="16" fill="#744936" /><rect x="250" y="138" width="48" height="16" fill="#744936" /><rect x="314" y="138" width="48" height="16" fill="#744936" /><rect x="58" y="154" width="112" height="16" fill="#744936" /><rect x="250" y="154" width="32" height="16" fill="#744936" /><rect x="314" y="154" width="48" height="16" fill="#744936" /><rect x="378" y="154" width="16" height="16" fill="#744936" /><rect x="426" y="154" width="16" height="16" fill="#744936" /><rect x="58" y="170" width="112" height="16" fill="#744936" /><rect x="202" y="170" width="16" height="16" fill="#744936" /><rect x="266" y="170" width="32" height="16" fill="#744936" /><rect x="314" y="170" width="32" height="16" fill="#744936" /><rect x="378" y="170" width="32" height="16" fill="#744936" /><rect x="426" y="170" width="16" height="16" fill="#744936" /><rect x="58" y="186" width="144" height="16" fill="#744936" /><rect x="234" y="186" width="16" height="16" fill="#744936" /><rect x="266" y="186" width="32" height="16" fill="#744936" /><rect x="314" y="186" width="32" height="16" fill="#744936" /><rect x="378" y="186" width="32" height="16" fill="#744936" /><rect x="426" y="186" width="16" height="16" fill="#744936" /><rect x="58" y="202" width="144" height="16" fill="#744936" /><rect x="218" y="202" width="32" height="16" fill="#744936" /><rect x="266" y="202" width="32" height="16" fill="#744936" /><rect x="314" y="202" width="48" height="16" fill="#744936" /><rect x="378" y="202" width="32" height="16" fill="#744936" /><rect x="426" y="202" width="16" height="16" fill="#744936" /><rect x="58" y="218" width="144" height="16" fill="#744936" /><rect x="314" y="218" width="48" height="16" fill="#744936" /><rect x="378" y="218" width="64" height="16" fill="#744936" /><rect x="58" y="234" width="176" height="16" fill="#744936" /><rect x="298" y="234" width="64" height="16" fill="#744936" /><rect x="378" y="234" width="64" height="16" fill="#744936" /><rect x="58" y="250" width="176" height="16" fill="#744936" /><rect x="266" y="250" width="16" height="16" fill="#744936" /><rect x="298" y="250" width="64" height="16" fill="#744936" /><rect x="378" y="250" width="48" height="16" fill="#744936" /><rect x="58" y="266" width="176" height="16" fill="#744936" /><rect x="266" y="266" width="16" height="16" fill="#744936" /><rect x="298" y="266" width="64" height="16" fill="#744936" /><rect x="378" y="266" width="32" height="16" fill="#744936" /><rect x="58" y="282" width="160" height="16" fill="#744936" /><rect x="266" y="282" width="16" height="16" fill="#744936" /><rect x="314" y="282" width="48" height="16" fill="#744936" /><rect x="378" y="282" width="32" height="16" fill="#744936" /><rect x="58" y="298" width="160" height="16" fill="#744936" /><rect x="314" y="298" width="48" height="16" fill="#744936" /><rect x="378" y="298" width="32" height="16" fill="#744936" /><rect x="58" y="314" width="192" height="16" fill="#744936" /><rect x="298" y="314" width="64" height="16" fill="#744936" /><rect x="378" y="314" width="48" height="16" fill="#744936" /><rect x="58" y="330" width="208" height="16" fill="#744936" /><rect x="298" y="330" width="48" height="16" fill="#744936" /><rect x="378" y="330" width="32" height="16" fill="#744936" /><rect x="58" y="346" width="224" height="16" fill="#744936" /><rect x="298" y="346" width="64" height="16" fill="#744936" /><rect x="394" y="346" width="48" height="16" fill="#744936" /><rect x="58" y="362" width="192" height="16" fill="#744936" /><rect x="298" y="362" width="80" height="16" fill="#744936" /><rect x="426" y="362" width="16" height="16" fill="#744936" /><rect x="58" y="378" width="192" height="16" fill="#744936" /><rect x="282" y="378" width="80" height="16" fill="#744936" /><rect x="410" y="378" width="32" height="16" fill="#744936" /><rect x="58" y="394" width="304" height="16" fill="#744936" /><rect x="394" y="394" width="48" height="16" fill="#744936" /><rect x="58" y="410" width="320" height="16" fill="#744936" /><rect x="394" y="410" width="48" height="16" fill="#744936" /><rect x="58" y="426" width="320" height="16" fill="#744936" /><rect x="410" y="426" width="32" height="16" fill="#744936" /><rect x="378" y="378" width="16" height="16" fill="#FFA800" /><rect x="250" y="266" width="16" height="16" fill="#802F1A" /><rect x="362" y="202" width="16" height="16" fill="#802F1A" /><rect x="298" y="202" width="16" height="16" fill="#802F1A" /><rect x="410" y="170" width="16" height="16" fill="#FFA800" /><rect x="410" y="154" width="16" height="16" fill="#802F1A" /><rect x="298" y="154" width="16" height="16" fill="#802F1A" /><rect x="186" y="154" width="16" height="16" fill="#802F1A" /><rect x="202" y="74" width="16" height="16" fill="#FFA800" /><rect x="74" y="74" width="16" height="16" fill="#802F1A" /></svg>