<svg xmlns="http://www.w3.org/2000/svg" preserveAspectRatio="xMinYMin meet" viewBox="0 0 500 500" shape-rendering="crispEdges" transform-origin="center"><rect width="100%" height="100%" fill="#F3D899" /><g transform="scale (5 5)"><rect x="21" y="-1" width="57" height="9" stroke-width="0.3" stroke="black" fill="#FFA800" /><text x="50" y="5.5" width="48" font-family="monospace" font-size="5" text-anchor="middle">Desolate Chamber</text></g><rect x="88" y="88" width="324" height="27" fill="#160F09" /><rect x="88" y="115" width="324" height="27" fill="#160F09" /><rect x="88" y="142" width="324" height="27" fill="#160F09" /><rect x="88" y="169" width="54" height="27" fill="#160F09" /><rect x="223" y="169" width="189" height="27" fill="#160F09" /><rect x="88" y="196" width="54" height="27" fill="#160F09" /><rect x="223" y="196" width="189" height="27" fill="#160F09" /><rect x="88" y="223" width="27" height="27" fill="#160F09" /><rect x="277" y="223" width="135" height="27" fill="#160F09" /><rect x="88" y="250" width="27" height="27" fill="#160F09" /><rect x="277" y="250" width="135" height="27" fill="#160F09" /><rect x="88" y="277" width="27" height="27" fill="#160F09" /><rect x="304" y="277" width="108" height="27" fill="#160F09" /><rect x="88" y="304" width="27" height="27" fill="#160F09" /><rect x="304" y="304" width="108" height="27" fill="#160F09" /><rect x="88" y="331" width="27" height="27" fill="#160F09" /><rect x="223" y="331" width="189" height="27" fill="#160F09" /><rect x="88" y="358" width="324" height="27" fill="#160F09" /><rect x="88" y="385" width="324" height="27" fill="#160F09" /><rect x="142" y="304" width="27" height="27" fill="#00A29D" /><rect x="142" y="223" width="27" height="27" fill="#00A29D" /><rect x="115" y="223" width="27" height="27" fill="#00A29D" /></svg>