<svg xmlns="http://www.w3.org/2000/svg" preserveAspectRatio="xMinYMin meet" viewBox="0 0 500 500" shape-rendering="crispEdges" transform-origin="center"><rect width="100%" height="100%" fill="#36230F" /><g transform="scale (5 5)"><rect x="14" y="-1" width="72" height="9" stroke-width="0.3" stroke="black" fill="#FFA800" /><text x="50" y="5.5" width="63" font-family="monospace" font-size="5" text-anchor="middle">Dire Oasis of Torment</text></g><rect x="90" y="90" width="319" height="29" fill="#744936" /><rect x="90" y="119" width="319" height="29" fill="#744936" /><rect x="90" y="148" width="319" height="29" fill="#744936" /><rect x="90" y="177" width="319" height="29" fill="#744936" /><rect x="90" y="206" width="319" height="29" fill="#744936" /><rect x="90" y="235" width="319" height="29" fill="#744936" /><rect x="90" y="264" width="116" height="29" fill="#744936" /><rect x="264" y="264" width="145" height="29" fill="#744936" /><rect x="90" y="293" width="87" height="29" fill="#744936" /><rect x="264" y="293" width="29" height="29" fill="#744936" /><rect x="351" y="293" width="58" height="29" fill="#744936" /><rect x="90" y="322" width="87" height="29" fill="#744936" /><rect x="351" y="322" width="58" height="29" fill="#744936" /><rect x="90" y="351" width="319" height="29" fill="#744936" /><rect x="90" y="380" width="319" height="29" fill="#744936" /><rect x="235" y="322" width="29" height="29" fill="#802F1A" /></svg>