<svg xmlns="http://www.w3.org/2000/svg" preserveAspectRatio="xMinYMin meet" viewBox="0 0 500 500" shape-rendering="crispEdges" transform-origin="center"><rect width="100%" height="100%" fill="#2F590E" /><g transform="scale (5 5)"><rect x="17" y="-1" width="66" height="9" stroke-width="0.3" stroke="black" fill="#FFA800" /><text x="50" y="5.5" width="57" font-family="monospace" font-size="5" text-anchor="middle">Heaven's Necropolis</text></g><rect x="71" y="71" width="357" height="21" fill="#A98C00" /><rect x="71" y="92" width="357" height="21" fill="#A98C00" /><rect x="71" y="113" width="357" height="21" fill="#A98C00" /><rect x="71" y="134" width="357" height="21" fill="#A98C00" /><rect x="71" y="155" width="357" height="21" fill="#A98C00" /><rect x="71" y="176" width="357" height="21" fill="#A98C00" /><rect x="71" y="197" width="357" height="21" fill="#A98C00" /><rect x="71" y="218" width="168" height="21" fill="#A98C00" /><rect x="281" y="218" width="147" height="21" fill="#A98C00" /><rect x="71" y="239" width="189" height="21" fill="#A98C00" /><rect x="281" y="239" width="21" height="21" fill="#A98C00" /><rect x="365" y="239" width="63" height="21" fill="#A98C00" /><rect x="71" y="260" width="189" height="21" fill="#A98C00" /><rect x="281" y="260" width="63" height="21" fill="#A98C00" /><rect x="386" y="260" width="42" height="21" fill="#A98C00" /><rect x="71" y="281" width="168" height="21" fill="#A98C00" /><rect x="386" y="281" width="42" height="21" fill="#A98C00" /><rect x="71" y="302" width="147" height="21" fill="#A98C00" /><rect x="281" y="302" width="21" height="21" fill="#A98C00" /><rect x="344" y="302" width="84" height="21" fill="#A98C00" /><rect x="71" y="323" width="126" height="21" fill="#A98C00" /><rect x="239" y="323" width="63" height="21" fill="#A98C00" /><rect x="386" y="323" width="42" height="21" fill="#A98C00" /><rect x="71" y="344" width="126" height="21" fill="#A98C00" /><rect x="218" y="344" width="84" height="21" fill="#A98C00" /><rect x="323" y="344" width="21" height="21" fill="#A98C00" /><rect x="71" y="365" width="21" height="21" fill="#A98C00" /><rect x="134" y="365" width="63" height="21" fill="#A98C00" /><rect x="218" y="365" width="42" height="21" fill="#A98C00" /><rect x="323" y="365" width="84" height="21" fill="#A98C00" /><rect x="71" y="386" width="42" height="21" fill="#A98C00" /><rect x="134" y="386" width="63" height="21" fill="#A98C00" /><rect x="239" y="386" width="21" height="21" fill="#A98C00" /><rect x="281" y="386" width="21" height="21" fill="#A98C00" /><rect x="344" y="386" width="42" height="21" fill="#A98C00" /><rect x="71" y="407" width="21" height="21" fill="#A98C00" /><rect x="134" y="407" width="42" height="21" fill="#A98C00" /><rect x="281" y="407" width="21" height="21" fill="#A98C00" /><rect x="323" y="407" width="63" height="21" fill="#A98C00" /><rect x="407" y="407" width="21" height="21" fill="#A98C00" /><rect x="302" y="323" width="21" height="21" fill="#802F1A" /></svg>