<svg xmlns="http://www.w3.org/2000/svg" preserveAspectRatio="xMinYMin meet" viewBox="0 0 500 500" shape-rendering="crispEdges" transform-origin="center"><rect width="100%" height="100%" fill="#967E67" /><g transform="scale (5 5)"><rect x="33" y="-1" width="33" height="9" stroke-width="0.3" stroke="black" fill="#FFA800" /><text x="50" y="5.5" width="24" font-family="monospace" font-size="5" text-anchor="middle">Mountain</text></g><rect x="58" y="58" width="288" height="16" fill="#F3D899" /><rect x="362" y="58" width="80" height="16" fill="#F3D899" /><rect x="58" y="74" width="16" height="16" fill="#F3D899" /><rect x="122" y="74" width="32" height="16" fill="#F3D899" /><rect x="234" y="74" width="80" height="16" fill="#F3D899" /><rect x="346" y="74" width="96" height="16" fill="#F3D899" /><rect x="58" y="90" width="0" height="16" fill="#F3D899" /><rect x="122" y="90" width="32" height="16" fill="#F3D899" /><rect x="234" y="90" width="96" height="16" fill="#F3D899" /><rect x="346" y="90" width="96" height="16" fill="#F3D899" /><rect x="58" y="106" width="16" height="16" fill="#F3D899" /><rect x="90" y="106" width="16" height="16" fill="#F3D899" /><rect x="202" y="106" width="128" height="16" fill="#F3D899" /><rect x="346" y="106" width="80" height="16" fill="#F3D899" /><rect x="58" y="122" width="16" height="16" fill="#F3D899" /><rect x="202" y="122" width="128" height="16" fill="#F3D899" /><rect x="362" y="122" width="64" height="16" fill="#F3D899" /><rect x="58" y="138" width="48" height="16" fill="#F3D899" /><rect x="186" y="138" width="160" height="16" fill="#F3D899" /><rect x="362" y="138" width="80" height="16" fill="#F3D899" /><rect x="58" y="154" width="0" height="16" fill="#F3D899" /><rect x="90" y="154" width="16" height="16" fill="#F3D899" /><rect x="122" y="154" width="16" height="16" fill="#F3D899" /><rect x="202" y="154" width="112" height="16" fill="#F3D899" /><rect x="362" y="154" width="80" height="16" fill="#F3D899" /><rect x="58" y="170" width="48" height="16" fill="#F3D899" /><rect x="122" y="170" width="16" height="16" fill="#F3D899" /><rect x="202" y="170" width="112" height="16" fill="#F3D899" /><rect x="330" y="170" width="112" height="16" fill="#F3D899" /><rect x="58" y="186" width="80" height="16" fill="#F3D899" /><rect x="218" y="186" width="96" height="16" fill="#F3D899" /><rect x="330" y="186" width="112" height="16" fill="#F3D899" /><rect x="58" y="202" width="80" height="16" fill="#F3D899" /><rect x="154" y="202" width="16" height="16" fill="#F3D899" /><rect x="218" y="202" width="96" height="16" fill="#F3D899" /><rect x="330" y="202" width="112" height="16" fill="#F3D899" /><rect x="58" y="218" width="32" height="16" fill="#F3D899" /><rect x="154" y="218" width="16" height="16" fill="#F3D899" /><rect x="202" y="218" width="112" height="16" fill="#F3D899" /><rect x="330" y="218" width="112" height="16" fill="#F3D899" /><rect x="58" y="234" width="32" height="16" fill="#F3D899" /><rect x="106" y="234" width="48" height="16" fill="#F3D899" /><rect x="234" y="234" width="64" height="16" fill="#F3D899" /><rect x="330" y="234" width="112" height="16" fill="#F3D899" /><rect x="58" y="250" width="32" height="16" fill="#F3D899" /><rect x="106" y="250" width="48" height="16" fill="#F3D899" /><rect x="202" y="250" width="16" height="16" fill="#F3D899" /><rect x="250" y="250" width="192" height="16" fill="#F3D899" /><rect x="58" y="266" width="16" height="16" fill="#F3D899" /><rect x="106" y="266" width="64" height="16" fill="#F3D899" /><rect x="202" y="266" width="32" height="16" fill="#F3D899" /><rect x="250" y="266" width="192" height="16" fill="#F3D899" /><rect x="58" y="282" width="16" height="16" fill="#F3D899" /><rect x="106" y="282" width="48" height="16" fill="#F3D899" /><rect x="202" y="282" width="32" height="16" fill="#F3D899" /><rect x="250" y="282" width="192" height="16" fill="#F3D899" /><rect x="58" y="298" width="32" height="16" fill="#F3D899" /><rect x="106" y="298" width="48" height="16" fill="#F3D899" /><rect x="170" y="298" width="16" height="16" fill="#F3D899" /><rect x="202" y="298" width="16" height="16" fill="#F3D899" /><rect x="250" y="298" width="192" height="16" fill="#F3D899" /><rect x="58" y="314" width="32" height="16" fill="#F3D899" /><rect x="106" y="314" width="80" height="16" fill="#F3D899" /><rect x="202" y="314" width="240" height="16" fill="#F3D899" /><rect x="58" y="330" width="32" height="16" fill="#F3D899" /><rect x="106" y="330" width="80" height="16" fill="#F3D899" /><rect x="234" y="330" width="208" height="16" fill="#F3D899" /><rect x="58" y="346" width="32" height="16" fill="#F3D899" /><rect x="106" y="346" width="112" height="16" fill="#F3D899" /><rect x="234" y="346" width="208" height="16" fill="#F3D899" /><rect x="58" y="362" width="32" height="16" fill="#F3D899" /><rect x="106" y="362" width="112" height="16" fill="#F3D899" /><rect x="234" y="362" width="208" height="16" fill="#F3D899" /><rect x="58" y="378" width="32" height="16" fill="#F3D899" /><rect x="106" y="378" width="96" height="16" fill="#F3D899" /><rect x="234" y="378" width="208" height="16" fill="#F3D899" /><rect x="58" y="394" width="16" height="16" fill="#F3D899" /><rect x="106" y="394" width="336" height="16" fill="#F3D899" /><rect x="58" y="410" width="16" height="16" fill="#F3D899" /><rect x="90" y="410" width="352" height="16" fill="#F3D899" /><rect x="58" y="426" width="16" height="16" fill="#F3D899" /><rect x="90" y="426" width="352" height="16" fill="#F3D899" /><rect x="74" y="426" width="16" height="16" fill="#3C2A1A" /><rect x="74" y="394" width="16" height="16" fill="#006669" /><rect x="90" y="330" width="16" height="16" fill="#006669" /><rect x="170" y="282" width="16" height="16" fill="#3C2A1A" /><rect x="74" y="282" width="16" height="16" fill="#3C2A1A" /><rect x="154" y="250" width="16" height="16" fill="#3C2A1A" /><rect x="106" y="218" width="16" height="16" fill="#006669" /><rect x="186" y="202" width="16" height="16" fill="#006669" /><rect x="186" y="154" width="16" height="16" fill="#3C2A1A" /><rect x="74" y="122" width="16" height="16" fill="#006669" /></svg>