<svg xmlns="http://www.w3.org/2000/svg" preserveAspectRatio="xMinYMin meet" viewBox="0 0 500 500" shape-rendering="crispEdges" transform-origin="center"><rect width="100%" height="100%" fill="#2F590E" /><g transform="scale (5 5)"><rect x="8" y="-1" width="84" height="9" stroke-width="0.3" stroke="black" fill="#FFA800" /><text x="50" y="5.5" width="75" font-family="monospace" font-size="5" text-anchor="middle">Desolate Sewers of Wisdom</text></g><rect x="215" y="110" width="175" height="35" fill="#A98C00" /><rect x="110" y="145" width="35" height="35" fill="#A98C00" /><rect x="215" y="145" width="175" height="35" fill="#A98C00" /><rect x="110" y="180" width="35" height="35" fill="#A98C00" /><rect x="250" y="180" width="140" height="35" fill="#A98C00" /><rect x="110" y="215" width="35" height="35" fill="#A98C00" /><rect x="250" y="215" width="140" height="35" fill="#A98C00" /><rect x="110" y="250" width="35" height="35" fill="#A98C00" /><rect x="250" y="250" width="140" height="35" fill="#A98C00" /><rect x="110" y="285" width="70" height="35" fill="#A98C00" /><rect x="250" y="285" width="140" height="35" fill="#A98C00" /><rect x="110" y="320" width="280" height="35" fill="#A98C00" /><rect x="110" y="355" width="280" height="35" fill="#A98C00" /><rect x="145" y="180" width="35" height="35" fill="#C55300" /></svg>