<svg xmlns="http://www.w3.org/2000/svg" preserveAspectRatio="xMinYMin meet" viewBox="0 0 500 500" shape-rendering="crispEdges" transform-origin="center"><rect width="100%" height="100%" fill="#F3D899" /><g transform="scale (5 5)"><rect x="24" y="-1" width="51" height="9" stroke-width="0.3" stroke="black" fill="#FFA800" /><text x="50" y="5.5" width="42" font-family="monospace" font-size="5" text-anchor="middle">Canyon of Pine</text></g><rect x="54" y="54" width="391" height="17" fill="#160F09" /><rect x="54" y="71" width="34" height="17" fill="#160F09" /><rect x="190" y="71" width="255" height="17" fill="#160F09" /><rect x="54" y="88" width="34" height="17" fill="#160F09" /><rect x="190" y="88" width="255" height="17" fill="#160F09" /><rect x="54" y="105" width="34" height="17" fill="#160F09" /><rect x="343" y="105" width="102" height="17" fill="#160F09" /><rect x="54" y="122" width="34" height="17" fill="#160F09" /><rect x="190" y="122" width="136" height="17" fill="#160F09" /><rect x="343" y="122" width="102" height="17" fill="#160F09" /><rect x="54" y="139" width="34" height="17" fill="#160F09" /><rect x="190" y="139" width="136" height="17" fill="#160F09" /><rect x="343" y="139" width="102" height="17" fill="#160F09" /><rect x="54" y="156" width="85" height="17" fill="#160F09" /><rect x="156" y="156" width="170" height="17" fill="#160F09" /><rect x="343" y="156" width="102" height="17" fill="#160F09" /><rect x="54" y="173" width="85" height="17" fill="#160F09" /><rect x="156" y="173" width="170" height="17" fill="#160F09" /><rect x="343" y="173" width="102" height="17" fill="#160F09" /><rect x="54" y="190" width="34" height="17" fill="#160F09" /><rect x="173" y="190" width="17" height="17" fill="#160F09" /><rect x="224" y="190" width="102" height="17" fill="#160F09" /><rect x="343" y="190" width="102" height="17" fill="#160F09" /><rect x="54" y="207" width="34" height="17" fill="#160F09" /><rect x="411" y="207" width="34" height="17" fill="#160F09" /><rect x="54" y="224" width="34" height="17" fill="#160F09" /><rect x="224" y="224" width="102" height="17" fill="#160F09" /><rect x="343" y="224" width="51" height="17" fill="#160F09" /><rect x="411" y="224" width="34" height="17" fill="#160F09" /><rect x="54" y="241" width="68" height="17" fill="#160F09" /><rect x="173" y="241" width="17" height="17" fill="#160F09" /><rect x="224" y="241" width="102" height="17" fill="#160F09" /><rect x="343" y="241" width="51" height="17" fill="#160F09" /><rect x="411" y="241" width="34" height="17" fill="#160F09" /><rect x="54" y="258" width="68" height="17" fill="#160F09" /><rect x="224" y="258" width="102" height="17" fill="#160F09" /><rect x="343" y="258" width="34" height="17" fill="#160F09" /><rect x="411" y="258" width="34" height="17" fill="#160F09" /><rect x="54" y="275" width="34" height="17" fill="#160F09" /><rect x="173" y="275" width="34" height="17" fill="#160F09" /><rect x="224" y="275" width="102" height="17" fill="#160F09" /><rect x="343" y="275" width="34" height="17" fill="#160F09" /><rect x="411" y="275" width="34" height="17" fill="#160F09" /><rect x="54" y="292" width="34" height="17" fill="#160F09" /><rect x="411" y="292" width="34" height="17" fill="#160F09" /><rect x="54" y="309" width="17" height="17" fill="#160F09" /><rect x="360" y="309" width="17" height="17" fill="#160F09" /><rect x="411" y="309" width="34" height="17" fill="#160F09" /><rect x="54" y="326" width="17" height="17" fill="#160F09" /><rect x="360" y="326" width="85" height="17" fill="#160F09" /><rect x="54" y="343" width="17" height="17" fill="#160F09" /><rect x="360" y="343" width="85" height="17" fill="#160F09" /><rect x="54" y="360" width="17" height="17" fill="#160F09" /><rect x="360" y="360" width="85" height="17" fill="#160F09" /><rect x="54" y="377" width="17" height="17" fill="#160F09" /><rect x="258" y="377" width="51" height="17" fill="#160F09" /><rect x="360" y="377" width="85" height="17" fill="#160F09" /><rect x="54" y="394" width="68" height="17" fill="#160F09" /><rect x="190" y="394" width="17" height="17" fill="#160F09" /><rect x="241" y="394" width="204" height="17" fill="#160F09" /><rect x="54" y="411" width="391" height="17" fill="#160F09" /><rect x="54" y="428" width="391" height="17" fill="#160F09" /><rect x="258" y="343" width="17" height="17" fill="#00A29D" /><rect x="326" y="241" width="17" height="17" fill="#FAAA00" /><rect x="156" y="88" width="17" height="17" fill="#00A29D" /></svg>