<svg xmlns="http://www.w3.org/2000/svg" preserveAspectRatio="xMinYMin meet" viewBox="0 0 500 500" shape-rendering="crispEdges" transform-origin="center"><rect width="100%" height="100%" fill="#36230F" /><g transform="scale (5 5)"><rect x="14" y="-1" width="72" height="9" stroke-width="0.3" stroke="black" fill="#FFA800" /><text x="50" y="5.5" width="99" font-family="monospace" font-size="4" text-anchor="middle">Dire Tunnel of the Phoenix</text></g><rect x="54" y="54" width="391" height="17" fill="#744936" /><rect x="54" y="71" width="391" height="17" fill="#744936" /><rect x="54" y="88" width="391" height="17" fill="#744936" /><rect x="54" y="105" width="119" height="17" fill="#744936" /><rect x="207" y="105" width="238" height="17" fill="#744936" /><rect x="54" y="122" width="119" height="17" fill="#744936" /><rect x="275" y="122" width="170" height="17" fill="#744936" /><rect x="54" y="139" width="136" height="17" fill="#744936" /><rect x="207" y="139" width="51" height="17" fill="#744936" /><rect x="275" y="139" width="170" height="17" fill="#744936" /><rect x="54" y="156" width="51" height="17" fill="#744936" /><rect x="207" y="156" width="51" height="17" fill="#744936" /><rect x="275" y="156" width="170" height="17" fill="#744936" /><rect x="54" y="173" width="51" height="17" fill="#744936" /><rect x="207" y="173" width="51" height="17" fill="#744936" /><rect x="275" y="173" width="170" height="17" fill="#744936" /><rect x="54" y="190" width="51" height="17" fill="#744936" /><rect x="377" y="190" width="68" height="17" fill="#744936" /><rect x="54" y="207" width="51" height="17" fill="#744936" /><rect x="207" y="207" width="51" height="17" fill="#744936" /><rect x="275" y="207" width="85" height="17" fill="#744936" /><rect x="377" y="207" width="68" height="17" fill="#744936" /><rect x="54" y="224" width="51" height="17" fill="#744936" /><rect x="309" y="224" width="51" height="17" fill="#744936" /><rect x="377" y="224" width="68" height="17" fill="#744936" /><rect x="54" y="241" width="68" height="17" fill="#744936" /><rect x="173" y="241" width="17" height="17" fill="#744936" /><rect x="309" y="241" width="51" height="17" fill="#744936" /><rect x="377" y="241" width="68" height="17" fill="#744936" /><rect x="54" y="258" width="68" height="17" fill="#744936" /><rect x="309" y="258" width="51" height="17" fill="#744936" /><rect x="377" y="258" width="68" height="17" fill="#744936" /><rect x="54" y="275" width="34" height="17" fill="#744936" /><rect x="309" y="275" width="51" height="17" fill="#744936" /><rect x="377" y="275" width="68" height="17" fill="#744936" /><rect x="54" y="292" width="34" height="17" fill="#744936" /><rect x="105" y="292" width="34" height="17" fill="#744936" /><rect x="292" y="292" width="34" height="17" fill="#744936" /><rect x="411" y="292" width="34" height="17" fill="#744936" /><rect x="54" y="309" width="17" height="17" fill="#744936" /><rect x="309" y="309" width="17" height="17" fill="#744936" /><rect x="411" y="309" width="34" height="17" fill="#744936" /><rect x="54" y="326" width="17" height="17" fill="#744936" /><rect x="309" y="326" width="17" height="17" fill="#744936" /><rect x="411" y="326" width="34" height="17" fill="#744936" /><rect x="54" y="343" width="17" height="17" fill="#744936" /><rect x="411" y="343" width="34" height="17" fill="#744936" /><rect x="54" y="360" width="17" height="17" fill="#744936" /><rect x="309" y="360" width="17" height="17" fill="#744936" /><rect x="411" y="360" width="34" height="17" fill="#744936" /><rect x="54" y="377" width="17" height="17" fill="#744936" /><rect x="241" y="377" width="34" height="17" fill="#744936" /><rect x="309" y="377" width="17" height="17" fill="#744936" /><rect x="411" y="377" width="34" height="17" fill="#744936" /><rect x="54" y="394" width="17" height="17" fill="#744936" /><rect x="173" y="394" width="272" height="17" fill="#744936" /><rect x="54" y="411" width="391" height="17" fill="#744936" /><rect x="54" y="428" width="391" height="17" fill="#744936" /><rect x="275" y="360" width="17" height="17" fill="#FFA800" /><rect x="156" y="292" width="17" height="17" fill="#FFA800" /><rect x="343" y="190" width="17" height="17" fill="#802F1A" /><rect x="292" y="190" width="17" height="17" fill="#802F1A" /><rect x="258" y="173" width="17" height="17" fill="#802F1A" /></svg>