<svg xmlns="http://www.w3.org/2000/svg" preserveAspectRatio="xMinYMin meet" viewBox="0 0 500 500" shape-rendering="crispEdges" transform-origin="center"><rect width="100%" height="100%" fill="#967E67" /><g transform="scale (5 5)"><rect x="11" y="-1" width="78" height="9" stroke-width="0.3" stroke="black" fill="#FFA800" /><text x="50" y="5.5" width="69" font-family="monospace" font-size="5" text-anchor="middle">Grim Tunnel of Loathing</text></g><rect x="60" y="60" width="380" height="19" fill="#F3D899" /><rect x="60" y="79" width="380" height="19" fill="#F3D899" /><rect x="60" y="98" width="380" height="19" fill="#F3D899" /><rect x="60" y="117" width="380" height="19" fill="#F3D899" /><rect x="60" y="136" width="380" height="19" fill="#F3D899" /><rect x="60" y="155" width="380" height="19" fill="#F3D899" /><rect x="60" y="174" width="380" height="19" fill="#F3D899" /><rect x="60" y="193" width="380" height="19" fill="#F3D899" /><rect x="60" y="212" width="380" height="19" fill="#F3D899" /><rect x="60" y="231" width="380" height="19" fill="#F3D899" /><rect x="60" y="250" width="19" height="19" fill="#F3D899" /><rect x="117" y="250" width="76" height="19" fill="#F3D899" /><rect x="250" y="250" width="19" height="19" fill="#F3D899" /><rect x="326" y="250" width="114" height="19" fill="#F3D899" /><rect x="60" y="269" width="19" height="19" fill="#F3D899" /><rect x="117" y="269" width="19" height="19" fill="#F3D899" /><rect x="364" y="269" width="76" height="19" fill="#F3D899" /><rect x="60" y="288" width="19" height="19" fill="#F3D899" /><rect x="212" y="288" width="133" height="19" fill="#F3D899" /><rect x="364" y="288" width="76" height="19" fill="#F3D899" /><rect x="60" y="307" width="19" height="19" fill="#F3D899" /><rect x="117" y="307" width="19" height="19" fill="#F3D899" /><rect x="212" y="307" width="133" height="19" fill="#F3D899" /><rect x="364" y="307" width="76" height="19" fill="#F3D899" /><rect x="60" y="326" width="19" height="19" fill="#F3D899" /><rect x="117" y="326" width="19" height="19" fill="#F3D899" /><rect x="212" y="326" width="133" height="19" fill="#F3D899" /><rect x="364" y="326" width="76" height="19" fill="#F3D899" /><rect x="60" y="345" width="38" height="19" fill="#F3D899" /><rect x="117" y="345" width="228" height="19" fill="#F3D899" /><rect x="364" y="345" width="76" height="19" fill="#F3D899" /><rect x="60" y="364" width="38" height="19" fill="#F3D899" /><rect x="117" y="364" width="209" height="19" fill="#F3D899" /><rect x="364" y="364" width="76" height="19" fill="#F3D899" /><rect x="60" y="383" width="38" height="19" fill="#F3D899" /><rect x="364" y="383" width="76" height="19" fill="#F3D899" /><rect x="60" y="402" width="380" height="19" fill="#F3D899" /><rect x="60" y="421" width="380" height="19" fill="#F3D899" /><rect x="98" y="364" width="19" height="19" fill="#3C2A1A" /><rect x="250" y="269" width="19" height="19" fill="#3C2A1A" /><rect x="98" y="250" width="19" height="19" fill="#006669" /></svg>