<svg xmlns="http://www.w3.org/2000/svg" preserveAspectRatio="xMinYMin meet" viewBox="0 0 500 500" shape-rendering="crispEdges" transform-origin="center"><rect width="100%" height="100%" fill="#2F590E" /><g transform="scale (5 5)"><rect x="36" y="-1" width="27" height="9" stroke-width="0.3" stroke="black" fill="#FFA800" /><text x="50" y="5.5" width="18" font-family="monospace" font-size="5" text-anchor="middle">Tunnel</text></g><rect x="60" y="60" width="100" height="20" fill="#A98C00" /><rect x="180" y="60" width="260" height="20" fill="#A98C00" /><rect x="60" y="80" width="160" height="20" fill="#A98C00" /><rect x="260" y="80" width="40" height="20" fill="#A98C00" /><rect x="420" y="80" width="20" height="20" fill="#A98C00" /><rect x="60" y="100" width="160" height="20" fill="#A98C00" /><rect x="260" y="100" width="60" height="20" fill="#A98C00" /><rect x="60" y="120" width="20" height="20" fill="#A98C00" /><rect x="100" y="120" width="120" height="20" fill="#A98C00" /><rect x="280" y="120" width="40" height="20" fill="#A98C00" /><rect x="360" y="120" width="20" height="20" fill="#A98C00" /><rect x="420" y="120" width="20" height="20" fill="#A98C00" /><rect x="60" y="140" width="20" height="20" fill="#A98C00" /><rect x="120" y="140" width="120" height="20" fill="#A98C00" /><rect x="280" y="140" width="40" height="20" fill="#A98C00" /><rect x="360" y="140" width="20" height="20" fill="#A98C00" /><rect x="420" y="140" width="20" height="20" fill="#A98C00" /><rect x="60" y="160" width="180" height="20" fill="#A98C00" /><rect x="280" y="160" width="60" height="20" fill="#A98C00" /><rect x="420" y="160" width="20" height="20" fill="#A98C00" /><rect x="60" y="180" width="180" height="20" fill="#A98C00" /><rect x="280" y="180" width="60" height="20" fill="#A98C00" /><rect x="400" y="180" width="40" height="20" fill="#A98C00" /><rect x="60" y="200" width="160" height="20" fill="#A98C00" /><rect x="260" y="200" width="60" height="20" fill="#A98C00" /><rect x="400" y="200" width="40" height="20" fill="#A98C00" /><rect x="60" y="220" width="140" height="20" fill="#A98C00" /><rect x="260" y="220" width="60" height="20" fill="#A98C00" /><rect x="60" y="240" width="140" height="20" fill="#A98C00" /><rect x="260" y="240" width="80" height="20" fill="#A98C00" /><rect x="360" y="240" width="80" height="20" fill="#A98C00" /><rect x="60" y="260" width="140" height="20" fill="#A98C00" /><rect x="260" y="260" width="180" height="20" fill="#A98C00" /><rect x="60" y="280" width="140" height="20" fill="#A98C00" /><rect x="240" y="280" width="200" height="20" fill="#A98C00" /><rect x="60" y="300" width="140" height="20" fill="#A98C00" /><rect x="260" y="300" width="180" height="20" fill="#A98C00" /><rect x="60" y="320" width="140" height="20" fill="#A98C00" /><rect x="220" y="320" width="20" height="20" fill="#A98C00" /><rect x="260" y="320" width="180" height="20" fill="#A98C00" /><rect x="60" y="340" width="140" height="20" fill="#A98C00" /><rect x="220" y="340" width="20" height="20" fill="#A98C00" /><rect x="260" y="340" width="180" height="20" fill="#A98C00" /><rect x="60" y="360" width="140" height="20" fill="#A98C00" /><rect x="260" y="360" width="180" height="20" fill="#A98C00" /><rect x="60" y="380" width="160" height="20" fill="#A98C00" /><rect x="260" y="380" width="180" height="20" fill="#A98C00" /><rect x="60" y="400" width="140" height="20" fill="#A98C00" /><rect x="240" y="400" width="200" height="20" fill="#A98C00" /><rect x="60" y="420" width="140" height="20" fill="#A98C00" /><rect x="220" y="420" width="220" height="20" fill="#A98C00" /><rect x="220" y="260" width="20" height="20" fill="#C55300" /><rect x="240" y="140" width="20" height="20" fill="#C55300" /><rect x="320" y="120" width="20" height="20" fill="#C55300" /></svg>