<svg xmlns="http://www.w3.org/2000/svg" preserveAspectRatio="xMinYMin meet" viewBox="0 0 500 500" shape-rendering="crispEdges" transform-origin="center"><rect width="100%" height="100%" fill="#006669" /><g transform="scale (5 5)"><rect x="24" y="-1" width="51" height="9" stroke-width="0.3" stroke="black" fill="#FFA800" /><text x="50" y="5.5" width="42" font-family="monospace" font-size="5" text-anchor="middle">Howling Grotto</text></g><rect x="58" y="58" width="48" height="16" fill="#004238" /><rect x="122" y="58" width="320" height="16" fill="#004238" /><rect x="58" y="74" width="16" height="16" fill="#004238" /><rect x="90" y="74" width="32" height="16" fill="#004238" /><rect x="282" y="74" width="160" height="16" fill="#004238" /><rect x="58" y="90" width="16" height="16" fill="#004238" /><rect x="170" y="90" width="16" height="16" fill="#004238" /><rect x="218" y="90" width="32" height="16" fill="#004238" /><rect x="266" y="90" width="176" height="16" fill="#004238" /><rect x="58" y="106" width="16" height="16" fill="#004238" /><rect x="90" y="106" width="16" height="16" fill="#004238" /><rect x="170" y="106" width="64" height="16" fill="#004238" /><rect x="266" y="106" width="176" height="16" fill="#004238" /><rect x="58" y="122" width="16" height="16" fill="#004238" /><rect x="90" y="122" width="16" height="16" fill="#004238" /><rect x="170" y="122" width="64" height="16" fill="#004238" /><rect x="266" y="122" width="176" height="16" fill="#004238" /><rect x="58" y="138" width="48" height="16" fill="#004238" /><rect x="122" y="138" width="32" height="16" fill="#004238" /><rect x="186" y="138" width="48" height="16" fill="#004238" /><rect x="250" y="138" width="192" height="16" fill="#004238" /><rect x="58" y="154" width="48" height="16" fill="#004238" /><rect x="186" y="154" width="16" height="16" fill="#004238" /><rect x="250" y="154" width="192" height="16" fill="#004238" /><rect x="58" y="170" width="64" height="16" fill="#004238" /><rect x="186" y="170" width="16" height="16" fill="#004238" /><rect x="234" y="170" width="192" height="16" fill="#004238" /><rect x="58" y="186" width="64" height="16" fill="#004238" /><rect x="202" y="186" width="16" height="16" fill="#004238" /><rect x="250" y="186" width="96" height="16" fill="#004238" /><rect x="58" y="202" width="80" height="16" fill="#004238" /><rect x="202" y="202" width="32" height="16" fill="#004238" /><rect x="250" y="202" width="192" height="16" fill="#004238" /><rect x="58" y="218" width="32" height="16" fill="#004238" /><rect x="202" y="218" width="32" height="16" fill="#004238" /><rect x="266" y="218" width="176" height="16" fill="#004238" /><rect x="58" y="234" width="48" height="16" fill="#004238" /><rect x="122" y="234" width="16" height="16" fill="#004238" /><rect x="202" y="234" width="48" height="16" fill="#004238" /><rect x="266" y="234" width="176" height="16" fill="#004238" /><rect x="58" y="250" width="32" height="16" fill="#004238" /><rect x="202" y="250" width="48" height="16" fill="#004238" /><rect x="266" y="250" width="176" height="16" fill="#004238" /><rect x="58" y="266" width="16" height="16" fill="#004238" /><rect x="186" y="266" width="64" height="16" fill="#004238" /><rect x="266" y="266" width="176" height="16" fill="#004238" /><rect x="58" y="282" width="16" height="16" fill="#004238" /><rect x="138" y="282" width="16" height="16" fill="#004238" /><rect x="170" y="282" width="48" height="16" fill="#004238" /><rect x="266" y="282" width="176" height="16" fill="#004238" /><rect x="58" y="298" width="16" height="16" fill="#004238" /><rect x="138" y="298" width="16" height="16" fill="#004238" /><rect x="170" y="298" width="48" height="16" fill="#004238" /><rect x="234" y="298" width="208" height="16" fill="#004238" /><rect x="58" y="314" width="16" height="16" fill="#004238" /><rect x="138" y="314" width="16" height="16" fill="#004238" /><rect x="186" y="314" width="32" height="16" fill="#004238" /><rect x="250" y="314" width="192" height="16" fill="#004238" /><rect x="58" y="330" width="16" height="16" fill="#004238" /><rect x="138" y="330" width="32" height="16" fill="#004238" /><rect x="186" y="330" width="32" height="16" fill="#004238" /><rect x="250" y="330" width="192" height="16" fill="#004238" /><rect x="58" y="346" width="32" height="16" fill="#004238" /><rect x="138" y="346" width="32" height="16" fill="#004238" /><rect x="186" y="346" width="32" height="16" fill="#004238" /><rect x="250" y="346" width="192" height="16" fill="#004238" /><rect x="58" y="362" width="112" height="16" fill="#004238" /><rect x="186" y="362" width="32" height="16" fill="#004238" /><rect x="234" y="362" width="208" height="16" fill="#004238" /><rect x="58" y="378" width="112" height="16" fill="#004238" /><rect x="186" y="378" width="256" height="16" fill="#004238" /><rect x="58" y="394" width="112" height="16" fill="#004238" /><rect x="186" y="394" width="256" height="16" fill="#004238" /><rect x="58" y="410" width="96" height="16" fill="#004238" /><rect x="186" y="410" width="256" height="16" fill="#004238" /><rect x="58" y="426" width="384" height="16" fill="#004238" /><rect x="122" y="266" width="16" height="16" fill="#F9B569" /></svg>