<svg xmlns="http://www.w3.org/2000/svg" preserveAspectRatio="xMinYMin meet" viewBox="0 0 500 500" shape-rendering="crispEdges" transform-origin="center"><rect width="100%" height="100%" fill="#340D07" /><g transform="scale (5 5)"><rect x="12" y="-1" width="76" height="9" stroke-width="0.3" stroke="black" fill="#FFA800" /><text x="50" y="5.5" width="105" font-family="monospace" font-size="4" text-anchor="middle">Holy Mountain of the Phoenix</text></g><rect x="60" y="60" width="304" height="19" fill="#5D0503" /><rect x="383" y="60" width="57" height="19" fill="#5D0503" /><rect x="60" y="79" width="19" height="19" fill="#5D0503" /><rect x="117" y="79" width="38" height="19" fill="#5D0503" /><rect x="174" y="79" width="19" height="19" fill="#5D0503" /><rect x="212" y="79" width="95" height="19" fill="#5D0503" /><rect x="383" y="79" width="57" height="19" fill="#5D0503" /><rect x="60" y="98" width="19" height="19" fill="#5D0503" /><rect x="98" y="98" width="57" height="19" fill="#5D0503" /><rect x="174" y="98" width="19" height="19" fill="#5D0503" /><rect x="212" y="98" width="95" height="19" fill="#5D0503" /><rect x="364" y="98" width="76" height="19" fill="#5D0503" /><rect x="60" y="117" width="19" height="19" fill="#5D0503" /><rect x="136" y="117" width="19" height="19" fill="#5D0503" /><rect x="212" y="117" width="76" height="19" fill="#5D0503" /><rect x="326" y="117" width="19" height="19" fill="#5D0503" /><rect x="364" y="117" width="76" height="19" fill="#5D0503" /><rect x="60" y="136" width="95" height="19" fill="#5D0503" /><rect x="231" y="136" width="57" height="19" fill="#5D0503" /><rect x="326" y="136" width="19" height="19" fill="#5D0503" /><rect x="383" y="136" width="57" height="19" fill="#5D0503" /><rect x="60" y="155" width="152" height="19" fill="#5D0503" /><rect x="231" y="155" width="76" height="19" fill="#5D0503" /><rect x="326" y="155" width="114" height="19" fill="#5D0503" /><rect x="60" y="174" width="133" height="19" fill="#5D0503" /><rect x="231" y="174" width="76" height="19" fill="#5D0503" /><rect x="326" y="174" width="114" height="19" fill="#5D0503" /><rect x="60" y="193" width="133" height="19" fill="#5D0503" /><rect x="212" y="193" width="95" height="19" fill="#5D0503" /><rect x="326" y="193" width="114" height="19" fill="#5D0503" /><rect x="60" y="212" width="114" height="19" fill="#5D0503" /><rect x="212" y="212" width="57" height="19" fill="#5D0503" /><rect x="326" y="212" width="114" height="19" fill="#5D0503" /><rect x="60" y="231" width="114" height="19" fill="#5D0503" /><rect x="193" y="231" width="57" height="19" fill="#5D0503" /><rect x="307" y="231" width="133" height="19" fill="#5D0503" /><rect x="60" y="250" width="114" height="19" fill="#5D0503" /><rect x="193" y="250" width="57" height="19" fill="#5D0503" /><rect x="288" y="250" width="133" height="19" fill="#5D0503" /><rect x="60" y="269" width="114" height="19" fill="#5D0503" /><rect x="193" y="269" width="57" height="19" fill="#5D0503" /><rect x="288" y="269" width="133" height="19" fill="#5D0503" /><rect x="60" y="288" width="342" height="19" fill="#5D0503" /><rect x="60" y="307" width="342" height="19" fill="#5D0503" /><rect x="421" y="307" width="19" height="19" fill="#5D0503" /><rect x="60" y="326" width="342" height="19" fill="#5D0503" /><rect x="421" y="326" width="19" height="19" fill="#5D0503" /><rect x="60" y="345" width="342" height="19" fill="#5D0503" /><rect x="60" y="364" width="323" height="19" fill="#5D0503" /><rect x="60" y="383" width="323" height="19" fill="#5D0503" /><rect x="421" y="383" width="19" height="19" fill="#5D0503" /><rect x="60" y="402" width="342" height="19" fill="#5D0503" /><rect x="421" y="402" width="19" height="19" fill="#5D0503" /><rect x="60" y="421" width="380" height="19" fill="#5D0503" /><rect x="402" y="383" width="19" height="19" fill="#B75700" /><rect x="383" y="364" width="19" height="19" fill="#B75700" /><rect x="421" y="345" width="19" height="19" fill="#B75700" /><rect x="402" y="307" width="19" height="19" fill="#B75700" /><rect x="307" y="174" width="19" height="19" fill="#FF1800" /><rect x="155" y="136" width="19" height="19" fill="#B75700" /><rect x="193" y="117" width="19" height="19" fill="#B75700" /><rect x="79" y="98" width="19" height="19" fill="#B75700" /></svg>