<svg xmlns="http://www.w3.org/2000/svg" preserveAspectRatio="xMinYMin meet" viewBox="0 0 500 500" shape-rendering="crispEdges" transform-origin="center"><rect width="100%" height="100%" fill="#006669" /><g transform="scale (5 5)"><rect x="17" y="-1" width="66" height="9" stroke-width="0.3" stroke="black" fill="#FFA800" /><text x="50" y="5.5" width="57" font-family="monospace" font-size="5" text-anchor="middle">Temple of the Golem</text></g><rect x="54" y="54" width="391" height="17" fill="#004238" /><rect x="54" y="71" width="34" height="17" fill="#004238" /><rect x="156" y="71" width="68" height="17" fill="#004238" /><rect x="258" y="71" width="187" height="17" fill="#004238" /><rect x="54" y="88" width="34" height="17" fill="#004238" /><rect x="156" y="88" width="68" height="17" fill="#004238" /><rect x="258" y="88" width="187" height="17" fill="#004238" /><rect x="54" y="105" width="34" height="17" fill="#004238" /><rect x="309" y="105" width="136" height="17" fill="#004238" /><rect x="54" y="122" width="34" height="17" fill="#004238" /><rect x="156" y="122" width="85" height="17" fill="#004238" /><rect x="258" y="122" width="34" height="17" fill="#004238" /><rect x="309" y="122" width="136" height="17" fill="#004238" /><rect x="54" y="139" width="34" height="17" fill="#004238" /><rect x="156" y="139" width="85" height="17" fill="#004238" /><rect x="258" y="139" width="34" height="17" fill="#004238" /><rect x="309" y="139" width="136" height="17" fill="#004238" /><rect x="54" y="156" width="68" height="17" fill="#004238" /><rect x="139" y="156" width="102" height="17" fill="#004238" /><rect x="258" y="156" width="34" height="17" fill="#004238" /><rect x="309" y="156" width="136" height="17" fill="#004238" /><rect x="54" y="173" width="68" height="17" fill="#004238" /><rect x="139" y="173" width="102" height="17" fill="#004238" /><rect x="326" y="173" width="119" height="17" fill="#004238" /><rect x="54" y="190" width="68" height="17" fill="#004238" /><rect x="139" y="190" width="102" height="17" fill="#004238" /><rect x="326" y="190" width="119" height="17" fill="#004238" /><rect x="54" y="207" width="68" height="17" fill="#004238" /><rect x="139" y="207" width="102" height="17" fill="#004238" /><rect x="326" y="207" width="119" height="17" fill="#004238" /><rect x="54" y="224" width="68" height="17" fill="#004238" /><rect x="326" y="224" width="119" height="17" fill="#004238" /><rect x="54" y="241" width="34" height="17" fill="#004238" /><rect x="173" y="241" width="68" height="17" fill="#004238" /><rect x="326" y="241" width="119" height="17" fill="#004238" /><rect x="54" y="258" width="34" height="17" fill="#004238" /><rect x="173" y="258" width="68" height="17" fill="#004238" /><rect x="326" y="258" width="119" height="17" fill="#004238" /><rect x="54" y="275" width="85" height="17" fill="#004238" /><rect x="156" y="275" width="85" height="17" fill="#004238" /><rect x="326" y="275" width="17" height="17" fill="#004238" /><rect x="411" y="275" width="34" height="17" fill="#004238" /><rect x="54" y="292" width="51" height="17" fill="#004238" /><rect x="173" y="292" width="68" height="17" fill="#004238" /><rect x="326" y="292" width="17" height="17" fill="#004238" /><rect x="411" y="292" width="34" height="17" fill="#004238" /><rect x="54" y="309" width="51" height="17" fill="#004238" /><rect x="411" y="309" width="34" height="17" fill="#004238" /><rect x="54" y="326" width="51" height="17" fill="#004238" /><rect x="326" y="326" width="17" height="17" fill="#004238" /><rect x="411" y="326" width="34" height="17" fill="#004238" /><rect x="54" y="343" width="204" height="17" fill="#004238" /><rect x="326" y="343" width="119" height="17" fill="#004238" /><rect x="54" y="360" width="204" height="17" fill="#004238" /><rect x="326" y="360" width="119" height="17" fill="#004238" /><rect x="54" y="377" width="391" height="17" fill="#004238" /><rect x="54" y="394" width="391" height="17" fill="#004238" /><rect x="54" y="411" width="391" height="17" fill="#004238" /><rect x="54" y="428" width="391" height="17" fill="#004238" /><rect x="275" y="224" width="17" height="17" fill="#F9B569" /><rect x="173" y="224" width="17" height="17" fill="#967E67" /></svg>