<svg xmlns="http://www.w3.org/2000/svg" preserveAspectRatio="xMinYMin meet" viewBox="0 0 500 500" shape-rendering="crispEdges" transform-origin="center"><rect width="100%" height="100%" fill="#2F590E" /><g transform="scale (5 5)"><rect x="15" y="-1" width="69" height="9" stroke-width="0.3" stroke="black" fill="#FFA800" /><text x="50" y="5.5" width="60" font-family="monospace" font-size="5" text-anchor="middle">Holy Prison of Anger</text></g><rect x="61" y="61" width="378" height="18" fill="#A98C00" /><rect x="61" y="79" width="378" height="18" fill="#A98C00" /><rect x="61" y="97" width="378" height="18" fill="#A98C00" /><rect x="61" y="115" width="378" height="18" fill="#A98C00" /><rect x="61" y="133" width="36" height="18" fill="#A98C00" /><rect x="205" y="133" width="234" height="18" fill="#A98C00" /><rect x="61" y="151" width="36" height="18" fill="#A98C00" /><rect x="205" y="151" width="234" height="18" fill="#A98C00" /><rect x="61" y="169" width="36" height="18" fill="#A98C00" /><rect x="205" y="169" width="234" height="18" fill="#A98C00" /><rect x="61" y="187" width="36" height="18" fill="#A98C00" /><rect x="277" y="187" width="162" height="18" fill="#A98C00" /><rect x="61" y="205" width="54" height="18" fill="#A98C00" /><rect x="133" y="205" width="18" height="18" fill="#A98C00" /><rect x="169" y="205" width="18" height="18" fill="#A98C00" /><rect x="277" y="205" width="162" height="18" fill="#A98C00" /><rect x="61" y="223" width="54" height="18" fill="#A98C00" /><rect x="133" y="223" width="18" height="18" fill="#A98C00" /><rect x="169" y="223" width="18" height="18" fill="#A98C00" /><rect x="277" y="223" width="162" height="18" fill="#A98C00" /><rect x="61" y="241" width="36" height="18" fill="#A98C00" /><rect x="277" y="241" width="162" height="18" fill="#A98C00" /><rect x="61" y="259" width="18" height="18" fill="#A98C00" /><rect x="169" y="259" width="18" height="18" fill="#A98C00" /><rect x="277" y="259" width="162" height="18" fill="#A98C00" /><rect x="61" y="277" width="18" height="18" fill="#A98C00" /><rect x="169" y="277" width="18" height="18" fill="#A98C00" /><rect x="277" y="277" width="162" height="18" fill="#A98C00" /><rect x="61" y="295" width="18" height="18" fill="#A98C00" /><rect x="241" y="295" width="198" height="18" fill="#A98C00" /><rect x="61" y="313" width="36" height="18" fill="#A98C00" /><rect x="241" y="313" width="198" height="18" fill="#A98C00" /><rect x="61" y="331" width="90" height="18" fill="#A98C00" /><rect x="241" y="331" width="198" height="18" fill="#A98C00" /><rect x="61" y="349" width="90" height="18" fill="#A98C00" /><rect x="367" y="349" width="72" height="18" fill="#A98C00" /><rect x="61" y="367" width="108" height="18" fill="#A98C00" /><rect x="241" y="367" width="90" height="18" fill="#A98C00" /><rect x="385" y="367" width="54" height="18" fill="#A98C00" /><rect x="61" y="385" width="162" height="18" fill="#A98C00" /><rect x="385" y="385" width="54" height="18" fill="#A98C00" /><rect x="61" y="403" width="378" height="18" fill="#A98C00" /><rect x="61" y="421" width="378" height="18" fill="#A98C00" /><rect x="277" y="385" width="18" height="18" fill="#802F1A" /><rect x="205" y="367" width="18" height="18" fill="#C55300" /><rect x="169" y="331" width="18" height="18" fill="#C55300" /><rect x="169" y="295" width="18" height="18" fill="#C55300" /><rect x="241" y="259" width="18" height="18" fill="#C55300" /></svg>