<svg xmlns="http://www.w3.org/2000/svg" preserveAspectRatio="xMinYMin meet" viewBox="0 0 500 500" shape-rendering="crispEdges" transform-origin="center"><rect width="100%" height="100%" fill="#340D07" /><g transform="scale (5 5)"><rect x="15" y="-1" width="69" height="9" stroke-width="0.3" stroke="black" fill="#FFA800" /><text x="50" y="5.5" width="60" font-family="monospace" font-size="5" text-anchor="middle">Valley of the Plague</text></g><rect x="101" y="101" width="264" height="33" fill="#5D0503" /><rect x="101" y="134" width="66" height="33" fill="#5D0503" /><rect x="200" y="134" width="198" height="33" fill="#5D0503" /><rect x="101" y="167" width="33" height="33" fill="#5D0503" /><rect x="200" y="167" width="198" height="33" fill="#5D0503" /><rect x="101" y="200" width="33" height="33" fill="#5D0503" /><rect x="233" y="200" width="165" height="33" fill="#5D0503" /><rect x="101" y="233" width="33" height="33" fill="#5D0503" /><rect x="167" y="233" width="33" height="33" fill="#5D0503" /><rect x="266" y="233" width="132" height="33" fill="#5D0503" /><rect x="101" y="266" width="132" height="33" fill="#5D0503" /><rect x="266" y="266" width="132" height="33" fill="#5D0503" /><rect x="101" y="299" width="132" height="33" fill="#5D0503" /><rect x="299" y="299" width="66" height="33" fill="#5D0503" /><rect x="101" y="332" width="165" height="33" fill="#5D0503" /><rect x="332" y="332" width="66" height="33" fill="#5D0503" /><rect x="101" y="365" width="132" height="33" fill="#5D0503" /><rect x="299" y="365" width="99" height="33" fill="#5D0503" /><rect x="167" y="134" width="33" height="33" fill="#B75700" /><rect x="365" y="101" width="33" height="33" fill="#B75700" /></svg>