<svg xmlns="http://www.w3.org/2000/svg" preserveAspectRatio="xMinYMin meet" viewBox="0 0 500 500" shape-rendering="crispEdges" transform-origin="center"><rect width="100%" height="100%" fill="#2F590E" /><g transform="scale (5 5)"><rect x="12" y="-1" width="76" height="9" stroke-width="0.3" stroke="black" fill="#FFA800" /><text x="50" y="5.5" width="105" font-family="monospace" font-size="4" text-anchor="middle">Emerald Labyrinth of Victory</text></g><rect x="61" y="61" width="378" height="18" fill="#A98C00" /><rect x="61" y="79" width="36" height="18" fill="#A98C00" /><rect x="151" y="79" width="288" height="18" fill="#A98C00" /><rect x="61" y="97" width="36" height="18" fill="#A98C00" /><rect x="151" y="97" width="288" height="18" fill="#A98C00" /><rect x="61" y="115" width="36" height="18" fill="#A98C00" /><rect x="151" y="115" width="288" height="18" fill="#A98C00" /><rect x="61" y="133" width="36" height="18" fill="#A98C00" /><rect x="151" y="133" width="216" height="18" fill="#A98C00" /><rect x="403" y="133" width="36" height="18" fill="#A98C00" /><rect x="61" y="151" width="54" height="18" fill="#A98C00" /><rect x="133" y="151" width="234" height="18" fill="#A98C00" /><rect x="403" y="151" width="36" height="18" fill="#A98C00" /><rect x="61" y="169" width="54" height="18" fill="#A98C00" /><rect x="133" y="169" width="234" height="18" fill="#A98C00" /><rect x="403" y="169" width="36" height="18" fill="#A98C00" /><rect x="61" y="187" width="36" height="18" fill="#A98C00" /><rect x="403" y="187" width="36" height="18" fill="#A98C00" /><rect x="61" y="205" width="36" height="18" fill="#A98C00" /><rect x="133" y="205" width="234" height="18" fill="#A98C00" /><rect x="403" y="205" width="36" height="18" fill="#A98C00" /><rect x="61" y="223" width="36" height="18" fill="#A98C00" /><rect x="133" y="223" width="18" height="18" fill="#A98C00" /><rect x="223" y="223" width="144" height="18" fill="#A98C00" /><rect x="403" y="223" width="36" height="18" fill="#A98C00" /><rect x="61" y="241" width="36" height="18" fill="#A98C00" /><rect x="133" y="241" width="18" height="18" fill="#A98C00" /><rect x="223" y="241" width="162" height="18" fill="#A98C00" /><rect x="403" y="241" width="36" height="18" fill="#A98C00" /><rect x="61" y="259" width="18" height="18" fill="#A98C00" /><rect x="133" y="259" width="18" height="18" fill="#A98C00" /><rect x="259" y="259" width="126" height="18" fill="#A98C00" /><rect x="403" y="259" width="36" height="18" fill="#A98C00" /><rect x="61" y="277" width="18" height="18" fill="#A98C00" /><rect x="259" y="277" width="126" height="18" fill="#A98C00" /><rect x="403" y="277" width="36" height="18" fill="#A98C00" /><rect x="61" y="295" width="18" height="18" fill="#A98C00" /><rect x="259" y="295" width="126" height="18" fill="#A98C00" /><rect x="403" y="295" width="36" height="18" fill="#A98C00" /><rect x="61" y="313" width="36" height="18" fill="#A98C00" /><rect x="259" y="313" width="126" height="18" fill="#A98C00" /><rect x="403" y="313" width="36" height="18" fill="#A98C00" /><rect x="61" y="331" width="36" height="18" fill="#A98C00" /><rect x="385" y="331" width="54" height="18" fill="#A98C00" /><rect x="61" y="349" width="36" height="18" fill="#A98C00" /><rect x="259" y="349" width="180" height="18" fill="#A98C00" /><rect x="61" y="367" width="36" height="18" fill="#A98C00" /><rect x="223" y="367" width="216" height="18" fill="#A98C00" /><rect x="61" y="385" width="90" height="18" fill="#A98C00" /><rect x="223" y="385" width="216" height="18" fill="#A98C00" /><rect x="61" y="403" width="378" height="18" fill="#A98C00" /><rect x="61" y="421" width="378" height="18" fill="#A98C00" /><rect x="241" y="259" width="18" height="18" fill="#C55300" /><rect x="115" y="205" width="18" height="18" fill="#802F1A" /><rect x="115" y="187" width="18" height="18" fill="#802F1A" /></svg>