<svg xmlns="http://www.w3.org/2000/svg" preserveAspectRatio="xMinYMin meet" viewBox="0 0 500 500" shape-rendering="crispEdges" transform-origin="center"><rect width="100%" height="100%" fill="#967E67" /><g transform="scale (5 5)"><rect x="27" y="-1" width="45" height="9" stroke-width="0.3" stroke="black" fill="#FFA800" /><text x="50" y="5.5" width="36" font-family="monospace" font-size="5" text-anchor="middle">Fallen Gorge</text></g><rect x="58" y="58" width="384" height="16" fill="#F3D899" /><rect x="58" y="74" width="48" height="16" fill="#F3D899" /><rect x="154" y="74" width="48" height="16" fill="#F3D899" /><rect x="218" y="74" width="16" height="16" fill="#F3D899" /><rect x="282" y="74" width="32" height="16" fill="#F3D899" /><rect x="362" y="74" width="80" height="16" fill="#F3D899" /><rect x="58" y="90" width="64" height="16" fill="#F3D899" /><rect x="218" y="90" width="32" height="16" fill="#F3D899" /><rect x="282" y="90" width="32" height="16" fill="#F3D899" /><rect x="378" y="90" width="64" height="16" fill="#F3D899" /><rect x="58" y="106" width="48" height="16" fill="#F3D899" /><rect x="58" y="122" width="80" height="16" fill="#F3D899" /><rect x="282" y="122" width="64" height="16" fill="#F3D899" /><rect x="378" y="122" width="64" height="16" fill="#F3D899" /><rect x="58" y="138" width="16" height="16" fill="#F3D899" /><rect x="122" y="138" width="16" height="16" fill="#F3D899" /><rect x="266" y="138" width="80" height="16" fill="#F3D899" /><rect x="378" y="138" width="64" height="16" fill="#F3D899" /><rect x="58" y="154" width="16" height="16" fill="#F3D899" /><rect x="106" y="154" width="48" height="16" fill="#F3D899" /><rect x="186" y="154" width="16" height="16" fill="#F3D899" /><rect x="218" y="154" width="32" height="16" fill="#F3D899" /><rect x="298" y="154" width="64" height="16" fill="#F3D899" /><rect x="378" y="154" width="64" height="16" fill="#F3D899" /><rect x="58" y="170" width="32" height="16" fill="#F3D899" /><rect x="106" y="170" width="64" height="16" fill="#F3D899" /><rect x="234" y="170" width="32" height="16" fill="#F3D899" /><rect x="282" y="170" width="80" height="16" fill="#F3D899" /><rect x="378" y="170" width="64" height="16" fill="#F3D899" /><rect x="58" y="186" width="32" height="16" fill="#F3D899" /><rect x="122" y="186" width="64" height="16" fill="#F3D899" /><rect x="58" y="202" width="16" height="16" fill="#F3D899" /><rect x="122" y="202" width="48" height="16" fill="#F3D899" /><rect x="202" y="202" width="32" height="16" fill="#F3D899" /><rect x="282" y="202" width="80" height="16" fill="#F3D899" /><rect x="378" y="202" width="64" height="16" fill="#F3D899" /><rect x="58" y="218" width="32" height="16" fill="#F3D899" /><rect x="122" y="218" width="48" height="16" fill="#F3D899" /><rect x="266" y="218" width="96" height="16" fill="#F3D899" /><rect x="378" y="218" width="64" height="16" fill="#F3D899" /><rect x="58" y="234" width="32" height="16" fill="#F3D899" /><rect x="122" y="234" width="48" height="16" fill="#F3D899" /><rect x="266" y="234" width="96" height="16" fill="#F3D899" /><rect x="394" y="234" width="48" height="16" fill="#F3D899" /><rect x="58" y="250" width="32" height="16" fill="#F3D899" /><rect x="106" y="250" width="80" height="16" fill="#F3D899" /><rect x="234" y="250" width="144" height="16" fill="#F3D899" /><rect x="410" y="250" width="32" height="16" fill="#F3D899" /><rect x="58" y="266" width="32" height="16" fill="#F3D899" /><rect x="122" y="266" width="64" height="16" fill="#F3D899" /><rect x="234" y="266" width="160" height="16" fill="#F3D899" /><rect x="410" y="266" width="32" height="16" fill="#F3D899" /><rect x="58" y="282" width="32" height="16" fill="#F3D899" /><rect x="106" y="282" width="80" height="16" fill="#F3D899" /><rect x="234" y="282" width="160" height="16" fill="#F3D899" /><rect x="410" y="282" width="32" height="16" fill="#F3D899" /><rect x="58" y="298" width="32" height="16" fill="#F3D899" /><rect x="138" y="298" width="16" height="16" fill="#F3D899" /><rect x="218" y="298" width="176" height="16" fill="#F3D899" /><rect x="410" y="298" width="32" height="16" fill="#F3D899" /><rect x="58" y="314" width="64" height="16" fill="#F3D899" /><rect x="170" y="314" width="16" height="16" fill="#F3D899" /><rect x="218" y="314" width="176" height="16" fill="#F3D899" /><rect x="410" y="314" width="32" height="16" fill="#F3D899" /><rect x="58" y="330" width="64" height="16" fill="#F3D899" /><rect x="138" y="330" width="16" height="16" fill="#F3D899" /><rect x="170" y="330" width="32" height="16" fill="#F3D899" /><rect x="218" y="330" width="176" height="16" fill="#F3D899" /><rect x="410" y="330" width="32" height="16" fill="#F3D899" /><rect x="58" y="346" width="16" height="16" fill="#F3D899" /><rect x="90" y="346" width="64" height="16" fill="#F3D899" /><rect x="170" y="346" width="16" height="16" fill="#F3D899" /><rect x="218" y="346" width="176" height="16" fill="#F3D899" /><rect x="410" y="346" width="32" height="16" fill="#F3D899" /><rect x="58" y="362" width="16" height="16" fill="#F3D899" /><rect x="90" y="362" width="64" height="16" fill="#F3D899" /><rect x="170" y="362" width="16" height="16" fill="#F3D899" /><rect x="202" y="362" width="176" height="16" fill="#F3D899" /><rect x="410" y="362" width="32" height="16" fill="#F3D899" /><rect x="58" y="378" width="96" height="16" fill="#F3D899" /><rect x="218" y="378" width="144" height="16" fill="#F3D899" /><rect x="410" y="378" width="32" height="16" fill="#F3D899" /><rect x="58" y="394" width="112" height="16" fill="#F3D899" /><rect x="186" y="394" width="16" height="16" fill="#F3D899" /><rect x="218" y="394" width="144" height="16" fill="#F3D899" /><rect x="378" y="394" width="64" height="16" fill="#F3D899" /><rect x="58" y="410" width="112" height="16" fill="#F3D899" /><rect x="218" y="410" width="224" height="16" fill="#F3D899" /><rect x="58" y="426" width="96" height="16" fill="#F3D899" /><rect x="186" y="426" width="16" height="16" fill="#F3D899" /><rect x="218" y="426" width="224" height="16" fill="#F3D899" /><rect x="138" y="314" width="16" height="16" fill="#006669" /><rect x="202" y="186" width="16" height="16" fill="#3C2A1A" /><rect x="186" y="170" width="16" height="16" fill="#3C2A1A" /><rect x="186" y="138" width="16" height="16" fill="#3C2A1A" /></svg>