<svg xmlns="http://www.w3.org/2000/svg" preserveAspectRatio="xMinYMin meet" viewBox="0 0 500 500" shape-rendering="crispEdges" transform-origin="center"><rect width="100%" height="100%" fill="#2F590E" /><g transform="scale (5 5)"><rect x="8" y="-1" width="84" height="9" stroke-width="0.3" stroke="black" fill="#FFA800" /><text x="50" y="5.5" width="75" font-family="monospace" font-size="5" text-anchor="middle">Burning Prison of the Sun</text></g><rect x="70" y="70" width="340" height="20" fill="#A98C00" /><rect x="70" y="90" width="140" height="20" fill="#A98C00" /><rect x="250" y="90" width="20" height="20" fill="#A98C00" /><rect x="370" y="90" width="60" height="20" fill="#A98C00" /><rect x="70" y="110" width="140" height="20" fill="#A98C00" /><rect x="330" y="110" width="20" height="20" fill="#A98C00" /><rect x="370" y="110" width="60" height="20" fill="#A98C00" /><rect x="70" y="130" width="140" height="20" fill="#A98C00" /><rect x="230" y="130" width="20" height="20" fill="#A98C00" /><rect x="310" y="130" width="120" height="20" fill="#A98C00" /><rect x="70" y="150" width="20" height="20" fill="#A98C00" /><rect x="110" y="150" width="100" height="20" fill="#A98C00" /><rect x="230" y="150" width="20" height="20" fill="#A98C00" /><rect x="270" y="150" width="160" height="20" fill="#A98C00" /><rect x="70" y="170" width="140" height="20" fill="#A98C00" /><rect x="270" y="170" width="160" height="20" fill="#A98C00" /><rect x="70" y="190" width="160" height="20" fill="#A98C00" /><rect x="290" y="190" width="140" height="20" fill="#A98C00" /><rect x="70" y="210" width="20" height="20" fill="#A98C00" /><rect x="130" y="210" width="100" height="20" fill="#A98C00" /><rect x="290" y="210" width="140" height="20" fill="#A98C00" /><rect x="70" y="230" width="0" height="20" fill="#A98C00" /><rect x="90" y="230" width="20" height="20" fill="#A98C00" /><rect x="150" y="230" width="80" height="20" fill="#A98C00" /><rect x="270" y="230" width="160" height="20" fill="#A98C00" /><rect x="70" y="250" width="60" height="20" fill="#A98C00" /><rect x="150" y="250" width="60" height="20" fill="#A98C00" /><rect x="270" y="250" width="160" height="20" fill="#A98C00" /><rect x="70" y="270" width="140" height="20" fill="#A98C00" /><rect x="250" y="270" width="180" height="20" fill="#A98C00" /><rect x="70" y="290" width="120" height="20" fill="#A98C00" /><rect x="250" y="290" width="180" height="20" fill="#A98C00" /><rect x="70" y="310" width="360" height="20" fill="#A98C00" /><rect x="70" y="330" width="360" height="20" fill="#A98C00" /><rect x="70" y="350" width="360" height="20" fill="#A98C00" /><rect x="70" y="370" width="360" height="20" fill="#A98C00" /><rect x="70" y="390" width="360" height="20" fill="#A98C00" /><rect x="70" y="410" width="360" height="20" fill="#A98C00" /><rect x="210" y="250" width="20" height="20" fill="#C55300" /><rect x="210" y="150" width="20" height="20" fill="#802F1A" /><rect x="210" y="130" width="20" height="20" fill="#C55300" /></svg>