<svg xmlns="http://www.w3.org/2000/svg" preserveAspectRatio="xMinYMin meet" viewBox="0 0 500 500" shape-rendering="crispEdges" transform-origin="center"><rect width="100%" height="100%" fill="#36230F" /><g transform="scale (5 5)"><rect x="26" y="-1" width="48" height="9" stroke-width="0.3" stroke="black" fill="#FFA800" /><text x="50" y="5.5" width="39" font-family="monospace" font-size="5" text-anchor="middle">Maze of Dread</text></g><rect x="90" y="90" width="319" height="29" fill="#744936" /><rect x="90" y="119" width="319" height="29" fill="#744936" /><rect x="90" y="148" width="319" height="29" fill="#744936" /><rect x="90" y="177" width="116" height="29" fill="#744936" /><rect x="264" y="177" width="145" height="29" fill="#744936" /><rect x="90" y="206" width="116" height="29" fill="#744936" /><rect x="264" y="206" width="145" height="29" fill="#744936" /><rect x="90" y="235" width="116" height="29" fill="#744936" /><rect x="264" y="235" width="145" height="29" fill="#744936" /><rect x="90" y="264" width="116" height="29" fill="#744936" /><rect x="264" y="264" width="145" height="29" fill="#744936" /><rect x="90" y="293" width="116" height="29" fill="#744936" /><rect x="264" y="293" width="145" height="29" fill="#744936" /><rect x="90" y="322" width="116" height="29" fill="#744936" /><rect x="264" y="322" width="145" height="29" fill="#744936" /><rect x="90" y="351" width="319" height="29" fill="#744936" /><rect x="90" y="380" width="319" height="29" fill="#744936" /></svg>