<svg xmlns="http://www.w3.org/2000/svg" preserveAspectRatio="xMinYMin meet" viewBox="0 0 500 500" shape-rendering="crispEdges" transform-origin="center"><rect width="100%" height="100%" fill="#F3D899" /><g transform="scale (5 5)"><rect x="14" y="-1" width="72" height="9" stroke-width="0.3" stroke="black" fill="#FFA800" /><text x="50" y="5.5" width="63" font-family="monospace" font-size="5" text-anchor="middle">Waterfall of the Moon</text></g><rect x="61" y="61" width="378" height="18" fill="#160F09" /><rect x="61" y="79" width="18" height="18" fill="#160F09" /><rect x="115" y="79" width="324" height="18" fill="#160F09" /><rect x="61" y="97" width="18" height="18" fill="#160F09" /><rect x="331" y="97" width="108" height="18" fill="#160F09" /><rect x="61" y="115" width="36" height="18" fill="#160F09" /><rect x="115" y="115" width="198" height="18" fill="#160F09" /><rect x="331" y="115" width="108" height="18" fill="#160F09" /><rect x="61" y="133" width="36" height="18" fill="#160F09" /><rect x="115" y="133" width="198" height="18" fill="#160F09" /><rect x="331" y="133" width="108" height="18" fill="#160F09" /><rect x="61" y="151" width="18" height="18" fill="#160F09" /><rect x="187" y="151" width="126" height="18" fill="#160F09" /><rect x="331" y="151" width="108" height="18" fill="#160F09" /><rect x="61" y="169" width="18" height="18" fill="#160F09" /><rect x="187" y="169" width="126" height="18" fill="#160F09" /><rect x="331" y="169" width="108" height="18" fill="#160F09" /><rect x="61" y="187" width="18" height="18" fill="#160F09" /><rect x="187" y="187" width="126" height="18" fill="#160F09" /><rect x="331" y="187" width="108" height="18" fill="#160F09" /><rect x="61" y="205" width="18" height="18" fill="#160F09" /><rect x="187" y="205" width="126" height="18" fill="#160F09" /><rect x="331" y="205" width="108" height="18" fill="#160F09" /><rect x="61" y="223" width="18" height="18" fill="#160F09" /><rect x="187" y="223" width="126" height="18" fill="#160F09" /><rect x="331" y="223" width="108" height="18" fill="#160F09" /><rect x="61" y="241" width="36" height="18" fill="#160F09" /><rect x="115" y="241" width="18" height="18" fill="#160F09" /><rect x="151" y="241" width="162" height="18" fill="#160F09" /><rect x="331" y="241" width="108" height="18" fill="#160F09" /><rect x="61" y="259" width="36" height="18" fill="#160F09" /><rect x="115" y="259" width="18" height="18" fill="#160F09" /><rect x="151" y="259" width="162" height="18" fill="#160F09" /><rect x="331" y="259" width="108" height="18" fill="#160F09" /><rect x="61" y="277" width="36" height="18" fill="#160F09" /><rect x="115" y="277" width="18" height="18" fill="#160F09" /><rect x="187" y="277" width="126" height="18" fill="#160F09" /><rect x="331" y="277" width="108" height="18" fill="#160F09" /><rect x="61" y="295" width="36" height="18" fill="#160F09" /><rect x="241" y="295" width="72" height="18" fill="#160F09" /><rect x="331" y="295" width="108" height="18" fill="#160F09" /><rect x="61" y="313" width="18" height="18" fill="#160F09" /><rect x="241" y="313" width="72" height="18" fill="#160F09" /><rect x="331" y="313" width="108" height="18" fill="#160F09" /><rect x="61" y="331" width="18" height="18" fill="#160F09" /><rect x="241" y="331" width="18" height="18" fill="#160F09" /><rect x="367" y="331" width="72" height="18" fill="#160F09" /><rect x="61" y="349" width="18" height="18" fill="#160F09" /><rect x="367" y="349" width="72" height="18" fill="#160F09" /><rect x="61" y="367" width="54" height="18" fill="#160F09" /><rect x="151" y="367" width="36" height="18" fill="#160F09" /><rect x="223" y="367" width="36" height="18" fill="#160F09" /><rect x="367" y="367" width="72" height="18" fill="#160F09" /><rect x="61" y="385" width="54" height="18" fill="#160F09" /><rect x="151" y="385" width="288" height="18" fill="#160F09" /><rect x="61" y="403" width="378" height="18" fill="#160F09" /><rect x="61" y="421" width="378" height="18" fill="#160F09" /><rect x="349" y="367" width="18" height="18" fill="#00A29D" /><rect x="223" y="349" width="18" height="18" fill="#FAAA00" /><rect x="223" y="331" width="18" height="18" fill="#00A29D" /><rect x="133" y="277" width="18" height="18" fill="#FAAA00" /></svg>