<svg xmlns="http://www.w3.org/2000/svg" preserveAspectRatio="xMinYMin meet" viewBox="0 0 500 500" shape-rendering="crispEdges" transform-origin="center"><rect width="100%" height="100%" fill="#967E67" /><g transform="scale (5 5)"><rect x="29" y="-1" width="42" height="9" stroke-width="0.3" stroke="black" fill="#FFA800" /><text x="50" y="5.5" width="33" font-family="monospace" font-size="5" text-anchor="middle">Fallen Scar</text></g><rect x="60" y="60" width="380" height="19" fill="#F3D899" /><rect x="60" y="79" width="38" height="19" fill="#F3D899" /><rect x="174" y="79" width="266" height="19" fill="#F3D899" /><rect x="60" y="98" width="38" height="19" fill="#F3D899" /><rect x="174" y="98" width="266" height="19" fill="#F3D899" /><rect x="60" y="117" width="38" height="19" fill="#F3D899" /><rect x="174" y="117" width="266" height="19" fill="#F3D899" /><rect x="60" y="136" width="57" height="19" fill="#F3D899" /><rect x="155" y="136" width="285" height="19" fill="#F3D899" /><rect x="60" y="155" width="57" height="19" fill="#F3D899" /><rect x="155" y="155" width="285" height="19" fill="#F3D899" /><rect x="60" y="174" width="57" height="19" fill="#F3D899" /><rect x="155" y="174" width="133" height="19" fill="#F3D899" /><rect x="326" y="174" width="114" height="19" fill="#F3D899" /><rect x="60" y="193" width="19" height="19" fill="#F3D899" /><rect x="174" y="193" width="114" height="19" fill="#F3D899" /><rect x="326" y="193" width="114" height="19" fill="#F3D899" /><rect x="60" y="212" width="19" height="19" fill="#F3D899" /><rect x="174" y="212" width="114" height="19" fill="#F3D899" /><rect x="326" y="212" width="114" height="19" fill="#F3D899" /><rect x="60" y="231" width="19" height="19" fill="#F3D899" /><rect x="326" y="231" width="114" height="19" fill="#F3D899" /><rect x="60" y="250" width="19" height="19" fill="#F3D899" /><rect x="307" y="250" width="133" height="19" fill="#F3D899" /><rect x="60" y="269" width="19" height="19" fill="#F3D899" /><rect x="231" y="269" width="57" height="19" fill="#F3D899" /><rect x="307" y="269" width="133" height="19" fill="#F3D899" /><rect x="60" y="288" width="76" height="19" fill="#F3D899" /><rect x="231" y="288" width="57" height="19" fill="#F3D899" /><rect x="307" y="288" width="38" height="19" fill="#F3D899" /><rect x="383" y="288" width="57" height="19" fill="#F3D899" /><rect x="60" y="307" width="76" height="19" fill="#F3D899" /><rect x="231" y="307" width="57" height="19" fill="#F3D899" /><rect x="307" y="307" width="38" height="19" fill="#F3D899" /><rect x="383" y="307" width="57" height="19" fill="#F3D899" /><rect x="60" y="326" width="76" height="19" fill="#F3D899" /><rect x="383" y="326" width="57" height="19" fill="#F3D899" /><rect x="60" y="345" width="76" height="19" fill="#F3D899" /><rect x="193" y="345" width="76" height="19" fill="#F3D899" /><rect x="307" y="345" width="38" height="19" fill="#F3D899" /><rect x="383" y="345" width="57" height="19" fill="#F3D899" /><rect x="60" y="364" width="76" height="19" fill="#F3D899" /><rect x="307" y="364" width="38" height="19" fill="#F3D899" /><rect x="383" y="364" width="57" height="19" fill="#F3D899" /><rect x="60" y="383" width="380" height="19" fill="#F3D899" /><rect x="60" y="402" width="380" height="19" fill="#F3D899" /><rect x="60" y="421" width="380" height="19" fill="#F3D899" /><rect x="174" y="345" width="19" height="19" fill="#006669" /><rect x="326" y="326" width="19" height="19" fill="#3C2A1A" /><rect x="288" y="269" width="19" height="19" fill="#3C2A1A" /><rect x="212" y="231" width="19" height="19" fill="#3C2A1A" /><rect x="174" y="231" width="19" height="19" fill="#006669" /><rect x="307" y="174" width="19" height="19" fill="#006669" /><rect x="117" y="174" width="19" height="19" fill="#3C2A1A" /><rect x="136" y="79" width="19" height="19" fill="#006669" /></svg>