<svg xmlns="http://www.w3.org/2000/svg" preserveAspectRatio="xMinYMin meet" viewBox="0 0 500 500" shape-rendering="crispEdges" transform-origin="center"><rect width="100%" height="100%" fill="#2F590E" /><g transform="scale (5 5)"><rect x="35" y="-1" width="30" height="9" stroke-width="0.3" stroke="black" fill="#FFA800" /><text x="50" y="5.5" width="21" font-family="monospace" font-size="5" text-anchor="middle">Chamber</text></g><rect x="54" y="54" width="391" height="17" fill="#A98C00" /><rect x="54" y="71" width="391" height="17" fill="#A98C00" /><rect x="54" y="88" width="391" height="17" fill="#A98C00" /><rect x="54" y="105" width="255" height="17" fill="#A98C00" /><rect x="326" y="105" width="119" height="17" fill="#A98C00" /><rect x="54" y="122" width="221" height="17" fill="#A98C00" /><rect x="343" y="122" width="102" height="17" fill="#A98C00" /><rect x="54" y="139" width="238" height="17" fill="#A98C00" /><rect x="326" y="139" width="119" height="17" fill="#A98C00" /><rect x="54" y="156" width="221" height="17" fill="#A98C00" /><rect x="377" y="156" width="68" height="17" fill="#A98C00" /><rect x="54" y="173" width="187" height="17" fill="#A98C00" /><rect x="275" y="173" width="17" height="17" fill="#A98C00" /><rect x="360" y="173" width="85" height="17" fill="#A98C00" /><rect x="54" y="190" width="204" height="17" fill="#A98C00" /><rect x="275" y="190" width="34" height="17" fill="#A98C00" /><rect x="377" y="190" width="68" height="17" fill="#A98C00" /><rect x="54" y="207" width="153" height="17" fill="#A98C00" /><rect x="241" y="207" width="17" height="17" fill="#A98C00" /><rect x="275" y="207" width="34" height="17" fill="#A98C00" /><rect x="326" y="207" width="34" height="17" fill="#A98C00" /><rect x="377" y="207" width="68" height="17" fill="#A98C00" /><rect x="54" y="224" width="153" height="17" fill="#A98C00" /><rect x="275" y="224" width="34" height="17" fill="#A98C00" /><rect x="377" y="224" width="68" height="17" fill="#A98C00" /><rect x="54" y="241" width="153" height="17" fill="#A98C00" /><rect x="275" y="241" width="51" height="17" fill="#A98C00" /><rect x="377" y="241" width="68" height="17" fill="#A98C00" /><rect x="54" y="258" width="136" height="17" fill="#A98C00" /><rect x="224" y="258" width="34" height="17" fill="#A98C00" /><rect x="292" y="258" width="17" height="17" fill="#A98C00" /><rect x="377" y="258" width="68" height="17" fill="#A98C00" /><rect x="54" y="275" width="136" height="17" fill="#A98C00" /><rect x="224" y="275" width="34" height="17" fill="#A98C00" /><rect x="326" y="275" width="17" height="17" fill="#A98C00" /><rect x="377" y="275" width="68" height="17" fill="#A98C00" /><rect x="54" y="292" width="153" height="17" fill="#A98C00" /><rect x="275" y="292" width="34" height="17" fill="#A98C00" /><rect x="326" y="292" width="17" height="17" fill="#A98C00" /><rect x="377" y="292" width="68" height="17" fill="#A98C00" /><rect x="54" y="309" width="68" height="17" fill="#A98C00" /><rect x="139" y="309" width="85" height="17" fill="#A98C00" /><rect x="275" y="309" width="34" height="17" fill="#A98C00" /><rect x="326" y="309" width="17" height="17" fill="#A98C00" /><rect x="377" y="309" width="68" height="17" fill="#A98C00" /><rect x="54" y="326" width="68" height="17" fill="#A98C00" /><rect x="139" y="326" width="85" height="17" fill="#A98C00" /><rect x="275" y="326" width="34" height="17" fill="#A98C00" /><rect x="326" y="326" width="17" height="17" fill="#A98C00" /><rect x="394" y="326" width="51" height="17" fill="#A98C00" /><rect x="54" y="343" width="68" height="17" fill="#A98C00" /><rect x="139" y="343" width="34" height="17" fill="#A98C00" /><rect x="326" y="343" width="17" height="17" fill="#A98C00" /><rect x="394" y="343" width="51" height="17" fill="#A98C00" /><rect x="54" y="360" width="68" height="17" fill="#A98C00" /><rect x="139" y="360" width="34" height="17" fill="#A98C00" /><rect x="207" y="360" width="17" height="17" fill="#A98C00" /><rect x="241" y="360" width="34" height="17" fill="#A98C00" /><rect x="292" y="360" width="17" height="17" fill="#A98C00" /><rect x="326" y="360" width="34" height="17" fill="#A98C00" /><rect x="394" y="360" width="51" height="17" fill="#A98C00" /><rect x="54" y="377" width="51" height="17" fill="#A98C00" /><rect x="139" y="377" width="51" height="17" fill="#A98C00" /><rect x="207" y="377" width="17" height="17" fill="#A98C00" /><rect x="326" y="377" width="17" height="17" fill="#A98C00" /><rect x="411" y="377" width="34" height="17" fill="#A98C00" /><rect x="54" y="394" width="34" height="17" fill="#A98C00" /><rect x="139" y="394" width="51" height="17" fill="#A98C00" /><rect x="241" y="394" width="17" height="17" fill="#A98C00" /><rect x="309" y="394" width="17" height="17" fill="#A98C00" /><rect x="411" y="394" width="34" height="17" fill="#A98C00" /><rect x="54" y="411" width="34" height="17" fill="#A98C00" /><rect x="139" y="411" width="68" height="17" fill="#A98C00" /><rect x="224" y="411" width="34" height="17" fill="#A98C00" /><rect x="275" y="411" width="17" height="17" fill="#A98C00" /><rect x="309" y="411" width="17" height="17" fill="#A98C00" /><rect x="428" y="411" width="17" height="17" fill="#A98C00" /><rect x="54" y="428" width="17" height="17" fill="#A98C00" /><rect x="88" y="428" width="34" height="17" fill="#A98C00" /><rect x="139" y="428" width="51" height="17" fill="#A98C00" /><rect x="224" y="428" width="34" height="17" fill="#A98C00" /><rect x="309" y="428" width="34" height="17" fill="#A98C00" /><rect x="428" y="428" width="17" height="17" fill="#A98C00" /><rect x="258" y="394" width="17" height="17" fill="#802F1A" /><rect x="309" y="377" width="17" height="17" fill="#802F1A" /><rect x="275" y="377" width="17" height="17" fill="#802F1A" /><rect x="224" y="360" width="17" height="17" fill="#802F1A" /><rect x="122" y="360" width="17" height="17" fill="#802F1A" /><rect x="224" y="343" width="17" height="17" fill="#C55300" /><rect x="377" y="326" width="17" height="17" fill="#C55300" /><rect x="275" y="258" width="17" height="17" fill="#C55300" /><rect x="343" y="190" width="17" height="17" fill="#802F1A" /><rect x="309" y="105" width="17" height="17" fill="#C55300" /></svg>