<svg xmlns="http://www.w3.org/2000/svg" preserveAspectRatio="xMinYMin meet" viewBox="0 0 500 500" shape-rendering="crispEdges" transform-origin="center"><rect width="100%" height="100%" fill="#2F590E" /><g transform="scale (5 5)"><rect x="35" y="-1" width="30" height="9" stroke-width="0.3" stroke="black" fill="#FFA800" /><text x="50" y="5.5" width="21" font-family="monospace" font-size="5" text-anchor="middle">Steppes</text></g><rect x="61" y="61" width="378" height="18" fill="#A98C00" /><rect x="61" y="79" width="36" height="18" fill="#A98C00" /><rect x="115" y="79" width="36" height="18" fill="#A98C00" /><rect x="187" y="79" width="18" height="18" fill="#A98C00" /><rect x="295" y="79" width="18" height="18" fill="#A98C00" /><rect x="331" y="79" width="18" height="18" fill="#A98C00" /><rect x="385" y="79" width="54" height="18" fill="#A98C00" /><rect x="61" y="97" width="18" height="18" fill="#A98C00" /><rect x="115" y="97" width="54" height="18" fill="#A98C00" /><rect x="295" y="97" width="18" height="18" fill="#A98C00" /><rect x="367" y="97" width="72" height="18" fill="#A98C00" /><rect x="61" y="115" width="0" height="18" fill="#A98C00" /><rect x="115" y="115" width="90" height="18" fill="#A98C00" /><rect x="367" y="115" width="72" height="18" fill="#A98C00" /><rect x="61" y="133" width="18" height="18" fill="#A98C00" /><rect x="115" y="133" width="72" height="18" fill="#A98C00" /><rect x="241" y="133" width="36" height="18" fill="#A98C00" /><rect x="331" y="133" width="108" height="18" fill="#A98C00" /><rect x="61" y="151" width="126" height="18" fill="#A98C00" /><rect x="223" y="151" width="36" height="18" fill="#A98C00" /><rect x="349" y="151" width="90" height="18" fill="#A98C00" /><rect x="61" y="169" width="90" height="18" fill="#A98C00" /><rect x="223" y="169" width="54" height="18" fill="#A98C00" /><rect x="367" y="169" width="72" height="18" fill="#A98C00" /><rect x="61" y="187" width="90" height="18" fill="#A98C00" /><rect x="205" y="187" width="90" height="18" fill="#A98C00" /><rect x="331" y="187" width="108" height="18" fill="#A98C00" /><rect x="61" y="205" width="90" height="18" fill="#A98C00" /><rect x="223" y="205" width="54" height="18" fill="#A98C00" /><rect x="385" y="205" width="54" height="18" fill="#A98C00" /><rect x="61" y="223" width="90" height="18" fill="#A98C00" /><rect x="223" y="223" width="90" height="18" fill="#A98C00" /><rect x="331" y="223" width="108" height="18" fill="#A98C00" /><rect x="61" y="241" width="72" height="18" fill="#A98C00" /><rect x="187" y="241" width="108" height="18" fill="#A98C00" /><rect x="349" y="241" width="90" height="18" fill="#A98C00" /><rect x="61" y="259" width="90" height="18" fill="#A98C00" /><rect x="205" y="259" width="108" height="18" fill="#A98C00" /><rect x="331" y="259" width="108" height="18" fill="#A98C00" /><rect x="61" y="277" width="108" height="18" fill="#A98C00" /><rect x="187" y="277" width="126" height="18" fill="#A98C00" /><rect x="331" y="277" width="108" height="18" fill="#A98C00" /><rect x="61" y="295" width="108" height="18" fill="#A98C00" /><rect x="205" y="295" width="108" height="18" fill="#A98C00" /><rect x="331" y="295" width="108" height="18" fill="#A98C00" /><rect x="61" y="313" width="108" height="18" fill="#A98C00" /><rect x="223" y="313" width="72" height="18" fill="#A98C00" /><rect x="331" y="313" width="108" height="18" fill="#A98C00" /><rect x="61" y="331" width="108" height="18" fill="#A98C00" /><rect x="241" y="331" width="54" height="18" fill="#A98C00" /><rect x="313" y="331" width="126" height="18" fill="#A98C00" /><rect x="61" y="349" width="108" height="18" fill="#A98C00" /><rect x="223" y="349" width="72" height="18" fill="#A98C00" /><rect x="313" y="349" width="126" height="18" fill="#A98C00" /><rect x="61" y="367" width="126" height="18" fill="#A98C00" /><rect x="313" y="367" width="126" height="18" fill="#A98C00" /><rect x="61" y="385" width="180" height="18" fill="#A98C00" /><rect x="277" y="385" width="162" height="18" fill="#A98C00" /><rect x="61" y="403" width="180" height="18" fill="#A98C00" /><rect x="259" y="403" width="180" height="18" fill="#A98C00" /><rect x="61" y="421" width="378" height="18" fill="#A98C00" /><rect x="187" y="295" width="18" height="18" fill="#802F1A" /><rect x="151" y="241" width="18" height="18" fill="#C55300" /><rect x="313" y="187" width="18" height="18" fill="#802F1A" /><rect x="223" y="79" width="18" height="18" fill="#802F1A" /></svg>