<svg xmlns="http://www.w3.org/2000/svg" preserveAspectRatio="xMinYMin meet" viewBox="0 0 500 500" shape-rendering="crispEdges" transform-origin="center"><rect width="100%" height="100%" fill="#006669" /><g transform="scale (5 5)"><rect x="18" y="-1" width="63" height="9" stroke-width="0.3" stroke="black" fill="#FFA800" /><text x="50" y="5.5" width="54" font-family="monospace" font-size="5" text-anchor="middle">Oasis of the Twins</text></g><rect x="77" y="77" width="345" height="23" fill="#004238" /><rect x="77" y="100" width="115" height="23" fill="#004238" /><rect x="77" y="123" width="23" height="23" fill="#004238" /><rect x="146" y="123" width="138" height="23" fill="#004238" /><rect x="376" y="123" width="23" height="23" fill="#004238" /><rect x="77" y="146" width="46" height="23" fill="#004238" /><rect x="169" y="146" width="115" height="23" fill="#004238" /><rect x="353" y="146" width="46" height="23" fill="#004238" /><rect x="77" y="169" width="46" height="23" fill="#004238" /><rect x="146" y="169" width="138" height="23" fill="#004238" /><rect x="353" y="169" width="46" height="23" fill="#004238" /><rect x="77" y="192" width="46" height="23" fill="#004238" /><rect x="146" y="192" width="161" height="23" fill="#004238" /><rect x="77" y="215" width="207" height="23" fill="#004238" /><rect x="399" y="215" width="23" height="23" fill="#004238" /><rect x="77" y="238" width="184" height="23" fill="#004238" /><rect x="353" y="238" width="69" height="23" fill="#004238" /><rect x="77" y="261" width="184" height="23" fill="#004238" /><rect x="284" y="261" width="23" height="23" fill="#004238" /><rect x="353" y="261" width="69" height="23" fill="#004238" /><rect x="77" y="284" width="184" height="23" fill="#004238" /><rect x="284" y="284" width="46" height="23" fill="#004238" /><rect x="376" y="284" width="46" height="23" fill="#004238" /><rect x="77" y="307" width="184" height="23" fill="#004238" /><rect x="307" y="307" width="23" height="23" fill="#004238" /><rect x="376" y="307" width="46" height="23" fill="#004238" /><rect x="77" y="330" width="207" height="23" fill="#004238" /><rect x="307" y="330" width="23" height="23" fill="#004238" /><rect x="353" y="330" width="69" height="23" fill="#004238" /><rect x="77" y="353" width="184" height="23" fill="#004238" /><rect x="307" y="353" width="23" height="23" fill="#004238" /><rect x="353" y="353" width="69" height="23" fill="#004238" /><rect x="77" y="376" width="184" height="23" fill="#004238" /><rect x="353" y="376" width="69" height="23" fill="#004238" /><rect x="77" y="399" width="230" height="23" fill="#004238" /><rect x="330" y="399" width="92" height="23" fill="#004238" /><rect x="353" y="307" width="23" height="23" fill="#F9B569" /><rect x="284" y="215" width="23" height="23" fill="#967E67" /></svg>