<svg xmlns="http://www.w3.org/2000/svg" preserveAspectRatio="xMinYMin meet" viewBox="0 0 500 500" shape-rendering="crispEdges" transform-origin="center"><rect width="100%" height="100%" fill="#340D07" /><g transform="scale (5 5)"><rect x="26" y="-1" width="48" height="9" stroke-width="0.3" stroke="black" fill="#FFA800" /><text x="50" y="5.5" width="39" font-family="monospace" font-size="5" text-anchor="middle">Dire Mountain</text></g><rect x="63" y="63" width="374" height="17" fill="#5D0503" /><rect x="63" y="80" width="119" height="17" fill="#5D0503" /><rect x="318" y="80" width="51" height="17" fill="#5D0503" /><rect x="403" y="80" width="34" height="17" fill="#5D0503" /><rect x="63" y="97" width="153" height="17" fill="#5D0503" /><rect x="250" y="97" width="17" height="17" fill="#5D0503" /><rect x="284" y="97" width="17" height="17" fill="#5D0503" /><rect x="335" y="97" width="34" height="17" fill="#5D0503" /><rect x="386" y="97" width="51" height="17" fill="#5D0503" /><rect x="63" y="114" width="0" height="17" fill="#5D0503" /><rect x="80" y="114" width="136" height="17" fill="#5D0503" /><rect x="250" y="114" width="17" height="17" fill="#5D0503" /><rect x="386" y="114" width="51" height="17" fill="#5D0503" /><rect x="63" y="131" width="153" height="17" fill="#5D0503" /><rect x="369" y="131" width="34" height="17" fill="#5D0503" /><rect x="63" y="148" width="136" height="17" fill="#5D0503" /><rect x="267" y="148" width="51" height="17" fill="#5D0503" /><rect x="369" y="148" width="34" height="17" fill="#5D0503" /><rect x="420" y="148" width="17" height="17" fill="#5D0503" /><rect x="63" y="165" width="170" height="17" fill="#5D0503" /><rect x="284" y="165" width="34" height="17" fill="#5D0503" /><rect x="352" y="165" width="85" height="17" fill="#5D0503" /><rect x="63" y="182" width="153" height="17" fill="#5D0503" /><rect x="284" y="182" width="34" height="17" fill="#5D0503" /><rect x="352" y="182" width="85" height="17" fill="#5D0503" /><rect x="63" y="199" width="153" height="17" fill="#5D0503" /><rect x="301" y="199" width="17" height="17" fill="#5D0503" /><rect x="352" y="199" width="85" height="17" fill="#5D0503" /><rect x="63" y="216" width="136" height="17" fill="#5D0503" /><rect x="369" y="216" width="68" height="17" fill="#5D0503" /><rect x="63" y="233" width="153" height="17" fill="#5D0503" /><rect x="369" y="233" width="68" height="17" fill="#5D0503" /><rect x="63" y="250" width="153" height="17" fill="#5D0503" /><rect x="233" y="250" width="34" height="17" fill="#5D0503" /><rect x="301" y="250" width="17" height="17" fill="#5D0503" /><rect x="335" y="250" width="102" height="17" fill="#5D0503" /><rect x="63" y="267" width="153" height="17" fill="#5D0503" /><rect x="233" y="267" width="17" height="17" fill="#5D0503" /><rect x="301" y="267" width="136" height="17" fill="#5D0503" /><rect x="63" y="284" width="153" height="17" fill="#5D0503" /><rect x="233" y="284" width="17" height="17" fill="#5D0503" /><rect x="318" y="284" width="119" height="17" fill="#5D0503" /><rect x="63" y="301" width="153" height="17" fill="#5D0503" /><rect x="267" y="301" width="17" height="17" fill="#5D0503" /><rect x="318" y="301" width="119" height="17" fill="#5D0503" /><rect x="63" y="318" width="136" height="17" fill="#5D0503" /><rect x="318" y="318" width="119" height="17" fill="#5D0503" /><rect x="63" y="335" width="187" height="17" fill="#5D0503" /><rect x="301" y="335" width="136" height="17" fill="#5D0503" /><rect x="63" y="352" width="187" height="17" fill="#5D0503" /><rect x="318" y="352" width="119" height="17" fill="#5D0503" /><rect x="63" y="369" width="187" height="17" fill="#5D0503" /><rect x="284" y="369" width="153" height="17" fill="#5D0503" /><rect x="63" y="386" width="187" height="17" fill="#5D0503" /><rect x="284" y="386" width="153" height="17" fill="#5D0503" /><rect x="63" y="403" width="17" height="17" fill="#5D0503" /><rect x="114" y="403" width="119" height="17" fill="#5D0503" /><rect x="284" y="403" width="153" height="17" fill="#5D0503" /><rect x="63" y="420" width="204" height="17" fill="#5D0503" /><rect x="301" y="420" width="136" height="17" fill="#5D0503" /><rect x="250" y="165" width="17" height="17" fill="#B75700" /><rect x="335" y="131" width="17" height="17" fill="#B75700" /><rect x="233" y="97" width="17" height="17" fill="#FF1800" /></svg>