<svg xmlns="http://www.w3.org/2000/svg" preserveAspectRatio="xMinYMin meet" viewBox="0 0 500 500" shape-rendering="crispEdges" transform-origin="center"><rect width="100%" height="100%" fill="#36230F" /><g transform="scale (5 5)"><rect x="17" y="-1" width="66" height="9" stroke-width="0.3" stroke="black" fill="#FFA800" /><text x="50" y="5.5" width="57" font-family="monospace" font-size="5" text-anchor="middle">Forest of the Stars</text></g><rect x="75" y="75" width="350" height="25" fill="#744936" /><rect x="75" y="100" width="50" height="25" fill="#744936" /><rect x="175" y="100" width="250" height="25" fill="#744936" /><rect x="75" y="125" width="50" height="25" fill="#744936" /><rect x="175" y="125" width="250" height="25" fill="#744936" /><rect x="75" y="150" width="75" height="25" fill="#744936" /><rect x="175" y="150" width="250" height="25" fill="#744936" /><rect x="75" y="175" width="25" height="25" fill="#744936" /><rect x="175" y="175" width="250" height="25" fill="#744936" /><rect x="75" y="200" width="25" height="25" fill="#744936" /><rect x="250" y="200" width="175" height="25" fill="#744936" /><rect x="75" y="225" width="25" height="25" fill="#744936" /><rect x="200" y="225" width="25" height="25" fill="#744936" /><rect x="250" y="225" width="50" height="25" fill="#744936" /><rect x="350" y="225" width="75" height="25" fill="#744936" /><rect x="75" y="250" width="25" height="25" fill="#744936" /><rect x="350" y="250" width="75" height="25" fill="#744936" /><rect x="75" y="275" width="25" height="25" fill="#744936" /><rect x="175" y="275" width="25" height="25" fill="#744936" /><rect x="275" y="275" width="150" height="25" fill="#744936" /><rect x="75" y="300" width="75" height="25" fill="#744936" /><rect x="275" y="300" width="150" height="25" fill="#744936" /><rect x="75" y="325" width="125" height="25" fill="#744936" /><rect x="275" y="325" width="150" height="25" fill="#744936" /><rect x="75" y="350" width="350" height="25" fill="#744936" /><rect x="75" y="375" width="350" height="25" fill="#744936" /><rect x="75" y="400" width="350" height="25" fill="#744936" /><rect x="200" y="325" width="25" height="25" fill="#FFA800" /></svg>