<svg xmlns="http://www.w3.org/2000/svg" preserveAspectRatio="xMinYMin meet" viewBox="0 0 500 500" shape-rendering="crispEdges" transform-origin="center"><rect width="100%" height="100%" fill="#006669" /><g transform="scale (5 5)"><rect x="10" y="-1" width="80" height="9" stroke-width="0.3" stroke="black" fill="#FFA800" /><text x="50" y="5.5" width="111" font-family="monospace" font-size="4" text-anchor="middle">Glowing Labyrinth of the Storm</text></g><rect x="61" y="61" width="378" height="18" fill="#004238" /><rect x="61" y="79" width="216" height="18" fill="#004238" /><rect x="331" y="79" width="108" height="18" fill="#004238" /><rect x="61" y="97" width="216" height="18" fill="#004238" /><rect x="331" y="97" width="108" height="18" fill="#004238" /><rect x="61" y="115" width="216" height="18" fill="#004238" /><rect x="331" y="115" width="108" height="18" fill="#004238" /><rect x="61" y="133" width="36" height="18" fill="#004238" /><rect x="169" y="133" width="108" height="18" fill="#004238" /><rect x="331" y="133" width="108" height="18" fill="#004238" /><rect x="61" y="151" width="36" height="18" fill="#004238" /><rect x="169" y="151" width="108" height="18" fill="#004238" /><rect x="331" y="151" width="108" height="18" fill="#004238" /><rect x="61" y="169" width="72" height="18" fill="#004238" /><rect x="169" y="169" width="108" height="18" fill="#004238" /><rect x="331" y="169" width="108" height="18" fill="#004238" /><rect x="61" y="187" width="18" height="18" fill="#004238" /><rect x="169" y="187" width="18" height="18" fill="#004238" /><rect x="277" y="187" width="18" height="18" fill="#004238" /><rect x="313" y="187" width="126" height="18" fill="#004238" /><rect x="61" y="205" width="18" height="18" fill="#004238" /><rect x="277" y="205" width="18" height="18" fill="#004238" /><rect x="313" y="205" width="126" height="18" fill="#004238" /><rect x="61" y="223" width="18" height="18" fill="#004238" /><rect x="169" y="223" width="18" height="18" fill="#004238" /><rect x="277" y="223" width="18" height="18" fill="#004238" /><rect x="313" y="223" width="126" height="18" fill="#004238" /><rect x="61" y="241" width="18" height="18" fill="#004238" /><rect x="385" y="241" width="54" height="18" fill="#004238" /><rect x="61" y="259" width="18" height="18" fill="#004238" /><rect x="277" y="259" width="18" height="18" fill="#004238" /><rect x="385" y="259" width="54" height="18" fill="#004238" /><rect x="61" y="277" width="18" height="18" fill="#004238" /><rect x="169" y="277" width="18" height="18" fill="#004238" /><rect x="385" y="277" width="54" height="18" fill="#004238" /><rect x="61" y="295" width="18" height="18" fill="#004238" /><rect x="169" y="295" width="36" height="18" fill="#004238" /><rect x="241" y="295" width="54" height="18" fill="#004238" /><rect x="385" y="295" width="54" height="18" fill="#004238" /><rect x="61" y="313" width="36" height="18" fill="#004238" /><rect x="241" y="313" width="198" height="18" fill="#004238" /><rect x="61" y="331" width="36" height="18" fill="#004238" /><rect x="403" y="331" width="36" height="18" fill="#004238" /><rect x="61" y="349" width="36" height="18" fill="#004238" /><rect x="259" y="349" width="126" height="18" fill="#004238" /><rect x="403" y="349" width="36" height="18" fill="#004238" /><rect x="61" y="367" width="36" height="18" fill="#004238" /><rect x="259" y="367" width="108" height="18" fill="#004238" /><rect x="403" y="367" width="36" height="18" fill="#004238" /><rect x="61" y="385" width="36" height="18" fill="#004238" /><rect x="403" y="385" width="36" height="18" fill="#004238" /><rect x="61" y="403" width="378" height="18" fill="#004238" /><rect x="61" y="421" width="378" height="18" fill="#004238" /><rect x="313" y="385" width="18" height="18" fill="#967E67" /><rect x="169" y="385" width="18" height="18" fill="#967E67" /><rect x="277" y="331" width="18" height="18" fill="#967E67" /><rect x="169" y="313" width="18" height="18" fill="#F9B569" /><rect x="169" y="241" width="18" height="18" fill="#967E67" /><rect x="133" y="169" width="18" height="18" fill="#967E67" /></svg>