<svg xmlns="http://www.w3.org/2000/svg" preserveAspectRatio="xMinYMin meet" viewBox="0 0 500 500" shape-rendering="crispEdges" transform-origin="center"><rect width="100%" height="100%" fill="#36230F" /><g transform="scale (5 5)"><rect x="8" y="-1" width="84" height="9" stroke-width="0.3" stroke="black" fill="#FFA800" /><text x="50" y="5.5" width="117" font-family="monospace" font-size="4" text-anchor="middle">Shimmering Mountain of Brimstone</text></g><rect x="70" y="70" width="360" height="20" fill="#744936" /><rect x="70" y="90" width="360" height="20" fill="#744936" /><rect x="70" y="110" width="360" height="20" fill="#744936" /><rect x="70" y="130" width="200" height="20" fill="#744936" /><rect x="310" y="130" width="40" height="20" fill="#744936" /><rect x="390" y="130" width="40" height="20" fill="#744936" /><rect x="70" y="150" width="200" height="20" fill="#744936" /><rect x="290" y="150" width="80" height="20" fill="#744936" /><rect x="390" y="150" width="40" height="20" fill="#744936" /><rect x="70" y="170" width="100" height="20" fill="#744936" /><rect x="230" y="170" width="40" height="20" fill="#744936" /><rect x="290" y="170" width="60" height="20" fill="#744936" /><rect x="390" y="170" width="40" height="20" fill="#744936" /><rect x="70" y="190" width="120" height="20" fill="#744936" /><rect x="250" y="190" width="20" height="20" fill="#744936" /><rect x="290" y="190" width="60" height="20" fill="#744936" /><rect x="370" y="190" width="60" height="20" fill="#744936" /><rect x="70" y="210" width="120" height="20" fill="#744936" /><rect x="230" y="210" width="20" height="20" fill="#744936" /><rect x="290" y="210" width="60" height="20" fill="#744936" /><rect x="390" y="210" width="40" height="20" fill="#744936" /><rect x="70" y="230" width="120" height="20" fill="#744936" /><rect x="230" y="230" width="20" height="20" fill="#744936" /><rect x="270" y="230" width="100" height="20" fill="#744936" /><rect x="390" y="230" width="40" height="20" fill="#744936" /><rect x="70" y="250" width="100" height="20" fill="#744936" /><rect x="270" y="250" width="100" height="20" fill="#744936" /><rect x="390" y="250" width="40" height="20" fill="#744936" /><rect x="70" y="270" width="100" height="20" fill="#744936" /><rect x="190" y="270" width="20" height="20" fill="#744936" /><rect x="290" y="270" width="40" height="20" fill="#744936" /><rect x="350" y="270" width="20" height="20" fill="#744936" /><rect x="390" y="270" width="40" height="20" fill="#744936" /><rect x="70" y="290" width="100" height="20" fill="#744936" /><rect x="290" y="290" width="40" height="20" fill="#744936" /><rect x="390" y="290" width="40" height="20" fill="#744936" /><rect x="70" y="310" width="100" height="20" fill="#744936" /><rect x="270" y="310" width="80" height="20" fill="#744936" /><rect x="390" y="310" width="40" height="20" fill="#744936" /><rect x="70" y="330" width="120" height="20" fill="#744936" /><rect x="250" y="330" width="60" height="20" fill="#744936" /><rect x="330" y="330" width="20" height="20" fill="#744936" /><rect x="410" y="330" width="20" height="20" fill="#744936" /><rect x="70" y="350" width="120" height="20" fill="#744936" /><rect x="270" y="350" width="20" height="20" fill="#744936" /><rect x="410" y="350" width="20" height="20" fill="#744936" /><rect x="70" y="370" width="140" height="20" fill="#744936" /><rect x="270" y="370" width="20" height="20" fill="#744936" /><rect x="350" y="370" width="20" height="20" fill="#744936" /><rect x="70" y="390" width="140" height="20" fill="#744936" /><rect x="270" y="390" width="20" height="20" fill="#744936" /><rect x="350" y="390" width="20" height="20" fill="#744936" /><rect x="390" y="390" width="40" height="20" fill="#744936" /><rect x="70" y="410" width="140" height="20" fill="#744936" /><rect x="270" y="410" width="20" height="20" fill="#744936" /><rect x="310" y="410" width="20" height="20" fill="#744936" /><rect x="350" y="410" width="20" height="20" fill="#744936" /><rect x="390" y="410" width="40" height="20" fill="#744936" /><rect x="330" y="390" width="20" height="20" fill="#802F1A" /><rect x="350" y="330" width="20" height="20" fill="#802F1A" /><rect x="210" y="330" width="20" height="20" fill="#FFA800" /><rect x="250" y="210" width="20" height="20" fill="#802F1A" /></svg>