<svg xmlns="http://www.w3.org/2000/svg" preserveAspectRatio="xMinYMin meet" viewBox="0 0 500 500" shape-rendering="crispEdges" transform-origin="center"><rect width="100%" height="100%" fill="#2F590E" /><g transform="scale (5 5)"><rect x="36" y="-1" width="27" height="9" stroke-width="0.3" stroke="black" fill="#FFA800" /><text x="50" y="5.5" width="18" font-family="monospace" font-size="5" text-anchor="middle">Forest</text></g><rect x="81" y="81" width="338" height="26" fill="#A98C00" /><rect x="81" y="107" width="208" height="26" fill="#A98C00" /><rect x="81" y="133" width="208" height="26" fill="#A98C00" /><rect x="367" y="133" width="52" height="26" fill="#A98C00" /><rect x="81" y="159" width="182" height="26" fill="#A98C00" /><rect x="341" y="159" width="78" height="26" fill="#A98C00" /><rect x="81" y="185" width="234" height="26" fill="#A98C00" /><rect x="393" y="185" width="26" height="26" fill="#A98C00" /><rect x="81" y="211" width="0" height="26" fill="#A98C00" /><rect x="107" y="211" width="208" height="26" fill="#A98C00" /><rect x="393" y="211" width="26" height="26" fill="#A98C00" /><rect x="81" y="237" width="0" height="26" fill="#A98C00" /><rect x="107" y="237" width="312" height="26" fill="#A98C00" /><rect x="81" y="263" width="338" height="26" fill="#A98C00" /><rect x="81" y="289" width="338" height="26" fill="#A98C00" /><rect x="81" y="315" width="338" height="26" fill="#A98C00" /><rect x="81" y="341" width="286" height="26" fill="#A98C00" /><rect x="81" y="367" width="338" height="26" fill="#A98C00" /><rect x="81" y="393" width="338" height="26" fill="#A98C00" /><rect x="81" y="237" width="26" height="26" fill="#802F1A" /><rect x="315" y="211" width="26" height="26" fill="#802F1A" /><rect x="367" y="185" width="26" height="26" fill="#802F1A" /><rect x="341" y="185" width="26" height="26" fill="#802F1A" /></svg>