<svg xmlns="http://www.w3.org/2000/svg" preserveAspectRatio="xMinYMin meet" viewBox="0 0 500 500" shape-rendering="crispEdges" transform-origin="center"><rect width="100%" height="100%" fill="#006669" /><g transform="scale (5 5)"><rect x="18" y="-1" width="63" height="9" stroke-width="0.3" stroke="black" fill="#FFA800" /><text x="50" y="5.5" width="54" font-family="monospace" font-size="5" text-anchor="middle">Shimmering Chamber</text></g><rect x="54" y="54" width="391" height="17" fill="#004238" /><rect x="54" y="71" width="391" height="17" fill="#004238" /><rect x="54" y="88" width="391" height="17" fill="#004238" /><rect x="54" y="105" width="391" height="17" fill="#004238" /><rect x="54" y="122" width="34" height="17" fill="#004238" /><rect x="139" y="122" width="306" height="17" fill="#004238" /><rect x="54" y="139" width="34" height="17" fill="#004238" /><rect x="139" y="139" width="306" height="17" fill="#004238" /><rect x="54" y="156" width="34" height="17" fill="#004238" /><rect x="190" y="156" width="255" height="17" fill="#004238" /><rect x="54" y="173" width="34" height="17" fill="#004238" /><rect x="122" y="173" width="17" height="17" fill="#004238" /><rect x="309" y="173" width="136" height="17" fill="#004238" /><rect x="54" y="190" width="34" height="17" fill="#004238" /><rect x="139" y="190" width="17" height="17" fill="#004238" /><rect x="173" y="190" width="119" height="17" fill="#004238" /><rect x="309" y="190" width="136" height="17" fill="#004238" /><rect x="54" y="207" width="34" height="17" fill="#004238" /><rect x="190" y="207" width="102" height="17" fill="#004238" /><rect x="309" y="207" width="136" height="17" fill="#004238" /><rect x="54" y="224" width="34" height="17" fill="#004238" /><rect x="190" y="224" width="102" height="17" fill="#004238" /><rect x="309" y="224" width="136" height="17" fill="#004238" /><rect x="54" y="241" width="34" height="17" fill="#004238" /><rect x="190" y="241" width="51" height="17" fill="#004238" /><rect x="343" y="241" width="102" height="17" fill="#004238" /><rect x="54" y="258" width="17" height="17" fill="#004238" /><rect x="343" y="258" width="102" height="17" fill="#004238" /><rect x="54" y="275" width="17" height="17" fill="#004238" /><rect x="190" y="275" width="51" height="17" fill="#004238" /><rect x="343" y="275" width="102" height="17" fill="#004238" /><rect x="54" y="292" width="17" height="17" fill="#004238" /><rect x="190" y="292" width="51" height="17" fill="#004238" /><rect x="343" y="292" width="102" height="17" fill="#004238" /><rect x="54" y="309" width="34" height="17" fill="#004238" /><rect x="190" y="309" width="51" height="17" fill="#004238" /><rect x="343" y="309" width="102" height="17" fill="#004238" /><rect x="54" y="326" width="17" height="17" fill="#004238" /><rect x="207" y="326" width="34" height="17" fill="#004238" /><rect x="343" y="326" width="102" height="17" fill="#004238" /><rect x="54" y="343" width="17" height="17" fill="#004238" /><rect x="207" y="343" width="51" height="17" fill="#004238" /><rect x="275" y="343" width="170" height="17" fill="#004238" /><rect x="54" y="360" width="34" height="17" fill="#004238" /><rect x="139" y="360" width="119" height="17" fill="#004238" /><rect x="275" y="360" width="17" height="17" fill="#004238" /><rect x="394" y="360" width="51" height="17" fill="#004238" /><rect x="54" y="377" width="68" height="17" fill="#004238" /><rect x="394" y="377" width="51" height="17" fill="#004238" /><rect x="54" y="394" width="187" height="17" fill="#004238" /><rect x="394" y="394" width="51" height="17" fill="#004238" /><rect x="54" y="411" width="391" height="17" fill="#004238" /><rect x="54" y="428" width="391" height="17" fill="#004238" /><rect x="190" y="343" width="17" height="17" fill="#F9B569" /><rect x="71" y="292" width="17" height="17" fill="#F9B569" /><rect x="326" y="275" width="17" height="17" fill="#F9B569" /><rect x="139" y="207" width="17" height="17" fill="#F9B569" /></svg>