<svg xmlns="http://www.w3.org/2000/svg" preserveAspectRatio="xMinYMin meet" viewBox="0 0 500 500" shape-rendering="crispEdges" transform-origin="center"><rect width="100%" height="100%" fill="#F3D899" /><g transform="scale (5 5)"><rect x="11" y="-1" width="78" height="9" stroke-width="0.3" stroke="black" fill="#FFA800" /><text x="50" y="5.5" width="69" font-family="monospace" font-size="5" text-anchor="middle">Outer Keep of the Leech</text></g><rect x="58" y="58" width="384" height="16" fill="#160F09" /><rect x="58" y="74" width="384" height="16" fill="#160F09" /><rect x="58" y="90" width="384" height="16" fill="#160F09" /><rect x="58" y="106" width="384" height="16" fill="#160F09" /><rect x="58" y="122" width="384" height="16" fill="#160F09" /><rect x="58" y="138" width="176" height="16" fill="#160F09" /><rect x="346" y="138" width="96" height="16" fill="#160F09" /><rect x="58" y="154" width="96" height="16" fill="#160F09" /><rect x="346" y="154" width="96" height="16" fill="#160F09" /><rect x="58" y="170" width="48" height="16" fill="#160F09" /><rect x="202" y="170" width="32" height="16" fill="#160F09" /><rect x="346" y="170" width="96" height="16" fill="#160F09" /><rect x="58" y="186" width="48" height="16" fill="#160F09" /><rect x="202" y="186" width="80" height="16" fill="#160F09" /><rect x="298" y="186" width="144" height="16" fill="#160F09" /><rect x="58" y="202" width="224" height="16" fill="#160F09" /><rect x="298" y="202" width="144" height="16" fill="#160F09" /><rect x="58" y="218" width="80" height="16" fill="#160F09" /><rect x="186" y="218" width="96" height="16" fill="#160F09" /><rect x="298" y="218" width="144" height="16" fill="#160F09" /><rect x="58" y="234" width="80" height="16" fill="#160F09" /><rect x="186" y="234" width="96" height="16" fill="#160F09" /><rect x="298" y="234" width="64" height="16" fill="#160F09" /><rect x="410" y="234" width="32" height="16" fill="#160F09" /><rect x="58" y="250" width="64" height="16" fill="#160F09" /><rect x="234" y="250" width="48" height="16" fill="#160F09" /><rect x="298" y="250" width="64" height="16" fill="#160F09" /><rect x="410" y="250" width="32" height="16" fill="#160F09" /><rect x="58" y="266" width="16" height="16" fill="#160F09" /><rect x="410" y="266" width="32" height="16" fill="#160F09" /><rect x="58" y="282" width="16" height="16" fill="#160F09" /><rect x="202" y="282" width="32" height="16" fill="#160F09" /><rect x="250" y="282" width="32" height="16" fill="#160F09" /><rect x="298" y="282" width="64" height="16" fill="#160F09" /><rect x="410" y="282" width="32" height="16" fill="#160F09" /><rect x="58" y="298" width="16" height="16" fill="#160F09" /><rect x="282" y="298" width="96" height="16" fill="#160F09" /><rect x="394" y="298" width="48" height="16" fill="#160F09" /><rect x="58" y="314" width="16" height="16" fill="#160F09" /><rect x="266" y="314" width="16" height="16" fill="#160F09" /><rect x="362" y="314" width="16" height="16" fill="#160F09" /><rect x="394" y="314" width="48" height="16" fill="#160F09" /><rect x="58" y="330" width="16" height="16" fill="#160F09" /><rect x="266" y="330" width="16" height="16" fill="#160F09" /><rect x="378" y="330" width="64" height="16" fill="#160F09" /><rect x="58" y="346" width="16" height="16" fill="#160F09" /><rect x="362" y="346" width="80" height="16" fill="#160F09" /><rect x="58" y="362" width="32" height="16" fill="#160F09" /><rect x="266" y="362" width="176" height="16" fill="#160F09" /><rect x="58" y="378" width="80" height="16" fill="#160F09" /><rect x="266" y="378" width="176" height="16" fill="#160F09" /><rect x="58" y="394" width="80" height="16" fill="#160F09" /><rect x="266" y="394" width="176" height="16" fill="#160F09" /><rect x="58" y="410" width="384" height="16" fill="#160F09" /><rect x="58" y="426" width="384" height="16" fill="#160F09" /><rect x="362" y="330" width="16" height="16" fill="#FAAA00" /><rect x="266" y="298" width="16" height="16" fill="#FAAA00" /><rect x="186" y="298" width="16" height="16" fill="#00A29D" /><rect x="314" y="266" width="16" height="16" fill="#FAAA00" /><rect x="154" y="170" width="16" height="16" fill="#00A29D" /><rect x="106" y="170" width="16" height="16" fill="#00A29D" /><rect x="250" y="154" width="16" height="16" fill="#00A29D" /></svg>