<svg xmlns="http://www.w3.org/2000/svg" preserveAspectRatio="xMinYMin meet" viewBox="0 0 500 500" shape-rendering="crispEdges" transform-origin="center"><rect width="100%" height="100%" fill="#967E67" /><g transform="scale (5 5)"><rect x="41" y="-1" width="18" height="9" stroke-width="0.3" stroke="black" fill="#FFA800" /><text x="50" y="5.5" width="9" font-family="monospace" font-size="5" text-anchor="middle">Den</text></g><rect x="54" y="54" width="136" height="17" fill="#F3D899" /><rect x="207" y="54" width="238" height="17" fill="#F3D899" /><rect x="54" y="71" width="255" height="17" fill="#F3D899" /><rect x="326" y="71" width="119" height="17" fill="#F3D899" /><rect x="54" y="88" width="221" height="17" fill="#F3D899" /><rect x="343" y="88" width="102" height="17" fill="#F3D899" /><rect x="54" y="105" width="238" height="17" fill="#F3D899" /><rect x="326" y="105" width="119" height="17" fill="#F3D899" /><rect x="54" y="122" width="238" height="17" fill="#F3D899" /><rect x="326" y="122" width="119" height="17" fill="#F3D899" /><rect x="54" y="139" width="238" height="17" fill="#F3D899" /><rect x="343" y="139" width="102" height="17" fill="#F3D899" /><rect x="54" y="156" width="238" height="17" fill="#F3D899" /><rect x="309" y="156" width="17" height="17" fill="#F3D899" /><rect x="343" y="156" width="102" height="17" fill="#F3D899" /><rect x="54" y="173" width="238" height="17" fill="#F3D899" /><rect x="343" y="173" width="102" height="17" fill="#F3D899" /><rect x="54" y="190" width="34" height="17" fill="#F3D899" /><rect x="105" y="190" width="136" height="17" fill="#F3D899" /><rect x="343" y="190" width="102" height="17" fill="#F3D899" /><rect x="54" y="207" width="34" height="17" fill="#F3D899" /><rect x="122" y="207" width="153" height="17" fill="#F3D899" /><rect x="292" y="207" width="34" height="17" fill="#F3D899" /><rect x="343" y="207" width="102" height="17" fill="#F3D899" /><rect x="54" y="224" width="17" height="17" fill="#F3D899" /><rect x="88" y="224" width="17" height="17" fill="#F3D899" /><rect x="139" y="224" width="136" height="17" fill="#F3D899" /><rect x="292" y="224" width="34" height="17" fill="#F3D899" /><rect x="377" y="224" width="68" height="17" fill="#F3D899" /><rect x="54" y="241" width="17" height="17" fill="#F3D899" /><rect x="122" y="241" width="136" height="17" fill="#F3D899" /><rect x="292" y="241" width="68" height="17" fill="#F3D899" /><rect x="394" y="241" width="51" height="17" fill="#F3D899" /><rect x="54" y="258" width="34" height="17" fill="#F3D899" /><rect x="139" y="258" width="119" height="17" fill="#F3D899" /><rect x="292" y="258" width="85" height="17" fill="#F3D899" /><rect x="411" y="258" width="34" height="17" fill="#F3D899" /><rect x="54" y="275" width="34" height="17" fill="#F3D899" /><rect x="139" y="275" width="136" height="17" fill="#F3D899" /><rect x="309" y="275" width="34" height="17" fill="#F3D899" /><rect x="394" y="275" width="51" height="17" fill="#F3D899" /><rect x="54" y="292" width="51" height="17" fill="#F3D899" /><rect x="139" y="292" width="136" height="17" fill="#F3D899" /><rect x="309" y="292" width="34" height="17" fill="#F3D899" /><rect x="360" y="292" width="85" height="17" fill="#F3D899" /><rect x="54" y="309" width="51" height="17" fill="#F3D899" /><rect x="156" y="309" width="119" height="17" fill="#F3D899" /><rect x="292" y="309" width="51" height="17" fill="#F3D899" /><rect x="394" y="309" width="51" height="17" fill="#F3D899" /><rect x="54" y="326" width="51" height="17" fill="#F3D899" /><rect x="139" y="326" width="136" height="17" fill="#F3D899" /><rect x="292" y="326" width="68" height="17" fill="#F3D899" /><rect x="394" y="326" width="51" height="17" fill="#F3D899" /><rect x="54" y="343" width="34" height="17" fill="#F3D899" /><rect x="139" y="343" width="136" height="17" fill="#F3D899" /><rect x="292" y="343" width="85" height="17" fill="#F3D899" /><rect x="54" y="360" width="51" height="17" fill="#F3D899" /><rect x="173" y="360" width="102" height="17" fill="#F3D899" /><rect x="292" y="360" width="153" height="17" fill="#F3D899" /><rect x="54" y="377" width="34" height="17" fill="#F3D899" /><rect x="258" y="377" width="17" height="17" fill="#F3D899" /><rect x="292" y="377" width="51" height="17" fill="#F3D899" /><rect x="360" y="377" width="34" height="17" fill="#F3D899" /><rect x="411" y="377" width="34" height="17" fill="#F3D899" /><rect x="54" y="394" width="17" height="17" fill="#F3D899" /><rect x="139" y="394" width="51" height="17" fill="#F3D899" /><rect x="224" y="394" width="17" height="17" fill="#F3D899" /><rect x="292" y="394" width="51" height="17" fill="#F3D899" /><rect x="360" y="394" width="17" height="17" fill="#F3D899" /><rect x="411" y="394" width="34" height="17" fill="#F3D899" /><rect x="54" y="411" width="34" height="17" fill="#F3D899" /><rect x="139" y="411" width="51" height="17" fill="#F3D899" /><rect x="207" y="411" width="51" height="17" fill="#F3D899" /><rect x="292" y="411" width="51" height="17" fill="#F3D899" /><rect x="377" y="411" width="17" height="17" fill="#F3D899" /><rect x="411" y="411" width="34" height="17" fill="#F3D899" /><rect x="54" y="428" width="34" height="17" fill="#F3D899" /><rect x="139" y="428" width="51" height="17" fill="#F3D899" /><rect x="207" y="428" width="51" height="17" fill="#F3D899" /><rect x="309" y="428" width="34" height="17" fill="#F3D899" /><rect x="428" y="428" width="17" height="17" fill="#F3D899" /><rect x="360" y="428" width="17" height="17" fill="#3C2A1A" /><rect x="105" y="428" width="17" height="17" fill="#006669" /><rect x="258" y="411" width="17" height="17" fill="#3C2A1A" /><rect x="105" y="241" width="17" height="17" fill="#006669" /><rect x="292" y="156" width="17" height="17" fill="#3C2A1A" /></svg>