<svg xmlns="http://www.w3.org/2000/svg" preserveAspectRatio="xMinYMin meet" viewBox="0 0 500 500" shape-rendering="crispEdges" transform-origin="center"><rect width="100%" height="100%" fill="#340D07" /><g transform="scale (5 5)"><rect x="11" y="-1" width="78" height="9" stroke-width="0.3" stroke="black" fill="#FFA800" /><text x="50" y="5.5" width="69" font-family="monospace" font-size="5" text-anchor="middle">Empyrean Shrine of Bone</text></g><rect x="58" y="58" width="384" height="16" fill="#5D0503" /><rect x="58" y="74" width="112" height="16" fill="#5D0503" /><rect x="282" y="74" width="160" height="16" fill="#5D0503" /><rect x="58" y="90" width="112" height="16" fill="#5D0503" /><rect x="282" y="90" width="160" height="16" fill="#5D0503" /><rect x="58" y="106" width="112" height="16" fill="#5D0503" /><rect x="282" y="106" width="160" height="16" fill="#5D0503" /><rect x="58" y="122" width="160" height="16" fill="#5D0503" /><rect x="234" y="122" width="16" height="16" fill="#5D0503" /><rect x="266" y="122" width="176" height="16" fill="#5D0503" /><rect x="58" y="138" width="160" height="16" fill="#5D0503" /><rect x="234" y="138" width="16" height="16" fill="#5D0503" /><rect x="266" y="138" width="176" height="16" fill="#5D0503" /><rect x="58" y="154" width="160" height="16" fill="#5D0503" /><rect x="298" y="154" width="144" height="16" fill="#5D0503" /><rect x="58" y="170" width="16" height="16" fill="#5D0503" /><rect x="298" y="170" width="144" height="16" fill="#5D0503" /><rect x="58" y="186" width="16" height="16" fill="#5D0503" /><rect x="186" y="186" width="32" height="16" fill="#5D0503" /><rect x="234" y="186" width="16" height="16" fill="#5D0503" /><rect x="282" y="186" width="160" height="16" fill="#5D0503" /><rect x="58" y="202" width="16" height="16" fill="#5D0503" /><rect x="234" y="202" width="16" height="16" fill="#5D0503" /><rect x="282" y="202" width="160" height="16" fill="#5D0503" /><rect x="58" y="218" width="16" height="16" fill="#5D0503" /><rect x="234" y="218" width="16" height="16" fill="#5D0503" /><rect x="282" y="218" width="160" height="16" fill="#5D0503" /><rect x="58" y="234" width="16" height="16" fill="#5D0503" /><rect x="234" y="234" width="16" height="16" fill="#5D0503" /><rect x="282" y="234" width="160" height="16" fill="#5D0503" /><rect x="58" y="250" width="64" height="16" fill="#5D0503" /><rect x="186" y="250" width="32" height="16" fill="#5D0503" /><rect x="234" y="250" width="16" height="16" fill="#5D0503" /><rect x="282" y="250" width="160" height="16" fill="#5D0503" /><rect x="58" y="266" width="48" height="16" fill="#5D0503" /><rect x="202" y="266" width="16" height="16" fill="#5D0503" /><rect x="234" y="266" width="16" height="16" fill="#5D0503" /><rect x="282" y="266" width="160" height="16" fill="#5D0503" /><rect x="58" y="282" width="48" height="16" fill="#5D0503" /><rect x="234" y="282" width="16" height="16" fill="#5D0503" /><rect x="282" y="282" width="160" height="16" fill="#5D0503" /><rect x="58" y="298" width="48" height="16" fill="#5D0503" /><rect x="410" y="298" width="32" height="16" fill="#5D0503" /><rect x="58" y="314" width="48" height="16" fill="#5D0503" /><rect x="282" y="314" width="48" height="16" fill="#5D0503" /><rect x="410" y="314" width="32" height="16" fill="#5D0503" /><rect x="58" y="330" width="48" height="16" fill="#5D0503" /><rect x="410" y="330" width="32" height="16" fill="#5D0503" /><rect x="58" y="346" width="64" height="16" fill="#5D0503" /><rect x="410" y="346" width="32" height="16" fill="#5D0503" /><rect x="58" y="362" width="64" height="16" fill="#5D0503" /><rect x="250" y="362" width="80" height="16" fill="#5D0503" /><rect x="410" y="362" width="32" height="16" fill="#5D0503" /><rect x="58" y="378" width="96" height="16" fill="#5D0503" /><rect x="250" y="378" width="80" height="16" fill="#5D0503" /><rect x="410" y="378" width="32" height="16" fill="#5D0503" /><rect x="58" y="394" width="96" height="16" fill="#5D0503" /><rect x="250" y="394" width="80" height="16" fill="#5D0503" /><rect x="410" y="394" width="32" height="16" fill="#5D0503" /><rect x="58" y="410" width="384" height="16" fill="#5D0503" /><rect x="58" y="426" width="384" height="16" fill="#5D0503" /><rect x="234" y="394" width="16" height="16" fill="#FF1800" /><rect x="218" y="314" width="16" height="16" fill="#FF1800" /><rect x="250" y="218" width="16" height="16" fill="#B75700" /><rect x="170" y="106" width="16" height="16" fill="#FF1800" /></svg>