<svg xmlns="http://www.w3.org/2000/svg" preserveAspectRatio="xMinYMin meet" viewBox="0 0 500 500" shape-rendering="crispEdges" transform-origin="center"><rect width="100%" height="100%" fill="#967E67" /><g transform="scale (5 5)"><rect x="17" y="-1" width="66" height="9" stroke-width="0.3" stroke="black" fill="#FFA800" /><text x="50" y="5.5" width="57" font-family="monospace" font-size="5" text-anchor="middle">Prison of Vengeance</text></g><rect x="58" y="58" width="384" height="16" fill="#F3D899" /><rect x="58" y="74" width="80" height="16" fill="#F3D899" /><rect x="218" y="74" width="224" height="16" fill="#F3D899" /><rect x="58" y="90" width="80" height="16" fill="#F3D899" /><rect x="218" y="90" width="224" height="16" fill="#F3D899" /><rect x="58" y="106" width="16" height="16" fill="#F3D899" /><rect x="106" y="106" width="32" height="16" fill="#F3D899" /><rect x="362" y="106" width="80" height="16" fill="#F3D899" /><rect x="58" y="122" width="16" height="16" fill="#F3D899" /><rect x="218" y="122" width="128" height="16" fill="#F3D899" /><rect x="362" y="122" width="80" height="16" fill="#F3D899" /><rect x="58" y="138" width="16" height="16" fill="#F3D899" /><rect x="106" y="138" width="240" height="16" fill="#F3D899" /><rect x="362" y="138" width="80" height="16" fill="#F3D899" /><rect x="58" y="154" width="32" height="16" fill="#F3D899" /><rect x="106" y="154" width="64" height="16" fill="#F3D899" /><rect x="266" y="154" width="80" height="16" fill="#F3D899" /><rect x="362" y="154" width="80" height="16" fill="#F3D899" /><rect x="58" y="170" width="32" height="16" fill="#F3D899" /><rect x="106" y="170" width="16" height="16" fill="#F3D899" /><rect x="154" y="170" width="16" height="16" fill="#F3D899" /><rect x="266" y="170" width="80" height="16" fill="#F3D899" /><rect x="362" y="170" width="80" height="16" fill="#F3D899" /><rect x="58" y="186" width="32" height="16" fill="#F3D899" /><rect x="106" y="186" width="16" height="16" fill="#F3D899" /><rect x="266" y="186" width="80" height="16" fill="#F3D899" /><rect x="362" y="186" width="80" height="16" fill="#F3D899" /><rect x="58" y="202" width="32" height="16" fill="#F3D899" /><rect x="106" y="202" width="16" height="16" fill="#F3D899" /><rect x="154" y="202" width="16" height="16" fill="#F3D899" /><rect x="266" y="202" width="80" height="16" fill="#F3D899" /><rect x="362" y="202" width="80" height="16" fill="#F3D899" /><rect x="58" y="218" width="32" height="16" fill="#F3D899" /><rect x="106" y="218" width="16" height="16" fill="#F3D899" /><rect x="154" y="218" width="32" height="16" fill="#F3D899" /><rect x="202" y="218" width="16" height="16" fill="#F3D899" /><rect x="234" y="218" width="64" height="16" fill="#F3D899" /><rect x="410" y="218" width="32" height="16" fill="#F3D899" /><rect x="58" y="234" width="32" height="16" fill="#F3D899" /><rect x="106" y="234" width="16" height="16" fill="#F3D899" /><rect x="154" y="234" width="32" height="16" fill="#F3D899" /><rect x="202" y="234" width="16" height="16" fill="#F3D899" /><rect x="234" y="234" width="64" height="16" fill="#F3D899" /><rect x="410" y="234" width="32" height="16" fill="#F3D899" /><rect x="58" y="250" width="32" height="16" fill="#F3D899" /><rect x="106" y="250" width="16" height="16" fill="#F3D899" /><rect x="234" y="250" width="64" height="16" fill="#F3D899" /><rect x="410" y="250" width="32" height="16" fill="#F3D899" /><rect x="58" y="266" width="32" height="16" fill="#F3D899" /><rect x="106" y="266" width="16" height="16" fill="#F3D899" /><rect x="154" y="266" width="16" height="16" fill="#F3D899" /><rect x="410" y="266" width="32" height="16" fill="#F3D899" /><rect x="58" y="282" width="32" height="16" fill="#F3D899" /><rect x="250" y="282" width="48" height="16" fill="#F3D899" /><rect x="410" y="282" width="32" height="16" fill="#F3D899" /><rect x="58" y="298" width="32" height="16" fill="#F3D899" /><rect x="250" y="298" width="48" height="16" fill="#F3D899" /><rect x="410" y="298" width="32" height="16" fill="#F3D899" /><rect x="58" y="314" width="32" height="16" fill="#F3D899" /><rect x="362" y="314" width="80" height="16" fill="#F3D899" /><rect x="58" y="330" width="32" height="16" fill="#F3D899" /><rect x="282" y="330" width="64" height="16" fill="#F3D899" /><rect x="362" y="330" width="80" height="16" fill="#F3D899" /><rect x="58" y="346" width="32" height="16" fill="#F3D899" /><rect x="282" y="346" width="64" height="16" fill="#F3D899" /><rect x="362" y="346" width="80" height="16" fill="#F3D899" /><rect x="58" y="362" width="32" height="16" fill="#F3D899" /><rect x="282" y="362" width="32" height="16" fill="#F3D899" /><rect x="394" y="362" width="48" height="16" fill="#F3D899" /><rect x="58" y="378" width="32" height="16" fill="#F3D899" /><rect x="394" y="378" width="48" height="16" fill="#F3D899" /><rect x="58" y="394" width="64" height="16" fill="#F3D899" /><rect x="186" y="394" width="128" height="16" fill="#F3D899" /><rect x="394" y="394" width="48" height="16" fill="#F3D899" /><rect x="58" y="410" width="384" height="16" fill="#F3D899" /><rect x="58" y="426" width="384" height="16" fill="#F3D899" /><rect x="346" y="394" width="16" height="16" fill="#006669" /><rect x="202" y="330" width="16" height="16" fill="#006669" /><rect x="218" y="250" width="16" height="16" fill="#3C2A1A" /><rect x="394" y="234" width="16" height="16" fill="#006669" /><rect x="314" y="234" width="16" height="16" fill="#006669" /><rect x="346" y="154" width="16" height="16" fill="#3C2A1A" /></svg>