<svg xmlns="http://www.w3.org/2000/svg" preserveAspectRatio="xMinYMin meet" viewBox="0 0 500 500" shape-rendering="crispEdges" transform-origin="center"><rect width="100%" height="100%" fill="#006669" /><g transform="scale (5 5)"><rect x="41" y="-1" width="18" height="9" stroke-width="0.3" stroke="black" fill="#FFA800" /><text x="50" y="5.5" width="9" font-family="monospace" font-size="5" text-anchor="middle">Den</text></g><rect x="60" y="60" width="380" height="19" fill="#004238" /><rect x="60" y="79" width="19" height="19" fill="#004238" /><rect x="136" y="79" width="304" height="19" fill="#004238" /><rect x="60" y="98" width="19" height="19" fill="#004238" /><rect x="136" y="98" width="304" height="19" fill="#004238" /><rect x="60" y="117" width="19" height="19" fill="#004238" /><rect x="155" y="117" width="285" height="19" fill="#004238" /><rect x="60" y="136" width="19" height="19" fill="#004238" /><rect x="193" y="136" width="247" height="19" fill="#004238" /><rect x="60" y="155" width="38" height="19" fill="#004238" /><rect x="117" y="155" width="57" height="19" fill="#004238" /><rect x="193" y="155" width="247" height="19" fill="#004238" /><rect x="60" y="174" width="19" height="19" fill="#004238" /><rect x="193" y="174" width="171" height="19" fill="#004238" /><rect x="402" y="174" width="38" height="19" fill="#004238" /><rect x="60" y="193" width="19" height="19" fill="#004238" /><rect x="402" y="193" width="38" height="19" fill="#004238" /><rect x="60" y="212" width="19" height="19" fill="#004238" /><rect x="155" y="212" width="19" height="19" fill="#004238" /><rect x="402" y="212" width="38" height="19" fill="#004238" /><rect x="60" y="231" width="38" height="19" fill="#004238" /><rect x="307" y="231" width="57" height="19" fill="#004238" /><rect x="402" y="231" width="38" height="19" fill="#004238" /><rect x="60" y="250" width="38" height="19" fill="#004238" /><rect x="117" y="250" width="19" height="19" fill="#004238" /><rect x="231" y="250" width="133" height="19" fill="#004238" /><rect x="402" y="250" width="38" height="19" fill="#004238" /><rect x="60" y="269" width="38" height="19" fill="#004238" /><rect x="231" y="269" width="19" height="19" fill="#004238" /><rect x="345" y="269" width="38" height="19" fill="#004238" /><rect x="402" y="269" width="38" height="19" fill="#004238" /><rect x="60" y="288" width="38" height="19" fill="#004238" /><rect x="345" y="288" width="38" height="19" fill="#004238" /><rect x="402" y="288" width="38" height="19" fill="#004238" /><rect x="60" y="307" width="38" height="19" fill="#004238" /><rect x="402" y="307" width="38" height="19" fill="#004238" /><rect x="60" y="326" width="38" height="19" fill="#004238" /><rect x="231" y="326" width="19" height="19" fill="#004238" /><rect x="345" y="326" width="38" height="19" fill="#004238" /><rect x="402" y="326" width="38" height="19" fill="#004238" /><rect x="60" y="345" width="38" height="19" fill="#004238" /><rect x="231" y="345" width="57" height="19" fill="#004238" /><rect x="307" y="345" width="57" height="19" fill="#004238" /><rect x="402" y="345" width="38" height="19" fill="#004238" /><rect x="60" y="364" width="38" height="19" fill="#004238" /><rect x="402" y="364" width="38" height="19" fill="#004238" /><rect x="60" y="383" width="38" height="19" fill="#004238" /><rect x="174" y="383" width="190" height="19" fill="#004238" /><rect x="402" y="383" width="38" height="19" fill="#004238" /><rect x="60" y="402" width="380" height="19" fill="#004238" /><rect x="60" y="421" width="380" height="19" fill="#004238" /><rect x="326" y="364" width="19" height="19" fill="#967E67" /><rect x="288" y="364" width="19" height="19" fill="#967E67" /><rect x="269" y="364" width="19" height="19" fill="#967E67" /><rect x="136" y="269" width="19" height="19" fill="#F9B569" /><rect x="364" y="250" width="19" height="19" fill="#F9B569" /><rect x="364" y="212" width="19" height="19" fill="#F9B569" /><rect x="288" y="212" width="19" height="19" fill="#F9B569" /><rect x="79" y="212" width="19" height="19" fill="#F9B569" /></svg>