<svg xmlns="http://www.w3.org/2000/svg" preserveAspectRatio="xMinYMin meet" viewBox="0 0 500 500" shape-rendering="crispEdges" transform-origin="center"><rect width="100%" height="100%" fill="#2F590E" /><g transform="scale (5 5)"><rect x="18" y="-1" width="63" height="9" stroke-width="0.3" stroke="black" fill="#FFA800" /><text x="50" y="5.5" width="54" font-family="monospace" font-size="5" text-anchor="middle">Holy Crypt of Sand</text></g><rect x="60" y="60" width="380" height="19" fill="#A98C00" /><rect x="60" y="79" width="57" height="19" fill="#A98C00" /><rect x="193" y="79" width="76" height="19" fill="#A98C00" /><rect x="288" y="79" width="19" height="19" fill="#A98C00" /><rect x="364" y="79" width="19" height="19" fill="#A98C00" /><rect x="402" y="79" width="38" height="19" fill="#A98C00" /><rect x="60" y="98" width="57" height="19" fill="#A98C00" /><rect x="174" y="98" width="95" height="19" fill="#A98C00" /><rect x="402" y="98" width="38" height="19" fill="#A98C00" /><rect x="60" y="117" width="57" height="19" fill="#A98C00" /><rect x="174" y="117" width="133" height="19" fill="#A98C00" /><rect x="345" y="117" width="19" height="19" fill="#A98C00" /><rect x="60" y="136" width="76" height="19" fill="#A98C00" /><rect x="174" y="136" width="133" height="19" fill="#A98C00" /><rect x="60" y="155" width="57" height="19" fill="#A98C00" /><rect x="174" y="155" width="114" height="19" fill="#A98C00" /><rect x="345" y="155" width="19" height="19" fill="#A98C00" /><rect x="421" y="155" width="19" height="19" fill="#A98C00" /><rect x="60" y="174" width="19" height="19" fill="#A98C00" /><rect x="136" y="174" width="19" height="19" fill="#A98C00" /><rect x="174" y="174" width="152" height="19" fill="#A98C00" /><rect x="60" y="193" width="38" height="19" fill="#A98C00" /><rect x="136" y="193" width="19" height="19" fill="#A98C00" /><rect x="174" y="193" width="95" height="19" fill="#A98C00" /><rect x="60" y="212" width="38" height="19" fill="#A98C00" /><rect x="117" y="212" width="38" height="19" fill="#A98C00" /><rect x="174" y="212" width="95" height="19" fill="#A98C00" /><rect x="288" y="212" width="76" height="19" fill="#A98C00" /><rect x="402" y="212" width="38" height="19" fill="#A98C00" /><rect x="60" y="231" width="38" height="19" fill="#A98C00" /><rect x="174" y="231" width="95" height="19" fill="#A98C00" /><rect x="288" y="231" width="76" height="19" fill="#A98C00" /><rect x="402" y="231" width="38" height="19" fill="#A98C00" /><rect x="60" y="250" width="57" height="19" fill="#A98C00" /><rect x="155" y="250" width="171" height="19" fill="#A98C00" /><rect x="421" y="250" width="19" height="19" fill="#A98C00" /><rect x="60" y="269" width="38" height="19" fill="#A98C00" /><rect x="136" y="269" width="190" height="19" fill="#A98C00" /><rect x="345" y="269" width="19" height="19" fill="#A98C00" /><rect x="421" y="269" width="19" height="19" fill="#A98C00" /><rect x="60" y="288" width="38" height="19" fill="#A98C00" /><rect x="136" y="288" width="190" height="19" fill="#A98C00" /><rect x="402" y="288" width="38" height="19" fill="#A98C00" /><rect x="60" y="307" width="57" height="19" fill="#A98C00" /><rect x="136" y="307" width="209" height="19" fill="#A98C00" /><rect x="383" y="307" width="57" height="19" fill="#A98C00" /><rect x="60" y="326" width="57" height="19" fill="#A98C00" /><rect x="155" y="326" width="190" height="19" fill="#A98C00" /><rect x="364" y="326" width="76" height="19" fill="#A98C00" /><rect x="60" y="345" width="76" height="19" fill="#A98C00" /><rect x="155" y="345" width="190" height="19" fill="#A98C00" /><rect x="383" y="345" width="57" height="19" fill="#A98C00" /><rect x="60" y="364" width="57" height="19" fill="#A98C00" /><rect x="155" y="364" width="209" height="19" fill="#A98C00" /><rect x="402" y="364" width="19" height="19" fill="#A98C00" /><rect x="60" y="383" width="323" height="19" fill="#A98C00" /><rect x="402" y="383" width="19" height="19" fill="#A98C00" /><rect x="60" y="402" width="323" height="19" fill="#A98C00" /><rect x="402" y="402" width="19" height="19" fill="#A98C00" /><rect x="60" y="421" width="361" height="19" fill="#A98C00" /><rect x="364" y="364" width="19" height="19" fill="#C55300" /><rect x="326" y="288" width="19" height="19" fill="#C55300" /><rect x="364" y="193" width="19" height="19" fill="#C55300" /><rect x="155" y="174" width="19" height="19" fill="#C55300" /><rect x="402" y="136" width="19" height="19" fill="#802F1A" /></svg>